<svg id="Layer_1" data-name="Layer 1" xmlns="http://www.w3.org/2000/svg" viewBox="0 0 86.76517 40.81147"  height="75" width="122"><defs><style>.cls-1{fill:#008599;}.cls-2{fill:#7d716d;}.cls-3{fill:none;stroke:#008599;stroke-miterlimit:10;stroke-width:0.75px;}</style></defs><path class="cls-1" d="M6.89716,6.16075H9.1563L8.03972,2.44894H8.01445Zm3.26253,3.08182L9.70336,7.82784H6.36349l-.457,1.41473H3.49408L6.83322.25243H9.169l3.41575,8.99014Z"/><path class="cls-1" d="M17.31959,9.495c1.73952,0,3.83342-.92254,3.83342-3.38414V.25243H18.89387V5.92171c0,1.0111-.393,1.755-1.57428,1.755-1.16791,0-1.56161-.7439-1.56161-1.755V.25243H13.4974V6.11086c0,2.4616,2.09606,3.38414,3.82219,3.38414"/><path class="cls-1" d="M26.39692,7.67671A3.67331,3.67331,0,0,1,23.7813,6.55243L22.05445,7.66476a5.1893,5.1893,0,0,0,4.076,1.83024c1.68891,0,4.13928-.50487,4.13928-3.20695,0-1.71706-1.48636-2.27254-3.28845-2.56291l-.86415-.13781c-.86277-.1399-1.25582-.38038-1.25582-.85925,0-.58147.76082-.90979,1.28254-.90979a3.12763,3.12763,0,0,1,2.42438,1.13623L30.2824,1.72894A5.38013,5.38013,0,0,0,26.295,0c-1.92931,0-3.69345.89647-3.69345,3.06842,0,1.3261.914,2.20918,2.5889,2.47428l1.87942.303c.67291.11535,1.01671.34171,1.01671.796,0,.78185-1.092,1.035-1.68962,1.035"/><polygon class="cls-1" points="33.747 9.243 36.008 9.243 36.008 1.995 38.369 1.995 38.369 0.252 31.386 0.252 31.386 1.995 33.747 1.995 33.747 9.243"/><path class="cls-1" d="M44.108,4.3439H42.03726V1.92024H44.108a1.0966,1.0966,0,0,1,1.20586,1.21147A1.09845,1.09845,0,0,1,44.108,4.3439M45.7076,5.6327A2.48955,2.48955,0,0,0,47.5737,3.207c0-2.02082-1.24459-2.95452-3.27593-2.95452H39.77884V9.24257h2.25842V6.01027h1.4351l1.77747,3.2323h2.527Z"/><path class="cls-1" d="M52.27127,6.16075l1.11585-3.71181h.02528l1.118,3.71181ZM54.543.25243H52.20726L48.86812,9.24257h2.41315l.45561-1.41473H55.076l.4577,1.41473h2.42439Z"/><polygon class="cls-1" points="64.661 7.348 61.131 7.348 61.131 0.252 58.873 0.252 58.873 9.243 64.661 9.243 64.661 7.348"/><rect class="cls-1" x="65.93082" y="0.25243" width="2.25986" height="8.99013"/><path class="cls-1" d="M72.50716,6.16075l1.11729-3.71181h.02527L74.7663,6.16075ZM74.78041.25243H72.44387L69.10472,9.24257h2.41179l.4577-1.41473h3.33915l.45633,1.41473h2.42575Z"/><polygon class="cls-1" points="84.708 0.252 84.708 5.998 84.683 5.998 81.394 0.252 79.109 0.252 79.109 9.243 81.165 9.243 81.165 3.587 81.191 3.587 84.505 9.243 86.765 9.243 86.765 0.252 84.708 0.252"/><polygon class="cls-1" points="6.592 16.071 10.896 16.071 10.896 14.328 6.592 14.328 6.592 12.434 11.238 12.434 11.238 10.692 4.332 10.692 4.332 19.681 6.592 19.681 6.592 16.071"/><path class="cls-1" d="M16.5075,18.04075c-1.77754,0-2.31048-1.54051-2.31048-2.85329,0-2.02147.99-2.85393,2.31048-2.85393,1.67623,0,2.31048,1.43856,2.31048,2.85393,0,1.388-.63425,2.85329-2.31048,2.85329m0-7.60075a4.49763,4.49763,0,0,0-4.56962,4.74746,4.57361,4.57361,0,1,0,9.14061,0A4.49915,4.49915,0,0,0,16.5075,10.44"/><path class="cls-1" d="M22.309,10.69243v5.857c0,2.463,2.09535,3.38559,3.82147,3.38559,1.73952,0,3.83415-.92254,3.83415-3.38559v-5.857H27.70544V16.361c0,1.00966-.39376,1.75572-1.575,1.75572-1.16784,0-1.56088-.74606-1.56088-1.75572V10.69243Z"/><polygon class="cls-1" points="33.392 14.025 33.418 14.025 36.732 19.681 38.991 19.681 38.991 10.692 36.935 10.692 36.935 16.437 36.909 16.437 33.622 10.692 31.335 10.692 31.335 19.681 33.392 19.681 33.392 14.025"/><path class="cls-1" d="M44.108,17.7876H42.81277V12.58524H44.096c1.69941,0,2.30976,1.14955,2.30976,2.60222,0,1.45123-.61035,2.60014-2.29781,2.60014m-.04925-7.09517h-3.505v8.9887h3.505c2.75278,0,4.6062-1.3,4.6062-4.49367,0-3.195-1.85342-4.495-4.6062-4.495"/><path class="cls-1" d="M51.95346,16.60075l1.11794-3.7111h.02528l1.11657,3.7111Zm2.2739-5.90832H51.88945L48.551,19.68113h2.41243l.457-1.41329h3.33915l.457,1.41329H57.641Z"/><polygon class="cls-1" points="61.512 19.681 61.512 12.434 63.875 12.434 63.875 10.692 56.892 10.692 56.892 12.434 59.253 12.434 59.253 19.681 61.512 19.681"/><rect class="cls-1" x="64.9036" y="10.69243" width="2.25986" height="8.98942"/><path class="cls-1" d="M73.09216,18.04075c-1.77819,0-2.31113-1.54051-2.31113-2.85329,0-2.02147.99065-2.85393,2.31113-2.85393,1.67414,0,2.31048,1.43856,2.31048,2.85393,0,1.388-.63634,2.85329-2.31048,2.85329m0-7.60075a4.49832,4.49832,0,0,0-4.571,4.74746,4.574,4.574,0,1,0,9.14134,0A4.49859,4.49859,0,0,0,73.09216,10.44"/><polygon class="cls-1" points="84.62 16.437 84.595 16.437 81.306 10.692 79.022 10.692 79.022 19.681 81.077 19.681 81.077 14.025 81.103 14.025 84.416 19.681 86.677 19.681 86.677 10.692 84.62 10.692 84.62 16.437"/><rect class="cls-2" x="4.33216" y="21.13027" width="2.25914" height="8.99021"/><polygon class="cls-2" points="10.4 24.464 10.426 24.464 13.741 30.12 16 30.12 16 21.13 13.943 21.13 13.943 26.876 13.918 26.876 10.629 21.13 8.344 21.13 8.344 30.12 10.4 30.12 10.4 24.464"/><polygon class="cls-2" points="23.122 21.13 21.218 27.545 21.192 27.545 19.351 21.13 16.952 21.13 19.974 30.12 22.373 30.12 25.496 21.13 23.122 21.13"/><polygon class="cls-2" points="28.707 26.257 32.809 26.257 32.809 24.514 28.707 24.514 28.707 22.873 33.101 22.873 33.101 21.13 26.448 21.13 26.448 30.12 33.482 30.12 33.482 28.377 28.707 28.377 28.707 26.257"/><path class="cls-2" d="M38.42106,28.5539a3.67545,3.67545,0,0,1-2.617-1.12291l-1.7262,1.111a5.1897,5.1897,0,0,0,4.07534,1.83089c1.68955,0,4.13856-.50623,4.13856-3.2076,0-1.71706-1.485-2.27182-3.28709-2.56291l-.86414-.13853c-.86278-.13853-1.25719-.37966-1.25719-.85853,0-.58075.76219-.90914,1.28318-.90914a3.12542,3.12542,0,0,1,2.42438,1.1363l1.71425-1.22486a5.3756,5.3756,0,0,0-3.98606-1.73038c-1.93075,0-3.6949.89719-3.6949,3.06842,0,1.3261.914,2.21062,2.59035,2.47428l1.878.30305c.67356.11463,1.01672.34171,1.01672.79524,0,.78329-1.0934,1.03572-1.68826,1.03572"/><polygon class="cls-2" points="47.523 30.12 47.523 22.873 49.885 22.873 49.885 21.13 42.901 21.13 42.901 22.873 45.262 22.873 45.262 30.12 47.523 30.12"/><polygon class="cls-2" points="55.801 27.809 55.776 27.809 54.176 21.13 50.862 21.13 50.862 30.12 52.918 30.12 52.918 23.138 52.943 23.138 54.785 30.12 56.778 30.12 58.567 23.138 58.593 23.138 58.593 30.12 60.726 30.12 60.726 21.13 57.45 21.13 55.801 27.809"/><polygon class="cls-2" points="69.462 28.377 64.688 28.377 64.688 26.257 68.788 26.257 68.788 24.514 64.688 24.514 64.688 22.873 69.079 22.873 69.079 21.13 62.428 21.13 62.428 30.12 69.462 30.12 69.462 28.377"/><polygon class="cls-2" points="76.253 26.876 76.229 26.876 72.94 21.13 70.653 21.13 70.653 30.12 72.71 30.12 72.71 24.464 72.736 24.464 76.05 30.12 78.31 30.12 78.31 21.13 76.253 21.13 76.253 26.876"/><polygon class="cls-2" points="79.591 22.873 81.954 22.873 81.954 30.12 84.213 30.12 84.213 22.873 86.574 22.873 86.574 21.13 79.591 21.13 79.591 22.873"/><path class="cls-2" d="M65.41127,34.67527,63.49456,31.5689H60.85288l3.42842,4.7988v4.19062h2.25986V36.3677l3.42843-4.7988H67.3287Zm-7.51572,2.63815H57.8702L54.5824,31.5689H52.298v8.98942h2.05524V34.90308h.026l3.3138,5.65524h2.25915V31.5689H57.89555Zm-12.20062.16524,1.11723-3.71181h.02606l1.11722,3.71181Zm-.064-5.90976L42.2925,40.55832h2.41171l.45771-1.41329h3.33914l.45634,1.41329h2.42582L47.9674,31.5689Zm-6.57561,4.41915H37.14983V33.236H38.9913c1.028,0,1.459.49219,1.459,1.38794a1.26583,1.26583,0,0,1-1.395,1.36412m.31709-4.41915h-4.481v8.98942h2.28377V37.65441H38.94c3.0973,0,3.77086-1.84284,3.77086-3.04243,0-1.77955-.90137-3.04308-3.33842-3.04308M28.26373,38.24856h-.02527L26.63884,31.5689H23.32432v8.98942h2.058V33.57561h.02456l1.84154,6.98271h1.9926l1.79021-6.98271h.026v6.98271h2.13257V31.5689H29.914Zm-10.81757.668c-1.77681,0-2.31048-1.53849-2.31048-2.85328,0-2.02011.99-2.85264,2.31048-2.85264,1.67552,0,2.31048,1.43935,2.31048,2.85264,0,1.38931-.635,2.85328-2.31048,2.85328m0-7.6001a4.49783,4.49783,0,0,0-4.56962,4.74682,4.57364,4.57364,0,1,0,9.14062,0,4.49857,4.49857,0,0,0-4.571-4.74682m-8.93743,7.6001c-1.77609,0-2.30976-1.53849-2.30976-2.85328,0-2.02011.98928-2.85264,2.23452-2.85264a2.05448,2.05448,0,0,1,1.87877,1.35072l1.80209-.89576a4.08194,4.08194,0,0,0-3.78353-2.34914c-2.81808,0-4.39236,2.22185-4.39236,4.74682a4.49954,4.49954,0,0,0,4.57027,4.74818A4.19618,4.19618,0,0,0,12.153,38.51294l-1.79013-.85853a2.20766,2.20766,0,0,1-1.85415,1.26216"/><line class="cls-3" x1="0.375" y1="0.2939" x2="0.375" y2="40.48869"/></svg>