<svg version="1.1" id="Layer_1" xmlns="http://www.w3.org/2000/svg" xmlns:xlink="http://www.w3.org/1999/xlink" x="0px" y="0px" viewBox="0 0 309.6 93.9"
	 style="enable-background:new 0 0 309.6 93.9;" xml:space="preserve" height="36" width="120">
<style type="text/css">
	.st0{fill:#005AA7;}
	.st1{fill:#FFFFFF;}
</style>
<g>
		<path class="st0" d="M198.1,59.8c-0.1-0.1-0.2-0.2-0.2-0.2C197.9,59.6,198,59.7,198.1,59.8z"/>
		<path class="st0" d="M208,61.7c1.1-0.1,2.1-0.4,3.1-0.6c-0.1,0-0.2,0.1-0.3,0.1C209.9,61.3,209,61.5,208,61.7z"/>
		<path class="st1" d="M227.5,81.5l-82.1-4.4C94.6,74.7,44.6,77.4,0,91.5v2.4c22-4.5,44.8-7,68.6-7.2l116.2,5.8
			c44,1.8,88.3,1.4,124.8-16.3v-1.5C284,81.3,255.5,82.1,227.5,81.5z"/>
		<g>
			<path class="st1" d="M46.5,55.1h20.1l4.8,15.1h13.7L64.3,3.8H49.9L28.2,70.4h13.4L46.5,55.1z M56.6,20.5l6,22.4h-12L56.6,20.5z"
				/>
			<path class="st1" d="M90.3,70.4h12.4V35.9c0,0,14.4-10.9,14.4-0.4v34.8h12.3c0,0,0.5-34-1-40.6c-1.5-6.7-7.3-11.5-20.6-7.1
				c-3.7,1.2-5.8,3.3-5.8,3.3l-2.3-5.3l-10.7,3.1c0,0,1.4,9.5,1.5,26.1C90.4,66.3,90.3,70.4,90.3,70.4z"/>
			<path class="st1" d="M140.1,57.7l-3.5,9c16.2,9.9,37.2,5.6,39.1-8.6c1.9-14.1-6.7-15.3-15.8-18.1c-9.1-2.7-9.8-6.5-6.1-9.8
				c3.7-3.3,16.3,2.4,16.3,2.4l4.1-7.9c-15.1-8.3-34.1-6.1-36.1,8.4c-2,14.5,10.9,16.2,14.3,16.8c3.4,0.7,14,3.1,9.8,9.9
				C157.9,66.8,140.1,57.7,140.1,57.7z"/>
			<path class="st1" d="M223,65.7l-4.3-8.3c0,0-0.1,0.1-0.3,0.2c-2,1.7-4.5,2.7-7.1,3.3c-1,0.3-2,0.5-3.1,0.6
				c-3.6,0.6-7.6,0.6-10-1.9c-0.1-0.1-0.2-0.2-0.2-0.2c-0.5-0.6-0.9-1.2-1.2-2.1c-0.9-2.4-0.9-5.3-0.4-7.8l27.9,0
				c0-1.4,0.7-28.1-17.4-29c-20.1-1-24.9,12.1-24.9,25.8C181.8,60.2,192.4,81.6,223,65.7z M202.9,30c8.8-0.2,7.7,10.2,7.7,10.2
				h-14.3C196.3,40.2,195.8,30.2,202.9,30z"/>
			<path class="st1" d="M252.2,70.4l-1.6-7.7c0,0-4.6,1.6-4.6-4.2c0-5.8-1.1-58.4-1.1-58.4l-12.1,2.4c0,0-0.3,55.1,0.3,58.5
				C233.6,64.4,233.8,73.8,252.2,70.4z"/>
			<path class="st1" d="M278,70.4l-1.6-7.7c0,0-4.6,1.6-4.6-4.2c0-5.8-1.1-58.4-1.1-58.4l-12.1,2.4c0,0-0.3,55.1,0.3,58.5
				C259.4,64.4,259.7,73.8,278,70.4z"/>
		</g>
	</g>

</svg>
