<svg id="Layer_1" data-name="Layer 1" xmlns="http://www.w3.org/2000/svg" viewBox="0 0 309.59959 93.8833" height="37px" width="125px"><defs><style>.cls-1{fill:#005ba8;}.cls-2{fill:#00b09b;}.cls-3{fill:#0068b2;}</style></defs><path class="cls-1" d="M198.06639,59.7876c-.0781-.08-.1553-.1621-.2305-.248C197.90819,59.6285,197.98829,59.7066,198.06639,59.7876Z"/><path class="cls-1" d="M208.02439,61.6773a21.04814,21.04814,0,0,0,3.1279-.6328c-.1162.0283-.2304.0605-.3476.08689C209.93549,61.3296,208.99409,61.523,208.02439,61.6773Z"/><path class="cls-2" d="M227.5,81.4829l-82.10011-4.4003C94.60009,74.6831,44.6001,77.3833,0,91.4829v2.4004a356.0203,356.0203,0,0,1,68.60009-7.2002l116.1997,5.7998c44,1.7999,88.2998,1.4004,124.7998-16.2998v-1.5C284,81.2828,255.5,82.0826,227.5,81.4829Z"/><path class="cls-3" d="M46.53959,55.1431h20.1015l4.7534,15.0762h13.7178L64.332,3.8033H49.93509L28.2041,70.355H41.6504Zm10.0507-34.6338,5.9761,22.4102H50.61429Z"/><path class="cls-3" d="M90.272,70.355h12.35979V35.857s14.3785-10.9273,14.3965-.4077v34.77h12.2539s.5137-33.9546-.9804-40.60991c-1.4942-6.65529-7.2676-11.52239-20.6446-7.063a17.1526,17.1526,0,0,0-5.8403,3.25981l-2.3091-5.2969-10.729,3.124A217.13775,217.13775,0,0,1,90.272,49.7105C90.40769,66.2808,90.272,70.355,90.272,70.355Z"/><path class="cls-3" d="M140.11669,57.7232l-3.5313,8.9638c16.16261,9.9151,37.2144,5.56839,39.1158-8.55661,1.9013-14.125-6.6553-15.34759-15.7549-18.064-9.0996-2.71629-9.7788-6.51849-6.1118-9.77829,3.66751-3.25971,16.2983,2.4448,16.2983,2.4448l4.07421-7.8774c-15.07611-8.2842-34.09031-6.1128-36.12791,8.41989s10.8657,16.16261,14.2612,16.84131c3.396.67869,13.9898,3.1241,9.7788,9.9151C157.90819,66.8228,140.11669,57.7232,140.11669,57.7232Z"/><path class="cls-3" d="M222.96579,65.7359l-4.3457-8.2842s-.12009.0928-.3379.2461a16.86282,16.86282,0,0,1-7.1299,3.3467,21.04814,21.04814,0,0,1-3.1279.6328c-3.582.5703-7.5635.5664-9.958-1.8897-.0781-.081-.1582-.1591-.2305-.248a6.85391,6.85391,0,0,1-1.249-2.083,14.413,14.413,0,0,1-.415-7.7998l27.8828-.0147c.0469-1.3926.707-28.0635-17.38669-28.998-20.07521-1.0366-24.85551,12.0879-24.85551,25.8056C181.81249,60.1675,192.40629,81.6265,222.96579,65.7359Zm-20.1015-35.7202c8.8261-.1695,7.7421,10.1865,7.7421,10.1865h-14.2617S195.80179,30.15139,202.86429,30.0157Z"/><path class="cls-3" d="M252.167,70.355l-1.62991-7.7422s-4.6182,1.6309-4.6182-4.2099C245.91889,52.562,244.833,0,244.833,0L232.74509,2.4449s-.2715,55.14249.2715,58.538C233.55959,64.3785,233.83109,73.7505,252.167,70.355Z"/><path class="cls-3" d="M278.02339,70.355l-1.6298-7.7422s-4.6182,1.6309-4.6182-4.2099c0-5.8409-1.0859-58.4029-1.0859-58.4029l-12.0879,2.4449s-.2715,55.14249.27141,58.538C259.416,64.3785,259.68749,73.7505,278.02339,70.355Z"/></svg>