<svg id="Layer_1" data-name="Layer 1" xmlns="http://www.w3.org/2000/svg" viewBox="0 0 339.6357 180.8437"  height="57" width="108"><defs><style>.cls-1{fill:#ee3124;stroke:#fff;stroke-width:3.75px;}.cls-2{fill:#fff;}.cls-3{fill:#231f20;}</style></defs><path class="cls-1" d="M59.019,1.875H279.8634a41.4794,41.4794,0,0,1,41.4794,41.4794V95.5576a41.48,41.48,0,0,1-41.48,41.48H59.019a41.48,41.48,0,0,1-41.48-41.48V43.355a41.48,41.48,0,0,1,41.48-41.48Z"/><path class="cls-2" d="M64.9121,20.541H273.9677A28.4424,28.4424,0,0,1,302.41,48.9834V89.93a28.4424,28.4424,0,0,1-28.4424,28.4424H64.9131A28.4424,28.4424,0,0,1,36.4707,89.93V48.9824A28.4414,28.4414,0,0,1,64.9121,20.541Z"/><path class="cls-3" d="M110.3345,29.5766l8.5288,30.6875L127.1,90.2817l.71.2934,11.9156-.0839.3344-.5015-.1255-43.146a56.2368,56.2368,0,0,0-7.1074-.2095c-.209-5.811-.2509-11.0371-.1255-16.9741l.3345-.167,51.9678.0835c7.6924.9619,15.8872,2.9263,20.2768,10.5357,4.0972,6.7729,4.7662,16.3471.5855,23.2871a22.7047,22.7047,0,0,1-8.7383,8.0273c3.7632.7109,6.6475,4.4317,7.2329,8.0269.5435,3.5957-.7524,8.1528,3.2193,10.2431,2.1323,1.2544,4.85.8784,7.2329,1.0869h8.1108v.084c.5435-.3764,2.0068.46,2.2158-.6694l.0835-37.5435V47.3452l-.71-.418-6.104-.0835-.21-.6274.1255-16.3472h20.0679l26.2558.293c9.4487.4179,19.3569,6.5219,22.2837,15.7612,1.9649,6.6059.5855,14.3408-5.31,18.8559-1.8813,1.8394-4.2226,2.5084-6.313,3.7208a20.998,20.998,0,0,1,14.7583,10.3266,20.2915,20.2915,0,0,1-.8364,19.19c-4.4316,6.94-12.0405,10.41-19.9424,10.6191H241.6958l-49.5845-.209a12.9483,12.9483,0,0,1-9.6162-3.1772c-6.1455-6.48-.5015-18.1031-4.8076-25.294-2.6343-3.3867-6.69-2.0488-10.5357-2.2158a116.4674,116.4674,0,0,0-.1255,12.626c2.09.2505,4.7242,0,6.8145.2094l.209.627-.0835,17.1411-.2925.209H91.479l-.209-.2925-.0835-17.1831.209-.3765,5.811-.2089.209-.21a60.0634,60.0634,0,0,0-1.7139-7.3164c-5.3515-.209-11.1626-.0835-16.18-.1255-1.2125,1.6728-1.0455,3.2617-.5855,5.1426,1.2124,2.5508,3.93,2.7177,6.4385,2.8012l.167.293v17.35l-32.6934.1255-.293-.209c-.1669-5.2681-.1669-11.957,0-17.4756l.293-.1675c2.7588,0,5.3926-.46,7.1069-2.7177,2.2579-2.3408,2.7593-5.3931,3.8467-8.2359l9.6992-31.1889c-.2089-.5855,1.0035-1.7979-.2929-1.9234H64.3037l-.3345-.7944.209-16.18.2925-.167,6.23-.1255,33.4048.1255Z"/><path class="cls-2" d="M179.6523,50.7314c.92,3.5542.7945,6.9824-1.5049,9.95-3.2192,3.1777-7.3584,1.7563-11.2465,2.0908l-.2925-.2925c.042-5.686-.084-10.0346.125-15.5527C171.1235,47.3452,177.6875,45.0039,179.6523,50.7314Z"/><path class="cls-2" d="M261.22,48.934a7.6791,7.6791,0,0,1,1.7139,5.5181,7.268,7.268,0,0,1-2.2994,4.5156c-2.5918,1.8394-5.77,1.5469-9.0307,1.4214-.167-3.7627-.0835-8.7793-.0835-12.96C254.74,47.3452,258.7954,46.4672,261.22,48.934Z"/><path class="cls-2" d="M91.7715,67.2876a79.6313,79.6313,0,0,1-8.32.1254l.084-1.2959,4.4312-15.3857C89.4306,56.2924,90.6845,61.6855,91.7715,67.2876Z"/><path class="cls-2" d="M263.227,79.3281a8.4241,8.4241,0,0,1,.5015,7.3584,6.2278,6.2278,0,0,1-5.1841,3.8886,49.2984,49.2984,0,0,1-7.0239,0c-.209-4.4736-.0835-9.2817-.1255-13.9228.209-.418.7529-.0835,1.0034-.334C256.2031,76.5688,261.1367,75.3149,263.227,79.3281Z"/><path class="cls-3" d="M0,168.8427l10.5049-14.0405H21.52v13.8022l3.23-.2377v7.2075l-3.4673-.272.2378,5.1333H12.6811l.34-5.1333L0,175.5742Zm8.5-.1362v.1362l4.5215-.2383v-3.8413a6.4508,6.4508,0,0,1,.4077-2.1079l-.2041-.1357a10.2336,10.2336,0,0,1-1.4277,2.1416Z"/><path class="cls-3" d="M53.0986,154.8022l-8.0234,12,9.145,13.6328H43.6133l-2.9239-5.4395a5.3539,5.3539,0,0,1-.5439-1.5639h-.272A8.7435,8.7435,0,0,1,39.16,175.2l-2.8559,5.2354H25.6972l8.9747-13.6328-8.0567-12H37.12l1.9038,3.6377a9.8688,9.8688,0,0,1,.7817,2.1074H40.01a9.363,9.363,0,0,1,.8155-2.1074l1.768-3.6377Z"/><path class="cls-3" d="M55.1684,168.8427l10.5049-14.0405H76.688v13.8022l3.23-.2377v7.2075l-3.4677-.272.2378,5.1333H67.8491l.34-5.1333-13.0205.272Zm8.4991-.1362v.1362l4.5214-.2383v-3.8413a6.4509,6.4509,0,0,1,.4078-2.1079l-.2037-.1357a10.2493,10.2493,0,0,1-1.4277,2.1416Z"/><path class="cls-3" d="M104.1123,180.4355H94.2529l8.9072-25.6333h10.3013l9.145,25.6333H112.747l-.85-3.1958H104.86Zm6.1533-9.2813-1.0879-4.5214c-.272-1.0879-.4419-2.2095-.6118-3.2974h-.34l-1.7,7.8188Z"/><path class="cls-3" d="M142.8706,165.205a8.3091,8.3091,0,0,0-5.4732-2.584,5.02,5.02,0,0,0-5.0654,4.9976,5.1163,5.1163,0,0,0,5.2012,4.9976,7.4215,7.4215,0,0,0,5.3374-2.38l-.272,9.5874c-1.4956.7139-4.9634,1.02-6.6289,1.02a12.8441,12.8441,0,0,1-13.021-12.9868,13.3279,13.3279,0,0,1,13.3945-13.4629,19.475,19.475,0,0,1,6.2554,1.0542Z"/><path class="cls-3" d="M164.4863,165.205a8.308,8.308,0,0,0-5.4731-2.584,5.0206,5.0206,0,0,0-5.0655,4.9976,5.1163,5.1163,0,0,0,5.2012,4.9976,7.4215,7.4215,0,0,0,5.3374-2.38l-.2715,9.5874c-1.4961.7139-4.9638,1.02-6.6294,1.02a12.8442,12.8442,0,0,1-13.021-12.9868A13.3279,13.3279,0,0,1,157.959,154.394a19.48,19.48,0,0,1,6.2558,1.0542Z"/><path class="cls-3" d="M166.9624,154.8022h17.2363v7.0034h-7.8535v2.4473h7.1733v6.6636h-7.1733v2.5156h8.1255v7.0034H166.9624Z"/><path class="cls-3" d="M189.1562,171.2563l.4761.374a9.7772,9.7772,0,0,0,5.8135,2.3457c.9179,0,2.38-.374,2.38-1.53s-1.2242-1.2578-2.0738-1.4277l-1.87-.34c-3.6377-.646-6.6973-2.7881-6.6973-6.7994,0-6.0854,5.5416-9.4853,11.1172-9.4853a15.2616,15.2616,0,0,1,8.125,2.2436l-2.5156,6.5616a9.68,9.68,0,0,0-5.4058-1.938c-.8159,0-2.0058.3061-2.0058,1.36,0,.9522,1.1562,1.0884,1.87,1.2583l2.1079.4756c3.9434.8843,6.7993,2.9917,6.7993,7.3433,0,6.12-5.5756,9.1455-11.1172,9.1455a23.0908,23.0908,0,0,1-9.8588-2.3462Z"/><path class="cls-3" d="M211.0127,171.2563l.476.374a9.7774,9.7774,0,0,0,5.8135,2.3457c.918,0,2.38-.374,2.38-1.53s-1.2241-1.2578-2.0737-1.4277l-1.87-.34c-3.6377-.646-6.6973-2.7881-6.6973-6.7994,0-6.0854,5.5415-9.4853,11.1172-9.4853a15.2618,15.2618,0,0,1,8.125,2.2436l-2.5156,6.5616a9.6808,9.6808,0,0,0-5.4058-1.938c-.8159,0-2.0059.3061-2.0059,1.36,0,.9522,1.1563,1.0884,1.87,1.2583l2.1074.4756c3.9438.8843,6.8,2.9917,6.8,7.3433,0,6.12-5.5757,9.1455-11.1172,9.1455a23.0913,23.0913,0,0,1-9.8589-2.3462Z"/><path class="cls-3" d="M258.7749,167.687c0,8.227-6.3574,13.1567-14.1768,13.1567s-14.1762-4.93-14.1762-13.1567c0-8.0572,6.3911-13.293,14.1762-13.293S258.7749,159.63,258.7749,167.687Zm-18.97.1357a4.7953,4.7953,0,1,0,9.5869,0,4.7976,4.7976,0,1,0-9.5869,0Z"/><path class="cls-3" d="M261.3887,154.8022h11.2529c5.7793,0,10.6753,2.4478,10.6753,8.9072,0,3.8755-1.4961,5.5073-4.9639,6.6631v.2041a6.528,6.528,0,0,1,1.564,1.53l5.5752,8.3291H274.75l-4.08-8.2271h-.17v8.2271h-9.1113ZM270.5,166.1567h.646c1.53,0,3.0595-.2378,3.0595-2.1416,0-1.9717-1.394-2.2095-2.9917-2.2095H270.5Z"/><path class="cls-3" d="M286.5093,154.8022h9.3149v25.6333h-9.3149Z"/><path class="cls-3" d="M299.3213,154.8022h17.2363v7.0034h-7.8525v2.4473h7.1718v6.6636h-7.1718v2.5156h8.125v7.0034H299.3213Z"/><path class="cls-3" d="M321.5156,171.2563l.4756.374a9.7772,9.7772,0,0,0,5.8135,2.3457c.9179,0,2.38-.374,2.38-1.53s-1.2236-1.2578-2.0742-1.4277l-1.8691-.34c-3.6377-.646-6.6973-2.7881-6.6973-6.7994,0-6.0854,5.541-9.4853,11.1162-9.4853a15.2581,15.2581,0,0,1,8.125,2.2436l-2.5156,6.5616a9.6776,9.6776,0,0,0-5.4053-1.938c-.8154,0-2.0048.3061-2.0048,1.36,0,.9522,1.1552,1.0884,1.8691,1.2583l2.1074.4756c3.9444.8843,6.8,2.9917,6.8,7.3433,0,6.12-5.5762,9.1455-11.1172,9.1455a23.0927,23.0927,0,0,1-9.8593-2.3462Z"/></svg>