<svg id="Layer_1" height="60px" width="245px" data-name="Layer 1" xmlns="http://www.w3.org/2000/svg" viewBox="0 0 199.25 48.31"><defs><style>.cls-1,.cls-2{fill:#fff;}.cls-1{fill-rule:evenodd;}</style></defs><path class="cls-1" d="M275.53,418h-3.16l-.37.87a1.83,1.83,0,0,0-.19.72.58.58,0,0,0,.31.55,2.36,2.36,0,0,0,.87.16v.25h-3v-.25a1.38,1.38,0,0,0,.79-.39,5.47,5.47,0,0,0,.77-1.35l3.19-7.13h.13l3.22,7.32a4.36,4.36,0,0,0,.76,1.31,1,1,0,0,0,.63.24v.25h-4.32v-.25h.17a1.48,1.48,0,0,0,.74-.14.37.37,0,0,0,.14-.31.67.67,0,0,0,0-.24,4.76,4.76,0,0,0-.2-.49Zm-.23-.49L274,414.43l-1.37,3.07Z" transform="translate(-198.04 -396.53)"/><path class="cls-2" d="M285,414.37v4.83a1.73,1.73,0,0,0,.14.88.71.71,0,0,0,.53.22v.24h-2.51v-.83a3.19,3.19,0,0,1-.88.77,2.07,2.07,0,0,1-1,.24,1.48,1.48,0,0,1-.93-.32,1.51,1.51,0,0,1-.54-.75,5.52,5.52,0,0,1-.14-1.49v-2.45a1.74,1.74,0,0,0-.13-.87.76.76,0,0,0-.54-.22v-.25h2.52v4.22a4.74,4.74,0,0,0,.05.85.69.69,0,0,0,.2.29.57.57,0,0,0,.32.09.8.8,0,0,0,.43-.12,3.18,3.18,0,0,0,.63-.69v-3.3a1.74,1.74,0,0,0-.13-.87.78.78,0,0,0-.54-.22v-.25Z" transform="translate(-198.04 -396.53)"/><path class="cls-2" d="M290,414.2l.1,2.11h-.22A3.27,3.27,0,0,0,289,415a1.38,1.38,0,0,0-.86-.35.66.66,0,0,0-.46.19.54.54,0,0,0-.06.76,6.62,6.62,0,0,0,1.18.93,4.49,4.49,0,0,1,1.27,1.11,1.73,1.73,0,0,1,.31,1,2.19,2.19,0,0,1-.25,1,1.91,1.91,0,0,1-.73.76,2.13,2.13,0,0,1-1,.26,3.44,3.44,0,0,1-1.18-.28,1.32,1.32,0,0,0-.27-.07q-.23,0-.36.33h-.22l-.11-2.21h.23a2.74,2.74,0,0,0,.81,1.3,1.56,1.56,0,0,0,1,.44.69.69,0,0,0,.51-.2.61.61,0,0,0,.21-.47.85.85,0,0,0-.2-.55,5.52,5.52,0,0,0-.88-.69,7.22,7.22,0,0,1-1.31-1.07,1.86,1.86,0,0,1-.43-1.2,1.94,1.94,0,0,1,.48-1.28,1.77,1.77,0,0,1,1.43-.58,2.14,2.14,0,0,1,1,.24.56.56,0,0,0,.29.1.38.38,0,0,0,.19,0,1.55,1.55,0,0,0,.23-.29Z" transform="translate(-198.04 -396.53)"/><path class="cls-2" d="M293.22,412.12v2.25h1.47V415h-1.47v3.8a3,3,0,0,0,0,.69.51.51,0,0,0,.18.25.4.4,0,0,0,.23.09c.28,0,.55-.21.81-.65l.2.15a1.81,1.81,0,0,1-1.74,1.26,1.57,1.57,0,0,1-1-.32,1.4,1.4,0,0,1-.51-.73,5.7,5.7,0,0,1-.07-1.22V415h-.8v-.23a8.22,8.22,0,0,0,1.41-1.24,7.47,7.47,0,0,0,1-1.44Z" transform="translate(-198.04 -396.53)"/><path class="cls-2" d="M297.7,414.37v1.4a4.12,4.12,0,0,1,1.07-1.26,1.59,1.59,0,0,1,.89-.32.81.81,0,0,1,.59.23.9.9,0,0,1,.22.64,1,1,0,0,1-.22.69.65.65,0,0,1-.51.24.89.89,0,0,1-.61-.23l-.3-.25a.42.42,0,0,0-.15,0,.57.57,0,0,0-.37.15,1.33,1.33,0,0,0-.4.64,4.53,4.53,0,0,0-.21,1.41v1.78a1.52,1.52,0,0,0,.05.49.58.58,0,0,0,.23.26,1.4,1.4,0,0,0,.53.1v.24h-3.33v-.24a.72.72,0,0,0,.54-.22,2.14,2.14,0,0,0,.14-1v-3.41a2.35,2.35,0,0,0-.05-.67.47.47,0,0,0-.19-.27.93.93,0,0,0-.44-.12v-.25Z" transform="translate(-198.04 -396.53)"/><path class="cls-1" d="M303.85,419.63a3.24,3.24,0,0,1-2,1,1.21,1.21,0,0,1-.88-.34,1.18,1.18,0,0,1-.35-.87,1.73,1.73,0,0,1,.61-1.27,12,12,0,0,1,2.64-1.5V416a2.55,2.55,0,0,0-.08-.87.61.61,0,0,0-.28-.32.86.86,0,0,0-.47-.14,1.29,1.29,0,0,0-.71.19.35.35,0,0,0-.17.28.56.56,0,0,0,.18.34.83.83,0,0,1,.25.55.74.74,0,0,1-.24.55.89.89,0,0,1-.63.23,1,1,0,0,1-.69-.25.77.77,0,0,1-.28-.59,1.29,1.29,0,0,1,.38-.9,2.38,2.38,0,0,1,1-.67,4.42,4.42,0,0,1,1.4-.23,2.26,2.26,0,0,1,1.38.38,1.65,1.65,0,0,1,.67.8,5.33,5.33,0,0,1,.09,1.27V419a2.91,2.91,0,0,0,0,.54.49.49,0,0,0,.1.16.3.3,0,0,0,.15,0c.12,0,.23-.08.35-.25l.2.16a2.45,2.45,0,0,1-.68.71,1.46,1.46,0,0,1-.8.22,1.3,1.3,0,0,1-.83-.24,1.21,1.21,0,0,1-.36-.75m0-.48v-2.07a4,4,0,0,0-1.18,1,1.25,1.25,0,0,0-.26.72.75.75,0,0,0,.22.54.58.58,0,0,0,.46.17,1.27,1.27,0,0,0,.76-.36" transform="translate(-198.04 -396.53)"/><path class="cls-2" d="M309.21,411.6v7.66a1.48,1.48,0,0,0,.15.83.83.83,0,0,0,.59.21v.24h-3.33v-.24a.8.8,0,0,0,.61-.24,1.45,1.45,0,0,0,.13-.8v-6.38a1.41,1.41,0,0,0-.15-.82.79.79,0,0,0-.59-.22v-.24Z" transform="translate(-198.04 -396.53)"/><path class="cls-1" d="M312,411.39a1,1,0,1,1-.72.3,1,1,0,0,1,.72-.3m.92,3v4.89a1.48,1.48,0,0,0,.15.83.83.83,0,0,0,.59.21v.24h-3.32v-.24a.79.79,0,0,0,.6-.24,1.45,1.45,0,0,0,.13-.8v-3.6a1.45,1.45,0,0,0-.15-.83.81.81,0,0,0-.58-.21v-.25Z" transform="translate(-198.04 -396.53)"/><path class="cls-1" d="M317.29,419.63a3.26,3.26,0,0,1-2,1,1.18,1.18,0,0,1-1.23-1.21,1.69,1.69,0,0,1,.61-1.27,11.73,11.73,0,0,1,2.64-1.5V416a2.86,2.86,0,0,0-.08-.87.66.66,0,0,0-.28-.32.87.87,0,0,0-.48-.14,1.26,1.26,0,0,0-.7.19.32.32,0,0,0-.17.28.56.56,0,0,0,.18.34.83.83,0,0,1,.25.55.74.74,0,0,1-.24.55.89.89,0,0,1-.63.23,1.05,1.05,0,0,1-.7-.25.79.79,0,0,1-.27-.59,1.32,1.32,0,0,1,.37-.9,2.41,2.41,0,0,1,1-.67,4.37,4.37,0,0,1,1.4-.23,2.28,2.28,0,0,1,1.38.38,1.68,1.68,0,0,1,.66.8,4.67,4.67,0,0,1,.1,1.27V419a2.91,2.91,0,0,0,0,.54.29.29,0,0,0,.1.16.25.25,0,0,0,.15,0c.11,0,.23-.08.35-.25l.2.16a2.35,2.35,0,0,1-.69.71,1.44,1.44,0,0,1-.8.22,1.27,1.27,0,0,1-.82-.24,1.12,1.12,0,0,1-.36-.75m0-.48v-2.07a4.1,4.1,0,0,0-1.19,1,1.23,1.23,0,0,0-.25.72.78.78,0,0,0,.21.54.6.6,0,0,0,.46.17,1.29,1.29,0,0,0,.77-.36" transform="translate(-198.04 -396.53)"/><path class="cls-2" d="M322.61,414.37v.8a3.56,3.56,0,0,1,.91-.74,1.91,1.91,0,0,1,.94-.24,1.44,1.44,0,0,1,1,.34,1.55,1.55,0,0,1,.53.82,6.29,6.29,0,0,1,.11,1.44v2.4a2,2,0,0,0,.12.89.76.76,0,0,0,.54.22v.24h-3.12v-.24a.68.68,0,0,0,.51-.29,1.93,1.93,0,0,0,.1-.82v-2.74a4.58,4.58,0,0,0-.06-1,.59.59,0,0,0-.2-.3.51.51,0,0,0-.31-.11c-.38,0-.73.27-1.06.81v3.3a2,2,0,0,0,.13.88.68.68,0,0,0,.48.23v.24H320.1v-.24a.8.8,0,0,0,.56-.25,1.94,1.94,0,0,0,.11-.86v-3.48a1.87,1.87,0,0,0-.13-.87.78.78,0,0,0-.54-.22v-.25Z" transform="translate(-198.04 -396.53)"/><path class="cls-2" d="M338.89,411.4v3.15h-.25a4,4,0,0,0-1.32-2,3.1,3.1,0,0,0-1.93-.67,2.47,2.47,0,0,0-1.67.57,3,3,0,0,0-.94,1.57,7.53,7.53,0,0,0-.28,2.06,7.68,7.68,0,0,0,.3,2.26,2.6,2.6,0,0,0,1,1.42,2.85,2.85,0,0,0,1.61.46,3.9,3.9,0,0,0,.66-.07,6,6,0,0,0,.69-.2v-1.86a1.94,1.94,0,0,0-.07-.68.63.63,0,0,0-.3-.28,1,1,0,0,0-.55-.13h-.23v-.24h4.34V417a1.81,1.81,0,0,0-.69.14.68.68,0,0,0-.29.33,1.9,1.9,0,0,0-.06.62V420a9.33,9.33,0,0,1-3.71.77,5.6,5.6,0,0,1-2.11-.35,5.17,5.17,0,0,1-1.48-.91,4.36,4.36,0,0,1-1-1.27,4.49,4.49,0,0,1-.46-2,4.61,4.61,0,0,1,1.42-3.41,4.85,4.85,0,0,1,3.56-1.39,6.13,6.13,0,0,1,1.2.11,4.93,4.93,0,0,1,.94.3,3.91,3.91,0,0,0,.77.24.5.5,0,0,0,.34-.13,1.18,1.18,0,0,0,.29-.51Z" transform="translate(-198.04 -396.53)"/><path class="cls-1" d="M343.16,414.19a2.83,2.83,0,0,1,1.5.42,2.63,2.63,0,0,1,1,1.18,3.82,3.82,0,0,1,.36,1.67,3.5,3.5,0,0,1-.67,2.19,2.62,2.62,0,0,1-2.22,1.07,2.54,2.54,0,0,1-2.14-1,3.84,3.84,0,0,1,0-4.57,2.54,2.54,0,0,1,2.11-1m0,.47a.73.73,0,0,0-.58.26,1.81,1.81,0,0,0-.32,1c-.05.49-.07,1.19-.07,2.07a9.13,9.13,0,0,0,.09,1.32,1.26,1.26,0,0,0,.31.71.76.76,0,0,0,.54.25.78.78,0,0,0,.5-.17,1.14,1.14,0,0,0,.34-.63,15,15,0,0,0,.13-2.53,6.48,6.48,0,0,0-.12-1.53,1.2,1.2,0,0,0-.37-.61.67.67,0,0,0-.45-.14" transform="translate(-198.04 -396.53)"/><path class="cls-2" d="M349,420.72l-2.08-4.78a4.66,4.66,0,0,0-.59-1.09.81.81,0,0,0-.44-.23v-.24h3.27v.24a.6.6,0,0,0-.42.11.44.44,0,0,0-.16.34,3,3,0,0,0,.29.92l1,2.31.8-2a3.74,3.74,0,0,0,.35-1.22.43.43,0,0,0-.15-.33.88.88,0,0,0-.52-.14v-.24h2v.24a.89.89,0,0,0-.48.22,4.22,4.22,0,0,0-.55,1l-2,4.84Z" transform="translate(-198.04 -396.53)"/><path class="cls-1" d="M357.22,417.23h-3.38a3.15,3.15,0,0,0,.65,1.94,1.36,1.36,0,0,0,1.09.55,1.22,1.22,0,0,0,.72-.22,2.6,2.6,0,0,0,.69-.8l.23.15a3.91,3.91,0,0,1-1.11,1.45,2.41,2.41,0,0,1-1.4.42,2.34,2.34,0,0,1-2.08-1.05,3.71,3.71,0,0,1-.57-2.11,3.49,3.49,0,0,1,.83-2.45,2.59,2.59,0,0,1,2-.92,2.11,2.11,0,0,1,1.62.77,3.52,3.52,0,0,1,.75,2.27m-1.63-.44a6,6,0,0,0-.11-1.45,1.18,1.18,0,0,0-.36-.6.55.55,0,0,0-.37-.12.65.65,0,0,0-.56.33,2.91,2.91,0,0,0-.39,1.61v.23Z" transform="translate(-198.04 -396.53)"/><path class="cls-2" d="M360.14,414.37v1.4a4.26,4.26,0,0,1,1.07-1.26,1.62,1.62,0,0,1,.89-.32.79.79,0,0,1,.59.23.86.86,0,0,1,.22.64,1,1,0,0,1-.22.69.65.65,0,0,1-.51.24.93.93,0,0,1-.61-.23l-.3-.25a.33.33,0,0,0-.15,0,.53.53,0,0,0-.36.15,1.34,1.34,0,0,0-.41.64,4.53,4.53,0,0,0-.21,1.41v1.78a1.52,1.52,0,0,0,.05.49.58.58,0,0,0,.23.26,1.45,1.45,0,0,0,.53.1v.24h-3.33v-.24a.72.72,0,0,0,.54-.22,2,2,0,0,0,.15-1v-3.41a2.21,2.21,0,0,0-.06-.67.43.43,0,0,0-.19-.27.93.93,0,0,0-.44-.12v-.25Z" transform="translate(-198.04 -396.53)"/><path class="cls-2" d="M365.82,414.37v.8a3.56,3.56,0,0,1,.91-.74,1.9,1.9,0,0,1,.93-.24,1.46,1.46,0,0,1,1,.34,1.61,1.61,0,0,1,.53.82,6.47,6.47,0,0,1,.1,1.44v2.4a1.79,1.79,0,0,0,.13.89.72.72,0,0,0,.54.22v.24h-3.12v-.24a.66.66,0,0,0,.5-.29,1.87,1.87,0,0,0,.11-.82v-2.74a4.58,4.58,0,0,0-.06-1,.55.55,0,0,0-.21-.3.49.49,0,0,0-.31-.11c-.37,0-.73.27-1.05.81v3.3a2,2,0,0,0,.12.88.68.68,0,0,0,.48.23v.24h-3.11v-.24a.77.77,0,0,0,.55-.25,1.8,1.8,0,0,0,.11-.86v-3.48a1.74,1.74,0,0,0-.13-.87.75.75,0,0,0-.53-.22v-.25Z" transform="translate(-198.04 -396.53)"/><path class="cls-2" d="M373,414.37v.82a3.75,3.75,0,0,1,.93-.78,2,2,0,0,1,.95-.22,1.69,1.69,0,0,1,1,.28,1.72,1.72,0,0,1,.62.84,3.79,3.79,0,0,1,1-.86,2.14,2.14,0,0,1,1-.26,1.56,1.56,0,0,1,1,.3,1.46,1.46,0,0,1,.53.74,5,5,0,0,1,.15,1.44v2.52a1.71,1.71,0,0,0,.13.88.8.8,0,0,0,.54.23v.24h-3.18v-.24a.7.7,0,0,0,.55-.29,1.74,1.74,0,0,0,.12-.82v-2.65a4.46,4.46,0,0,0-.07-1.05.57.57,0,0,0-.21-.32.48.48,0,0,0-.33-.12,1,1,0,0,0-.57.21,3,3,0,0,0-.59.62v3.31a2,2,0,0,0,.11.84.72.72,0,0,0,.58.27v.24h-3.19v-.24a.69.69,0,0,0,.41-.13.54.54,0,0,0,.19-.27,2.61,2.61,0,0,0,.06-.71v-2.65a4.4,4.4,0,0,0-.07-1.05.58.58,0,0,0-.22-.32.52.52,0,0,0-.33-.12.8.8,0,0,0-.48.14,2.44,2.44,0,0,0-.66.69v3.31a2,2,0,0,0,.12.86.69.69,0,0,0,.54.25v.24h-3.17v-.24a.77.77,0,0,0,.55-.25,1.8,1.8,0,0,0,.11-.86v-3.48a1.74,1.74,0,0,0-.13-.87.75.75,0,0,0-.53-.22v-.25Z" transform="translate(-198.04 -396.53)"/><path class="cls-1" d="M386.32,417.23h-3.38a3.21,3.21,0,0,0,.65,1.94,1.38,1.38,0,0,0,1.1.55,1.25,1.25,0,0,0,.72-.22,2.9,2.9,0,0,0,.69-.8l.22.15a3.71,3.71,0,0,1-1.11,1.45,2.39,2.39,0,0,1-1.4.42,2.35,2.35,0,0,1-2.08-1.05,3.79,3.79,0,0,1-.56-2.11,3.49,3.49,0,0,1,.83-2.45,2.59,2.59,0,0,1,2-.92,2.12,2.12,0,0,1,1.62.77,3.46,3.46,0,0,1,.74,2.27m-1.62-.44a5.8,5.8,0,0,0-.12-1.45,1.11,1.11,0,0,0-.35-.6.57.57,0,0,0-.37-.12.64.64,0,0,0-.56.33,2.91,2.91,0,0,0-.39,1.61v.23Z" transform="translate(-198.04 -396.53)"/><path class="cls-2" d="M389.07,414.37v.8a3.56,3.56,0,0,1,.91-.74,1.9,1.9,0,0,1,.93-.24,1.46,1.46,0,0,1,1,.34,1.61,1.61,0,0,1,.53.82,6.47,6.47,0,0,1,.1,1.44v2.4a1.79,1.79,0,0,0,.13.89.72.72,0,0,0,.54.22v.24h-3.12v-.24a.66.66,0,0,0,.5-.29,1.87,1.87,0,0,0,.11-.82v-2.74a4.58,4.58,0,0,0-.06-1,.55.55,0,0,0-.21-.3.49.49,0,0,0-.31-.11c-.37,0-.73.27-1.05.81v3.3a2,2,0,0,0,.12.88.69.69,0,0,0,.49.23v.24h-3.12v-.24a.77.77,0,0,0,.55-.25,1.8,1.8,0,0,0,.11-.86v-3.48a1.74,1.74,0,0,0-.13-.87.75.75,0,0,0-.53-.22v-.25Z" transform="translate(-198.04 -396.53)"/><path class="cls-2" d="M395.83,412.12v2.25h1.46V415h-1.46v3.8a3.27,3.27,0,0,0,0,.69.58.58,0,0,0,.18.25.42.42,0,0,0,.23.09c.29,0,.56-.21.81-.65l.2.15a1.8,1.8,0,0,1-1.73,1.26,1.6,1.6,0,0,1-1-.32,1.4,1.4,0,0,1-.51-.73,5.7,5.7,0,0,1-.07-1.22V415h-.8v-.23a8.22,8.22,0,0,0,1.41-1.24,7.47,7.47,0,0,0,1-1.44Z" transform="translate(-198.04 -396.53)"/><path class="cls-2" d="M220.26,435.24l-.17.17a.55.55,0,0,0,.17-.17" transform="translate(-198.04 -396.53)"/><path class="cls-2" d="M222.12,422.85a.32.32,0,0,0-.64,0,.32.32,0,1,0,.64,0" transform="translate(-198.04 -396.53)"/><path class="cls-2" d="M225.12,409.54h0v9.39a2.14,2.14,0,0,0,.91,1.94l4.47,2.67a.56.56,0,0,0,.41.18.55.55,0,0,0,.37-.14l4.54-2.71a2.14,2.14,0,0,0,.91-1.94v-9.39H225.12Zm1.91.91.19,0,.11-.2.11.2.19,0-.09.16.15.15-.19,0v.2l-.17-.13-.17.13v-.2l-.18,0,.14-.15Zm-.05,2.11c.34,0,.25.33.3.33s0-.33.22-.33.75.86.38.86c-.17,0,0-.12,0-.14s-.09-.08-.12-.08-.15.18-.25.18-.11,0-.11-.07.14-.11.19-.16c-.75,0-.77.34-.89.34s.17-.36.27-.46c-.15,0-.24-.22-.4-.31.08-.11.12-.07.22,0,0-.08.06-.17.23-.17m0,2.86.14-.15-.09-.16.19,0,.11-.2.11.2.19,0-.09.16.15.15-.19,0v.2l-.17-.13-.17.13v-.2Zm-1.53-5.56h1.22v2.4h-1.22Zm.15,3.24.14-.15-.09-.16.19,0,.11-.2.11.2.19,0-.09.16.15.15-.18,0v.2l-.18-.13-.17.13v-.2Zm-.15.71h1.22v2.28h-1.22Zm3.54,8.45-2.79-1.66a2,2,0,0,1-.75-1.55v-2.64H229Zm0-6.17h-1v-2.28h1Zm-.68-3.3.19,0,.11-.2.11.2.19,0-.09.16.15.15-.19,0v.2l-.17-.13-.17.13v-.2l-.18,0,.14-.15Zm.68-.53h-1v-2.4h1Zm3.58,10.19-1.29.77h0a.54.54,0,0,1-.68,0l-1.28-.77v-6h3.27Zm0-6.36H229.3v-6.23h3.27Zm3.85,3a2,2,0,0,1-.75,1.55l-2.79,1.66v-5.85h3.54Zm0-3h-3.54v-6.23h3.54Z" transform="translate(-198.04 -396.53)"/><path class="cls-2" d="M225.6,418c0,.05,0,.11.1.15s-.06.11-.06.33c0,.74.46,1.09.8,1.09s.21-.17.24-.25c0,.12.13-.07.13.15s-.24.13-.24.33.37,0,.37.28a4,4,0,0,1,0,.49c0,.09.39-.13.37-.17s.09.31.26.3.14-.28.22-.31.36.27.36.14c0-.34-.14-.2-.14-.43s.47-.18.4-.29-.11,0-.16-.2c0,0-.38-.55.08-.25s.53-.73.51-.79a1,1,0,0,0-.31.1,1.22,1.22,0,0,1,.34-.44c0-.15-.21,0-.41.09.66-.95.24-.56-.13-.5.59-.63.44-.62,0-.42.34-.28.42-.6.36-.69-.32.42-.61.36-.61.76a1.59,1.59,0,0,1-.23.83c-.17.19,0-.7-.5-.7-.14,0-.48,0-.59.17.1,0,.23.23.23.32s.09.36-.07.36-.33-.33-.33-.49,0-.12,0-.34a1.24,1.24,0,0,0-.86-.9c0,.26.34.32.34.65-.14,0-.35-.27-.35-.1s.22.2.22.35-.25-.06-.25.1.13.11.17.25c-.1,0-.2,0-.21,0" transform="translate(-198.04 -396.53)"/><path class="cls-2" d="M241.2,421a.36.36,0,0,0,.38-.34.38.38,0,0,0-.76,0,.36.36,0,0,0,.38.34" transform="translate(-198.04 -396.53)"/><path class="cls-2" d="M239.27,421.6a.39.39,0,1,0,.38-.34.36.36,0,0,0-.38.34" transform="translate(-198.04 -396.53)"/><path class="cls-2" d="M221.28,423.38a.36.36,0,0,0-.38.34.38.38,0,0,0,.76,0,.36.36,0,0,0-.38-.34" transform="translate(-198.04 -396.53)"/><path class="cls-2" d="M222.47,424.16a.34.34,0,1,0-.38-.34.36.36,0,0,0,.38.34" transform="translate(-198.04 -396.53)"/><path class="cls-2" d="M255.83,410.66a2.37,2.37,0,0,0-.28-2.53c-.14-.15,0-.47-.3-.51a3,3,0,0,0,.36,2.57c0,.16,0,.45.22.47" transform="translate(-198.04 -396.53)"/><path class="cls-2" d="M206.83,410.58c.1,0,.08.18.18.08a3.69,3.69,0,0,1,0-1.62,1.47,1.47,0,0,0-.61-1,.16.16,0,0,0-.2,0c.2.8-.16,1.92.63,2.5" transform="translate(-198.04 -396.53)"/><path class="cls-2" d="M257,409.66c.16-.11.38-.33.26-.55a.51.51,0,0,0-.52-.21.46.46,0,0,0-.25.53.52.52,0,0,0,.51.23" transform="translate(-198.04 -396.53)"/><path class="cls-2" d="M205.51,410.45a.59.59,0,0,0,.26-.45c-.06-.16-.2-.2-.34-.26a.5.5,0,0,0-.39.18.37.37,0,0,0,.09.43c.08.1.26.1.38.1" transform="translate(-198.04 -396.53)"/><path class="cls-2" d="M257.54,410.86a.46.46,0,0,0,.54-.18.47.47,0,0,0,0-.33.64.64,0,0,0-.42-.2.62.62,0,0,0-.35.36.51.51,0,0,0,.23.35" transform="translate(-198.04 -396.53)"/><path class="cls-2" d="M256.52,411c.19.07.33-.1.43-.2s.14-.33,0-.41a.51.51,0,0,0-.39-.1.45.45,0,0,0-.28.47c0,.14.16.14.26.24" transform="translate(-198.04 -396.53)"/><path class="cls-2" d="M255.2,411.23c.27,0,.25-.33.25-.55a.57.57,0,0,0-.41-.23.49.49,0,0,0-.3.49.38.38,0,0,0,.46.29" transform="translate(-198.04 -396.53)"/><path class="cls-2" d="M207.72,411.21c.12-.1.33-.23.26-.43a.36.36,0,0,0-.58-.18c0,.12-.23.24-.08.38a.4.4,0,0,0,.4.23" transform="translate(-198.04 -396.53)"/><path class="cls-2" d="M206.55,411.23a.42.42,0,0,0,.22-.39c-.08-.14-.22-.35-.45-.26a.35.35,0,0,0-.18.47.37.37,0,0,0,.41.18" transform="translate(-198.04 -396.53)"/><path class="cls-2" d="M250.72,413.56c.29-.27.15-.78.23-1.17a4.32,4.32,0,0,0-.41-1.47c-.06-.1-.06-.3-.22-.24a3.51,3.51,0,0,0-.08,2.24c.18.19.2.54.48.64" transform="translate(-198.04 -396.53)"/><path class="cls-2" d="M205.31,410.9a.52.52,0,0,0-.27.49c.11.17.27.35.51.29s.33-.27.27-.51a.53.53,0,0,0-.51-.27" transform="translate(-198.04 -396.53)"/><path class="cls-2" d="M253.85,413.72a3,3,0,0,0-.1-2,.79.79,0,0,1-.33-.61c-.06-.13-.14-.25-.28-.15a2.64,2.64,0,0,0-.25,1.17,8,8,0,0,0,.84,1.65Z" transform="translate(-198.04 -396.53)"/><path class="cls-2" d="M255.75,411.15a.44.44,0,0,0-.22.49.37.37,0,0,0,.47.24.52.52,0,0,0,.3-.49c-.1-.16-.32-.37-.55-.24" transform="translate(-198.04 -396.53)"/><path class="cls-2" d="M206.48,412.41a.42.42,0,0,0,.31-.38c0-.21-.22-.29-.41-.39s-.26,0-.32.16a.49.49,0,0,0,0,.47c.14.06.26.27.42.14" transform="translate(-198.04 -396.53)"/><path class="cls-2" d="M207,412.09c.1.14.22.32.47.24.08-.1.3-.2.22-.41s-.22-.34-.47-.28-.26.24-.22.45" transform="translate(-198.04 -396.53)"/><path class="cls-2" d="M256.4,412.66c0-.27.45-.53.47-.8a3,3,0,0,0-1.64,1.06c-.23.37-.59.74-.55,1.15a1,1,0,0,0,.46-.27,2,2,0,0,0,1.26-1.14" transform="translate(-198.04 -396.53)"/><path class="cls-2" d="M207.07,413.88a.16.16,0,0,0,.14-.2,8.4,8.4,0,0,1-.83-1c-.26-.35-.65-.43-1-.69-.14,0-.41-.17-.47.06.49.71,1.16,1.73,2.15,1.79" transform="translate(-198.04 -396.53)"/><path class="cls-2" d="M255.2,415.37c.23.15.47-.08.69-.16a2.63,2.63,0,0,0,1.26-2.2H257a10.36,10.36,0,0,0-1.79,2.36" transform="translate(-198.04 -396.53)"/><path class="cls-2" d="M252.91,414.19a.49.49,0,0,0,.35-.59c-.1-.1-.16-.21-.29-.25a.34.34,0,0,0-.24.06.43.43,0,0,0-.28.45c.1.17.24.35.46.33" transform="translate(-198.04 -396.53)"/><path class="cls-2" d="M206.36,414.74a13.87,13.87,0,0,0-1.09-1,3.82,3.82,0,0,0-1.24-.26c-.14.06-.4,0-.42.2.7.2,1.17.8,1.86,1,.3,0,.63.17.89,0" transform="translate(-198.04 -396.53)"/><path class="cls-2" d="M210.8,414.62a.45.45,0,0,0,.31-.47c0-.19-.25-.21-.41-.25s-.36.25-.28.47.22.19.38.25" transform="translate(-198.04 -396.53)"/><path class="cls-2" d="M209.38,414.68c.13.16.35.06.49-.06a.45.45,0,0,0-.08-.47c-.16-.16-.41,0-.55.1s0,.31.14.43" transform="translate(-198.04 -396.53)"/><path class="cls-2" d="M253,414.52a.38.38,0,0,0-.31.3c0,.27.26.31.47.37a.35.35,0,1,0-.16-.67" transform="translate(-198.04 -396.53)"/><path class="cls-2" d="M253.89,415a.39.39,0,0,0,.48.24.69.69,0,0,1,.21-.16c.16-.1,0-.27,0-.37s-.21-.18-.35-.14-.34.2-.3.43" transform="translate(-198.04 -396.53)"/><path class="cls-2" d="M204,414.93a.82.82,0,0,0,.16.26.4.4,0,0,0,.55-.26.48.48,0,0,0-.49-.35.37.37,0,0,0-.22.35" transform="translate(-198.04 -396.53)"/><path class="cls-2" d="M210.74,415.37a.51.51,0,0,0,.45.29c.14-.08.32-.22.34-.39a.44.44,0,0,0-.55-.3.4.4,0,0,0-.24.4" transform="translate(-198.04 -396.53)"/><path class="cls-2" d="M209.67,415.23c0,.21.1.29.22.39s.39-.06.51-.16a.32.32,0,0,0-.06-.33c-.12-.08-.21-.18-.37-.14a.89.89,0,0,0-.3.24" transform="translate(-198.04 -396.53)"/><path class="cls-2" d="M257.23,415.09a.69.69,0,0,0-.38.26c0,.11,0,.27.08.31a.39.39,0,0,0,.44.1.52.52,0,0,0,.27-.39.76.76,0,0,0-.41-.28" transform="translate(-198.04 -396.53)"/><path class="cls-2" d="M258.55,415.93a.54.54,0,0,0,.39-.37.36.36,0,0,0-.51-.21.37.37,0,0,0-.18.33c0,.18.18.22.3.25" transform="translate(-198.04 -396.53)"/><path class="cls-2" d="M206.63,415.6c-.13.08-.31,0-.35.22a.35.35,0,0,0,.1.41c.1.08.25.19.39.1a.4.4,0,0,0,.24-.49.49.49,0,0,0-.38-.24" transform="translate(-198.04 -396.53)"/><path class="cls-2" d="M207.84,416.37c0-.12.23-.18.16-.34s-.52-.41-.69-.1,0,.36.17.49a.32.32,0,0,0,.36-.05" transform="translate(-198.04 -396.53)"/><path class="cls-2" d="M256,415.76c-.15.11-.25.23-.23.39a.36.36,0,0,0,.41.25c.12-.13.3-.27.28-.47a.43.43,0,0,0-.46-.17" transform="translate(-198.04 -396.53)"/><path class="cls-2" d="M257.31,416.25a.38.38,0,0,0,.08.43.6.6,0,0,0,.49.08c.2-.12.18-.32.22-.51-.12-.06-.16-.16-.3-.24a.49.49,0,0,0-.49.24" transform="translate(-198.04 -396.53)"/><path class="cls-2" d="M205.61,416.54c0,.1-.08.3.06.39a.43.43,0,0,0,.41,0c.06-.08.24-.13.16-.29s-.45-.49-.63-.14" transform="translate(-198.04 -396.53)"/><path class="cls-2" d="M254.39,416.72a8.13,8.13,0,0,1,.82.45,1.52,1.52,0,0,0,1.64.08s.06-.16,0-.18c-.65,0-1.12-.57-1.71-.65-.26.06-.62,0-.73.3" transform="translate(-198.04 -396.53)"/><path class="cls-2" d="M206.61,416.76a.36.36,0,0,0,.14.51c.1,0,.26.08.34,0s.16-.18.12-.34a.36.36,0,0,0-.6-.13" transform="translate(-198.04 -396.53)"/><path class="cls-2" d="M208.8,417.46a.37.37,0,0,0,.2-.45c-.14-.23-.51-.39-.69-.08-.18.16,0,.32.1.47s.24.14.39.06" transform="translate(-198.04 -396.53)"/><path class="cls-2" d="M229.84,420.76c.27.72,1.12.37,1.69.43a1.84,1.84,0,0,0,.77-.66c0-.33.12-.76-.07-1a3.16,3.16,0,0,1-.41-1.14c-.09-.55.58-.08.62-.49-.19-.21-.48-.6-.83-.33a.68.68,0,0,0-.23.68c.08.53.31,1,.39,1.49a1.16,1.16,0,0,1-.29-.25c-.41-.52-1.16-.37-1.62-.85-.56,0,.36.62-.29.74,0,.13.13.21.13.35s-.13.05-.19.09a2.79,2.79,0,0,0,.33,1" transform="translate(-198.04 -396.53)"/><path class="cls-2" d="M210.56,418.17c.12-.1.28-.22.22-.43a.43.43,0,0,0-.38-.2c-.12.1-.27.2-.21.41s.19.3.37.22" transform="translate(-198.04 -396.53)"/><path class="cls-2" d="M223,418c-.23.79-.63,1.86-.08,2.61.22,0,.16-.24.18-.41a2.82,2.82,0,0,0,.24-2.28c-.06-.21-.3-.13-.34.08" transform="translate(-198.04 -396.53)"/><path class="cls-2" d="M240.69,420.23a2.31,2.31,0,0,0,0-1.89c-.08-.17-.06-.54-.35-.47a5.1,5.1,0,0,1-.24,1.08,4.48,4.48,0,0,0,.47,1.45Z" transform="translate(-198.04 -396.53)"/><path class="cls-2" d="M209.87,419.38a2.4,2.4,0,0,0,1.8-.35c.23-.16.57-.23.69-.47,0-.1-.14-.06-.18-.14a2.19,2.19,0,0,0-2.31,1" transform="translate(-198.04 -396.53)"/><path class="cls-2" d="M205.43,421.3a5.49,5.49,0,0,0-1.4-2c-.08,0-.2,0-.2.08a2.24,2.24,0,0,0,1.23,2.1c.23,0,.39.2.55.08s-.12-.18-.18-.26" transform="translate(-198.04 -396.53)"/><path class="cls-2" d="M239.67,420.4c.17-.06.21-.27.19-.47a.35.35,0,0,0-.55-.1c0,.1-.16.18-.1.32a.36.36,0,0,0,.46.25" transform="translate(-198.04 -396.53)"/><path class="cls-2" d="M255.92,422.5a5.12,5.12,0,0,0,2.47-2.29.65.65,0,0,0-.55.09c-1.07.26-1.44,1.4-2.13,2.14,0,.1.12.06.21.06" transform="translate(-198.04 -396.53)"/><path class="cls-2" d="M202.83,421.5c.19,0,.11-.2.21-.29s-.21-.26-.37-.34a.36.36,0,0,0-.26.45.32.32,0,0,0,.42.18" transform="translate(-198.04 -396.53)"/><path class="cls-2" d="M206.3,421.13a2.2,2.2,0,0,0,2.33.59c.1,0,.31,0,.25-.22-.69-.51-1.67-.35-2.5-.55-.08,0-.08.1-.08.18" transform="translate(-198.04 -396.53)"/><path class="cls-2" d="M203.42,421.46a.7.7,0,0,0,.27.27.44.44,0,0,0,.5-.19.57.57,0,0,0,0-.31.6.6,0,0,0-.38-.16.5.5,0,0,0-.35.39" transform="translate(-198.04 -396.53)"/><path class="cls-2" d="M222.62,421.17a.3.3,0,0,0-.14.39.41.41,0,0,0,.43.17c.12-.09.28-.21.24-.39s-.34-.21-.53-.17" transform="translate(-198.04 -396.53)"/><path class="cls-2" d="M258.41,421.46c0,.14.08.22.1.33a.45.45,0,0,0,.39.06c.14-.12.32-.23.26-.43s-.18-.12-.28-.21a.44.44,0,0,0-.47.25" transform="translate(-198.04 -396.53)"/><path class="cls-2" d="M260.05,421.93a.29.29,0,0,0,.37-.12c.1-.15.2-.29.08-.47-.17,0-.25-.21-.45-.13s-.3.19-.3.35.18.25.3.37" transform="translate(-198.04 -396.53)"/><path class="cls-2" d="M201.72,422.36c.12,0,.22,0,.32-.08s.17-.21.15-.35a.54.54,0,0,0-.41-.31.53.53,0,0,0-.36.41.61.61,0,0,0,.3.33" transform="translate(-198.04 -396.53)"/><path class="cls-2" d="M244.22,422c-.07.18.08.31.2.43s.36,0,.49-.2a.49.49,0,0,0,0-.27.39.39,0,0,0-.66,0" transform="translate(-198.04 -396.53)"/><path class="cls-2" d="M205,421.85c-.18.1-.16.28-.16.47s.16.24.35.22.24-.16.28-.3a.37.37,0,0,0-.47-.39" transform="translate(-198.04 -396.53)"/><path class="cls-2" d="M202.75,422.44a.5.5,0,0,0,.55.29c.12-.11.26-.25.2-.45s-.2-.31-.38-.31a.59.59,0,0,0-.37.47" transform="translate(-198.04 -396.53)"/><path class="cls-2" d="M246,422.73a.41.41,0,0,0,.22-.49.45.45,0,0,0-.4-.23c-.25,0-.27.27-.37.43.1.16.31.37.55.29" transform="translate(-198.04 -396.53)"/><path class="cls-2" d="M204.35,422.62c.05-.1.17-.16.11-.3a.38.38,0,0,0-.39-.29c-.14.08-.28.18-.26.39s.18.18.26.29.18-.09.28-.09" transform="translate(-198.04 -396.53)"/><path class="cls-2" d="M257.29,422.28c0,.1-.08.28,0,.36s.23.21.39.17a.61.61,0,0,0,.34-.33.41.41,0,0,0-.75-.2" transform="translate(-198.04 -396.53)"/><path class="cls-2" d="M258.85,422.44c-.14.24.07.39.25.47a.51.51,0,0,0,.48-.35.38.38,0,0,0-.48-.3c-.12,0-.16.1-.25.18" transform="translate(-198.04 -396.53)"/><path class="cls-2" d="M249.55,422.48a.47.47,0,0,0-.29.53,1,1,0,0,0,.39.16c.16-.12.41-.2.3-.46a.47.47,0,0,0-.4-.23" transform="translate(-198.04 -396.53)"/><path class="cls-2" d="M243.75,423a.35.35,0,0,0,.2.39c.19.12.35-.08.47-.16s.06-.21,0-.25a.38.38,0,0,0-.63,0" transform="translate(-198.04 -396.53)"/><path class="cls-2" d="M245.15,422.89a.5.5,0,0,0-.27.16.33.33,0,0,0,0,.31c.14,0,.3.2.44.06a.28.28,0,0,0,.16-.33c-.06-.16-.22-.16-.36-.2" transform="translate(-198.04 -396.53)"/><path class="cls-2" d="M211.07,423.5c0-.12.16-.26,0-.39a.72.72,0,0,0-.41-.2c-.16,0-.16.14-.28.18s-.06.43.14.51a.4.4,0,0,0,.51-.1" transform="translate(-198.04 -396.53)"/><path class="cls-2" d="M251.82,423.52c.14,0,.34-.12.3-.32s-.32-.37-.61-.25c0,.1-.16.18-.16.31s.23.34.47.26" transform="translate(-198.04 -396.53)"/><path class="cls-2" d="M250.58,423c-.14,0-.2.16-.32.27s0,.24.1.3a.39.39,0,0,0,.44.08c.09-.1.31-.2.23-.4a.53.53,0,0,0-.45-.25" transform="translate(-198.04 -396.53)"/><path class="cls-2" d="M260.17,423.44l-.06-.06c-.87,0-1.76-.72-2.63-.16-.17.1-.47,0-.53.26a3.26,3.26,0,0,0,2.76.19c.14-.09.5.06.46-.23" transform="translate(-198.04 -396.53)"/><path class="cls-2" d="M202,423.81a3.32,3.32,0,0,0,2.62-.47l.08-.14-.06-.07a3.66,3.66,0,0,0-2.72.56Z" transform="translate(-198.04 -396.53)"/><path class="cls-2" d="M254.19,423.34c-.08-.21-.32-.23-.47-.23s-.32.23-.26.39a.41.41,0,0,0,.53.23.49.49,0,0,0,.2-.39" transform="translate(-198.04 -396.53)"/><path class="cls-2" d="M208.07,423.83c.2-.08.16-.25.24-.41-.12-.18-.31-.37-.55-.24s-.26.16-.2.38a.44.44,0,0,0,.51.27" transform="translate(-198.04 -396.53)"/><path class="cls-2" d="M206.36,423.91a.39.39,0,0,0,.41-.06c0-.1.16-.18.1-.33s-.22-.28-.41-.32a1.14,1.14,0,0,0-.32.22.47.47,0,0,0,.22.49" transform="translate(-198.04 -396.53)"/><path class="cls-2" d="M255.61,424a.43.43,0,0,0-.36-.32c-.09,0-.23,0-.27.1a.32.32,0,0,0-.08.39.46.46,0,0,0,.39.2.43.43,0,0,0,.32-.37" transform="translate(-198.04 -396.53)"/><path class="cls-2" d="M204.82,425a2.93,2.93,0,0,0,.45-.88c0-.12.16-.18.1-.34l-.06,0a5.32,5.32,0,0,0-2.05,1.71l.08.17c.55-.15,1.1-.15,1.48-.62" transform="translate(-198.04 -396.53)"/><path class="cls-2" d="M254.29,424.6c.14-.1.35-.14.31-.38a.41.41,0,0,0-.45-.27c-.12.1-.32.19-.26.41a.45.45,0,0,0,.4.24" transform="translate(-198.04 -396.53)"/><path class="cls-2" d="M207.21,424a.34.34,0,0,0-.2.47.57.57,0,0,0,.45.21c.12-.11.28-.17.3-.39,0,0-.08-.06-.06-.1-.06-.19-.3-.21-.49-.19" transform="translate(-198.04 -396.53)"/><path class="cls-2" d="M259,425.22c.16-.1.34-.23.26-.47a.49.49,0,0,0-.49-.23c-.22,0-.26.29-.46.31a1.88,1.88,0,0,0-1.4-.8c-.22.17.16.31.24.49a2.55,2.55,0,0,0,1.46,1.27c.06,0,.2.06.24,0a.64.64,0,0,0-.28-.41c0-.27.28,0,.43-.14" transform="translate(-198.04 -396.53)"/><path class="cls-2" d="M260.25,424.58a.3.3,0,0,0,0-.38.53.53,0,0,0-.46-.15.68.68,0,0,0-.31.27c0,.16.06.26.17.37s.48.1.58-.11" transform="translate(-198.04 -396.53)"/><path class="cls-2" d="M251.13,424.2c0,.14.14.24.2.32.27.82,1.16,1.25,1.85,1.64,0,0,.14,0,.18,0a2.65,2.65,0,0,0-.45-.82c-.08-.23-.24-.33-.38-.53a1.85,1.85,0,0,0-1.4-.57" transform="translate(-198.04 -396.53)"/><path class="cls-2" d="M205.92,424.77a.46.46,0,0,0,.46.16c.1-.08.27-.22.19-.41s-.21-.26-.37-.24-.43.26-.28.49" transform="translate(-198.04 -396.53)"/><path class="cls-2" d="M254.76,424.85c-.12.1,0,.26,0,.37s.3.08.47.06.22-.17.2-.29-.47-.43-.69-.14" transform="translate(-198.04 -396.53)"/><path class="cls-2" d="M260.21,425.79a.48.48,0,0,0,.29-.51,1.55,1.55,0,0,0-.25-.21.51.51,0,0,0-.52.15c0,.14-.1.26,0,.39a.53.53,0,0,0,.48.18" transform="translate(-198.04 -396.53)"/><path class="cls-2" d="M246.47,428.1a3,3,0,0,0-2.76.55v.12a4.31,4.31,0,0,0,2.13-.31c.18-.18.63-.12.63-.36" transform="translate(-198.04 -396.53)"/><path class="cls-2" d="M216.58,429.32a.4.4,0,0,0,.31-.35.49.49,0,0,0-.39-.3c-.14.1-.35.2-.26.45a.39.39,0,0,0,.34.2" transform="translate(-198.04 -396.53)"/><path class="cls-2" d="M245.37,429.53a.61.61,0,0,0,.45.14.58.58,0,0,0,.3-.47.43.43,0,0,0-.81,0c0,.1,0,.24.06.33" transform="translate(-198.04 -396.53)"/><path class="cls-2" d="M250.16,429.16c-1.06-.08-2.27-.08-2.94.73l.1.09,1.09,0a3.33,3.33,0,0,0,1.75-.72Z" transform="translate(-198.04 -396.53)"/><path class="cls-2" d="M210.8,429.51a.36.36,0,0,0-.16.46.37.37,0,0,0,.43.19.38.38,0,0,0,.26-.39c-.08-.16-.3-.41-.53-.26" transform="translate(-198.04 -396.53)"/><path class="cls-2" d="M212,429.71c-.06.08-.18.06-.24.18a.25.25,0,0,0,.12.35.33.33,0,0,0,.38,0c0-.1.14-.16.08-.26a.55.55,0,0,0-.34-.27" transform="translate(-198.04 -396.53)"/><path class="cls-2" d="M203.83,431.85c.22.13.54.43.75.19-.47-.62-.63-1.27-1.32-1.66a3.48,3.48,0,0,1-.43-.22c-.14,0-.32-.23-.4,0,.71.47.69,1.27,1.4,1.67" transform="translate(-198.04 -396.53)"/><path class="cls-2" d="M263.68,424.11a1.61,1.61,0,0,0-1.52-.83,1.42,1.42,0,0,0-1.14.83,1,1,0,0,0,.39,1.13.31.31,0,0,0,.4-.1c.11-.27-.18-.27-.22-.47a.69.69,0,0,1,.22-.72c.21-.2.55-.1.79-.1a1.39,1.39,0,0,1,.61.59,1.54,1.54,0,0,1,0,1.08,1.84,1.84,0,0,1-1.25,1c-1.69.24-20.16.16-20.16.16-2.17.2-4.64-.41-6.51.73a3.25,3.25,0,0,0-1.5,2.19,16,16,0,0,0-1.58,1.61l-.06-.06c.1-.49.33-.92.43-1.41a9.52,9.52,0,0,0,.53-1.41A11.24,11.24,0,0,1,235.8,425c.51-.67,1.4-.55,2.17-.55a5.39,5.39,0,0,0,2.82.41.18.18,0,0,0,.06-.14c-.28-.27-.75-.37-1.07-.64-.82-.38-1.59.13-2.44.06,0,0-.08-.06-.06-.12a12,12,0,0,1,2.52-1.35,17.48,17.48,0,0,1,2.21-.87c.3,0,.58-.27.87-.09a14.91,14.91,0,0,1-2.09,3.46c-.31,0-.49.32-.79.34-.16.23-.49.06-.69.15-.63.26-1.52.1-1.95.69a.27.27,0,0,0,.16.1c1.24,0,2.62.1,3.94,0a.48.48,0,0,0,.32-.38c-.18-.35.06-.66.23-.92.1-.49.42-.8.56-1.27.43-.84.92-1.65,1.38-2.49,0,0,.08.08.16.06a11.11,11.11,0,0,1,3.11,0l.14.12a14.72,14.72,0,0,1-.18,3c-.35,1.19-1.71,1.06-2.68,1.33-.24.16-.71.08-.71.49a17.87,17.87,0,0,0,3.81.08c.2-.08.24-.26.35-.45s.3-.49.22-.77,0-.74-.08-1.13a.61.61,0,0,0,0-.38c.16-.6.12-1.31.24-1.88.37,0,.53.47.91.49.21-.29-.22-.41-.32-.6a2.21,2.21,0,0,1,1.36.21l-.2.22c-.13.23.06.39.24.47s.24-.06.34-.1c.27-.18,0-.37.06-.53a19.27,19.27,0,0,1,4.32,1.23,3.55,3.55,0,0,0,1.18.38,5.53,5.53,0,0,0-1.54-.81c-.35-.21-.83-.23-1.1-.51.06-.11.21-.07.27-.15a3,3,0,0,0,1.76-1.14c0-.12.26-.08.24-.25-.18-.2-.48.07-.73.05-.85.16-1.21,1.16-2.07,1.34-1-.24-2.08-.49-3.12-.75a6.55,6.55,0,0,1-1.52-.33,10.08,10.08,0,0,1,.14-1.12.69.69,0,0,0,.09-.43.76.76,0,0,1,.2-.2l.42-.2a5.25,5.25,0,0,1,1.63,0,4.93,4.93,0,0,0,1,.23.71.71,0,0,1,.51-.11c.64-.34.22-1.1.26-1.69a12.89,12.89,0,0,0,1.54-1.68.38.38,0,0,0-.22-.38.34.34,0,0,0-.41.08c-.24.18,0,.41,0,.63a3.48,3.48,0,0,1-.93.8s-.07,0-.17.06l0-.12a3,3,0,0,1-.17-.41c-.12-.15-.2-.41-.32-.55a8.08,8.08,0,0,0-1.58-2.13,8.58,8.58,0,0,0-4.28-2.63c-1.6-.55-3.22.16-4.66.67a1.15,1.15,0,0,1-.79-.86,4.1,4.1,0,0,1,.38-2.16,8.17,8.17,0,0,1,.55-1.37,14.73,14.73,0,0,0,.83-3.51,1.83,1.83,0,0,0-1.09-1.61,1.08,1.08,0,0,0-1.12.22,2.9,2.9,0,0,1-1.32,1.18c0,.35.39.13.53.25.45.08,1-.06,1.32.22a3.51,3.51,0,0,1-.85,2.11,16.45,16.45,0,0,0-1.85,3.18h0v-1.06h-9.62c-.49-.16-.87-.67-1.4-.67-1.13-.45-1.88.73-3,.59-.14.08-.1.22-.18.33s-.16,0-.23,0c-.06-.49-.22-.94-.28-1.41-.12-.21-.06-.49-.16-.7-.65-1.77,1.58-.43,2-1.47s-.75-1-1.1-1.63v-.27c-.32-.32-.67-.43-.87-.85a3,3,0,0,0,.06-1.58c0-.12-.1-.28-.28-.22-.39.53-.67,1-1,1.47a10.91,10.91,0,0,0-1.19-.9c-.31,0-.59-.35-.94-.22a.27.27,0,0,0,.06.3,2.91,2.91,0,0,0,1,2l.06.31a9.37,9.37,0,0,0-.37,2.7,14.91,14.91,0,0,1-4.4,6.18c-1.15,1.31-2.53,2.58-2.71,4.37-.06.29,0,.64-.18.84a7.12,7.12,0,0,1-1.89-1c-.93-.65-2.27-.57-2.88-1.76a1.29,1.29,0,0,1,.28-1.28,2.38,2.38,0,0,0,.23-2.62c-.08,0-.1.08-.16.1-.07,1.21-1,2.05-.65,3.37.08.39.28.64.38,1a3.11,3.11,0,0,1-.46-.1,5.24,5.24,0,0,0-1.36-.18c-.94.43-2.21-.1-3,.75-.13,0-.29.05-.25.23.45,0,.87.12,1.32.1.71.12,1.18-.47,1.66-.73h.13c.2-.21.54-.09.81-.13a8.28,8.28,0,0,1,3.32,1.39v.08c-.4.19-.87.31-1.28.53a2.79,2.79,0,0,0-1.13,1.37c-.33.51.1,1,.3,1.39,0,.21,0,.45.23.53.64-.69,0-1.55.14-2.35a1.67,1.67,0,0,1,1.32-1.06c1.15-.49,2,.45,2.91,1a12.71,12.71,0,0,1-.1,2.76,2.52,2.52,0,0,1-.95.14c-1.6.12-2.86,1-4.3,1.49-.65.23-1.42.21-2.07.45a5.2,5.2,0,0,0,1.57-.06c2-.29,3.5-1.82,5.65-1.55l0,.06a4.68,4.68,0,0,1-.95,1.33c-.06-.23-.08-.41-.28-.53a.37.37,0,0,0-.47.16.29.29,0,0,0,0,.31c.1.18.26.22.45.28,0,.19-.27.27-.39.43-.57,1-1.72.57-2.39,1.25-.1.14-.47.22-.31.45a3,3,0,0,0,2.09-.54c.75-.83,1.54-1.63,2.29-2.43a2.45,2.45,0,0,1-.44,1.86,2.42,2.42,0,0,0-.55-.3.49.49,0,0,0-.36.4,1.12,1.12,0,0,0,.3.41,7.36,7.36,0,0,1-2.35.76,40.69,40.69,0,0,1-4.42.33,10.68,10.68,0,0,1-2.19,0c-.77.14-1.6-.11-2.23.32-.08.1,0,.21,0,.31.93.61,2.21.12,3.26.31h8a3.62,3.62,0,0,0,1.64-.31,5.93,5.93,0,0,0,2.13-2.7,4.11,4.11,0,0,0,.43-1.22,1.75,1.75,0,0,1,1.52-1.25,9.22,9.22,0,0,1-.35,3.11c-.12.65-.54,1.28-.28,2,.06.32.41.32.67.37,2.45-.05,4.91-.15,7.5,0a6.21,6.21,0,0,0,1.38.2c0-.06.18-.08.12-.2a.78.78,0,0,0-.49-.58c0-.12-.22-.08-.28-.16-1.3-.73-2.86-.35-4.38-.33a3.2,3.2,0,0,1-2.25-.22c-.3-.37-.08-1.53-.08-1.53a15.6,15.6,0,0,1,.63-2.23,14.29,14.29,0,0,1,2.15,1.1,14.12,14.12,0,0,1,2,1.09,13.9,13.9,0,0,1,5.82,6.88c0,.22.23.47.08.69a10.75,10.75,0,0,0-1.54-1.55,3,3,0,0,0-1.54-2.27c-.3-.45-.95-.49-1.46-.63l-7.38,0c-6-.08-11.47.18-17.43.08-.84-.08-1.85-.37-2.09-1.24a1.39,1.39,0,0,1,0-1.13,1.23,1.23,0,0,1,1-.55,1.08,1.08,0,0,1,.69.57c0,.27-.22.51-.32.74s.1.24.24.18a1,1,0,0,0,.53-.65c0-.14.08-.35-.06-.45a1.37,1.37,0,0,0-1-.84,1.59,1.59,0,0,0-1.7,2.19,2.72,2.72,0,0,0,2.19,1.63l19.73.08c1.92.1,4.09-.22,6,.17a2.31,2.31,0,0,1,1.64,1.55s-.08,0-.14,0a8.82,8.82,0,0,0-5.76-1.19,7.18,7.18,0,0,0-2.27.47,1.13,1.13,0,0,1-1-.32,3.33,3.33,0,0,0-2.94-.37c0,.06,0,.12,0,.14,1-.08,1.58.78,2.47.88.2,0,.37-.18.55,0a18.73,18.73,0,0,1-2.82,1.27c-.3-.06-.47-.35-.71-.51-.38-.43-1.09-.25-1.62-.29-.18,0-.35-.08-.47,0a1.71,1.71,0,0,0,.88.67c.5.23,1.09,0,1.56.29a3,3,0,0,1-.43.29c-.95.36-1.74,1.22-2.8,1.16a3.61,3.61,0,0,1-3-1,2,2,0,0,0-2-1.19c-.06.05-.14.05-.12.15.45.26.79.79,1.24,1.1.28.35.83,0,1.09.39a3.76,3.76,0,0,0,1.32.57,6.86,6.86,0,0,0,1.06.29l-.15.08a17.44,17.44,0,0,1-6,.59c-.61,0-1.19-.2-1.8-.18a1.13,1.13,0,0,0,.48.28,1.37,1.37,0,0,1-.54.17,3.49,3.49,0,0,0-.77.2,2.11,2.11,0,0,0-.88.2,4,4,0,0,1-1.15.94c0,.08,0,.21.08.21.39-.17.87,0,1.26-.21.67-.06,1.05-.79,1.58-1.1a2.65,2.65,0,0,1,2.07-.24c.4.1,0,.26.08.53s.3.3.53.24a.36.36,0,0,1,.14-.1.47.47,0,0,0,0-.51c.28-.19.67,0,1-.1.77,0,1.54-.19,2.29-.21.12,0,.27-.14.39,0-.06.17-.27.19-.19.41s.25.27.41.31.38-.23.3-.49-.2-.17-.3-.23c.43-.2.91-.26,1.34-.47a3.85,3.85,0,0,0,.85-.28c.26,0,.49-.27.73-.17a3.74,3.74,0,0,1-.43,1,5,5,0,0,0,0,3.56c.06,0,.08,0,.13,0a4.82,4.82,0,0,1,.18-3.35c.28-1.74,2.07-2.25,3.34-2.9l.06.08A6.43,6.43,0,0,0,216,433c0,.18-.08.36,0,.49a2.17,2.17,0,0,0,.75-.94c.14-.92-.38-2.06.55-2.74,1.66-.65,3.22-1.51,5.15-1.53.06.06.2,0,.22.08-.4.45-1,.88-1.17,1.43a4.61,4.61,0,0,0-.35,3.53c.19.64-.36,1-.63,1.47-.12.18-.16.48-.27.67l.4.05a2.21,2.21,0,0,0,.69-1.35.55.55,0,0,0,.38.41c.14-.23-.12-.39-.14-.61.32-.19.47.22.73.3a4.79,4.79,0,0,0,1.23.29l.15-.14a2.5,2.5,0,0,0-2.11-.86,4.06,4.06,0,0,1-.37-2.33,3.86,3.86,0,0,1,.41-1.27,2.83,2.83,0,0,1,1.84-1.47h.06a.14.14,0,0,0,0,.07c-.54.42-.6,1-.93,1.55a1.72,1.72,0,0,0-.18,1.77c.12.27.06.68.34.86a4.35,4.35,0,0,0,.43-1.24c-.06-.68-.47-1.31-.08-2a1.66,1.66,0,0,1,1.09-.9,6.22,6.22,0,0,1,3.07.9c.2.14.54.26.58.55a1.65,1.65,0,0,1-2.59,1.34,1.37,1.37,0,0,1-.33-1.24.85.85,0,0,1,.9-.33c.2.1.38.31.65.19a.26.26,0,0,0,.08-.33c-.23-.12-.31-.43-.61-.47a1.35,1.35,0,0,0-1.12.22,1.43,1.43,0,0,0-.46,1.43,1.74,1.74,0,0,0,1.25,1.31,2.35,2.35,0,0,0,2.5-.86,2.69,2.69,0,0,0,.44-.88,5.28,5.28,0,0,1,2.09,2.7,4.4,4.4,0,0,1,0,1l.71.06a.7.7,0,0,1,.06-.49,6.24,6.24,0,0,1,2.09-3.35c.35-.2.26.27.35.41a2.69,2.69,0,0,0,1.76,1.55,2.22,2.22,0,0,0,2.19-.71c.26-.49.59-1.21.14-1.72a1.41,1.41,0,0,0-1.11-.53,1.38,1.38,0,0,0-1.12.76c0,.16,0,.35.12.43s.25,0,.31-.1c0-.31.3-.45.54-.62a.62.62,0,0,1,.65.13,1,1,0,0,1,.29.79,1.23,1.23,0,0,1-.67,1,2.08,2.08,0,0,1-1.95-.18,5.1,5.1,0,0,1-.57-.9,1.51,1.51,0,0,1,0-.94,6.9,6.9,0,0,1,2.9-1,2.11,2.11,0,0,1,1.08.67c.93,1-.21,2.33.44,3.39.25,0,.25-.36.35-.57a3.6,3.6,0,0,0-.27-2.25,4.16,4.16,0,0,0-.77-1.2.57.57,0,0,1,.25,0,4.89,4.89,0,0,1,1.23,1.06,5.42,5.42,0,0,1,.79,3.35c-.16.61-.81.9-1.31,1.12a1.84,1.84,0,0,0-.55.66c.24.14.59,0,.83-.11.39-.14.61-.63.87-.85,0,0,0,.08,0,.12,0,.22-.1.53.1.59a6,6,0,0,0,.19-1,2,2,0,0,1,.38,1c.19.37.49.86,1,.92.12-.18,0-.37-.07-.53-.06-.51-.48-.78-.77-1.14-.71-1-.38-2.52-.93-3.62a4.34,4.34,0,0,0-1.09-1.51l.08-.08a11.83,11.83,0,0,1,2.74.49c1.11.55,2.73.43,3.26,1.88a5.31,5.31,0,0,0,1.16,2.2l.06,0a.83.83,0,0,0,0-.75c-.13-1-1-1.27-1.48-2.13l.06-.08a14.85,14.85,0,0,1,1.48.47,4.38,4.38,0,0,1,3,3.7,8.1,8.1,0,0,1-.75,3.49c-.06.16-.35.35-.17.49.23-.17.27-.43.39-.61a5.72,5.72,0,0,0,.67-4.11c0-.26-.33-.47-.18-.73a.63.63,0,0,0,.34.18c.12-.08.31-.08.39-.23s.1-.26,0-.36a.56.56,0,0,0-.59-.15,1.18,1.18,0,0,0-.25.45,4.2,4.2,0,0,0-.73-1.08l0-.06c.91.31,1.74.76,2.67,1a1.36,1.36,0,0,0,.71.23,22.29,22.29,0,0,0,2.5.63c.6-.06,1.11.22,1.72.08v0l0,0c-.22-.29-.71,0-1-.22a15.66,15.66,0,0,1-4-1c0-.06.1,0,.16,0a.52.52,0,0,0,.33-.51.56.56,0,0,0-.47-.22.55.55,0,0,0-.3.35.49.49,0,0,0,.3.38s-.12,0-.18,0l-1.85-.83c-.22,0-.4-.23-.62-.27-.47-.22-.94-.45-1.4-.63a31.3,31.3,0,0,0-4.12-1.53l-.87-.25c-.51-.14-1-.26-1.52-.41a7.7,7.7,0,0,0-5.54.47c-.24-.08-.38.31-.5.06a2.85,2.85,0,0,1,2.77-1.53c8.13-.08,15.76-.14,23.77-.26a2.57,2.57,0,0,0,2.33-1.17,2.08,2.08,0,0,0,.14-1.88m-16.36-3.88,0,.68h-2.07s-.08-.06-.06-.12c.73-.19,1.36-.62,2.09-.8Zm-2.11-1a2.38,2.38,0,0,0,.36-.55c0-.2-.08-.28-.2-.43.14-.14.37-.1.55-.14a2.29,2.29,0,0,1,1.13,1.35,14.16,14.16,0,0,1-2.47.92,7.34,7.34,0,0,1,.63-1.15M238,414.4a5.65,5.65,0,0,0,2.66,2.71c.65.53,1.46,1.16,2.33.69.47-.14.51.52.73.78.24.76-.3,1.29-.35,2a.76.76,0,0,1-.5.47c-.33.06-.59.27-.93.27-2.64,1-5.38,2.1-7.47,4.18a2.14,2.14,0,0,0,.21-.86,1.6,1.6,0,0,0-.23-.89,1.45,1.45,0,0,1-.15-.54l2.54-1.61a2.59,2.59,0,0,0,1.12-2.36v-6.66Zm-.43,5a2.42,2.42,0,0,1-.92,1.88l-5.33,3.39h0a.64.64,0,0,1-.41.14.59.59,0,0,1-.41-.15l-5.32-3.38a2.42,2.42,0,0,1-.92-1.88v-2.73a.11.11,0,0,0,.17,0c.52-.35.36-1.12.36-1.65s-.32-.94-.5-1.49l0,0V408.8h2.21c.17.06.3.19.49.21l.15-.21H237.6Zm-14.53-7.76a1.67,1.67,0,0,1,.69-1.17.26.26,0,0,1,.1.15h0v2.23c-.2-.39-1-.69-.8-1.2M227,425.09a38.71,38.71,0,0,0-6.73-4.06,11.71,11.71,0,0,1,.45-1.2,3.61,3.61,0,0,0,.12-.94,4,4,0,0,0,.12-1.39,9.41,9.41,0,0,1,.63-1.9c.12-.31.22-.63.34-.94a3,3,0,0,1,.41-1.06c.63.4,1.24.41,1.57,1v4.57a2.6,2.6,0,0,0,1.11,2.36l2.2,1.39c0,.71-.42,1.34-.22,2.08Zm3.12,4.27a14.83,14.83,0,0,0-2.59-3.73c0-.19-.22-.35-.12-.56a1.51,1.51,0,0,0,.26-1.55c0-.1-.16-.22-.14-.32l-.17-.14,3.1,2a.68.68,0,0,0,.49.22.69.69,0,0,0,.45-.17l1-.67c-.76,1.15.48,2.81-.49,3.89v.08c-.29.37-.43.74-.81,1-.49-.2-.67-.75-1-1.16a1.84,1.84,0,0,1-.18-1.9c.18-.59-.12-1.1-.18-1.63l-.2-.13a2.37,2.37,0,0,0-.29,2.39c.21.37.23.88.53,1.19a6.72,6.72,0,0,0,.87,1.51c.08.2-.12.24-.22.35-.22-.15-.18-.47-.39-.62m1.36,2.29a1.83,1.83,0,0,0-.22.71l-.08.05c.06-.31-.25-.49-.16-.82a7.3,7.3,0,0,1-.31-.82c-.18-.33.16-.47.31-.69.28.12.38.39.58.63s-.14.61-.12.94m-.12-2a6.79,6.79,0,0,0,1.44-3c.14-.1,0-.37.18-.49,0-.33.18-.66,0-.92.13-.45-.59-.86-.13-1.14l-.09,0,1.29-.82a2.81,2.81,0,0,0-.15,1.71c.06.37.36.8.08,1.13a18.39,18.39,0,0,0-2.17,4c-.25,0-.37-.27-.47-.49" transform="translate(-198.04 -396.53)"/><path class="cls-2" d="M253.44,430.36a3.13,3.13,0,0,0-2.94,1s0,.11,0,.15.18,0,.27-.07a4.24,4.24,0,0,0,2.71-.85c0-.11-.08-.13-.08-.19" transform="translate(-198.04 -396.53)"/><path class="cls-2" d="M249.85,431.24c.23-.1.41-.26.33-.55a.38.38,0,0,0-.63-.12c-.06.1-.2.18-.14.34a.56.56,0,0,0,.44.33" transform="translate(-198.04 -396.53)"/><path class="cls-2" d="M210.9,431c0,.12.13.28.27.3a.41.41,0,0,0,.36-.1.42.42,0,0,0,.1-.43c-.12-.18-.3-.16-.46-.16a.44.44,0,0,0-.27.39" transform="translate(-198.04 -396.53)"/><path class="cls-2" d="M208,432.2v-.14c-.77-.55-1.37-1.37-2.39-1.37-.12,0,0,.12,0,.18a2.86,2.86,0,0,1,1.08,1,1.56,1.56,0,0,0,1.31.31" transform="translate(-198.04 -396.53)"/><path class="cls-2" d="M256.24,430.69a3.77,3.77,0,0,0-1.81,1.94c.13.14.25-.06.39-.06.83-.31,1.24-1.17,1.7-1.86a.67.67,0,0,0-.28,0" transform="translate(-198.04 -396.53)"/><path class="cls-2" d="M212.18,431.12c.1.12.18.24.35.22s.3-.16.28-.39a.42.42,0,0,0-.43-.22c-.1.1-.28.18-.2.39" transform="translate(-198.04 -396.53)"/><path class="cls-2" d="M258.79,432c.19-.29.1-.68.29-.94L259,431a2.89,2.89,0,0,0-1.34,1.57c-.1.18-.35.39-.25.59.65-.1,1-.63,1.4-1.1" transform="translate(-198.04 -396.53)"/><path class="cls-2" d="M201.09,431.3a.38.38,0,0,0,.16.49.49.49,0,0,0,.47-.08.41.41,0,0,0,0-.45c-.14-.24-.51-.14-.63,0" transform="translate(-198.04 -396.53)"/><path class="cls-2" d="M200.62,431.79c0-.1,0-.18-.06-.28a.4.4,0,0,0-.48-.17.42.42,0,0,0-.21.43.43.43,0,0,0,.47.27c.12,0,.22-.15.28-.25" transform="translate(-198.04 -396.53)"/><path class="cls-2" d="M202.19,431.87c.16.17.32.37.6.25s.21-.33.17-.49a.58.58,0,0,0-.53-.16.45.45,0,0,0-.24.4" transform="translate(-198.04 -396.53)"/><path class="cls-2" d="M205.9,431.73a.66.66,0,0,0-.29.23c-.12.14.1.24.14.36s.29.06.39,0,.12-.24.14-.39-.26-.1-.38-.16" transform="translate(-198.04 -396.53)"/><path class="cls-2" d="M260.52,431.73c-.17.06-.35.18-.27.41s.29.2.47.22.24-.18.3-.32-.3-.31-.5-.31" transform="translate(-198.04 -396.53)"/><path class="cls-2" d="M256.79,431.81a.52.52,0,0,0-.35.37.49.49,0,0,0,.63.31c.08-.06.26-.19.24-.35a.53.53,0,0,0-.52-.33" transform="translate(-198.04 -396.53)"/><path class="cls-2" d="M259.65,432.45a.43.43,0,0,0,.18-.35c-.06-.25-.41-.27-.59-.16s-.26.26-.08.42a.46.46,0,0,0,.49.09" transform="translate(-198.04 -396.53)"/><path class="cls-2" d="M201.19,432.45a.45.45,0,0,0-.48-.21.38.38,0,0,0-.21.43.48.48,0,0,0,.45.29.44.44,0,0,0,.24-.51" transform="translate(-198.04 -396.53)"/><path class="cls-2" d="M256,433.2a.45.45,0,0,0,.28-.53c-.12-.22-.53-.35-.69,0-.16.1-.06.33,0,.43a.41.41,0,0,0,.39.14" transform="translate(-198.04 -396.53)"/><path class="cls-2" d="M211.88,433.28c.06-.12.3-.16.22-.38s-.2-.33-.43-.27-.16.12-.26.2.06.31.16.43.23.06.31,0" transform="translate(-198.04 -396.53)"/><path class="cls-2" d="M260.19,432.75c-.14,0-.16.15-.28.23s0,.34.18.45a.53.53,0,0,0,.47-.09c0-.1.14-.16.1-.3a.47.47,0,0,0-.47-.29" transform="translate(-198.04 -396.53)"/><path class="cls-2" d="M258.87,433.61c0-.12.15-.06.23-.08s.38-.19.3-.43a.7.7,0,0,0-.3-.29c-.16,0-.25.09-.37.11-.34.24.23.45,0,.73-.36,0-.85-.08-1.11.18.16.15.4.15.54.25a2.76,2.76,0,0,0,2,.78v-.17a5.26,5.26,0,0,0-1.26-1.08" transform="translate(-198.04 -396.53)"/><path class="cls-2" d="M250.36,433.06c-.06.2.1.33.2.47a.42.42,0,0,0,.45-.08c0-.11.14-.23.1-.33a.42.42,0,0,0-.75-.06" transform="translate(-198.04 -396.53)"/><path class="cls-2" d="M205.77,433.83c0-.3-.38-.42-.6-.24,0,.1-.13.18-.11.33a.42.42,0,0,0,.37.24c.2,0,.28-.14.34-.33" transform="translate(-198.04 -396.53)"/><path class="cls-2" d="M205.73,435.06c-.08.18-.42.41-.34.59A2.05,2.05,0,0,0,207,434.3c.1-.28.41-.45.41-.73h-.12a4.32,4.32,0,0,0-1.57,1.49" transform="translate(-198.04 -396.53)"/><path class="cls-2" d="M249.87,433.67c-.08.16-.18.33,0,.49s.24.23.43.16.36-.24.34-.46-.5-.43-.75-.19" transform="translate(-198.04 -396.53)"/><path class="cls-2" d="M251.31,434.41c.06,0,.16,0,.2,0a.5.5,0,0,0,.37-.45c-.06-.25-.37-.27-.55-.25s-.18.19-.28.29a.47.47,0,0,0,.26.37" transform="translate(-198.04 -396.53)"/><path class="cls-2" d="M210.56,434c-.14-.13-.2-.31-.45-.23s-.28.23-.24.41a.4.4,0,0,0,.39.25c.16-.09.32-.21.3-.43" transform="translate(-198.04 -396.53)"/><path class="cls-2" d="M211.21,434.16a.47.47,0,0,0,.36.25.49.49,0,0,0,.39-.35.43.43,0,0,0-.47-.31c-.14.1-.3.21-.28.41" transform="translate(-198.04 -396.53)"/><path class="cls-2" d="M256.24,435.49a4,4,0,0,0-1.16-1.49c-.16-.06-.36-.29-.54-.1a4.11,4.11,0,0,0,1.05,1.63c.3.06.57.43.89.29,0-.15-.14-.25-.24-.33" transform="translate(-198.04 -396.53)"/><path class="cls-2" d="M256.6,433.9c-.14.06-.32.1-.38.26s.06.35.16.47.45.08.57-.12a.51.51,0,0,0,0-.45c-.14-.06-.24-.18-.39-.16" transform="translate(-198.04 -396.53)"/><path class="cls-2" d="M213.82,434.59c-.12-.1-.22-.18-.38-.14s-.35.16-.24.41a.39.39,0,0,0,.48.24c.2-.1.16-.35.14-.51" transform="translate(-198.04 -396.53)"/><path class="cls-2" d="M252.35,437.37a3,3,0,0,0-.53-1.45l-.57-.62c-.2-.06-.34-.42-.55-.24a.16.16,0,0,0,.08.2,4.66,4.66,0,0,0,1.46,2.5h.09c.12-.11-.05-.25,0-.39" transform="translate(-198.04 -396.53)"/><path class="cls-2" d="M216.48,435.26s0,0,0,0l-1-.16a4.16,4.16,0,0,0-1.79.39.15.15,0,0,0-.1.18,2.69,2.69,0,0,0,2.88-.37" transform="translate(-198.04 -396.53)"/><path class="cls-2" d="M211.84,435.16a3,3,0,0,0-2.64,1.8c.2.12.31-.1.47-.16.85-.21,1.48-1.05,2.17-1.47Z" transform="translate(-198.04 -396.53)"/><path class="cls-2" d="M250.2,436c-.11.06-.25.08-.31.22s0,.33.19.41a.26.26,0,0,0,.38,0c.16,0,.22-.26.16-.43s-.24-.16-.42-.2" transform="translate(-198.04 -396.53)"/><path class="cls-2" d="M248.21,436.88a1.16,1.16,0,0,0,.73-.53c-.06-.09-.2-.06-.26,0a4.38,4.38,0,0,0-2.07.1c-.1.1-.31,0-.33.2a3.11,3.11,0,0,0,1.93.25" transform="translate(-198.04 -396.53)"/><path class="cls-2" d="M211.84,436.94a.44.44,0,0,0-.41-.35c-.12,0-.28.08-.32.23s0,.24.08.36a.4.4,0,0,0,.4.08c.17-.06.19-.24.25-.32" transform="translate(-198.04 -396.53)"/><path class="cls-2" d="M212.75,437.51c.16-.08.22-.27.28-.39s-.26-.36-.46-.34-.25.08-.29.18a.5.5,0,0,0,.06.41.46.46,0,0,0,.41.14" transform="translate(-198.04 -396.53)"/><path class="cls-2" d="M249.55,437.1c-.06.14-.27.25-.14.41s.1.27.24.29a.33.33,0,0,0,.44-.09.5.5,0,0,0,.15-.38.44.44,0,0,0-.69-.23" transform="translate(-198.04 -396.53)"/><path class="cls-2" d="M250.72,437.12c-.26,0-.32.35-.24.55s.12.21.24.17.33-.17.45-.27,0-.18,0-.28-.22-.23-.41-.17" transform="translate(-198.04 -396.53)"/><path class="cls-2" d="M212.1,438.43a.56.56,0,0,0,.2-.55.48.48,0,0,0-.54-.27.55.55,0,0,0-.25.59c.08.27.37.27.59.23" transform="translate(-198.04 -396.53)"/><path class="cls-2" d="M211.76,439.45v.1c.32.21.64-.1,1-.16a1.86,1.86,0,0,0,.73-1.59,20.49,20.49,0,0,0-1.7,1.65" transform="translate(-198.04 -396.53)"/><path class="cls-2" d="M246.61,438a.45.45,0,0,0-.27.22c-.06.15,0,.35.11.41s.36.12.48,0,.21-.2.12-.32-.26-.31-.44-.29" transform="translate(-198.04 -396.53)"/><path class="cls-2" d="M215.38,438.94a4.84,4.84,0,0,0-.77-.86.11.11,0,0,0-.14,0,6.24,6.24,0,0,0,.59,2.15c.22.2.37.59.71.55-.16-.51,0-1.15-.28-1.61,0-.13-.15-.13-.11-.27" transform="translate(-198.04 -396.53)"/><path class="cls-2" d="M247.6,438.18c-.1.11-.26.17-.2.37a.76.76,0,0,0,.38.19c.1-.11.29-.15.29-.31a.34.34,0,0,0-.47-.25" transform="translate(-198.04 -396.53)"/><path class="cls-2" d="M249.3,438.43l-.12,0a2.42,2.42,0,0,0,1.1,1.94h.08c.1,0,.12-.08.12-.14a2.55,2.55,0,0,0-1.18-1.82" transform="translate(-198.04 -396.53)"/><path class="cls-2" d="M248.78,440a.47.47,0,0,0,.18-.39.42.42,0,0,0-.49-.28c-.1.1-.32.2-.3.41s.38.32.61.26" transform="translate(-198.04 -396.53)"/><path class="cls-2" d="M247.56,439.59a2.84,2.84,0,0,0-1.56,1.84c0,.08-.06.25,0,.31.53-.57,1.3-1,1.58-1.72-.06-.16.27-.39-.06-.43" transform="translate(-198.04 -396.53)"/><path class="cls-2" d="M248.68,440.41c-.13.1-.29.16-.27.37a.63.63,0,0,0,.45.22c.1-.1.28-.18.28-.37a.42.42,0,0,0-.46-.22" transform="translate(-198.04 -396.53)"/><path class="cls-2" d="M228,404.57h6a.51.51,0,0,0,0-1h-6a.51.51,0,0,0,0,1m5.82-.85h.22c.42,0,.4.71,0,.71s-.82-.71-.23-.71m-2.46,0H232c.32,0,.88.71.29.71h-.59c-.32,0-.87-.71-.28-.71m-2.47,0h.59c.32,0,.87.71.28.71h-.58c-.32,0-.87-.71-.29-.71" transform="translate(-198.04 -396.53)"/><path class="cls-2" d="M234.72,413c.26,0,.62.18.62-.09s-.36-.24-.62-.24-.62-.14-.62.24.36.09.62.09" transform="translate(-198.04 -396.53)"/><path class="cls-2" d="M234,413.76l-.47,1.82,1.15-.44,1.13.44-.35-1.82.79.21-.3-1,.3-1-.89.19.45-1.69-1.13.44-1.15-.44.43,1.69-.88-.14.25,1-.25,1Zm.67-1.57c.28.66.83,0,.83.66,0,.3,0,.66-.28.66h-.92c-.4,0-.4-.27-.4-.68,0-.6.56-.09.77-.64" transform="translate(-198.04 -396.53)"/><polygon class="cls-2" points="33.2 16.01 33.3 15.84 33.09 15.86 32.98 15.65 32.86 15.86 32.66 15.84 32.76 16.01 32.6 16.17 32.8 16.21 32.8 16.42 32.98 16.29 33.16 16.42 33.16 16.21 33.35 16.17 33.2 16.01"/><polygon class="cls-2" points="31.91 17.36 31.91 17.57 32.09 17.43 32.27 17.57 32.27 17.36 32.46 17.32 32.31 17.16 32.4 16.99 32.2 17.01 32.09 16.8 31.97 17.01 31.77 16.99 31.86 17.16 31.71 17.32 31.91 17.36"/><polygon class="cls-2" points="33.38 17.02 33.23 17.17 33.42 17.21 33.42 17.42 33.6 17.29 33.78 17.42 33.78 17.21 33.97 17.17 33.82 17.02 33.92 16.84 33.72 16.86 33.6 16.65 33.48 16.86 33.28 16.84 33.38 17.02"/><polygon class="cls-2" points="33.88 17.95 33.77 17.96 33.7 17.85 33.63 17.96 33.52 17.95 33.57 18.05 33.49 18.14 33.6 18.16 33.6 18.28 33.7 18.2 33.8 18.28 33.8 18.16 33.91 18.14 33.83 18.05 33.88 17.95"/><polygon class="cls-2" points="33.05 18.27 32.7 18.3 32.5 17.94 32.3 18.3 31.96 18.27 32.12 18.56 31.86 18.83 32.19 18.89 32.19 19.26 32.5 19.03 32.81 19.26 32.81 18.89 33.14 18.83 32.89 18.56 33.05 18.27"/><polygon class="cls-2" points="31.62 4.28 31.51 6.18 32.91 4.91 34.31 6.18 34.19 4.28 36.05 3.97 34.51 2.88 35.43 1.22 33.62 1.75 32.91 0 32.19 1.75 30.39 1.22 31.3 2.88 29.76 3.97 31.62 4.28"/><path class="cls-2" d="M222.06,436.8l.26,1.13a.64.64,0,0,0,.43.54,1.49,1.49,0,0,0,.86,0,1.36,1.36,0,0,0,.74-.44,1,1,0,0,0,.07-.71l-.26-1.07c0-.22,0-.28.25-.36l0-.09-.89.21,0,.09c.35-.07.43,0,.48.24l.24,1a.65.65,0,0,1-.54.9c-.58.14-.69-.33-.74-.52l-.26-1.12c-.07-.3.05-.34.31-.41l0-.08-1.36.32,0,.09c.23,0,.34-.05.41.23" transform="translate(-198.04 -396.53)"/><path class="cls-2" d="M225.6,437l.29.05c.29,0,.49.08.54.31,0,0,.07.38-.42.49a.86.86,0,0,1-1-.54l-.12,0,.18.83.12,0c0-.06,0-.13.1-.15a3.18,3.18,0,0,0,.71,0c.74-.17.91-.64.85-.93a.73.73,0,0,0-.58-.53l-.65-.11c-.37-.07-.47-.13-.51-.31s.15-.37.36-.42a.86.86,0,0,1,.93.45l.12,0-.16-.74-.13,0c0,.07,0,.12-.1.14a4.51,4.51,0,0,0-.66,0c-.77.17-.79.66-.74.87s.1.45.85.57" transform="translate(-198.04 -396.53)"/><path class="cls-2" d="M227.08,436c0-.56.45-.62.74-.66l.17,1.82c0,.29-.07.3-.37.35v.09l1.47-.14v-.09c-.31,0-.4,0-.43-.28l-.18-1.82c.29,0,.72,0,.85.51h.12l-.07-.7-2.48.24.06.7Z" transform="translate(-198.04 -396.53)"/><path class="cls-2" d="M231.09,437.35c-.27,0-.36-.05-.36-.32v-.68h.12l.83,1.1.77,0,.83.1,0-.08c-.14,0-.34-.06-.32-.19a1.82,1.82,0,0,1,.23-.43l.93.12a2,2,0,0,1,.13.48c0,.11-.09.11-.35.09v.09l1.33.17v-.09c-.2,0-.25-.14-.39-.53l-.69-1.93h-.11L232.92,437c-.14.23-.22.34-.42.35a.24.24,0,0,1-.13-.07l-.81-1c.22-.06.65-.16.66-.58,0-.59-.86-.63-1.15-.64l-1.33,0v.08c.24,0,.37,0,.36.33l0,1.53c0,.28-.09.29-.37.32v.08l1.4,0Zm2.7-1.39.31.89-.8-.1Zm-3-.61c0-.11,0-.14.26-.14s.5.16.49.51-.22.52-.76.52Z" transform="translate(-198.04 -396.53)"/><path class="cls-2" d="M238,437.56l-.12,0a1,1,0,0,1-1.15.48c-.28,0-.36-.09-.33-.26l.29-1.61c.06-.3.18-.28.47-.24l0-.08-1.42-.26,0,.08c.18.05.35.08.31.31l-.3,1.65c0,.21-.17.2-.4.18v.09l2.35.43Z" transform="translate(-198.04 -396.53)"/><path class="cls-2" d="M237.8,438.36l1.42.3,0-.09c-.22-.06-.38-.1-.34-.32l.34-1.64c0-.24.24-.2.44-.17v-.08l-1.41-.3,0,.09c.18.05.37.09.33.32l-.34,1.64c-.05.21-.21.19-.43.16Z" transform="translate(-198.04 -396.53)"/><path class="cls-2" d="M239.31,438.65v.08l.83.09v-.09c-.14,0-.34-.05-.32-.18a1.78,1.78,0,0,1,.22-.43l.93.1a1.7,1.7,0,0,1,.14.48c0,.11-.08.11-.34.1v.09l1.33.13v-.08c-.19,0-.25-.14-.4-.53L241,436.5h-.11l-1.11,1.8c-.15.24-.22.35-.44.36m1.28-1.45.33.88-.8-.08Z" transform="translate(-198.04 -396.53)"/><path class="cls-2" d="M230.23,411.47v.24a.11.11,0,0,0,.11.12h.89a.11.11,0,0,0,.11-.12v-.26a.56.56,0,0,0,.18-.43c0-.83-.47,0-.73-.76-.18.6-.75.09-.75.74a.52.52,0,0,0,.19.47m.52-.73c.24,0,.62-.09.62.32s-.33.12-.57.12-.57.17-.57-.12.27-.32.52-.32" transform="translate(-198.04 -396.53)"/><path class="cls-2" d="M238.78,421.25a.34.34,0,1,0,0-.67.34.34,0,1,0,0,.67" transform="translate(-198.04 -396.53)"/><path class="cls-2" d="M237,409.46a.19.19,0,0,0,.18-.2l-.18-.36a2,2,0,0,0-.18.36.19.19,0,0,0,.18.2" transform="translate(-198.04 -396.53)"/><path class="cls-2" d="M224.55,409.26a.19.19,0,1,0,.37,0l-.19-.36a2,2,0,0,0-.18.36" transform="translate(-198.04 -396.53)"/><path class="cls-2" d="M227.8,409.46a.19.19,0,0,0,.18-.2l-.19-.36a2,2,0,0,0-.18.36.2.2,0,0,0,.19.2" transform="translate(-198.04 -396.53)"/><path class="cls-2" d="M230.86,409.46a.19.19,0,0,0,.18-.2l-.19-.36a2,2,0,0,0-.17.36.19.19,0,0,0,.18.2" transform="translate(-198.04 -396.53)"/><path class="cls-2" d="M233.92,409.46a.19.19,0,0,0,.18-.2l-.18-.36a2,2,0,0,0-.18.36.19.19,0,0,0,.18.2" transform="translate(-198.04 -396.53)"/><path class="cls-2" d="M224.55,413.46a.19.19,0,0,0,.19.2.18.18,0,0,0,.18-.2,2.25,2.25,0,0,0-.18-.35l-.19.35" transform="translate(-198.04 -396.53)"/><path class="cls-2" d="M224.55,417.55a.19.19,0,1,0,.37,0,2,2,0,0,0-.18-.36l-.19.36" transform="translate(-198.04 -396.53)"/><path class="cls-2" d="M225,420.78a.19.19,0,1,0,.37,0,2.4,2.4,0,0,0-.18-.36l-.19.36" transform="translate(-198.04 -396.53)"/><path class="cls-2" d="M227.61,422.5a.19.19,0,0,0,.18.2.2.2,0,0,0,.19-.2,2,2,0,0,0-.18-.36l-.19.36" transform="translate(-198.04 -396.53)"/><path class="cls-2" d="M237,413.46a.18.18,0,1,0,.36,0l-.19-.35a2.3,2.3,0,0,0-.17.35" transform="translate(-198.04 -396.53)"/><path class="cls-2" d="M237,417.55a.18.18,0,1,0,.36,0l-.19-.36a2,2,0,0,0-.17.36" transform="translate(-198.04 -396.53)"/><path class="cls-2" d="M236.46,420.78a.2.2,0,0,0,.19.2.19.19,0,0,0,.18-.2l-.19-.36a2.4,2.4,0,0,0-.18.36" transform="translate(-198.04 -396.53)"/><path class="cls-2" d="M233.9,422.5a.18.18,0,1,0,.36,0l-.18-.36a2,2,0,0,0-.18.36" transform="translate(-198.04 -396.53)"/><path class="cls-2" d="M230.77,424.32a.18.18,0,1,0,.36,0L231,424a2.4,2.4,0,0,0-.18.36" transform="translate(-198.04 -396.53)"/><path class="cls-2" d="M233.79,419.13c-.17.35-.17.84-.57,1a.32.32,0,0,0-.12.31l.1.08c.25-.14.73-.18.69-.6a1.52,1.52,0,0,1,.37-.51.4.4,0,0,1,.44.21.77.77,0,0,1-.52.59s0,.09,0,.15.29.08.4.06c.33-.21.47-.6.76-.72,0,.2-.39.26-.12.45.17,0,.4,0,.52-.21-.14-.33.46-.49.1-.78,0-.29.3-.41.28-.72s-.48-.31-.57-.6a.41.41,0,0,1,.4,0c0,.06.14.08.26,0l.11-.33s-.13-.16-.21-.14c-.33.08-.68.12-.87.43a.62.62,0,0,0,.31.5c.11,0,.13.08.21.14a.14.14,0,0,1-.14.18c-.23-.24-.63.07-.8-.22.07-.29.23-.62,0-.89,0-.06.11-.12.05-.18-.09-.27-.38,0-.55,0a.74.74,0,0,0-.7.35.57.57,0,0,0,.16.29.09.09,0,0,1,.13.07l-.19.12a.42.42,0,0,1,.08.21c-.14.06-.27-.13-.33-.23s0-.43-.2-.46l-.16.05a.54.54,0,0,0-.08.32,1.42,1.42,0,0,0,.07.35,3.24,3.24,0,0,1,.73.71" transform="translate(-198.04 -396.53)"/><path class="cls-2" d="M221.86,420.73a.34.34,0,1,0,.38.33.36.36,0,0,0-.38-.33" transform="translate(-198.04 -396.53)"/><path class="cls-2" d="M201.63,432.64a.38.38,0,1,0,.38-.36.37.37,0,0,0-.38.36" transform="translate(-198.04 -396.53)"/><path class="cls-2" d="M219.37,439.15v.09l.83-.1v-.08c-.14,0-.34,0-.35-.11a1.64,1.64,0,0,1,.13-.47l.92-.11a2.54,2.54,0,0,1,.25.44c0,.11-.07.13-.32.17v.09l1.33-.15v-.09c-.19,0-.27-.08-.5-.43l-1.12-1.7h-.12l-.69,2c-.1.28-.14.4-.36.45m.95-1.69.51.79-.8.09Z" transform="translate(-198.04 -396.53)"/><path class="cls-2" d="M221.67,435.39c-.36-.07-.67.2-1,.1l-.67.15a.46.46,0,0,1-.23,0c-.32-.84.65-1.35.35-2.16a1.49,1.49,0,0,0-1.4-.84,1.69,1.69,0,0,0-1.62.84c-.47,1,.12,2.08.3,3.08,0,.33.33.69,0,1a2.79,2.79,0,0,0-2.29-.47c-.24.12-.69,0-.81.25a5.92,5.92,0,0,0,3,.36c.12,0,.2-.06.3,0,.09.53-.1,1.25.23,1.72a2.07,2.07,0,0,0,1.56.67,24.12,24.12,0,0,0,5.23-1c.26,0,.47-.16.75-.16a14.38,14.38,0,0,1,2.88-.39,4.92,4.92,0,0,0-.85,1.84c-.25.55.42.63.63.94a16.36,16.36,0,0,0-1.67.85,22.48,22.48,0,0,0-3.61.6c0,.26.43.18.47.45s-.24.2-.38.3,0,.15.12.17c.12-.15.38-.05.5-.19.41,0,.75-.12,1.14-.14a3.52,3.52,0,0,0,1-.41c.43-.12.69-.41,1.12-.53.61,0,1.15-.2,1.72-.25v.13c-.46.75-.95,1.53-1.44,2.24a.23.23,0,0,0,.14.33,1.06,1.06,0,0,0,.79-.12,23,23,0,0,0,1.16-2.19,3,3,0,0,1,1.16-1.53c.08,0,.2-.16.28,0a8.79,8.79,0,0,0-1,1.43,1.71,1.71,0,0,0,.3,1.78c.24.2.61.14.93.16.79-.41,1.81.24,2.42-.53.36-.06.42.37.62.57.35.1.71.45,1.06.2,0-.22-.26-.42-.39-.63-.24-.43-.54-.77-.77-1.16a4.11,4.11,0,0,1-.32-.76,6.5,6.5,0,0,0,1.09.43,6.05,6.05,0,0,1,1.1.33,3.76,3.76,0,0,0,1,.77c.51.25,1.08.29,1.6.49.21,0,.51.19.65,0a.84.84,0,0,0-.3-.22c-.06-.27.36-.12.51-.33a.28.28,0,0,0-.24-.15c-.29-.16-1-.21-1.2-.32a4.48,4.48,0,0,1-.71-.22c-1.22,0-1.89-1.11-2.86-1.51.22-.21.57-.37.71-.68a1.14,1.14,0,0,0,.06-1.08c-.18-.63-1-.55-1.46-.9l.06-.06a8.21,8.21,0,0,1,2.19.29c2,.26,3.75,1,5.78,1,1.11,0,2.51.06,3.06-1,.1-.64.22-1.27.32-1.9.25-1,.92-2,.81-3.09a2.12,2.12,0,0,0-1.37-1.26,1.8,1.8,0,0,0-1.77.45c-.73.59-.22,1.57-.2,2.37,0,.16,0,.28-.14.36-2.94-.26-5.68-1-8.6-1.3-.67-.12-1.34-.09-2-.22l-.82-.09a34.41,34.41,0,0,0-7.44.84c-.5.16-1.07.2-1.58.39m2,7.78-.29-.27c.15-.18.45-.08.67-.2a3.5,3.5,0,0,1,1.73-.25,5,5,0,0,1-2.11.72m12.66-.33a8.79,8.79,0,0,0,2.16.51c-.07.28-.56,0-.5.41a4.83,4.83,0,0,1-1.83-.86s.08-.08.17-.06m-19-8.68a1.46,1.46,0,0,1,.49-1,1.71,1.71,0,0,1,1.6.06.86.86,0,0,1,.33.39.92.92,0,0,1-.31.92h-.2a2.26,2.26,0,0,1,.12-.92c0-.25-.22-.27-.39-.37a1.16,1.16,0,0,0-.91.21.92.92,0,0,0-.26.89c.14.23,0,.54.1.78l-.06.08a1.26,1.26,0,0,1-.51-1m.95.58c.31.23.73.13,1.1.19a.77.77,0,0,1-.1.69c-.35-.08-.79,0-1-.36.05-.15-.06-.35,0-.52m-.06-.68c.06-.16,0-.41.23-.45s.36,0,.38.12a4.16,4.16,0,0,1-.1.72.48.48,0,0,1-.51-.39m9.51,6.55a2.23,2.23,0,0,1,.65-1.83,1.1,1.1,0,0,1,.87,0c-.52.14-1.19.26-1.32.94,0,.26-.06.4.07.63.22.39.73.22,1,.53a.26.26,0,0,1-.18.24,7.06,7.06,0,0,1-1.1-.55M227,442c.49-.2,1-.63,1.54-.45A2.74,2.74,0,0,1,227,442m1.93.21a15.3,15.3,0,0,1-1,1.92c0,.1-.2.12-.32.14,0-.29.28-.51.41-.76a18.32,18.32,0,0,1,1-1.67c.12.12-.12.2-.12.37m.51-1.19v.08h0V441h.09a.16.16,0,0,0-.09,0Zm-.19-.55a4.92,4.92,0,0,1-1-.24c-.2-.21,0-.43,0-.66a1,1,0,0,1,1.48-.26,2.12,2.12,0,0,1-.51,1.16m.45,0a3.59,3.59,0,0,1,.32-.86,1.71,1.71,0,0,1-.32.86m.22-1.65c-.26-.06-.4-.37-.69-.37a1.66,1.66,0,0,1,.77,0c.1.14-.06.26-.08.39m.25.61h0v-.22h0Zm0,.94c0-.08,0-.18.06-.29s.2.09.24.15a.3.3,0,0,1-.3.14m.3-1.27a2.27,2.27,0,0,1,.3-.75,1.21,1.21,0,0,1,.55.08c0,.41.55,1,0,1.31-.18.08-.45.26-.65.08a.58.58,0,0,1-.2-.72m1.48-.57c0-.18.18,0,.26-.12l.63,0c-.32,0-.73.71-.89.08m1,.27c-.24.08-.42.36-.67.43a.83.83,0,0,1,.67-.43m-.85,1.32h0v-.06h0Zm0,1.19s0,.1,0,.14l-.46-.37a.48.48,0,0,1,.5.23m-.54-.63a.13.13,0,0,1,.18,0Zm-.29-.31c.08-.12.18-.31.33-.31,0,0,0,0,0,.06a1.05,1.05,0,0,1-.37.25m-.46,0h-.09l.13-.12c.06,0,0,.08,0,.12m.06.77c.26-.28.5.17.6.39.31.45,1.1.86.8,1.47-.39.35-1,0-1.42.29-.23,0-.61,0-.73-.19a11.51,11.51,0,0,1,.75-2m-.57.39.1-.16a8.78,8.78,0,0,1-.67,1.47c-.12-.49.39-.88.57-1.31m.89,2.43c-.38,0-1,.25-1.34-.08,0-.16-.16-.24-.14-.41.32-.12.61.27.91,0a8.4,8.4,0,0,1,1.42,0c.23.06.57-.37.61.06-.16.68-1,.21-1.46.41m1.18-3h0V441h0Zm.12,1.35c0,.2.22.28.1.47a.64.64,0,0,1-.1-.47m.57,1.22-.11,0c-.1-.08-.06-.3,0-.42.13.1.23.24.15.38m1,.49c0,.06-.12.06-.16,0a10.81,10.81,0,0,1-1.28-2.45l.08,0c.49.8.87,1.68,1.36,2.45m.75-1.88a.1.1,0,0,0,0,.09,2.32,2.32,0,0,1-1.42-.64l0-.1a3.9,3.9,0,0,1,1.48.65m-.53-2.71c.25.06.27.33.29.53a1.2,1.2,0,0,1-1.48,1.08,1.28,1.28,0,0,0,1.21-.69Zm-.44-.08a1.38,1.38,0,0,1,.18.9c-.2.38-.61.38-1,.47a.65.65,0,0,1-.47-.15.2.2,0,0,0-.08-.2c.06-.27-.47-.53-.1-.76s1.09-1,1.44-.26M243,433a1.36,1.36,0,0,1,1.18,0,.88.88,0,0,1,.66.43c.31.28.23.79.17,1.16a1.15,1.15,0,0,1-.87.69c0-.49.46-.83.3-1.38a1.22,1.22,0,0,0-1.28-.41c-.18.12-.1.32-.16.51l-.08.67c-.41,0-.43-.36-.55-.65A1.17,1.17,0,0,1,243,433m.37,1.83c.22-.22-.07-1.51.56-.67,0,.16,0,.41-.14.53s-.26.25-.42.14m.22.52c0,.32-.29.24-.45.36h-.48a1,1,0,0,1-.06-.57,3.81,3.81,0,0,1,1,.21M228,434.69a29.65,29.65,0,0,1,5.43.19c.57,0,1,.16,1.6.2,1.14.14,2.19.45,3.35.53a5.18,5.18,0,0,0,.61.1c1.82.29,3.87.8,5.61,0a15.37,15.37,0,0,1-.4,2.13c-.17.2,0,.53-.23.71,0,.37-.3.55-.56.7-2.42.53-4.79-.29-7.12-.7a24.8,24.8,0,0,0-10.4-.16,46.23,46.23,0,0,0-4.58,1.08,6.63,6.63,0,0,1-2.84,0c-.73-.35-.43-1.29-.65-1.94a10.86,10.86,0,0,0-.16-1.41,1.09,1.09,0,0,1-.08-.53c.3,0,.6.27.93.35,1.7.32,3.22-.23,4.8-.51a34,34,0,0,1,4.69-.72" transform="translate(-198.04 -396.53)"/><rect class="cls-2" x="71.97" y="30.17" width="127.27" height="0.65"/><path class="cls-2" d="M274.27,440.8V441H270v-.22h.27a1,1,0,0,0,.56-.13.48.48,0,0,0,.24-.28,2.28,2.28,0,0,0,.07-.76v-5.34a2.39,2.39,0,0,0-.07-.78.6.6,0,0,0-.26-.27,1.08,1.08,0,0,0-.54-.12H270v-.22h4.24v.22H274a1.09,1.09,0,0,0-.57.13.56.56,0,0,0-.24.28,2.28,2.28,0,0,0-.07.76v5.34a2.73,2.73,0,0,0,.07.78.64.64,0,0,0,.27.27,1.05,1.05,0,0,0,.54.12Z" transform="translate(-198.04 -396.53)"/><path class="cls-2" d="M277.77,437.34v2.26a2.67,2.67,0,0,0,.08.83.59.59,0,0,0,.29.27,1.9,1.9,0,0,0,.76.1V441h-4.13v-.22a1.87,1.87,0,0,0,.76-.1.55.55,0,0,0,.28-.28,2.27,2.27,0,0,0,.08-.82v-5.27a2.34,2.34,0,0,0-.08-.83.55.55,0,0,0-.28-.28,2.11,2.11,0,0,0-.76-.1v-.22h3.54a4,4,0,0,1,2.51.62,2,2,0,0,1,.27,2.91,2.45,2.45,0,0,1-1.36.77,9,9,0,0,1-2,.14m0-4v3.51h.3a1.49,1.49,0,0,0,1.13-.43,2,2,0,0,0,.39-1.35,1.89,1.89,0,0,0-.39-1.32,1.56,1.56,0,0,0-1.18-.42Z" transform="translate(-198.04 -396.53)"/><path class="cls-2" d="M289.68,438.71h-2.87l-.34.79a1.79,1.79,0,0,0-.17.65.54.54,0,0,0,.28.51,2.32,2.32,0,0,0,.79.14V441h-2.7v-.22a1.18,1.18,0,0,0,.72-.36,4.94,4.94,0,0,0,.7-1.23l2.9-6.48h.11l2.93,6.66a4,4,0,0,0,.69,1.19.93.93,0,0,0,.58.22V441h-3.93v-.22h.16a1.17,1.17,0,0,0,.66-.13.34.34,0,0,0,.14-.28.93.93,0,0,0,0-.22l-.18-.45Zm-.2-.44-1.21-2.8-1.25,2.8Z" transform="translate(-198.04 -396.53)"/><path class="cls-2" d="M298.69,435.42v4.39a1.64,1.64,0,0,0,.12.8.75.75,0,0,0,.49.2V441H297v-.75a2.81,2.81,0,0,1-.81.7,1.75,1.75,0,0,1-.89.22,1.37,1.37,0,0,1-.85-.29,1.4,1.4,0,0,1-.49-.68,5.12,5.12,0,0,1-.13-1.36v-2.22a1.58,1.58,0,0,0-.11-.79.72.72,0,0,0-.49-.21v-.22h2.28v3.83a3,3,0,0,0,.06.77.54.54,0,0,0,.18.27.47.47,0,0,0,.28.09.65.65,0,0,0,.39-.12,2.44,2.44,0,0,0,.58-.63v-3a1.54,1.54,0,0,0-.12-.79.72.72,0,0,0-.49-.21v-.22Z" transform="translate(-198.04 -396.53)"/><path class="cls-2" d="M303.31,435.27l.09,1.91h-.2a3.13,3.13,0,0,0-.76-1.17,1.29,1.29,0,0,0-.78-.31.57.57,0,0,0-.42.17.49.49,0,0,0-.18.38.48.48,0,0,0,.12.31,6.41,6.41,0,0,0,1.07.84,4.47,4.47,0,0,1,1.16,1,1.62,1.62,0,0,1,.28.93,2,2,0,0,1-.23.92,1.69,1.69,0,0,1-.66.69,1.88,1.88,0,0,1-.94.24,3.14,3.14,0,0,1-1.07-.25.73.73,0,0,0-.25-.07q-.19,0-.33.3H300l-.09-2h.2a2.67,2.67,0,0,0,.74,1.19,1.44,1.44,0,0,0,.89.39.64.64,0,0,0,.47-.18.56.56,0,0,0,.18-.42.73.73,0,0,0-.18-.5,4.71,4.71,0,0,0-.8-.64,5.88,5.88,0,0,1-1.18-1,1.64,1.64,0,0,1-.4-1.08,1.75,1.75,0,0,1,.45-1.17,1.58,1.58,0,0,1,1.29-.53,1.89,1.89,0,0,1,.88.23.54.54,0,0,0,.26.08.34.34,0,0,0,.18,0,1.32,1.32,0,0,0,.21-.25Z" transform="translate(-198.04 -396.53)"/><path class="cls-2" d="M306.44,433.37v2.05h1.33v.6h-1.33v3.45a2.83,2.83,0,0,0,0,.63.4.4,0,0,0,.16.22.37.37,0,0,0,.21.09c.26,0,.51-.2.74-.59l.18.13a1.64,1.64,0,0,1-1.58,1.15,1.38,1.38,0,0,1-.9-.3,1.24,1.24,0,0,1-.47-.66,5.56,5.56,0,0,1-.06-1.1v-3H304v-.21a8,8,0,0,0,1.28-1.12,6.53,6.53,0,0,0,.93-1.32Z" transform="translate(-198.04 -396.53)"/><path class="cls-2" d="M310.52,435.42v1.27a4,4,0,0,1,1-1.15,1.46,1.46,0,0,1,.81-.29.69.69,0,0,1,.53.21.77.77,0,0,1,.2.58.93.93,0,0,1-.19.63.6.6,0,0,1-.47.22.83.83,0,0,1-.55-.2,2.09,2.09,0,0,0-.28-.23.2.2,0,0,0-.13,0,.53.53,0,0,0-.33.13,1.19,1.19,0,0,0-.37.58,4.06,4.06,0,0,0-.2,1.29V440a1.37,1.37,0,0,0,0,.44.52.52,0,0,0,.21.23,1.46,1.46,0,0,0,.48.1V441h-3v-.21a.68.68,0,0,0,.49-.2,1.86,1.86,0,0,0,.13-.91v-3.09a2.32,2.32,0,0,0-.05-.61.48.48,0,0,0-.17-.25,1,1,0,0,0-.4-.11v-.22Z" transform="translate(-198.04 -396.53)"/><path class="cls-2" d="M316.45,440.2a3,3,0,0,1-1.84.9,1.08,1.08,0,0,1-1.12-1.1,1.59,1.59,0,0,1,.55-1.16,10.65,10.65,0,0,1,2.41-1.36v-.56a3,3,0,0,0-.07-.8.65.65,0,0,0-.26-.29.8.8,0,0,0-.43-.12,1.18,1.18,0,0,0-.65.17.31.31,0,0,0-.15.25.56.56,0,0,0,.17.32.74.74,0,0,1,.22.49.66.66,0,0,1-.21.5.81.81,0,0,1-.58.21.92.92,0,0,1-.63-.23.69.69,0,0,1-.25-.53,1.21,1.21,0,0,1,.34-.82,2.09,2.09,0,0,1,.95-.61,3.89,3.89,0,0,1,1.27-.21,2.14,2.14,0,0,1,1.26.34,1.57,1.57,0,0,1,.6.74,4.36,4.36,0,0,1,.09,1.15v2.18a2.29,2.29,0,0,0,0,.48.38.38,0,0,0,.09.15.21.21,0,0,0,.14,0,.41.41,0,0,0,.31-.22l.18.15a2.11,2.11,0,0,1-.62.64,1.35,1.35,0,0,1-.73.2,1.13,1.13,0,0,1-.74-.22,1,1,0,0,1-.33-.68m0-.44v-1.88a3.5,3.5,0,0,0-1.08.91,1.12,1.12,0,0,0-.24.66.69.69,0,0,0,.2.48.54.54,0,0,0,.42.16,1.19,1.19,0,0,0,.7-.33" transform="translate(-198.04 -396.53)"/><path class="cls-2" d="M321.47,432.9v7a1.35,1.35,0,0,0,.14.76.76.76,0,0,0,.54.19V441h-3v-.21a.73.73,0,0,0,.55-.22,1.32,1.32,0,0,0,.12-.73v-5.8a1.33,1.33,0,0,0-.14-.75.75.75,0,0,0-.53-.19v-.22Z" transform="translate(-198.04 -396.53)"/><path class="cls-2" d="M324.87,435.42v4.44a1.35,1.35,0,0,0,.14.76.76.76,0,0,0,.54.19V441h-3v-.21a.72.72,0,0,0,.55-.22,1.32,1.32,0,0,0,.12-.73v-3.27a1.37,1.37,0,0,0-.13-.76.78.78,0,0,0-.54-.19v-.22Zm-.84-2.71a.92.92,0,1,1-.65.27.9.9,0,0,1,.65-.27" transform="translate(-198.04 -396.53)"/><path class="cls-2" d="M328.92,440.2a2.94,2.94,0,0,1-1.84.9,1.06,1.06,0,0,1-.79-.31A1,1,0,0,1,326,440a1.56,1.56,0,0,1,.55-1.16,10.75,10.75,0,0,1,2.4-1.36v-.56a2.59,2.59,0,0,0-.07-.8.59.59,0,0,0-.26-.29.8.8,0,0,0-.43-.12,1.15,1.15,0,0,0-.64.17.32.32,0,0,0-.16.25.56.56,0,0,0,.17.32.76.76,0,0,1,.23.49.63.63,0,0,1-.22.5.79.79,0,0,1-.57.21.92.92,0,0,1-.63-.23.7.7,0,0,1-.26-.53,1.26,1.26,0,0,1,.34-.82,2.12,2.12,0,0,1,1-.61,3.85,3.85,0,0,1,1.27-.21,2.14,2.14,0,0,1,1.26.34,1.57,1.57,0,0,1,.6.74,5.08,5.08,0,0,1,.08,1.15v2.18a2.29,2.29,0,0,0,0,.48.38.38,0,0,0,.09.15.23.23,0,0,0,.14,0,.44.44,0,0,0,.32-.22l.18.15a2.24,2.24,0,0,1-.62.64,1.4,1.4,0,0,1-.73.2,1.14,1.14,0,0,1-.75-.22,1,1,0,0,1-.33-.68m0-.44v-1.88a3.75,3.75,0,0,0-1.08.91,1.17,1.17,0,0,0-.23.66.69.69,0,0,0,.2.48.54.54,0,0,0,.42.16,1.14,1.14,0,0,0,.69-.33" transform="translate(-198.04 -396.53)"/></svg>