<svg id="Layer_1" data-name="Layer 1" xmlns="http://www.w3.org/2000/svg" viewBox="0 0 138.7104 48.751"  height="58" width="166"><defs><style>.cls-1,.cls-2{fill:#e41f26;}.cls-2{fill-rule:evenodd;}.cls-3{fill:#fff;}</style></defs><path class="cls-1" d="M66.71,27.82c2.419,0,3.566-.1659,3.566-2.02,0-1.946-1.179-2.182-3.566-2.182l-8.99.0039-.001-5.3209h8.728c3.271,0,5.657.264,7.393,1.413a6.6141,6.6141,0,0,1,2.918,5.953c0,4.714-2.856,7.336-8.162,7.338H64.531V39.49l-6.808.001L57.72,27.82Z"/><path class="cls-1" d="M88.5115,17.7362c6.808,0,10.993,4.271,10.993,11.169.002,6.894-4.181,11.17-10.991,11.17-6.805,0-11.019-4.273-11.019-11.168-.001-6.898,4.211-11.169,11.017-11.171m.002,17.0049c2.887,0,4.128-1.8569,4.126-5.8359,0-3.977-1.239-5.834-4.128-5.834-2.887.001-4.153,1.858-4.153,5.835,0,3.979,1.266,5.8349,4.155,5.8349"/><path class="cls-1" d="M107.371,32.4681c.176,1.8581,1.317,2.565,3.17,2.565,1.653-.0009,2.565-.6179,2.565-1.5309,0-1.329-1.236-1.446-3.743-2.092a21.3863,21.3863,0,0,1-5.747-2.035,5.6391,5.6391,0,0,1-2.445-4.893c0-4.094,3.241-6.748,8.896-6.748,5.483,0,8.892,2.459,9.112,7.071l-6.453.001c-.016-1.651-1.124-2.267-2.774-2.267-1.443,0-2.152.471-2.151,1.443,0,1.122,1.09,1.3269,3.152,1.8579,2.622.6771,4.717,1.0881,6.074,2.0041a5.4851,5.4851,0,0,1,2.71,4.946c.001,4.599-3.3,7.283-9.488,7.283-5.689,0-9.248-2.692-9.453-7.604Z"/><polygon class="cls-1" points="125.922 23.862 119.822 23.863 119.821 18.292 138.708 18.291 138.71 23.861 132.727 23.862 132.731 39.482 125.925 39.483 125.922 23.862"/><path class="cls-2" d="M58.9578,13.7976l-.411,1.4331h-.972l1.889-6.0151h1.022l1.837,6.0151h-.977l-.391-1.4331Zm1.009-3.393-.779,2.579h1.528Z"/><path class="cls-1" d="M63.4169,9.2159V13.01a2.5893,2.5893,0,0,0,.355,1.6311,1.6951,1.6951,0,0,0,1.527.687,1.826,1.826,0,0,0,1.356-.4481,2.613,2.613,0,0,0,.539-1.9109V9.2159h-.863V13.093a1.9935,1.9935,0,0,1-.158,1.0159.9336.9336,0,0,1-.874.4531.9153.9153,0,0,1-.865-.454,1.9826,1.9826,0,0,1-.163-1.0251V9.2159Z"/><path class="cls-1" d="M68.6177,13.468c0,.0321-.002.0611-.004.091s-.005.059-.005.088a1.6783,1.6783,0,0,0,.424,1.2331,1.8623,1.8623,0,0,0,1.358.448,1.9334,1.9334,0,0,0,1.42-.4881,1.6254,1.6254,0,0,0,.44-1.201c0-.744-.465-1.102-1.174-1.563l-.33-.213c-.74-.474-1.148-.734-1.148-1.2689a.7012.7012,0,0,1,.206-.498.9066.9066,0,0,1,.651-.245.7861.7861,0,0,1,.582.201.956.956,0,0,1,.224.698v.182h.933V10.725a1.5728,1.5728,0,0,0-.418-1.1649,1.7532,1.7532,0,0,0-1.289-.443,1.6064,1.6064,0,0,0-1.805,1.5659c0,.875.464,1.212,1.349,1.779l.24.151c.663.4161,1.064.6661,1.064,1.14a.8607.8607,0,0,1-.931.8419.7733.7733,0,0,1-.572-.188,1.1637,1.1637,0,0,1-.234-.8319V13.408h-.981Z"/><polygon class="cls-2" points="75.147 9.942 75.147 15.231 74.247 15.231 74.247 9.942 72.799 9.942 72.799 9.216 76.552 9.216 76.552 9.942 75.147 9.942"/><path class="cls-2" d="M80.2856,12.1167c.582.15.711.611.711,1.253,0,.123-.003.234-.005.3429,0,.09-.002.1751-.002.2551a4.1448,4.1448,0,0,0,.153,1.1849l.023.0781h-.931l-.013-.043a4.6342,4.6342,0,0,1-.132-1.333c-.001-.164-.003-.334-.008-.508-.017-.614-.175-.81-.645-.81h-.871v2.694h-.899V9.2157h1.605a2.0825,2.0825,0,0,1,1.509.438,1.3975,1.3975,0,0,1,.355,1.039,1.3766,1.3766,0,0,1-.85,1.424m-.255-1.9561a.8824.8824,0,0,0-.651-.211h-.814v1.83h.51c.824,0,1.16-.288,1.16-.9891a.8654.8654,0,0,0-.205-.63"/><path class="cls-2" d="M85.5845,13.7976H83.59l-.408,1.4331h-.973l1.889-6.0151h1.019l1.839,6.0151H85.98Zm-.986-3.393-.777,2.579h1.524Z"/><polygon class="cls-2" points="89.019 14.433 89.019 9.216 88.127 9.216 88.127 15.231 91.031 15.231 91.031 14.433 89.019 14.433"/><polygon class="cls-1" points="92.017 15.231 92.812 15.231 92.871 15.231 92.871 15.171 92.871 9.277 92.871 9.216 92.812 9.216 92.017 9.216 91.958 9.216 91.958 9.277 91.958 15.171 91.958 15.231 92.017 15.231"/><path class="cls-2" d="M97.4149,13.7976h-1.997l-.41,1.4331h-.971l1.889-6.0151h1.019l1.84,6.0151h-.978Zm-.989-3.393-.777,2.579h1.527Z"/><path class="cls-1" d="M1.949,0H46.801a1.95,1.95,0,0,1,1.95,1.95V46.801a1.95,1.95,0,0,1-1.95,1.95H1.95A1.95,1.95,0,0,1,0,46.801V1.949A1.949,1.949,0,0,1,1.949,0Z"/><path class="cls-3" d="M8.5324,24.3741a15.8546,15.8546,0,0,0,10.231,14.8271V9.5492A15.8518,15.8518,0,0,0,8.5324,24.3741"/><path class="cls-3" d="M24.3747,8.5317c-.438,0-.874.0161-1.302.0481v1.114h.08c6.037.044,10.899,4.649,10.856,10.286-.04,5.612-4.932,10.13-10.936,10.123V40.17c.428.0371.864.05,1.302.05a15.8441,15.8441,0,1,0,0-31.6881"/></svg>