<svg id="Layer_1" data-name="Layer 1" xmlns="http://www.w3.org/2000/svg" viewBox="0 0 115.60217 12.9861" height="21" width="193"><defs><style>.cls-1{fill:none;stroke:#231f20;stroke-width:0.845px;}.cls-2{fill:#231f20;}</style></defs><polyline class="cls-1" points="1188.427 0.423 10.63 0.423 6.787 2.981 6.787 0.423 0 0.423"/><path class="cls-2" d="M.00043,12.7257V5.1207h3.145c1.36,0,2.154.764,2.154,1.875a1.7101,1.7101,0,0,1-1.012,1.618,1.79252,1.79252,0,0,1,1.548,1.834,2.25683,2.25683,0,0,1-2.561,2.278Zm1.945-6.137v1.459h.585c.437,0,.844-.169.844-.764,0-.556-.447-.695-.883-.695Zm0,2.947v1.678h.923c.506,0,.981-.179.981-.864,0-.625-.515-.814-1.021-.814Z"/><polygon class="cls-2" points="6.345 12.726 6.345 5.124 10.751 5.124 10.751 6.851 8.33 6.851 8.33 8.063 10.747 8.063 10.747 9.788 8.33 9.788 8.33 10.999 10.747 10.999 10.747 12.726 6.345 12.726"/><polygon class="cls-2" points="15.862 12.726 11.475 12.726 11.475 5.124 13.461 5.124 13.461 10.999 15.862 10.999 15.862 12.726"/><polygon class="cls-2" points="20.775 12.726 16.388 12.726 16.388 5.124 18.373 5.124 18.373 10.999 20.775 10.999 20.775 12.726"/><polygon class="cls-2" points="23.24 12.709 23.24 5.124 27.696 5.124 27.696 6.847 25.22 6.847 25.22 8.074 27.379 8.074 27.379 9.758 25.22 9.758 25.22 12.709 23.24 12.709"/><rect class="cls-2" x="28.31387" y="5.1243" width="1.98099" height="7.585"/><polygon class="cls-2" points="32.965 8.184 32.965 12.709 30.984 12.709 30.984 5.124 32.965 5.124 36.511 9.619 36.511 5.124 38.431 5.124 38.431 12.709 36.451 12.709 32.965 8.184"/><path class="cls-2" d="M40.97174,12.7091h-2.109l2.813-7.575,2.267-.01,2.813,7.585h-2.14l-.515-1.407h-2.623Zm1.813-5.249-.813,2.317h1.614Z"/><polygon class="cls-2" points="49.048 8.184 49.048 12.709 47.067 12.709 47.067 5.124 49.048 5.124 52.593 9.619 52.593 5.124 54.514 5.124 54.514 12.709 52.534 12.709 49.048 8.184"/><path class="cls-2" d="M55.03354,8.9858a3.84649,3.84649,0,0,1,3.901-4.08,3.69792,3.69792,0,0,1,2.001.475v2.06a2.68,2.68,0,0,0-1.902-.663,1.98334,1.98334,0,0,0-2,2.227,1.98481,1.98481,0,0,0,2.1,2.03,3.0913,3.0913,0,0,0,1.782-.623v1.99a4.22489,4.22489,0,0,1-1.911.505,3.84355,3.84355,0,0,1-3.971-3.921"/><rect class="cls-2" x="61.71384" y="5.1243" width="1.98001" height="7.585"/><path class="cls-2" d="M66.09555,12.7091h-2.11l2.813-7.575,2.268-.01,2.812,7.585h-2.139l-.515-1.407h-2.625Zm1.812-5.249-.812,2.317h1.614Z"/><polygon class="cls-2" points="76.707 12.709 72.33 12.709 72.33 5.124 74.31 5.124 74.31 10.986 76.707 10.986 76.707 12.709"/><path class="cls-2" d="M78.58365,8.9256a3.94667,3.94667,0,0,1,3.941-4.079,3.68713,3.68713,0,0,1,3.427,1.901l-1.585.871a2.08318,2.08318,0,0,0-1.862-1.049c-1.297,0-1.881,1.059-1.881,2.435,0,1.288.594,2.318,2.06,2.318a1.69086,1.69086,0,0,0,1.68305-1.347h-1.743V8.3916h3.803v.415c0,2.248-1.04,4.179-3.882,4.179a3.89072,3.89072,0,0,1-3.961-4.06"/><path class="cls-2" d="M89.48822,10.0354h-.395v2.674h-1.981V5.1244h3.021a2.35763,2.35763,0,0,1,2.594,2.375,2.0182,2.0182,0,0,1-1.307,2.07c.198.288,2.03,3.14,2.03,3.14h-2.367s-1.376-2.328-1.595-2.674m-.435-3.397v1.902h.634c.545,0,1.02-.229,1.02-.951,0-.644-.346-.951-1-.951Z"/><path class="cls-2" d="M93.15741,8.9061a4.1873,4.1873,0,0,1,8.368-.069,4.0591,4.0591,0,0,1-4.189,4.149,3.99072,3.99072,0,0,1-4.179-4.08m4.179-2.198a2.1303,2.1303,0,0,0-2.178,2.227,2.08792,2.08792,0,0,0,2.169,2.199,2.1373,2.1373,0,0,0,2.197-2.258,2.13585,2.13585,0,0,0-2.188-2.168"/><path class="cls-2" d="M102.25732,5.1239h1.98v4.653a1.22956,1.22956,0,0,0,1.367,1.367,1.2143,1.2143,0,0,0,1.346-1.267V5.1239h2.001v4.852c0,1.733-1.179,2.95-3.388,2.95-1.672,0-3.306-.871-3.306-2.732Z"/><path class="cls-2" d="M111.8092,10.065v2.644h-1.981V5.124h3.387a2.32663,2.32663,0,0,1,2.387,2.544,2.23256,2.23256,0,0,1-2.327,2.397Zm-.04-3.446v1.99h.693c.605,0,1.169-.188,1.169-1.02,0-.752-.49506-.97-1.14905-.97Z"/></svg>