<svg version="1.1" xmlns="http://www.w3.org/2000/svg" xmlns:xlink="http://www.w3.org/1999/xlink" x="0px" y="0px" viewBox="0 0 267.4 102"
	 style="enable-background:new 0 0 267.4 102;" xml:space="preserve" height="31" width="82">
<style type="text/css">
	.st0{fill:#FFFFFF;}
</style>
	<g>
		<path id="XMLID_22_" class="st0" d="M267.4,32.2c0,17.8-14.4,32.2-32.2,32.2h-21.8V102h-25.1V0h46.9C253,0,267.4,14.4,267.4,32.2z
			 M231.1,21h-17.7v21h17.7c5.6,0,10.1-5,10.1-10.5C241.2,26,236.7,21,231.1,21z M148,0v41.2h-34.9V0H88.1v102h25.1V64.5H148V102
			h25.1V0H148z M78.2,74.3c0,16.8-15,27.8-31.3,27.8H0V0h45.3c16.6,0,30.4,12.2,30.4,27.3c0,11.9-5.6,18.3-13.3,23.2
			C71.4,54.3,78.2,60.1,78.2,74.3z M41.8,60.9H25.1v19.7h16.8c6.5,0,10.1-4.4,10.1-9.8C51.9,65.3,47.4,60.9,41.8,60.9z M39.4,21
			H25.1v21h14.3c6.6,0,10.1-5,10.1-10.5C49.5,26,46.1,21,39.4,21z"/>
	</g>
</svg>
