<svg id="Layer_1" data-name="Layer 1" xmlns="http://www.w3.org/2000/svg" viewBox="0 0 267.4228 102.0474" height="36px" width="95px"><defs><style>.cls-1{fill:#ec6110;}</style></defs><path class="cls-1" d="M267.4228,32.2251a32.2253,32.2253,0,0,1-32.2255,32.2256H213.3838v37.5967H188.3193V0h46.878A32.2253,32.2253,0,0,1,267.4228,32.2251Zm-36.29-11.1889h-17.749V42.0718h17.749c5.5615,0,10.07-4.956,10.07-10.5176S236.6943,21.0362,231.1328,21.0362ZM148.0381,0V41.1768H113.1269V0H88.063V102.0474h25.0639V64.4507h34.9112v37.5967h25.0644V0ZM78.19,74.2974c0,16.8477-15.0156,27.75-31.33,27.75H0V0H45.3154C61.9438,0,75.751,12.2237,75.751,27.3023c0,11.9341-5.5865,18.3423-13.3062,23.1655C71.3677,54.316,78.19,60.0621,78.19,74.2974ZM41.8486,60.8706H25.0644V80.564H41.8486c6.49,0,10.07-4.4092,10.07-9.8467A9.96,9.96,0,0,0,41.8486,60.8706ZM39.4092,21.0362H25.0644V42.0718H39.4092c6.6484,0,10.0708-4.956,10.0708-10.5176S46.0576,21.0362,39.4092,21.0362Z"/></svg>