<svg id="Layer_1" data-name="Layer 1" xmlns="http://www.w3.org/2000/svg" viewBox="0 0 193.7001 25.9772" height="26" width="197"><defs><style>.cls-1,.cls-2{fill:#fff;}.cls-1{fill-rule:evenodd;}</style></defs><path class="cls-1" d="M103.08,8.3041a4.63,4.63,0,1,1-4.975,4.256,4.641,4.641,0,0,1,4.975-4.256"/><path class="cls-2" d="M103.08,8.3041a4.63,4.63,0,1,1-4.975,4.256A4.641,4.641,0,0,1,103.08,8.3041Z"/><path class="cls-1" d="M112.2449,4.9265c1.809,2.093,2.682,5.805,2.067,9.958-.932,6.287-4.93,11.268-8.902,11.088a4.773,4.773,0,0,1-3.35-1.669c3.379-.637,7.014-3.693,9.191-8.125,2.014-4.101,2.277-8.36.994-11.252"/><path class="cls-1" d="M92.9549,20.8823c-1.757-2.137-2.538-5.868-1.821-10.005,1.085-6.263,5.205-11.144,9.171-10.866a4.7705,4.7705,0,0,1,3.308,1.751c-3.393.553-7.103,3.519-9.387,7.896-2.114,4.051-2.482,8.303-1.271,11.224"/><path class="cls-1" d="M106.4076,19.6741c-3.303,3.095-7.463,4.292-10.096,2.485-2.654-1.821-2.97-6.148-1.208-10.359-.026.172-.046.346-.059.521a7.6929,7.6929,0,0,0,11.363,7.353"/><path class="cls-1" d="M109.1514,3.6815c2.637,1.809,2.935,6.092,1.197,10.276.02-.144.036-.291.048-.439a7.6932,7.6932,0,0,0-11.421-7.321c3.321-3.12,7.532-4.331,10.176-2.516"/><path class="cls-2" d="M130.5765,16.0822a6.5563,6.5563,0,0,1-6.342,4.54,6.7531,6.7531,0,0,1-.023-13.506,6.6366,6.6366,0,0,1,6.365,4.631h-3.422a3.15,3.15,0,0,0-2.943-1.848,3.69,3.69,0,0,0-3.673,3.97,3.7968,3.7968,0,0,0,3.81,3.969,3.2549,3.2549,0,0,0,2.806-1.756Z"/><path class="cls-2" d="M131.11,13.8927a6.7726,6.7726,0,0,1,6.753-6.777,6.6929,6.6929,0,0,1,6.707,6.73,6.6019,6.6019,0,0,1-6.707,6.776,6.777,6.777,0,0,1-6.753-6.729m10.426.022a3.7079,3.7079,0,1,0-7.392-.022,3.7032,3.7032,0,1,0,7.392.022"/><path class="cls-2" d="M145.55,7.55h2.783v1.072h.046a3.6065,3.6065,0,0,1,3.308-1.506,4.2675,4.2675,0,0,1,3.65,1.985,4.6645,4.6645,0,0,1,4.084-1.985,4.9047,4.9047,0,0,1,4.174,1.963,6.2248,6.2248,0,0,1,.959,3.741v7.392h-3.035v-7.027c0-.73,0-3.285-2.396-3.285a2.4681,2.4681,0,0,0-2.098,1.186,5.2384,5.2384,0,0,0-.457,2.578v6.548h-3.033v-7.027c0-1.734-.662-3.285-2.533-3.285-2.418,0-2.418,2.646-2.418,3.993v6.319H145.55Z"/><rect class="cls-2" x="171.354" y="3.5593" width="2.364" height="16.822"/><polygon class="cls-2" points="178.606 20.381 176.242 20.381 176.242 9.946 174.536 9.946 174.536 7.787 176.242 7.787 176.242 3.559 178.606 3.559 178.606 7.787 180.674 7.787 180.674 9.946 178.606 9.946 178.606 20.381"/><path class="cls-2" d="M191.5181,20.3807v-1.796h-.046a5.3236,5.3236,0,0,1-4.455,2.115,6.3907,6.3907,0,0,1-6.547-6.57,6.4517,6.4517,0,0,1,6.547-6.683,5.45,5.45,0,0,1,4.274,1.886h.045V3.5587H193.7v16.822Zm-4.365-10.775a4.3762,4.3762,0,0,0-4.319,4.501,4.3429,4.3429,0,1,0,8.684,0,4.3019,4.3019,0,0,0-4.365-4.501"/><path class="cls-2" d="M10.259,11.7426a3.8544,3.8544,0,0,0-3.621-2.414c-3.11,0-4.224,2.6-4.224,4.549,0,2.227,1.416,4.573,4.177,4.573a3.8863,3.8863,0,0,0,3.645-2.369h2.693a6.5989,6.5989,0,0,1-6.338,4.573A6.57,6.57,0,0,1,0,13.8776a6.58,6.58,0,0,1,6.615-6.755,6.5484,6.5484,0,0,1,6.314,4.62Z"/><path class="cls-2" d="M24.9657,20.3293v-1.995h-.047a4.9188,4.9188,0,0,1-4.364,2.321,6.6021,6.6021,0,0,1-6.824-6.708,6.6652,6.6652,0,0,1,6.824-6.824,5.0962,5.0962,0,0,1,4.364,2.159h.047V7.4713h2.413v12.858Zm-4.411-11.001a4.4689,4.4689,0,0,0-4.41,4.595,4.4345,4.4345,0,1,0,8.867,0,4.3923,4.3923,0,0,0-4.457-4.595"/><path class="cls-2" d="M56.9547,20.3293v-1.995h-.047a4.9172,4.9172,0,0,1-4.363,2.321,6.603,6.603,0,0,1-6.825-6.708,6.6661,6.6661,0,0,1,6.825-6.824,5.0944,5.0944,0,0,1,4.363,2.159h.047V7.4713h2.414v12.858Zm-4.41-11.001a4.4689,4.4689,0,0,0-4.41,4.595,4.4345,4.4345,0,1,0,8.867,0,4.3923,4.3923,0,0,0-4.457-4.595"/><rect class="cls-2" x="60.918" y="3.1543" width="2.414" height="17.175"/><path class="cls-2" d="M66.8526,14.945a4.3628,4.3628,0,0,0,4.224,3.506,4.11,4.11,0,0,0,3.667-2.16h2.414a6.5542,6.5542,0,0,1-6.174,4.364,6.71,6.71,0,0,1-6.546-6.777,6.57,6.57,0,1,1,13.138-.163c0,.417-.047,1.068-.07,1.23Zm8.309-1.857a4.1752,4.1752,0,0,0-8.309,0Z"/><path class="cls-2" d="M80.8705,10.7638a1.7814,1.7814,0,0,1,2.02-1.571,2.1521,2.1521,0,0,1,2.144,1.76l2.345.0021a4.2448,4.2448,0,0,0-4.471-3.834c-3.437,0-4.233,2.425-4.283,3.5539-.187,4.1781,6.735,3.437,6.613,6.156-.023.505-.506,1.714-2.504,1.714a2.538,2.538,0,0,1-2.619-2.2569h-2.312a4.6989,4.6989,0,0,0,4.964,4.367c3.91,0,4.672-2.7751,4.719-3.8081.195-4.3609-6.705-4.092-6.616-6.083"/><path class="cls-2" d="M38.3838,10.7638a1.782,1.782,0,0,1,2.02-1.571,2.1521,2.1521,0,0,1,2.144,1.76l2.346.0021a4.2444,4.2444,0,0,0-4.472-3.834c-3.437,0-4.233,2.425-4.283,3.5539-.187,4.1781,6.736,3.437,6.614,6.156-.023.505-.507,1.714-2.505,1.714a2.538,2.538,0,0,1-2.619-2.2569h-2.312a4.6989,4.6989,0,0,0,4.964,4.367c3.911,0,4.674-2.7751,4.72-3.8081.195-4.3609-6.706-4.092-6.617-6.083"/><path class="cls-2" d="M34.7621,7.123a4.2089,4.2089,0,0,0-3.691,1.741h-.028V7.4721h-2.246v12.857h2.414V13.312c0-.95,0-3.859,3.18-3.859a2.2169,2.2169,0,0,1,.793.154l1.07-2.186a4.1682,4.1682,0,0,0-1.492-.298"/></svg>