<svg id="Layer_1" data-name="Layer 1" xmlns="http://www.w3.org/2000/svg" viewBox="0 0 173.37 31.88" width="154px" height="28px"><defs><style>.cls-1{fill:#fff;}</style></defs><path class="cls-1" d="M455.51,274.63c0-2.83.58-4.79,1.78-6a4.39,4.39,0,0,1,3-1.27,5.08,5.08,0,0,1,3.79,1.69l.14.17.3-1.11a1,1,0,0,1,.89-.74H467a.7.7,0,0,1,.7.71v10.59a10.39,10.39,0,0,0,.3,3.39h-2.57c-.43,0-.65-.22-.74-.75l-.16-1-.16.23a4.83,4.83,0,0,1-4,1.73c-2.07,0-4.85-.79-4.85-7.65m3.88.21c0,3,.68,4.16,2.32,4.16,1.4,0,2.08-1.36,2.08-4.16s-.68-4.34-2.08-4.34C459.79,270.5,459.39,272.24,459.39,274.84Z" transform="translate(-316.55 -256.27)"/><path class="cls-1" d="M336.49,274.7c0-4.69,2.28-7.5,6.12-7.5s6.09,2.81,6.09,7.5-2.23,7.58-6.09,7.58-6.12-2.69-6.12-7.58m3.71,0c0,3,.78,4.43,2.38,4.43s2.4-1.45,2.4-4.43-.79-4.35-2.4-4.35S340.2,271.73,340.2,274.66Z" transform="translate(-316.55 -256.27)"/><path class="cls-1" d="M361.78,269.12a5.41,5.41,0,0,1,3.86-1.92c2.24,0,3.58,1.5,3.58,4v10.86h-3a.71.71,0,0,1-.71-.71V271.7a1.27,1.27,0,0,0-1.22-1.39c-1.4,0-2.31,1.23-2.31,3.14v8.62h-3a.71.71,0,0,1-.71-.71V271.7a1.26,1.26,0,0,0-1.21-1.39c-1.4,0-2.31,1.23-2.31,3.14v8.62h-3a.71.71,0,0,1-.71-.71V267.42h2.49a.72.72,0,0,1,.74.64l.27,1.13.14-.16a5.43,5.43,0,0,1,3.77-1.83,3.28,3.28,0,0,1,3.25,1.89l.08.17.11-.14" transform="translate(-316.55 -256.27)"/><path class="cls-1" d="M375.76,269.28a4,4,0,0,1,3.38-2.08c2.12,0,4.93.81,4.93,7.74,0,2.87-.59,4.85-1.8,6.06a4.42,4.42,0,0,1-3,1.28,4,4,0,0,1-3.22-1.51l-.2-.25v7.63h-3a.71.71,0,0,1-.72-.71v-20h2.31a1,1,0,0,1,.9.74l.24,1.09.07.33.14-.3m-.06,5.45c0,2.95.68,4.39,2.1,4.39,1.94,0,2.34-1.76,2.34-4.39,0-3-.68-4.21-2.34-4.21C376.38,270.52,375.7,271.9,375.7,274.73Z" transform="translate(-316.55 -256.27)"/><path class="cls-1" d="M396.83,267.42a.71.71,0,0,1,.71.71v13.94h-2.48a.74.74,0,0,1-.75-.65l-.26-1.12-.14.15a5.58,5.58,0,0,1-4.11,1.83,3.55,3.55,0,0,1-3.79-3.7V267.42h3a.71.71,0,0,1,.71.71v9.65a1.35,1.35,0,0,0,1.52,1.4c1.42,0,2.53-1.38,2.53-3.14v-8.62h3" transform="translate(-316.55 -256.27)"/><path class="cls-1" d="M435,279.24c.92,0,1.44-.44,1.48-1.24.05-1.11-1-1.64-2.17-2.25l-.73-.39c-1.45-.8-2.93-1.89-2.93-3.9,0-2.64,1.86-4.35,4.74-4.35a10.36,10.36,0,0,1,4.35,1.07h0c-.06.18-.7,1.88-.7,1.88-.08.22-.34.71-.8.55l-.46-.18a5.3,5.3,0,0,0-2.08-.53,1.25,1.25,0,0,0-1.34,1.3c0,.88.85,1.31,1.92,1.85l.65.33c1.61.87,3.27,2.07,3.27,4.33s-1.33,4.56-5.06,4.56a16.73,16.73,0,0,1-5.12-1.2c.05-.18.71-2.29.71-2.29a.88.88,0,0,1,.39-.51.66.66,0,0,1,.44,0s.68.26.68.26a7.65,7.65,0,0,0,2.73.7" transform="translate(-316.55 -256.27)"/><path class="cls-1" d="M445.17,260.76a.72.72,0,0,1,.71.73V269l.2-.21a5,5,0,0,1,3.64-1.62,3.45,3.45,0,0,1,3.65,3.71v11.16h-3a.71.71,0,0,1-.71-.71V271.7a1.23,1.23,0,0,0-1.36-1.39c-1.4,0-2.38,1.29-2.38,3.14v8.62h-3a.71.71,0,0,1-.71-.71v-20.6h3" transform="translate(-316.55 -256.27)"/><path class="cls-1" d="M474,269.11a3.78,3.78,0,0,1,3.38-1.9.69.69,0,0,1,.76.72v2.68a3.87,3.87,0,0,0-3,.83c-.78.74-1.14,1.93-1.14,3.77v6.86h-3a.71.71,0,0,1-.71-.71s0-12.66,0-13.94h2.37a1,1,0,0,1,.9.74l.31,1.15.13-.2" transform="translate(-316.55 -256.27)"/><path class="cls-1" d="M425.59,269.11a3.75,3.75,0,0,1,3.37-1.9.69.69,0,0,1,.76.72v2.68a3.87,3.87,0,0,0-3,.83c-.78.74-1.14,1.93-1.14,3.77v6.86h-3a.71.71,0,0,1-.71-.71V267.42h2.36a1,1,0,0,1,.9.74l.31,1.15.14-.2" transform="translate(-316.55 -256.27)"/><path class="cls-1" d="M403,262.53a.9.9,0,0,1,.7.16,1,1,0,0,1,.2.7v4h2.46a.7.7,0,0,1,.71.71v2.2h-3.17v7.24c0,.83.37,1.3,1,1.3a3.85,3.85,0,0,0,1-.12c.46-.1.6.09.69.46l.42,2.46a10.66,10.66,0,0,1-3.46.61c-2.3,0-3.43-1.2-3.43-3.67V262.53H403" transform="translate(-316.55 -256.27)"/><path class="cls-1" d="M482.29,273.2v.11h4v-.11c0-2.06-.65-3.11-1.95-3.11-.93,0-2,.54-2,3.11m-3.94,1.5c0-4.56,2.31-7.5,5.88-7.5,3.78,0,5.69,2.6,5.69,7.71a.7.7,0,0,1-.71.71h-6.92v.12c0,1.76.15,3.65,2,3.65,1.13,0,1.76-.65,1.94-2h3.55c-.39,3.58-2.87,4.86-5.07,4.86C480.48,282.28,478.35,279.73,478.35,274.7Z" transform="translate(-316.55 -256.27)"/><path class="cls-1" d="M412,273.2v.11h4v-.11c0-2.06-.65-3.11-1.94-3.11-.93,0-2,.54-2,3.11m-3.93,1.5c0-4.56,2.31-7.5,5.88-7.5,3.77,0,5.69,2.6,5.69,7.71a.71.71,0,0,1-.72.71H412v.12c0,1.76.15,3.65,2,3.65,1.13,0,1.77-.65,1.95-2h3.54c-.39,3.58-2.86,4.86-5.07,4.86C410.21,282.28,408.08,279.73,408.08,274.7Z" transform="translate(-316.55 -256.27)"/><path class="cls-1" d="M327.23,283.52c-2.84-1.29-4.43-4.28-4.43-7.72a12.6,12.6,0,0,1,1.16-5.19,12.28,12.28,0,0,1,9-6.84l1-.18c0,.2.35,2.17.38,2.37l-1.12.16a10.48,10.48,0,0,0-7.32,5.9,11,11,0,0,0-1,4.48c0,2.85,1.28,5.31,3.6,6.35,2.67,1.21,5.76.2,8.09-2.63l.31.39c-2.77,3.23-6.47,4.35-9.68,2.91" transform="translate(-316.55 -256.27)"/><path class="cls-1" d="M325.46,284.75c-3.71-1.67-5.78-5.51-5.78-9.89A15,15,0,0,1,332.52,260l.87-.14c.11.66.33,2,.39,2.4l-1,.14A13.52,13.52,0,0,0,323,269.9a13.72,13.72,0,0,0-1.24,5.61,10.94,10.94,0,0,0,.68,3.89,8.22,8.22,0,0,0,4.27,4.69c3.49,1.57,7.52.43,10.56-3,.08.11.21.27.29.36-3.48,3.83-8.12,5.1-12.14,3.28" transform="translate(-316.55 -256.27)"/><path class="cls-1" d="M332.85,256.27l.36,2.3-.93.12a16.19,16.19,0,0,0-12.11,9.09,16.46,16.46,0,0,0-1.51,6.79c0,4.75,2.27,8.92,6.32,10.75,4.3,1.94,9.28.66,13-3.34l.27.34c-4.17,4.44-9.75,5.85-14.58,3.67-6.66-3-9.06-11.59-5.47-19.55,2.72-6.05,8.93-9.43,13.87-10.09l.76-.08" transform="translate(-316.55 -256.27)"/></svg>