<svg id="Artwork" xmlns="http://www.w3.org/2000/svg" viewBox="0 0 708.66138 294.01782"  height="57" width="139"><defs><style>.cls-1{fill:#004f32;}</style></defs><path id="Costa_Tag_Logo" data-name="Costa Tag Logo" class="cls-1" d="M28.54443,115.73988a51.86534,51.86534,0,0,0,93.76929,30.58618L146.28345,161.902a80.43344,80.43344,0,1,1,.00073-92.32349L122.31445,85.15443a51.86536,51.86536,0,0,0-93.77,30.58545ZM213.031,146.32606h22.53711l-.01-.02661a96.05058,96.05058,0,0,1,75.9646-57.02655,80.14666,80.14666,0,0,0-10.07984-19.65912,117.10437,117.10437,0,0,0-77.1792,53.16669A117.48068,117.48068,0,0,0,166.12305,75.174a79.93719,79.93719,0,0,0-8.15015,19.38752A96.33814,96.33814,0,0,1,213.031,146.32606ZM534.0979,163.55922a23.01441,23.01441,0,0,1-13.22754,4.06982c-11.60913,0-21.05395-8.18457-21.05395-18.24463,0-.01086.00195-.02124.00195-.03222h-.00073V67.46266l11.11572-.00086c21.33862,0,33.45093-28.543,33.45093-28.543H499.81763V2.21766H471.272V149.35219h.00049l-.00049.03222c0,25.84082,22.20606,46.78906,49.59839,46.78906a51.36072,51.36072,0,0,0,29.50073-9.17834A106.0742,106.0742,0,0,1,534.0979,163.55922ZM292.98364,100.40217A59.43118,59.43118,0,1,1,176.135,115.73982c0-1.45911.07129-2.90106.175-4.33411a89.16192,89.16192,0,0,0-19.79419-10.458A80.4216,80.4216,0,1,0,313.457,95.597,88.495,88.495,0,0,0,292.98364,100.40217ZM188.72925,36.93763,175.33862,15.43544q-4.83875,2.9057-9.39282,6.2727l14.73926,20.59717A91.88163,91.88163,0,0,1,188.72925,36.93763Zm75.17822-34.72C260.25635,1.3058,256.56372.554,252.8313,0l-4.147,25.01575a91.23036,91.23036,0,0,1,9.48877,1.86645ZM169.7063,69.59511a122.92849,122.92849,0,0,1,19.16553,9.445,59.298,59.298,0,0,1,85.85669-7.95123,122.17973,122.17973,0,0,1,22.303-7.20746A80.39465,80.39465,0,0,0,169.7063,69.59511Zm52.74536-44.57935L218.31006.03126q-5.61146.83588-11.07935,2.19434l5.73218,24.65686A91.21139,91.21139,0,0,1,222.45166,25.01576Zm82.73071-3.29663q-2.25989-1.67121-4.61841-3.25269c-1.57055-1.04919-3.16845-2.04321-4.7788-3.01147L282.40674,36.93788a91.87587,91.87587,0,0,1,8.04419,5.36719Zm403.479,17.19971v153.642H680.116V177.17848a80.43353,80.43353,0,1,1,0-122.87732V38.91884ZM680.116,115.69569a51.889,51.889,0,1,0,0,.08826Zm-228.425,33.06763c0-10.86475-2.7854-19.47852-8.2793-25.60193a45.00219,45.00219,0,0,0-19.62744-12.84888,222.27843,222.27843,0,0,0-29.16772-6.891c-8.90284-1.73633-15.87476-3.2926-20.72242-4.62671a29.79554,29.79554,0,0,1-11.78344-6.0437c-2.98755-2.58911-4.43995-6.06128-4.43995-10.6167,0-5.825,2.67212-10.39306,8.168-13.96557,5.66138-3.67847,14.1045-5.51392,25.09449-5.54346,26.7539-.07153,43.44946,12.99536,43.44946,12.99536L447.4541,50.42543s-9.75317-7.24219-26.15991-11.28467a126.00252,126.00252,0,0,0-30.0813-3.83447c-19.13159,0-34.63452,4.374-46.07715,13.00024C333.53784,57.049,327.657,68.82167,327.657,83.29872c0,11.261,2.88037,20.16894,8.55957,26.47485a46.7172,46.7172,0,0,0,20.17871,13.28186,194.18232,194.18232,0,0,0,29.48413,6.75427c8.7024,1.54383,15.48169,2.953,20.14673,4.1875a28.20372,28.20372,0,0,1,11.21826,5.60926c2.79444,2.3977,4.15308,5.58325,4.15308,9.73816,0,12.93274-10.97192,19.21948-33.54224,19.21948a92.64579,92.64579,0,0,1-27.75488-4.28735c-15.75-4.94129-24.90137-12.58692-24.90137-12.58692l-12.73974,25.16944s6.73779,7.35058,27.96631,14.14929a116.22573,116.22573,0,0,0,35.4707,5.16467c20.05078,0,36.155-4.26807,47.86572-12.687C445.65869,174.93861,451.69092,163.25624,451.69092,148.76332ZM208.98755,270.61256,196.97876,238.1819h-6.19531l-12.23828,32.27734-11.7793-32.27734h-6.96L174.87427,278.72h7.03613l11.85547-30.748L205.469,278.72h7.03711l15.14453-40.53808h-6.57812ZM266.467,247.81862a22.4935,22.4935,0,0,1,2.5625,10.86132,21.132,21.132,0,0,1-.15234,2.21875H235.98755a12.72924,12.72924,0,0,0,4.70312,8.6045,15.35016,15.35016,0,0,0,9.98243,3.251,15.03689,15.03689,0,0,0,11.70214-4.8955l4.05372,4.74218a17.74863,17.74863,0,0,1-6.84571,4.89551,25.81214,25.81214,0,0,1-20.53613-.95605,18.81111,18.81111,0,0,1-7.6875-7.38086,21.159,21.159,0,0,1-2.71484-10.709,21.49013,21.49013,0,0,1,2.63867-10.63183,18.90462,18.90462,0,0,1,7.26562-7.38086,20.70447,20.70447,0,0,1,10.44141-2.63868,20.28585,20.28585,0,0,1,10.36328,2.63868A18.54629,18.54629,0,0,1,266.467,247.81862Zm-4.47363,7.80175a13.047,13.047,0,0,0-4.16895-8.375,13.69053,13.69053,0,0,0-17.66894-.03808,12.94711,12.94711,0,0,0-4.168,8.41308ZM276.14282,278.72h7.34278v-56.7539h-7.34278Zm19.80957,0h7.34278v-56.7539h-7.34278Zm73.73438-40.53808h6.96v35.03125q0,10.63036-5.27735,15.71777-5.27783,5.08594-15.75683,5.08691a37.70175,37.70175,0,0,1-10.9375-1.56835,21.65834,21.65834,0,0,1-8.41309-4.47461l3.51758-5.66016a20.77628,20.77628,0,0,0,6.999,3.86328,26.61207,26.61207,0,0,0,8.6045,1.41406q7.11327,0,10.51757-3.36523,3.40284-3.36621,3.40333-10.249v-3.21289a16.22191,16.22191,0,0,1-6.38672,4.7041,21.26657,21.26657,0,0,1-8.22168,1.56836A22.14642,22.14642,0,0,1,344.178,274.551a18.47877,18.47877,0,0,1-7.38086-6.96,20.814,20.814,0,0,1,0-20.42188,18.23181,18.23181,0,0,1,7.38086-6.92285,22.44941,22.44941,0,0,1,10.51758-2.44727,21.49891,21.49891,0,0,1,8.52832,1.68262,15.849,15.849,0,0,1,6.46289,4.97168Zm-.22949,19.19824a12.40761,12.40761,0,0,0-3.90137-9.52246,15.73684,15.73684,0,0,0-20.11621,0,12.40684,12.40684,0,0,0-3.90039,9.52246,13.12068,13.12068,0,0,0,1.79785,6.8457,12.42674,12.42674,0,0,0,4.97168,4.7041,15.18551,15.18551,0,0,0,7.22754,1.68262,15.02985,15.02985,0,0,0,7.15136-1.68262,12.44557,12.44557,0,0,0,4.97168-4.7041A13.12983,13.12983,0,0,0,369.45728,257.38014Zm23.63378-12.3916V238.1819H386.054V278.72h7.34277V258.5276q0-6.57716,3.4043-10.13477,3.40282-3.55664,9.36914-3.55664a14.64522,14.64522,0,0,1,1.68359.07618v-7.11329a20.54321,20.54321,0,0,0-9.10254,1.83594A12.52687,12.52687,0,0,0,393.09106,244.98854Zm55.9502,2.792a22.31791,22.31791,0,0,1,0,21.33984,19.497,19.497,0,0,1-7.49512,7.38184,23.2968,23.2968,0,0,1-21.68457,0,19.40711,19.40711,0,0,1-7.53418-7.38184,22.325,22.325,0,0,1,0-21.33984,19.14491,19.14491,0,0,1,7.53418-7.34277,23.59465,23.59465,0,0,1,21.68457,0A19.231,19.231,0,0,1,449.04126,247.78053Zm-4.7041,10.66992a15.43317,15.43317,0,0,0-1.75879-7.457,12.43255,12.43255,0,0,0-4.85742-5.00976,14.79633,14.79633,0,0,0-13.99707,0,12.67284,12.67284,0,0,0-4.89453,5.00976,16.36582,16.36582,0,0,0,0,14.915,12.92823,12.92823,0,0,0,4.89453,5.04785,14.52061,14.52061,0,0,0,13.99707,0,12.68059,12.68059,0,0,0,4.85742-5.04785A15.429,15.429,0,0,0,444.33716,258.45045Zm57.59472,12.16211L489.9231,238.1819h-6.19532L471.4895,270.45924,459.71021,238.1819h-6.96L467.8186,278.72h7.03614l11.85547-30.748,11.70312,30.748h7.03711L520.595,238.1819h-6.57812Zm46.19825-32.81348a20.98765,20.98765,0,0,0-8.6045,1.68262,14.2725,14.2725,0,0,0-6.00488,4.81934V238.1819h-7.03711V278.72h7.34278V257.83912q0-6.501,3.44238-9.98144t9.4082-3.48047q5.27784,0,8.10742,2.98242,2.82863,2.98389,2.83008,8.87305V278.72h7.34278v-23.3291q0-8.64258-4.55079-13.11719Q555.85522,237.79861,548.13013,237.79908Z" transform="translate(0 -0.00001)"/></svg>