<svg id="Layer_1" data-name="Layer 1" xmlns="http://www.w3.org/2000/svg" viewBox="0 0 247.24659 73.6866" height="38px" width="130px"><defs><style>.cls-1{fill:#00285e;}.cls-2{fill:#ef3e42;}.cls-3{fill:#fff;}</style></defs><rect class="cls-1" width="247.24659" height="69.0245"/><rect class="cls-2" y="69.0245" width="247.24659" height="4.6621"/><path class="cls-3" d="M217.61569,26.3663a2.39766,2.39766,0,0,1-.0039,3.3808,2.36709,2.36709,0,0,1-3.3711.0039,2.40245,2.40245,0,0,1-.0117-3.3847,2.34742,2.34742,0,0,1,3.3867,0Zm.3574-.3692a2.78722,2.78722,0,0,0-2.0449-.8476,2.83289,2.83289,0,0,0-1.9902.7851,2.76378,2.76378,0,0,0-.9043,2.1094,2.8945,2.8945,0,1,0,4.9394-2.0469Zm-1.6875,1.8262a.78244.78244,0,0,1-.459.1172h-.3261v-.92971h.2031a1.39636,1.39636,0,0,1,.4883.06641.3672.3672,0,0,1,.2578.3652A.43565.43565,0,0,1,216.28559,27.8233Zm-.7851.6953h.1757l.1856.0117a.961.961,0,0,1,.2871.0508.3853.3853,0,0,1,.23441.2363,1.39805,1.39805,0,0,1,.05079.3926,2.16022,2.16022,0,0,0,.0527.4434h.8008l-.02929-.0899a.55711.55711,0,0,1-.02151-.09571.75284.75284,0,0,1-.0039-.09369V29.087a.87048.87048,0,0,0-.2832-.7178,1.09954,1.09954,0,0,0-.4571-.1846,1.04835,1.04835,0,0,0,.55671-.21581.7055.7055,0,0,0,.22649-.585.80518.80518,0,0,0-.4296-.76559,1.53088,1.53088,0,0,0-.63089-.165q-.06737-.0045-.66211-.0059c-.3965-.001-.6934-.0019-.8926-.0019v3.208h.8399Z"/><path class="cls-3" d="M100.7065,25.1495H87.9428S84.58,41.5831,83.9677,45.9385c-.6113,4.3574-1.3759,10.5489,13.9102,10.5489,6.1919,0,13.0698-2.0645,15.1343-2.0645h3.5918l5.1972-29.3496H108.6548s-3.0562,18.0381-3.5918,20.331c-.5347,2.293-1.7574,4.0518-4.8155,4.0518-3.0566,0-3.5923-2.1406-2.9809-5.4277C97.8779,40.7422,100.7065,25.1495,100.7065,25.1495Z"/><path class="cls-3" d="M152.9868,25.1495H140.2231s-3.3633,16.4336-3.9746,20.789c-.6133,4.3574-1.3769,10.5489,13.9102,10.5489,6.1914,0,13.0703-2.0645,15.1328-2.0645h3.5918l5.1972-29.3496H160.936s-3.0566,18.0381-3.5937,20.331c-.5332,2.293-1.7579,4.0518-4.8145,4.0518s-3.5918-2.1406-2.9805-5.4277C150.1587,40.7422,152.9868,25.1495,152.9868,25.1495Z"/><polygon class="cls-3" points="132.012 55.569 119.17 55.569 126.694 12.538 139.534 12.538 132.012 55.569"/><polygon class="cls-3" points="190.252 25.149 175.731 25.149 181.801 39.901 169.463 55.724 181.114 55.724 187.762 47.315 191.323 55.724 205.922 55.724 199.305 39.749 210.584 25.149 199.502 25.149 193.342 33.022 190.252 25.149"/><path class="cls-3" d="M67.6797,12.7725c16.9677,0,17.2988,10.6719,16.9003,13.90529-.3569,2.89161-.3828,2.90531-2.6757,15.51661C79.6108,54.8057,61.7265,55.7237,59.2807,55.7237H36.0932l7.8623-42.9512ZM56.4438,21.3252,52.2055,47.3604h6.9634c5.6001,0,8.25-3.7832,9.2334-9.082.9839-5.2989.9873-5.1563,1.3628-8.09961.4541-3.55669.1509-8.85359-6.206-8.85359Z"/></svg>