<svg id="Layer_1" data-name="Layer 1" xmlns="http://www.w3.org/2000/svg" viewBox="0 0 182.7295 43.9493"  height="26" width="109"><defs><style>.cls-1{fill:#fff;}</style></defs><path class="cls-1" d="M181.5225,13.8282a2.3977,2.3977,0,0,1-.0039,3.3808,2.3671,2.3671,0,0,1-3.3711.0039,2.4025,2.4025,0,0,1-.0117-3.3847,2.3474,2.3474,0,0,1,3.3867,0Zm.3574-.3692a2.7872,2.7872,0,0,0-2.0449-.8476,2.8329,2.8329,0,0,0-1.99.7851,2.7638,2.7638,0,0,0-.9043,2.1094A2.8945,2.8945,0,1,0,181.88,13.459Zm-1.6875,1.8262a.7824.7824,0,0,1-.459.1172h-.3261v-.93h.2031a1.3964,1.3964,0,0,1,.4883.0664.3672.3672,0,0,1,.2578.3652A.4356.4356,0,0,1,180.1924,15.2852Zm-.7851.6953h.1757l.1856.0117a.961.961,0,0,1,.2871.0508.3853.3853,0,0,1,.2344.2363,1.3976,1.3976,0,0,1,.0508.3926,2.16,2.16,0,0,0,.0527.4434h.8008l-.0293-.09a.5581.5581,0,0,1-.0215-.0957.7531.7531,0,0,1-.0039-.0937v-.2871a.87.87,0,0,0-.2832-.7178,1.1,1.1,0,0,0-.4571-.1846,1.0484,1.0484,0,0,0,.5567-.2158.7055.7055,0,0,0,.2265-.585.8052.8052,0,0,0-.43-.7656,1.5309,1.5309,0,0,0-.6309-.165q-.0673-.0045-.6621-.0059c-.3965-.001-.6934-.0019-.8926-.0019v3.208h.84Z"/><path class="cls-1" d="M64.6133,12.6114H51.85S48.4868,29.045,47.8745,33.4c-.6113,4.3574-1.3759,10.5489,13.91,10.5489,6.1919,0,13.07-2.0645,15.1343-2.0645h3.5918l5.1972-29.35H72.5616S69.5054,30.5733,68.97,32.8662s-1.7574,4.0518-4.8155,4.0518S60.562,34.7774,61.1734,31.49,64.6133,12.6114,64.6133,12.6114Z"/><path class="cls-1" d="M116.8936,12.6114H104.13S100.7666,29.045,100.1553,33.4c-.6133,4.3574-1.3769,10.5489,13.91,10.5489,6.1914,0,13.07-2.0645,15.1328-2.0645H132.79l5.1972-29.35H124.8428s-3.0566,18.0381-3.5937,20.331c-.5332,2.293-1.7579,4.0518-4.8145,4.0518s-3.5918-2.1406-2.9805-5.4277S116.8936,12.6114,116.8936,12.6114Z"/><polygon class="cls-1" points="95.919 43.031 83.077 43.031 90.601 0 103.44 0 95.919 43.031"/><polygon class="cls-1" points="154.159 12.611 139.638 12.611 145.708 27.363 133.37 43.186 145.02 43.186 151.669 34.777 155.229 43.186 169.829 43.186 163.212 27.211 174.491 12.611 163.409 12.611 157.249 20.484 154.159 12.611"/><path class="cls-1" d="M31.5865.2344c16.9677,0,17.2988,10.6719,16.9,13.9053-.3569,2.8916-.3828,2.9053-2.6757,15.5166S25.6333,43.1856,23.1875,43.1856H0L7.8623.2344ZM20.3506,8.7871,16.1123,34.8223h6.9634c5.6,0,8.25-3.7832,9.2334-9.082s.9873-5.1563,1.3628-8.1c.4541-3.5567.1509-8.8536-6.206-8.8536Z"/></svg>