<svg id="Layer_1" data-name="Layer 1" xmlns="http://www.w3.org/2000/svg" viewBox="0 0 1102.5011 238.6047" height="42" width="194"><defs><style>.cls-1{fill:#094084;}</style></defs><path class="cls-1" d="M65.62,81.6236l21.235,64.3584h-42.13Zm128.2,64.3584L172.5844,81.6236,151.6888,145.982Zm44.733-26.68A119.2762,119.2762,0,1,1,119.2762,0,119.2892,119.2892,0,0,1,238.5523,119.3024Zm-39.1468,26.68L172.5437,64.57l-.0453.14-26.1129-.14c-4.3342-11.8294-14.6281-20.1553-26.6471-20.1553S97.4259,52.741,93.0915,64.57l-27.4662.14-.046-.14L39.1468,145.982c4.3344,11.8294,14.6279,20.1554,26.6469,20.1554s22.3129-8.326,26.6472-20.1554L67.3759,70.0158h41.0632l6.75,123.5109h8.331l7.51-123.5109h39.7457L146.1114,145.982c4.3343,11.8294,14.6278,20.1554,26.6469,20.1554S195.0711,157.8114,199.4055,145.982Zm102.598-22.0277h36.7052V110.08H302.0035V89.6974H341.164V75.8231H286.6593v85.5805l55.363,0V147.5289H302.0035ZM397.05,99.5206H411.78v85.5806H397.05V152.4405c-2.0876,6.0166-9.5754,10.314-19.7641,10.314a29.7433,29.7433,0,0,1-22.0965-9.209c-5.8929-6.262-8.8387-13.8748-8.8387-23.0833s2.9459-16.8214,8.8387-22.961A29.4007,29.4007,0,0,1,377.2854,98.17c10.1888,0,17.6765,4.2974,19.7641,10.3141Zm1.1042,30.9416a18.05,18.05,0,0,0-5.5241-13.5065,18.328,18.328,0,0,0-13.3806-5.4024,17.7731,17.7731,0,0,0-13.1348,5.4024,20.27,20.27,0,0,0,0,27.0125,17.7734,17.7734,0,0,0,13.1348,5.4028,18.328,18.328,0,0,0,13.3806-5.4028A18.05,18.05,0,0,0,398.1537,130.4622Zm80.5025,12.1556V99.5207H463.9256l0,35.6072c0,8.4719-5.647,14.3656-13.5035,14.3656-7.9794,0-12.5212-5.2794-12.5212-13.7519V99.5207l-14.7306,0v38.3085c0,15.348,8.8378,24.8025,23.57,24.8025,8.9606,0,15.2212-3.07,18.7817-9.0861a11.5671,11.5671,0,0,0,4.4189,6.5073,15.5981,15.5981,0,0,0,9.0846,2.4558,21.2972,21.2972,0,0,0,7.2419-.982V149.4935a30.5862,30.5862,0,0,1-3.0688.2458C479.8833,149.7393,478.6562,147.8972,478.6562,142.6178Zm31.5406.3683V99.5207H495.4662v47.3945c0,10.4364,4.7877,15.7164,14.24,15.7164a20.61,20.61,0,0,0,7.3648-.9826V149.2481a13.007,13.007,0,0,1-2.5782.2454C511.1791,149.4935,510.1968,147.7748,510.1968,142.9861Zm33.0187-67.163H528.4849V99.5207H520.75v13.383h7.7345v29.2229c0,13.9972,6.6273,20.9962,20.0089,20.9962a34.0055,34.0055,0,0,0,7.6107-.7366V149.2481a22.9684,22.9684,0,0,1-5.1544.4912c-5.4022,0-7.7346-2.4558-7.7346-9.209V112.9037h13.6264V99.5207H543.2155Zm-40.3,15.867a8.599,8.599,0,1,0-8.5972-8.599A8.598,8.598,0,0,0,502.9156,91.69ZM622.107,99.5207H607.3762V135.128c0,8.4718-5.6468,14.3655-13.5034,14.3655-7.9793,0-12.5211-5.2794-12.5211-13.7519V99.5207H566.621v38.3084c0,15.348,8.8377,24.8025,23.57,24.8025,8.541,0,14.5993-2.8213,18.2342-8.2929a51.5993,51.5993,0,0,1-.3346,11.8392c-1.1711,7.6176-5.1268,13.0185-12.4211,13.7277-7.1652.6965-13.7414-2.365-14.9629-10.42l-14.744-.0029a23.1059,23.1059,0,0,0,8.5709,17.6017c5.2,3.949,10.41,6.6681,20.379,6.1947,21.42-1.0174,26.2841-17.6365,26.8624-26.7415.334-5.26.334-7.6215.334-10.2119V142.7192c0-.035-.0015-.0662-.0015-.1014Zm25.458-9.53h22.973V160.99h15.1938V89.9911h22.973V76.2536h-61.14Zm76.564,18.8441V99.7174H709.6633V160.99H724.129V128.7734c0-10.0906,6.4413-16.4125,16.53-16.4125a31.1617,31.1617,0,0,1,6.0771.6076V98.8664a22.6076,22.6076,0,0,0-4.3753-.3647C733.7306,98.5017,727.0459,102.392,724.129,108.8352Zm86.89,33.5544V99.7175H796.4323v35.2561c0,8.3884-5.5923,14.2239-13.3713,14.2239-7.9,0-12.3977-5.2274-12.3977-13.6163V99.7175l-14.5844,0v37.9308c0,15.1967,8.7506,24.5578,23.3371,24.5579,8.8732,0,15.0712-3.0393,18.5954-8.9965a11.4571,11.4571,0,0,0,4.3773,6.4431,15.4426,15.4426,0,0,0,8.9942,2.4317,21.0914,21.0914,0,0,0,7.1714-.9724V149.1975a30.3265,30.3265,0,0,1-3.04.2435C812.2338,149.441,811.0187,147.617,811.0187,142.39Zm47.076-17.5065c-2.43-.8511-5.8337-2.067-7.6583-2.5534a40.3593,40.3593,0,0,1-4.9828-2.1881c-1.7019-1.0941-2.7962-2.1881-2.7962-4.2551,0-3.2826,2.9188-5.4707,7.4149-5.4707,5.2262,0,9.2374,1.7021,11.9129,5.106l8.1431-8.6317c-4.6187-5.9574-11.1827-8.9966-19.8126-8.9966a24.48,24.48,0,0,0-15.4373,4.9844c-4.132,3.2828-6.1979,7.66-6.1979,13.3733,0,8.7531,5.2262,13.738,15.0712,17.2637,2.0659.85,5.7131,1.9451,7.5356,2.5528a30.969,30.969,0,0,1,5.7131,2.31c2.0659,1.094,3.5244,2.7962,3.5244,4.8632,0,3.7685-3.281,6.6861-10.9373,6.6861-7.4149,0-13.3714-3.2822-16.1676-7.659l-9.3581,7.9025c3.8884,7.659,13.0052,12.4,25.2822,12.4,16.65,0,25.16-8.1452,25.16-19.4517C874.5036,134.3654,869.398,128.8947,858.0947,124.8831Zm42.1566-48.6294H885.6649V99.7175h-7.6584v13.251h7.6584v28.9347c0,13.8592,6.564,20.7893,19.8125,20.7894a33.6737,33.6737,0,0,0,7.5356-.7294V148.9546a22.7627,22.7627,0,0,1-5.1056.4865c-5.3468,0-7.6561-2.4317-7.6561-9.1183V112.9685h13.49V99.7175h-13.49ZM971.4926,106.89c5.713,5.9572,8.5093,13.2515,8.5093,22.0046,0,1.8239-.1227,3.5256-.2434,5.1061H932.1109c.4868,9.7259,7.6582,16.0478,18.4748,16.0478a22.5461,22.5461,0,0,0,16.5317-7.0512l8.7506,8.51a33.9773,33.9773,0,0,1-25.7671,10.9417c-9.6036,0-17.5032-2.9176-23.46-8.6319-5.9543-5.7138-8.994-13.3728-8.994-22.9769v-.4864c0-9.7259,3.04-17.5066,8.994-23.4638,6.0773-5.9574,13.7355-8.8748,23.0937-8.8748C958.6081,98.0153,965.9023,100.9327,971.4926,106.89ZM965.172,123.789a11.91,11.91,0,0,0-4.6186-9.3612,15.6931,15.6931,0,0,0-10.8186-4.012,18.8308,18.8308,0,0,0-11.7883,3.89,13.3166,13.3166,0,0,0-5.47,9.4829Zm75.8223-16.8989c5.7131,5.9572,8.5072,13.2515,8.5072,22.0046,0,1.8239-.1206,3.5256-.2413,5.1061h-47.6477c.4868,9.7259,7.6583,16.0478,18.4749,16.0478a22.546,22.546,0,0,0,16.5316-7.0512l8.7507,8.51a33.9774,33.9774,0,0,1-25.767,10.9417c-9.6036,0-17.5034-2.9175-23.46-8.6319-5.9546-5.7137-8.9941-13.3727-8.9941-22.9769v-.4864c0-9.7259,3.0395-17.5066,8.9941-23.4638,6.0771-5.9574,13.7355-8.8748,23.0935-8.8748C1028.11,98.0153,1035.404,100.9327,1040.9943,106.89Zm-6.3205,16.8989a11.9094,11.9094,0,0,0-4.6187-9.3612,15.6932,15.6932,0,0,0-10.8187-4.012,18.83,18.83,0,0,0-11.7881,3.89,13.3169,13.3169,0,0,0-5.47,9.4829Zm51.4183,1.0941c-2.43-.8511-5.8338-2.0669-7.6583-2.5533a40.3651,40.3651,0,0,1-4.9828-2.1882c-1.7018-1.0941-2.7962-2.1881-2.7962-4.255,0-3.2827,2.9189-5.4708,7.4149-5.4708,5.2263,0,9.2375,1.7022,11.9129,5.1061l8.1432-8.6318c-4.6187-5.9573-11.1828-8.9965-19.8126-8.9965a24.4791,24.4791,0,0,0-15.4373,4.9844c-4.132,3.2828-6.1979,7.6595-6.1979,13.3732,0,8.7532,5.2262,13.738,15.0712,17.2637,2.0659.8506,5.713,1.9452,7.5356,2.5529a30.964,30.964,0,0,1,5.7129,2.31c2.0661,1.0941,3.5245,2.7962,3.5245,4.8632,0,3.7686-3.281,6.6862-10.9393,6.6862-7.4128,0-13.3694-3.2823-16.1654-7.6591l-9.3583,7.9025c3.8885,7.659,13.0053,12.4,25.2823,12.4,16.65,0,25.16-8.1453,25.16-19.4517C1102.5011,134.3655,1097.3955,128.8947,1086.0921,124.8831Z"/></svg>