<svg id="Layer_1" data-name="Layer 1" xmlns="http://www.w3.org/2000/svg" viewBox="0 0 19.15 19.1497" height="20px" width="20px"><defs><style>.cls-1{fill:#666;}</style></defs><path id="facebook" class="cls-1" d="M18.09,0H1.06A1.0543,1.0543,0,0,0,0,1.06V18.09a1.0605,1.0605,0,0,0,1.06,1.06h9.17V11.73H7.73V8.84h2.5V6.71a3.4817,3.4817,0,0,1,3.71-3.82c1.06,0,1.97.08,2.23.11V5.59H14.64c-1.2,0-1.43.57-1.43,1.41V8.84h2.86l-.37,2.89H13.21v7.42h4.88a1.067,1.067,0,0,0,1.06-1.06V1.06A1.0606,1.0606,0,0,0,18.09,0"/></svg>