<svg id="Layer_1" data-name="Layer 1" xmlns="http://www.w3.org/2000/svg" viewBox="0 0 118.1633 20.747"  height="25" width="147"><defs><style>.cls-1{fill:#2e2f33;}.cls-2{fill:#e11116;}</style></defs><path class="cls-1" d="M44.7974.288h1.4119L60.1266,17.8367V.288h1.4411V20.4588h-1.124L46.2379,2.5356V20.4588h-1.44Z"/><path class="cls-1" d="M65.1552,17.52l.98-1.1239a9.7917,9.7917,0,0,0,7.2324,2.9969c3.0255,0,5.1-1.7,5.1-4.0054V15.33c0-2.1324-1.124-3.3714-5.7054-4.2934-4.8407-.98-6.8-2.6223-6.8-5.6767V5.3018C65.9624,2.3054,68.7,0,72.4454,0a10.0548,10.0548,0,0,1,6.916,2.4493L78.41,3.6306A8.6835,8.6835,0,0,0,72.388,1.3542c-2.9681,0-4.9271,1.7-4.9271,3.8039v.0576c0,2.1323,1.0951,3.4289,5.878,4.4087,4.6685.9508,6.6275,2.622,6.6275,5.5613v.0577c0,3.2557-2.7948,5.5036-6.6853,5.5036A11.4815,11.4815,0,0,1,65.1552,17.52Z"/><path class="cls-1" d="M101.3928.427h1.4118l13.918,17.5483V.427h1.4407v20.17h-1.1239L102.8335,2.6745V20.5973h-1.4407Z"/><polygon class="cls-1" points="32.489 1.786 37.495 12.899 29.197 12.899 28.591 14.253 38.129 14.253 40.99 20.459 42.632 20.459 33.239 0.144 31.798 0.144 22.404 20.459 23.96 20.459 32.489 1.786"/><polygon class="cls-1" points="84.789 19.301 84.789 12.378 84.789 11.204 84.789 9.821 84.789 8.176 84.789 1.897 97.64 1.897 97.64 0.514 83.29 0.514 83.29 20.684 97.785 20.684 97.785 19.301 84.789 19.301"/><polygon class="cls-1" points="96.343 11.204 96.343 9.821 86.585 9.821 85.986 11.204 96.343 11.204"/><path class="cls-2" d="M20.453.0905H13.7106V6.7744c2.5187.27,4.8129.6627,6.7424,1.0639Z"/><path class="cls-2" d="M6.7427.0905H0V6.9786a46.3423,46.3423,0,0,1,6.7427-.551Z"/><path class="cls-2" d="M0,11.1207v9.3381H6.7427V13.7556h6.9679v6.7032H20.453V8.8041C10.7071,8.2071,3.9732,9.7182,0,11.1207Z"/></svg>