<svg id="Layer_1" data-name="Layer 1" xmlns="http://www.w3.org/2000/svg" viewBox="0 0 19.1499 20.2205" height="20px" width="20px"><defs><style>.cls-1{fill:#fff;}</style></defs><g id="instagram"><path class="cls-1" d="M9.57,0C6.97,0,6.65.02,5.63.07A6.5185,6.5185,0,0,0,3.3.54,4.54,4.54,0,0,0,1.61,1.7,5,5,0,0,0,.5,3.49,7.5163,7.5163,0,0,0,.06,5.94C.01,7.02,0,7.37,0,10.11,0,12.86.01,13.2.06,14.2805A7.5184,7.5184,0,0,0,.5,16.73a4.9124,4.9124,0,0,0,1.11,1.79A4.6805,4.6805,0,0,0,3.3,19.69a6.7472,6.7472,0,0,0,2.33.47c1.02.05,1.34.0606,3.94.0606s2.93-.01,3.95-.0606a6.635,6.635,0,0,0,2.32-.47,4.7151,4.7151,0,0,0,1.7-1.17,4.8806,4.8806,0,0,0,1.1-1.79,7.7668,7.7668,0,0,0,.45-2.45c.05-1.08.06-1.4209.06-4.1706,0-2.74-.01-3.09-.06-4.17a7.7645,7.7645,0,0,0-.45-2.45,4.9673,4.9673,0,0,0-1.1-1.79A4.5737,4.5737,0,0,0,15.84.54,6.412,6.412,0,0,0,13.52.07C12.5.02,12.17,0,9.57,0m0,1.83c2.56,0,2.86.01,3.87.05a5.1791,5.1791,0,0,1,1.78.35,2.908,2.908,0,0,1,1.1.7605,3.1562,3.1562,0,0,1,.72,1.16,6.1362,6.1362,0,0,1,.33,1.8806c.04,1.0593.05,1.3794.05,4.0794s-.01,3.02-.05,4.09a6.0466,6.0466,0,0,1-.33,1.87,3.1517,3.1517,0,0,1-.72,1.16,2.7961,2.7961,0,0,1-1.1.7605,5.1816,5.1816,0,0,1-1.78.35c-1.01.05-1.31.06-3.87.06-2.55,0-2.86-.01-3.87-.06a5.0519,5.0519,0,0,1-1.77-.35,2.7951,2.7951,0,0,1-1.1-.7605,3.023,3.023,0,0,1-.72-1.16,5.7637,5.7637,0,0,1-.33-1.87c-.05-1.07-.06-1.39-.06-4.09s.01-3.02.06-4.0794A5.8481,5.8481,0,0,1,2.11,4.15a3.0271,3.0271,0,0,1,.72-1.16A2.9069,2.9069,0,0,1,3.93,2.23,5.05,5.05,0,0,1,5.7,1.88c1.01-.04,1.32-.05,3.87-.05"/><path class="cls-1" d="M9.57,13.48a3.2851,3.2851,0,0,1-3.19-3.37A3.2854,3.2854,0,0,1,9.57,6.74a3.2789,3.2789,0,0,1,3.19,3.37,3.2785,3.2785,0,0,1-3.19,3.37m0-8.56a5.0612,5.0612,0,0,0-4.91,5.19,5.055,5.055,0,0,0,4.91,5.1906A5.0566,5.0566,0,0,0,14.49,10.11,5.0628,5.0628,0,0,0,9.57,4.92"/><path class="cls-1" d="M15.83,4.72a1.1468,1.1468,0,1,1-2.29,0,1.1474,1.1474,0,1,1,2.29,0"/></g></svg>