<svg xmlns="http://www.w3.org/2000/svg" viewBox="0 0 102.1499 74.4917" height="77px" width="109px"><defs><style>.cls-1,.cls-3{fill:#007e48;}.cls-2,.cls-6{fill:#fff;}.cls-3{stroke:#fff;stroke-width:6.5px;}.cls-4{fill:#83b827;}.cls-5{fill:#007a45;}.cls-6{fill-rule:evenodd;}</style></defs><g id="Layer_2" data-name="Layer 2"><path class="cls-1" d="M64.9029,71.23a33.9819,33.9819,0,1,0,0-67.9638L37.2466,3.25a33.99585,33.99585,0,1,0,0,67.9917H64.9038"/><path class="cls-2" d="M64.9038,74.4917H37.2466A37.24585,37.24585,0,1,1,37.2466,0L64.9048.0162A37.2319,37.2319,0,1,1,64.9029,74.48Z"/><path class="cls-3" d="M27.34821,37.2066"/></g><g id="Layer_1" data-name="Layer 1"><path class="cls-4" d="M27.3487,37.2613A37.56424,37.56424,0,0,1,46.4058,4.5635a33.99594,33.99594,0,1,0,.0928,65.4478,37.5659,37.5659,0,0,1-19.1499-32.75"/><path class="cls-5" d="M30.9077,37.4019A33.9961,33.9961,0,1,1,64.9029,71.398,33.99639,33.99639,0,0,1,30.9077,37.4019"/><path class="cls-6" d="M69.7974,26.6202a10.48516,10.48516,0,0,0-6.3037,2.0351,10.433,10.433,0,0,0-6.2813-2.0351A10.05473,10.05473,0,0,0,46.9121,36.8589,10.0538,10.0538,0,0,0,57.2124,47.0972a10.42968,10.42968,0,0,0,6.2813-2.03511,10.4818,10.4818,0,0,0,6.3037,2.03511A10.04648,10.04648,0,0,0,80.0679,36.8589,10.04741,10.04741,0,0,0,69.7974,26.6202Zm0,18.2475c-4.32719,0-7.4043-3.5898-7.4043-8.0088a8.80246,8.80246,0,0,1,.8184-3.7583,6.61037,6.61037,0,0,0-1.8936-2.2051,10.64887,10.64887,0,0,0,.3682,12.4185,7.02414,7.02414,0,0,1-4.4737,1.5537c-4.3271,0-7.4043-3.5898-7.4043-8.0088,0-4.4184,3.0772-8.00781,7.4043-8.00781,4.3272,0,7.375,3.58941,7.375,8.00781a8.8601,8.8601,0,0,1-.8125,3.7578,6.66946,6.66946,0,0,0,1.8946,2.1973,10.66151,10.66151,0,0,0-.36629-12.4023,7.07738,7.07738,0,0,1,4.49419-1.56061c4.3281,0,7.375,3.58941,7.375,8.00781C77.1724,41.2779,74.1255,44.8677,69.7974,44.8677Z"/><path class="cls-6" d="M45.09721,27.5035a1.31351,1.31351,0,0,0-2.627,0l.00049.2929V46.23a1.31351,1.31351,0,0,0,2.627,0Z"/><path class="cls-6" d="M91.7544,27.1187h-.6728l-.40139.0019-6.27931-.0029c-1.9268,0-2.834,1.2378-2.834,3.0899V46.3384a1.33186,1.33186,0,0,0,2.6582.0186V39.024c0-.4268.0742-.6035.5557-.6035h4.5898c.6612,0,.9502-.5508.9502-1.1495,0-.5996-.289-1.1435-.9502-1.1435H84.2251V30.5689c0-.7363.1953-1.1934,1.2998-1.1934h6.167c.6612,0,.9502-.5332.9502-1.1318C92.6421,27.6446,92.3531,27.1382,91.7544,27.1187Z"/></g></svg>