<svg id="Layer_1" data-name="Layer 1" xmlns="http://www.w3.org/2000/svg" viewBox="0 0 95.6486 67.937"  height="43" width="61"><defs><style>.cls-1{fill:#fff;}</style></defs><path class="cls-1" d="M24.0981,33.9566A37.564,37.564,0,0,1,43.1552,1.2588,33.9715,33.9715,0,1,0,33.996,67.937h1.5585a34.0142,34.0142,0,0,0,7.6935-1.23A37.5657,37.5657,0,0,1,24.0981,33.9566Z"/><path class="cls-1" d="M66.5468,25.5464a7.0772,7.0772,0,0,0-4.4942,1.5606,10.6619,10.6619,0,0,1,.3663,12.4023,6.6709,6.6709,0,0,1-1.8947-2.1973,8.86,8.86,0,0,0,.8125-3.7578c0-4.4184-3.0478-8.0078-7.375-8.0078s-7.4043,3.5894-7.4043,8.0078,3.0772,8.0088,7.4043,8.0088a7.0244,7.0244,0,0,0,4.4738-1.5537,10.6489,10.6489,0,0,1-.3682-12.4185,6.61,6.61,0,0,1,1.8936,2.2051,8.801,8.801,0,0,0-.8184,3.7583c0,4.419,3.077,8.0088,7.4043,8.0088s7.375-3.59,7.375-8.0088S70.8749,25.5464,66.5468,25.5464Z"/><path class="cls-1" d="M61.6523.1011A33.9945,33.9945,0,0,0,58.4294,67.937h3.2237l-.0008-.0117a33.9122,33.9122,0,1,0,0-67.8242Zm-21.12,44.1338a1.31,1.31,0,0,1-1.3126-1.31V24.4917l-.0005-.2929a1.3136,1.3136,0,0,1,2.6271,0l0,18.7265A1.3119,1.3119,0,0,1,40.5326,44.2349Zm26.0142-.4424a10.4824,10.4824,0,0,1-6.3038-2.0351,10.43,10.43,0,0,1-6.2813,2.0351,10.0539,10.0539,0,0,1-10.3-10.2383,10.0548,10.0548,0,0,1,10.3-10.2387,10.4328,10.4328,0,0,1,6.2813,2.0351,10.4857,10.4857,0,0,1,6.3038-2.0351,10.0475,10.0475,0,0,1,10.27,10.2387A10.0465,10.0465,0,0,1,66.5468,43.7925ZM87.8309,23.814h.6729c.5987.02.8877.5259.8877,1.125s-.289,1.1318-.95,1.1318H82.2742c-1.1045,0-1.3.4571-1.3,1.1934v5.5586H86.12c.6612,0,.95.5439.95,1.1435s-.289,1.15-.95,1.15H81.53c-.4816,0-.5557.1767-.5557.6035v7.333a1.3319,1.3319,0,0,1-2.6582-.0186V26.9029c0-1.8521.9071-3.09,2.834-3.09l6.2793.0029Z"/></svg>