<svg  height="85" width="185"
	 xmlns="http://www.w3.org/2000/svg" xmlns:xlink="http://www.w3.org/1999/xlink" x="0px" y="0px" viewBox="0 0 300.6 138.3"
	 style="enable-background:new 0 0 300.6 138.3;" xml:space="preserve">
<style type="text/css">
	.st0{fill:#003262;}
</style>
	<g>
		<g>
			<path class="st0" d="M109.8,109.3c0.7,1.3,0.9,1.7,1.3,1.7c0.4,0,0.6-0.3,1.2-1.5l8.8-18.6l1.6,17.9c0,0.2,0.1,0.9,0,1
				c-0.2,0.1-0.4,0.2-0.4,0.5c0,0.5,0.5,0.5,1.2,0.6c1.3,0.1,5.5,0.2,6.2,0.2c0.3,0,0.8,0,0.8-0.5c0-0.1,0-0.5-0.6-0.5
				c-0.3,0-1.1,0-2.2-0.3c-1.4-0.5-1.6-2.4-1.8-3.6L123.6,84c-0.1-0.5-0.1-1.2-0.7-1.2c-0.4,0-0.6,0.5-0.8,0.7l-10.4,22.1L101,83.5
				c-0.2-0.4-0.4-0.7-0.8-0.7c-0.3,0-0.6,0.4-0.6,0.9L97,107.1l0,0.3c-0.2,1.4-0.3,2.3-1.2,2.5c-0.5,0.1-0.8,0.1-1,0.1
				c-0.4,0-0.6,0.2-0.6,0.5c0,0.5,0.6,0.5,0.9,0.5c0.6,0,1.5,0,2.2-0.1c0.4,0,0.7,0,0.8,0c0.1,0,0.3,0,0.7,0c0.7,0,1.9,0.1,2.8,0.1
				c0.2,0,0.8,0,0.8-0.6c0-0.2-0.2-0.4-0.6-0.4c-0.2,0-0.7,0-1.2-0.1c-0.5-0.1-0.8-0.3-0.8-1.1c0-0.5,0-1,0.1-1.5l1.4-16.1
				c1.1,2.5,4.2,9,4.5,9.6l0.2,0.5c0.8,1.6,3.2,6.4,4,7.9L109.8,109.3z"/>
			<path class="st0" d="M144.4,110.9c0,0,0.2,0,0.4,0c0.8,0,2.5,0.1,4,0.1c0.7,0,0.8-0.3,0.8-0.5c0-0.2-0.2-0.5-0.5-0.5
				c-0.3,0-1.1-0.1-1.6-0.1c-0.8-0.1-1.2-0.6-1.3-1.7c-0.1-1.5-0.1-3-0.1-3.6v-3.1c0-1.2,0-2.3,0.5-3.5c0.6-1.5,5.6-9.9,6.8-11.4
				c0.8-0.9,1.1-1.4,1.8-1.8c0.5-0.3,1.1-0.5,1.5-0.5c0.5,0,0.7-0.3,0.7-0.5c0-0.2-0.2-0.5-0.7-0.5c-0.4,0-1.7,0-2.5,0.1
				c-0.5,0-0.9,0-0.9,0c-0.1,0-0.3,0-0.6,0c-0.5,0-1.2-0.1-1.8-0.1c-0.7,0-0.8,0.3-0.8,0.5c0,0.4,0.3,0.5,0.7,0.6
				c0.1,0,0.4,0.1,0.4,0.8c0,0.5-0.2,1.1-0.6,1.7c-0.6,1-4.7,8-5.8,10.2c-1.2-2.1-5.9-10-6.4-11c-0.3-0.5-0.4-0.9-0.4-1.3
				c0-0.1,0-0.3,0.3-0.4c0.1,0,0.1-0.1,0.2-0.1c0.2-0.1,0.5-0.2,0.5-0.5c0-0.3-0.2-0.5-0.7-0.5c-1,0-2,0.1-2.5,0.1
				c-0.2,0-0.4,0-0.5,0c-0.1,0-0.4,0-0.9,0c-0.9,0-2.2-0.1-2.7-0.1c-0.7,0-0.7,0.4-0.7,0.5c0,0.3,0.3,0.5,0.6,0.5
				c0.3,0,0.9,0.2,1.4,0.5c0.7,0.5,1.6,1.4,2.4,2.6c1.3,1.9,6.1,9.8,6.3,10.3c0.5,1,0.8,1.8,0.8,3.7v3.1c0,0.6,0,2.1-0.1,3.6
				c-0.1,0.7-0.2,1.6-0.9,1.8c-0.4,0.1-0.8,0.1-1,0.1c-0.4,0-0.5,0.2-0.5,0.5c0,0.5,0.6,0.5,0.8,0.5c0.8,0,2.1-0.1,2.9-0.1
				C144.1,110.9,144.3,110.9,144.4,110.9z"/>
			<path class="st0" d="M177.5,105.7c-0.4,0-0.5,0.4-0.6,0.7c-0.3,1.6-0.7,2.2-1.7,2.5c-0.9,0.3-2.1,0.3-3.2,0.3
				c-1.5,0-2.4-0.1-2.9-0.3c-0.7-0.3-1-0.8-1-2.4c0-0.5,0-2.9,0-4.6c0-0.7,0-1.2,0-1.6l0-3.2c0.6,0,4.2,0.1,5.1,0.2
				c1.3,0.1,1.6,0.6,1.7,1c0.1,0.3,0.1,0.6,0.1,0.9c0,0.5,0.2,0.8,0.5,0.8c0.4,0,0.5-0.5,0.5-0.8c0-0.2,0-0.4,0-0.6
				c0-0.5,0-1.1,0.1-1.8c0.1-0.7,0.2-1.2,0.2-1.6c0-0.2,0.1-0.4,0.1-0.5c0-0.5-0.3-0.5-0.4-0.5c-0.2,0-0.4,0.2-0.6,0.4
				c-0.3,0.3-0.6,0.5-1.6,0.5c-0.6,0.1-3.3,0-5.7,0.1c0,0,0-0.1,0-0.1v-9.9c0-0.1,0-0.1,0-0.1c0.7,0,4.3,0,4.9,0.1
				c1.7,0.2,2.2,0.6,2.4,1.2c0.1,0.3,0.2,0.7,0.2,1.1c0,0.6,0.3,0.7,0.5,0.7c0.2,0,0.5-0.1,0.5-0.8c0.1-0.7,0.1-1.2,0.1-1.7l0-0.5
				c0-0.6,0.1-1,0.2-1.3c0-0.2,0.1-0.3,0.1-0.4c0-0.5-0.3-0.6-0.4-0.6c-0.2,0-0.3,0.1-0.5,0.2c-0.1,0.1-0.6,0.1-1.6,0.2
				c-0.8,0-7.9,0-8.2,0c-2.3-0.1-3.2-0.1-4.1-0.1c-0.2,0-0.8,0-0.8,0.5c0,0.4,0.4,0.4,0.7,0.5c0.1,0,0.2,0,0.4,0
				c0.2,0,0.5,0,0.6,0.1c1,0.2,1.3,0.6,1.4,1.8c0.1,1.1,0.1,2.2,0.1,7.8v6.3c0,3.2,0,5-0.1,6.4c-0.1,2.7-0.5,3-1.1,3.2
				c-0.2,0-0.3,0.1-0.5,0.1l-0.3,0c-0.5,0.1-0.6,0.3-0.6,0.5c0,0.5,0.6,0.5,0.8,0.5c0.5,0,1.1,0,1.6-0.1c0.4,0,0.7-0.1,1.1-0.1
				c1,0,2,0,3.1,0.1c0.5,0,1,0,1.4,0c0.4,0,0.7,0,1.1,0c1,0,2.2,0.1,4.2,0.1c1.4,0,1.9,0,2.2-1.1c0.2-0.7,0.5-3.2,0.5-3.5
				C178,106.2,178,105.7,177.5,105.7z"/>
			<path class="st0" d="M211.5,110.5c0-0.3-0.3-0.5-0.6-0.5c-0.2,0-0.7,0-1.4-0.1c-0.9-0.2-2.4-0.6-4.2-2.5
				c-1.8-1.9-3.9-4.7-6.4-7.8l-0.9-1.2c2.9-2.7,4.3-5.4,4.3-8.3c0-2.6-1.6-4.4-2.6-5.1c-2-1.4-4.5-1.6-6.7-1.6c-0.7,0-2.1,0-3,0.1
				c-0.6,0-1.1,0-1.2,0c0,0-0.2,0-0.5,0c-0.8,0-2.4-0.1-3.6-0.1c-0.2,0-0.8,0-0.8,0.5c0,0.3,0.2,0.5,0.5,0.5c0.3,0,0.9,0,1.2,0.1
				c1,0.2,1.3,0.6,1.4,1.8c0.1,1.1,0.1,2.2,0.1,7.8v6.3c0,3.4,0,6.3-0.2,7.8c-0.2,1.1-0.3,1.7-0.9,1.8c-0.4,0.1-0.8,0.1-1,0.1
				c-0.4,0-0.5,0.2-0.5,0.5c0,0.5,0.6,0.5,0.8,0.5c0.9,0,2.7-0.1,3.2-0.1l0.2,0c0,0,0.2,0,0.4,0c0.8,0,2.5,0.1,4,0.1
				c0.7,0,0.8-0.3,0.8-0.5c0-0.2-0.2-0.5-0.5-0.5c-0.3,0-1.1-0.1-1.6-0.1c-0.9-0.1-1.1-0.7-1.2-1.8c-0.2-1.5-0.2-4.4-0.2-7.8l0-0.9
				l4.4,0.1c0.1,0,0.2,0,0.3,0.1c0.3,0.4,0.8,1.1,1.3,1.8c0.8,1,1.7,2.4,2.6,3.5l0.5,0.6c1.8,2.4,3,4,4.5,4.8c1,0.5,2,0.7,4,0.7h2.6
				C210.8,111,211.5,111,211.5,110.5z M190.3,85.4c0-0.1,0-0.2,0.1-0.2c0.3-0.1,1.3-0.2,2.3-0.2c3.7,0,6,2.6,6,6.9
				c0,2.4-0.8,4.4-2.1,5.3c-0.8,0.6-1.9,0.6-2.6,0.6c-1.7,0-3.2-0.3-3.7-0.5c-0.1-0.1-0.1-0.1-0.1-0.2V85.4z"/>
			<path class="st0" d="M10.6,119.1c-0.1,0-0.3,0.1-0.3,0.1c-0.1,0.1-0.5,0.1-0.8,0.1l-0.2,0c-0.5,0-5,0-5.9,0c-0.4,0-0.9,0-1.3,0
				c-0.5,0-0.9,0-1.4,0c-0.4,0-0.6,0.1-0.6,0.4c0,0.3,0.4,0.4,0.6,0.4c0.1,0,0.2,0,0.3,0c0.1,0,0.2,0,0.3,0c0.6,0.1,0.8,0.4,0.8,1.1
				c0,0.8,0,1.4,0,5.2v4.2c0,2.5,0,4-0.1,5c-0.1,1.1-0.3,1.3-0.6,1.3c-0.1,0-0.4,0.1-0.6,0.1c-0.3,0-0.5,0.2-0.5,0.4
				c0,0.3,0.2,0.4,0.6,0.4c0.6,0,1.7-0.1,2.1-0.1h0.2c0,0,0.1,0,0.3,0c0.5,0,1.6,0.1,2.7,0.1c0.5,0,0.6-0.2,0.6-0.4
				c0-0.2-0.2-0.4-0.5-0.4l-0.2,0c-0.2,0-0.5,0-0.7-0.1c-0.4,0-0.7-0.3-0.8-1.4c-0.1-1.1-0.1-2.8-0.1-4.8l0-2c1.8,0,3.1,0,3.5,0.1
				c1,0.1,1.1,0.8,1.2,1.3c0,0.2,0.1,0.6,0.4,0.6c0.4,0,0.4-0.4,0.4-0.6c0-0.1,0-0.3,0-0.4c0-0.3,0-0.7,0.1-1.2c0-0.5,0.1-0.8,0.1-1
				c0-0.2,0-0.3,0-0.3c0-0.4-0.3-0.4-0.4-0.4c-0.2,0-0.3,0.1-0.4,0.2L9.6,127c-0.3,0.3-0.5,0.3-1.7,0.4c-1,0-2.3,0-3.2,0l0-6.6
				l3.6,0.1c0.6,0,1,0.1,1.3,0.4c0.3,0.2,0.4,0.8,0.4,1c0,0.2,0.1,0.5,0.4,0.5c0.3,0,0.5-0.3,0.5-0.7c0-0.2,0-0.4,0-0.5
				c0-0.4,0-0.7,0.1-1.2c0-0.1,0-0.3,0.1-0.4c0-0.2,0.1-0.3,0.1-0.4C11,119.3,10.9,119.1,10.6,119.1z"/>
			<path class="st0" d="M29.7,137.1c-0.1,0-0.5,0-0.9-0.1c-0.3-0.1-1-0.3-1.9-2.5c-1-2.6-3.2-8.4-4.6-11.8c-0.5-1.4-0.9-2.4-1-2.7
				c-0.3-0.7-0.4-1-0.8-1c-0.3,0-0.5,0.3-0.8,1.1L14.3,135c-0.4,1.2-0.9,2-1.8,2.1c-0.2,0-0.4,0-0.5,0c-0.5,0-0.6,0.3-0.6,0.4
				c0,0.4,0.5,0.4,0.7,0.4c0.8,0,1.6,0,2.2-0.1c0.3,0,0.5,0,0.5,0c0.1,0,0.3,0,0.6,0c0.4,0,0.9,0,1.2,0c0.6,0,0.7-0.3,0.7-0.4
				c0-0.2-0.1-0.4-0.6-0.4h-0.2c-0.2,0-0.6-0.1-0.6-0.4c0-0.4,0.1-1,0.3-1.5l1.4-4.3l5.1,0l2.2,5.9c0.1,0.2,0,0.3,0,0.3
				c-0.3,0.1-0.4,0.3-0.4,0.4c0,0.4,0.4,0.4,0.8,0.4l0.1,0c1.1,0,2.4,0,3.8,0c0.6,0,0.7-0.3,0.7-0.4
				C30.2,137.4,30.1,137.1,29.7,137.1z M22.3,129.5h-4.2l2-6.2L22.3,129.5z"/>
			<path class="st0" d="M55.3,137.1c-0.2,0-0.8,0-1.4-0.2c-0.8-0.3-1-1.3-1.1-2.3l-1.6-14.7c0-0.3-0.1-0.9-0.5-0.9
				c-0.4,0-0.5,0.3-0.6,0.5l-6.8,14.6l-7.1-14.6c-0.1-0.3-0.3-0.5-0.6-0.5c-0.3,0-0.5,0.3-0.5,0.7l-1.7,15.6l0,0.2
				c-0.1,0.9-0.2,1.5-0.7,1.6c-0.3,0.1-0.5,0.1-0.7,0.1c-0.3,0-0.5,0.2-0.5,0.4c0,0.4,0.5,0.4,0.7,0.4c0.4,0,1,0,1.5-0.1
				c0.3,0,0.5,0,0.5,0c0.1,0,0.2,0,0.4,0c0.5,0,1.3,0.1,1.9,0.1c0.5,0,0.6-0.3,0.6-0.5c0-0.2-0.2-0.4-0.5-0.4c-0.1,0-0.4,0-0.8-0.1
				c-0.3-0.1-0.4-0.2-0.4-0.6c0-0.4,0-0.7,0-1l0.9-10.4c0.8,1.8,2.7,5.8,2.9,6.1l0.1,0.2c1.8,3.6,2.5,4.9,2.7,5.4l0,0.1
				c0.5,0.9,0.6,1.1,0.9,1.1c0.3,0,0.5-0.2,0.9-1.1l5.7-12.1l1.1,11.6c0,0.1,0.1,0.5,0.1,0.6c-0.1,0-0.3,0.1-0.3,0.4
				c0,0.4,0.5,0.5,0.9,0.5c0.9,0.1,3.7,0.1,4.2,0.1c0.2,0,0.6,0,0.6-0.4C55.8,137.5,55.8,137.1,55.3,137.1z"/>
			<path class="st0" d="M64.6,137.1c-0.1,0-0.6,0-1-0.1c-0.5-0.1-0.6-0.3-0.7-1.1c-0.1-1-0.1-2.9-0.1-5.2v-4.2c0-3.7,0-4.4,0-5.2
				c0.1-0.9,0.3-1.1,0.7-1.1c0.3,0,0.4-0.1,0.5-0.1c0.3,0,0.4-0.2,0.4-0.4c0-0.3-0.2-0.4-0.6-0.4c-0.5,0-1.4,0-2,0.1
				c-0.2,0-0.4,0-0.4,0c0,0-0.2,0-0.4,0c-0.5,0-1.5-0.1-2.1-0.1c-0.4,0-0.6,0.1-0.6,0.4c0,0.2,0.2,0.4,0.4,0.4c0.2,0,0.5,0,0.7,0.1
				c0.3,0.1,0.6,0.3,0.6,1.1c0,0.8,0,1.4,0,5.2v4.2c0,2.2,0,4.2-0.1,5.2c-0.1,0.8-0.3,1.1-0.5,1.1c-0.2,0-0.4,0.1-0.6,0.1
				c-0.5,0-0.5,0.3-0.5,0.4c0,0.3,0.2,0.4,0.6,0.4c0.5,0,1.4,0,2-0.1c0.2,0,0.4,0,0.4,0c0,0,0.1,0,0.3,0c0.5,0,1.7,0.1,2.7,0.1
				c0.6,0,0.6-0.3,0.6-0.4C65.2,137.5,65.2,137.1,64.6,137.1z"/>
			<path class="st0" d="M80.1,134.1c-0.3,0-0.4,0.2-0.5,0.5c-0.1,0.5-0.3,1-0.6,1.3c-0.5,0.6-1.4,0.6-2.7,0.6
				c-1.9,0-2.4-0.2-2.7-0.5c-0.4-0.4-0.5-2.2-0.5-5.3v-4.3c0-3.7,0-4.4,0-5.2c0-0.8,0.2-1,0.7-1.1c0.3,0,0.6-0.1,0.8-0.1
				c0.3,0,0.4-0.2,0.4-0.4c0-0.3-0.2-0.4-0.6-0.4c-0.5,0-1.5,0-2.2,0.1c-0.2,0-0.4,0-0.4,0c0,0-0.1,0-0.3,0c-0.5,0-1.6-0.1-2.4-0.1
				c-0.4,0-0.6,0.1-0.6,0.4c0,0.2,0.2,0.4,0.4,0.4c0.2,0,0.6,0,0.8,0.1c0.6,0.1,0.8,0.4,0.8,1.1c0,0.8,0,1.4,0,5.2v4.2
				c0,2.2,0,4.2-0.1,5.2c-0.1,0.7-0.2,1-0.5,1.1c-0.3,0.1-0.5,0.1-0.7,0.1c-0.3,0-0.4,0.2-0.4,0.4c0,0.3,0.2,0.4,0.6,0.4
				c0.5,0,0.9,0,1.3,0c1.6-0.1,3.1,0,4.5,0c1,0,2,0.1,3,0.1c1.3,0,1.5-0.1,1.8-0.8c0.2-0.7,0.4-2.2,0.4-2.5
				C80.5,134.6,80.5,134.1,80.1,134.1z"/>
			<path class="st0" d="M97.5,119.3c-0.3,0-1.1,0-1.7,0.1c-0.3,0-0.6,0-0.6,0c-0.1,0-0.2,0-0.4,0c-0.3,0-0.8-0.1-1.2-0.1
				c-0.6,0-0.6,0.2-0.6,0.4c0,0.3,0.3,0.4,0.5,0.5c0.1,0,0.2,0,0.2,0.4c0,0.3-0.1,0.7-0.4,1.1c-0.4,0.7-3,5.1-3.8,6.7
				c-0.9-1.6-3.8-6.6-4.2-7.2c-0.2-0.3-0.3-0.6-0.3-0.8c0,0,0-0.1,0.2-0.2c0.1,0,0.1,0,0.1-0.1c0.2-0.1,0.4-0.1,0.4-0.4
				c0-0.2-0.1-0.4-0.6-0.4c-0.7,0-1.3,0-1.7,0.1c-0.2,0-0.3,0-0.3,0c0,0-0.3,0-0.6,0c-0.6,0-1.5-0.1-1.8-0.1c-0.4,0-0.6,0.2-0.6,0.4
				c0,0.2,0.2,0.4,0.5,0.4c0.2,0,0.6,0.1,0.9,0.3c0.5,0.3,1.1,1,1.6,1.7c0.9,1.3,4,6.5,4.2,6.9c0.3,0.7,0.5,1.2,0.5,2.4v2.1
				c0,0.4,0,1.4-0.1,2.4c0,0.5-0.2,1-0.5,1.1c-0.3,0.1-0.5,0.1-0.7,0.1c-0.3,0-0.4,0.2-0.4,0.4c0,0.3,0.2,0.4,0.6,0.4
				c0.5,0,1.4,0,2-0.1c0.2,0,0.4,0,0.4,0c0,0,0.1,0,0.3,0c0.5,0,1.7,0.1,2.7,0.1c0.6,0,0.6-0.3,0.6-0.4c0-0.2-0.1-0.4-0.4-0.4
				c-0.2,0-0.7,0-1-0.1c-0.5-0.1-0.7-0.4-0.8-1.1c-0.1-1-0.1-2-0.1-2.4v-2.1c0-0.8,0-1.5,0.3-2.3c0.4-1,3.7-6.6,4.5-7.6
				c0.5-0.7,0.8-0.9,1.2-1.2c0.3-0.2,0.7-0.3,1-0.3c0.4,0,0.6-0.2,0.6-0.4C98,119.6,97.9,119.3,97.5,119.3z"/>
			<path class="st0" d="M115.4,137.1c-0.1,0-0.6,0-1-0.1c-0.5-0.1-0.6-0.3-0.7-1.1c-0.1-1-0.1-2.9-0.1-5.2v-4.2c0-3.7,0-4.4,0-5.2
				c0-0.9,0.3-1.1,0.7-1.1c0.3,0,0.4-0.1,0.5-0.1c0.3,0,0.4-0.2,0.4-0.4c0-0.3-0.2-0.4-0.6-0.4c-0.5,0-1.4,0-2,0.1
				c-0.2,0-0.4,0-0.4,0c0,0-0.2,0-0.4,0c-0.5,0-1.5-0.1-2.1-0.1c-0.4,0-0.6,0.1-0.6,0.4c0,0.2,0.2,0.4,0.4,0.4c0.2,0,0.5,0,0.7,0.1
				c0.3,0.1,0.6,0.3,0.6,1.1c0,0.8,0,1.4,0,5.2v4.2c0,2.2,0,4.2-0.1,5.2c-0.1,0.8-0.3,1.1-0.5,1.1c-0.2,0-0.4,0.1-0.6,0.1
				c-0.5,0-0.5,0.3-0.5,0.4c0,0.3,0.2,0.4,0.6,0.4c0.5,0,1.4,0,2-0.1c0.2,0,0.4,0,0.4,0c0,0,0.1,0,0.3,0c0.5,0,1.7,0.1,2.7,0.1
				c0.6,0,0.6-0.3,0.6-0.4C116,137.5,115.9,137.1,115.4,137.1z"/>
			<path class="st0" d="M138.3,119.3c-0.7,0-1.2,0-1.6,0.1c-0.2,0-0.3,0-0.4,0c-0.1,0-0.3,0-0.5,0c-0.5,0-1.3-0.1-2-0.1
				c-0.2,0-0.7,0-0.7,0.4c0,0.1,0.1,0.4,0.6,0.4c0.1,0,0.5,0,1,0.1c0.5,0.1,0.7,0.5,0.7,2l0.3,11.5c-0.4-0.4-1-1.1-1.7-1.8
				c-1.1-1.2-2.4-2.6-3.7-4c-3.7-4-7.3-7.8-7.6-8.2c-0.1-0.1-0.1-0.1-0.2-0.2c-0.3-0.4-0.6-0.6-0.8-0.6c-0.5,0-0.5,0.7-0.5,1.5
				c0,2.2,0,2.7,0,3.5c0,0.9,0,2.2,0,6.7v3.6c0,2.1-0.1,2.7-0.5,2.8c-0.3,0.1-0.7,0.1-0.9,0.1c-0.3,0-0.4,0.2-0.4,0.4
				c0,0.4,0.5,0.4,0.6,0.4c0.8,0,1.5,0,1.9-0.1c0.2,0,0.3,0,0.4,0c0.1,0,0.2,0,0.3,0c0.5,0,1.2,0.1,2.2,0.1c0.5,0,0.7-0.1,0.7-0.4
				c0-0.2-0.1-0.4-0.4-0.4c-0.2,0-0.7,0-1.1-0.1c-0.5-0.1-0.7-0.6-0.8-2.6l-0.3-10.8c1.1,1.3,3.5,3.9,5.8,6.4c2.6,2.8,6,6.3,6.3,6.5
				c1.4,1.4,1.6,1.6,1.9,1.6c0.5,0,0.5-0.4,0.5-2l0-14c0-1.7,0.2-1.8,0.6-1.9c0.3,0,0.4-0.1,0.6-0.1c0.4-0.1,0.5-0.3,0.5-0.4
				C139,119.3,138.5,119.3,138.3,119.3z"/>
			<path class="st0" d="M159.9,119.3c-0.5,0-1.1,0-1.5,0.1c-0.2,0-0.3,0-0.3,0c-0.1,0-0.3,0-0.6,0c-0.5,0-1.2-0.1-1.8-0.1
				c-0.3,0-0.8,0-0.8,0.4c0,0.1,0.1,0.4,0.5,0.4c0.2,0,0.6,0,0.8,0.1c0.2,0.1,0.2,0.2,0.2,0.3c0,0.2-0.1,0.6-0.2,0.8
				c-0.5,1.6-3.4,9.1-4.9,12.7l-4.7-12.2c-0.3-0.8-0.5-1.3-0.5-1.4c0-0.1,0-0.2,0.2-0.3c0.1-0.1,0.5-0.1,0.8-0.1
				c0.5,0,0.5-0.3,0.5-0.4c0-0.4-0.6-0.4-0.9-0.4c-0.6,0-1.3,0-1.7,0.1c-0.2,0-0.4,0-0.5,0c-0.1,0-0.3,0-0.6,0
				c-0.6,0-1.4-0.1-2.2-0.1c-0.3,0-0.9,0-0.9,0.4c0,0.3,0.2,0.4,0.4,0.4c0.1,0,0.5,0,0.8,0.1c0.7,0.2,1.1,0.4,1.6,1.7l5.9,14.7
				l0.1,0.1c0.5,1.2,0.6,1.5,1,1.5c0.3,0,0.5-0.3,0.8-1.1c0.1-0.2,0.2-0.5,0.4-0.9c0.5-1.1,1.5-3.5,2.9-6.8l0.9-2.2
				c0.9-2.3,1.8-4.2,2-4.8c0.6-1.6,1-2,1.2-2.1c0.4-0.2,0.9-0.2,1-0.2c0.5,0,0.5-0.3,0.5-0.4C160.6,119.6,160.5,119.3,159.9,119.3z"
				/>
			<path class="st0" d="M173.5,134.2c-0.4,0-0.4,0.4-0.5,0.6c-0.2,1-0.4,1.4-1,1.6c-0.6,0.2-1.4,0.2-2.1,0.2c-1,0-1.6-0.1-1.9-0.2
				c-0.4-0.2-0.6-0.5-0.6-1.5c0-0.4,0-1.9,0-3l0-3.1c0.6,0,2.7,0.1,3.3,0.1c0.9,0.1,1,0.5,1,0.6c0.1,0.2,0.1,0.4,0.1,0.6
				c0,0.5,0.2,0.6,0.4,0.6c0.4,0,0.4-0.4,0.4-0.6c0-0.1,0-0.2,0-0.4c0-0.3,0-0.7,0.1-1.2c0-0.5,0.1-0.8,0.1-1c0-0.2,0-0.3,0-0.3
				c0-0.3-0.2-0.4-0.4-0.4c-0.2,0-0.3,0.1-0.5,0.3c-0.2,0.2-0.4,0.3-1,0.3c-0.4,0-2.1,0-3.7,0v-6.6c0.6,0,2.8,0,3.2,0.1
				c1.1,0.1,1.4,0.4,1.5,0.7c0.1,0.2,0.1,0.4,0.1,0.7c0,0.5,0.3,0.6,0.4,0.6c0.1,0,0.4-0.1,0.4-0.6c0-0.5,0.1-0.8,0.1-1.1l0-0.3
				c0-0.4,0.1-0.7,0.1-0.8c0-0.1,0.1-0.2,0.1-0.3c0-0.4-0.3-0.5-0.3-0.5c-0.1,0-0.2,0-0.4,0.1c0,0-0.2,0.1-1,0.1c-0.5,0-5.3,0-5.5,0
				c-1.5-0.1-2.2-0.1-2.7-0.1c-0.4,0-0.6,0.1-0.6,0.4c0,0.3,0.3,0.4,0.5,0.4c0.1,0,0.2,0,0.3,0c0.1,0,0.3,0,0.4,0
				c0.6,0.1,0.8,0.4,0.8,1.1c0,0.8,0,1.4,0,5.2v4.2c0,2.1,0,3.3,0,4.3c0,1.9-0.4,2-0.7,2c-0.1,0-0.2,0-0.3,0l-0.2,0
				c-0.4,0.1-0.5,0.3-0.5,0.4c0,0.3,0.2,0.4,0.6,0.4c0,0,0,0,0,0c0.4,0,0.7,0,1,0c0.3,0,0.5,0,0.7,0c0.6,0,1.4,0,2.1,0l0.9,0
				c0.3,0,0.5,0,0.7,0c0.7,0,1.5,0,2.8,0c0.9,0,1.3,0,1.5-0.8c0.1-0.5,0.3-2.2,0.3-2.4C173.9,134.7,173.9,134.2,173.5,134.2z"/>
			<path class="st0" d="M184.4,127.2l-0.7-0.5c-2.2-1.7-2.8-2.6-2.8-3.8c0-1.5,1.1-2.5,2.7-2.5c2,0,2.6,0.8,2.8,1.1
				c0.1,0.2,0.3,0.8,0.3,1.1c0,0.2,0.1,0.5,0.4,0.5c0.4,0,0.4-0.5,0.4-0.8c0-1.3,0.1-2,0.1-2.4c0-0.1,0-0.2,0-0.2
				c0-0.2-0.1-0.4-0.5-0.4c-0.2,0-0.3,0-0.8-0.1c-0.7-0.2-1.4-0.2-2.3-0.2c-3.1,0-5.2,1.8-5.2,4.6c0,1.7,0.5,3.2,3.2,5.4l1.1,0.9
				c2.1,1.7,2.7,2.6,2.7,4.1c0,1.5-1.1,2.9-3.2,2.9c-0.9,0-2.9-0.2-3.3-2.2c-0.1-0.3-0.1-0.6-0.1-0.8c0-0.1,0-0.5-0.4-0.5
				c-0.4,0-0.4,0.4-0.4,0.6l0,0.3c0,0.5-0.1,1.3-0.1,2.3c0,0.7,0,0.9,0.5,1.1c0.9,0.5,2,0.7,3.3,0.7c1.5,0,2.8-0.4,3.8-1.1
				c1.6-1.1,2.1-2.9,2.1-4.2C188,131.2,187.4,129.6,184.4,127.2z"/>
			<path class="st0" d="M206.5,119.2c-0.1,0-0.1,0-0.3,0c-0.1,0-0.3,0.1-0.5,0.1c-0.4,0.1-1,0.1-1.7,0.1h-9c-0.3,0-1.2,0-1.9-0.1
				c-0.4,0-0.6-0.1-0.7-0.2c-0.1-0.1-0.2-0.1-0.3-0.1c-0.3,0-0.4,0.3-0.5,0.6c0,0-0.5,2.3-0.5,2.6c0,0.3,0.2,0.5,0.4,0.5
				c0.3,0,0.4-0.3,0.5-0.4c0.1-0.2,0.1-0.3,0.4-0.7c0.3-0.5,0.8-0.6,2.2-0.7c0.6,0,1.2,0,1.8,0c0.5,0,1,0,1.5,0v9.9
				c0,2.2,0,4.2-0.1,5.2c-0.1,0.7-0.2,1-0.5,1.1c-0.3,0.1-0.5,0.1-0.7,0.1c-0.3,0-0.4,0.2-0.4,0.4c0,0.3,0.2,0.4,0.6,0.4
				c0.5,0,1.4,0,2-0.1c0.2,0,0.4,0,0.4,0c0,0,0.1,0,0.3,0c0.5,0,1.7,0.1,2.7,0.1c0.6,0,0.6-0.3,0.6-0.4c0-0.2-0.1-0.4-0.4-0.4
				c-0.2,0-0.7,0-1-0.1c-0.5-0.1-0.6-0.3-0.7-1.1c-0.1-1-0.1-2.9-0.1-5.2v-9.9c0.4,0,0.8,0,1.3,0c0.5,0,1,0,1.5,0
				c2.6,0.1,2.7,0.8,2.7,1.1c0,0.1,0,0.1,0,0.2c0,0,0,0.1,0,0.1c0,0.2,0,0.6,0.4,0.6c0.2,0,0.4-0.1,0.4-0.6c0-0.1,0-0.4,0-0.8
				c0-0.6,0-1.4,0-1.9C206.9,119.6,206.9,119.2,206.5,119.2z"/>
			<path class="st0" d="M232.1,137.1c-0.2,0-0.8,0-1.4-0.2c-0.8-0.3-1-1.3-1.1-2.3l-1.6-14.7c0-0.3-0.1-0.9-0.5-0.9
				c-0.4,0-0.5,0.3-0.6,0.5l-6.8,14.6l-7.1-14.6c-0.1-0.3-0.3-0.5-0.6-0.5c-0.3,0-0.5,0.3-0.5,0.7l-1.7,15.6l0,0.2
				c-0.1,0.9-0.2,1.5-0.7,1.6c-0.3,0.1-0.5,0.1-0.7,0.1c-0.3,0-0.5,0.2-0.5,0.4c0,0.4,0.5,0.4,0.7,0.4c0.4,0,1,0,1.5-0.1
				c0.3,0,0.5,0,0.5,0c0.1,0,0.2,0,0.4,0c0.5,0,1.3,0.1,1.9,0.1c0.5,0,0.6-0.3,0.6-0.5c0-0.2-0.2-0.4-0.5-0.4c-0.1,0-0.4,0-0.8-0.1
				c-0.3-0.1-0.4-0.2-0.4-0.6c0-0.4,0-0.7,0-1l0.9-10.5c0.8,1.8,2.7,5.8,2.9,6.1l0.1,0.2c1.8,3.6,2.5,4.9,2.7,5.4l0,0.1
				c0.5,0.9,0.6,1.1,0.9,1.1c0.3,0,0.5-0.2,0.9-1.1l5.7-12.1l1.1,11.6c0,0.1,0.1,0.5,0.1,0.6c-0.1,0-0.3,0.1-0.3,0.4
				c0,0.4,0.5,0.5,0.9,0.5c0.9,0.1,3.7,0.1,4.2,0.1c0.2,0,0.6,0,0.6-0.4C232.6,137.5,232.6,137.1,232.1,137.1z"/>
			<path class="st0" d="M245.7,134.2c-0.4,0-0.4,0.4-0.5,0.6c-0.2,1-0.4,1.4-1,1.6c-0.6,0.2-1.4,0.2-2.1,0.2c-1,0-1.6-0.1-1.9-0.2
				c-0.4-0.2-0.6-0.5-0.6-1.5c0-0.4,0-1.9,0-3l0-3.1c0.6,0,2.7,0.1,3.3,0.1c0.9,0.1,1,0.5,1,0.6c0.1,0.2,0.1,0.4,0.1,0.6
				c0,0.5,0.2,0.6,0.4,0.6c0.4,0,0.4-0.4,0.4-0.6c0-0.1,0-0.2,0-0.4c0-0.3,0-0.7,0.1-1.2c0-0.5,0.1-0.8,0.1-1c0-0.2,0-0.3,0-0.3
				c0-0.3-0.2-0.4-0.4-0.4c-0.2,0-0.3,0.1-0.5,0.3c-0.2,0.2-0.4,0.3-1,0.3c-0.4,0-2.1,0-3.7,0v-6.6c0.6,0,2.8,0,3.2,0.1
				c1.1,0.1,1.4,0.4,1.5,0.7c0.1,0.2,0.1,0.4,0.1,0.7c0,0.5,0.3,0.6,0.4,0.6c0.1,0,0.4-0.1,0.4-0.6c0-0.5,0.1-0.8,0.1-1.1l0-0.3
				c0-0.4,0.1-0.7,0.1-0.8c0-0.1,0.1-0.2,0.1-0.3c0-0.4-0.3-0.5-0.3-0.5c-0.1,0-0.2,0-0.4,0.1c0,0-0.2,0.1-1,0.1c-0.5,0-5.3,0-5.5,0
				c-1.5-0.1-2.2-0.1-2.7-0.1c-0.4,0-0.6,0.1-0.6,0.4c0,0.3,0.3,0.4,0.5,0.4c0.1,0,0.2,0,0.3,0c0.1,0,0.3,0,0.4,0
				c0.6,0.1,0.8,0.4,0.8,1.1c0,0.8,0,1.4,0,5.2v4.2c0,2.1,0,3.3,0,4.3c0,1.9-0.4,2-0.7,2c-0.1,0-0.2,0-0.3,0l-0.2,0
				c-0.4,0.1-0.5,0.3-0.5,0.4c0,0.3,0.2,0.4,0.6,0.4c0.4,0,0.7,0,1,0c0.2,0,0.5,0,0.7,0c0.6,0,1.4,0,2.1,0l0.9,0c0.3,0,0.5,0,0.7,0
				c0.7,0,1.5,0,2.8,0c0.9,0,1.3,0,1.5-0.8c0.1-0.5,0.3-2.2,0.3-2.4C246.1,134.7,246.1,134.2,245.7,134.2z"/>
			<path class="st0" d="M268.9,119.3c-0.7,0-1.2,0-1.6,0.1c-0.2,0-0.3,0-0.4,0c-0.1,0-0.3,0-0.5,0c-0.5,0-1.3-0.1-2-0.1
				c-0.2,0-0.7,0-0.7,0.4c0,0.1,0.1,0.4,0.6,0.4c0.1,0,0.5,0,1,0.1c0.5,0.1,0.7,0.5,0.7,2l0.3,11.5c-0.4-0.4-1-1.1-1.7-1.8
				c-1.1-1.2-2.4-2.6-3.7-4c-3.7-4-7.3-7.8-7.6-8.2c-0.1-0.1-0.1-0.1-0.2-0.2c-0.3-0.4-0.6-0.6-0.8-0.6c-0.5,0-0.5,0.7-0.5,1.5
				c0,2.2,0,2.7,0,3.5c0,0.9,0,2.2,0,6.7v3.6c0,2.1-0.1,2.7-0.5,2.8c-0.3,0.1-0.7,0.1-0.9,0.1c-0.3,0-0.4,0.2-0.4,0.4
				c0,0.4,0.5,0.4,0.6,0.4c0.8,0,1.5,0,1.9-0.1c0.2,0,0.3,0,0.4,0c0.1,0,0.2,0,0.3,0c0.5,0,1.2,0.1,2.2,0.1c0.5,0,0.7-0.1,0.7-0.4
				c0-0.2-0.1-0.4-0.4-0.4c-0.2,0-0.7,0-1.1-0.1c-0.5-0.1-0.7-0.6-0.8-2.6l-0.3-10.8c1.1,1.2,3.4,3.8,5.8,6.4c2.6,2.8,6,6.3,6.3,6.5
				c1.4,1.4,1.6,1.6,1.9,1.6c0.5,0,0.5-0.4,0.5-2l0-14c0-1.7,0.2-1.8,0.6-1.9c0.3,0,0.4-0.1,0.6-0.1c0.4-0.1,0.5-0.3,0.5-0.4
				C269.6,119.3,269.1,119.3,268.9,119.3z"/>
			<path class="st0" d="M287.6,119.2c-0.1,0-0.1,0-0.3,0c-0.1,0-0.3,0.1-0.5,0.1c-0.4,0.1-1,0.1-1.7,0.1h-9c-0.3,0-1.2,0-1.9-0.1
				c-0.4,0-0.6-0.1-0.7-0.2c-0.1-0.1-0.2-0.1-0.3-0.1c-0.3,0-0.4,0.3-0.5,0.6c0,0-0.5,2.3-0.5,2.6c0,0.3,0.2,0.5,0.4,0.5
				c0.3,0,0.4-0.3,0.5-0.4c0.1-0.2,0.1-0.3,0.4-0.7c0.3-0.5,0.8-0.6,2.2-0.7c0.6,0,1.2,0,1.8,0c0.5,0,1,0,1.5,0v9.9
				c0,2.2,0,4.2-0.1,5.2c-0.1,0.7-0.2,1-0.5,1.1c-0.3,0.1-0.5,0.1-0.7,0.1c-0.3,0-0.4,0.2-0.4,0.4c0,0.3,0.2,0.4,0.6,0.4
				c0.5,0,1.4,0,2-0.1c0.2,0,0.4,0,0.4,0c0,0,0.1,0,0.3,0c0.5,0,1.7,0.1,2.7,0.1c0.6,0,0.6-0.3,0.6-0.4c0-0.2-0.1-0.4-0.4-0.4
				c-0.2,0-0.7,0-1-0.1c-0.5-0.1-0.6-0.3-0.7-1.1c-0.1-1-0.1-2.9-0.1-5.2v-9.9c0.4,0,0.8,0,1.3,0c0.5,0,1,0,1.5,0
				c2.6,0.1,2.7,0.8,2.7,1.1c0,0.1,0,0.1,0,0.2c0,0,0,0.1,0,0.1c0,0.2,0,0.6,0.4,0.6c0.2,0,0.4-0.1,0.4-0.6c0-0.1,0-0.4,0-0.8
				c0-0.6,0-1.4,0-1.9C287.9,119.6,287.9,119.2,287.6,119.2z"/>
			<path class="st0" d="M297,127.2l-0.7-0.5c-2.2-1.7-2.8-2.6-2.8-3.8c0-1.5,1.1-2.5,2.7-2.5c2,0,2.6,0.8,2.8,1.1
				c0.1,0.2,0.3,0.8,0.3,1.1c0,0.2,0.1,0.5,0.4,0.5c0.4,0,0.4-0.5,0.4-0.8c0-1.3,0.1-2,0.1-2.4c0-0.1,0-0.2,0-0.2
				c0-0.2-0.1-0.4-0.5-0.4c-0.2,0-0.3,0-0.8-0.1c-0.7-0.2-1.4-0.2-2.3-0.2c-3.1,0-5.2,1.8-5.2,4.6c0,1.7,0.5,3.2,3.2,5.4l1.1,0.9
				c2.1,1.7,2.7,2.6,2.7,4.1c0,1.5-1.1,2.9-3.2,2.9c-0.9,0-2.9-0.2-3.3-2.2c-0.1-0.3-0.1-0.6-0.1-0.8c0-0.1,0-0.5-0.4-0.5
				c-0.4,0-0.4,0.4-0.4,0.6l0,0.3c0,0.5-0.1,1.3-0.1,2.3c0,0.7,0,0.9,0.5,1.1c0.9,0.5,2,0.7,3.3,0.7c1.5,0,2.8-0.4,3.8-1.1
				c1.6-1.1,2.1-2.9,2.1-4.2C300.6,131.2,300,129.6,297,127.2z"/>
		</g>
		<g>
			<g>
				<g>
					<path class="st0" d="M160.2,0.6c0.2,0.9-0.1,1.6-0.4,2.4c0.6-0.2,1-0.6,1.6-0.9l0.3-0.1c0.2,0.6-0.1,1.3-0.2,1.9
						c-0.3,1.1-1.1,2.1-2,2.9c0.1-0.5,0.4-1.1,0.2-1.7c-4.1,2.5-8.2,6-11.7,9.5c-0.2,0.1-0.3,0.3-0.6,0.3v-0.2
						c3.6-4,7.9-7.9,12.1-11.3c-0.3-0.3-0.1-0.9-0.3-1.2l-0.2-0.1c-3.1,2.3-6.2,4.7-8.9,7.6c-2.4,2.4-4.8,5.1-6.8,7.6
						c-0.5,0.7-1,1.4-1.3,2.3c-0.1,0.1-0.2,0-0.3-0.1c1.3-2.8,3.4-5.3,5.5-7.8c3.8-4.3,7.8-8.5,12.3-11.5C160,0,160.1,0.4,160.2,0.6
						"/>
					<path class="st0" d="M170.1,3.1c-0.7,2.1-2.1,4.2-4.2,5.3c-1.4,0.6-2.9,1.2-4.5,1.3c0-0.3,0.3-0.2,0.5-0.3
						c3.2-1.1,7.1-3.6,8.1-7.2h-0.2C161.3,8,152.9,14,146.1,22.2h-0.2l0.2-0.5c3.8-5.7,9.1-11,14.8-14.8l7.5-4.8l1.8-0.9l0.2-0.2
						C170.6,1.7,170.1,2.4,170.1,3.1"/>
					<path class="st0" d="M169.1,7.9c-1.2,1.6-2.8,2.8-4.8,3.1c-1,0.3-2.1,0.5-3.2,0.6l-0.1-0.3c3.7-1,8.1-2.8,9.4-6.9
						C170.5,5.8,169.6,6.8,169.1,7.9"/>
					<path class="st0" d="M168.8,9.3c0.1,2-1.2,4.1-3.2,4.9c-1.6,0.5-3.4,1-5.3,0.6c0.1-0.3,0.6-0.2,0.8-0.4c3-0.5,6.5-2,7.6-5.2
						H168.8"/>
					<path class="st0" d="M158.7,11.5c-0.6,3.3-3.1,6.4-6.1,8.1c-0.3,0.2-0.6,0.2-0.9,0.2c-0.1-0.3,0.5-0.5,0.7-0.7
						c2.4-1.8,4.6-4.3,6-6.8C158.4,11.9,158.4,11.5,158.7,11.5"/>
					<path class="st0" d="M167.1,14.6c-0.5,1.6-2,3.1-3.7,3.4c-1.2,0.4-2.8,0.3-4-0.1v-0.1C162.3,17.5,165.2,16.8,167.1,14.6
						L167.1,14.6"/>
					<path class="st0" d="M158.5,17.4c-0.3,1-0.9,1.8-1.7,2.6c-1.5,1.5-3.3,2.7-5.5,2.6c-0.1,0,0-0.1-0.1-0.2c2.9-0.9,5.4-3.2,7-5.8
						l0-0.1l0.2-0.2C158.7,16.6,158.4,17,158.5,17.4"/>
					<path class="st0" d="M164.7,18.1c0.1,0.8-0.3,1.5-0.9,1.9c-1.5,1-3.5,1.1-5.4,1.1V21c2.3-0.4,4.7-1,6.1-2.9H164.7"/>
					<path class="st0" d="M144.7,21.3c0.5,0.9,0.3,2,0.5,3c-0.1,2.8-0.3,5.4,0,8.1c0.1,0.2,0.2,0.4,0.4,0.6c0.6,0.3,0.7-0.6,1-0.9
						c0.9-2.3,0.8-5.6-0.7-7.6v-0.2l0.2,0.1c1.2,1.5,1.4,3.4,1.8,5.3c0.2,1.6,0,3.3-1.2,4.4c-0.9,0.9-2.4,0.9-3.5,0.8
						c0.1-0.3,0.5-0.2,0.8-0.3c0.8-0.1,1.4-0.6,1.9-1.2c-0.2,0-0.3-0.2-0.4-0.3c-1.4-3-0.9-6.3-1.2-9.8c-0.2-0.8-0.6-1.7-1.4-2.1
						c-2.2-0.8-4.7,0-6.7,0.9c0-0.7,0.9-1,1.5-1.3C139.7,20,143.1,19.1,144.7,21.3"/>
					<path class="st0" d="M162.1,21.4c-0.1,0.8-0.8,1.7-1.6,1.9c-1,0.3-2.4,0.5-3.4,0.1l-0.1-0.3c1.8,0,3.5-0.5,4.8-1.7H162.1"/>
					<path class="st0" d="M141.9,22.2c-0.7,0.5-1.7,0.5-2.5,0.8c0,0.2,0.1,0.6,0.1,0.8c0.3,0.2,0.6-0.1,0.9,0
						c-0.4,0.4-1,0.6-1.5,0.5c-0.4-0.1-0.7-0.6-1.3-0.5c-0.1-0.1-0.2-0.2-0.1-0.4c0.3-0.3,0.8,0.1,0.9-0.4c-0.2-0.2-0.7,0-0.9-0.1
						c0-0.3,0.3-0.5,0.6-0.6c1.3,0,2.6-0.1,3.8-0.6C142.1,21.9,141.8,22.1,141.9,22.2"/>
					<path class="st0" d="M136.2,22.6v0.1c-0.5,0-1.2-0.2-1.7,0c-0.5,0.2-1,0.4-1.3,0.9c-0.2,0.6-0.1,1.2,0.3,1.7
						c0.2-0.4,0.6-0.8,1.1-0.8c0.9,0.2,1.8,0.8,2.3,1.6c-0.9,0-1.7-1.2-2.8-0.9c-0.2,0.2-0.6,0.3-0.6,0.6c-0.7-0.7-1.3-1.7-1-2.7
						C133.3,21.7,135.1,22.1,136.2,22.6"/>
					<path class="st0" d="M136.8,25.3c-0.1,0.1,0,0.3-0.2,0.2c-0.3-0.8-1.1-1-1.8-1.2c-0.5-0.1-0.8-0.1-1.2,0.2
						c-0.1,0,0-0.2-0.1-0.2c0.7-0.6,1.7-0.2,2.4,0.1C136.4,24.6,136.8,24.9,136.8,25.3"/>
					<path class="st0" d="M160.8,24.4c-0.3,0.8-1.1,1.5-2,1.6c-0.7-0.1-1.7,0.1-2.1-0.6l0.1-0.1c1.4,0.1,2.8-0.2,3.9-1.2L160.8,24.4
						"/>
					<path class="st0" d="M135.2,32.3L135.2,32.3c0.3-0.2,0.5-0.5,0.7-0.6c0.1,0.1-0.1,0.2-0.1,0.3c-0.2,0.2-0.1,0.5-0.1,0.8
						c0.1,0.1,0.3,0.4,0.6,0.3c-0.1,0.3-0.5,0.5-0.8,0.4c-0.2-0.2-0.3-0.4-0.4-0.6c-0.5,0.8-0.6,1.6-0.9,2.4
						c-0.8,3.6,1.1,6.8,2.6,9.8c0.4,1.2,0.8,2.3,0.4,3.6l-0.1,0.1c0.2-0.8-0.1-1.7-0.4-2.5c-1.1-2.4-2.4-4.7-3.6-7
						c-0.8-2.1-0.7-4.8,0.6-6.6c0.8-1.6,1.8-3.1,1.6-5.1c0.1-0.5-0.2-1,0.1-1.4C136,28,135.9,30.5,135.2,32.3"/>
					<path class="st0" d="M160.3,26.7c-0.2,0.8-1.2,1.5-2,1.8c-0.8,0.1-1.6,0.1-2.1-0.5c-0.2-0.1-0.2-0.3-0.3-0.5
						c1,0,1.6,0.3,2.7,0.1c0.5-0.1,1.1-0.4,1.3-0.9L160.3,26.7"/>
					<path class="st0" d="M152.8,27.6c-0.2,0.5-0.9,0.7-1.4,0.9c-0.3,0-0.6,0.1-0.8-0.1c0.6-0.4,1.7-0.6,1.9-1.6l0.1-0.1
						C152.8,27,152.8,27.4,152.8,27.6"/>
					<path class="st0" d="M153.5,29.5c-0.2,0.4-0.7,0.6-1.2,0.6c-0.4,0-0.8-0.2-1.2-0.2c0.1-0.2,0.3-0.1,0.6-0.1
						c0.4-0.1,0.8-0.1,1.1-0.4l0.4-0.8C153.6,28.8,153.6,29.2,153.5,29.5"/>
					<path class="st0" d="M159.5,30.1c-0.6,0.9-1.6,1.1-2.6,1.2c-0.6-0.1-1.3-0.4-1.4-1.1c0.3-0.2,0.4,0.1,0.6,0.1
						c1.2,0,2.5-0.1,3.4-1C159.9,29.5,159.5,29.8,159.5,30.1"/>
					<path class="st0" d="M154,31.8c0,0.4-0.1,0.7-0.6,0.7c-0.8-0.1-1.5-0.2-2.1-0.7c0.6,0,1.2,0.4,1.9,0.1c0.4-0.1,0.4-0.7,0.2-0.9
						l-0.2-0.3C153.8,30.8,153.9,31.3,154,31.8"/>
					<path class="st0" d="M138.9,31.4c-0.1,0.6,0.3,1,0.6,1.3l0.5,0.1c-0.3,0.2-0.7,0.3-1,0.1c-0.3,0-0.4-0.3-0.5-0.5
						c-0.1-0.4,0.2-0.7,0.3-1.1H138.9"/>
					<path class="st0" d="M137.1,32.2c0.1,0.3,0.2,0.6,0.5,0.7c0.2,0,0.4,0.1,0.6,0.1c-0.3,0.3-0.8,0.3-1.2,0.3
						c-0.2-0.2-0.5-0.3-0.5-0.6C136.4,32.3,137.3,30.8,137.1,32.2"/>
					<path class="st0" d="M159.1,32c0,0.7-0.5,1.4-1.1,1.7c-0.8,0.3-1.9,0.2-2.5-0.4v-0.1c0.5,0,1,0.2,1.5,0.1
						c0.7-0.1,1.3-0.5,1.6-1.2C158.7,31.6,159.2,31.5,159.1,32"/>
					<path class="st0" d="M154.5,32.8c0.1,0.7,0.2,1.4-0.5,1.7c-0.7,0.3-1.6,0.1-2.2-0.3l-0.1-0.2c0.6,0.2,1.6,0.4,2.3-0.1
						c0.2-0.3,0.4-0.6,0.4-0.9C154.3,32.9,154.4,32.8,154.5,32.8"/>
					<path class="st0" d="M135.3,33.9c0,0.4-0.1,1.1,0.5,1.3l0.4,0c-0.3,0.5-0.7,0.4-1.2,0.4c-0.4-0.2-0.4-0.6-0.3-1
						C134.9,34.4,135,34,135.3,33.9"/>
					<path class="st0" d="M137,34c-0.1,0.4-0.1,1.1,0.5,1.3l0.8-0.1c0,0.2-0.3,0.4-0.5,0.4c-0.4,0.1-0.8,0-1.1-0.3
						c-0.3-0.5,0-1.1,0.2-1.5L137,34"/>
					<path class="st0" d="M139.1,34.7c0.2,0.3,0.5,0.5,0.9,0.3c0.1-0.1,0.2-0.3,0.3-0.2c-0.1,0.4-0.6,0.7-1,0.8
						c-0.2,0-0.5-0.1-0.5-0.4c-0.2-0.4-0.1-0.9,0-1.3C139,34,138.9,34.5,139.1,34.7"/>
					<path class="st0" d="M159.1,34.1c0.1,0.7-0.6,1.3-1.1,1.6c-0.4,0.3-1.1,0.3-1.6,0.2c-0.4-0.2-0.9-0.5-1.1-0.9
						c0.9,0.6,2.1,0.2,3-0.2C158.6,34.5,158.9,34.1,159.1,34.1"/>
					<path class="st0" d="M154.4,35.5c-0.3,0.5-0.8,1-1.4,1.2c-0.9,0.1-2-0.2-2.5-0.9c0.9,0.5,2.2,0.5,3,0
						C153.8,35.6,154.2,35,154.4,35.5"/>
					<path class="st0" d="M140.3,37.4c0.2-0.1,0.5,0,0.8-0.1c0,0.4-0.5,0.4-0.6,0.7c-0.3,0.2-0.7-0.1-0.8-0.4
						c-0.1-0.3-0.3-0.7-0.1-1.1c0.4-0.3,0.2,0.5,0.5,0.7L140.3,37.4"/>
					<path class="st0" d="M138,37.4c0.3,0.2,0.6,0.6,1,0.4c0-0.1,0.2-0.2,0.3-0.1c-0.1,0.3-0.3,0.6-0.6,0.6
						c-0.5,0.2-0.9-0.1-1.1-0.5c-0.1-0.3-0.2-0.8,0.1-1.1C137.9,36.8,137.9,37.2,138,37.4"/>
					<path class="st0" d="M134.9,37.6c0.2,0.3,0.4,0.5,0.8,0.6c-0.2,0.1-0.5,0.2-0.8,0.1c-0.3-0.2-0.4-0.6-0.5-0.9l0.2-0.7
						C134.9,36.7,134.7,37.4,134.9,37.6"/>
					<path class="st0" d="M158.7,36.9c-0.1,0.6-0.4,1.3-1,1.6c-0.7,0.2-1.7,0.5-2.3-0.1c-0.1-0.3-0.4-0.6-0.1-0.9
						c0.3,0,0.4,0.2,0.6,0.4c0.6,0.3,1.5,0.3,2.1-0.1C158.2,37.5,158.5,37.1,158.7,36.9"/>
					<path class="st0" d="M136.2,37.4c0.2,0.3,0.5,0.4,0.8,0.6l0.6,0.1c-0.1,0.2-0.2,0.5-0.5,0.6c-0.5,0.1-0.9-0.1-1.3-0.5
						c-0.1-0.4-0.3-1,0.1-1.2C136.3,36.8,136,37.3,136.2,37.4"/>
					<path class="st0" d="M149.9,37.7c1.1,0.5,2.5,0.3,3.4-0.4c0.1-0.1,0.3,0.1,0.3,0.2c-0.3,0.4-0.7,1.1-1.3,1.2
						c-1.2,0.2-2.3-0.5-3-1.4C149.5,37.3,149.7,37.5,149.9,37.7"/>
					<path class="st0" d="M150.2,39.8c0.6-0.1,1.1-0.2,1.6-0.5c0.1,0,0.1,0,0.2,0.1c-0.3,0.6-0.8,1-1.5,1.1
						c-1.1-0.1-2.1-0.8-2.6-1.8l0.1-0.1C148.4,39.4,149.4,39.6,150.2,39.8"/>
					<path class="st0" d="M141,39.2c0.2,0.4,0.6,0.6,1,0.7l0.5-0.3c0.2,0.2-0.1,0.4-0.2,0.6c-0.2,0.2-0.6,0.3-0.9,0.1
						c-0.4-0.3-0.7-0.7-0.8-1.2c0.1-0.1,0-0.4,0.2-0.4L141,39.2"/>
					<path class="st0" d="M139.5,40L139.5,40c0.2,0.1,0.4,0.1,0.6,0c0.1-0.1,0.2-0.2,0.3-0.3h0.1c0.1,0.2-0.1,0.5-0.2,0.7
						c-0.2,0.3-0.6,0.2-0.9,0.1c-0.4-0.3-0.7-0.7-0.7-1.2c0.1-0.2,0.2-0.2,0.4-0.1C139,39.7,139.4,39.7,139.5,40"/>
					<path class="st0" d="M137.5,40.1c0.3,0.5,0.9,0.2,1.3,0.3c-0.1,0.3-0.4,0.5-0.6,0.6c-0.5,0-0.8-0.3-1.1-0.7
						c-0.1-0.3-0.2-0.7-0.1-0.9C137.2,39.4,137.2,39.9,137.5,40.1"/>
					<path class="st0" d="M148.7,41.5c0.4,0,0.9,0,1.2-0.3c0.2,0.1,0.1,0.3,0.1,0.5c-0.2,0.4-0.6,0.6-1,0.8
						c-1.5-0.1-2.3-1.9-2.7-3.1C146.7,40.3,147.7,41.2,148.7,41.5"/>
					<path class="st0" d="M135.8,40.3c0.3,0.4,0.7,0.7,1.3,0.6c0,0.3-0.3,0.3-0.5,0.4c-0.6,0.3-1-0.2-1.3-0.6
						c-0.2-0.4-0.2-0.8-0.1-1.2C135.6,39.6,135.7,40,135.8,40.3"/>
					<path class="st0" d="M157.9,39.7c-0.2,0.6-0.6,1.3-1.3,1.5c-0.9,0.2-2,0.1-2.6-0.7l-0.2-0.6c0.3-0.1,0.7,0.3,1,0.4
						c1.1,0.2,2.1-0.1,2.9-0.7H157.9"/>
					<path class="st0" d="M143.5,42.1c0.1-0.1,0.2-0.3,0.4-0.2c0,0.1-0.1,0.4-0.3,0.6c-0.2,0.1-0.5,0.2-0.8,0.1
						c-0.5-0.2-0.5-0.7-0.7-1.1l0.1-0.4C142.4,41.5,142.9,42,143.5,42.1"/>
					<path class="st0" d="M140.5,41.8c0.3,0.3,0.6,0.5,1,0.6c0.2-0.1,0.3-0.2,0.5-0.3c0,0.2,0,0.5-0.2,0.6c-0.2,0.2-0.5,0.3-0.8,0.3
						c-0.4-0.2-0.7-0.6-0.9-0.9c0-0.2,0-0.4,0.2-0.4L140.5,41.8"/>
					<path class="st0" d="M153.2,42c0.8,0.4,2,0.7,2.8,0.2c0.1,0.1,0.2-0.2,0.4-0.1c0.1-0.1,0.1-0.2,0.3-0.1
						c-0.3,0.5-0.9,1.1-1.6,1.1c-0.9,0.1-1.7-0.2-2.2-1c-0.1-0.2-0.3-0.3-0.1-0.6C152.9,41.6,153.1,41.9,153.2,42"/>
					<path class="st0" d="M138.7,41.8c0,0.2,0,0.5,0.2,0.7c0.3,0.3,0.6,0.5,1.1,0.4c0-0.1,0.2-0.1,0.2-0.2c0,0.3-0.2,0.5-0.5,0.6
						c-0.4,0.1-0.8,0-1-0.2c-0.3-0.3-0.4-0.7-0.3-1.1C138.5,41.8,138.5,41.7,138.7,41.8"/>
					<path class="st0" d="M136.9,42.6c0.2,0.3,0.5,0.6,0.9,0.7c0.2,0,0.2-0.5,0.5-0.2c0,0.3-0.2,0.5-0.4,0.7c-0.3,0.1-0.7,0-1-0.2
						c-0.4-0.3-0.5-0.7-0.5-1.1c0.1-0.1,0.1-0.4,0.3-0.4L136.9,42.6"/>
					<path class="st0" d="M151.7,43.3c0.6,0.8,1.7,0.5,2.5,0.5c0,0.3-0.4,0.4-0.6,0.6c-0.5,0.2-1.4,0.2-1.9-0.2
						c-0.2-0.4-0.6-0.8-0.4-1.3C151.6,42.8,151.6,43.1,151.7,43.3"/>
					<path class="st0" d="M145,43.8c0.2-0.1,0.3-0.3,0.3-0.5h0.2c0.1,0.4-0.1,0.7-0.2,1c-0.2,0.2-0.5,0.3-0.8,0.2
						c-0.5-0.3-0.9-0.9-0.9-1.5c0.5-0.1,0.6,0.7,1.1,0.8C144.7,43.9,144.9,43.8,145,43.8"/>
					<path class="st0" d="M143.1,44.5c0.2-0.1,0.2-0.5,0.4-0.3c0,0.4-0.2,0.9-0.7,1.1c-0.7,0.1-1-0.8-1.2-1.2
						c-0.1-0.2-0.1-0.5,0.1-0.5C142.1,43.9,142.4,44.6,143.1,44.5"/>
					<path class="st0" d="M140.3,44.7c0.3,0.2,0.5,0.6,0.8,0.4c0.3,0,0.2-0.4,0.4-0.4c0.1,0.3-0.1,0.8-0.4,1c-0.3,0.1-0.6,0-0.9-0.2
						c-0.3-0.3-0.5-0.7-0.4-1.1C140,43.8,140.1,44.5,140.3,44.7"/>
					<path class="st0" d="M138.7,45.4c0.3,0.1,0.3-0.3,0.5-0.3c0.1,0.3-0.1,0.4-0.2,0.6c-0.2,0.3-0.6,0.2-0.8,0.2
						c-0.3-0.3-0.8-0.5-0.8-0.9c0-0.3-0.1-0.6,0.2-0.7C137.9,44.7,138.2,45.3,138.7,45.4"/>
					<path class="st0" d="M157.8,46.3c1.9,1.5,3.7,2.9,5.6,4.5c2.2,1.8,4.4,3.5,6.7,5.1c0.1,0.1,0.1,0.3,0.2,0.4
						c-0.7,0.1-1.3-0.6-1.9-0.8c-3.5-2-6.4-4.6-9.5-7.2c-1.1-1.1-2.3-2.3-3.4-3.6c0-0.1,0-0.2,0.1-0.2
						C156.5,44.9,157,45.8,157.8,46.3"/>
					<path class="st0" d="M145.8,45.7c0.3,0.4,0.7,0.7,1.3,0.5c0.2,0,0-0.3,0.3-0.2c0.2,0.1,0,0.4,0,0.5c-0.2,0.4-0.6,0.5-1,0.4
						c-0.5-0.3-1-0.8-0.9-1.4C145.5,45.3,145.9,45.5,145.8,45.7"/>
					<path class="st0" d="M158.1,51.2c3,0.3,4.9,2.6,7.5,3.9c2.5,1.3,5,2.6,7.8,3.3c0,0.1,0.1,0.1,0.1,0.2c-1.4,0-2.7-0.6-4.1-0.9
						c-2.8-1.1-5.4-2.7-7.9-4.4c-1-0.6-2.4-0.1-3.4-0.9c-1.9-1.3-3.5-3.2-5.2-4.8c-0.5-0.6-1.3-1.1-1.6-1.8l0.2-0.1
						C153.6,47.5,155.7,49.9,158.1,51.2"/>
					<path class="st0" d="M144.8,47l0.4-0.2c0.2,0.2-0.1,0.4-0.2,0.6c-0.2,0.3-0.6,0.3-0.9,0.2c-0.4-0.3-0.8-0.8-0.8-1.3l0.1-0.2
						C143.8,46.4,144.1,47.3,144.8,47"/>
					<path class="st0" d="M142.4,47.5c0.3,0.1,0.6,0,0.9-0.2c0,0.2-0.2,0.4-0.2,0.6c-0.2,0.2-0.6,0.2-0.9,0.1
						c-0.6-0.2-0.9-0.9-0.9-1.5l0.1-0.1C141.5,46.9,141.9,47.3,142.4,47.5"/>
					<path class="st0" d="M137.8,46.5c1.9,2.4,5.3,3.6,6.3,6.6l-0.1,0.1c-1.1-1.9-3.1-2.9-4.8-4.2C138.4,48.4,137.9,47.4,137.8,46.5
						L137.8,46.5"/>
					<path class="st0" d="M140.6,47.5c0.2,0,0.3-0.1,0.4,0c0,0.3-0.3,0.3-0.5,0.4c-0.4,0-0.7-0.3-0.9-0.7c0-0.3-0.1-0.6,0.2-0.6
						C139.9,47,140.3,47.3,140.6,47.5"/>
					<path class="st0" d="M134.1,49.3c-0.3,0.8-1,1.3-1.4,2c-0.3,0.8-1.1,1.9-0.3,2.8c0.3,0.3,0.7,0.5,1.1,0.4
						c-0.3-0.8-0.7-1.9-0.1-2.7c0.4-0.5,1-0.7,1.6-0.5c0.4,0,0.6,0.4,0.9,0.7c0.2,0.4,0,0.8-0.1,1.2c-0.3,0.4-0.7,0.7-1.2,0.6
						c0.4-0.2,0.5-0.7,0.4-1.1c-0.2-0.2-0.4-0.4-0.7-0.2c-0.8,1.2,0.4,2.3,1,3.2c0.2,0.4,0.4,0,0.6,0c0.1-0.3-0.3-0.4-0.4-0.6
						c0.3,0,0.4,0.3,0.6,0.5c0.6-0.2,1.1-0.7,1.7-0.7v0.1c-0.5,0.3-1,0.5-1.4,0.9c2.2,1.9,4.7,3.4,6.8,5.6c0.6,0.9,0.9,2.1,0.4,3.1
						c-0.5,1-1.5,1.4-2.5,1.5c-0.2-0.1-0.4-0.1-0.6-0.2c0.9,0.1,1.7-0.6,2.2-1.3c0.8-2.7-1.6-4.4-3.5-6c-1.1-0.8-2-1.7-3-2.6
						c-0.2,0.1-0.4,0.1-0.4,0.3c1.4,1.4,2.8,2.5,4.4,3.7c1.3,1.1,2.7,2.6,2.1,4.4c-0.4,0.7-1.1,1.1-1.8,1.1c-0.7,0-1.1-0.6-1.3-1.2
						c0-0.3,0-0.6,0.1-0.8c-0.1,0.5,0.3,0.9,0.8,1.2c0.4,0.3,0.8-0.1,1.1-0.3c0.2-0.4,0.4-1,0.2-1.4c-1-2.8-4.1-4.2-6.1-6.2
						c-0.3,0-0.5,0.3-0.7,0.4c0.9,2.4,2.2,4.6,3.5,6.9l-0.1,0.1c-1.4-2.1-2.7-4.4-3.8-6.8c-0.1,0.1-0.3,0.2-0.3,0.3
						c0.9,2.3,2.5,4.4,3.6,6.6h-0.1c-0.9-1.1-1.5-2.3-2.2-3.5c-0.6-0.9-1.1-1.9-1.7-2.8c-0.1,0.1-0.3,0.1-0.4,0.3
						c1,2.2,2.3,4.2,3.7,6.2h-0.2c-1.5-2-2.6-3.9-3.8-6c-0.1,0.1-0.4,0.2-0.3,0.4c1.2,2,2.3,4.1,3.9,5.9c0,0.1-0.2,0.2-0.3,0.1
						c-1.4-1.9-2.7-3.9-4-5.9c-0.2,0.1-0.4,0.3-0.6,0.4c0.6,2.7,0.6,5.6,2.3,7.9c0.4,0.5,0.8,0.8,1.5,0.8c0.3,0,0.5-0.3,0.6-0.6
						c0.1-0.3,0-0.6-0.1-0.9c-0.2-0.4-0.7-0.1-0.8-0.4c0.3-0.1,0.5-0.1,0.8,0c0.4,0.3,0.6,0.6,0.6,1.1c-0.1,0.6-0.4,1.2-1,1.4
						c-0.6,0.2-1.3,0.2-1.9-0.2c-2.4-2.3-1.5-5.8-2.5-8.7c-0.2,0.1-0.4,0.2-0.5,0.3c0.7,3.2-0.1,7.3,3.4,9.2c0.6,0.1,1.5,0.2,2-0.3
						c0.3-0.2,0.4-0.6,0.6-0.7c0.1,0.6-0.3,1.3-0.9,1.6c-0.5,0.3-1.2,0.4-1.9,0.3c-1.5-0.4-2.4-1.8-2.8-3.1
						c-0.5-2.1-0.2-4.5-0.6-6.7c-0.3-0.2-0.6,0.2-0.9,0.2c-0.3,0-0.7,0.2-1-0.1l1.6-1.1c0-0.5-0.3-0.9-0.5-1.4
						c0.5,0.2,0.6,0.8,0.9,1.1c0.2-0.2,0.7-0.2,0.5-0.6c-0.5-0.9-1.1-2.4-2.4-2.4c-0.3,0-0.5,0.1-0.6,0.4c-0.1,0.3,0,0.7,0.4,0.8
						c0.3,0.1,0.7,0,0.9-0.1c0.1,0.3-0.4,0.7-0.7,0.8c-0.5,0.3-1.2,0.1-1.6-0.2c-0.3-0.4-0.4-0.9-0.3-1.3c0.2-0.7,1-1.1,1.6-1.2
						c1.8-0.1,2.6,1.9,3.2,3.2c0.2,0.1,0.3-0.1,0.5-0.2c-0.2-0.2-0.3-0.5-0.3-0.8c0.2,0.1,0.4,0.4,0.5,0.6c0.1,0.1,0.3-0.1,0.4-0.2
						c-0.2-0.3-0.5-0.6-0.3-0.9c0.4,0,0.4,1.3,1,0.5c-0.1-0.4-0.4-0.6-0.3-1c0.3-0.1,0.6,0.5,0.8,0.8c0.1-0.1,0.5-0.2,0.2-0.4
						c-0.1-0.2-0.2-0.4-0.1-0.6c0.4-0.1,0.4,1,0.9,0.4l0.2-0.1c-0.6-0.5-0.8-1.1-1.2-1.6c-0.2,0.4-0.6,0.5-1,0.7
						c-0.4,0.1-0.7-0.1-0.9-0.3c-0.8-1,0.1-2.2,0.4-3.1L134.1,49.3L134.1,49.3"/>
					<path class="st0" d="M143.1,52.4v0.4c-0.6,0.1-1-0.5-1.6-0.7c-1.7-0.9-3.4-1.8-5.3-2.3c-0.2,0-0.4-0.1-0.7-0.1
						c-0.1-0.2,0.2-0.2,0.3-0.3C138.6,49.7,140.9,50.8,143.1,52.4"/>
					<path class="st0" d="M147.1,54.6c-0.7-1.4-2.1-2-3.2-3.1c-0.4-0.6-0.9-1.1-0.9-1.8C144.3,51.5,147.2,52.1,147.1,54.6"/>
					<path class="st0" d="M141.1,52.6c0.1,0.1,0.2,0.2,0.2,0.3c-0.1,0.3-0.5,0.3-0.7,0.1c-1.4-0.8-2.9-1.5-4.4-1.9
						c0.6,0.4,1.3,0.9,1.3,1.6c-0.1,0.4-0.2,0.8-0.6,1.1c-0.4,0.3-1,0.3-1.5,0.2c0.6-0.3,1-0.9,1.1-1.5c0-0.7-0.5-1.3-1.1-1.6
						l0.2-0.2C137.4,51.2,139.4,51.6,141.1,52.6"/>
					<path class="st0" d="M147.9,51.9c1.4,2.2,2.7,4.6,4.9,6.4c0.1,0.1,0.2,0,0.1,0.1c-0.4,0.1-0.9-0.3-1.3-0.4
						c-1.2-0.8-2.1-1.9-2.7-3.1c-0.6-0.9-0.8-1.9-1.2-2.9C147.7,52,147.8,51.9,147.9,51.9"/>
					<path class="st0" d="M131.5,52.1c-0.2,0.9-1.1,1.5-0.8,2.5c0.2,0.4,0.7,0.7,0.9,1.1c-0.5,0.1-1.2,0.1-1.7-0.3
						c-0.3-0.3-0.4-0.7-0.3-1.1c0.2-0.8,1-1.4,1.6-2.1C131.4,52.2,131.4,52,131.5,52.1"/>
					<path class="st0" d="M156,53.5c0.4,1,0.1,2.1-0.5,2.9c-0.1,0-0.2,0-0.2-0.1c0.6-1.1,0.3-2.6-0.4-3.5
						C155.4,52.7,155.8,53.1,156,53.5"/>
					<path class="st0" d="M139.4,52.9c0.8,0.9,1.8,2.1,3.1,2V55c-0.7,0.3-1.7,0.2-2.3-0.3c-0.5-0.5-0.8-1.1-1-1.8H139.4"/>
					<path class="st0" d="M157.8,54.5c3.4,1.1,6.2,3.1,9.2,5.3c0.8,0.3,1.7,1.5,2.7,0.5l0.2,0.2l-0.1-0.1c-0.3,0.3-0.6,0.4-0.9,0.6
						c-3.3-0.2-5.5-3.5-8.5-4.8c-0.8-0.8-2-1.2-3.1-1.6c-0.1-0.1-0.3-0.3-0.1-0.4C157.4,54.1,157.5,54.4,157.8,54.5"/>
					<path class="st0" d="M154.2,54.9c0.7,0.7,0.9,2,0.4,2.8c-0.2-1-0.5-2.1-1.4-2.9C153.5,54.6,154,54.7,154.2,54.9"/>
					<path class="st0" d="M170.8,59.4c0.5,0.1,1.1,0.1,1.4-0.4c0.1,0.2-0.1,0.5-0.2,0.7c-0.3,0.3-0.7,0.6-1.2,0.6
						c-1.9-0.4-3.3-1.9-5-2.8c-1.2-0.6-2.3-1.5-3.5-2.1c-0.1-0.2,0.1-0.1,0.2-0.2C165.3,56.4,167.7,58.6,170.8,59.4"/>
					<path class="st0" d="M148.3,55.6c-0.1,0.8-0.9,1.7-1.8,1.9c-0.8,0.1-1.6-0.1-2.2-0.5v-0.1c1.3,0.2,2.9-0.2,3.8-1.4H148.3"/>
					<path class="st0" d="M145.1,55.8c-0.7,0.8-1.8,1.3-2.9,1.1c-0.5-0.2-1.1-0.6-1.4-1.1c0.4-0.1,0.6,0.3,0.9,0.4
						c0.9,0.3,2.2,0.4,3-0.2C144.8,55.7,144.9,55.7,145.1,55.8"/>
					<path class="st0" d="M154.8,58.2c0.1,0.1,0.1,0.1,0.1,0.2c-0.5,0.1-1.1,0.2-1.6-0.1c-0.8-0.5-1.4-1.4-1.5-2.3
						C152.7,57,153.7,57.9,154.8,58.2"/>
					<path class="st0" d="M153.5,59.5c0,1.9-0.5,3.3-1.3,4.9l0.1,0.1c1.4,0.3,2.9,0.2,4.4,0.3c0.4,0,0.7,0.3,0.9,0.5
						c0.5,0.9,0,1.7-0.3,2.6h-0.1c0-0.6-0.1-1.4-0.7-1.7c-0.7-0.7-1.8-0.5-2.8-0.7l-1.6-0.5c-0.3-0.6,0.3-1.2,0.3-1.9
						c0.2-1.2,0.4-2.4,0.6-3.6C153.2,59.2,153.5,59.3,153.5,59.5"/>
					<path class="st0" d="M152.5,60.2c-0.8,2.3-1.3,4.8-3.3,6.6c-0.5,0.8-0.4,1.9,0.1,2.6c-0.6,0-0.9-0.8-1.2-1.3
						c-0.5-2.1,2.2-2.4,2.8-4.1c0.5-1.5,0.9-3,1.2-4.5C152.7,59.1,152.5,60,152.5,60.2"/>
					<path class="st0" d="M138.6,64c-0.2,0.1-0.5,0.3-0.8,0.4c-0.6,0.4-1,0.8-1.6,1.3c-0.2,0.1-0.4-0.2-0.5-0.4
						C136.3,64.4,137.6,64,138.6,64"/>
					<path class="st0" d="M149.9,64.9V65c-1.1-0.2-1.8,0.9-2.9,0.9c-0.7-0.2-1.4,0.1-1.9,0.7c-0.4,0.7-0.8,1.2-1.4,1.6
						c-0.2-0.4,0.3-0.6,0.4-1c0.2-0.7,0.4-1.5,1-1.9c1.1,0.1,2.5,0.1,3.5-0.4C148.9,64.6,149.4,64.8,149.9,64.9"/>
					<path class="st0" d="M139.3,65c-0.8,0.4-1.5,1-2.3,1.6c-0.2,0.1-0.3-0.1-0.5-0.2c-0.2-0.4,0.3-0.5,0.5-0.7
						c0.7-0.4,1.3-0.8,2.1-0.9L139.3,65"/>
					<path class="st0" d="M151.5,65.3c-0.4,0.9-0.7,2-1.6,2.7h-0.5c-0.2-0.5,0.6-0.6,0.8-1c0.4-0.7,1-1.3,1.3-2.1
						C151.7,65,151.5,65.2,151.5,65.3"/>
					<path class="st0" d="M143,67.4c0,0.1-0.4,0.1-0.5,0.3c-1.9,0.5-3.5,1.6-5,3c-0.2,0.2-0.5,0.1-0.8,0.1c-0.2-0.1-0.1-0.4-0.1-0.6
						c-0.3,0.1-0.7-0.1-0.7-0.5c0.4-0.7,1.3-1,1.9-1.5c1.5-0.7,2.8-1.7,4.4-1.9l0.1,0c-0.5,0.4-1.1,0.5-1.6,0.9
						c-1.1,0.6-1.9,1.3-2.9,2.1h0.2c1.5-0.9,3.1-1.6,4.8-1.9C142.8,67.2,143,67.2,143,67.4"/>
					<path class="st0" d="M162.6,70.5c2.5,0.9,4.9,2.2,7.1,3.9c1.6,0.9,3,2.2,4.5,3.4c0.1,0.1-0.1,0.1-0.1,0.2
						c-0.2-0.1-0.3-0.5-0.6-0.4v-0.1c-3.5-3-7.6-4.9-11.8-6.4c-3.6-1.3-7.5-1.6-11.3-2.1v-0.1C154.4,67.2,158.9,68.9,162.6,70.5"/>
					<path class="st0" d="M149.2,71.9c3.8,1,7.5,2.6,10.9,4.9v0.1h-0.2c-3-2.2-6.5-3.5-10.3-4.2c-4-1.1-8.8-0.8-12.9-0.5
						c-0.3,0.1-0.7,0.1-1.1,0.2c-0.2-0.5,0.5-0.5,0.7-0.8c2.6-1.1,6-0.8,8.9-0.6C146.5,71.3,147.9,71.4,149.2,71.9"/>
				</g>
			</g>
		</g>
	</g>
</svg>
