<svg id="Layer_1" data-name="Layer 1" xmlns="http://www.w3.org/2000/svg" viewBox="0 0 305.7667 57.7797"  height="26" width="140"><defs><style>.cls-1{fill:#ef3a2f;}.cls-2{fill:#179bd7;}</style></defs><path class="cls-1" d="M84.832,46.2537l3.981,6.117A22.4316,22.4316,0,0,1,74.094,57.78c-11.234,0-18.478-7.939-18.478-20.238,0-7.01,1.454-11.672,4.882-15.479,3.209-3.598,7.086-5.272,12.294-5.272,4.498,0,8.775,1.521,11.294,4.11,3.575,3.669,5.182,8.942,5.182,17.114v2.372H66.676v.302c0,6.023,2.961,9.461,8.249,9.461a15.2194,15.2194,0,0,0,9.907-3.896M66.835,32.8917H78.67v-.463c0-2.896-.315-4.426-1.233-5.868a4.9388,4.9388,0,0,0-4.503-2.289c-3.883,0-6.099,3.047-6.099,8.478Z"/><path class="cls-1" d="M270.12.8152h10.234v55.811H270.12Zm20.465,16.588h12.2859L290.76,34.1732l15.0069,22.453H293.7l-13.12-22.127Z"/><path class="cls-1" d="M217.9973,39.1066h-.437c-7.11,0-9.565,1.295-9.565,5.941,0,3.05,1.912,5.111,4.528,5.111a7.33,7.33,0,0,0,5.32-2.676Zm1.052,14.628a6.5878,6.5878,0,0,1-3.106,2.496,13.5555,13.5555,0,0,1-5.785,1.395c-8.694,0-13.087-4.135-13.087-11.93,0-9.152,6.348-13.452,18.801-13.452a20.18,20.18,0,0,1,2.292.1v-1.595c0-4.372-.847-5.815-4.581-5.815-3.293,0-7.111,1.613-11.308,4.431l-4.341-7.338a29.385,29.385,0,0,1,6.315-3.199,26.6068,26.6068,0,0,1,10.693-2.288c6.577,0,11.067,2.437,12.599,6.793.5319,1.601.692,2.828.692,7.027l-.239,13.124c0,.227.01,5.025.01,4.94,0,3.24.1539,6.588,1.0339,8.217h-8.9959a10.0046,10.0046,0,0,1-.993-2.906"/><path class="cls-1" d="M41.281,56.6246V30.9076c0-4.647-.54-5.575-3.214-5.575-1.891,0-4.555,1.303-6.764,3.282v28.01H21.628V31.2706c0-4.873-.68-6.026-3.5-6.026a10.8868,10.8868,0,0,0-6.701,2.982v28.398H1.451V29.4486c0-5.642-.388-8.079-1.451-9.978l9.21-2.517a10.3725,10.3725,0,0,1,1.3859,3.973,13.3677,13.3677,0,0,1,9.5051-3.973,10.6524,10.6524,0,0,1,7.934,3.191,12.736,12.736,0,0,1,1.505,1.917c3.602-3.643,6.798-5.108,11.051-5.108a12.0476,12.0476,0,0,1,7.687,2.455c2.199,1.891,2.892,4.161,2.892,9.5v27.716Z"/><path class="cls-2" d="M140.0694,24.955c0-1.524-.742-2.454-1.645-2.454-2.128,0-3.833,3.042-6.368,9.207l-3.193-1.348c3.579-9.294,7.433-13.771,13.252-13.771,5.391,0,8.646,3.978,8.646,10.898a36.2964,36.2964,0,0,1-1.475,9.118l-1.861,7.249a19.2168,19.2168,0,0,0-.82,4.972c0,1.858.82,2.869,2.125,2.869,2.292,0,4.331-3.292,6.534-9.781l3.028,1.518c-2.545,9.544-6.873,14.266-13.167,14.266-5.869,0-9.482-3.888-9.482-10.555,0-3.621,1.071-7.573,2.208-12.313l1.476-5.99a19.7768,19.7768,0,0,0,.742-3.885M143.6124,0a6.36,6.36,0,0,1,6.437,6.505,6.46,6.46,0,0,1-6.437,6.515,6.51,6.51,0,0,1,0-13.02"/><path class="cls-1" d="M232.2812,19.4718l9.206-2.519a10.208,10.208,0,0,1,1.379,4.495,36.4481,36.4481,0,0,1,4.514-2.91,16.102,16.102,0,0,1,7.033-1.663c4.345,0,8.162,2.281,9.392,5.636a16.0535,16.0535,0,0,1,.745,5.574v28.541H254.4891V31.2178c0-4.42-.7739-5.722-3.4369-5.722-2.076,0-4.7351,1.381-7.1051,3.502v27.628h-10.239V28.3218c0-6.076-.9389-7.977-1.4269-8.85"/><path class="cls-1" d="M118.4417,56.6248a10.6618,10.6618,0,0,1-.702-2.411,15.13,15.13,0,0,1-8.672,3.412c-9.907,0-16.191-7.715-16.191-19.84,0-12.22,6.804-20.626,16.723-20.626a10.4944,10.4944,0,0,1,6.93,2.216V.8148h9.87v55.81Zm-2.045-28.768a8.502,8.502,0,0,0-5.574-2.524c-4.588,0-6.572,3.824-6.572,12.532,0,8.389,1.762,11.129,7.102,11.129a7.3712,7.3712,0,0,0,5.044-2.508Z"/><path class="cls-1" d="M170.88.8165v18.861a11.0655,11.0655,0,0,1,8.231-3.113c9.556,0,15.5,7.626,15.5,19.839,0,7.945-2.433,14.134-7.252,17.942a12.83,12.83,0,0,1-8.554,3.044c-3.68-.005-6.394-1.037-8.613-3.492a14.9164,14.9164,0,0,1-.661,2.728h-8.645l-.008-14.27V.8165Zm11.666,29.172c-.744-3.355-2.897-4.956-5.568-4.956-2.66,0-4.508,1.672-5.782,3.12v18.021a7.9523,7.9523,0,0,0,5.718,2.519c2.517,0,4.135-1.001,4.963-3.049.917-2.149,1.117-4.212,1.117-9.016a27.884,27.884,0,0,0-.448-6.639"/></svg>