<svg version="1.1" id="Layer_1" height="52" width="128"
	 xmlns="http://www.w3.org/2000/svg" xmlns:xlink="http://www.w3.org/1999/xlink" x="0px" y="0px" viewBox="0 0 197.1 80.4"
	 style="enable-background:new 0 0 197.1 80.4;" xml:space="preserve">
<style type="text/css">
	.st0{fill:#D0043C;}
	.st1{fill:#990A2C;}
</style>
	<g>
		<g>
			<path class="st0" d="M196.8,79.1c-3.2,0.9-6.3,1.3-10.1,1.3c-8.1,0-14.6-4.1-14.6-12.6c0-7.9,6.8-11.9,14.6-11.9
				c4.6,0,6.8,0.3,9.1,0.9v6.4c-1.3-0.7-3.8-1.4-6.4-1.4c-4.6,0-7.7,2.3-7.7,6.6c0,3.3,1.4,6.1,5.1,6.1c0.7,0,1.4,0,2-0.2v-8.4h8
				V79.1z"/>
			<polygon class="st0" points="136.9,56.3 150.8,56.3 153.9,69.3 154,69.3 157.2,56.3 171,56.3 171,80 162.6,80 162.4,61.4 
				162.4,61.4 157.6,80 149.8,80 145.1,61.4 145,61.4 144.9,80 136.9,80 			"/>
			<polygon class="st0" points="100.1,56.3 113.9,56.3 117.1,69.3 117.2,69.3 120.3,56.3 134.2,56.3 134.2,80 125.8,80 125.6,61.4 
				125.6,61.4 120.8,80 113,80 108.3,61.4 108.2,61.4 108.1,80 100.1,80 			"/>
			<polyline class="st0" points="166.3,44.4 163.8,53 160,53 164.7,35.4 163.5,28.5 156.6,53 133,53 130.5,44.4 128.9,53 125.1,53 
				127.9,35.3 126.1,28.5 121.8,53 99.9,53 109.3,0 136,0 144.8,35.4 146.5,28.8 140.2,3.7 144.2,3.7 148.5,20.8 153.8,0 180.3,0 
				189.6,53 167.8,53 			"/>
			<polygon class="st0" points="197.1,53 192.9,53 184.4,3.8 188.4,3.8 			"/>
			<path class="st1" d="M9.7,67H7.6l-1.3-5.5c-0.2-0.6-0.3-1.4-0.4-1.8c0,0.4-0.2,1.2-0.4,1.8L4.2,67h-2L0,56.4h2.2l0.9,5.2
				c0.1,0.5,0.2,1.3,0.3,1.8c0.1-0.4,0.2-1.2,0.4-1.8L5,56.4h1.9l1.3,5.2c0.1,0.5,0.3,1.3,0.4,1.8c0-0.4,0.2-1.3,0.3-1.8l0.9-5.2
				h2.2L9.7,67z"/>
			<polygon class="st1" points="13.1,67 13.1,56.4 20.5,56.4 20.5,58.5 15.2,58.5 15.2,60.3 18.3,60.3 18.3,62.4 15.2,62.4 15.2,65 
				20.7,65 20.7,67 			"/>
			<path class="st1" d="M32.6,67v-3.9c0-0.6,0-1.9,0-2.3c-0.2,0.4-0.5,1.2-0.7,1.8l-2.2,4.7l-2.2-4.7c-0.3-0.6-0.6-1.4-0.7-1.8
				c0,0.4,0,1.8,0,2.3V67h-2.1V56.4h2.1l2.2,4.8c0.3,0.6,0.6,1.4,0.7,1.8c0.1-0.4,0.4-1.2,0.7-1.8l2.1-4.8h2.1V67H32.6z"/>
			<rect x="36.4" y="56.4" class="st1" width="2.1" height="10.7"/>
			<path class="st1" d="M47.1,67l-3.9-5.8c-0.3-0.4-0.6-0.9-0.7-1.2c0,0.4,0,1.7,0,2.3V67h-2.1V56.4h2l3.8,5.6
				c0.3,0.4,0.6,0.9,0.7,1.2c0-0.4,0-1.7,0-2.3v-4.5H49V67H47.1z"/>
			<polygon class="st1" points="50.7,67 50.7,56.4 58.1,56.4 58.1,58.5 52.8,58.5 52.8,60.3 55.9,60.3 55.9,62.4 52.8,62.4 52.8,65 
				58.3,65 58.3,67 			"/>
			<polygon class="st1" points="64.7,58.5 64.7,60.5 68,60.5 68,62.6 64.7,62.6 64.7,67 62.6,67 62.6,56.4 70.2,56.4 70.2,58.5 			
				"/>
			<path class="st1" d="M74.9,67.2c-2.9,0-4.6-2.3-4.6-5.5c0-3.2,1.7-5.5,4.6-5.5c2.9,0,4.6,2.3,4.6,5.5
				C79.6,65,77.8,67.2,74.9,67.2 M74.9,58.3c-1.7,0-2.4,1.5-2.4,3.4c0,1.9,0.7,3.4,2.4,3.4c1.7,0,2.4-1.5,2.4-3.4
				C77.4,59.8,76.6,58.3,74.9,58.3"/>
			<path class="st1" d="M86.8,67l-1.9-3.8h-2.1V67h-2.1V56.4h5c2,0,3.7,1.1,3.7,3.4c0,1.6-0.7,2.6-2,3.1l2,4.1H86.8z M85.5,58.5
				h-2.8v2.7h2.8c1,0,1.5-0.5,1.5-1.4C87.1,58.8,86.5,58.5,85.5,58.5"/>
			<path class="st0" d="M17.7,76.2h-2.3V80h-2.1V69.3h4.7c2,0,3.7,1.1,3.7,3.4C21.5,75.2,19.9,76.2,17.7,76.2 M17.8,71.4h-2.5v2.7
				h2.5c1,0,1.5-0.5,1.5-1.4C19.3,71.8,18.7,71.4,17.8,71.4"/>
			<path class="st0" d="M29,80l-1.9-3.8h-2.2V80h-2.1V69.3h5c2,0,3.7,1.1,3.7,3.4c0,1.6-0.7,2.6-2,3.1l2,4.1H29z M27.7,71.4h-2.8
				v2.7h2.8c1,0,1.5-0.5,1.5-1.4C29.2,71.8,28.7,71.4,27.7,71.4"/>
			<path class="st0" d="M37,80.2c-2.9,0-4.6-2.3-4.6-5.5c0-3.2,1.7-5.5,4.6-5.5c2.9,0,4.6,2.3,4.6,5.5C41.6,77.9,39.9,80.2,37,80.2
				 M37,71.3c-1.7,0-2.4,1.5-2.4,3.4c0,1.9,0.7,3.4,2.4,3.4c1.7,0,2.4-1.5,2.4-3.4C39.4,72.8,38.7,71.3,37,71.3"/>
			<path class="st0" d="M47.3,80.2c-2.8,0-4.7-2.1-4.7-5.5c0-3.2,2-5.5,4.7-5.5c2.2,0,3.3,1,4,2.7l-2,0.8c-0.4-0.8-0.9-1.4-2-1.4
				c-1.6,0-2.5,1.4-2.5,3.4c0,2,0.9,3.4,2.5,3.4c1.5,0,2-0.7,2.1-1.6h-1.7v-2h3.8v1.4C51.6,78.6,49.8,80.2,47.3,80.2"/>
			<path class="st0" d="M59.2,80l-1.9-3.8h-2.1V80H53V69.3h5c2,0,3.7,1.1,3.7,3.4c0,1.6-0.7,2.6-2,3.1l2,4.1H59.2z M58,71.4h-2.8
				v2.7H58c1,0,1.5-0.5,1.5-1.4C59.5,71.8,58.9,71.4,58,71.4"/>
			<polygon class="st0" points="63.2,80 63.2,69.3 70.6,69.3 70.6,71.4 65.3,71.4 65.3,73.3 68.4,73.3 68.4,75.3 65.3,75.3 
				65.3,77.9 70.8,77.9 70.8,80 			"/>
			<path class="st0" d="M75.9,80.2c-1.8,0-3.3-0.7-4.1-1.9l1.5-1.4c0.7,0.9,1.7,1.2,2.7,1.2c1.3,0,1.9-0.4,1.9-1.2
				c0-0.7-0.4-1-2.4-1.4c-2-0.5-3.3-1.1-3.3-3.2c0-1.9,1.7-3.1,3.8-3.1c1.7,0,2.9,0.6,3.9,1.7l-1.5,1.5c-0.7-0.7-1.4-1.1-2.4-1.1
				c-1.1,0-1.5,0.5-1.5,1c0,0.7,0.5,0.9,2.1,1.3c1.7,0.4,3.6,1,3.6,3.3C80,78.8,78.8,80.2,75.9,80.2"/>
			<path class="st0" d="M85,80.2c-1.8,0-3.3-0.7-4.1-1.9l1.5-1.4c0.7,0.9,1.7,1.2,2.7,1.2c1.3,0,1.9-0.4,1.9-1.2
				c0-0.7-0.4-1-2.4-1.4c-2-0.5-3.3-1.1-3.3-3.2c0-1.9,1.7-3.1,3.8-3.1c1.7,0,2.9,0.6,3.9,1.7l-1.5,1.5c-0.7-0.7-1.4-1.1-2.4-1.1
				c-1.1,0-1.5,0.5-1.5,1c0,0.7,0.5,0.9,2.1,1.3c1.7,0.4,3.6,1,3.6,3.3C89.2,78.8,87.9,80.2,85,80.2"/>
		</g>
	</g>
</svg>
