<svg id="Layer_1" data-name="Layer 1" xmlns="http://www.w3.org/2000/svg" xmlns:xlink="http://www.w3.org/1999/xlink" viewBox="0 0 635.817 82.3997"  height="56" width="152"><defs><style>.cls-1{fill:url(#linear-gradient);}.cls-2{fill:url(#linear-gradient-2);}.cls-3{fill:url(#linear-gradient-3);}.cls-4{fill:url(#linear-gradient-4);}.cls-5{fill:url(#linear-gradient-5);}.cls-6{fill:#006fba;}</style><linearGradient id="linear-gradient" x1="45.6398" y1="0.2531" x2="45.6398" y2="82.515" gradientUnits="userSpaceOnUse"><stop offset="0.0016" stop-color="#003660"/><stop offset="0.0746" stop-color="#004578"/><stop offset="0.1831" stop-color="#005795"/><stop offset="0.2911" stop-color="#0064a9"/><stop offset="0.3974" stop-color="#006cb6"/><stop offset="0.5" stop-color="#006fba"/><stop offset="0.6029" stop-color="#006cb6"/><stop offset="0.7095" stop-color="#0064a9"/><stop offset="0.8179" stop-color="#005795"/><stop offset="0.9267" stop-color="#004578"/><stop offset="1" stop-color="#003660"/></linearGradient><linearGradient id="linear-gradient-2" x1="17.7092" y1="4.621" x2="80.3232" y2="85.7873" gradientUnits="userSpaceOnUse"><stop offset="0" stop-color="#c7c9c8"/><stop offset="0.1014" stop-color="#bec0c0"/><stop offset="0.2668" stop-color="#a6a9aa"/><stop offset="0.4746" stop-color="#7e8287"/><stop offset="0.5" stop-color="#797d82"/><stop offset="0.5254" stop-color="#7e8287"/><stop offset="0.7332" stop-color="#a6a9aa"/><stop offset="0.8986" stop-color="#bec0c0"/><stop offset="1" stop-color="#c7c9c8"/></linearGradient><linearGradient id="linear-gradient-3" x1="16.4059" y1="3.6765" x2="79.02" y2="84.843" xlink:href="#linear-gradient-2"/><linearGradient id="linear-gradient-4" x1="10.5722" y1="1.6632" x2="10.5722" y2="80.9169" gradientUnits="userSpaceOnUse"><stop offset="0.0016" stop-color="#797d82"/><stop offset="0.0421" stop-color="#85898d"/><stop offset="0.1589" stop-color="#a2a5a7"/><stop offset="0.2752" stop-color="#b6b9b9"/><stop offset="0.3896" stop-color="#c3c5c4"/><stop offset="0.5" stop-color="#c7c9c8"/><stop offset="0.6108" stop-color="#c3c5c4"/><stop offset="0.7255" stop-color="#b6b9b9"/><stop offset="0.8421" stop-color="#a2a5a7"/><stop offset="0.9593" stop-color="#85898d"/><stop offset="1" stop-color="#797d82"/></linearGradient><linearGradient id="linear-gradient-5" x1="80.7078" y1="1.6627" x2="80.7078" y2="80.9174" xlink:href="#linear-gradient-4"/></defs><path class="cls-1" d="M21.1442,82.4c3.94,0,7.245-3.5024,8.4826-5.0085L90.0907,0H70.136c-3.94,0-7.245,3.503-8.4833,5.0091l-.4308.552L1.1889,82.4Z"/><path class="cls-2" d="M46.7817,58.3568l14.88,19.0457C62.891,78.8967,66.197,82.4,70.1359,82.4H90.0907L59.0442,42.6615Z"/><path class="cls-3" d="M44.498,24.043,29.6183,4.9977C28.3892,3.503,25.0843,0,21.1442,0H1.1889L32.2355,39.7382Z"/><polygon class="cls-4" points="21.144 53.934 21.144 28.466 0 1.402 0 80.998 21.144 53.934"/><polygon class="cls-5" points="70.136 28.465 70.136 53.934 91.28 80.998 91.28 1.401 70.136 28.465"/><polygon class="cls-6" points="130.54 5.514 130.54 28.478 113.096 5.514 108.854 5.514 108.854 37.282 113.788 37.282 113.788 14.414 131.183 37.282 135.474 37.282 135.474 5.514 130.54 5.514"/><path class="cls-6" d="M152.8259,12.0983a33.32,33.32,0,0,0-9.3687,1.514l-.7045.1953.8531,4.1893.7925-.1953a33.9548,33.9548,0,0,1,7.9322-1.1655c3.3268,0,4.4871.7336,4.6035,5.1509-1.9056-.034-3.3748-.034-5.99-.034-6.9263,0-10.4383,2.7292-10.4383,8.1112,0,5.218,2.9292,7.8639,8.7054,7.8639a11.1147,11.1147,0,0,0,7.7324-2.9767v2.531h4.8846V22.6355C161.8285,16.13,160.3223,12.0983,152.8259,12.0983Zm4.118,13.65V29.837c-1.4483,1.7811-3.7675,3.7983-6.8414,3.7983-3.3372,0-4.9595-1.3308-4.9595-4.0682,0-2.3883,1.0058-3.7711,6.148-3.7711,1.2175,0,2.3055-.0131,3.37-.0259C155.4207,25.761,156.169,25.7521,156.9439,25.7482Z"/><path class="cls-6" d="M181.2135,32.3844l-.7725.122a18.3813,18.3813,0,0,1-3.4426.2873c-2.52,0-3.5732-.5032-3.5732-3.6225V16.9332h7.2782V12.544h-7.2782v-6.04H168.59v6.04h-3.6143v4.3892H168.59V29.27c0,5.644,2.2879,8.1609,7.4182,8.1609a17.7743,17.7743,0,0,0,5.1778-.925l.6551-.1979Z"/><path class="cls-6" d="M187.7032,9.3085a2.6931,2.6931,0,0,0,2.8631-2.7639,2.8671,2.8671,0,0,0-5.7262,0A2.6931,2.6931,0,0,0,187.7032,9.3085Z"/><rect class="cls-6" x="185.236" y="12.544" width="4.8846" height="24.7384"/><path class="cls-6" d="M206.9364,12.0983c-7.4539,0-12.27,5.1081-12.27,13.0128,0,7.6643,4.7972,12.617,12.221,12.617,7.4836,0,12.32-4.9527,12.32-12.617C219.2065,17.2064,214.39,12.0983,206.9364,12.0983Zm-.0494,21.1908c-4.6248,0-7.3858-3.0758-7.3858-8.2277,0-5.3378,2.7793-8.5242,7.4352-8.5242,4.6866,0,7.4846,3.1864,7.4846,8.5242C214.421,30.2133,211.6047,33.2891,206.887,33.2891Z"/><path class="cls-6" d="M236.8638,12.148a12.1208,12.1208,0,0,0-8.2274,3.1858v-2.79h-4.8846V37.2824h4.8846V20.9788c2.2215-2.7453,4.8565-4.1942,7.6332-4.1942,3.2328,0,4.1673,1.3455,4.1673,5.9994V37.2824h4.8846V22.0413C245.3215,15.2919,242.6338,12.148,236.8638,12.148Z"/><path class="cls-6" d="M261.8953,12.0983a33.32,33.32,0,0,0-9.3687,1.514l-.7045.1953.853,4.1893.7925-.1953A33.9555,33.9555,0,0,1,261.4,16.6361c3.3267,0,4.487.7336,4.6035,5.1509-1.9057-.034-3.3748-.034-5.99-.034-6.9264,0-10.4383,2.7292-10.4383,8.1112,0,5.218,2.9292,7.8639,8.7054,7.8639a11.1144,11.1144,0,0,0,7.7323-2.9767v2.531h4.8846V22.6355C270.8978,16.13,269.3917,12.0983,261.8953,12.0983Zm4.1179,13.65V29.837c-1.4482,1.7811-3.7675,3.7983-6.8413,3.7983-3.3372,0-4.9595-1.3308-4.9595-4.0682,0-2.3883,1.0058-3.7711,6.1479-3.7711,1.2176,0,2.3056-.0131,3.37-.0259C264.49,25.761,265.2384,25.7521,266.0132,25.7482Z"/><rect class="cls-6" x="276.9219" y="3.2852" width="4.8846" height="33.9972"/><path class="cls-6" d="M311.75,18.8716l-.1341-.0445c-6.306-2.085-7.7948-2.6881-7.7948-5.5983,0-1.7565,1.7728-3.6232,5.0586-3.6232a22.8978,22.8978,0,0,1,9.5369,2.0621l.7421.3275,1.6675-4.169-.678-.3108A27.5391,27.5391,0,0,0,308.929,5.0181c-6.0659,0-10.1409,3.419-10.1409,8.5078,0,6.3793,4.5214,7.8073,9.7574,9.4613,6.965,2.1858,8.0173,3.32,8.0173,6.0852,0,3.2809-3.0476,3.9693-5.6038,3.9693a21.3744,21.3744,0,0,1-11.0106-3.5875l-.7134-.4627-2.11,3.9181.5412.4044a23.5646,23.5646,0,0,0,13.4408,4.4141c6.469,0,10.4878-3.4875,10.4878-9.1014C321.5953,23.2074,318.136,21.0177,311.75,18.8716Z"/><path class="cls-6" d="M339.2962,32.3844l-.7722.122a18.3786,18.3786,0,0,1-3.4423.2873c-2.52,0-3.5738-.5032-3.5738-3.6225V16.9332h7.2785V12.544h-7.2785v-6.04h-4.8342v6.04h-3.6144v4.3892h3.6144V29.27c0,5.644,2.2879,8.1609,7.4179,8.1609a17.7871,17.7871,0,0,0,5.1784-.925l.6551-.1979Z"/><path class="cls-6" d="M353.6589,12.0983c-7.4539,0-12.27,5.1081-12.27,13.0128,0,7.6643,4.7969,12.617,12.2207,12.617,7.484,0,12.32-4.9527,12.32-12.617C365.9293,17.2064,361.1127,12.0983,353.6589,12.0983ZM353.61,33.2891c-4.6248,0-7.3858-3.0758-7.3858-8.2277,0-5.3378,2.7793-8.5242,7.4349-8.5242,4.6869,0,7.4853,3.1864,7.4853,8.5242C361.1442,30.2133,358.3275,33.2891,353.61,33.2891Z"/><path class="cls-6" d="M389.2405,30.0324l-.7035.5526a11.0944,11.0944,0,0,1-7.6351,2.7041c-4.3774,0-6.99-3.0571-6.99-8.178,0-5.3194,2.7544-8.6236,7.1881-8.6236a14.0555,14.0555,0,0,1,6.6856,1.7254l.7094.4139,1.8965-3.636-.5942-.3884a16.3582,16.3582,0,0,0-8.7464-2.5041c-7.2738,0-11.9732,5.1081-11.9732,13.0128,0,7.6643,4.4854,12.617,11.4281,12.617a13.9773,13.9773,0,0,0,10.3176-3.7574l.4921-.4283Z"/><polygon class="cls-6" points="413.12 37.282 404.017 26.168 400.114 29.949 400.114 37.282 395.231 37.282 395.231 3.285 400.114 3.285 400.114 23.421 411.443 12.544 418.014 12.544 407.566 22.654 419.252 37.282 413.12 37.282"/><polygon class="cls-6" points="436.11 32.546 436.11 23.617 450.468 23.617 450.468 18.881 436.11 18.881 436.11 10.25 452.498 10.25 452.498 5.514 431.177 5.514 431.177 37.282 452.944 37.282 452.944 32.546 436.11 32.546"/><path class="cls-6" d="M470.82,24.8127l8.99-12.2687h-5.7033l-5.6,7.5553c-.3076.3632-.6459.7771-.9862,1.2519-.3364-.47-.6669-.873-.9548-1.2124l-5.632-7.5948h-5.7032l8.99,12.2687-9.1933,12.47h5.6025l5.9042-7.7539c.3076-.3635.6459-.7771.9855-1.2516.3377.4709.67.8766.9614,1.22l5.929,7.785h5.6032Z"/><path class="cls-6" d="M501.1774,30.0324l-.7035.5526a11.0944,11.0944,0,0,1-7.6351,2.7041c-4.3768,0-6.99-3.0571-6.99-8.178,0-5.3194,2.7545-8.6236,7.1875-8.6236a14.0523,14.0523,0,0,1,6.6856,1.7254l.7094.4142,1.8965-3.6363-.5942-.3884a16.36,16.36,0,0,0-8.747-2.5041c-7.2732,0-11.9726,5.1081-11.9726,13.0128,0,7.6643,4.4854,12.617,11.4281,12.617A13.9773,13.9773,0,0,0,502.76,33.9707l.4921-.4283Z"/><path class="cls-6" d="M520.3213,12.0983a12.4846,12.4846,0,0,0-8.5245,3.3942V3.2852h-4.8342V37.2824h4.8342V21.2265c2.3082-2.849,4.8755-4.2933,7.6332-4.2933,3.2328,0,4.168,1.3566,4.168,6.0491v14.3h4.884V22.0413C528.482,15.1649,525.965,12.0983,520.3213,12.0983Z"/><path class="cls-6" d="M544.8413,12.0983a33.3275,33.3275,0,0,0-9.3694,1.514l-.7041.1953.854,4.189.7918-.195a33.9562,33.9562,0,0,1,7.9323-1.1655c3.3271,0,4.4874.7336,4.6038,5.1509-1.9056-.034-3.3748-.034-5.99-.034-6.9264,0-10.438,2.7292-10.438,8.1112,0,5.218,2.9285,7.8639,8.7051,7.8639a11.1142,11.1142,0,0,0,7.7327-2.9764v2.5307h4.8839V22.6355C553.8435,16.13,552.3377,12.0983,544.8413,12.0983Zm4.1183,13.65V29.837c-1.4483,1.7811-3.7675,3.7983-6.8414,3.7983-3.3375,0-4.96-1.3308-4.96-4.0682,0-2.3883,1.0058-3.7711,6.1476-3.7711,1.2179,0,2.3055-.0131,3.37-.0259C547.4361,25.761,548.1847,25.7521,548.96,25.7482Z"/><path class="cls-6" d="M572.726,12.148a12.1213,12.1213,0,0,0-8.2274,3.1861v-2.79h-4.884V37.2824h4.884V20.9788c2.2224-2.7453,4.8571-4.1942,7.6331-4.1942,3.2329,0,4.168,1.3455,4.168,5.9994V37.2824h4.884V22.0413C581.1837,15.2919,578.496,12.148,572.726,12.148Z"/><path class="cls-6" d="M604.0866,12.544v2.4554a13.8726,13.8726,0,0,0-8.2771-2.9011c-8.3819,0-10.1409,6.8878-10.1409,12.666,0,10.65,8.103,11.4782,10.5865,11.4782a10.7484,10.7484,0,0,0,7.83-2.8582c-.0687,4.7973-2.121,7.0341-6.4428,7.0341a18.4135,18.4135,0,0,1-8.5565-2.0431l-.765-.39-1.5582,3.8967.5792.3416a20.6647,20.6647,0,0,0,10.6467,2.7329c7.0822,0,10.9825-4.2,10.9825-11.8251V12.544Zm-6.8413,19.4579c-2.5182,0-6.7425-.94-6.7425-7.2376,0-7.4188,3.5659-8.2768,6.2477-8.2768,2.5941,0,4.9959,1.2666,7.3361,3.8706v7.7333C602.0193,30.5121,600.1234,32.0019,597.2453,32.0019Z"/><path class="cls-6" d="M624.8345,12.0983c-7.4042,0-11.8248,4.8646-11.8248,13.0128,0,8.0183,4.2374,12.617,11.6265,12.617a14.5467,14.5467,0,0,0,10.4256-3.8651l.4908-.4407-2.16-3.44-.6871.5624a11.87,11.87,0,0,1-7.97,2.9417c-2.9135,0-6.4114-1.2228-6.9369-6.899H635.62l.0909-.68a11.3776,11.3776,0,0,0,.1061-1.7577C635.6147,16.3785,631.7144,12.0983,624.8345,12.0983Zm-6.88,10.298c.8246-4.938,4.18-6.0076,6.929-6.0076,3.7374,0,5.8624,2.02,6.3263,6.0076Z"/><path class="cls-6" d="M118.7976,53.4848c-7.4538,0-12.27,5.1081-12.27,13.0131,0,7.6646,4.7973,12.6166,12.221,12.6166,7.4837,0,12.32-4.952,12.32-12.6166C131.0677,58.5929,126.2512,53.4848,118.7976,53.4848Zm-.0494,21.1914c-4.6248,0-7.3858-3.0757-7.3858-8.228,0-5.3381,2.7794-8.5245,7.4352-8.5245,4.6867,0,7.4847,3.1864,7.4847,8.5245C126.2823,71.6005,123.4659,74.6762,118.7482,74.6762Z"/><path class="cls-6" d="M145.1,48.3679c1.3517,0,2.5248.0484,3.4871.1446l.766.0762.4695-3.9887-.6871-.1561a21.2589,21.2589,0,0,0-4.5306-.4155c-5.4663,0-8.0124,2.6874-8.0124,8.4574V53.93h-3.3169V58.32h3.3169V78.6689h4.8846V58.32h7.5259V53.93H141.477V52.4858C141.477,49.4454,142.425,48.3679,145.1,48.3679Z"/><path class="cls-6" d="M178.0962,46.9h-5.5374L158.8617,78.6689h5.3715l3.4164-7.9715h15.3083l3.4658,7.9715h5.3171ZM169.61,66.0117l5.1866-12.0593c.1839-.485.3527-.9319.5055-1.3472.1558.4225.3286.88.5177,1.3786l5.1742,12.0279Z"/><path class="cls-6" d="M210.5259,53.93V70.15c-2.0565,2.706-4.8676,4.3781-7.3858,4.3781-3.2963,0-4.4645-1.6092-4.4645-6.1483V53.93h-4.8348v15.142c0,6.8512,2.64,10.0421,8.3092,10.0421a13.01,13.01,0,0,0,8.3759-3.2976v2.852h4.8846V53.93Z"/><path class="cls-6" d="M230.5617,63.7225l-.432-.14c-3.4278-1.1079-4.8188-1.62-4.8188-3.1746,0-2.2172,2.0506-2.6825,3.7711-2.6825a20.991,20.991,0,0,1,7.376,1.7732l.7581.3121,1.4113-3.9219-.6508-.3014a21.7631,21.7631,0,0,0-8.8449-2.1524c-5.2962,0-8.458,2.6439-8.458,7.0724,0,4.4193,3.2014,5.7851,7.729,7.2339l.1437.0445c4.8865,1.53,6.04,1.9764,6.04,4.208,0,1.8454-1.4187,2.7813-4.217,2.7813a12.2248,12.2248,0,0,1-8.1181-2.9914l-.6931-.568-2.2623,3.6667.52.4352a16.9955,16.9955,0,0,0,10.6029,3.7969c5.4611,0,8.854-2.7472,8.854-7.1705C239.273,67.1072,236.4838,65.6636,230.5617,63.7225Z"/><path class="cls-6" d="M257.6443,73.7712l-.7725.1217a18.3439,18.3439,0,0,1-3.4426.2879c-2.52,0-3.5731-.5032-3.5731-3.6228V58.32h7.2781V53.93h-7.2781V47.89h-4.8352v6.04h-3.6144V58.32h3.6144V70.6568c0,5.6437,2.2878,8.1606,7.4182,8.1606a17.7826,17.7826,0,0,0,5.1777-.9247l.6551-.1983Z"/><path class="cls-6" d="M276.75,53.6382a24.1543,24.1543,0,0,0-3.0571-.1534,8.3854,8.3854,0,0,0-6.4447,3.1438V53.93H262.364V78.6689h4.8846V63.9954c1.1694-3.6294,3.42-5.626,6.3459-5.626.8236,0,1.6014,0,2.7574.0958l.7866.0655.3639-4.809Z"/><path class="cls-6" d="M290.8222,53.4848a33.32,33.32,0,0,0-9.3687,1.514l-.7044.1953.853,4.1893.7925-.1953a33.951,33.951,0,0,1,7.9322-1.1656c3.3268,0,4.4871.7336,4.6036,5.1516-1.9057-.034-3.3749-.034-5.99-.034-6.9264,0-10.4384,2.7289-10.4384,8.1109,0,5.2177,2.9292,7.8635,8.7055,7.8635a11.1131,11.1131,0,0,0,7.7323-2.9763v2.5307h4.8843V64.0223C299.8245,57.517,298.3186,53.4848,290.8222,53.4848Zm4.118,13.65v4.09c-1.4482,1.7807-3.7675,3.7982-6.8413,3.7982-3.3373,0-4.96-1.3311-4.96-4.0685,0-2.3886,1.0059-3.7714,6.148-3.7714,1.2175,0,2.3055-.0131,3.37-.0256C293.417,67.1478,294.1653,67.1386,294.94,67.1347Z"/><rect class="cls-6" x="305.6463" y="44.6717" width="4.8839" height="33.9972"/><path class="cls-6" d="M319.0507,50.695a2.742,2.742,0,1,0-2.8624-2.764A2.6932,2.6932,0,0,0,319.0507,50.695Z"/><rect class="cls-6" x="316.5842" y="53.9304" width="4.8839" height="24.7384"/><path class="cls-6" d="M338.4941,53.4848a33.3275,33.3275,0,0,0-9.3694,1.514l-.7041.1953.854,4.189.7919-.195a33.95,33.95,0,0,1,7.9322-1.1656c3.3271,0,4.4874.7336,4.6039,5.1516-1.9057-.034-3.3749-.034-5.99-.034-6.9264,0-10.438,2.7289-10.438,8.1109,0,5.2177,2.9286,7.8635,8.7051,7.8635a11.1126,11.1126,0,0,0,7.7327-2.9763v2.5307h4.8839V64.0223C347.4963,57.517,345.9905,53.4848,338.4941,53.4848Zm4.1183,13.65v4.09c-1.4483,1.7807-3.7675,3.7982-6.8414,3.7982-3.3375,0-4.96-1.3311-4.96-4.0685,0-2.3886,1.0058-3.7714,6.1476-3.7714,1.2179,0,2.3056-.0131,3.37-.0256C341.0889,67.1478,341.8375,67.1386,342.6124,67.1347Z"/></svg>