<svg id="Nufarm_Logo_CMYK" data-name="Nufarm Logo_CMYK" xmlns="http://www.w3.org/2000/svg" viewBox="0 0 548.95624 496.57242"  height="69" width="76"><defs><style>.cls-1{fill:#009448;}</style></defs><path class="cls-1" d="M202.63639,494.85842h-33.185v-9.32934c-6.397,7.23445-14.79241,10.85289-25.38771,10.85289-19.39116,0-29.78625-11.23378-29.78625-33.13V396.98948h33.78436v51.98158c0,9.90067,1.99967,14.85223,9.59547,14.85223s11.19472-4.95156,11.19472-15.04268V396.98948h33.78437Zm59.83109-107.80785c-4.98042,0-6.37946-.19045-7.37807-.19045-7.19783,0-10.39632,3.84713-10.39632,9.558v.57133h23.826L264.76921,421.553H244.69309v73.30541H210.91V426.1226h.01936V396.98948H210.91v-2.66622c0-24.372,13.59358-36.558,39.98113-36.558,2.39887,0,9.33728.19044,15.71674.38089Zm43.19837,46.30648a13.72407,13.72407,0,0,0,.20021-2.85666c0-8.56757-6.04328-9.37917-19.63686-9.37917l-15.24871.04983,4.10219-24.18157h20.211c33.58415,0,41.95791,8.37712,41.95791,34.65357v63.21537H308.46514V488.1953a30.64866,30.64866,0,0,1-21.79,8.37712c-19.39116,0-32.78454-13.70957-32.78454-33.51091,0-20.37512,14.59342-33.70379,36.58244-33.70379a33.59866,33.59866,0,0,1,15.19283,3.99933m1.99845,27.60957a10.79,10.79,0,0,0-10.7943-10.472,10.61944,10.61944,0,0,0-10.59531,10.472A10.33066,10.33066,0,0,0,296.87,471.24818,10.62814,10.62814,0,0,0,307.6643,460.96662Zm38.78475-63.97714h33.78436V407.0806c4.998-7.61534,12.39354-10.66245,22.58965-11.04334v33.70135H398.825c-11.99434,0-18.59154,6.47511-18.59154,18.47067v46.64914H346.44905Zm61.57339,0h32.58432v10.472a33.88021,33.88021,0,0,1,25.78814-11.99557c10.5953,0,18.59153,4.18978,24.3891,12.94779a38.09662,38.09662,0,0,1,28.78642-12.94779c18.99073,0,29.38582,11.42423,29.38582,33.32046v66.072H515.5723V442.87684c0-10.09112-1.79945-14.85223-9.59547-14.85223-6.99639,0-10.79552,5.142-10.79552,15.04267v51.79114H461.79737V442.87684c0-10.09112-1.79946-14.85223-9.59547-14.85223-6.9964,0-10.7943,5.142-10.7943,15.04267v51.79114H408.02244ZM0,494.85842H36.98163V428.14333l39.532,66.71509h29.8362v-136.141H69.367v68.07048L24.08782,358.71746H0ZM214.59244,230.95469,109.35621,291.18838,56.24494,259.87662V47.5479l48.70543-33.48453L214.59244,75.07718C235.276,54.47542,295.3848,12.1881,332.8027,12.1881c29.40648,0,56.75609,15.5144,82.82714,58.55257,37.1613,61.346,59.76823,161.26666,80.41327,190.519,5.52486,7.82826,18.998,15.30653,34.53434,9.69534-12.36283,20.518-54.14845,51.644-102.76653,51.644-62.94155,0-90.51853-62.98248-98.75741-77.87027-7.01229-12.67131-44.23164-93.73274-50.10971-104.30182-13.63111-24.52574-29.65615-48.837-46.8484-48.837-5.00363,0-12.51076,1.514-17.30642,9.55142ZM34.58589,61.46718V247.0377L49.354,255.77885V51.10549ZM110.90923,9.581,214.59365,66.56513V49.09127L125.43863,0ZM130.46785,302.71l84.127-48.25146-.0012-16.14659-97.92451,57.32567Z"/></svg>