<svg  height="40" width="184"
	 xmlns="http://www.w3.org/2000/svg" xmlns:xlink="http://www.w3.org/1999/xlink" x="0px" y="0px" viewBox="0 0 235.3 52.1"
	 style="enable-background:new 0 0 235.3 52.1;" xml:space="preserve">
<style type="text/css">
	.st0{fill:url(#SVGID_1_);}
	.st1{fill:url(#SVGID_2_);}
	.st2{fill:url(#SVGID_3_);}
	.st3{fill:url(#SVGID_4_);}
	.st4{fill:url(#SVGID_5_);}
	.st5{fill:url(#SVGID_6_);}
	.st6{fill:url(#SVGID_7_);}
	.st7{fill:url(#SVGID_8_);}
	.st8{fill:url(#SVGID_9_);}
	.st9{fill:url(#SVGID_10_);}
	.st10{fill:url(#SVGID_11_);}
	.st11{fill:url(#SVGID_12_);}
	.st12{fill:url(#SVGID_13_);}
	.st13{fill:url(#SVGID_14_);}
	.st14{fill:url(#SVGID_15_);}
	.st15{fill:url(#SVGID_16_);}
	.st16{fill:url(#SVGID_17_);}
	.st17{fill:url(#SVGID_18_);}
	.st18{fill:url(#SVGID_19_);}
	.st19{fill:url(#SVGID_20_);}
	.st20{fill:url(#SVGID_21_);}
	.st21{fill:url(#SVGID_22_);}
	.st22{fill:url(#SVGID_23_);}
	.st23{fill:url(#SVGID_24_);}
	.st24{fill:url(#SVGID_25_);}
	.st25{fill:url(#SVGID_26_);}
	.st26{fill:#14377D;}
</style>
	<g>
		<g>
			<linearGradient id="SVGID_1_" gradientUnits="userSpaceOnUse" x1="51.3762" y1="35.7155" x2="5.5523" y2="7.6958">
				<stop  offset="0" style="stop-color:#14377D"/>
				<stop  offset="1" style="stop-color:#28B67A"/>
			</linearGradient>
			<path class="st0" d="M32.8,17.8c0.6,0.1,0.9,0.6,0.5,1.2l-2.7,5.3c-0.3,0.6-1,1.1-1.7,1.1c0,0,0,0-1.1,0c-0.9,0-1.7-0.1-2.6-0.1
				c-0.4,0-0.8-0.1-1.2-0.1c-0.4,0-0.8,0-1.2-0.2c-0.3-0.1-0.5-0.3-0.7-0.6c-0.4-0.7-0.2-1.7-0.1-2.5c0.1-0.8,0.1-1.7,0.2-2.5
				c0-0.6,0.3-1.4,0.9-1.6c0.6-0.2,1.3-0.3,1.9-0.4c1.8-0.3,3.6,0,5.4,0.2C31.2,17.7,32,17.7,32.8,17.8z"/>
			<linearGradient id="SVGID_2_" gradientUnits="userSpaceOnUse" x1="44.5266" y1="46.8677" x2="-1.2472" y2="18.8787">
				<stop  offset="0" style="stop-color:#14377D"/>
				<stop  offset="1" style="stop-color:#28B67A"/>
			</linearGradient>
			<path class="st1" d="M26.3,40.3c-0.3,0.6-1,0.8-1.5,0.5l-5.5-5.3c-0.4-0.5-0.5-1.3-0.2-1.8c0.5-0.8,1.2-1.4,1.9-2
				c0.7-0.5,1.4-1,2.2-1.3c0.5-0.2,1.1-0.4,1.7-0.5c0.5-0.1,1.2-0.1,1.7,0c1.1,0.4,1.1,2,1.2,3c0.1,0.7,0.2,1.4,0.3,2.1
				c0.1,0.6-0.1,1.6-0.4,2.2L26.3,40.3z"/>
			<linearGradient id="SVGID_3_" gradientUnits="userSpaceOnUse" x1="44.2467" y1="47.1457" x2="-1.4332" y2="19.214">
				<stop  offset="0" style="stop-color:#14377D"/>
				<stop  offset="1" style="stop-color:#28B67A"/>
			</linearGradient>
			<path class="st2" d="M1.5,20.9c0-0.2,0-0.3,0.1-0.5c0.2-0.4,0.6-0.4,1-0.3C4,20.4,5.5,20.6,7,20.8c0.4,0.1,0.7,0.5,0.8,0.9
				c0,0.5-0.1,1-0.2,1.4c-0.1,0.5-0.3,0.9-0.5,1.4c-0.3,0.6-0.7,1.1-1.2,1.6c-0.3,0.3-0.7,0.6-1.2,0.5C4.5,26.5,4.2,26.3,4,26
				c-0.9-0.9-1.7-1.7-2.1-2.9c-0.2-0.6-0.3-1.3-0.4-1.9C1.5,21.1,1.5,21,1.5,20.9z"/>
			<linearGradient id="SVGID_4_" gradientUnits="userSpaceOnUse" x1="50.6672" y1="36.8298" x2="4.8905" y2="8.8389">
				<stop  offset="0" style="stop-color:#14377D"/>
				<stop  offset="1" style="stop-color:#28B67A"/>
			</linearGradient>
			<path class="st3" d="M14.9,11c0.3-0.6,1-0.6,1.4-0.2c0.3,0.3,0.6,0.6,0.9,0.9c0.3,0.3,0.6,0.6,0.8,0.9c0.6,0.6,1.1,1.2,1.7,1.8
				c0.3,0.3,0.5,0.5,0.8,0.8c0.4,0.4,0.4,1.1,0.1,1.5c-1,1.3-2.5,2.3-4.1,2.7c-0.5,0.1-1,0.2-1.5,0.2c-0.3,0-0.8,0-1-0.2
				c-0.3-0.2-0.5-0.6-0.5-0.9l-0.2-3.2c0-0.5,0.2-1.3,0.4-1.8L14.9,11z"/>
			<linearGradient id="SVGID_5_" gradientUnits="userSpaceOnUse" x1="56.5702" y1="26.6968" x2="11.3282" y2="-0.967">
				<stop  offset="0" style="stop-color:#14377D"/>
				<stop  offset="1" style="stop-color:#28B67A"/>
			</linearGradient>
			<path class="st4" d="M26.5,4C26.5,4,26.5,4,26.5,4c0.6-0.3,1.2-0.2,1.7-0.1l2.7,1c0.6,0.2,0.5,0.6,0.2,1.1
				c-0.3,0.5-0.6,0.9-0.9,1.4c-0.3,0.4-0.5,0.8-0.8,1.2C29.2,9,29,9.4,28.7,9.8c-0.4,0.6-1,1.1-1.6,1.4c-0.5,0.2-1.1,0.3-1.6,0.4
				c-0.5,0.1-1.1,0.1-1.6,0.1c-0.5,0-1,0.1-1.5,0c-0.4-0.1-0.8-0.3-1.1-0.6c-0.2-0.3-0.3-0.8-0.3-1.2c0-0.3-0.1-0.7,0-1
				c0.1-0.5,0.5-0.7,0.8-1c0.3-0.2,0.5-0.5,0.8-0.7C23.3,6.6,24,6,24.7,5.4C25,5.2,25.3,5,25.6,4.7C25.9,4.5,26.2,4.2,26.5,4z"/>
			<linearGradient id="SVGID_6_" gradientUnits="userSpaceOnUse" x1="39.336" y1="55.245" x2="-6.3393" y2="27.3162">
				<stop  offset="0" style="stop-color:#14377D"/>
				<stop  offset="1" style="stop-color:#28B67A"/>
			</linearGradient>
			<path class="st5" d="M12.3,38.4c0,0.1,0,0.3,0,0.4c0,0.4-0.2,0.7-0.4,0.9l-1.6,1.9c-0.3,0.4-0.7,0.1-0.9-0.2l-2.4-3.3
				c-0.3-0.4-0.5-1.2-0.5-1.7c0.1-0.4,0.1-0.8,0.2-1.1c0.1-0.3,0.2-0.7,0.3-1c0.1-0.4,0.2-0.8,0.4-1.1c0.2-0.4,0.6-0.8,1-0.9
				c0.5-0.1,1.2,0.1,1.6,0.4c0.5,0.3,0.7,1.1,0.9,1.6c0.3,0.7,0.5,1.4,0.8,2.1c0.2,0.5,0.3,1,0.5,1.5C12.2,38,12.2,38.2,12.3,38.4z"
				/>
			<linearGradient id="SVGID_7_" gradientUnits="userSpaceOnUse" x1="46.0051" y1="45.9866" x2="0.2313" y2="17.9976">
				<stop  offset="0" style="stop-color:#14377D"/>
				<stop  offset="1" style="stop-color:#28B67A"/>
			</linearGradient>
			<path class="st6" d="M11.7,28.4c-0.2-0.6-0.3-1-0.3-1.1c0,0,0.3-0.4,0.6-0.9l2.6-3.2c0.4-0.5,1.2-0.7,1.8-0.6l2.4,1
				c0.6,0.2,0.9,0.9,0.8,1.5l-2.6,6c-0.2,0.6-0.9,1.1-1.5,1.2c0,0-0.3,0-1.3-0.1C13.8,32,13.8,32,13.8,32c-0.3-0.1-0.8-0.7-1-1.2
				L11.7,28.4z"/>
			<linearGradient id="SVGID_8_" gradientUnits="userSpaceOnUse" x1="56.1771" y1="26.938" x2="10.8829" y2="-0.7578">
				<stop  offset="0" style="stop-color:#14377D"/>
				<stop  offset="1" style="stop-color:#28B67A"/>
			</linearGradient>
			<path class="st7" d="M12,4.6c-0.1-0.3-0.1-0.6,0-0.8c0-0.1,0.1-0.2,0.2-0.3c0.3-0.4,0.8-0.5,1.3-0.7c0.2-0.1,0.4-0.2,0.6-0.2
				c0.6-0.2,1.2-0.4,1.8-0.6c1.3-0.5,2.6-1,3.9-1.4C20.2,0.3,20.6,0.1,21,0c0.4-0.1,0.9,0.1,0.9,0.6c0,0.3-0.3,0.6-0.5,0.9
				C21.2,1.8,21,2,20.8,2.3c-0.3,0.4-0.5,0.7-0.8,1.1c-0.4,0.5-1.1,1.1-1.7,1.3c-0.5,0.2-1,0.4-1.5,0.6c-0.8,0.3-1.7,0.8-2.6,1
				c-0.1,0-0.2,0-0.3,0c-0.4,0-0.9-0.1-1.2-0.4c-0.3-0.3-0.4-0.6-0.5-1C12.1,4.9,12,4.7,12,4.6z"/>
			<linearGradient id="SVGID_9_" gradientUnits="userSpaceOnUse" x1="49.513" y1="39.5304" x2="3.5084" y2="11.4002">
				<stop  offset="0" style="stop-color:#14377D"/>
				<stop  offset="1" style="stop-color:#28B67A"/>
			</linearGradient>
			<path class="st8" d="M3.8,12.1c0.2-0.4,0.5-0.7,0.8-0.8c0.4-0.2,0.9-0.3,1.4-0.4c0.3-0.1,0.7-0.2,1-0.3s0.7-0.1,1,0
				c0.2,0.1,0.4,0.3,0.6,0.5c0.2,0.3,0.3,0.6,0.5,0.9c0.2,0.3,0.3,0.6,0.5,0.9c0.2,0.4,0.4,0.7,0.6,1.1c0.2,0.4,0.1,1-0.3,1.3
				L8,16.4c-0.4,0.3-1.1,0.3-1.5,0.1L3.3,15C3,14.7,2.8,14.1,3,13.7c0.2-0.5,0.4-0.7,0.6-1.3C3.7,12.3,3.8,12.1,3.8,12.1z"/>
			<linearGradient id="SVGID_10_" gradientUnits="userSpaceOnUse" x1="37.8461" y1="57.8128" x2="-7.9573" y2="29.8056">
				<stop  offset="0" style="stop-color:#14377D"/>
				<stop  offset="1" style="stop-color:#28B67A"/>
			</linearGradient>
			<path class="st9" d="M14.7,48.9c-0.3-0.2-0.6-0.3-0.8-0.5c-0.4-0.4-0.4-1-0.5-1.5c-0.1-0.7-0.2-1.3-0.2-2c0-0.4-0.1-0.8,0-1.2
				c0.3-0.9,1.3-1.1,2.2-1.3c1.1-0.2,2.1-0.5,3.2-0.7c0.3-0.1,0.6-0.1,0.8-0.2c0.1,0,0.2,0,0.2,0c0.1,0,0.2,0.2,0.2,0.3
				c0.2,0.7,0.5,1.4,0.8,2.1c0.4,1.1,0.8,2.3,1.3,3.4c0.4,1,0.7,2,1.1,3c0.1,0.2,0.1,0.4,0.2,0.6c0.1,0.6-0.3,1-0.9,0.8
				c-1-0.4-1.9-0.7-2.9-1.1c-1-0.4-2-0.7-3.1-1.1L14.7,48.9z"/>
			<linearGradient id="SVGID_11_" gradientUnits="userSpaceOnUse" x1="50.475" y1="37.1397" x2="4.7012" y2="9.1506">
				<stop  offset="0" style="stop-color:#14377D"/>
				<stop  offset="1" style="stop-color:#28B67A"/>
			</linearGradient>
			<path class="st10" d="M46.8,37c0.1-0.6,0.6-1.5,1-2c0,0,2.4-3,3.1-3.8c0.2-0.3,0.4-0.5,0.5-0.6c0-0.1,0-0.1,0-0.1
				c0-0.1,0.2-0.2,0.3-0.3c0.1-0.1,0.4-0.1,0.2,0.5l-5.1,11.4c-0.3,0.5-0.6,0.5-0.5-0.2L46.8,37z"/>
			<linearGradient id="SVGID_12_" gradientUnits="userSpaceOnUse" x1="48.1361" y1="40.966" x2="2.3557" y2="12.9729">
				<stop  offset="0" style="stop-color:#14377D"/>
				<stop  offset="1" style="stop-color:#28B67A"/>
			</linearGradient>
			<path class="st11" d="M40.5,42.9c-0.4,0.5-1,0.4-1.2-0.2c-0.4-1-0.8-2-1.2-3c-0.2-0.5-0.4-1-0.6-1.5c-0.3-0.8-0.7-1.6-0.5-2.5
				c0.1-0.5,0.4-1,0.7-1.5c1.1-1.4,2-3,3-4.5c0.3-0.5,0.8-0.5,1.1,0.1l3.7,5c0.4,0.5,0.5,1.4,0.3,2L40.5,42.9z"/>
			<linearGradient id="SVGID_13_" gradientUnits="userSpaceOnUse" x1="61.0358" y1="19.8684" x2="15.262" y2="-8.1206">
				<stop  offset="0" style="stop-color:#14377D"/>
				<stop  offset="1" style="stop-color:#28B67A"/>
			</linearGradient>
			<path class="st12" d="M41.1,10.5c-0.6,0-1.5-0.3-1.9-0.8l-2.1-2.5c-0.4-0.5-0.3-1,0.3-1.1l3.4-0.8c0.6-0.2,1.4-0.2,1.6,0
				c0.2,0.2,0.9,1,1.1,1.6l0.8,2.3c0.2,0.6-0.1,1.1-0.7,1.1L41.1,10.5z"/>
			<linearGradient id="SVGID_14_" gradientUnits="userSpaceOnUse" x1="58.551" y1="23.8702" x2="12.8809" y2="-4.0555">
				<stop  offset="0" style="stop-color:#14377D"/>
				<stop  offset="1" style="stop-color:#28B67A"/>
			</linearGradient>
			<path class="st13" d="M39.4,12.4c0-0.1,0.1-0.1,0.1-0.2c0.3-0.5,1-0.9,1.6-0.9l2.7-0.1c0.6,0,1.2,0.5,1.2,1.1l0.3,5.6
				c0,0.6-0.5,0.9-1.1,0.6l-5-2.5c-0.5-0.4-0.8-1.1-0.6-1.7C39,13.7,39.1,13,39.4,12.4z"/>
			<linearGradient id="SVGID_15_" gradientUnits="userSpaceOnUse" x1="59.1084" y1="23.0195" x2="13.3359" y2="-4.9688">
				<stop  offset="0" style="stop-color:#14377D"/>
				<stop  offset="1" style="stop-color:#28B67A"/>
			</linearGradient>
			<path class="st14" d="M50.5,15.8c0,0.2-0.1,0.5-0.3,0.6c-0.9,0.7-2,1.2-3,1.8c-0.6,0.3-1,0.1-0.9-0.6L46.1,13
				c0-0.6,0.3-0.8,0.8-0.4c1.2,0.9,2.5,1.7,3.4,2.9C50.4,15.6,50.5,15.7,50.5,15.8z"/>
			<linearGradient id="SVGID_16_" gradientUnits="userSpaceOnUse" x1="53.4506" y1="32.2733" x2="7.6768" y2="4.2843">
				<stop  offset="0" style="stop-color:#14377D"/>
				<stop  offset="1" style="stop-color:#28B67A"/>
			</linearGradient>
			<path class="st15" d="M50.2,29c0.3,0.6,0.4,1.2,0.3,1.4c0,0,0,0-0.2,0.3c-0.6,0.8-2.9,3.6-2.9,3.6c-0.4,0.5-1,0.5-1.4,0l-3.8-5.1
				c-0.3-0.6-0.2-1.5,0-2.1l2.8-5.7c0.3-0.5,0.9-0.5,1.2,0.1L50.2,29z"/>
			<linearGradient id="SVGID_17_" gradientUnits="userSpaceOnUse" x1="56.8585" y1="26.7" x2="11.0847" y2="-1.2891">
				<stop  offset="0" style="stop-color:#14377D"/>
				<stop  offset="1" style="stop-color:#28B67A"/>
			</linearGradient>
			<path class="st16" d="M52.5,26.5c0,0.6-0.3,1.5-0.5,1.9c-0.2,0.4-0.9,0.6-1.2,0l-4-7.7c-0.3-0.6-0.1-1.3,0.5-1.6l2.7-1.6
				c0.5-0.3,1.1-0.1,1.3,0.5c0,0,1.3,4.7,1.3,7.8C52.5,26.5,52.5,26.5,52.5,26.5z"/>
			<linearGradient id="SVGID_18_" gradientUnits="userSpaceOnUse" x1="61.4505" y1="19.1902" x2="15.6767" y2="-8.7988">
				<stop  offset="0" style="stop-color:#14377D"/>
				<stop  offset="1" style="stop-color:#28B67A"/>
			</linearGradient>
			<path class="st17" d="M47.3,10.1c0.8,1.1,1.6,2.5,1.6,2.5c0.3,0.6,0.2,0.7-0.3,0.3l-2-1.6c-0.5-0.4-1-1.2-1.2-1.6
				c-0.2-0.5-0.6-2.4-0.2-1.9C45.2,7.7,46.4,8.9,47.3,10.1z"/>
			<linearGradient id="SVGID_19_" gradientUnits="userSpaceOnUse" x1="61.6764" y1="19.1969" x2="15.5517" y2="-9.0068">
				<stop  offset="0" style="stop-color:#14377D"/>
				<stop  offset="1" style="stop-color:#28B67A"/>
			</linearGradient>
			<path class="st18" d="M30.8,2.6c-0.5-0.5-0.4-1.2,0.3-1.3l1.9-0.3c0.6-0.1,1.6,0,2.2,0.2l5,2.5c0.5,0.3,0.5,0.8-0.1,1l-3.5,0.7
				C36,5.5,35,5.3,34.5,5L30.8,2.6z"/>
			<linearGradient id="SVGID_20_" gradientUnits="userSpaceOnUse" x1="56.9846" y1="26.4937" x2="11.2108" y2="-1.4953">
				<stop  offset="0" style="stop-color:#14377D"/>
				<stop  offset="1" style="stop-color:#28B67A"/>
			</linearGradient>
			<path class="st19" d="M33.8,7.5C34.2,7,35,7,35.4,7.4l2.2,2.7c0.4,0.5,0.5,1.3,0.2,1.9l-0.7,2.2c-0.2,0.6-0.9,1.1-1.6,1.1
				L28.8,15c-0.6,0-1-0.5-0.9-1.2L33.8,7.5z"/>
			<linearGradient id="SVGID_21_" gradientUnits="userSpaceOnUse" x1="54.4219" y1="30.6849" x2="8.6481" y2="2.6958">
				<stop  offset="0" style="stop-color:#14377D"/>
				<stop  offset="1" style="stop-color:#28B67A"/>
			</linearGradient>
			<path class="st20" d="M37.1,16.9c0.2-0.2,0.3-0.4,0.6-0.5c0.2-0.1,0.3,0,0.5,0c0.2,0.1,0.4,0.2,0.7,0.3l5.1,2.6
				c0.6,0.3,0.7,1,0.4,1.5l-2.9,5.7c-0.3,0.6-0.9,0.7-1.5,0.4l-6.1-4.5c-0.5-0.4-0.7-1.2-0.4-1.7L37.1,16.9z"/>
			<linearGradient id="SVGID_22_" gradientUnits="userSpaceOnUse" x1="48.8741" y1="39.7579" x2="3.1003" y2="11.7688">
				<stop  offset="0" style="stop-color:#14377D"/>
				<stop  offset="1" style="stop-color:#28B67A"/>
			</linearGradient>
			<path class="st21" d="M32,23.4c0.3-0.6,1-0.7,1.5-0.3l6,4.5c0.5,0.4,0.7,1.1,0.3,1.6L36.2,35c-0.4,0.6-0.8,1-1.5,1l-4.2-0.3
				c-0.6,0-1.2-0.5-1.2-1.2c0,0,0-0.8-0.1-2.1c-0.1-1-0.1-2-0.1-2c0-0.6,0.2-1.6,0.5-2.2L32,23.4z"/>
			<linearGradient id="SVGID_23_" gradientUnits="userSpaceOnUse" x1="42.5042" y1="50.1753" x2="-3.2696" y2="22.1862">
				<stop  offset="0" style="stop-color:#14377D"/>
				<stop  offset="1" style="stop-color:#28B67A"/>
			</linearGradient>
			<path class="st22" d="M28.7,37.5c0.3-0.6,1.1-1,1.7-1l4.4,0.3c0.6,0,1.4,0.6,1.6,1.2l2.1,4.9c0.3,0.6,0,1.2-0.6,1.5l-11.4,4.4
				c-0.6,0.2-0.8,0.1-0.7-0.5L28.7,37.5z"/>
			<linearGradient id="SVGID_24_" gradientUnits="userSpaceOnUse" x1="40.7388" y1="53.0978" x2="-5.1879" y2="25.0152">
				<stop  offset="0" style="stop-color:#14377D"/>
				<stop  offset="1" style="stop-color:#28B67A"/>
			</linearGradient>
			<path class="st23" d="M30.5,52c-0.1,0-0.2,0-0.2,0.1c-1.4,0.3-2.5-0.5-3.7-1.2c-0.5-0.3-0.6-1,0-1.3l11.1-4.4
				c0.6-0.2,0.8,0,0.5,0.6l-1.6,3.6c-0.3,0.6-1,1.2-1.6,1.4c-1,0.3-2.1,0.5-3.1,0.8C31.4,51.7,31,51.9,30.5,52z"/>
			<linearGradient id="SVGID_25_" gradientUnits="userSpaceOnUse" x1="44.8307" y1="46.3705" x2="-0.9431" y2="18.3815">
				<stop  offset="0" style="stop-color:#14377D"/>
				<stop  offset="1" style="stop-color:#28B67A"/>
			</linearGradient>
			<path class="st24" d="M38.1,49.4c-0.5,0.3-0.8,0.1-0.5-0.5l1.6-3.4c0.3-0.5,1-1.3,1.5-1.7l4.4-4.5c0.4-0.4,0.5-0.3,0.5,0.3
				l-0.1,3c0,0.6-0.3,1.5-0.8,1.9L38.1,49.4z"/>
			<linearGradient id="SVGID_26_" gradientUnits="userSpaceOnUse" x1="27.3555" y1="47.2437" x2="-4.518" y2="27.7541">
				<stop  offset="0" style="stop-color:#14377D"/>
				<stop  offset="1" style="stop-color:#28B67A"/>
			</linearGradient>
			<path class="st25" d="M3.2,33.5c0.3-0.7,0.3-1.9,0-2.6l-0.3-0.7c-0.4-1.1-0.9-2.4-2.1-2.8c-0.2-0.1-0.5-0.1-0.6,0.1
				C0,27.6,0,27.7,0,27.8c0,1.2,0.4,2.3,0.7,3.3c0.3,1.1,0.6,2.2,1,3.3c0,0.1,0.1,0.2,0.1,0.3c0.2,0.7,0.6,0.8,0.9,0L3.2,33.5z"/>
		</g>
		<g>
			<path class="st26" d="M84.7,20.2c0,6-4.3,9.9-11.7,9.9c-1.5,0-2.8,0-3.9-0.1v9.7c-0.8,0.2-1.6,0.3-2.5,0.3
				c-0.8,0-1.6-0.1-2.5-0.3V11.9c2.3-0.6,5.3-1,8.7-1C81.1,10.9,84.7,14.7,84.7,20.2z M79.5,20.2c0-3-2.1-4.9-6.6-4.9
				c-1.3,0-2.6,0.1-3.9,0.2v10.2c1.1,0.1,2.4,0.1,3.9,0.1C77.7,25.8,79.5,23.5,79.5,20.2z"/>
			<path class="st26" d="M85.4,29.3c0-6.4,4.7-11,11.1-11c6.4,0,10.9,4.5,10.9,11c0,6.4-4.7,11-11.1,11
				C89.9,40.3,85.4,35.8,85.4,29.3z M102.3,29.3c0-4-2.3-6.7-6-6.7s-6,2.8-6,6.7c0,3.9,2.3,6.6,6,6.6S102.3,33.3,102.3,29.3z"/>
			<path class="st26" d="M110.4,39.6V10.9c0.8-0.2,1.6-0.2,2.4-0.2c0.8,0,1.7,0,2.5,0.2v28.7c-0.8,0.2-1.7,0.2-2.5,0.2
				C112.1,39.9,111.3,39.8,110.4,39.6z"/>
			<path class="st26" d="M139.6,19.3c-2.6,13.1-7.1,21.9-15.6,29.4c-1.6-0.4-2.7-1.8-3.1-3.2c2.2-2.1,4.2-4.3,5.6-6.4
				c-4.1-6.6-6.3-12.8-8-19.9c0.8-0.3,2.1-0.4,3.4-0.4c0.6,0,1.4,0.1,2,0.2c1.1,5.3,2.8,10.3,5.2,15.4c0.1,0.3,0.3,0.6,0.4,0.9
				c0.1-0.3,0.2-0.6,0.4-0.9c2.4-4.9,3.7-10.1,4.7-15.4c0.6-0.1,1.4-0.2,2-0.2C137.6,18.8,138.7,19,139.6,19.3z"/>
			<path class="st26" d="M165.8,11.6v27.8c-1.4,0.3-3.1,0.4-4.6,0.4l-13-18.6l-0.8-1.5l0.1,1.7v18.2c-0.9,0.2-1.6,0.3-2.4,0.3
				c-0.8,0-1.5-0.1-2.4-0.3V11.9c1-0.4,3-0.7,4.6-0.4l12.9,18.6l0.8,1.4l-0.1-2V11.6c0.9-0.2,1.5-0.3,2.4-0.3
				C164.1,11.3,164.9,11.4,165.8,11.6z"/>
			<path class="st26" d="M169,29.3c0-6.4,4.7-11,11.1-11c6.4,0,10.9,4.5,10.9,11c0,6.4-4.7,11-11.1,11C173.5,40.3,169,35.8,169,29.3
				z M185.9,29.3c0-4-2.3-6.7-6-6.7s-6,2.8-6,6.7c0,3.9,2.3,6.6,6,6.6S185.9,33.3,185.9,29.3z"/>
			<path class="st26" d="M212.8,19.3c-1.9,7.7-4.7,14.7-8,20.4c-0.8,0.2-1.6,0.2-2.4,0.2c-0.8,0-1.6,0-2.4-0.2
				c-3.8-6.3-6.2-12.8-8.1-20.4c0.7-0.2,2.1-0.4,3.4-0.4c0.7,0,1.4,0.1,1.9,0.2c1.6,6.3,3.6,12,5.1,15.4c0.1,0.2,0.2,0.4,0.2,0.7
				l0.3-0.7c1.7-3.9,3.5-9.1,5-15.4c0.6-0.1,1.3-0.2,1.9-0.2C210.8,18.8,212,19,212.8,19.3z"/>
			<path class="st26" d="M213.3,29.3c0-6.4,4.7-11,11.1-11c6.4,0,10.9,4.5,10.9,11c0,6.4-4.7,11-11.1,11
				C217.8,40.3,213.3,35.8,213.3,29.3z M230.3,29.3c0-4-2.3-6.7-6-6.7s-6,2.8-6,6.7c0,3.9,2.3,6.6,6,6.6S230.3,33.3,230.3,29.3z"/>
		</g>
	</g>
</svg>
