<svg id="Layer_1" data-name="Layer 1" xmlns="http://www.w3.org/2000/svg" xmlns:xlink="http://www.w3.org/1999/xlink" viewBox="0 0 261.92679 142.6353" height="91px" width="129px"><defs><style>.cls-1{fill:url(#linear-gradient);}.cls-2{fill:url(#linear-gradient-2);}</style><linearGradient id="linear-gradient" x1="23.30951" y1="101.41239" x2="245.59751" y2="-26.92565" gradientUnits="userSpaceOnUse"><stop offset="0" stop-color="#0066b3"/><stop offset="0.7" stop-color="#00a1e4"/><stop offset="1" stop-color="#0066b3"/></linearGradient><linearGradient id="linear-gradient-2" x1="15.05604" y1="168.71313" x2="216.04606" y2="52.67149" gradientUnits="userSpaceOnUse"><stop offset="0" stop-color="#fdb913"/><stop offset="0.7" stop-color="#ffec00"/><stop offset="1" stop-color="#fdb913"/></linearGradient></defs><path class="cls-1" d="M42.7203,36.8438c10.54631,0,15.6479-3.397,15.6479-14.8477,0-5.6709-2.7212-8.0547-8.8418-8.0547H44.4219l-4.874,22.9024Zm71.54631,15.5371-.34371-8.28031q-.331-7.99213-.3379-15.98529c0-3.7422.2275-8.4995.68161-14.398a154.18692,154.18692,0,0,1-6.68841,17.2329L97.8233,52.3809ZM160.7217,84.356c-16.2158,0-24.4892-7.4785-24.4892-22.3316,0-5.3315,1.70111-13.833,4.1953-25.8486,2.3769-11.11621,4.4219-18.82521,6.79981-23.0205C152.55861,3.9698,160.26761,0,172.2881,0c15.3008,0,22.89851,6.5801,22.89851,19.958a53.546,53.546,0,0,1-.56451,7.0318H177.8409c.34371-3.4058.5644-5.6695.5644-6.6909,0-5.5542-2.2656-8.1631-7.13669-8.1631-4.99411,0-7.48831,2.7212-9.52731,8.7314-1.0196,3.0591-2.72069,10.3145-5.2149,21.8823-2.039,9.7525-3.0586,16.43709-3.0586,19.8399,0,5.78319,2.6045,8.957,7.3643,8.957,6.6894,0,9.2998-4.6465,11.1123-15.3081h17.0078C186.3418,75.4009,177.503,84.356,160.7217,84.356Zm66.01569-5.6621a8.01559,8.01559,0,0,1-6.6827,4.2988h-15.455l-6.17-81.6352h17.6905l1.81542,41.95109a226.05923,226.05923,0,0,1,.043,25.16851A144.25385,144.25385,0,0,1,223.875,51.1309l18.3965-45.3926a7.5954,7.5954,0,0,1,6.5049-4.3808h13.1504ZM30.7735,78.3677a6.1074,6.1074,0,0,1-5.7031,4.625H12.6749L30.024,1.3575H50.3184c17.57321,0,25.9639,4.1938,25.9639,16.4414,0,15.4189-6.5723,23.5839-20.7491,25.50969,8.504.90581,12.586,4.648,12.586,11.67971a49.941,49.941,0,0,1-.5654,6.3482l-1.4737,9.8652a46.72394,46.72394,0,0,0-.5683,7.25589,37.01435,37.01435,0,0,0,.34081,4.53511H47.711c.5683-13.3789,3.3999-21.99711,3.3999-26.4184,0-5.8936-3.1724-6.9161-11.1118-6.9161H36.8238Zm35.07911,4.625L105.6495,1.3575h22.3398l4.6436,81.6352H115.5137l-.792-18.37011H92.27061L85.8457,78.6939a8.02853,8.02853,0,0,1-6.6884,4.2988Z"/><path class="cls-2" d="M138.6895,92.729l-3.0098,14.1817q25.0518-3.42195,50.09091-4.6367a1.26182,1.26182,0,0,0,1.37589-1.02541l1.9405-9.16209Q163.74075,91.4829,138.6895,92.729ZM65.9913,120.8482a576.78574,576.78574,0,0,1,62.6552-12.93261,1.89317,1.89317,0,0,0,1.8242-1.57909l2.8311-13.3184q-31.70355,1.80465-62.7686,6.4668ZM194.3819,92.2368l-2.0694,9.752q22.21289-.8349,44.30469.0449a.97907.97907,0,0,0,1.041-.6562c.0069-.0196,2.9551-6.1543,2.9551-6.1543Q217.40289,92.94679,194.3819,92.2368ZM0,142.6353a581.75488,581.75488,0,0,1,58.3008-19.67971,3.00955,3.00955,0,0,0,2.4326-2.42579l4.2901-20.1914q-29.64915,4.686-58.5586,11.874Z"/></svg>