<svg version="1.1"
	 xmlns="http://www.w3.org/2000/svg" xmlns:xlink="http://www.w3.org/1999/xlink" x="0px" y="0px" viewBox="0 0 316.9 76"
	 style="enable-background:new 0 0 316.9 76;" xml:space="preserve" height="45px" width="191px">
<style type="text/css">
	.st0{fill:#E21E2D;}
	.st1{fill:#FFFFFF;}
	.st2{fill:#2E2C30;}
</style>
	<g>
		<path class="st0" d="M0,37.8c-0.1,21,16.8,38.1,37.8,38.2c21,0.1,38.1-16.8,38.2-37.8C76.1,17.2,59.2,0.1,38.2,0H38
			C17.1,0,0.1,16.9,0,37.8z"/>
		<path class="st1" d="M38,16c-0.1,0-0.3,0-0.4,0.1L17.4,36.5c-0.1,0.1-0.2,0.4-0.1,0.6c0.1,0.2,0.3,0.3,0.5,0.3h4.8
			c0.9,0,1.7,0.7,1.7,1.7v17.3c0,0.3,0.2,0.5,0.5,0.5h26.6c0.3,0,0.5-0.2,0.5-0.5V39c0-0.9,0.7-1.7,1.7-1.7h4.8
			c0.2,0,0.4-0.1,0.5-0.3c0.1-0.2,0-0.4-0.1-0.6L38.4,16.2C38.3,16.1,38.1,16,38,16L38,16z M51.3,60.1H24.7c-2.1,0-3.8-1.7-3.8-3.8
			V40.7h-3.2c-1.5,0-2.9-0.9-3.5-2.3c-0.6-1.4-0.3-3.1,0.8-4.1l20.3-20.4c0.7-0.7,1.7-1.1,2.7-1.1c1,0,2,0.4,2.7,1.1l20.3,20.4
			c1.1,1.1,1.4,2.7,0.8,4.1c-0.6,1.4-2,2.3-3.5,2.3h-3.2v15.6C55.1,58.4,53.4,60.1,51.3,60.1L51.3,60.1z"/>
		<path class="st2" d="M95.9,27.8v9.9h6.5c3.6,0,5.7-1.7,5.7-4.9c0-3.3-2.2-5-5.7-5H95.9z M109.2,55.3l-8.8-12.1h-4.5v12.1h-6.4
			V22.1h13.3c7.5,0,12.2,4,12.2,10.7c0,4.9-3,8.4-7.7,9.8l9.7,12.7L109.2,55.3L109.2,55.3z"/>
		<polygon class="st2" points="143.1,27.8 126.3,27.8 126.3,35.5 141,35.5 141,41.1 126.3,41.1 126.3,49.5 143.1,49.5 143.1,55.3 
			119.8,55.3 119.8,22.1 143.1,22.1 		"/>
		<path class="st2" d="M157.6,41.4h8.5l-4.3-11.6L157.6,41.4z M171.2,55.3l-3.2-8.6h-12.4l-3.2,8.6h-6.7l13-33.2h6.3l13.1,33.2
			H171.2L171.2,55.3z"/>
		<path class="st2" d="M219.1,37c0.1,0.9,0.2,1.7,0.2,2.5c0,10.5-7,16.3-15.7,16.3c-9.2,0-16.6-6.9-16.6-17.2
			c0-10.3,7-17.2,16.6-17.2c6.1,0,12.3,3.2,14.8,9.6l-5.5,2.9c-1.8-4.4-4.9-6.6-9.2-6.6c-5.6,0-9.8,4.2-9.8,11.2s4.5,11.2,9.8,11.2
			c5.4,0,8.4-2.9,9.1-7.6h-9.1V37L219.1,37L219.1,37z"/>
		<path class="st2" d="M236.5,30.3v6.5H234c-2.8,0-4.9,2-4.9,5.6v12.8H223V30.8h6.1v3.5c1.4-2.8,3.6-4.1,6.2-4.1H236.5z"/>
		<path class="st2" d="M256.5,43c0-4.6-2.7-7.3-6.4-7.3c-3.7,0-6.3,2.7-6.3,7.3c0,4.6,2.7,7.4,6.3,7.4S256.5,47.7,256.5,43z
			 M237.6,43c0-7.5,5.4-12.8,12.6-12.8c7.2,0,12.7,5.2,12.7,12.8c0,7.5-5.4,12.8-12.7,12.8S237.6,50.6,237.6,43z"/>
		<path class="st2" d="M266.2,45.4V30.8h6.2v14.2c0,3.7,1.9,5.3,4.6,5.3c2.6,0,4.6-1.7,4.6-5.3V30.8h6.2v14.6
			c0,6.5-4.6,10.4-10.8,10.4C270.8,55.8,266.2,52,266.2,45.4L266.2,45.4z"/>
		<path class="st2" d="M310.6,43.1c0-4.7-2.6-7.4-6.2-7.4c-3.6,0-6.2,2.7-6.2,7.4c0,4.7,2.6,7.3,6.2,7.3S310.6,47.8,310.6,43.1z
			 M316.9,43c0,7.4-4.6,12.8-11,12.8c-3.7,0-6.1-1.8-7.6-4.2v11.6h-6.1V30.8h6.1v3.5c1.5-2.4,3.9-4.1,7.6-4.1
			C312.2,30.3,316.9,35.7,316.9,43z"/>
	</g>
</svg>
