<svg version="1.1" xmlns="http://www.w3.org/2000/svg" xmlns:xlink="http://www.w3.org/1999/xlink" x="0px" y="0px" viewBox="0 0 411 98.5"
	 style="enable-background:new 0 0 411 98.5;" xml:space="preserve"  height="34" width="141">
<style type="text/css">
	.st0{fill:#FFFFFF;}
</style>
	<g>
		<g>
			<path class="st0" d="M49.8,21c-0.1-0.1-0.3-0.2-0.5-0.2h0c-0.2,0-0.3,0.1-0.5,0.2L22.5,47.4c-0.2,0.2-0.2,0.5-0.1,0.7
				c0.1,0.2,0.3,0.4,0.6,0.4h6.3c1.2,0,2.1,1,2.1,2.1v22.4c0,0.4,0.3,0.7,0.7,0.7h34.5c0.4,0,0.7-0.3,0.7-0.7V50.7
				c0-1.2,1-2.1,2.1-2.1h6.3c0.3,0,0.5-0.2,0.6-0.4s0-0.5-0.1-0.7L49.8,21z"/>
			<path class="st0" d="M49.5,0h-0.3C22.2,0,0.1,21.9,0,49c-0.2,27.2,21.8,49.4,49,49.5c27.2,0.2,49.4-21.8,49.5-49
				C98.7,22.3,76.7,0.1,49.5,0z M80.1,49.7c-0.8,1.9-2.6,3-4.6,3h-4.1V73c0,2.7-2.2,4.9-4.9,4.9H32c-2.7,0-4.9-2.2-4.9-4.9V52.8H23
				c-2,0-3.8-1.2-4.6-3c-0.8-1.9-0.4-4,1.1-5.4l26.3-26.4c0.9-0.9,2.2-1.5,3.5-1.5c1.3,0,2.6,0.5,3.5,1.5l26.3,26.4
				C80.5,45.8,80.9,47.9,80.1,49.7z"/>
		</g>
		<path class="st0" d="M124.4,36.1v12.8h8.4c4.7,0,7.4-2.2,7.4-6.4c0-4.2-2.8-6.5-7.4-6.5H124.4z M141.6,71.7L130.2,56h-5.8v15.7
			h-8.4v-43h17.2c9.8,0,15.8,5.2,15.8,13.9c0,6.3-3.9,10.9-10,12.7l12.6,16.5L141.6,71.7L141.6,71.7z"/>
		<polygon class="st0" points="185.6,36.1 163.8,36.1 163.8,46 182.9,46 182.9,53.4 163.8,53.4 163.8,64.2 185.6,64.2 185.6,71.7 
			155.4,71.7 155.4,28.6 185.6,28.6 		"/>
		<path class="st0" d="M204.4,53.7h11.1l-5.5-15L204.4,53.7z M222.1,71.7L218,60.6h-16.1l-4.1,11.1H189l16.9-43h8.2l17,43H222.1
			L222.1,71.7z"/>
		<path class="st0" d="M284.2,48c0.2,1.2,0.2,2.2,0.2,3.3c0,13.6-9.1,21.2-20.4,21.2c-12,0-21.5-8.9-21.5-22.3
			c0-13.4,9-22.3,21.5-22.3c7.9,0,15.9,4.1,19.2,12.5l-7.2,3.8c-2.4-5.7-6.4-8.6-12-8.6c-7.3,0-12.7,5.5-12.7,14.6
			S257,64.7,264,64.7c7,0,10.9-3.8,11.8-9.9H264V48L284.2,48L284.2,48z"/>
		<path class="st0" d="M306.8,39.3v8.5h-3.3c-3.7,0-6.3,2.6-6.3,7.3v16.6h-7.9V40h7.9v4.5c1.8-3.7,4.7-5.3,8-5.3H306.8z"/>
		<path class="st0" d="M332.8,55.8c0-6-3.6-9.5-8.3-9.5c-4.7,0-8.2,3.4-8.2,9.5c0,6,3.5,9.6,8.2,9.6S332.8,61.9,332.8,55.8z
			 M308.2,55.8c0-9.8,6.9-16.5,16.3-16.5c9.4,0,16.4,6.8,16.4,16.5c0,9.8-6.9,16.6-16.4,16.6S308.2,65.6,308.2,55.8z"/>
		<path class="st0" d="M345.3,58.9V40h8v18.5c0,4.7,2.5,6.9,6,6.9c3.4,0,6-2.2,6-6.9V40h8v18.9c0,8.5-6,13.5-14,13.5
			C351.3,72.4,345.3,67.4,345.3,58.9L345.3,58.9z"/>
		<path class="st0" d="M402.9,55.9c0-6.1-3.3-9.5-8-9.5c-4.7,0-8.1,3.4-8.1,9.5c0,6.1,3.3,9.5,8.1,9.5
			C399.6,65.3,402.9,62,402.9,55.9z M411,55.8c0,9.5-6,16.6-14.2,16.6c-4.7,0-7.9-2.3-9.8-5.4v15.1H379V40h7.9v4.5
			c2-3.1,5.1-5.3,9.8-5.3C405,39.3,411,46.3,411,55.8z"/>
	</g>
</svg>
