<svg  height="56" width="152"
	 xmlns="http://www.w3.org/2000/svg" xmlns:xlink="http://www.w3.org/1999/xlink" x="0px" y="0px" viewBox="0 0 521.9 155.9"
	 style="enable-background:new 0 0 521.9 155.9;" xml:space="preserve">
<style type="text/css">
	.st0{display:none;fill:none;}
	.st1{fill:#FFFFFF;}
	.st2{fill:#003E6B;}
	.st3{fill:#AE132A;}
</style>
	<g>
		<g>
			<rect x="-28.3" y="-28.4" class="st0" width="578.6" height="212.6"/>
			<rect class="st1" width="521.9" height="155.9"/>
			<g>
				<path class="st2" d="M84.5,32.9c0-7.1-4.8-16.1-14.9-25.7l-0.1-0.1H7.1v141.7h62c0,0-19.1-20.8-19.1-47.1
					C50,63.3,84.5,60.9,84.5,32.9z"/>
				<path class="st3" d="M514.8,7.1H86.6c8.6,9,14,18.4,14,30.6c0,29.5-23.7,34.1-23.7,57.1c0,23,19,41.3,35.1,54.1h402.8V7.1z"/>
			</g>
			<path class="st1" d="M165.5,44.6c14.9,0,30.7,2.2,30.7,18.4c0,8.2-5.4,13.7-14.8,16.7c12.5,20.1,17.9,25.4,26.4,32.3h-15.7
				c-9-6.8-10.4-8.5-22.9-25.8c-1.8-2.6-2.1-4-6.5-4V94c0,7.3,0,14.3,1.5,18h-18.1c1.7-2.2,2.7-5.6,2.7-11.9v-44
				c0-7.2-0.1-8.5-2.8-11.5H165.5z M162.8,77.2c6.8-0.1,9.5-1.1,11.3-2c3.9-2.1,7.2-5.7,7.2-11.7c0-2.5-0.6-13.5-18.6-13.5
				L162.8,77.2z"/>
			<path class="st1" d="M229.9,44.6c-2.4,3.7-2.7,7.2-2.7,18.6v30.3c0,11.4,0,14,2.7,18.5h-19.1c2.8-4.5,2.8-7.1,2.8-18.6V63.2
				c0-11.7-0.2-14.8-2.7-18.6H229.9z"/>
			<path class="st1" d="M264.1,44.6c21.8,0,44,7.9,44,33c0,23.4-21.4,34.4-44,34.4h-21.8c1.9-3.3,2.6-5.1,2.6-11.6V56.1
				c0-6.8-1.1-8.7-2.7-11.5H264.1z M258.7,100.6c0,4.8,2.5,5.3,5.1,5.3c18,0,28.3-12.5,28.3-26.9c0-18.2-11.1-28.4-27.7-28.4h-5.6
				V100.6z"/>
			<path class="st1" d="M337.5,44.7c-2.7,4-2.9,9.4-2.9,18.6v35.6c0,5.6,2.8,6.2,6.5,6.2c7.6,0,13.9-0.1,20.8-3l-3.1,9.9H318
				c2.4-3.6,2.9-7.9,2.9-18.4c-0.1-32.6-0.1-34.7-0.1-36.6c0-5.5-0.3-9.2-2.7-12.3H337.5z"/>
			<path class="st1" d="M400.1,44.6c4.6,0,8.1-0.4,9.9-0.6v11.4c-3.3-2.3-5.3-3.8-10-3.8h-14.2v21.6H400c3.9,0,6.7-0.5,8.8-1.6v10
				c-2-1.2-4.1-1.6-8.8-1.6h-14.2v20.3c0,4.6,2.5,5,4.1,5c0.4,0,0.7,0,11.9-0.1c4.1,0,7.2-0.7,11.3-2.9L410,112h-40.8
				c2.4-3.5,2.8-5.1,2.8-11.5V56.2c0-7.3-0.5-8.7-2.8-11.6H400.1z"/>
			<path class="st1" d="M436,44.6c1.3,6.3,4.8,11.2,7.5,15.7l7.1,11.8l5.7-9c1.9-3,7-11.8,8.2-18.5h12.3
				c-5.5,6.1-8.3,10.6-13.2,18.7l-10.2,16.8v20.8c0,4.5,0,7,2.9,11.1h-19.6c2.8-4.5,2.9-6.3,2.9-11.6V80.2L425,56.3
				c-2.9-4.7-3.7-6.6-8.4-11.7H436z"/>
		</g>
	</g>
</svg>
