
<svg version="1.1" id="Layer_1"  xmlns="http://www.w3.org/2000/svg" xmlns:xlink="http://www.w3.org/1999/xlink" x="0px" y="0px" viewBox="0 0 1125.4 333.8"
	 style="enable-background:new 0 0 1125.4 333.8;" xml:space="preserve"  height="41" width="140">
<style type="text/css">
	.st0{fill:#FFFFFF;}
</style>

	<g>
		<g>
			<g>
				<path class="st0" d="M405.8,122.1c-2.1,1.8-3.2,4.1-3.2,7c0,2.9,1.3,5.2,3.9,6.9c2.6,1.7,8.7,3.7,18.1,6.1
					c9.5,2.3,16.8,5.8,22.1,10.5c5.2,4.7,7.9,11.5,7.9,20.4c0,8.9-3.4,16.2-10.1,21.8s-15.5,8.4-26.5,8.4c-15.8,0-30-5.9-42.7-17.6
					l13.3-16.3c10.8,9.4,20.7,14.1,29.8,14.1c4.1,0,7.3-0.9,9.6-2.6c2.3-1.8,3.5-4.1,3.5-7.1c0-3-1.2-5.4-3.7-7.1
					c-2.5-1.8-7.4-3.5-14.7-5.4c-11.6-2.8-20.1-6.4-25.5-10.8c-5.4-4.4-8.1-11.4-8.1-20.8c0-9.5,3.4-16.8,10.2-21.9
					c6.8-5.1,15.3-7.7,25.5-7.7c6.7,0,13.3,1.1,20,3.4c6.7,2.3,12.5,5.5,17.4,9.7l-11.3,16.3c-8.7-6.6-17.6-9.9-26.8-9.9
					C410.8,119.4,407.9,120.3,405.8,122.1z"/>
				<g>
					<path class="st0" d="M468.9,115.4c-2.4-2.4-3.6-5.4-3.6-8.9c0-3.5,1.2-6.5,3.6-8.9c2.4-2.4,5.4-3.6,8.9-3.6
						c3.5,0,6.5,1.2,8.9,3.6c2.4,2.4,3.6,5.4,3.6,8.9c0,3.5-1.2,6.5-3.6,8.9c-2.4,2.4-5.4,3.6-8.9,3.6
						C474.3,119,471.3,117.8,468.9,115.4z M488.5,202h-21.4v-76.8h21.4V202z"/>
				</g>
				<path class="st0" d="M562.8,189c-6.8,7.5-15.2,11.3-25.2,11.3c-10,0-18.5-3.4-25.4-10.2c-6.9-6.8-10.4-15.9-10.4-27.3
					c0-11.4,3.5-20.7,10.6-28c7.1-7.3,15.2-10.9,24.3-10.9c9.1,0,16.7,3.8,22.7,11.3V125h21.4v67c0,6.9-1.2,12.9-3.6,18.3
					c-2.4,5.3-5.6,9.5-9.6,12.6c-7.9,6.3-17.2,9.4-28,9.4c-5.7,0-11.5-0.9-17.5-2.8c-6-1.9-11.2-4.5-15.6-7.9l8.3-16.1
					c7,5.3,14.5,8,22.3,8c7.9,0,14.1-2,18.6-5.9C560.5,203.6,562.8,197.5,562.8,189z M559.8,161.9c0-6.1-1.7-11-5.1-14.5
					c-3.4-3.5-7.7-5.3-12.7-5.3c-5,0-9.4,1.8-13.1,5.3c-3.7,3.5-5.5,8.3-5.5,14.4c0,6.1,1.8,11,5.4,14.8c3.6,3.8,7.9,5.6,13.1,5.6
					c5.1,0,9.4-1.9,12.9-5.6C558.1,173,559.8,168.1,559.8,161.9z"/>
				<path class="st0" d="M668.9,160.6V202h-21.6v-42c0-6.1-0.9-10.6-2.8-13.4c-1.9-2.9-4.9-4.3-9-4.3s-7.8,1.5-11,4.6
					c-3.2,3.1-4.8,7.6-4.8,13.6V202h-21.4v-76.8h21.4v8.7c5.9-6.7,12.7-10,20.3-10c4.9,0,9.3,1.4,13.2,4.3c3.9,2.9,6.9,6.3,8.9,10.4
					c3-4.7,6.9-8.3,11.9-10.9c5-2.6,10-3.9,15.1-3.9c9,0,16.3,2.7,21.8,8.1c5.5,5.4,8.3,13.2,8.3,23.3V202h-21.6v-42
					c0-11.8-4.3-17.7-13-17.7c-4.3,0-8,1.5-11.1,4.6C670.4,150,668.9,154.6,668.9,160.6z"/>
				<path class="st0" d="M801.1,202H781v-9.3c-5.5,7-12.4,10.4-20.5,10.4c-8.1,0-15-2.4-20.5-7.1c-5.5-4.7-8.3-11-8.3-18.8
					c0-7.9,2.9-13.7,8.6-17.6c5.7-3.9,13.5-5.9,23.4-5.9h16v-0.4c0-8.2-4.3-12.3-13-12.3c-3.7,0-7.6,0.7-11.8,2.2
					c-4.1,1.5-7.6,3.3-10.5,5.5l-9.6-13.9c10.1-7.3,21.6-11,34.6-11c9.3,0,16.9,2.3,22.8,7c5.9,4.7,8.9,12,8.9,22.1V202z
					 M779.5,172.7V169h-13.4c-8.6,0-12.9,2.7-12.9,8c0,2.8,1,4.9,3.1,6.4c2,1.5,5,2.2,8.8,2.2c3.8,0,7.2-1.2,10.1-3.5
					C778.1,179.7,779.5,176.6,779.5,172.7z"/>
				<g>
					<path class="st0" d="M444.4,232.8h22.3v99.8h-22.3v-39.3h-39.7v39.3h-22.3v-99.8h22.3v41.7h39.7V232.8z"/>
					<path class="st0" d="M549.7,321.5c-8.7,8.2-18.8,12.3-30.5,12.3c-11.7,0-21.3-3.6-28.9-10.8c-7.6-7.2-11.4-16.8-11.4-28.9
						c0-12.1,3.9-21.7,11.6-28.8c7.8-7.1,16.9-10.7,27.5-10.7c10.6,0,19.5,3.2,26.9,9.6c7.4,6.4,11.1,15.1,11.1,26.3v11.4h-56
						c0.7,4.2,2.9,7.6,6.6,10.3c3.7,2.7,7.9,4,12.6,4c7.5,0,13.7-2.5,18.6-7.6L549.7,321.5z M529.1,276c-3-2.5-6.5-3.7-10.8-3.7
						c-4.2,0-8.1,1.3-11.6,3.9c-3.5,2.6-5.6,6-6.1,10.4h33.7C533.8,282,532,278.4,529.1,276z"/>
					<path class="st0" d="M632.7,332.6h-20.1v-9.3c-5.5,7-12.4,10.4-20.5,10.4c-8.1,0-15-2.4-20.5-7.1c-5.5-4.7-8.3-11-8.3-18.8
						c0-7.9,2.9-13.7,8.6-17.6c5.7-3.9,13.5-5.9,23.4-5.9h16V284c0-8.2-4.3-12.3-13-12.3c-3.7,0-7.6,0.7-11.8,2.2
						c-4.1,1.5-7.6,3.3-10.5,5.5l-9.6-13.9c10.1-7.3,21.6-11,34.6-11c9.3,0,16.9,2.3,22.8,7c5.9,4.7,8.9,12,8.9,22.1V332.6z
						 M611.1,303.4v-3.7h-13.4c-8.6,0-12.9,2.7-12.9,8c0,2.8,1,4.9,3.1,6.4c2,1.5,5,2.2,8.8,2.2c3.8,0,7.2-1.2,10.1-3.5
						C609.7,310.4,611.1,307.3,611.1,303.4z"/>
					<path class="st0" d="M668.9,332.6h-21.6v-106h21.6V332.6z"/>
					<path class="st0" d="M713.6,271.2v34.4c0,3,0.8,5.3,2.3,6.9c1.5,1.7,3.3,2.5,5.4,2.5c4,0,7.4-1.8,10.1-5.4l8,15
						c-6.7,6.1-13.7,9.1-21.1,9.1c-7.4,0-13.6-2.4-18.7-7.3c-5.1-4.9-7.6-11.5-7.6-19.8v-35.4h-9v-15.4h9v-23h21.6v23h18.6v15.4
						H713.6z"/>
					<path class="st0" d="M770,291.2v41.4h-21.4v-106H770v37.7c6.5-6.6,13.7-9.9,21.8-9.9c8,0,14.8,2.9,20.3,8.6
						c5.5,5.7,8.3,13.3,8.3,22.8v46.7H799v-42c0-11.8-4.3-17.7-13-17.7c-4.3,0-8,1.5-11.2,4.6C771.6,280.7,770,285.2,770,291.2z"/>
					<path class="st0" d="M873.8,314.8c7.1,0,13.6-3.6,19.3-10.7l12.7,14.3c-9.9,10.3-20.6,15.4-32.1,15.4
						c-11.5,0-21.3-3.6-29.2-10.9c-7.9-7.3-11.9-16.8-11.9-28.6c0-11.8,4-21.3,12.1-28.7c8-7.4,17.6-11.1,28.6-11.1
						c5.5,0,11.1,1.1,16.8,3.4c5.7,2.3,10.6,5.7,14.9,10.1l-11.1,14.6c-2.5-2.9-5.5-5.2-9.1-6.9c-3.6-1.6-7.1-2.4-10.6-2.4
						c-5.6,0-10.4,1.8-14.5,5.5c-4,3.7-6.1,8.8-6.1,15.3c0,6.5,2,11.6,6.1,15.2C863.6,313,868.3,314.8,873.8,314.8z"/>
					<path class="st0" d="M982.4,332.6h-20.1v-9.3c-5.5,7-12.4,10.4-20.5,10.4c-8.1,0-15-2.4-20.5-7.1c-5.5-4.7-8.3-11-8.3-18.8
						c0-7.9,2.9-13.7,8.6-17.6c5.7-3.9,13.5-5.9,23.4-5.9h16V284c0-8.2-4.3-12.3-13-12.3c-3.7,0-7.6,0.7-11.8,2.2
						c-4.1,1.5-7.6,3.3-10.5,5.5l-9.6-13.9c10.1-7.3,21.6-11,34.6-11c9.3,0,16.9,2.3,22.8,7c5.9,4.7,8.9,12,8.9,22.1V332.6z
						 M960.9,303.4v-3.7h-13.4c-8.6,0-12.9,2.7-12.9,8c0,2.8,1,4.9,3.1,6.4c2,1.5,5,2.2,8.8,2.2c3.8,0,7.2-1.2,10.1-3.5
						C959.4,310.4,960.9,307.3,960.9,303.4z"/>
					<path class="st0" d="M1038.5,274.7c-6.4,0-11.1,2.3-14.3,6.8c-3.1,4.5-4.7,10.5-4.7,17.9v33.3h-21.4v-76.8h21.4V266
						c2.8-3.1,6.2-5.8,10.4-8c4.1-2.2,8.4-3.3,12.6-3.4l0.1,20.1H1038.5z"/>
					<path class="st0" d="M1119.2,321.5c-8.7,8.2-18.8,12.3-30.5,12.3c-11.7,0-21.3-3.6-28.9-10.8c-7.6-7.2-11.4-16.8-11.4-28.9
						c0-12.1,3.9-21.7,11.6-28.8c7.8-7.1,16.9-10.7,27.5-10.7c10.6,0,19.5,3.2,26.9,9.6c7.4,6.4,11.1,15.1,11.1,26.3v11.4h-56
						c0.7,4.2,2.9,7.6,6.6,10.3c3.7,2.7,7.9,4,12.6,4c7.5,0,13.7-2.5,18.6-7.6L1119.2,321.5z M1098.6,276c-3-2.5-6.5-3.7-10.8-3.7
						s-8.1,1.3-11.6,3.9c-3.5,2.6-5.6,6-6.1,10.4h33.7C1103.3,282,1101.5,278.4,1098.6,276z"/>
				</g>
			</g>
			<g>
				<path class="st0" d="M232.9,101.5c0-8,0-16,0-23.8c0-41.9,0-77,0-77.7c0,0-2.2,0-5.9,0.2c-2.5,0.2-5.5,0.4-8.8,0.7
					c-16,1.7-42,6.2-61.7,18.3c-2.3,1.4-4.6,3-6.7,4.6l-0.1,0.1c-3.4,2.8-6.5,5.9-8.9,9.4c-9.5,13.7-11.5,32.3-8.6,48.4
					c3.4,18.5,12.9,35.4,24.2,50.5c11.4,15,24.5,28.6,36.9,42.7c6.4,7.3,12.9,14.6,19.4,21.8c3.3,3.6,6.6,7.2,9.9,10.7
					c1.6,1.7,6.8,7,10.2,10.5V101.5z"/>
				<path class="st0" d="M239.6,101.5V224c5.4,3.9,14.1,8.3,25.8,8.3c14.5,0,69.3,0,69.3,0V101.5H239.6z"/>
			</g>
			<g>
				<path class="st0" d="M95.1,109.8c-5.4-3.9-14.1-8.3-25.8-8.3c-14.5,0-69.3,0-69.3,0v130.8h95.1V109.8z"/>
				<path class="st0" d="M202.5,251.9c-3.4-18.5-12.9-35.4-24.2-50.5c-11.4-15-24.5-28.6-36.9-42.7c-6.4-7.3-12.9-14.6-19.4-21.8
					c-3.3-3.6-6.6-7.2-9.9-10.7c-1.6-1.7-6.8-7-10.2-10.5v116.5h0c0,51.5,0,100.7,0,101.5c0,0,2.2,0,5.9-0.2
					c2.5-0.2,5.5-0.4,8.8-0.7c16-1.7,42-6.2,61.7-18.3c2.3-1.4,4.6-3,6.7-4.6l0.1-0.1c3.4-2.8,6.5-5.9,8.9-9.4
					C203.4,286.6,205.4,268,202.5,251.9z"/>
			</g>
		</g>
	</g>

</svg>
