<svg id="Layer_1" data-name="Layer 1" xmlns="http://www.w3.org/2000/svg" xmlns:xlink="http://www.w3.org/1999/xlink" viewBox="0 0 1125.44376 333.82297" height="48px" width="164px"><defs><style>.cls-1{fill:url(#linear-gradient);}.cls-2{fill:url(#linear-gradient-2);}.cls-3{fill:#482b88;}.cls-4{fill:url(#linear-gradient-3);}.cls-5{fill:url(#linear-gradient-4);}</style><linearGradient id="linear-gradient" x1="1101.47678" y1="-250.67481" x2="1052.97448" y2="-250.67481" gradientTransform="translate(-1007.78003 417.58631)" gradientUnits="userSpaceOnUse"><stop offset="0" stop-color="#ea6a20"/><stop offset="1" stop-color="#f7921e"/></linearGradient><linearGradient id="linear-gradient-2" x1="515.24848" y1="-520.2936" x2="562.31173" y2="-446.70285" gradientTransform="translate(687.82232 -202.22074) rotate(180)" xlink:href="#linear-gradient"/><linearGradient id="linear-gradient-3" x1="1454.63309" y1="-786.71852" x2="1406.13079" y2="-786.71852" gradientTransform="translate(1695.60235 -619.80705) rotate(180)" gradientUnits="userSpaceOnUse"><stop offset="0" stop-color="#2b1054"/><stop offset="1" stop-color="#482b88"/></linearGradient><linearGradient id="linear-gradient-4" x1="162.09217" y1="15.75011" x2="209.15542" y2="89.34086" gradientTransform="matrix(1, 0, 0, 1, 0, 0)" xlink:href="#linear-gradient-3"/></defs><path class="cls-1" d="M101.72774,115.84361A43.23864,43.23864,0,0,0,69.302,101.51509H0V232.3079H116.26028Z"/><path class="cls-2" d="M184.83379,309.87179a74.67843,74.67843,0,0,1-6.72146,4.64481c-19.72973,12.14864-45.71284,16.65814-61.72252,18.32731-3.24309.32259-6.23621.56607-8.7528.72961-3.72745.22866-5.9089.24945-5.9089.24945-.00037-1.7107-.00037-217.97933-.00037-217.97933,3.37815,3.51008,8.58278,8.77816,10.1989,10.48052q5.01843,5.28624,9.92761,10.6748,9.8398,10.76937,19.44885,21.75172c12.402,14.13683,25.56794,27.72075,36.9356,42.727,11.37172,15.01155,20.88384,31.92326,24.235,50.45517,2.91342,16.11147.90731,34.71272-8.62527,48.44962a45.80647,45.80647,0,0,1-8.90171,9.39829Z"/><path class="cls-3" d="M405.77777,122.087a8.60962,8.60962,0,0,0-3.2129,6.99643,7.90668,7.90668,0,0,0,3.92679,6.9264q3.92638,2.57023,18.13534,6.06846,14.20735,3.50141,22.06213,10.49584,7.85159,6.998,7.85358,20.42027,0,13.42422-10.06688,21.77641-10.06726,8.35418-26.48872,8.35338-23.70519,0-42.69648-17.56391l13.28057-16.27859q16.13415,14.13693,29.84409,14.13693,6.13848,0,9.6387-2.64227a8.47939,8.47939,0,0,0,3.49861-7.13969,8.324,8.324,0,0,0-3.7127-7.13969q-3.71509-2.64068-14.70835-5.35537-17.42345-4.14007-25.48912-10.78076-8.06886-6.63988-8.06767-20.84844,0-14.20735,10.21014-21.91967Q399.99185,99.882,415.274,99.88163a61.31225,61.31225,0,0,1,19.99129,3.427,53.58509,53.58509,0,0,1,17.42145,9.71033l-11.28136,16.27938q-12.99565-9.85357-26.84527-9.85358Q408.99107,119.44475,405.77777,122.087Z"/><path class="cls-3" d="M468.89212,115.3755a12.75855,12.75855,0,1,1,8.92482,3.64108A12.1377,12.1377,0,0,1,468.89212,115.3755Zm19.63475,86.60665H467.107V125.15666h21.41987Z"/><path class="cls-3" d="M562.78013,188.98729a32.51171,32.51171,0,0,1-25.2042,11.28136,34.79636,34.79636,0,0,1-25.41749-10.21013q-10.355-10.20813-10.35259-27.27423,0-17.06292,10.6383-27.98893,10.63552-10.92322,24.34706-10.924,13.70835,0,22.70439,11.28137V125.0142h21.41907v66.9719a44.45119,44.45119,0,0,1-3.56945,18.2786,31.607,31.607,0,0,1-9.56787,12.56589q-11.85438,9.425-27.98813,9.42461a58.52068,58.52068,0,0,1-17.49228-2.78473,49.86152,49.86152,0,0,1-15.63632-7.9252l8.28255-16.13613q10.56509,7.996,22.34784,7.99683,11.78037,0,18.63434-5.85437Q562.78013,201.69365,562.78013,188.98729Zm-2.99882-27.06015q0-9.21012-5.14128-14.49347a17.03209,17.03209,0,0,0-12.70834-5.28373,18.21137,18.21137,0,0,0-13.06569,5.28373q-5.49981,5.28374-5.49782,14.42184,0,9.1409,5.35456,14.78a17.3254,17.3254,0,0,0,13.06569,5.64029,16.76116,16.76116,0,0,0,12.8516-5.56866Q559.78172,171.13807,559.78131,161.92714Z"/><path class="cls-3" d="M668.87588,160.571v41.41116H647.31355V159.99956q0-9.13731-2.78393-13.423-2.78513-4.28454-8.99644-4.28413a15.3453,15.3453,0,0,0-10.99565,4.64147q-4.78592,4.64148-4.78314,13.63712v41.41116H598.33453V125.15666h21.41986v8.71073q8.852-9.99327,20.277-9.996a22.021,22.021,0,0,1,13.20815,4.28413,27.89027,27.89027,0,0,1,8.92481,10.42422A30.15832,30.15832,0,0,1,674.088,127.7273a32.65561,32.65561,0,0,1,15.0649-3.856q13.5651,0,21.848,8.06847,8.28017,8.06886,8.28255,23.34744v46.6949H697.72115V159.99956q0-17.70517-12.99486-17.70716a15.35161,15.35161,0,0,0-11.13811,4.64147Q668.87628,151.57535,668.87588,160.571Z"/><path class="cls-3" d="M801.1046,201.98215H780.96925V192.7q-8.28255,10.42542-20.4903,10.42422-12.21014,0-20.49189-7.06806-8.28255-7.06847-8.28175-18.84923,0-11.78155,8.56747-17.63553,8.56786-5.85438,23.41907-5.85517h15.99288V153.288q0-12.27937-12.99406-12.281a35.14623,35.14623,0,0,0-11.78117,2.21329,38.29162,38.29162,0,0,0-10.49584,5.49783L734.84658,134.867a57.30309,57.30309,0,0,1,34.55719-10.99565q13.99126,0,22.84764,6.99723,8.85079,6.998,8.85319,22.13376ZM779.54147,172.7087V168.996H766.11924q-12.8524,0-12.8516,7.99683a7.35164,7.35164,0,0,0,3.06964,6.35418q3.06926,2.21568,8.78235,2.21329a15.60714,15.60714,0,0,0,10.06688-3.49861A11.38155,11.38155,0,0,0,779.54147,172.7087Z"/><path class="cls-3" d="M444.4042,232.833h22.27622v99.8156H444.4042V293.3791H404.70654v39.26949H382.43032V232.833h22.27622v41.69688H444.4042Z"/><path class="cls-3" d="M549.65653,321.51048a42.9483,42.9483,0,0,1-30.48635,12.28017q-17.49387,0-28.9169-10.78077-11.4258-10.78-11.42382-28.9169,0-18.13254,11.63791-28.84527a39.2508,39.2508,0,0,1,27.48833-10.70993q15.85121,0,26.91769,9.56787,11.06409,9.56826,11.06648,26.27463V301.8041H499.96361a15.2668,15.2668,0,0,0,6.56906,10.28176,21.01521,21.01521,0,0,0,12.56589,3.99842q11.279,0,18.56351-7.56866ZM529.0938,275.95765a16.22371,16.22371,0,0,0-10.78076-3.71271,19.2958,19.2958,0,0,0-11.63791,3.856,14.74219,14.74219,0,0,0-6.14009,10.42422h33.7Q533.5188,279.67035,529.0938,275.95765Z"/><path class="cls-3" d="M632.69666,332.64859H612.56211v-9.28216q-8.28373,10.42542-20.49109,10.42422-12.21013,0-20.49189-7.06806-8.28255-7.06847-8.28175-18.84923,0-11.78157,8.56746-17.63554,8.56788-5.85437,23.41908-5.85516h15.99287v-.42818q0-12.27937-12.99406-12.281a35.146,35.146,0,0,0-11.78116,2.2133,38.29209,38.29209,0,0,0-10.49585,5.49782l-9.56707-13.8512a57.30308,57.30308,0,0,1,34.55718-10.99565q13.99248,0,22.84685,6.99723,8.85318,6.998,8.854,22.13376Zm-21.56232-29.27345v-3.7127h-13.423q-12.85239,0-12.8516,7.99683a7.35162,7.35162,0,0,0,3.06965,6.35417q3.06924,2.21569,8.78235,2.2133a15.60723,15.60723,0,0,0,10.06688-3.49861A11.38226,11.38226,0,0,0,611.13434,303.37514Z"/><path class="cls-3" d="M668.87444,332.64859H647.30251V226.69211h21.57193Z"/><path class="cls-3" d="M713.584,271.24534v34.41472a9.87483,9.87483,0,0,0,2.28492,6.92561,7.10915,7.10915,0,0,0,5.4262,2.499q5.99763,0,10.1385-5.4262l7.99684,14.99327q-9.998,9.1409-21.06252,9.1389a26.08882,26.08882,0,0,1-18.70677-7.28215q-7.64029-7.28334-7.6395-19.84883V271.24534h-8.99643V255.8231h8.99643V232.833H713.584V255.8231h18.56351v15.42224Z"/><path class="cls-3" d="M769.96227,291.23743v41.41116H748.5432V226.69211h21.41907v37.69925q9.71034-9.85358,21.77642-9.85358a27.19713,27.19713,0,0,1,20.34863,8.56826q8.28017,8.56788,8.28335,22.84765v46.6949H798.9508V290.666q0-17.70517-12.99485-17.70717a15.58685,15.58685,0,0,0-11.20894,4.64148Q769.95988,282.24177,769.96227,291.23743Z"/><path class="cls-3" d="M873.77469,314.799q10.71074,0,19.27741-10.70993L905.762,318.36841q-14.85319,15.42264-32.13059,15.42224-17.279,0-29.20182-10.924Q832.506,311.94341,832.506,294.30707q0-17.63355,12.06688-28.702a40.93516,40.93516,0,0,1,28.63039-11.06728,44.62355,44.62355,0,0,1,16.77839,3.42778,42.42837,42.42837,0,0,1,14.92244,10.13851l-11.13731,14.56509A26.54307,26.54307,0,0,0,874.0612,273.387a20.85419,20.85419,0,0,0-14.49426,5.49782q-6.07164,5.49981-6.06925,15.27978,0,9.78315,6.06925,15.20816A20.63077,20.63077,0,0,0,873.77469,314.799Z"/><path class="cls-3" d="M982.44029,332.64859H962.30494v-9.28216q-8.28255,10.42542-20.4903,10.42422-12.21014,0-20.49189-7.06806-8.28255-7.06847-8.28175-18.84923,0-11.78157,8.56827-17.63554,8.56666-5.85437,23.41748-5.85516h15.99367v-.42818q0-12.27937-12.99486-12.281a35.14885,35.14885,0,0,0-11.78037,2.2133,38.26879,38.26879,0,0,0-10.49584,5.49782l-9.56628-13.8512a57.29735,57.29735,0,0,1,34.55639-10.99565q13.99128,0,22.84764,6.99723,8.8508,6.998,8.85319,22.13376Zm-21.56313-29.27345v-3.7127h-13.423q-12.85,0-12.8516,7.99683a7.35034,7.35034,0,0,0,3.07044,6.35417q3.07044,2.21569,8.78156,2.2133a15.60779,15.60779,0,0,0,10.06767-3.49861A11.38157,11.38157,0,0,0,960.87716,303.37514Z"/><path class="cls-3" d="M1038.54528,274.67233q-9.56946,0-14.27938,6.78314-4.71311,6.78434-4.7131,17.92125v33.27187H998.13452V255.8231h21.41828v10.1385a36.01513,36.01513,0,0,1,10.35259-7.996,28.15524,28.15524,0,0,1,12.63831-3.42778l.14326,20.13455Z"/><path class="cls-3" d="M1119.15963,321.51048a42.94966,42.94966,0,0,1-30.48635,12.28017q-17.49387,0-28.9169-10.78077-11.42462-10.78-11.42382-28.9169,0-18.13254,11.63871-28.84527a39.25023,39.25023,0,0,1,27.48753-10.70993q15.8512,0,26.91769,9.56787,11.06409,9.56826,11.06727,26.27463V301.8041h-55.97625a15.26458,15.26458,0,0,0,6.56746,10.28176,21.01931,21.01931,0,0,0,12.56669,3.99842q11.279,0,18.56271-7.56866Zm-20.56193-45.55283a16.228,16.228,0,0,0-10.78236-3.71271,19.29691,19.29691,0,0,0-11.63711,3.856,14.74843,14.74843,0,0,0-6.14088,10.42422h33.7Q1103.02111,279.67035,1098.5977,275.95765Z"/><path class="cls-4" d="M232.93826,217.97936A43.23867,43.23867,0,0,0,265.364,232.30788h69.302V101.51507H218.40573Z"/><path class="cls-5" d="M149.83222,23.95117a74.68039,74.68039,0,0,1,6.72146-4.6448C176.2834,7.15773,202.26652,2.64823,218.2762.97905,221.51928.65647,224.51241.413,227.029.24945,230.75645.02078,232.9379,0,232.9379,0c.00037,1.7107.00037,217.97933.00037,217.97933-3.37816-3.51008-8.58278-8.77816-10.19891-10.48053q-5.01841-5.28622-9.9276-10.6748-9.8398-10.76937-19.44885-21.75171c-12.402-14.13684-25.56795-27.72075-36.9356-42.727-11.37173-15.01155-20.88384-31.92326-24.235-50.45517-2.91341-16.11147-.9073-34.71272,8.62528-48.44962a45.80646,45.80646,0,0,1,8.9017-9.3983Z"/></svg>