<svg id="Layer_1" data-name="Layer 1" xmlns="http://www.w3.org/2000/svg" viewBox="0 0 283.4646 139.1407"  height="63" width="128">
  <defs>
    <style>
      .cls-1 {
        fill: #333132;
      }

      .cls-2 {
        fill: #00bce7;
      }
    </style>
  </defs>
  <path class="cls-1" d="M86.6177,77.2593l-2.24,8.6799h8.9599v6.9066c-1.12.7467-3.4533,1.0267-5.4133,1.0267-8.6799,0-13.2531-4.9466-13.2531-13.1599.0933-8.4932,4.7599-14.0932,13.3465-14.0932a26.387,26.387,0,0,1,13.5332,3.92V59.6195a34.52814,34.52814,0,0,0-13.9066-2.7066c-14.5598,0-23.9864,10.1732-23.9864,23.2397,0,12.6932,9.0533,23.2398,23.7065,23.2398a23.62209,23.62209,0,0,0,10.0623-2.1058l6.1775,1.3591V77.2593Z"/>
  <path class="cls-1" d="M272.5447,102.5535V83.1404c0-2.7066-1.8666-4.5733-4.9466-4.5733a12.68987,12.68987,0,0,0-5.2266,1.4v22.5864H251.4516V69.9776l8.8666,1.8696a17.60376,17.60376,0,0,1,9.7999-2.6162c9.5199,0,13.3465,5.4162,13.3465,12.4161v20.9064Z"/>
  <path class="cls-2" d="M118.07215,120.2876v7.6532c0,1.96.74665,2.8,2.70663,2.8a4.97578,4.97578,0,0,0,3.36-1.3067v-9.1465h2.42665v13.9065c0,2.8933-1.96,4.9466-6.15994,4.9466a11.89916,11.89916,0,0,1-4.48-.7467v-2.5199a10.05625,10.05625,0,0,0,4.57328,1.2133c2.70664,0,3.64-1.4,3.64-2.8933v-2.6133a6.43186,6.43186,0,0,1-3.73329,1.12c-3.1733,0-4.66665-1.7734-4.66665-4.3867v-8.0265Z"/>
  <path class="cls-1" d="M211.6903,86.3128c0-9.2399,6.7199-17.0798,18.0131-17.0798,11.1999,0,17.9198,7.8399,17.9198,17.0798,0,9.4266-6.7199,17.1732-17.9198,17.1732-11.2932,0-18.0131-7.7466-18.0131-17.1732m25.0131,0c0-4.2291-2.3333-7.5599-7-7.5599-4.7599,0-7.0932,3.3308-7.0932,7.5599,0,4.2321,2.3333,7.6533,7.0932,7.6533,4.6667,0,7-3.3308,7-7.6533"/>
  <path class="cls-1" d="M157.2738,71.8457a14.8251,14.8251,0,0,1,14.2798-1.3999V81.0857a17.77573,17.77573,0,0,0-6.8133-1.4934,11.17845,11.17845,0,0,0-5.7866,1.4934v21.4664H147.9405V69.9791Z"/>
  <polygon class="cls-2" points="68.79 113.754 71.217 113.754 71.217 130.18 79.99 130.18 79.43 132.42 68.79 132.42 68.79 113.754"/>
  <polygon class="cls-2" points="111.165 120.288 108.8 130.537 105.472 120.288 103.045 120.288 99.72 130.35 97.445 120.288 95.112 120.288 98.099 132.421 101.179 132.421 104.192 122.851 107.432 132.421 110.325 132.421 113.312 120.288 111.165 120.288"/>
  <path class="cls-2" d="M92.7776,132.6077l-2.2399-1.12a7.37892,7.37892,0,0,1-3.92,1.2133c-2.6133,0-4.48-1.2133-4.48-3.7332,0-1.96,1.4-3.7333,4.6667-3.7333H90.351v-.6534c0-1.3066-.4667-2.6133-2.8-2.6133a9.7599,9.7599,0,0,0-4.5733,1.3067v-2.52a13.34264,13.34264,0,0,1,4.6666-.9333c3.7333,0,5.1333,2.0533,5.1333,4.8533Zm-2.4266-5.4133H86.8977c-1.2133,0-2.3333.4667-2.3333,1.7734,0,1.3066,1.12,1.8666,2.3333,1.8666a4.761,4.761,0,0,0,3.4533-1.4933Z"/>
  <path class="cls-2" d="M141.2197,126.5411h-8.95987a3.96992,3.96992,0,0,0,4.10667,4.1066,9.22875,9.22875,0,0,0,4.3866-1.0266v2.24a9.77743,9.77743,0,0,1-4.2933.8399c-4.01331,0-6.62662-2.2399-6.62662-6.3465,0-3.64,2.24-6.5333,5.97327-6.5333,2.79995,0,5.41325,1.5866,5.41325,5.8799Zm-2.6133-1.96v-.0933a2.55154,2.55154,0,0,0-2.79995-2.6133,3.37577,3.37577,0,0,0-3.45329,2.7066Z"/>
  <path class="cls-1" d="M196.7554,92.7536V80.3404a8.94373,8.94373,0,0,0-5.1333-1.4933c-4.9495,0-7.3732,3.08-7.3732,7.6533,0,4.3866,2.3274,7.4666,7.3732,7.4666a10.94046,10.94046,0,0,0,5.1333-1.2134m1.5866,8.12c-1.8666,1.6799-4.9466,2.6133-8.9599,2.6133-10.8265,0-16.2398-7.3733-16.2398-16.7999,0-10.0798,6.16-17.456,16.4265-17.456a17.77988,17.77988,0,0,1,7.1866,1.4962V56.9111h11.1065v46.1091Z"/>
  <path class="cls-1" d="M107.7131,86.3128c0-9.2399,6.9066-17.0798,18.01317-17.0798,11.19983,0,18.10643,7.8399,18.10643,17.0798,0,9.4266-6.9066,17.1732-18.10643,17.1732-11.10657,0-18.01317-7.7466-18.01317-17.1732m25.10643,0c0-4.1066-2.33331-7.4665-7.09326-7.4665-4.66661,0-6.99992,3.3599-6.99992,7.4665,0,4.2,2.33331,7.6533,6.99992,7.6533,4.76,0,7.09326-3.36,7.09326-7.6533"/>
  <path class="cls-2" d="M152.7002,122.9009a5.49963,5.49963,0,0,0-2.52-.7467,4.00048,4.00048,0,0,0-2.8933,1.0267v9.2399h-2.4266V120.1009l2.3333,1.0266a4.67815,4.67815,0,0,1,3.36-1.3066,4.51926,4.51926,0,0,1,2.1466.56Z"/>
  <polygon class="cls-2" points="28.283 26.764 28.283 55.137 0 55.137 0 59.247 28.283 59.247 28.283 87.619 32.949 87.619 32.949 59.247 61.322 59.247 61.322 55.137 32.949 55.137 32.949 26.764 28.283 26.764"/>
  <path class="cls-2" d="M154.5671,131.9547v-2.24a8.1578,8.1578,0,0,0,3.92,1.12c1.4933,0,2.24-.4667,2.24-1.5867,0-.7466-.3734-1.3066-1.4934-1.7733l-2.0533-.84a3.41312,3.41312,0,0,1-2.5199-3.2666c0-2.24,1.5866-3.5466,4.2932-3.5466a10.96912,10.96912,0,0,1,3.64.7466v2.3333a8.0197,8.0197,0,0,0-3.64-1.1199c-1.2133,0-1.9599.56-1.9599,1.4933,0,.56.3733,1.12,1.3066,1.4933l1.96.84c1.68.7466,2.8933,1.5866,2.8933,3.4533,0,2.24-1.8667,3.6399-4.76,3.6399a7.62973,7.62973,0,0,1-3.8266-.7466"/>
  <path class="cls-1" d="M65.3592,37.591a33.69312,33.69312,0,0,0,15.2132,4.0133c5.2266,0,6.9066-2.6133,6.9066-5.2266,0-1.7675-.595-3.4416-4.8533-5.1333l-6.3466-2.5199c-7.4666-3.08-11.1065-6.5333-11.1065-13.9999,0-8.5895,6.5332-13.7228,17.3598-13.7228A30.93707,30.93707,0,0,1,95.8818,3.8952V14.6313A26.99588,26.99588,0,0,0,82.5324,10.618c-4.2,0-6.6266,1.4-6.6266,3.8266,0,2.24,1.2133,3.36,4.2933,4.6666l7.5599,3.2667c8.1228,3.5466,10.8294,7.8399,10.8294,13.8131,0,9.3333-6.9095,14.6532-18.3893,14.6532-5.7866,0-11.8532-1.12-14.8399-2.8933Z"/>
  <path class="cls-1" d="M186.1616,48.1615c-1.5867,1.0267-5.04,2.0533-9.0533,2.0533-8.2132,0-11.0132-4.2933-11.0132-11.0132V26.4151h-5.2266V17.4522h5.2266V9.239l11.0132-3.92V17.4522h8.3999v8.9629h-8.3999V38.3616c0,1.12.6534,2.24,2.8933,2.24a12.79565,12.79565,0,0,0,6.16-1.68Z"/>
  <path class="cls-1" d="M236.377,19.0404a13.99165,13.99165,0,0,1,8.3999-2.52,13.70393,13.70393,0,0,1,5.7866,1.2133V28.2803a17.3044,17.3044,0,0,0-6.7199-1.4934,10.935,10.935,0,0,0-5.88,1.4934V49.7496H226.9504V17.1737Z"/>
  <path class="cls-1" d="M103.4651,4.1066,114.4783,0V38.9225c0,1.5866.84,1.8666,2.33329,1.8666a16.73979,16.73979,0,0,0,3.35995-.3733v9.1466a32.72339,32.72339,0,0,1-6.15994.6533c-7.7466,0-10.5465-3.7333-10.5465-10.3599Z"/>
  <path class="cls-1" d="M138.4667,50.6812c-10.48529,0-15.77314-7.3733-15.77314-16.7065,0-10.5466,6.34368-17.5465,15.95984-17.5465a13.91247,13.91247,0,0,1,8.3066,2.52l9.5199-1.68V50.2145L146.96,48.0679c-1.82,1.6391-4.69,2.6133-8.4933,2.6133m6.9066-10.7332V27.7214a8.06777,8.06777,0,0,0-4.6666-1.4933c-8.92783,0-9.727,14.9332,0,14.9332a9.85242,9.85242,0,0,0,4.6666-1.2133"/>
  <path class="cls-1" d="M211.7355,29.7736a5.25367,5.25367,0,0,0-5.4133-5.6,5.53529,5.53529,0,0,0-5.5999,5.6Zm-5.5066-13.2532c8.1199,0,15.5865,4.3866,15.5865,15.7732v3.7333H201.0023c.1866,3.3599,2.8,5.5999,7.5599,5.5999a24.30028,24.30028,0,0,0,12.0399-3.2666v9.1494c-3.2667,2.24-9.5199,3.1733-13.4399,3.1733-11.7599,0-17.5465-7.8428-17.5465-17.176,0-9.3333,5.88-16.9865,16.6132-16.9865"/>
</svg>
