<svg id="Layer_1" data-name="Layer 1" xmlns="http://www.w3.org/2000/svg" viewBox="0 0 169.254 28.0684"  height="21" width="131"><defs><style>.cls-1{fill:#fefefe;}</style></defs><path class="cls-1" d="M12.0435,11.7969a.9974.9974,0,0,1-.44.8531,3.4858,3.4858,0,0,1-1.0362.4834,6.1416,6.1416,0,0,1-1.2207.227c-.4184.0371-.7544.0537-1.0151.0537A13.3385,13.3385,0,0,1,5.3975,13.09q-.3464-.0645-.8852-.2163-.5413-.1494-1.1329-.3653c-.3955-.1455-.7963-.3129-1.1992-.5078a7.3349,7.3349,0,0,1-1.0884-.6367,3.7392,3.7392,0,0,1-.7905-.7334A1.3557,1.3557,0,0,1,0,9.7881a.991.991,0,0,1,.4424-.8515A3.4014,3.4014,0,0,1,1.4883,8.45a6.4479,6.4479,0,0,1,1.2329-.2255c.4161-.0367.7535-.0538,1.0127-.0538a13.7926,13.7926,0,0,1,2.8384.3116A14.9413,14.9413,0,0,1,9.26,9.3033a7.8745,7.8745,0,0,1,1.9961,1.1645A1.8026,1.8026,0,0,1,12.0435,11.7969Zm-.1074,3.7178a2.2923,2.2923,0,0,1-.5171,1.2832,9.7948,9.7948,0,0,1-1.3506,1.4912,17.9111,17.9111,0,0,1-1.875,1.499,21.9513,21.9513,0,0,1-2.1162,1.3155,14.6338,14.6338,0,0,1-2.0606.94A5.1892,5.1892,0,0,1,2.31,22.4a1.6222,1.6222,0,0,1-.68-.1523.5759.5759,0,0,1-.3364-.5811,2.3139,2.3139,0,0,1,.5083-1.2627,9.27,9.27,0,0,1,1.3286-1.4794,19.0693,19.0693,0,0,1,1.8667-1.501,20.953,20.953,0,0,1,2.1152-1.3262,14.4719,14.4719,0,0,1,2.07-.94,5.411,5.411,0,0,1,1.7631-.3545,1.66,1.66,0,0,1,.6665.14A.559.559,0,0,1,11.9361,15.5147Zm7.0356-13.68a8.9356,8.9356,0,0,1-.27,2.17,18.7779,18.7779,0,0,1-.6367,2.0821c-.1133.3022-.2881.7138-.5264,1.2309a13.3082,13.3082,0,0,1-.833,1.5313,8.029,8.029,0,0,1-1.0141,1.3164,1.5186,1.5186,0,0,1-1.0777.562.6169.6169,0,0,1-.4853-.2041,1.4,1.4,0,0,1-.2832-.4868,2.1956,2.1956,0,0,1-.1167-.5938c-.0152-.207-.0215-.3833-.0215-.5278a8.9418,8.9418,0,0,1,.27-2.168,19.2392,19.2392,0,0,1,.6367-2.084,11.1728,11.1728,0,0,1,.5176-1.23,15.2269,15.2269,0,0,1,.8423-1.544A8.0944,8.0944,0,0,1,16.9883.5616,1.5379,1.5379,0,0,1,18.0645,0a.5918.5918,0,0,1,.4775.2071,1.5827,1.5827,0,0,1,.27.4941,2.8636,2.8636,0,0,1,.1289.606A5.2442,5.2442,0,0,1,18.9717,1.835Zm2.7652,23.33a5.5334,5.5334,0,0,1-.0894.9844,2.6119,2.6119,0,0,1-.3013.8632,1.9218,1.9218,0,0,1-.55.6153,1.4,1.4,0,0,1-.83.2363,2.7588,2.7588,0,0,1-1.3936-.4219A6.3257,6.3257,0,0,1,17.17,26.2989a11.6758,11.6758,0,0,1-1.295-1.6739,13.6974,13.6974,0,0,1-1.0673-1.9941,13.849,13.849,0,0,1-.7227-2.1152,8.2616,8.2616,0,0,1-.271-2.041,5.9386,5.9386,0,0,1,.0737-.9053,3.2038,3.2038,0,0,1,.271-.876,1.8035,1.8035,0,0,1,.5406-.6582,1.4325,1.4325,0,0,1,.8833-.26,2.7172,2.7172,0,0,1,1.3842.4229,6.5526,6.5526,0,0,1,1.39,1.1338,10.9746,10.9746,0,0,1,1.2944,1.6611,14.556,14.556,0,0,1,1.08,1.9863,12.8246,12.8246,0,0,1,.7353,2.1143A8.632,8.632,0,0,1,21.7369,25.1651ZM25.2554,9.8174a1.2825,1.2825,0,0,1-.4653.9175,4.497,4.497,0,0,1-1.1983.7891,8.3943,8.3943,0,0,1-1.6616.56,8.0584,8.0584,0,0,1-1.8354.2163c-.2,0-.45-.0136-.7442-.0429a4.2109,4.2109,0,0,1-.874-.1826,2.2428,2.2428,0,0,1-.7349-.39.8111.8111,0,0,1-.3017-.6567,1.3055,1.3055,0,0,1,.4956-.9517A4.6022,4.6022,0,0,1,19.2,9.29a9.3537,9.3537,0,0,1,1.6724-.54,7.8245,7.8245,0,0,1,1.7251-.2056c.188,0,.4341.0151.7349.0444a4.0508,4.0508,0,0,1,.8862.1826,2.2436,2.2436,0,0,1,.7319.3882A.8071.8071,0,0,1,25.2554,9.8174Z"/><path class="cls-1" d="M38.1187,19.962a3.0372,3.0372,0,0,1-.4512,1.7031,3.5889,3.5889,0,0,1-1.1631,1.123,5.2044,5.2044,0,0,1-1.5835.628,7.9981,7.9981,0,0,1-1.7348.1933,6.07,6.07,0,0,1-.981-.0771,7.9586,7.9586,0,0,1-.956-.2041,7.7047,7.7047,0,0,1-.96-.336,5.8438,5.8438,0,0,1-1.0356-.5507,3.47,3.47,0,0,1-.8179-.7442,1.4739,1.4739,0,0,1-.3325-.9375,1.5138,1.5138,0,0,1,.4062-1.08,1.4222,1.4222,0,0,1,1.0786-.4316.98.98,0,0,1,.6768.26c.1938.1718.4087.3681.645.583a4.0333,4.0333,0,0,0,.874.5849,3.0978,3.0978,0,0,0,1.378.2578c.1728,0,.354-.0078.5468-.0214a2.0319,2.0319,0,0,0,.5513-.12,1.041,1.041,0,0,0,.43-.292.7845.7845,0,0,0,.1728-.538.694.694,0,0,0-.4741-.6153,7.9918,7.9918,0,0,0-1.1841-.4326c-.4731-.1367-.9843-.2783-1.5283-.4189a6.5654,6.5654,0,0,1-1.5293-.6172,3.8747,3.8747,0,0,1-1.1831-1.0147,2.5281,2.5281,0,0,1-.4731-1.5879A3.5188,3.5188,0,0,1,28.9,13.5171a3.3043,3.3043,0,0,1,1.0756-1.1557,4.7485,4.7485,0,0,1,1.5318-.624,8.018,8.018,0,0,1,1.7651-.1934,6.4855,6.4855,0,0,1,1.0244.0859,6.1892,6.1892,0,0,1,2.0884.7315,3.2318,3.2318,0,0,1,.8086.6494,4.03,4.03,0,0,1,.3569.5078,1.0851,1.0851,0,0,1,.16.5723,1.446,1.446,0,0,1-.3882.9931,1.2484,1.2484,0,0,1-.9682.4307,1.3167,1.3167,0,0,1-.8179-.2158c-.1846-.1446-.37-.2979-.5479-.4639a3.1721,3.1721,0,0,0-.68-.4648,2.5652,2.5652,0,0,0-1.1806-.2149,4.2607,4.2607,0,0,0-.5073.0322,1.88,1.88,0,0,0-.4957.1309,1.0618,1.0618,0,0,0-.3872.2793.7061.7061,0,0,0-.1606.4863.6774.6774,0,0,0,.4834.6241,7.1351,7.1351,0,0,0,1.2178.3916c.4853.1132,1.0117.2421,1.5722.3867a6.9,6.9,0,0,1,1.5713.6152,3.6086,3.6086,0,0,1,1.2149,1.0791A3.004,3.004,0,0,1,38.1187,19.962Z"/><path class="cls-1" d="M54.0069,22.9942a1.5054,1.5054,0,0,1-1.1109.4648,1.5394,1.5394,0,0,1-1.1342-.4648,1.5162,1.5162,0,0,1-.4649-1.1094V15.7725a1.4929,1.4929,0,0,0-.4424-1.0771,1.5408,1.5408,0,0,0-2.6264,1.0771v6.0908a1.6009,1.6009,0,0,1-.4312,1.1211,1.44,1.44,0,0,1-1.1216.4746,1.53,1.53,0,0,1-1.1328-.4648,1.51,1.51,0,0,1-.4638-1.1094V15.7725a1.4878,1.4878,0,0,0-.4429-1.0771,1.4617,1.4617,0,0,0-1.0908-.4541A1.5456,1.5456,0,0,0,42.01,15.7725v6.0908a1.541,1.541,0,0,1-.4648,1.1309,1.5109,1.5109,0,0,1-1.1133.4648,1.54,1.54,0,0,1-1.1226-.4423,1.51,1.51,0,0,1-.4526-1.1309V13.3252a1.5654,1.5654,0,0,1,.4526-1.1323,1.5227,1.5227,0,0,1,1.1255-.4619,1.8372,1.8372,0,0,1,.9385.2227,1.039,1.039,0,0,1,.4858.7133,2.9088,2.9088,0,0,1,2.42-1.123,5.2208,5.2208,0,0,1,1.6939.2681,3.4628,3.4628,0,0,1,1.458,1.0268,3.5736,3.5736,0,0,1,1.501-1.0054,4.7941,4.7941,0,0,1,1.5434-.29,4.36,4.36,0,0,1,1.5777.2808,3.534,3.534,0,0,1,1.2612.8086,3.8249,3.8249,0,0,1,.8423,1.3168,4.8512,4.8512,0,0,1,.3139,1.8028v6.11A1.5313,1.5313,0,0,1,54.0069,22.9942Z"/><path class="cls-1" d="M59.4507,22.9883a1.5962,1.5962,0,0,1-2.2461,0,1.5387,1.5387,0,0,1-.4511-1.1093V14.462h-.1294a1.3255,1.3255,0,0,1-.9815-.3985,1.3031,1.3031,0,0,1-.3994-.9609,1.333,1.333,0,0,1,.3994-.9819,1.3062,1.3062,0,0,1,.96-.399h1.7256a1.5128,1.5128,0,0,1,1.1225.4619,1.54,1.54,0,0,1,.4517,1.1109v8.563A1.562,1.562,0,0,1,59.4507,22.9883Zm.6909-14.2466a1.826,1.826,0,0,1-.5278,1.3042,1.7157,1.7157,0,0,1-1.2856.5508,1.7386,1.7386,0,0,1-1.274-.5385,1.7661,1.7661,0,0,1-.5385-1.295,1.6245,1.6245,0,0,1,.1513-.68,1.7516,1.7516,0,0,1,.3995-.5708,2.0121,2.0121,0,0,1,.5727-.3916,1.6027,1.6027,0,0,1,.689-.15,1.7023,1.7023,0,0,1,.6919.1416,1.7915,1.7915,0,0,1,.5717.3881,1.992,1.992,0,0,1,.3965.5708A1.5634,1.5634,0,0,1,60.1416,8.7417Z"/><path class="cls-1" d="M68.2579,13.2793a1.3153,1.3153,0,0,1-.4121.9805,1.3448,1.3448,0,0,1-.9722.4H65.752v5.93c0,.0859.0366.1289.11.1289a1.0258,1.0258,0,0,1,.4389.1074,1.4151,1.4151,0,0,1,.4126.293,1.6024,1.6024,0,0,1,.3018.43,1.2037,1.2037,0,0,1,.12.5293A1.3649,1.3649,0,0,1,65.752,23.459h-.4312A3.1486,3.1486,0,0,1,64.3189,23.3a2.69,2.69,0,0,1-.877-.4854,2.3668,2.3668,0,0,1-.6245-.8281A2.7615,2.7615,0,0,1,62.58,20.792V14.66h-.7134a1.3312,1.3312,0,0,1-.9809-.4,1.3085,1.3085,0,0,1-.3984-.96,1.3376,1.3376,0,0,1,.3984-.9839,1.3173,1.3173,0,0,1,.9595-.3989H62.58V9.6934a1.541,1.541,0,0,1,.4619-1.1328,1.5874,1.5874,0,0,1,2.71,1.1113v2.2447h1.1216a1.3551,1.3551,0,0,1,.9722.3989A1.3005,1.3005,0,0,1,68.2579,13.2793Z"/><path class="cls-1" d="M79.1294,22.9942a1.5866,1.5866,0,0,1-2.7089-1.1094V16.4a2.15,2.15,0,0,0-.56-1.63,1.9624,1.9624,0,0,0-1.4024-.5293,1.7678,1.7678,0,0,0-1.4638.6152A2.366,2.366,0,0,0,72.4991,16.4v5.4629a1.5392,1.5392,0,0,1-.4649,1.1309,1.51,1.51,0,0,1-1.1128.4648,1.5306,1.5306,0,0,1-1.1323-.4648,1.5075,1.5075,0,0,1-.4634-1.1094V8.2691a1.5351,1.5351,0,0,1,.4634-1.1323A1.5124,1.5124,0,0,1,70.9,6.6719a1.5477,1.5477,0,0,1,1.1343.4619,1.5251,1.5251,0,0,1,.4649,1.1109v4.3994h.0429a1.87,1.87,0,0,1,.6031-.5615,3.4976,3.4976,0,0,1,.7778-.3365,4.8482,4.8482,0,0,1,.7842-.1591,5.3123,5.3123,0,0,1,.6367-.043,4.8387,4.8387,0,0,1,1.6943.29,3.9026,3.9026,0,0,1,1.3472.8335,3.86,3.86,0,0,1,.8823,1.3164,4.57,4.57,0,0,1,.3252,1.77v6.11A1.5413,1.5413,0,0,1,79.1294,22.9942Z"/><path class="cls-1" d="M94.1749,22.0137a1.4424,1.4424,0,0,1-.41,1.003,1.3747,1.3747,0,0,1-1.0576.4423,1.6585,1.6585,0,0,1-.57-.1074,1.354,1.354,0,0,1-.5313-.3672l-1.1426-1.4033a10.6591,10.6591,0,0,1-1.3046,1.0352,7.7216,7.7216,0,0,1-1.1094.6142,3.9828,3.9828,0,0,1-1.0039.3018,5.8862,5.8862,0,0,1-.9571.0771,5.9633,5.9633,0,0,1-1.9052-.3008,4.3421,4.3421,0,0,1-2.6211-2.375,4.8754,4.8754,0,0,1-.3872-2.0087,4.5106,4.5106,0,0,1,.2924-1.6485,5.2524,5.2524,0,0,1,.7442-1.3291,5.8118,5.8118,0,0,1,1.0049-1.0137,9.6571,9.6571,0,0,1,1.0678-.7324c-.2739-.3174-.4956-.5937-.67-.833a5.217,5.217,0,0,1-.4218-.68,2.6059,2.6059,0,0,1-.2242-.6352,3.7425,3.7425,0,0,1-.0644-.7456,3.3052,3.3052,0,0,1,.3657-1.6055,3.5308,3.5308,0,0,1,.96-1.1353,4.0475,4.0475,0,0,1,1.35-.6674,5.5245,5.5245,0,0,1,1.5312-.2149,5.29,5.29,0,0,1,1.4063.2027,4.4047,4.4047,0,0,1,1.3379.6274,3.5411,3.5411,0,0,1,.9941,1.0586,2.8242,2.8242,0,0,1,.3867,1.498,3.4858,3.4858,0,0,1-.2275,1.272,3.9958,3.9958,0,0,1-.6045,1.0586,5.4951,5.4951,0,0,1-.8311.8423,6.88,6.88,0,0,1-.9052.625l1.9472,2.3525c.1143-.1289.2315-.2627.3448-.3994.1162-.14.23-.2871.3466-.4463a4.3651,4.3651,0,0,1,.668-.7226,1.2214,1.2214,0,0,1,.7988-.2491,1.4007,1.4007,0,0,1,.959.376,1.26,1.26,0,0,1,.4229.9824,1.8419,1.8419,0,0,1-.292.9639,8.3391,8.3391,0,0,1-.7891,1.0693c-.1006.1153-.1963.2286-.291.336-.0918.1074-.19.22-.292.334l1.251,1.4892a2.2735,2.2735,0,0,1,.3271.4981A1.363,1.363,0,0,1,94.1749,22.0137Zm-8.36-5.98a4.7363,4.7363,0,0,0-1.2085,1.038,2.3256,2.3256,0,0,0-.5156,1.5313,2.2094,2.2094,0,0,0,.5586,1.6084,1.9785,1.9785,0,0,0,1.4829.5723A2.6069,2.6069,0,0,0,87.2725,20.5a5.9022,5.9022,0,0,0,1.3965-1.0556Zm2.6367-4.6382a1.1987,1.1987,0,0,0-.1416-.605,1.403,1.403,0,0,0-.3349-.3867,1.0828,1.0828,0,0,0-.4327-.2071,2.0255,2.0255,0,0,0-.4326-.0522,1.3767,1.3767,0,0,0-.8066.3022.9329.9329,0,0,0-.4238.7969,1.1561,1.1561,0,0,0,.1289.52,2.8021,2.8021,0,0,0,.3164.4942,5.3605,5.3605,0,0,0,.3769.4433q.1934.2052.3223.3345a4.0222,4.0222,0,0,0,.4853-.313,3.8536,3.8536,0,0,0,.4659-.4,2.004,2.004,0,0,0,.3437-.4511A.9592.9592,0,0,0,88.4512,11.3951Z"/><path class="cls-1" d="M105.2549,22.9942a1.5107,1.5107,0,0,1-1.1093.4648,1.5787,1.5787,0,0,1-1.5928-1.5742v-5.57a1.9879,1.9879,0,0,0-.5645-1.5869,2.07,2.07,0,0,0-1.4023-.4863,1.82,1.82,0,0,0-1.4678.583,2.2137,2.2137,0,0,0-.4941,1.49v5.5488a1.5287,1.5287,0,0,1-.4678,1.1309,1.5061,1.5061,0,0,1-1.1094.4648,1.55,1.55,0,0,1-1.1357-.4619,1.5229,1.5229,0,0,1-.46-1.1113V13.3252a1.5261,1.5261,0,0,1,.4727-1.1323,1.5606,1.5606,0,0,1,1.123-.4619,1.2306,1.2306,0,0,1,.8623.2959,1.461,1.461,0,0,1,.4326.79,2.9667,2.9667,0,0,1,1.26-.9624,4.9744,4.9744,0,0,1,1.8682-.311,4.8073,4.8073,0,0,1,1.69.29,3.7364,3.7364,0,0,1,2.2324,2.15,4.5351,4.5351,0,0,1,.3242,1.77v6.11A1.5346,1.5346,0,0,1,105.2549,22.9942Z"/><path class="cls-1" d="M117.8418,17.2549a1.4668,1.4668,0,0,1-.3369,1.084,1.5291,1.5291,0,0,1-1.0927.3252H109.917a2.3687,2.3687,0,0,0,.8848,1.5928,3.44,3.44,0,0,0,3.0967.4189,6.4247,6.4247,0,0,0,.9394-.44c.2881-.1631.5528-.3086.7979-.4365a1.4809,1.4809,0,0,1,.6689-.1944,1.2152,1.2152,0,0,1,.9073.4092,1.3374,1.3374,0,0,1,.3906.9473,1.4522,1.4522,0,0,1-.4649,1.0019,4.31,4.31,0,0,1-1.1982.85,7.6936,7.6936,0,0,1-1.6523.5821,7.7952,7.7952,0,0,1-1.8028.2148,6.1817,6.1817,0,0,1-2.417-.4531,5.3,5.3,0,0,1-1.834-1.2627,5.8086,5.8086,0,0,1-1.1757-1.91,6.6046,6.6046,0,0,1-.4229-2.374,6.4708,6.4708,0,0,1,1.586-4.2319,5.6206,5.6206,0,0,1,1.7851-1.3379,5.1836,5.1836,0,0,1,2.2881-.4956,4.96,4.96,0,0,1,2.2764.5185,5.8832,5.8832,0,0,1,1.75,1.33,6.1049,6.1049,0,0,1,1.123,1.8389A5.6125,5.6125,0,0,1,117.8418,17.2549Zm-3.8974-2.3271a2.1279,2.1279,0,0,0-1.6719-.6865,2.2879,2.2879,0,0,0-1.6758.6865,2.3619,2.3619,0,0,0-.4941.7285,2.696,2.696,0,0,0-.23.87h4.7969A2.8215,2.8215,0,0,0,113.9444,14.9278Z"/><path class="cls-1" d="M130.0752,17.7383a6.7453,6.7453,0,0,1-.3564,2.1592,6.0034,6.0034,0,0,1-1.0273,1.877,5.2839,5.2839,0,0,1-1.6211,1.3271,4.4556,4.4556,0,0,1-2.1368.5078,4.6123,4.6123,0,0,1-.7568-.0644A3.9771,3.9771,0,0,1,123.4,23.33a3.4341,3.4341,0,0,1-.7363-.4,2.6657,2.6657,0,0,1-.6055-.6152h-.0605V26.462a1.5872,1.5872,0,0,1-.4434,1.1386,1.533,1.533,0,0,1-2.2021.003,1.5518,1.5518,0,0,1-.4424-1.1123V13.33a1.5343,1.5343,0,0,1,.4639-1.1342,1.5089,1.5089,0,0,1,1.11-.4649,1.6274,1.6274,0,0,1,.9717.33,1.5862,1.5862,0,0,1,.6025.95,2.5807,2.5807,0,0,1,1.2559-1.1094,4.1718,4.1718,0,0,1,1.7061-.3574,4.3576,4.3576,0,0,1,2.2.5386,4.8371,4.8371,0,0,1,1.5781,1.4145,6.4675,6.4675,0,0,1,.9511,1.9854A8.065,8.065,0,0,1,130.0752,17.7383Zm-3.1513-.1718a4.8251,4.8251,0,0,0-.1416-1.1143,3.4548,3.4548,0,0,0-.4453-1.0772,2.7453,2.7453,0,0,0-.7637-.8115,1.8669,1.8669,0,0,0-1.0928-.3222,1.9727,1.9727,0,0,0-1.09.3007,2.5773,2.5773,0,0,0-.77.7784,3.5362,3.5362,0,0,0-.4423,1.0459,4.755,4.755,0,0,0-.1377,1.1132,5.1032,5.1032,0,0,0,.1377,1.1534,4.0076,4.0076,0,0,0,.4326,1.0927,2.57,2.57,0,0,0,.7578.8174,1.8674,1.8674,0,0,0,1.1113.3262,1.7817,1.7817,0,0,0,1.08-.3262,2.7807,2.7807,0,0,0,.7549-.8086,3.7273,3.7273,0,0,0,.458-1.0674A4.5547,4.5547,0,0,0,126.9239,17.5665Z"/><path class="cls-1" d="M141.0713,22.9942a1.5055,1.5055,0,0,1-1.1113.4648,1.5855,1.5855,0,0,1-1.5957-1.5742V16.4a2.1452,2.1452,0,0,0-.5615-1.63,1.9535,1.9535,0,0,0-1.3994-.5293,1.7778,1.7778,0,0,0-1.4668.6152,2.3921,2.3921,0,0,0-.4942,1.5439v5.4629a1.54,1.54,0,0,1-.4638,1.1309,1.5115,1.5115,0,0,1-1.11.4648,1.5335,1.5335,0,0,1-1.1357-.4648,1.5085,1.5085,0,0,1-.4629-1.1094V8.2691a1.5362,1.5362,0,0,1,.4629-1.1323,1.5159,1.5159,0,0,1,1.1142-.4649,1.55,1.55,0,0,1,1.1319.4619,1.526,1.526,0,0,1,.4638,1.1109v4.3994h.043a1.8992,1.8992,0,0,1,.6025-.5615,3.5634,3.5634,0,0,1,.7784-.3365,4.7974,4.7974,0,0,1,.7871-.1591,5.251,5.251,0,0,1,.6367-.043,4.8165,4.8165,0,0,1,1.6914.29,3.9043,3.9043,0,0,1,1.3476.8335,3.8138,3.8138,0,0,1,.8838,1.3164,4.57,4.57,0,0,1,.3252,1.77v6.11A1.5463,1.5463,0,0,1,141.0713,22.9942Z"/><path class="cls-1" d="M153.9493,17.2549a1.4672,1.4672,0,0,1-.335,1.084,1.5293,1.5293,0,0,1-1.0928.3252h-6.4941a2.352,2.352,0,0,0,.8809,1.5928,3.44,3.44,0,0,0,3.0966.4189,6.66,6.66,0,0,0,.9424-.44c.2852-.1631.5527-.3086.7949-.4365a1.4922,1.4922,0,0,1,.6719-.1944,1.223,1.223,0,0,1,.9082.4092,1.3377,1.3377,0,0,1,.3867.9473,1.4451,1.4451,0,0,1-.4629,1.0019,4.3323,4.3323,0,0,1-1.1972.85,8.1018,8.1018,0,0,1-3.4551.7969,6.1521,6.1521,0,0,1-2.416-.4531,5.2581,5.2581,0,0,1-1.835-1.2627,5.7118,5.7118,0,0,1-1.1748-1.91,6.4821,6.4821,0,0,1-.4238-2.374,6.46,6.46,0,0,1,1.59-4.2319,5.5141,5.5141,0,0,1,1.7793-1.3379A5.1823,5.1823,0,0,1,148.4,11.544a4.9672,4.9672,0,0,1,2.2774.5185,5.8409,5.8409,0,0,1,1.749,1.33,6.0084,6.0084,0,0,1,1.1231,1.8389A5.6164,5.6164,0,0,1,153.9493,17.2549Zm-3.8985-2.3271a2.1237,2.1237,0,0,0-1.6718-.6865,2.2965,2.2965,0,0,0-1.6729.6865,2.388,2.388,0,0,0-.4971.7285,2.7148,2.7148,0,0,0-.2256.87h4.792A2.8085,2.8085,0,0,0,150.0508,14.9278Z"/><path class="cls-1" d="M169.254,13.3038a1.6339,1.6339,0,0,1-.1075.582l-2.8047,8.582a1.37,1.37,0,0,1-.5625.7227,1.6126,1.6126,0,0,1-.9052.2685,1.39,1.39,0,0,1-.8838-.2812,1.37,1.37,0,0,1-.5-.7315l-1.51-5.0625c-.0127-.0429-.0312-.1152-.0527-.2148-.0215-.1016-.0518-.2051-.086-.3125-.0361-.1094-.0644-.2041-.0859-.292-.0215-.0859-.0391-.13-.0547-.13s-.0312.044-.0527.13c-.0215.0879-.0518.1826-.086.292a2.8247,2.8247,0,0,0-.0888.3125c-.0215.1-.04.1719-.0518.2148l-1.4668,5.0625a1.3891,1.3891,0,0,1-1.3593,1.0127,1.6656,1.6656,0,0,1-.918-.2685,1.35,1.35,0,0,1-.5742-.7227l-2.8047-8.582a1.5812,1.5812,0,0,1-.1074-.5606,1.5787,1.5787,0,0,1,1.5771-1.5942,1.458,1.458,0,0,1,.8936.2808,1.3478,1.3478,0,0,1,.5087.7534l1.2745,4.89a1.4662,1.4662,0,0,1,.0517.2061q.0323.1611.0733.3222c.0312.1084.0556.2041.0771.29s.04.1289.0557.1289c.0117,0,.03-.043.0517-.1289s.043-.1817.0645-.29.043-.2148.0674-.3222a.92.92,0,0,1,.0517-.2061l1.4033-4.9116a1.4225,1.4225,0,0,1,.4952-.7227,1.3621,1.3621,0,0,1,.8642-.29,1.4474,1.4474,0,0,1,.8867.29,1.382,1.382,0,0,1,.5157.7227l1.4052,4.9116a1.2874,1.2874,0,0,1,.0528.2061q.0323.1611.0732.3222c.0313.1084.0557.2041.0772.29s.04.1289.0546.1289c.0127,0,.0313-.043.0528-.1289s.0459-.1817.0762-.29c.0283-.1074.0527-.2148.0742-.3222a1.5136,1.5136,0,0,0,.0332-.2061l1.2744-4.89a1.3381,1.3381,0,0,1,.5059-.7534,1.4333,1.4333,0,0,1,.875-.2808,1.544,1.544,0,0,1,1.1318.4619A1.5146,1.5146,0,0,1,169.254,13.3038Z"/></svg>