<svg id="Layer_1" data-name="Layer 1" xmlns="http://www.w3.org/2000/svg" viewBox="0 0 169.254 28.0684" height="36px" width="221px"><defs><style>.cls-1{fill:#ff8100;}</style></defs><path class="cls-1" d="M12.04351,11.7969a.99746.99746,0,0,1-.43991.8531,3.48571,3.48571,0,0,1-1.0362.4834,6.14147,6.14147,0,0,1-1.2207.227c-.4184.0371-.7544.0537-1.0151.0537a13.33839,13.33839,0,0,1-2.93409-.3237q-.34636-.0645-.88521-.2163-.54135-.1494-1.1329-.36531c-.3955-.14549-.7963-.31289-1.1992-.50779a7.33488,7.33488,0,0,1-1.0884-.6367,3.73942,3.73942,0,0,1-.7905-.7334A1.35575,1.35575,0,0,1,0,9.7881a.991.991,0,0,1,.4424-.8515,3.40146,3.40146,0,0,1,1.0459-.4864,6.44716,6.44716,0,0,1,1.2329-.2255c.4161-.0367.7535-.0538,1.0127-.0538a13.79259,13.79259,0,0,1,2.8384.3116,14.94132,14.94132,0,0,1,2.6875.8208,7.87442,7.87442,0,0,1,1.9961,1.16449A1.80265,1.80265,0,0,1,12.04351,11.7969Zm-.10741,3.7178a2.29234,2.29234,0,0,1-.5171,1.2832,9.79484,9.79484,0,0,1-1.3506,1.4912,17.9111,17.9111,0,0,1-1.875,1.499,21.95326,21.95326,0,0,1-2.1162,1.3155,14.63379,14.63379,0,0,1-2.0606.9404,5.18918,5.18918,0,0,1-1.7065.3564,1.62226,1.62226,0,0,1-.6797-.1523.57588.57588,0,0,1-.3364-.5811,2.31385,2.31385,0,0,1,.5083-1.2627,9.26945,9.26945,0,0,1,1.3286-1.4794,19.06934,19.06934,0,0,1,1.8667-1.501,20.95231,20.95231,0,0,1,2.1152-1.3262,14.47189,14.47189,0,0,1,2.0704-.9404,5.41107,5.41107,0,0,1,1.7631-.35451,1.65962,1.65962,0,0,1,.6665.13961A.559.559,0,0,1,11.9361,15.5147ZM18.9717,1.835a8.93563,8.93563,0,0,1-.2705,2.1699,18.77855,18.77855,0,0,1-.63669,2.0821c-.11331.3022-.28811.71379-.52641,1.2309a13.30824,13.30824,0,0,1-.833,1.5313,8.029,8.029,0,0,1-1.0141,1.3164,1.51862,1.51862,0,0,1-1.0777.562.61686.61686,0,0,1-.4853-.2041,1.39985,1.39985,0,0,1-.2832-.4868,2.19563,2.19563,0,0,1-.1167-.5938c-.0152-.207-.0215-.3833-.0215-.5278a8.94178,8.94178,0,0,1,.27-2.168,19.23916,19.23916,0,0,1,.6367-2.084,11.17284,11.17284,0,0,1,.5176-1.2304,15.22688,15.22688,0,0,1,.8423-1.544A8.09491,8.09491,0,0,1,16.9883.5616,1.53786,1.53786,0,0,1,18.06451,0,.59178.59178,0,0,1,18.542.2071a1.58268,1.58268,0,0,1,.2701.4941,2.86238,2.86238,0,0,1,.1289.606A5.24422,5.24422,0,0,1,18.9717,1.835Zm2.7652,23.3301a5.5343,5.5343,0,0,1-.08939.9844,2.61231,2.61231,0,0,1-.30131.8632,1.92192,1.92192,0,0,1-.5503.6153,1.3995,1.3995,0,0,1-.83.2363,2.7588,2.7588,0,0,1-1.3936-.4219A6.32574,6.32574,0,0,1,17.17,26.2989a11.67635,11.67635,0,0,1-1.295-1.6739,13.69742,13.69742,0,0,1-1.0673-1.9941,13.849,13.849,0,0,1-.7227-2.1152,8.2617,8.2617,0,0,1-.271-2.041,5.93845,5.93845,0,0,1,.0737-.9053,3.20384,3.20384,0,0,1,.271-.876,1.80341,1.80341,0,0,1,.5406-.6582,1.43252,1.43252,0,0,1,.8833-.2598,2.71715,2.71715,0,0,1,1.3842.4229,6.55258,6.55258,0,0,1,1.3902,1.1338,10.97459,10.97459,0,0,1,1.2944,1.6611,14.55717,14.55717,0,0,1,1.08011,1.9863,12.82565,12.82565,0,0,1,.73529,2.11429A8.63215,8.63215,0,0,1,21.7369,25.1651ZM25.2554,9.8174a1.2825,1.2825,0,0,1-.4653.9175,4.49687,4.49687,0,0,1-1.1983.7891,8.39425,8.39425,0,0,1-1.6616.56,8.05834,8.05834,0,0,1-1.8354.2163c-.2002,0-.4497-.0136-.7442-.0429a4.21028,4.21028,0,0,1-.874-.18261,2.24273,2.24273,0,0,1-.7349-.38969.81109.81109,0,0,1-.3017-.6567,1.30549,1.30549,0,0,1,.4956-.9517,4.60222,4.60222,0,0,1,1.2646-.7871,9.354,9.354,0,0,1,1.6724-.54,7.82393,7.82393,0,0,1,1.7251-.2056c.188,0,.4341.0151.7349.0444a4.05026,4.05026,0,0,1,.8862.1826,2.24347,2.24347,0,0,1,.7319.3882A.80707.80707,0,0,1,25.2554,9.8174Z"/><path class="cls-1" d="M38.1187,19.962a3.03727,3.03727,0,0,1-.45119,1.7031,3.589,3.589,0,0,1-1.16311,1.123,5.20427,5.20427,0,0,1-1.5835.628,7.99809,7.99809,0,0,1-1.7348.1933,6.07027,6.07027,0,0,1-.981-.0771,7.95859,7.95859,0,0,1-.956-.2041,7.70466,7.70466,0,0,1-.96-.336,5.844,5.844,0,0,1-1.03559-.5507,3.47031,3.47031,0,0,1-.81791-.7442,1.47394,1.47394,0,0,1-.3325-.93751,1.51378,1.51378,0,0,1,.4062-1.08009,1.42223,1.42223,0,0,1,1.0786-.4316.98022.98022,0,0,1,.6768.2598c.19381.1718.4087.3681.645.583a4.03345,4.03345,0,0,0,.874.58489,3.09763,3.09763,0,0,0,1.378.25781c.17281,0,.354-.00781.54681-.0214a2.03187,2.03187,0,0,0,.55129-.1202A1.041,1.041,0,0,0,34.69,20.5a.78452.78452,0,0,0,.1728-.538.694.694,0,0,0-.4741-.6153,7.99064,7.99064,0,0,0-1.1841-.4326c-.47309-.1367-.9843-.27831-1.5283-.4189a6.56535,6.56535,0,0,1-1.5293-.6172,3.87465,3.87465,0,0,1-1.1831-1.0147,2.52812,2.52812,0,0,1-.4731-1.5879,3.51883,3.51883,0,0,1,.40871-1.7583,3.30414,3.30414,0,0,1,1.07559-1.1557,4.7483,4.7483,0,0,1,1.5318-.624,8.018,8.018,0,0,1,1.7651-.1934,6.48552,6.48552,0,0,1,1.0244.0859,6.18921,6.18921,0,0,1,2.0884.7315,3.232,3.232,0,0,1,.8086.64939,4.03092,4.03092,0,0,1,.3569.50781,1.08511,1.08511,0,0,1,.16021.5723,1.446,1.446,0,0,1-.38821.9931,1.24837,1.24837,0,0,1-.9682.4307,1.3167,1.3167,0,0,1-.8179-.2158c-.1846-.1446-.3696-.2979-.5479-.4639a3.17206,3.17206,0,0,0-.6797-.4648,2.56518,2.56518,0,0,0-1.1806-.2149,4.26066,4.26066,0,0,0-.5073.0322,1.88,1.88,0,0,0-.4957.1309,1.06179,1.06179,0,0,0-.3872.2793.70606.70606,0,0,0-.1606.4863.67741.67741,0,0,0,.4834.6241,7.13508,7.13508,0,0,0,1.2178.3916c.4853.1132,1.0117.24209,1.5722.3867a6.89991,6.89991,0,0,1,1.5713.6152,3.60846,3.60846,0,0,1,1.2149,1.0791A3.004,3.004,0,0,1,38.1187,19.962Z"/><path class="cls-1" d="M54.0069,22.9942a1.50544,1.50544,0,0,1-1.1109.4648,1.53941,1.53941,0,0,1-1.1342-.4648,1.51622,1.51622,0,0,1-.4649-1.10941V15.7725a1.49289,1.49289,0,0,0-.44239-1.0771,1.54084,1.54084,0,0,0-2.62641,1.0771v6.0908a1.60092,1.60092,0,0,1-.4312,1.1211,1.44028,1.44028,0,0,1-1.1216.4746,1.53025,1.53025,0,0,1-1.13279-.4648,1.50975,1.50975,0,0,1-.46381-1.10941V15.7725a1.48776,1.48776,0,0,0-.4429-1.0771,1.46174,1.46174,0,0,0-1.0908-.4541,1.54564,1.54564,0,0,0-1.5347,1.5312v6.0908a1.541,1.541,0,0,1-.46479,1.1309,1.51092,1.51092,0,0,1-1.11331.4648,1.53975,1.53975,0,0,1-1.1226-.4423,1.51033,1.51033,0,0,1-.4526-1.13091V13.3252a1.56541,1.56541,0,0,1,.4526-1.1323,1.52266,1.52266,0,0,1,1.1255-.4619,1.83716,1.83716,0,0,1,.9385.2227,1.039,1.039,0,0,1,.4858.7133,2.9088,2.9088,0,0,1,2.4204-1.123,5.22081,5.22081,0,0,1,1.6939.2681,3.4628,3.4628,0,0,1,1.458,1.0268,3.57361,3.57361,0,0,1,1.501-1.0054,4.79414,4.79414,0,0,1,1.5434-.2895,4.35984,4.35984,0,0,1,1.5777.28079,3.53405,3.53405,0,0,1,1.2612.80861,3.82474,3.82474,0,0,1,.8423,1.3168,4.85123,4.85123,0,0,1,.3139,1.8028v6.1103A1.53133,1.53133,0,0,1,54.0069,22.9942Z"/><path class="cls-1" d="M59.4507,22.9883a1.59623,1.59623,0,0,1-2.2461,0,1.53866,1.53866,0,0,1-.45109-1.1093V14.462H56.6241a1.32552,1.32552,0,0,1-.9815-.3985,1.30312,1.30312,0,0,1-.3994-.9609,1.333,1.333,0,0,1,.3994-.9819,1.30624,1.30624,0,0,1,.96-.399h1.7256a1.51285,1.51285,0,0,1,1.1225.4619,1.53961,1.53961,0,0,1,.4517,1.1109v8.563A1.562,1.562,0,0,1,59.4507,22.9883Zm.6909-14.2466a1.826,1.826,0,0,1-.5278,1.3042,1.71574,1.71574,0,0,1-1.2856.5508,1.73859,1.73859,0,0,1-1.274-.5385,1.76609,1.76609,0,0,1-.5385-1.295,1.62462,1.62462,0,0,1,.1513-.6797,1.75144,1.75144,0,0,1,.39951-.5708,2.012,2.012,0,0,1,.57269-.3916,1.6027,1.6027,0,0,1,.689-.15031,1.70226,1.70226,0,0,1,.6919.14161,1.79155,1.79155,0,0,1,.5717.3881,1.992,1.992,0,0,1,.3965.5708A1.56336,1.56336,0,0,1,60.1416,8.7417Z"/><path class="cls-1" d="M68.2579,13.2793a1.31524,1.31524,0,0,1-.4121.98049,1.34481,1.34481,0,0,1-.9722.40041H65.752v5.9297c0,.08589.0366.12889.1104.12889a1.02578,1.02578,0,0,1,.4389.10741,1.4151,1.4151,0,0,1,.4126.293,1.60222,1.60222,0,0,1,.3018.4297,1.20373,1.20373,0,0,1,.1196.5293A1.36487,1.36487,0,0,1,65.752,23.459h-.4312a3.14864,3.14864,0,0,1-1.0019-.1591,2.69031,2.69031,0,0,1-.877-.4854,2.3668,2.3668,0,0,1-.6245-.8281,2.76151,2.76151,0,0,1-.2373-1.1944V14.6602h-.7134a1.33114,1.33114,0,0,1-.9809-.40041,1.3085,1.3085,0,0,1-.3984-.96039,1.33763,1.33763,0,0,1,.3984-.9839,1.31728,1.31728,0,0,1,.9595-.3989h.7348V9.6934a1.541,1.541,0,0,1,.4619-1.1328,1.58744,1.58744,0,0,1,2.71,1.1113v2.2447h1.1216a1.35511,1.35511,0,0,1,.9722.3989A1.30054,1.30054,0,0,1,68.2579,13.2793Z"/><path class="cls-1" d="M79.1294,22.9942a1.58664,1.58664,0,0,1-2.70889-1.10941V16.4004a2.15,2.15,0,0,0-.55961-1.6298,1.96234,1.96234,0,0,0-1.40239-.5293,1.76786,1.76786,0,0,0-1.46381.6152,2.366,2.366,0,0,0-.4956,1.5439v5.4629a1.53916,1.53916,0,0,1-.4649,1.1309,1.50962,1.50962,0,0,1-1.1128.4648,1.53059,1.53059,0,0,1-1.1323-.4648,1.50749,1.50749,0,0,1-.4634-1.10941V8.2691a1.53511,1.53511,0,0,1,.4634-1.13231,1.51244,1.51244,0,0,1,1.1108-.46489,1.54777,1.54777,0,0,1,1.1343.46189,1.52511,1.52511,0,0,1,.4649,1.11091v4.3994h.0429a1.87023,1.87023,0,0,1,.6031-.5615,3.4976,3.4976,0,0,1,.7778-.3365,4.8484,4.8484,0,0,1,.7842-.1591,5.31229,5.31229,0,0,1,.6367-.043,4.8387,4.8387,0,0,1,1.6943.2895,3.90257,3.90257,0,0,1,1.3472.8335,3.85973,3.85973,0,0,1,.8823,1.3164,4.56965,4.56965,0,0,1,.3252,1.7696v6.1103A1.54132,1.54132,0,0,1,79.1294,22.9942Z"/><path class="cls-1" d="M94.1749,22.0137a1.44239,1.44239,0,0,1-.4102,1.003,1.37471,1.37471,0,0,1-1.0576.4423,1.65846,1.65846,0,0,1-.5703-.1074,1.35394,1.35394,0,0,1-.53129-.3672L90.4629,21.5811a10.65913,10.65913,0,0,1-1.3046,1.0352,7.72158,7.72158,0,0,1-1.1094.6142,3.9828,3.9828,0,0,1-1.0039.3018,5.88622,5.88622,0,0,1-.9571.0771,5.96332,5.96332,0,0,1-1.9052-.3008,4.34208,4.34208,0,0,1-2.6211-2.375,4.87544,4.87544,0,0,1-.3872-2.0087,4.51084,4.51084,0,0,1,.2924-1.6485,5.25236,5.25236,0,0,1,.7442-1.3291,5.8118,5.8118,0,0,1,1.0049-1.0137,9.658,9.658,0,0,1,1.0678-.7324c-.2739-.31741-.4956-.5937-.6704-.833a5.21688,5.21688,0,0,1-.42179-.6797,2.60548,2.60548,0,0,1-.22421-.6352,3.74261,3.74261,0,0,1-.0644-.7456,3.3053,3.3053,0,0,1,.3657-1.6055,3.53085,3.53085,0,0,1,.96-1.1353,4.04755,4.04755,0,0,1,1.3496-.6674,5.52455,5.52455,0,0,1,1.5312-.2149,5.28964,5.28964,0,0,1,1.4063.2027,4.40467,4.40467,0,0,1,1.3379.6274,3.54113,3.54113,0,0,1,.9941,1.0586,2.8241,2.8241,0,0,1,.3867,1.498,3.48576,3.48576,0,0,1-.2275,1.272,3.99555,3.99555,0,0,1-.6045,1.0586,5.49554,5.49554,0,0,1-.8311.8423,6.88008,6.88008,0,0,1-.9052.625l1.9472,2.3525c.1143-.12891.2315-.2627.3448-.3994.1162-.1396.23041-.2871.3466-.4463a4.36554,4.36554,0,0,1,.668-.7226,1.22138,1.22138,0,0,1,.79881-.2491,1.40077,1.40077,0,0,1,.959.376,1.26052,1.26052,0,0,1,.42289.9824,1.84187,1.84187,0,0,1-.292.9639,8.33976,8.33976,0,0,1-.7891,1.0693c-.1006.1153-.1963.2286-.291.336-.09179.1074-.1904.2197-.292.334l1.251,1.4892a2.27349,2.27349,0,0,1,.3271.4981A1.363,1.363,0,0,1,94.1749,22.0137Zm-8.36039-5.9804a4.73639,4.73639,0,0,0-1.20851,1.038,2.32557,2.32557,0,0,0-.5156,1.5313,2.20944,2.20944,0,0,0,.5586,1.6084,1.9786,1.9786,0,0,0,1.4829.5723A2.607,2.607,0,0,0,87.27251,20.5,5.90235,5.90235,0,0,0,88.669,19.4444Zm2.63669-4.6382a1.19863,1.19863,0,0,0-.1416-.605,1.4029,1.4029,0,0,0-.3349-.3867,1.08267,1.08267,0,0,0-.4327-.2071,2.02547,2.02547,0,0,0-.4326-.0522,1.37675,1.37675,0,0,0-.8066.3022.93292.93292,0,0,0-.4238.7969,1.15611,1.15611,0,0,0,.1289.52,2.80206,2.80206,0,0,0,.3164.4942,5.36052,5.36052,0,0,0,.3769.4433q.19335.2052.32231.3345a4.02414,4.02414,0,0,0,.48529-.313,3.85278,3.85278,0,0,0,.4659-.40041,2.00343,2.00343,0,0,0,.3437-.45109A.95926.95926,0,0,0,88.4512,11.3951Z"/><path class="cls-1" d="M105.2549,22.9942a1.51066,1.51066,0,0,1-1.1093.4648,1.57867,1.57867,0,0,1-1.5928-1.57421V16.3145a1.98789,1.98789,0,0,0-.5645-1.5869,2.0696,2.0696,0,0,0-1.4023-.4863,1.82047,1.82047,0,0,0-1.4678.583,2.21368,2.21368,0,0,0-.4941,1.4902v5.5488a1.52872,1.52872,0,0,1-.4678,1.1309,1.5061,1.5061,0,0,1-1.1094.4648,1.54985,1.54985,0,0,1-1.1357-.4619,1.52293,1.52293,0,0,1-.46-1.11131V13.3252a1.52612,1.52612,0,0,1,.4727-1.1323,1.56058,1.56058,0,0,1,1.123-.4619,1.23064,1.23064,0,0,1,.8623.2959,1.461,1.461,0,0,1,.4326.7905,2.96672,2.96672,0,0,1,1.2598-.9624,4.97441,4.97441,0,0,1,1.8682-.311,4.80733,4.80733,0,0,1,1.6904.2895,3.73637,3.73637,0,0,1,2.2324,2.1499,4.53513,4.53513,0,0,1,.3242,1.7696v6.1103A1.53455,1.53455,0,0,1,105.2549,22.9942Z"/><path class="cls-1" d="M117.8418,17.2549a1.4668,1.4668,0,0,1-.3369,1.084,1.52905,1.52905,0,0,1-1.0927.3252H109.917a2.36874,2.36874,0,0,0,.8848,1.5928,3.44,3.44,0,0,0,3.09671.41889,6.424,6.424,0,0,0,.93939-.44039c.2881-.1631.5528-.30861.7979-.4365a1.481,1.481,0,0,1,.6689-.1944,1.21516,1.21516,0,0,1,.9073.4092,1.33744,1.33744,0,0,1,.3906.9473,1.4522,1.4522,0,0,1-.4649,1.0019,4.30976,4.30976,0,0,1-1.19819.8496,7.6937,7.6937,0,0,1-1.65231.5821,7.79524,7.79524,0,0,1-1.8028.2148,6.18173,6.18173,0,0,1-2.417-.4531,5.29956,5.29956,0,0,1-1.834-1.2627,5.80891,5.80891,0,0,1-1.1757-1.9102,6.60461,6.60461,0,0,1-.4229-2.374,6.47082,6.47082,0,0,1,1.586-4.2319,5.6207,5.6207,0,0,1,1.7851-1.3379,5.18363,5.18363,0,0,1,2.2881-.4956,4.96011,4.96011,0,0,1,2.2764.5185,5.88306,5.88306,0,0,1,1.75,1.3301,6.10487,6.10487,0,0,1,1.123,1.8389A5.61248,5.61248,0,0,1,117.8418,17.2549Zm-3.8974-2.32711a2.12792,2.12792,0,0,0-1.67189-.68649,2.28785,2.28785,0,0,0-1.67581.68649,2.362,2.362,0,0,0-.4941.72851,2.69621,2.69621,0,0,0-.2305.8701h4.7969A2.82151,2.82151,0,0,0,113.9444,14.92779Z"/><path class="cls-1" d="M130.0752,17.7383a6.74531,6.74531,0,0,1-.3564,2.1592,6.0034,6.0034,0,0,1-1.02729,1.877,5.2841,5.2841,0,0,1-1.62111,1.3271,4.45553,4.45553,0,0,1-2.1368.5078,4.61243,4.61243,0,0,1-.7568-.0644,3.9771,3.9771,0,0,1-.7764-.2149,3.43454,3.43454,0,0,1-.7363-.4004,2.66569,2.66569,0,0,1-.6055-.6152h-.0605V26.462a1.58719,1.58719,0,0,1-.4434,1.1386,1.533,1.533,0,0,1-2.2021.003,1.55181,1.55181,0,0,1-.4424-1.1123V13.3301a1.53436,1.53436,0,0,1,.4639-1.1342,1.50887,1.50887,0,0,1,1.1103-.4649,1.62741,1.62741,0,0,1,.9717.3301,1.58621,1.58621,0,0,1,.6025.94969,2.58067,2.58067,0,0,1,1.25591-1.10939,4.17177,4.17177,0,0,1,1.70609-.3574,4.3576,4.3576,0,0,1,2.2002.5386,4.837,4.837,0,0,1,1.5781,1.4145,6.46749,6.46749,0,0,1,.9511,1.9854A8.065,8.065,0,0,1,130.0752,17.7383Zm-3.1513-.1718a4.82506,4.82506,0,0,0-.1416-1.1143,3.45454,3.45454,0,0,0-.4453-1.0772,2.74527,2.74527,0,0,0-.7637-.8115,1.86685,1.86685,0,0,0-1.09279-.3222,1.97266,1.97266,0,0,0-1.08981.3007,2.57734,2.57734,0,0,0-.7696.7784,3.53651,3.53651,0,0,0-.4423,1.0459,4.755,4.755,0,0,0-.1377,1.1132,5.10317,5.10317,0,0,0,.1377,1.1534,4.00789,4.00789,0,0,0,.4326,1.0927,2.56987,2.56987,0,0,0,.7578.8174,1.86749,1.86749,0,0,0,1.11131.3262,1.78172,1.78172,0,0,0,1.08009-.3262,2.78082,2.78082,0,0,0,.75491-.8086,3.72762,3.72762,0,0,0,.458-1.0674A4.55513,4.55513,0,0,0,126.9239,17.5665Z"/><path class="cls-1" d="M141.0713,22.9942a1.50552,1.50552,0,0,1-1.1113.4648,1.58551,1.58551,0,0,1-1.5957-1.57421V16.4004a2.14523,2.14523,0,0,0-.5615-1.6298,1.9535,1.9535,0,0,0-1.3994-.5293,1.77777,1.77777,0,0,0-1.4668.6152,2.39209,2.39209,0,0,0-.4942,1.5439v5.4629a1.54012,1.54012,0,0,1-.4638,1.1309,1.51149,1.51149,0,0,1-1.1104.4648,1.53342,1.53342,0,0,1-1.13569-.4648,1.50852,1.50852,0,0,1-.46291-1.10941V8.2691a1.53618,1.53618,0,0,1,.46291-1.13231,1.51593,1.51593,0,0,1,1.11419-.46489,1.55039,1.55039,0,0,1,1.1319.46189,1.526,1.526,0,0,1,.4638,1.11091v4.3994h.043a1.89919,1.89919,0,0,1,.6025-.5615,3.56342,3.56342,0,0,1,.7784-.3365,4.79737,4.79737,0,0,1,.7871-.1591,5.251,5.251,0,0,1,.6367-.043,4.81659,4.81659,0,0,1,1.69141.2895,3.90436,3.90436,0,0,1,1.34759.8335,3.81382,3.81382,0,0,1,.8838,1.3164,4.56983,4.56983,0,0,1,.3252,1.7696v6.1103A1.54629,1.54629,0,0,1,141.0713,22.9942Z"/><path class="cls-1" d="M153.9493,17.2549a1.4672,1.4672,0,0,1-.335,1.084,1.52932,1.52932,0,0,1-1.09279.3252H146.0274a2.352,2.352,0,0,0,.8809,1.5928,3.43976,3.43976,0,0,0,3.0966.41889,6.65907,6.65907,0,0,0,.9424-.44039c.28521-.1631.5527-.30861.7949-.4365a1.49217,1.49217,0,0,1,.6719-.1944,1.223,1.223,0,0,1,.9082.4092,1.33767,1.33767,0,0,1,.3867.9473,1.44505,1.44505,0,0,1-.4629,1.0019,4.33226,4.33226,0,0,1-1.1972.8496,8.10166,8.10166,0,0,1-3.4551.7969,6.15215,6.15215,0,0,1-2.416-.4531,5.25813,5.25813,0,0,1-1.835-1.2627,5.71187,5.71187,0,0,1-1.1748-1.9102,6.48212,6.48212,0,0,1-.4238-2.374,6.46028,6.46028,0,0,1,1.5898-4.2319,5.51413,5.51413,0,0,1,1.7793-1.3379,5.18236,5.18236,0,0,1,2.2871-.4956,4.96724,4.96724,0,0,1,2.2774.5185,5.84077,5.84077,0,0,1,1.749,1.3301,6.00843,6.00843,0,0,1,1.1231,1.8389A5.61617,5.61617,0,0,1,153.9493,17.2549Zm-3.8985-2.32711a2.12374,2.12374,0,0,0-1.6718-.68649,2.29652,2.29652,0,0,0-1.6729.68649,2.38809,2.38809,0,0,0-.4971.72851,2.71479,2.71479,0,0,0-.2256.8701h4.792A2.80855,2.80855,0,0,0,150.0508,14.92779Z"/><path class="cls-1" d="M169.254,13.30379a1.634,1.634,0,0,1-.10749.582l-2.80471,8.582a1.36989,1.36989,0,0,1-.5625.72271,1.61256,1.61256,0,0,1-.9052.2685,1.38967,1.38967,0,0,1-.8838-.28121,1.37012,1.37012,0,0,1-.5-.73149l-1.50979-5.06251c-.01271-.04289-.03121-.11519-.05271-.21479-.0215-.1016-.0518-.2051-.086-.3125-.0361-.1094-.0644-.2041-.0859-.292-.0215-.0859-.0391-.1299-.0547-.1299s-.0312.044-.05269.1299c-.02151.0879-.05181.1826-.086.292a2.82268,2.82268,0,0,0-.08881.3125c-.0215.0996-.0401.1719-.0518.21479l-1.4668,5.06251a1.38913,1.38913,0,0,1-1.3593,1.0127,1.66562,1.66562,0,0,1-.918-.2685,1.3503,1.3503,0,0,1-.5742-.72271l-2.8047-8.582a1.58113,1.58113,0,0,1-.10739-.56059,1.57868,1.57868,0,0,1,1.57709-1.5942,1.458,1.458,0,0,1,.8936.28079,1.34789,1.34789,0,0,1,.5087.75341l1.2745,4.8901a1.46624,1.46624,0,0,1,.0517.2061q.03225.16108.0733.3222c.0312.1084.0556.2041.07711.2901q.03224.12885.05569.1289c.0117,0,.0302-.043.0517-.1289.0215-.086.043-.1817.0645-.2901.0215-.1074.043-.21481.0674-.3222a.91891.91891,0,0,1,.05171-.2061l1.40329-4.9116a1.42251,1.42251,0,0,1,.4952-.7227,1.36212,1.36212,0,0,1,.8642-.29,1.44743,1.44743,0,0,1,.8867.29,1.382,1.382,0,0,1,.5157.7227l1.4052,4.9116a1.28626,1.28626,0,0,1,.0528.2061q.03225.16108.0732.3222c.0313.1084.05571.2041.0772.2901.0214.0859.04.1289.0546.1289.0127,0,.0313-.043.0528-.1289.0215-.086.0459-.1817.0762-.2901.0283-.1074.0527-.21481.0742-.3222a1.51357,1.51357,0,0,0,.0332-.2061l1.2744-4.8901a1.3382,1.3382,0,0,1,.5059-.75341,1.43333,1.43333,0,0,1,.875-.28079,1.544,1.544,0,0,1,1.1318.4619A1.51461,1.51461,0,0,1,169.254,13.30379Z"/></svg>