<svg id="Layer_1" data-name="Layer 1" xmlns="http://www.w3.org/2000/svg" viewBox="0 0 425.19699 158.5439"  height="57" width="154"><defs><style>.cls-1{fill:#0058a4;}.cls-2{fill:#0072bc;}.cls-3{fill:#00b5ef;}.cls-4{fill:#4fc7f3;}.cls-5{fill:#8ad5f6;}</style></defs><path class="cls-1" d="M366.55959,67.248s-57.5059-6.0029-56.5273-35.6406c0,0-11.5254,23.19629,19.2968,33.5068,18.793,6.2793,37.2305,2.1338,37.2305,2.1338"/><path class="cls-1" d="M366.55959,37.1572s57.5039,6.001,56.5254,35.6367c0,0,11.5332-23.19921-19.3027-33.5039-18.7911-6.2852-37.2227-2.1328-37.2227-2.1328"/><path class="cls-2" d="M351.99519,61.2568S291.128,44.6494,324.003,15.4091C324.003,15.4091,312.65141,40.4951,351.99519,61.2568Z"/><path class="cls-2" d="M381.126,43.1455s60.8692,16.6074,27.98442,45.8476C409.11041,88.9931,420.47369,63.9072,381.126,43.1455Z"/><path class="cls-3" d="M346.84869,3.6494s-20.19928,15.6836-8.0176,44.9365C338.83109,48.5859,307.25879,15.1201,346.84869,3.6494Z"/><path class="cls-3" d="M386.27049,100.7529s20.1914-15.6856,8.0176-44.9414C394.28809,55.8115,425.86429,89.2793,386.27049,100.7529Z"/><path class="cls-4" d="M338.12209,35.38469C346.62019,10.5205,364.751,3.7021,371.37409,0,359.92679.4101,339.34279,5.7558,338.12209,35.38469Z"/><path class="cls-4" d="M394.99519,69.0214c-8.4961,24.8604-26.629,31.6827-33.25,35.3838C373.18659,103.9931,393.77641,98.6513,394.99519,69.0214Z"/><path class="cls-5" d="M359.61819,12.0224s15.8633-15.6426,32.9277-8.958C392.54589,3.0644,373.72759,4.5078,359.61819,12.0224Z"/><path class="cls-5" d="M373.49909,92.3779s-15.8614,15.6367-32.9239,8.9609C340.57519,101.3388,359.39159,99.8945,373.49909,92.3779Z"/><path class="cls-1" d="M28.9292,97.7324c-4.3452-1.9834-8.6416-3.6748-11.7627-5.711-3.1342-2.0605-4.9785-4.2714-4.9892-7.5029.0039-4.7676,4.2783-8.7109,11.7012-8.7519a15.18249,15.18249,0,0,1,7.2285,1.7255c1.9111,1.0791,2.9565,2.4639,2.9443,3.8741v4.2597H45.21341V78.8232c.00679-5.3203-3.54391-8.9346-7.85641-11.0742a31.70331,31.70331,0,0,0-13.4785-3.0449C9.9961,64.7255.02541,73.4648,0,84.8232c.00641,11.7637,9.1929,17.0312,17.8467,21.0937,4.356,2.0547,8.6616,3.8711,11.7886,6.0352,3.1435,2.1924,5.01511,4.5635,5.0264,7.9375-.0079,6.0225-5.0171,9.7295-11.396,9.7734a22.353,22.353,0,0,1-12.48929-4.164,27.04867,27.04867,0,0,1-4.812-4.1592l-.65191-.6904-2.8574-3.1465-.522,1.3672a18.26833,18.26833,0,0,0-1.2915,6.4961c-.03319,4.041,1.7705,8.8213,7.8643,11.916a32.32569,32.32569,0,0,0,14.5596,3.4414c7.3144,0,13.2548-2.4414,17.3447-6.3535a20.50218,20.50218,0,0,0,6.3257-14.9903C46.7432,107.0439,37.5782,101.6591,28.9292,97.7324Z"/><path class="cls-1" d="M129.7637,139.7002V93.2353c0-2.4297-.50829-4.3564-1.8267-5.6777-1.3193-1.3115-3.2475-1.8262-5.6762-1.8223H111.564V96.0976h5.1338c1.1269.1279,1.2373.1787,1.3603,1.3613v42.2413Z"/><path class="cls-1" d="M121.9737,81.5732a8.0049,8.0049,0,1,0-8.0074-8.0039A8.00272,8.00272,0,0,0,121.9737,81.5732Z"/><path class="cls-1" d="M278.35449,85.1142c-6.9668.0059-12.4355,4.2402-15.5859,10.082V92.71769a6.74141,6.74141,0,0,0-1.9531-5.29679c-1.3536-1.209-3.2715-1.6895-5.6524-1.6895H244.77441V96.1005h5.13478c1.1289.127,1.24022.1719,1.3613,1.3604v42.2393h11.8067V117.456a30.92165,30.92165,0,0,1,1.1953-9.11131c2.29492-7.42969,7.832-11.624,13.7734-11.62989a14.96048,14.96048,0,0,1,2.7852.2871l1.1094.2617V85.4541l-.7637-.1172A20.9787,20.9787,0,0,0,278.35449,85.1142Z"/><path class="cls-1" d="M101.3907,92.4111a21.99156,21.99156,0,0,0-17.4458-7.9102c-9.1202,0-14.1802,4.4239-16.5162,7.3282a5.74592,5.74592,0,0,0-1.7607-4.4766c-1.2607-1.1104-3.0967-1.6172-5.5327-1.6211H49.8492V96.1005h5.13521c1.12649.127,1.23779.1768,1.36039,1.3604v54.00679h.0195v7.07621H68.1509V136.21969c0-.65239-.0102-1.25779-.0288-1.79979a19.49151,19.49151,0,0,0,15.1016,6.5166,23.11907,23.11907,0,0,0,17.6328-7.7403c4.3926-4.9433,6.9814-12.0019,6.978-20.4804C107.8345,104.4599,105.5503,97.4179,101.3907,92.4111ZM81.6753,130.5703c-8.9863-.01861-13.79589-8.628-13.8325-17.6514.08061-12.95121,6.8731-17.78421,14.146-17.8535,8.0625.0185,13.773,6.7031,13.834,17.7539C95.7696,124.3388,89.3716,130.5429,81.6753,130.5703Z"/><path class="cls-1" d="M325.71589,124.7763c-.0176-9.3301-7.6797-13.38861-14.7891-16.2363a102.1268,102.1268,0,0,1-9.6816-4.0547c-2.5879-1.43361-3.9825-2.8945-3.9766-4.8613.0117-3.3789,3.0156-5.2129,8.7832-5.28031a12.03015,12.03015,0,0,1,4.7363.97361c1.4278.6719,2.2051,1.5235,2.19532,2.5567v3.4814h10.77348V95.5029c.0058-4.4375-3.0957-7.2813-6.7364-8.8545a29.59816,29.59816,0,0,0-11.2773-2.1494c-5.4355.0029-10.4492,1.1758-14.1797,3.7265a13.69788,13.69788,0,0,0-6.1055,11.8135c.02742,9.0352,7.6719,13.1885,14.7793,16.1865,7.2735,2.961,13.9532,5.3516,13.6758,8.96-.01368,3.7324-3.3418,5.8447-7.8281,5.9971a19.77777,19.77777,0,0,1-10.9492-3.6768,23.8327,23.8327,0,0,1-4.25-3.6738l-.5762-.61231-2.5254-2.77929-.4609,1.2109a16.0677,16.0677,0,0,0-1.1426,5.7393c-.02728,3.5693,1.5664,7.793,6.9492,10.5283a28.561,28.561,0,0,0,12.8653,3.043c6.4628,0,11.7128-2.1563,15.3281-5.61621l-.0117-.02839A14.39414,14.39414,0,0,0,325.71589,124.7763Z"/><path class="cls-1" d="M183.2178,135.2392c4.4082-5.5244.9531-11.7129.2793-12.8027l-.8086.914a21.42552,21.42552,0,0,1-4.2305,3.45019,21.04575,21.04575,0,0,1-11.2734,3.46781c-9.2827-.04781-17.4141-6.292-17.4448-17.6553.0371-10.5966,7.2007-17.7187,16.9258-17.75a15.40023,15.40023,0,0,1,5.9067,1.208c1.8232.8311,2.8955,1.93749,2.8799,3.25v3.7823h10.8769V96.84269c.0039-4.91889-3.5078-8.07709-7.5566-9.86909a31.52647,31.52647,0,0,0-12.1069-2.4727c-8.6163-.0058-15.8731,3.0743-20.9561,8.1592a29.26634,29.26634,0,0,0,.0523,40.2295c5.082,5.0488,12.2875,8.0469,20.7001,8.0469a30.52273,30.52273,0,0,0,12.6446-2.6914c.2793-.15041.4961-.2676.7383-.3965l-.002-.002A11.29385,11.29385,0,0,0,183.2178,135.2392Z"/><path class="cls-1" d="M219.77441,130.46769c-8.60352,0-15.94532-5.53709-16.95312-15.61129h37.8614l.09172-.8066c0-.0157.30858-2.7735.31058-4.2207,0-6.9239-2.0078-13.2481-5.9609-17.8672-3.9532-4.6211-9.8672-7.4737-17.4122-7.461a26.66244,26.66244,0,0,0-19.2988,7.7012c-4.87109,4.93459-7.78709,12.0098-7.78709,20.5107a28.10462,28.10462,0,0,0,7.94141,20.0928c5.04488,5.08009,12.22848,8.1074,20.69528,8.1309m-1.65428-46.6944c5.81248.0459,10.63678,3.8409,11.30468,11.4883h-25.5449C205.16509,98.1513,210.67869,94.2812,217.60841,94.2421Zm1.65428,46.6944c6.5821,0,21.543-3.5645,16.3379-17.5371,0,0-4.6035,7.2168-15.82618,7.06829"/></svg>