<svg id="Layer_1" data-name="Layer 1" xmlns="http://www.w3.org/2000/svg" viewBox="0 0 344.2 39.27" height="28px" width="250px"><defs><style>.cls-1{fill:#fff;}</style></defs><path class="cls-1" d="M163.49,410.42a16.21,16.21,0,0,1,1.08,11.52,16.47,16.47,0,1,1-23.29-19.1,17.35,17.35,0,0,1,7.45-1.77,16.47,16.47,0,0,1,14.76,9.35m-14.43-8.55a11.29,11.29,0,0,1,0,2.26.32.32,0,0,1,.07-.19c.12-.07.21,0,.26.11s.06.31,0,.38c.1,0,.15-.06.24-.06a12.34,12.34,0,0,1,5.17,1.57v0c.32-.15.73-.36,1.05-.08.4-.15.47.34.79.39a1.75,1.75,0,0,1,.87,1.11c.07.15.3.25.33.41a6.37,6.37,0,0,1,1.24-1.43l.28-.12a15.28,15.28,0,0,0-8.69-4.11,12.06,12.06,0,0,1-1.6-.2m-.91.09a15.86,15.86,0,0,0-8.81,3.12c-.5.34-1,.86-1.45,1.16H138a14.14,14.14,0,0,1,1.81,1.74l0-.11a12.93,12.93,0,0,1,8.37-3.52l-.07-.2,0-2Zm2.81,1.23-1.18.51c-.1,0-.29-.09-.36,0l0,.14c.43.56,1.19.25,1.73.14a1,1,0,0,0,1.06-.28v-.06a1.64,1.64,0,0,0-1.27-.49m-1.91,2,.08.15c0,.76,0,1.57,0,2.29a2.48,2.48,0,0,1,.94,0,9.56,9.56,0,0,1,4.4,1.77,1.24,1.24,0,0,1-.37-.59l.1,0c0-.25-.26-.38-.3-.61a.16.16,0,0,1,.18-.07,5.1,5.1,0,0,1,.72.84.47.47,0,0,1,.46.14c.24.14.09.44.27.61,0,.48.62.75.59,1.23,0,.12.15,0,.2.08l.49.61c-.09.11,0,.25.08.34s.34-.18.56-.14,0,.39,0,.59c.12,0,.28-.1.38,0s-.15.3-.23.41.15.14.28.18a.22.22,0,0,1,.2.29c.41.43-.12.89.07,1.34a.75.75,0,0,1-.21.8c0,.36-.32.58-.45.89l-.42.08c-.22.22.19.49,0,.63h.92l-.1-.09a1.38,1.38,0,0,1,.12-1.17,2.6,2.6,0,0,1,.44-.9s.16-.12.21,0a1.65,1.65,0,0,1-.14.85,2.45,2.45,0,0,1,.25,1.33c.81-.05,1.61-.06,2.4-.06l-.07-.15a11.47,11.47,0,0,0-1.07-4.24c-.17,0-.29.14-.49.1a.16.16,0,0,1-.09-.17,12.25,12.25,0,0,0-.91-1c-.41,0-.6-.44-1-.49s-.11-.68-.59-.53a.76.76,0,0,1-.51-.55,1.35,1.35,0,0,0-.47-1.16c-.3-.11-.42.28-.71.22s-.09-.3-.14-.44-.2-.21-.17-.37c.38-.51-.47-.5-.28-1-.05-.36-.42-.5-.61-.79a13.65,13.65,0,0,0-4-1.14,2.62,2.62,0,0,1-1-.13m7.41,0c-.18.17-.32-.15-.48,0a.34.34,0,0,0,.06.24c.34.12.38.62.83.51.13-.15-.09-.31,0-.49a.49.49,0,0,0-.37-.3m-14.7,2.21c-.51.35-1,.81-1.5,1.12a11.83,11.83,0,0,1,1.65,1.53l.06.15a9.89,9.89,0,0,1,4.91-2.49,4.41,4.41,0,0,1,1.3-.09,16.91,16.91,0,0,1,0-2.36,12.57,12.57,0,0,0-6.4,2.14m18.19-.75a18.76,18.76,0,0,1-1.62,1.75l-.28.06c.17,0,.22.24.33.37.6.32.76,1,1.28,1.32.29.61,1,1.08,1,1.79a13,13,0,0,1,1.24,5.08l-.06.1a.32.32,0,0,0,.19-.07l2.36,0c-.15-.23-.09-.57-.13-.85a16.18,16.18,0,0,0-4.31-9.51m-22.52.06a16.12,16.12,0,0,0-4.19,8.94c-.09.49,0,1-.13,1.5a15.27,15.27,0,0,1,2.53,0l-.06-.32a13.33,13.33,0,0,1,2.46-7,6.62,6.62,0,0,1,1.1-1.25c-.54-.5-1.09-1.08-1.65-1.63Zm10.77,1.71-.13.08a9.59,9.59,0,0,0-5.47,2.32,22.37,22.37,0,0,1,1.75,1.63l.12-.18A7.47,7.47,0,0,1,147,411a3.67,3.67,0,0,1,1.23-.14,10.79,10.79,0,0,1,0-2.41m.86,0,.09.18,0,2.22.21,0a7.26,7.26,0,0,1,3.68,1.5l.06.17c.36-.51.92-.95,1.35-1.45l.41-.23-.19-.09a9.61,9.61,0,0,0-3-1.7,15.08,15.08,0,0,0-2.64-.56m-9.39.62,0,.15-.88,1.13a13,13,0,0,0-2.34,6.79l2.24,0,.21.08c-.09-.05-.06-.15-.09-.23a9.86,9.86,0,0,1,2.61-6.15,16.62,16.62,0,0,1-1.73-1.73m15.67,2.27-.05.1c-.75.79-1.58,1.6-2.3,2.4a.59.59,0,0,0,.23.24c0-.2.13-.37.15-.57.2-.27.49-.1.75,0a5.71,5.71,0,0,1,1.16.08c.29.14.32.52.59.67a.24.24,0,0,1-.08.31c.08.62.37-.16.68,0,.14.05.3,0,.4.18s.36.2.37.45-.15.15-.23.22c.07.24-.26.4-.14.66.47.09.49-.46.71-.7a4.21,4.21,0,0,0-.46-1.24c-.27-.06-.43-.38-.7-.43-.53-.21.08-.54,0-.85a10.08,10.08,0,0,0-1.09-1.46m-13.33.09a9.61,9.61,0,0,0-2.2,4.53,6.9,6.9,0,0,1-.2,1.22,2.1,2.1,0,0,1,1,0c-.19-.1,0-.33-.14-.46s-.06-.46.14-.59c0-.34.33-.51.36-.81s.49-.12.68-.3,0-.18,0-.27c.17-.22.42-.21.62-.34a1.76,1.76,0,0,1,.55-.57c.49,0,.5-.67,1-.69a20.57,20.57,0,0,1-1.81-1.68m7.08.27c.15.46,0,1.15.11,1.69l.59.2c.17-.29.55-.35.71-.62.11-.08.23,0,.32.1a1.89,1.89,0,0,1-.1.66c-.22.44-.75.5-1,.82.18.1.29-.09.45-.13a1,1,0,0,1,.55.36c.14.07.28,0,.41-.07.09-.68.95-.58,1.2-1.22l-.16.06c-.06-.09-.23-.05-.22-.2a1.79,1.79,0,0,1,.49-.39,8.35,8.35,0,0,0-2.33-1.07,7.72,7.72,0,0,1-1-.19m-4.41,1.71h.18c.2.2.52.15.67.42s-.14.13-.14.25l.14.1c.15.06.12-.09.18-.16s.23.2.43.2a.3.3,0,0,1,.43.06c.13-.12.41,0,.45-.22.26-.28.12-.69.49-.86.14.07,0,.19.05.31.25.1.54-.22.74,0a5.06,5.06,0,0,1-.12-1.79,5.61,5.61,0,0,0-3.5,1.65m4,1.36c-.13-.15-.41-.06-.58,0,.16.16.09.46.19.66a1.56,1.56,0,0,1-1,.62c-.11.13-.08.41-.34.39-.08.18-.36.29-.25.55a5.45,5.45,0,0,0-.14.94c-.48.3-.34-.4-.59-.55l-.08.14c-.1,0-.16,0-.23-.1s-.2-.05-.26,0-.27.32-.23.57-.3.1-.26.25a3.76,3.76,0,0,0,.82-.11c.19.05.35-.09.54-.1a.17.17,0,0,1,.11.2h.07a.33.33,0,0,0,.13-.39c0-.18.2-.18.32-.23s0,.16,0,.24c.37.14-.08.41-.13.61s0,.51-.32.46a.13.13,0,0,1-.08-.14h0a.42.42,0,0,0,.22.37c.23-.19.24-.51.57-.55.17-.18-.08-.46.18-.61.42,0,.88-.19,1.22.16,0,.14-.08.21,0,.33a1.56,1.56,0,0,1-.3.55.26.26,0,0,1-.08.31c-.11.5-.69.26-1,.43a2.56,2.56,0,0,0,1.81.5c.35,0,.2-.45.37-.65.12-.57.64-.18,1-.34a2.05,2.05,0,0,0,.28-.76.54.54,0,0,1-.22-.61c-.14-.19-.12-.53-.43-.57,0-.06,0-.14,0-.19s.17-.24.22-.38c-.19-.12-.14-.39-.12-.55-.32.09-.36-.33-.59-.42-.06-.18-.27-.22-.43-.25-.39.19-.46-.29-.75-.41,0-.09-.1-.22,0-.29s.34,0,.51,0Zm-7.11,2c-.67.21.1.71-.06,1.12-.09.24-.34,0-.51.12l-.06.43c-.1.25-.42.07-.57.24s0,.33.1.47c-.23.52.52.68.51,1.16.23.29,0,.72.29,1,.08.53-.07,1.25.4,1.67l.08.51c.1.35-.42.26-.35.57.09-.05.12.08.13.12v0a22.4,22.4,0,0,1,2.1-2.15l-.31-.31a8.1,8.1,0,0,1-1.26-2.81l-.24-.12a6.13,6.13,0,0,0-.11.73l-.09.1c-.17,0-.27-.15-.42-.24s-.12-.24,0-.31a.25.25,0,0,1,.2.06c.08-.09,0-.22.08-.34s-.14-.37,0-.55c.15,0,.27.18.33.28s.28-.08.41-.14.2-.32,0-.41a2,2,0,0,0,0-1c-.09-.27-.39-.22-.61-.2m15.33.28a.64.64,0,0,1-.24,0,.64.64,0,0,1,.24,0m-.51.8.25.25c.26.18.09.54.36.69s.43.54.57.81a.68.68,0,0,0,.07-.23c.12-.45.1-1,.24-1.4a3.52,3.52,0,0,1-1.49-.12m5.6.12-.14-.1.08.22a13.22,13.22,0,0,1-2.59,7.27,5.46,5.46,0,0,1-1,1.06,18.23,18.23,0,0,1,1.83,1.79l.06-.12a15.78,15.78,0,0,0,4.09-10l.1-.2-.13.06Zm-3.28-.06a8,8,0,0,1-.12,1.47l.27.3a.31.31,0,0,1-.05.38.33.33,0,0,1-.38,0A10.81,10.81,0,0,1,157,423.2a3.62,3.62,0,0,1-.89,1l.75.65,0-.16c0-.1.05-.21.17-.2.36,0,.37.38.58.57,0,.32.22.56.13.85A12.14,12.14,0,0,0,161,418.1l.11-.13c-.73.08-1.51,0-2.27,0Zm-19.11,0,.13.2a7.18,7.18,0,0,1,.11,1.6c.09-.15.11-.36.31-.46,0-.15-.2-.19-.17-.34.15-.3,0-.79.41-.92a1,1,0,0,1-.79-.08m-3.94,0-.23.08-2.27,0a16.65,16.65,0,0,0,2,7.19,27.94,27.94,0,0,0,2.18,3.06l1.63-1.68.2-.08a4.75,4.75,0,0,1-.76-.79,1.11,1.11,0,0,1-.69-.53c-.08-.09,0-.25-.1-.31l-.1.12c-.29.14-.39-.16-.59-.28s-.13-.62-.47-.53c-.13,0-.17-.16-.26-.24-.31,0-.4-.32-.57-.49,0,.07,0,.17-.1.22-.33.07-.44-.33-.66-.49-.06,0-.1.09-.18.07a.94.94,0,0,1-.34-.69c-.27-.3-.14-.78-.1-1.15.05-.1.19-.16.17-.28s.25-.19.43-.19a.46.46,0,0,1,.16.15c.1-.06.34,0,.25-.23a1.22,1.22,0,0,1,.53-.2,3.68,3.68,0,0,0,.37.51l-.11-.18a12.57,12.57,0,0,1-.39-2.49c0-.05-.11-.07,0-.12l0,0a2,2,0,0,1,0-.45m3.2,0-.18.08a19.06,19.06,0,0,1-2.28-.06l.1.14.18,1.51a11.38,11.38,0,0,1,.31,1.71c.09-.12,0-.37.25-.39-.09-.19.18-.34,0-.5a1.61,1.61,0,0,1,.47-1.08c.41,0,.45-.56.86-.59.22,0,.35.28.44.38a1.5,1.5,0,0,1-.18-1.2m4.21,1c.22.43.35.91.58,1.34s.48.67.63,1a4.65,4.65,0,0,1,.69-.8.43.43,0,0,0-.08-.32c-.07-.17,0-.42-.14-.57-.21.07.08.29,0,.41a.13.13,0,0,1-.2-.1.52.52,0,0,1-.39-.37c.15-.09,0-.14-.09-.22s-.09,0-.15,0h-.12c0-.47-.53-.19-.72-.44m2.57.65a1.16,1.16,0,0,1-.34.53l0,0c.19-.14.33-.4.59-.41Zm6.47.67a.53.53,0,0,0,.13.39c.32,0,.18.4.47.36s0-.19.06-.3-.29-.27-.45-.42l0-.13c-.12-.06-.18,0-.25.1m4.63,0c-.24,0-.52.12-.73,0s-.12,0-.11.09-.17.28-.35.23-.15-.23-.2-.34a1,1,0,0,1,0,.25,3,3,0,0,0-.35.55c-.18.19-.45.13-.63.28,0,.4-.47.31-.72.44l.07.09a.29.29,0,0,0,.35-.08c.35.09.27-.34.47-.49s.33-.17.51-.06a1.19,1.19,0,0,1,.2.83c-.2.2-.1.52-.24.75,0,.27-.29.39-.25.66a.6.6,0,0,1-.45.14,7.75,7.75,0,0,0-2.05-.47.15.15,0,0,0-.1.16c.3.15.66.16,1,.29s.47.42.82.31.79.1,1-.21c0-.3.23-.52.36-.79l.1,0c.16.17.16.42.23.61a9,9,0,0,0,.61-.77,7.35,7.35,0,0,0,1.2-2.53,2.41,2.41,0,0,0-.65.12m-10.32,0a12.69,12.69,0,0,1-1.51,1.63,6.29,6.29,0,0,0,3,1.36c0-.22,0-.5.08-.69s.3-.17.46-.14a.14.14,0,0,0,.1-.21c-.23-.05-.13-.31-.21-.46s.15-.07.11-.17.09-.28-.05-.42c.05,0,.1-.13.18-.13-.52.27-1.08-.06-1.53-.26-.22-.13-.53-.25-.58-.51m4.76,1.43c0,.07-.11.18,0,.22.2-.2.62-.19.63-.49-.29,0-.43.12-.63.27m.93.62c-.26,0-.39.19-.58.35s-.34-.25-.53-.16l.08.08a.17.17,0,0,1,0,.23c-.28.26-.41-.12-.67-.1v.1c0,.06,0,.15-.1.12-.16-.27-.5-.17-.66-.41-.11-.06-.2,0-.28.08s-.32,0-.25.2c-.21.07-.23.29-.38.42-.25,0-.37.25-.6.24,0,.05,0,.13.07.14a.91.91,0,0,0,.47.06c.25-.4.66-.07,1-.22.21,0,.07.27.22.36.34-.11.59.28.86,0,0-.39.42-.36.66-.45s.79-.52.74-1Zm-7.91.22a11.66,11.66,0,0,1-1.62,1.67c.25,0,.39.3.6.42a10.25,10.25,0,0,0,4.19,1.87l-.4-.18c-.29-.34-.71-.73-.73-1.2.3-.1.26-.42.36-.64a1.65,1.65,0,0,1,.86-.48c-.82.35-1.54-.27-2.23-.59a3.21,3.21,0,0,1-1-.87m11.38,2.29-.06-.16a1.29,1.29,0,0,1-.37.47c0,.13,0,.33.12.42.33.11.75.32.82.7-.13.36-.81.69-.39,1.08.14.2-.19.27-.14.44l.12-.16a10.42,10.42,0,0,0,1.45-1.22h.06c-.1,0-.22.07-.33,0a.52.52,0,0,1-.27-.55Zm-13.17.31,0-.06,0,.1Zm.26.35a.35.35,0,0,1-.19-.25Zm.06.07c.05.19.31.32.24.56a.7.7,0,0,1-.66.22c-.46-.07-.81.28-1.25.33s-.54-.37-.91-.33a12.87,12.87,0,0,0,7.93,3.4l.23.16-.1-.28v-2.16l-.2.08a9.53,9.53,0,0,1-5.28-2m15.13,1.53,0-.2a4.28,4.28,0,0,1-1.12,1.08c-.53.54-1.4.65-1.67,1.42-.29.26-.39.67-.79.82-.14.39-.56.37-.8.65-.69.62-1.13-.39-1.75-.51l-1.25.22a4.24,4.24,0,0,1-1.28,0,18.37,18.37,0,0,1,0,2.57l.15-.1a15.94,15.94,0,0,0,10.28-4.32Zm-18.18,0,0,.1-1.69,1.7a16.62,16.62,0,0,0,8.73,4.08,14.51,14.51,0,0,1,1.63.2l-.12-.2V430.8l.08-.12-.25.07a12.9,12.9,0,0,1-8.36-3.61m9.36.58.12.18a17,17,0,0,1,0,2,13.6,13.6,0,0,1,2-.28.7.7,0,0,1-.36-.21c-.38,0-.56-.43-.68-.73s.09-.4.18-.59c-.17-.33-.68-.09-1-.21-.08-.07-.14-.17-.25-.18" transform="translate(-125.62 -401.07)"/><path class="cls-1" d="M164.06,404.17a7.25,7.25,0,0,1,2.1,3.91l.2.46a17,17,0,0,1-4.44-4.72l-1.36-1.37a11.53,11.53,0,0,1,3.5,1.72" transform="translate(-125.62 -401.07)"/><path class="cls-1" d="M133.62,406.31a26.88,26.88,0,0,1-2.74,2.5c.49-1,.51-2.23,1.21-3.16,1-1.73,2.82-2.33,4.46-3a20.18,20.18,0,0,0-2.93,3.63" transform="translate(-125.62 -401.07)"/><path class="cls-1" d="M168.32,408.12c.39,1.72-.17,3.4.18,5.14h0c-.94-1.84-2.93-2.71-4.29-4.18a5.88,5.88,0,0,1-1.34-3.07c.79,1.89,2.9,2.31,4.11,3.89a5.07,5.07,0,0,1,.8,1.3l0,0a35.8,35.8,0,0,1-1.41-4.76,3.69,3.69,0,0,0-1.38-1.8,4.77,4.77,0,0,1,3.3,3.51" transform="translate(-125.62 -401.07)"/><path class="cls-1" d="M132.13,404.9c-1.62,1.12-1.52,3.12-2,4.78-.17.61-.45,1.18-.59,1.81l0,0a5.73,5.73,0,0,1,1.33-2c1.16-1.06,2.86-1.72,3.43-3.29,0,2.18-1.85,3.9-3.6,5.13a7.4,7.4,0,0,0-1.81,2.16c0-.55.08-1.1,0-1.69-.19-1.91-.33-4.09,1-5.51a4.07,4.07,0,0,1,2.16-1.45" transform="translate(-125.62 -401.07)"/><path class="cls-1" d="M169.35,408.5a7.65,7.65,0,0,1,.71,7.34,13.44,13.44,0,0,0-.83,3c-.07-.18-.09-.42-.15-.63-.58-2.2-2.66-3.77-3.52-5.85a11.79,11.79,0,0,1-.64-2.12c.92,1.69,3.18,2.57,3.8,4.43a9.35,9.35,0,0,1,.39,1.58l.06-.06a21.54,21.54,0,0,1,.08-5.84,4.86,4.86,0,0,0-.69-2.82c.37.21.53.62.79.94" transform="translate(-125.62 -401.07)"/><path class="cls-1" d="M128.66,407.88c-1.24,1.9-.21,4.28-.26,6.43l-.17,2.21.08.05a6,6,0,0,0,.14-.76c.3-1.77,1.84-3,3.19-4.26a3.41,3.41,0,0,0,.68-1,8.81,8.81,0,0,1-.75,2.6c-1,2.05-3,3.72-3.34,6.07-.17-2.25-1.7-3.93-1.55-6.31a7.57,7.57,0,0,1,1.89-4.95Z" transform="translate(-125.62 -401.07)"/><path class="cls-1" d="M170.71,421.25c-.86,1.22-1.9,2.36-2.7,3.6a6.89,6.89,0,0,0-.18-3.13,27.26,27.26,0,0,1-1.43-6.24l0-.85c.5,2.25,2.71,3.8,2.57,6.32a5.31,5.31,0,0,1-.25,1.67l0,.05.1-.12a24.73,24.73,0,0,1,1-3.69c.73-1.67,1.63-3.34,1.26-5.35a9.09,9.09,0,0,1-.43,7.74" transform="translate(-125.62 -401.07)"/><path class="cls-1" d="M128,420.46a22.29,22.29,0,0,0,.63,2.5l.09,0c-.85-2.36.36-4.55,1.59-6.39a6.37,6.37,0,0,0,.61-1.63,13.66,13.66,0,0,1-.3,3.4c-.29,1.41-.73,2.74-1.12,4.11a6.5,6.5,0,0,0-.06,2.71l-.12-.1c-.89-1.64-2.66-2.93-3.18-4.73a10,10,0,0,1-.43-4.66,8.69,8.69,0,0,1,.51-1.78c-.5,2.55,1.22,4.39,1.78,6.61" transform="translate(-125.62 -401.07)"/><path class="cls-1" d="M167.32,425.12a5.85,5.85,0,0,1-1,3h.09a37.58,37.58,0,0,1,2.32-3.12c1.43-1.37,2.87-2.78,3.06-4.69.49,3.19-1.3,6-3.94,7.78-1.09.71-2.2,1.38-3.25,2.19v-.1c1.61-2.67.82-6.33,1.81-9.26l.37-1c-.2,1.83.59,3.38.53,5.21" transform="translate(-125.62 -401.07)"/><path class="cls-1" d="M132.16,428.74c.17.61.53,1.15.75,1.73-2.44-1.66-5.76-3.24-6.84-6.29a7.53,7.53,0,0,1-.41-3.55c.2,2.71,3.11,4.14,4.46,6.38a7.09,7.09,0,0,0,1,1.35c-.07-.28-.34-.53-.44-.82a5.85,5.85,0,0,1-.53-3.2c.13-1.39.71-2.67.49-4.13,1.19,2.56.83,5.76,1.49,8.53" transform="translate(-125.62 -401.07)"/><path class="cls-1" d="M163.69,430.76a8.21,8.21,0,0,1-1.67,2c.21,0,.4-.2.59-.32,1.76-1.75,4-2.24,5.95-3.67a5.65,5.65,0,0,0,1.79-2.26c-.36,2.91-3.25,5.64-6,6.5-1.4.38-2.91.5-4.28,1,2.32-2,2.19-5.07,3.74-7.41.49-.66.9-1.36,1.47-2-.94,1.89-.53,4.34-1.61,6.17" transform="translate(-125.62 -401.07)"/><path class="cls-1" d="M134.45,428.31c.81,2,1.13,4.29,3,5.81-2.05-.67-4.45-.48-6.25-1.74a8.65,8.65,0,0,1-4.1-5.53c1.35,3.08,4.76,3.33,7,5.21a5.82,5.82,0,0,0,1.33.91l0,0a7.5,7.5,0,0,1-1.5-1.63c-1.34-1.86-.87-4.46-1.87-6.46a15.05,15.05,0,0,1,2.29,3.46" transform="translate(-125.62 -401.07)"/><path class="cls-1" d="M158.73,434.3a11.76,11.76,0,0,1-1.64.63,15.43,15.43,0,0,0,2.13-.32c2.71-.42,5.8,0,7.69-2.29a7.19,7.19,0,0,1-4.07,3.51c-2.76,1-5.53-.24-8.18-.66l-.5-.07h0a7.49,7.49,0,0,0,3.49-1.57,35.6,35.6,0,0,1,4.45-4c-1.22,1.57-1.35,3.79-3.37,4.8" transform="translate(-125.62 -401.07)"/><path class="cls-1" d="M139.79,433.56a7.69,7.69,0,0,0,3.64,1.61c-.32.11-.74.08-1.08.17-2.39.59-5,1.55-7.57.69a7.4,7.4,0,0,1-4.17-3.44c2.18,2.48,5.74,1.66,8.65,2.3a4.17,4.17,0,0,0,1.22.16c-.34-.22-.83-.2-1.2-.4-2.28-.8-2.61-3.26-3.85-4.93a34.56,34.56,0,0,1,4.36,3.84" transform="translate(-125.62 -401.07)"/><path class="cls-1" d="M157.58,436.91a6.31,6.31,0,0,0,5.58-.6,6.67,6.67,0,0,1-2.95,2.06c-2.46.92-5,0-6.94-1.5-.78-.49-1.46-1.2-2.47-1.14a3.84,3.84,0,0,0-1,.1,19.07,19.07,0,0,1,5.19,3.6,7.67,7.67,0,0,1-.94.85,18.34,18.34,0,0,0-5.11-4.15,3.39,3.39,0,0,0-1.06.45,15.8,15.8,0,0,0-4.21,3.76l-1-.81a17.85,17.85,0,0,1,5.21-3.71c-1.87-.59-3.09,1-4.51,1.76a6.56,6.56,0,0,1-8.91-1.08,6.41,6.41,0,0,0,5.69.5c2.41-1.05,4.89-2.36,7.79-1.73.45,0,.89.46,1.31.07a9.24,9.24,0,0,1,6.43.81Z" transform="translate(-125.62 -401.07)"/><path class="cls-1" d="M179.2,424.88H184c4.3,0,7.08,3,7.08,7.32v.19c0,4.34-2.78,7.33-7.08,7.33H179.2Zm3.07,2.78V437H184c2.33,0,3.92-1.64,3.92-4.58v-.11c0-2.94-1.59-4.6-3.92-4.6Z" transform="translate(-125.62 -401.07)"/><polygon class="cls-1" points="67.08 23.81 67.08 38.65 76.72 38.65 76.72 35.88 70.13 35.88 70.13 32.57 75.86 32.57 75.86 29.79 70.13 29.79 70.13 26.59 76.64 26.59 76.64 23.81 67.08 23.81"/><polygon class="cls-1" points="86.84 23.81 83.7 34.03 80.56 23.81 77.23 23.81 82.24 38.74 85.08 38.74 90.08 23.81 86.84 23.81"/><polygon class="cls-1" points="91.14 23.81 91.14 38.65 100.78 38.65 100.78 35.88 94.19 35.88 94.19 32.57 99.91 32.57 99.91 29.79 94.19 29.79 94.19 26.59 100.7 26.59 100.7 23.81 91.14 23.81"/><polygon class="cls-1" points="102.41 23.81 102.41 38.65 111.49 38.65 111.49 35.83 105.49 35.83 105.49 23.81 102.41 23.81"/><path class="cls-1" d="M237.08,432.45v-.25c0-4.45,2.8-7.57,6.72-7.57s6.7,3.1,6.7,7.53v.25c0,4.43-2.8,7.57-6.72,7.57s-6.7-3.1-6.7-7.53m10.24-.06v-.15c0-2.92-1.48-4.77-3.54-4.77s-3.54,1.82-3.54,4.75v.15c0,2.92,1.51,4.77,3.56,4.77s3.52-1.83,3.52-4.75" transform="translate(-125.62 -401.07)"/><path class="cls-1" d="M252.15,424.88h4.94c3.33,0,5.43,1.93,5.43,5.09v0c0,3.42-2.44,5.13-5.56,5.2h-1.73v4.51h-3.08Zm4.79,7.57a2.26,2.26,0,0,0,2.48-2.37v0a2.22,2.22,0,0,0-2.52-2.4h-1.67v4.79Z" transform="translate(-125.62 -401.07)"/><polygon class="cls-1" points="147.92 23.81 144.66 29.83 141.35 23.81 138.13 23.81 138.13 38.65 141.12 38.65 141.12 29.22 144.59 35.3 144.66 35.3 148.16 29.18 148.16 38.65 151.17 38.65 151.17 23.81 147.92 23.81"/><polygon class="cls-1" points="153.35 23.81 153.35 38.65 162.99 38.65 162.99 35.88 156.4 35.88 156.4 32.57 162.12 32.57 162.12 29.79 156.4 29.79 156.4 26.59 162.91 26.59 162.91 23.81 153.35 23.81"/><polygon class="cls-1" points="173.12 23.81 173.12 32.46 167.44 23.81 164.62 23.81 164.62 38.65 167.63 38.65 167.63 29.68 173.5 38.65 176.13 38.65 176.13 23.81 173.12 23.81"/><polygon class="cls-1" points="177.43 23.81 177.43 26.65 181.16 26.65 181.16 38.65 184.21 38.65 184.21 26.65 187.94 26.65 187.94 23.81 177.43 23.81"/><path class="cls-1" d="M178.12,417.89l2-2.49a6.29,6.29,0,0,0,4,1.84c1.3,0,2.09-.65,2.09-1.61v0c0-.82-.46-1.33-2.79-2.21-2.88-1.12-4.67-2.21-4.67-5v0c0-2.83,2.18-4.76,5.32-4.76a7.74,7.74,0,0,1,5.26,2l-1.89,2.56a5.66,5.66,0,0,0-3.46-1.52c-1.16,0-1.88.59-1.88,1.42v0c0,.93.55,1.37,3.09,2.41,2.84,1.12,4.37,2.33,4.37,4.86v0c0,3-2.3,4.88-5.46,4.88a8.74,8.74,0,0,1-6-2.39" transform="translate(-125.62 -401.07)"/><path class="cls-1" d="M191,413.75V403.8h3.37v10c0,2.3,1.09,3.44,2.83,3.44s2.84-1.11,2.84-3.37v-10h3.35v9.88c0,4.49-2.47,6.65-6.23,6.65s-6.16-2.19-6.16-6.58" transform="translate(-125.62 -401.07)"/><path class="cls-1" d="M204.41,417.89l2-2.49a6.24,6.24,0,0,0,4,1.84c1.3,0,2.09-.65,2.09-1.61v0c0-.82-.46-1.33-2.79-2.21-2.88-1.12-4.67-2.21-4.67-5v0c0-2.83,2.19-4.76,5.32-4.76a7.74,7.74,0,0,1,5.26,2l-1.88,2.56a5.71,5.71,0,0,0-3.47-1.52c-1.16,0-1.88.59-1.88,1.42v0c0,.93.56,1.37,3.09,2.41,2.84,1.12,4.37,2.33,4.37,4.86v0c0,3-2.3,4.88-5.46,4.88a8.74,8.74,0,0,1-6-2.39" transform="translate(-125.62 -401.07)"/><polygon class="cls-1" points="94.67 5.84 90.57 5.84 90.57 2.73 102.11 2.73 102.11 5.84 98.01 5.84 98.01 19 94.67 19 94.67 5.84"/><path class="cls-1" d="M232.07,403.71h3.21l5.83,16.36h-3.49l-1.21-3.53h-5.6l-1.18,3.53h-3.4Zm3.32,9.85-1.77-5.3-1.78,5.3Z" transform="translate(-125.62 -401.07)"/><rect class="cls-1" x="116.77" y="2.73" width="3.37" height="16.27"/><polygon class="cls-1" points="122.65 2.73 125.74 2.73 131.97 12.21 131.97 2.73 135.28 2.73 135.28 19 132.39 19 125.95 9.17 125.95 19 122.65 19 122.65 2.73"/><path class="cls-1" d="M267.89,403.71h3.21l5.83,16.36h-3.48l-1.21-3.53h-5.61l-1.18,3.53h-3.4Zm3.32,9.85-1.76-5.3-1.79,5.3Z" transform="translate(-125.62 -401.07)"/><path class="cls-1" d="M278.09,403.8h6.05a5.94,5.94,0,0,1,4.25,1.42,3.75,3.75,0,0,1,1.1,2.76v.07a3.81,3.81,0,0,1-2.21,3.56c1.74.67,2.9,1.74,2.9,3.88v.12c0,2.93-2.35,4.46-5.88,4.46h-6.21Zm8.07,4.79c0-1.19-.84-1.82-2.28-1.82h-2.51v3.68h2.35c1.49,0,2.44-.61,2.44-1.84Zm-1.84,4.69h-2.95v3.82h3c1.51,0,2.47-.65,2.47-1.91v0c0-1.17-.86-1.89-2.54-1.89" transform="translate(-125.62 -401.07)"/><polygon class="cls-1" points="166.14 2.73 169.51 2.73 169.51 15.91 176.09 15.91 176.09 19 166.14 19 166.14 2.73"/><polygon class="cls-1" points="177.49 2.73 187.97 2.73 187.97 5.77 180.84 5.77 180.84 9.28 187.11 9.28 187.11 12.33 180.84 12.33 180.84 15.96 188.07 15.96 188.07 19 177.49 19 177.49 2.73"/><path class="cls-1" d="M340,420h15.79c-.27,12.69-7.28,19.06-16.7,19.06-10.14,0-16.65-8.55-16.65-17.75s6.51-17.74,16.65-17.74c11.24,0,14.34,7,15.61,10.65l-7.14.45c-1.23-3-3.69-5-8.47-5-5.36,0-9.55,4.36-9.55,11.64,0,6.15,3.87,11.65,10,11.65a8.43,8.43,0,0,0,8.64-7.14H340Z" transform="translate(-125.62 -401.07)"/><polygon class="cls-1" points="297.64 3.25 304.45 3.25 304.45 31.02 317.56 31.02 317.56 37.37 297.64 37.37 297.64 3.25"/><path class="cls-1" d="M462.28,413.3c0-2.35-2.27-3.81-5-3.81-3.41,0-5.45,1.5-5.45,3.77s2.27,3.49,4,4l6.26,2c4.54,1.45,7.76,4.08,7.76,9.34,0,4.18-3,10.44-12.43,10.44-11.85,0-12.94-7.67-12.94-10.71l6.81-.13c0,3.62,2.86,5,6.17,5,2.32,0,5.59-1.13,5.59-3.76,0-1.82-.77-2.77-4.13-4l-7.45-2.68a9.25,9.25,0,0,1-6.4-8.53c0-4.35,3-10.62,11.85-10.62,10.53,0,12.21,7,12.21,9.49Z" transform="translate(-125.62 -401.07)"/><path class="cls-1" d="M366.67,417.14a9.81,9.81,0,0,1,1.51-1.94l-4.95-5.43a17.2,17.2,0,0,0-3.14,4.09Z" transform="translate(-125.62 -401.07)"/><path class="cls-1" d="M378.81,413.31a9.25,9.25,0,0,1,2.07,1.3l5-5.42a17,17,0,0,0-4.4-2.75Z" transform="translate(-125.62 -401.07)"/><path class="cls-1" d="M390.17,414.94l-6.57,3.28a9.5,9.5,0,0,1,.65,2.32l7.32-.69a16.32,16.32,0,0,0-1.4-4.91" transform="translate(-125.62 -401.07)"/><path class="cls-1" d="M383.12,417.27,389.7,414a16.62,16.62,0,0,0-3.07-4.08l-5,5.41a9.6,9.6,0,0,1,1.45,1.95" transform="translate(-125.62 -401.07)"/><path class="cls-1" d="M365.37,421.94c0-.15,0-.29,0-.44l-7.32-.66c0,.37,0,.73,0,1.1a17,17,0,0,0,.5,4.07l7.07-2a9.11,9.11,0,0,1-.22-2" transform="translate(-125.62 -401.07)"/><path class="cls-1" d="M382.2,428a9.77,9.77,0,0,1-1.78,1.68l3.86,6.25a16.86,16.86,0,0,0,3.79-3.51Z" transform="translate(-125.62 -401.07)"/><path class="cls-1" d="M384.36,421.94a9.62,9.62,0,0,1-.22,2l7.07,2a16.89,16.89,0,0,0,.49-4.05c0-.34,0-.69,0-1l-7.32.69c0,.11,0,.23,0,.34" transform="translate(-125.62 -401.07)"/><path class="cls-1" d="M367.64,428.1l-5.85,4.44a17,17,0,0,0,3.82,3.46l3.86-6.25a9.56,9.56,0,0,1-1.83-1.65" transform="translate(-125.62 -401.07)"/><path class="cls-1" d="M365.48,420.44a10.05,10.05,0,0,1,.71-2.36l-6.58-3.27a16.68,16.68,0,0,0-1.45,5Z" transform="translate(-125.62 -401.07)"/><path class="cls-1" d="M383.38,436.46l-3.86-6.25a9.26,9.26,0,0,1-2.25.92l1.36,7.22a16.28,16.28,0,0,0,4.75-1.89" transform="translate(-125.62 -401.07)"/><path class="cls-1" d="M383.86,425a9.25,9.25,0,0,1-1,2.12l5.87,4.43a16.68,16.68,0,0,0,2.22-4.52Z" transform="translate(-125.62 -401.07)"/><path class="cls-1" d="M376.23,431.34a10.27,10.27,0,0,1-1.37.1,10,10,0,0,1-1.1-.07l-1.36,7.23a16.56,16.56,0,0,0,2.46.18,17.54,17.54,0,0,0,2.73-.22Z" transform="translate(-125.62 -401.07)"/><path class="cls-1" d="M375.47,412.47a9.23,9.23,0,0,1,2.35.45l2.64-6.86a16.86,16.86,0,0,0-5-.95Z" transform="translate(-125.62 -401.07)"/><path class="cls-1" d="M372.71,431.19a9.34,9.34,0,0,1-2.33-.88l-3.87,6.25a17,17,0,0,0,4.84,1.85Z" transform="translate(-125.62 -401.07)"/><path class="cls-1" d="M372,412.88a9.5,9.5,0,0,1,2.4-.42v-7.35a16.61,16.61,0,0,0-5.06.92Z" transform="translate(-125.62 -401.07)"/><path class="cls-1" d="M367,427.25a9.21,9.21,0,0,1-1.12-2.24l-7.07,2a17,17,0,0,0,2.33,4.67Z" transform="translate(-125.62 -401.07)"/><path class="cls-1" d="M369,414.49a9.54,9.54,0,0,1,2-1.23l-2.66-6.85a16.68,16.68,0,0,0-4.33,2.65Z" transform="translate(-125.62 -401.07)"/><path class="cls-1" d="M412.1,431.21H399.44l-2.25,7.23h-7.45l12.6-34.59h7.27L422,438.44h-7.59Zm-6.26-19h-.09l-4.37,13.43h8.87Z" transform="translate(-125.62 -401.07)"/></svg>