<svg id="Layer_1" data-name="Layer 1" xmlns="http://www.w3.org/2000/svg" viewBox="0 0 796 213.9152"  height="32" width="121"><defs><style>.cls-1{fill:#fff;}</style></defs><path class="cls-1" d="M80.1192,163.9865V30.4547h47.5563V0H0V30.4547H47.3219V163.9865Z"/><path class="cls-1" d="M150.5462,166.7979c14.759,0,27.1753-5.1537,35.6088-17.8044v14.993h29.7519V96.0491c0-35.8426-14.9929-50.1329-49.43-50.1329-28.1118,0-51.5387,12.4163-52.2413,39.3568h31.3915c.7027-9.6049,7.2622-15.6956,19.6784-15.6956,12.8846,0,19.21,5.622,19.21,18.9753v3.9828l-28.1119,4.685c-22.4893,3.5141-44.9792,11.2449-44.9792,35.6088C111.4238,154.616,125.0115,166.7979,150.5462,166.7979Zm8.6683-23.8951c-11.4793,0-16.3991-3.9828-16.3991-11.9475,0-9.8392,8.2-12.885,21.3185-14.9934l20.381-3.28v7.2625C184.5149,134.235,172.5673,142.9028,159.2145,142.9028Z"/><path class="cls-1" d="M294.7836,166.7979c31.6259,0,52.0069-23.6612,52.0069-60.6752,0-36.5453-20.381-60.2065-51.773-60.2065-12.8846,0-23.192,4.4511-31.3916,14.5247V0H232V163.9865h29.7519V151.805C269.951,162.1125,280.7277,166.7979,294.7836,166.7979Zm-5.8568-26.4722c-16.3987,0-26.2379-12.4163-26.2379-34.203s9.8392-33.9687,26.2379-33.9687c16.633,0,26.4722,12.182,26.4722,33.9687S305.56,140.3257,288.9268,140.3257Z"/><path class="cls-1" d="M413.9746,166.8619c29.2832,0,50.3677-17.1013,55.0505-45.6819H437.1666c-3.28,12.8846-11.7132,19.21-23.192,19.21-15.93,0-25.5352-12.4163-25.5352-34.2031s9.6048-33.9686,25.5352-33.9686c11.01,0,18.7409,5.6224,22.4894,16.8674h32.0924C463.4049,61.6762,442.5547,45.98,413.9746,45.98c-34.4374,0-56.9272,23.6611-56.9272,60.2064C357.0474,143.2007,379.5372,166.8619,413.9746,166.8619Z"/><path class="cls-1" d="M534.0234,166.8619c35.141,0,57.8629-23.6612,57.8629-60.6753,0-36.5453-22.7219-60.2064-57.8629-60.2064-34.9043,0-57.8628,23.6611-57.8628,60.2064C476.1606,143.2007,499.1191,166.8619,534.0234,166.8619Zm0-26.4722c-16.633,0-26.4717-12.4163-26.4717-34.2031S517.39,72.218,534.0234,72.218c16.4009,0,26.24,12.1819,26.24,33.9686S550.4243,140.39,534.0234,140.39Z"/><path class="cls-1" d="M635.6961,164V107.3076c0-21.0841,8.6646-30.9233,23.6594-30.9233a73.3449,73.3449,0,0,1,11.7136.9375V48.0381a41.03,41.03,0,0,0-9.37-.937c-10.7763,0-21.0837,4.92-27.878,18.2727V48.5068H604.0684V164Z"/><path class="cls-1" d="M712.835,213.9152V153.24c7.4951,8.6678,18.0391,13.5876,31.3911,13.5876,30.69,0,51.7739-23.6612,51.7739-60.6752,0-36.5453-20.1462-60.2065-51.5373-60.2065-13.5886,0-24.6014,5.1537-33.5026,15.93V48.523H681.2072V213.9152Zm25.3022-73.56c-16.401,0-26.24-12.1819-26.24-34.203s9.8387-33.9686,26.24-33.9686c16.633,0,26.4717,11.9475,26.4717,33.9686S754.77,140.3554,738.1372,140.3554Z"/></svg>