<svg id="Layer_1" data-name="Layer 1" xmlns="http://www.w3.org/2000/svg" viewBox="0 0 796 213.9152" height="45" width="145"><defs><style>.cls-1{fill:#194378;}</style></defs><path class="cls-1" d="M80.11923,163.98646V30.45466h47.55631V0H0V30.45466H47.32194v133.5318Z"/><path class="cls-1" d="M150.54622,166.79793c14.759,0,27.17529-5.15373,35.60874-17.80439v14.99292h29.75193V96.04915c0-35.84266-14.99291-50.13294-49.4303-50.13294-28.11184,0-51.53867,12.41628-52.24131,39.35675h31.39157c.70263-9.60482,7.2621-15.69555,19.67837-15.69555,12.88457,0,19.20965,5.622,19.20965,18.97528v3.98282l-28.11183,4.685c-22.48938,3.51409-44.97921,11.24492-44.97921,35.60875C111.42383,154.616,125.01147,166.79793,150.54622,166.79793Zm8.66828-23.89511c-11.47929,0-16.3991-3.98283-16.3991-11.94756,0-9.83919,8.19955-12.885,21.31846-14.99337l20.381-3.27973v7.26255C184.51487,134.235,172.56733,142.90282,159.2145,142.90282Z"/><path class="cls-1" d="M294.7836,166.79793c31.62593,0,52.00694-23.66121,52.00694-60.67523,0-36.54529-20.381-60.20649-51.773-60.20649-12.88456,0-23.192,4.45109-31.39157,14.52464V0H232V163.98646h29.75193V151.805C269.951,162.11246,280.72766,166.79793,294.7836,166.79793Zm-5.85684-26.47221c-16.39865,0-26.23784-12.41628-26.23784-34.203S272.52811,72.154,288.92676,72.154c16.633,0,26.4722,12.18192,26.4722,33.96866S305.55977,140.32572,288.92676,140.32572Z"/><path class="cls-1" d="M413.97459,166.86187c29.28319,0,50.36776-17.10129,55.05048-45.68185H437.16659c-3.27971,12.88455-11.71318,19.20964-23.192,19.20964-15.93035,0-25.53519-12.41628-25.53519-34.203S398.04424,72.218,413.97459,72.218c11.01011,0,18.74093,5.62246,22.48938,16.86737h32.09239c-5.15147-27.4092-26.00165-43.10521-54.58177-43.10521-34.43738,0-56.92722,23.6612-56.92722,60.20649C357.04737,143.20066,379.53721,166.86187,413.97459,166.86187Z"/><path class="cls-1" d="M534.02342,166.86187c35.14093,0,57.86287-23.66121,57.86287-60.67523,0-36.54529-22.72194-60.20649-57.86287-60.20649-34.90432,0-57.86287,23.6612-57.86287,60.20649C476.16055,143.20066,499.1191,166.86187,534.02342,166.86187Zm0-26.47221c-16.633,0-26.47175-12.41628-26.47175-34.203S517.39038,72.218,534.02342,72.218c16.40091,0,26.23965,12.18192,26.23965,33.96865S550.42433,140.38966,534.02342,140.38966Z"/><path class="cls-1" d="M635.69615,164V107.3076c0-21.0841,8.6646-30.92329,23.65933-30.92329a73.3453,73.3453,0,0,1,11.71366.93746V48.03811a41.02787,41.02787,0,0,0-9.37-.937c-10.77624,0-21.0837,4.91982-27.878,18.27265V48.50684H604.06841V164Z"/><path class="cls-1" d="M712.835,213.9152V153.24c7.4951,8.66783,18.03914,13.58766,31.39108,13.58766,30.69031,0,51.77394-23.66121,51.77394-60.67523,0-36.5453-20.1462-60.20649-51.53729-60.20649-13.58859,0-24.60141,5.15373-33.50266,15.93037V48.523H681.20724V213.9152Zm25.30218-73.55977c-16.40094,0-26.23968-12.18192-26.23968-34.203s9.83874-33.96866,26.23968-33.96866c16.633,0,26.47175,11.94756,26.47175,33.96866S754.77017,140.35543,738.13716,140.35543Z"/></svg>