<svg version="1.1" xmlns="http://www.w3.org/2000/svg" xmlns:xlink="http://www.w3.org/1999/xlink" x="0px" y="0px" viewBox="0 0 253.5 59.3"
	 style="enable-background:new 0 0 253.5 59.3;" xml:space="preserve" height="23" width="100">
<style type="text/css">
	.Arched_x0020_Green{fill:url(#SVGID_1_);stroke:#FFFFFF;stroke-width:0.25;stroke-miterlimit:1;}
	.st0{fill:#FFFFFF;}
</style>
	<g>
		<linearGradient id="SVGID_1_" gradientUnits="userSpaceOnUse" x1="-183.0684" y1="497.1494" x2="-182.3613" y2="496.4423">
			<stop  offset="0" style="stop-color:#20AC4B"/>
			<stop  offset="0.9831" style="stop-color:#19361A"/>
		</linearGradient>
		<g>
			<g>
				<g>
					<path class="st0" d="M229.1,41.8L247.6,0h-24.9l-20.9,47.1c-2.7,6,2.2,12.2,9.5,12.2h35.3l6.8-15.4h-22.7
						C229,43.9,228.7,42.7,229.1,41.8"/>
					<path class="st0" d="M83,15.4c5.4,0,9.6,0,16.1-2.4c2.5-0.9,23.3-10.9,27.6-13h-15.6c-7,4.1-14.2,8.3-15.9,9.1
						c-6.1,3-12.2,3.6-16.2,3.6H1.2L0,15.4h40.5L25.9,48.2c-2.2,5.2,2.7,11,9,11h10.6l19.5-43.9H83z M87.9,0H22.6
						C8.9,0,4.3,5.7,2.2,10.4h68.4C80.4,10.4,84.2,4.7,87.9,0 M176.2,41.8L194.7,0h-24.9l-20.9,47.1c-2.7,6,2.2,12.2,9.5,12.2h35.3
						l6.8-15.4h-22.7C176.1,43.9,175.8,42.7,176.2,41.8 M156.8,5.4c-1.7-2.9-5.7-5.4-11-5.4h-6.5c-4.8,1.9-33.5,13.3-37.1,14.7
						c-3.1,1.2-10,3-15.6,3h-6.9l-8.3,18.7C60.7,60.6,85.4,59.3,85.4,59.3h28.5c0,0,25,1.2,32.3-16.2l9.6-21.7
						C158.2,16,159.8,9.7,156.8,5.4 M131.5,20c-0.2,0.4-8.2,18.6-8.2,18.6c-2.5,5.4-8,5.4-8,5.4H98.2c0,0-5.2,0.2-2.8-5.3
						c0,0,8.6-19.6,9-20.3c0.5-1.2,2.3-3,5.9-2.9h18C130.9,15.3,132.8,16.9,131.5,20"/>
				</g>
			</g>
		</g>
	</g>
</svg>
