<svg id="Layer_1" data-name="Layer 1" xmlns="http://www.w3.org/2000/svg" viewBox="0 0 253.46479 59.29181" height="36px" width="126px"><defs><style>.cls-1{fill:#007f7b;}</style></defs><path class="cls-1" d="M87.8857,0H22.6201C8.8769.00539,4.2719,5.707,2.2065,10.3818H70.5986C80.4443,10.3818,84.1787,4.6543,87.8857,0ZM99.0742,12.9619C101.5708,12.0488,122.3769,2.0513,126.7158,0H111.1416C104.1909,4.1279,96.9077,8.3359,95.267,9.1211A37.73333,37.73333,0,0,1,79.0629,12.689H1.1792L0,15.3603H40.4545L25.8803,48.2441c-2.2046,5.167,2.6617,11.0391,9.002,11.0391H45.4594L64.9199,15.3603h18.041C88.331,15.3603,92.5556,15.3379,99.0742,12.9619ZM156.8466,5.437C155.0976,2.52339,151.1513,0,145.8935,0h-6.5098c-4.7968,1.89739-33.4829,13.2578-37.0634,14.6719a50.07026,50.07026,0,0,1-15.6338,2.9819H79.7744L71.4819,36.3799C60.7402,60.5556,85.3632,59.27239,85.3632,59.27239h28.4854s25.0283,1.24611,32.2666-16.22359l9.6055-21.71341C158.2011,15.9922,159.8369,9.6816,156.8466,5.437ZM131.5058,19.9526c-.1963.4409-8.2148,18.5562-8.2148,18.5562a9.18655,9.18655,0,0,1-7.98,5.3994H98.2348s-5.2221.1797-2.7568-5.292c0,0,8.6431-19.5513,9.0215-20.3311.5381-1.166,2.3217-2.956,5.9477-2.9443h17.9541C130.9453,15.3408,132.7607,16.8828,131.5058,19.9526Zm44.7197,21.8111L194.7099,0H169.832L148.9433,47.1318c-2.7431,5.9805,2.2139,12.1514,9.4795,12.1514h35.3457l6.80179-15.3662H177.8808C176.1455,43.89739,175.8349,42.6933,176.2255,41.7637Zm54.54589,2.1533c-1.7382-.01961-2.0449-1.2207-1.6523-2.1533L247.60049,0H222.7226L201.83389,47.1318c-2.7451,5.97759,2.211,12.1514,9.4805,12.1514h35.3418l6.8086-15.3662Z"/></svg>