<svg id="Layer_1" data-name="Layer 1" xmlns="http://www.w3.org/2000/svg" viewBox="0 0 567.56349 438.52862"  height="97" width="125"><defs><style>.cls-1{fill:#fff;}.cls-1,.cls-2{fill-rule:evenodd;}.cls-2{fill:#ed1c24;}.cls-3{fill:#9c9b9b;}</style></defs><path class="cls-1" d="M201.315,163.53833a38.46994,38.46994,0,0,0,10.081,4.7686c.0254-.085-.0644-.1445-.0986-.2041-.6455-.9649-1.2363-1.8809-1.8389-2.8662-.0849-.1319-.2041-.3877-.3008-.4424a2.94408,2.94408,0,0,0-.3798-.0566,40.94389,40.94389,0,0,1-5.3135-1.3057,20.2324,20.2324,0,0,1-4.9268-2.1445,13.6721,13.6721,0,0,0,2.7774,2.2509"/><path class="cls-1" d="M370.876,161.28743a20.13816,20.13816,0,0,1-4.9297,2.1445,40.78749,40.78749,0,0,1-5.3037,1.3057,2.949,2.949,0,0,0-.3799.0566,2.19329,2.19329,0,0,0-.2998.4424c-.6133.9853-1.1943,1.9013-1.8398,2.8662-.0342.0596-.1309.1191-.1035.2041a38.56163,38.56163,0,0,0,10.0859-4.7686,13.38958,13.38958,0,0,0,2.7705-2.2509"/><path class="cls-2" d="M195.36869,174.15852a2.07792,2.07792,0,0,0-.50389-.504c-.15431-.14059-.417-.29779-.39261-.58979.0352-.3057.6748-.5293.9307-.6387a16.56056,16.56056,0,0,1,3.5117-1.1709,10.09809,10.09809,0,0,1,2.7949-.30561,4.45542,4.45542,0,0,1,2.2441.86911,23.21989,23.21989,0,0,1,4.5088,4.835,8.29639,8.29639,0,0,0,1.1045,1.2402c.1416.1191.3203.2979.4746.2881.2481-.0342.3399-.6182.3721-.9551a10.75257,10.75257,0,0,0-.46679-3.4531,27.23468,27.23468,0,0,0-1.06251-3.5293c-.0596-.1436-.1787-.3272-.1064-.4541.0947-.1484.4072-.0645.6211-.00981a25.802,25.802,0,0,1,3.4619,1.22371,3.03748,3.03748,0,0,1,.5683.2109,2.21036,2.21036,0,0,1,.2803.3877c2.6885,3.75,5.5772,7.4629,8.583,10.88769-1.0752,1.14941-2.5469,2.02051-3.748,3.14451-.3028.2852-.9659.8936-.7774,1.5264.3106,1.0273,1.8174.8916,3.0479.8242a13.406,13.406,0,0,1,2.4892.0596,14.67686,14.67686,0,0,1,4.0235,1.1865c.6328.2725,1.2363.5635,1.7724.8535a2.3974,2.3974,0,0,1,.4073.2529c.3222.2979.6328.6553.9628.9786.8731.8779,1.7168,1.6796,2.6309,2.5781a6.02575,6.02575,0,0,1,.4912,3.0703,8.92584,8.92584,0,0,1-.832,2.7676,16.66239,16.66239,0,0,1-2.5381,3.7695c-.167.1992-.2959.3828-.502.3945-.39939.0303-.5429-.374-.7861-.5156a12.9394,12.9394,0,0,1-4.7285,5.52739,5.5754,5.5754,0,0,1-2.42479.98731,23.109,23.109,0,0,0-2.23341-5.5147,6.232,6.232,0,0,0-.541-.76461c-.2168-.23539-.6485-.64549-1.0703-.43949-.3096.1397-.61529.8193-.7862,1.251-.5888,1.457-.99309,3.0137-1.6259,4.4306-1.2061,2.71-2.9483,5.2295-6.6397,5.4922a13.0642,13.0642,0,0,1-3.6357-.3672,32.98837,32.98837,0,0,1-5.4034-1.6806c-.2275-.0986-.5205-.1904-.5732-.4444-.0615-.3095.1787-.456.2637-.7089a19.17469,19.17469,0,0,1-8.3467-3.875,1.89561,1.89561,0,0,1-.3105-.2803c-.0245-.0244-.1094-.04691-.05469-.0938a39.67677,39.67677,0,0,0,8.81049-4.0009,4.69683,4.69683,0,0,0,1.6309-1.5791c.0967-.1885.2705-.6524.1015-.834-.1611-.1758-.834-.0117-1.12689.0722-1.02931.3106-2.00781.752-2.97561,1.09669a27.54609,27.54609,0,0,1-4.207,1.209,13.31881,13.31881,0,0,1-4.90139,0,19.66186,19.66186,0,0,1-3.4502-1.30269c-.2529-.1045-.4492-.1446-.541-.40431a1.38547,1.38547,0,0,1,.0273-.65039,1.7466,1.7466,0,0,0,.0645-.6358c-.042-.0791-.3145-.1484-.4639-.1962a70.57256,70.57256,0,0,1-6.9639-2.8838,26.26321,26.26321,0,0,1,5.8741-7.1631,4.03192,4.03192,0,0,0-.5782-.6172c-.1787-.1768-.5009-.4522-.5107-.7422-.0078-.1514.1514-.3252.2383-.4492a24.10208,24.10208,0,0,1,2.04-2.8096,5.41314,5.41314,0,0,1,1.4317-1.3232,4.61982,4.61982,0,0,1,2.39059-.36431,23.50725,23.50725,0,0,1,4.7148.82811c1.5293.4121,2.9737.8243,4.2871,1.3155-2.9863-1.8037-6.2373-3.4619-9.2656-5.3135-.1787-.1094-.5137-.2754-.5381-.4346-.0322-.3398.6524-.77151.8565-.916,1.042-.7393,2.1416-1.375,3.22071-2.0293,1.48729-.8838,2.93939-1.7353,4.37889-2.61421"/><path class="cls-2" d="M386.68269,189.62823a27.0702,27.0702,0,0,1,5.8623,7.15329,70.45123,70.45123,0,0,1-7.41119,3.06051c-.10641.4317.30079,1.0743-.00971,1.4786a3.43016,3.43016,0,0,1-.9112.457c-.3418.1484-.70209.2803-.95209.3818a17.21642,17.21642,0,0,1-2.02541.70509,12.949,12.949,0,0,1-4.9248.01271,39.29769,39.29769,0,0,1-6.1865-1.9609c-.3086-.1192-.6309-.2432-1.001-.3575-.3125-.0888-.98729-.2656-1.1367-.0419-.1309.2158.02541.64059.1396.84859a5.17073,5.17073,0,0,0,1.6279,1.55371,19.51061,19.51061,0,0,0,2.71291,1.5361c1.81349.8467,3.66509,1.6084,5.67089,2.3135a1.7587,1.7587,0,0,1,.3946.1318c.05951.0596.0351.0245-.0293.0938a5.45979,5.45979,0,0,1-.7725.6455,19.44906,19.44906,0,0,1-7.8848,3.5098c.0547.2255.3125.3593.253.7089-.0342.2383-.33989.3458-.5684.4444a31.77157,31.77157,0,0,1-5.3984,1.6806,13.30059,13.30059,0,0,1-3.6436.3672c-3.6806-.2627-5.4072-2.7578-6.6289-5.4824-.6299-1.3828-1.0498-2.9482-1.6328-4.4277-.1689-.417-.4297-1.0801-.7549-1.2539a.72276.72276,0,0,0-.5107-.0098c-.5235.1836-.9336.8691-1.2061,1.3232a24.62867,24.62867,0,0,0-2.1748,5.3956,5.2999,5.2999,0,0,1-2.4121-1.0079,12.74747,12.74747,0,0,1-4.7158-5.4873c-.2705.1221-.377.501-.77639.4961-.30081-.0048-.46971-.3144-.63571-.5156a14.906,14.906,0,0,1-2.9532-5.0137,7.40433,7.40433,0,0,1-.32809-1.9511,5.57933,5.57933,0,0,1,.64549-2.7696,2.4074,2.4074,0,0,1,.4522-.6826c.3896-.3642.7539-.7344,1.1465-1.1338a7.72691,7.72691,0,0,1,1.1836-1.0976,19.33765,19.33765,0,0,1,4.65821-2.1739,11.33253,11.33253,0,0,1,3.94919-.61031c.71681.01461,1.4687.13181,2.1885.09671.8291-.0352,1.455-.3008,1.6289-.8838a1.02874,1.02874,0,0,0-.0547-.5957,3.71065,3.71065,0,0,0-1.0205-1.211,37.45957,37.45957,0,0,1-3.6358-3.0429c2.9063-3.3282,5.7657-6.9121,8.4033-10.5899a1.87115,1.87115,0,0,1,.2813-.3603,4.44925,4.44925,0,0,1,.6221-.2403,30.583,30.583,0,0,1,3.7431-1.331c.2237-.0567.5762-.1631.6573,0,.07031.11419-.0811.3408-.1289.4668a27.65572,27.65572,0,0,0-1.05179,3.5166,16.11062,16.11062,0,0,0-.41211,2.1992,6.24054,6.24054,0,0,0-.042,1.2432c.0098.291.12111.9883.3574.9658.34471-.0342.6768-.4541.8906-.6797.7569-.8369,1.3926-1.7324,2.08211-2.5811a15.31161,15.31161,0,0,1,3.10249-3.1025,4.45152,4.45152,0,0,1,2.249-.86911,10.10854,10.10854,0,0,1,2.7744.30561,16.43526,16.43526,0,0,1,4.043,1.4043c.20411.0996.4317.1963.4317.4346,0,.5283-.6827.6104-.9004,1.0371.7002.4922,1.4492.89839,2.1816,1.333,1.4619.8711,2.90821,1.6856,4.375,2.624a16.84831,16.84831,0,0,1,1.5371,1.084c.1485.1367.3643.3399.3516.5117,0,.1934-.3272.335-.5137.4561q-2.13285,1.27-4.3057,2.4775c-1.7197.9483-3.32609,1.9229-4.9785,2.8243,1.31741-.4415,2.7471-.879,4.2315-1.2657a22.055,22.055,0,0,1,4.7275-.834,4.804,4.804,0,0,1,2.415.335,5.26379,5.26379,0,0,1,1.44441,1.3154,25.76474,25.76474,0,0,1,2.05559,2.8116,1.165,1.165,0,0,1,.2383.4443c.0098.3105-.33489.5811-.4941.7451a3.42773,3.42773,0,0,0-.5859.6348"/><path class="cls-2" d="M218.68119,211.72783c.0967.0498.1982.0791.293.1308a16.91487,16.91487,0,0,1-3.2696,5.1182,52.21065,52.21065,0,0,1-13.9726,11.1563,37.66691,37.66691,0,0,1-5.8028,2.5888,18.1732,18.1732,0,0,1-7.2002,1.084,8.57589,8.57589,0,0,1-5.78509-2.5889,10.28778,10.28778,0,0,1-2.5615-5.7949c-2.3526.19339-4.6338.5117-6.0313,1.626a2.82119,2.82119,0,0,0-.8408,1.0791,2.56488,2.56488,0,0,0-.166,1.6064,2.36813,2.36813,0,0,0,.8759,1.0372c1.8038,1.415,4.2686,2.1669,5.2188,4.3759a4.46542,4.46542,0,0,1,.0127,3.2159,5.55449,5.55449,0,0,1-1.5781,2.25389,10.99822,10.99822,0,0,1-5.2891,2.40721,12.15982,12.15982,0,0,1-3.5391.1445c-2.1748-.26071-3.9492-1.2881-4.3437-3.3281a4.264,4.264,0,0,1,.6035-3.0801,3.80577,3.80577,0,0,1,2.2627-1.584,1.99994,1.99994,0,0,1,2.1152.6504,1.02525,1.02525,0,0,1,.2383.6475c-.082.0127-.2256.1269-.2881.0752a1.12823,1.12823,0,0,0-1.0849-.5567,2.13312,2.13312,0,0,0-1.1162.5293,2.62541,2.62541,0,0,0-.9512,2.30279,1.93948,1.93948,0,0,0,1.542,1.75,6.62253,6.62253,0,0,0,2.9385.07711,9.57472,9.57472,0,0,0,4.6181-1.959c.4795-.4189,1.2989-1.1582,1.1123-2.1064a1.77766,1.77766,0,0,0-.6924-.9512,6.92659,6.92659,0,0,0-.9677-.6846,13.43156,13.43156,0,0,1-3.7608-2.8095,4.26469,4.26469,0,0,1-.9424-2.3477,5.25142,5.25142,0,0,1,.5303-2.7324c1.3731-3.0186,4.959-3.79,9.3799-3.7607a8.78666,8.78666,0,0,1,4.8369-7.5469,11.48358,11.48358,0,0,1,4.669-1.544,6.88421,6.88421,0,0,1,4.8818,1.2334,4.56589,4.56589,0,0,1,1.792,4.333,5.05,5.05,0,0,1-2.4356,3.7754c-2.5859,1.5664-6.7353,1.5284-10.70109,1.6826.8281,2.79989,2.46189,4.6387,5.69529,5.0284a12.73712,12.73712,0,0,0,3.3115-.0948,26.367,26.367,0,0,0,5.5986-1.541,45.85308,45.85308,0,0,0,4.8721-2.2461,67.15074,67.15074,0,0,0,8.7344-5.51461,42.58794,42.58794,0,0,0,3.9033-3.22659,19.388,19.388,0,0,0,3.2842-3.9111"/><path class="cls-1" d="M188.67919,221.39483c1.85161-.1465,3.6094-.4151,4.5049-1.4424a2.22057,2.22057,0,0,0,.5069-1.1836,3.11421,3.11421,0,0,0-.3409-1.8516c-.7295-1.2461-2.5556-1.8339-4.6211-1.7353a6.34942,6.34942,0,0,0-4.25879,1.80959,5.44084,5.44084,0,0,0-1.5615,4.39351,54.64707,54.64707,0,0,0,5.77049.0098"/><path class="cls-2" d="M350.89849,211.73952a28.62055,28.62055,0,0,0,7.165,7.126,67.19909,67.19909,0,0,0,8.7471,5.51461,41.11768,41.11768,0,0,0,4.8916,2.2461,26.41906,26.41906,0,0,0,5.5869,1.541,9.755,9.755,0,0,0,6.05571-.7519,6.84771,6.84771,0,0,0,2.95309-4.1817c-3.958-.1542-8.1104-.1162-10.709-1.6826a4.96427,4.96427,0,0,1-2.4053-3.7978,4.46546,4.46546,0,0,1,1.7774-4.3106,6.83072,6.83072,0,0,1,4.88381-1.2236,11.37993,11.37993,0,0,1,4.664,1.5342,8.74267,8.74267,0,0,1,4.82519,7.5469c4.4873-.0342,8.05081.7646,9.42581,3.8222a5.15448,5.15448,0,0,1,.48139,2.7744,4.24414,4.24414,0,0,1-.998,2.3116,15.38435,15.38435,0,0,1-3.792,2.8066,5.93581,5.93581,0,0,0-.958.71,1.52752,1.52752,0,0,0-.6328,1.0195,2.64474,2.64474,0,0,0,1.2656,2.03509,9.92509,9.92509,0,0,0,4.6934,1.919c2.1963.30571,4.289-.05179,4.289-2.15719a2.54266,2.54266,0,0,0-1.1465-2.1592,1.601,1.601,0,0,0-1.2539-.377,1.19249,1.19249,0,0,0-.5507.2881c-.06449.0694-.1192.1709-.1787.2285-.0625.0596-.0372.044-.1192.0274a.8319.8319,0,0,1-.1914-.0752,1.05913,1.05913,0,0,1,.2363-.6621,2,2,0,0,1,2.1143-.6231,3.73508,3.73508,0,0,1,2.2558,1.5713,4.26173,4.26173,0,0,1,.5938,3.10449c-.4053,2.05471-2.165,3.03321-4.376,3.30371a12.09341,12.09341,0,0,1-3.52439-.1445,11.132,11.132,0,0,1-5.26661-2.4219,5.43647,5.43647,0,0,1-1.581-2.2558,4.42041,4.42041,0,0,1,.0302-3.1993c.7637-1.7675,2.4541-2.61421,4.0703-3.6093a11.94517,11.94517,0,0,0,1.1592-.7666,2.46026,2.46026,0,0,0,.8662-1.0577,2.53076,2.53076,0,0,0-.1816-1.5859,2.69535,2.69535,0,0,0-.8389-1.0791c-1.3799-1.127-3.6484-1.3945-6.0185-1.6455a10.23851,10.23851,0,0,1-2.5791,5.8096,8.44848,8.44848,0,0,1-5.7871,2.5937,19.25784,19.25784,0,0,1-7.2129-1.084,27.37965,27.37965,0,0,1-3.003-1.1943,50.34619,50.34619,0,0,1-12.6054-8.3467,42.57858,42.57858,0,0,1-4.1602-4.2139,16.94727,16.94727,0,0,1-3.2412-5.1084,1.18951,1.18951,0,0,1,.2803-.11911"/><path class="cls-1" d="M384.87109,216.761a6.59924,6.59924,0,0,0-4.8867-1.5791c-1.6211.0752-3.1767.6631-3.7822,1.7851a3.62218,3.62218,0,0,0-.3233,1.628,1.98609,1.98609,0,0,0,.5733,1.3799,4.82316,4.82316,0,0,0,2.72261,1.206,37.59722,37.59722,0,0,0,7.50789.2041,5.38529,5.38529,0,0,0-1.8116-4.624"/><path class="cls-2" d="M280.50539,266.09113h-.0225a25.58724,25.58724,0,0,1-2.375-1.5284,17.24242,17.24242,0,0,1-5.2548-5.4453c-.0987-.167-.2627-.541-.377-.5957-.2705-.1289-.8066.1192-1.1289.2549a3.93517,3.93517,0,0,1-1.0381.3555c-.48829.0449-.5254-.43461-.6445-.834-.0967-.3604-.1494-.665-.2041-.9707a14.9621,14.9621,0,0,1-.0938-4.3926,4.7268,4.7268,0,0,1,.6797-1.6728,14.74945,14.74945,0,0,1,2.0801-2.6114c.5479-.58,1.2158-1.1269,1.7344-1.7793.1513-.1709.4492-.5312.3506-.7919-.1045-.293-.7325-.0616-.9932.03709-.3057.11911-.5811.24121-.81449.35541a45.55885,45.55885,0,0,0-4.45211,2.5782c-1.668,1.06539-3.2783,2.165-5.0088,3.1796a2.18586,2.18586,0,0,1-.78909.3721c-.32221.0322-.66691-.5478-.82421-.77931a7.51253,7.51253,0,0,1-.5429-1.02729,13.407,13.407,0,0,1-1.127-7.84571c-.6182-.11619-1.4971.15721-1.6973-.38679a3.006,3.006,0,0,1-.0849-.5537,9.63428,9.63428,0,0,1,.02731-4.0058c.41019-1.251,1.64059-1.7891,2.86429-2.2061a25.74408,25.74408,0,0,1,4.1972-.8711c1.1094-.166,2.2803-.2754,3.3184-.4863a2.43291,2.43291,0,0,0,.9629-.3154,2.38819,2.38819,0,0,0-.9014-.5586,24.31108,24.31108,0,0,0-6.0205-1.2901c-.6982-.0918-1.539-.2089-2.3086-.2509-.1689,0-.2627.0224-.3222-.0518-.1319-.2109.3222-.626.4462-.7373.2208-.2187.4541-.4248.6631-.5937a34.32617,34.32617,0,0,1,3.9932-2.834c.1143-.06941.3477-.2159.3643-.27541.03511-.18359-.2676-.54889-.3516-.66989a1.39138,1.39138,0,0,1-.2979-.7354c.01661-.3623.4815-.5459.7637-.71971a12.92028,12.92028,0,0,1,6.8848-1.90629c4.07811,2.4678,8.4658,4.6319,12.7529,6.8858,2.22021-1.2168,4.5151-2.4698,6.8267-3.6934,1.7119-.916,3.3896-1.9189,5.02051-2.8945.55859-.3174,1.08489-.6817,1.64549-.9795.0078-.0156.01951,0,.04,0a4.09152,4.09152,0,0,1,.8828-.0596,13.14123,13.14123,0,0,1,9.752,3.7051,1.28323,1.28323,0,0,1,.51071.6426c.11229.6904-.42671,1.3056-.39161,2.0283a1.04092,1.04092,0,0,0,.3223.4766c.3721.4287.7178.8632,1.03031,1.288a13.13493,13.13493,0,0,1,2.14649,4.00589,3.88946,3.88946,0,0,1,.0722,2.61521c-1.3974-.1855-2.7998-.3418-4.3535-.4121a12.00027,12.00027,0,0,0-3.3301.17389c-.2812.06931-.7002.23141-.7099.47651,0,.1641.21581.3604.3447.4697a12.16826,12.16826,0,0,0,1.5039.96979,22.93189,22.93189,0,0,1,5.7978,4.04781,5.30388,5.30388,0,0,1,1.2012,2.0899,4.42061,4.42061,0,0,1-.2012,2.7578,10.03178,10.03178,0,0,1-2.05459,2.8789c-.21391.2412-.53911.7148-.88381.7568-.4414.042-.5381-.3027-.8457-.4463a3.052,3.052,0,0,0-.5938.66209,15.64618,15.64618,0,0,1-1.80169,1.89161,28.58937,28.58937,0,0,1-9.41411,5.4327,24.87059,24.87059,0,0,0-.707-6.3116,8.46177,8.46177,0,0,0-.9932-2.5283,3.15718,3.15718,0,0,0-1.3496-1.27341,1.34258,1.34258,0,0,0-.7246-.127c-.1992.07911-.1572.48931-.1348.76961.0752.8291.2656,1.5781.3848,2.288a13.73766,13.73766,0,0,1,.1142,3.3409,6.861,6.861,0,0,1-1.6308,3.7031,4.71639,4.71639,0,0,1-.9082.8906c-.5733.3731-1.1836-.1904-1.792-.11621-.2432.02441-.4063.28521-.5703.47361a19.72687,19.72687,0,0,1-8.6138,5.711"/><path class="cls-2" d="M241.91169,202.09993a6.15734,6.15734,0,0,0-.5235,3.7207,5.61937,5.61937,0,0,0-3.2119,2.5888,3.60509,3.60509,0,0,1-2.8789-1.2461,4.13844,4.13844,0,0,1-1.0254-3.0654,4.55344,4.55344,0,0,1,1.2412-2.8711,4.26014,4.26014,0,0,1,2.8662-1.3135,3.44128,3.44128,0,0,1,1.5762.2979,6.118,6.118,0,0,1,.8887.7402c.1386.1338.2949.2656.43651.3789a1.7771,1.7771,0,0,1,.63089.7696"/><path class="cls-2" d="M242.99859,202.81763a4.58577,4.58577,0,0,0-.3575,2.7676,4.91073,4.91073,0,0,1,3.7256,1.36229c.0596.04691.1192.13671.169.11621a7.97319,7.97319,0,0,1,.4287-1c-1.3154-1.07221-2.6504-2.1621-3.9658-3.2461"/><path class="cls-2" d="M241.38819,207.16333a4.41272,4.41272,0,0,0-2.3408,2.3409,4.80609,4.80609,0,0,0-.3027,2.6748,3.80781,3.80781,0,0,0,3.1318,3.122,4.03146,4.03146,0,0,0,2.5566-.4736,4.37572,4.37572,0,0,0,2.1026-2.5762,3.79946,3.79946,0,0,0,.20311-1.3525,2.75975,2.75975,0,0,0-.15621-.4395,5.05268,5.05268,0,0,1-.2432-.97071c-.0322-.17869-.0078-.37989-.0449-.55859a1.83036,1.83036,0,0,0-.2784-.4316,3.64908,3.64908,0,0,0-3.3281-1.6279,3.83057,3.83057,0,0,0-1.2998.2929"/><path class="cls-2" d="M248.00249,206.88793a3.99966,3.99966,0,0,0,6.2715,4.7647c-2.1397-1.53811-4.212-3.1543-6.2715-4.7647"/><path class="cls-2" d="M231.84519,209.83133a4.33259,4.33259,0,0,0-3.9687,4.3506,5.35685,5.35685,0,0,1,1.9287,3.6191,4.38158,4.38158,0,0,0,1.3125.4766c.0176-.0947-.0644-.1465-.1113-.2109a5.62971,5.62971,0,0,1-.6582-2.0206,6.15992,6.15992,0,0,1,.2832-2.7099,5.75614,5.75614,0,0,1,2.8818-3.252,3.48365,3.48365,0,0,0-1.668-.2529"/><path class="cls-2" d="M235.71629,210.81963a4.15729,4.15729,0,0,0-3.1884,1.6797,4.74449,4.74449,0,0,0-.8614,3.7383,3.90333,3.90333,0,0,0,2.0918,2.71189,3.69622,3.69622,0,0,0,2.0176.34571,4.3479,4.3479,0,0,0,1.8018-.6084,5.5619,5.5619,0,0,1,1.0752-1.3155,2.758,2.758,0,0,0,.4414-.37981,3.6795,3.6795,0,0,0,.4541-1.30569,5.31523,5.31523,0,0,1-2.14159-4.499,3.61284,3.61284,0,0,0-1.69051-.3672"/><path class="cls-2" d="M247.81889,212.427c0-.0098-.0176-.0098-.0176.0254a5.771,5.771,0,0,1-2.6289,3.4395,3.72756,3.72756,0,0,0-.5605.3183,2.24992,2.24992,0,0,0-.0127.3447,5.17921,5.17921,0,0,1,2.6582,3.8243,4.08832,4.08832,0,0,0,4.4697-1.51371,4.61252,4.61252,0,0,0,.9043-2.29789,4.26776,4.26776,0,0,0-.5313-2.6093,5.22583,5.22583,0,0,1-4.2812-1.5313"/><path class="cls-2" d="M255.3208,212.427a6.76763,6.76763,0,0,1-1.623,1.1397,3.62158,3.62158,0,0,0,.64549,1.5361,5.07264,5.07264,0,0,1,4.81251,1.4648,4.23662,4.23662,0,0,0,1.08689-.6757c-1.665-1.1241-3.291-2.293-4.92189-3.4649"/><path class="cls-2" d="M227.63329,215.76293a3.63042,3.63042,0,0,0-3.1543-1.3623,4.11035,4.11035,0,0,0-2.8173,1.42,4.46375,4.46375,0,0,0-1.1612,3.0898,4.04076,4.04076,0,0,0,1.208,2.9238,3.65033,3.65033,0,0,0,3.0576,1.0147,5.71622,5.71622,0,0,1,3.7256-3.5938,4.23831,4.23831,0,0,0-.8584-3.4922"/><path class="cls-2" d="M251.74759,220.65452c-.127.10261-.4795.28131-.50679.39461a2.20957,2.20957,0,0,0,.14159.85639,4.09966,4.09966,0,0,0,1.1718,1.89161,3.66119,3.66119,0,0,0,3.0528.9063,4.16241,4.16241,0,0,0,2.6054-1.4698,4.442,4.442,0,0,0,1.0899-2.9834,4.075,4.075,0,0,0-1.1543-2.8662,3.58428,3.58428,0,0,0-2.8789-1.1347,4.53091,4.53091,0,0,0-1.3555.3183,5.72728,5.72728,0,0,1-2.166,4.08689"/><path class="cls-1" d="M259.90769,217.62233a5.63253,5.63253,0,0,1,.62111,3.2588,6.05556,6.05556,0,0,1-1.08781,2.8565,3.74912,3.74912,0,0,0,2.3232.5957,4.03549,4.03549,0,0,0,2.1074-.7989,4.55368,4.55368,0,0,0,1.8467-3.9941c-1.4746-.9531-2.9316-1.918-4.3887-2.8984a5.85816,5.85816,0,0,1-1.4219.9804"/><path class="cls-2" d="M239.1538,218.68683a4.42566,4.42566,0,0,0-1.15911,2.97069,3.97366,3.97366,0,0,0,1.1474,2.98631,3.69921,3.69921,0,0,0,3.0098,1.0986,4.29738,4.29738,0,0,0,2.7226-1.3867,4.48957,4.48957,0,0,0,1.1768-2.9609,4.07388,4.07388,0,0,0-1.1289-3.0059,3.69147,3.69147,0,0,0-3.0234-1.1123,4.09557,4.09557,0,0,0-2.74519,1.4102"/><path class="cls-2" d="M234.94969,223.177a5.94535,5.94535,0,0,1-.8935,4.43949c-.0469.05271-.1192.122-.1065.20411a4.29283,4.29283,0,0,0,3.7598-2.877,5.706,5.706,0,0,1-.9551-3.9238c.02441-.1709.1309-.5235.0645-.5908-.0528-.0498-.3994.0673-.5293.0918a5.18665,5.18665,0,0,1-3.3623-.5684,1.93,1.93,0,0,0-.4346-.2305,5.19048,5.19048,0,0,1,2.457,3.4551"/><path class="cls-2" d="M227.01519,221.60083a4.488,4.488,0,0,0-1.2803,2.8418,4.06061,4.06061,0,0,0,.9902,3.1026,3.66294,3.66294,0,0,0,2.876,1.2675,4.13856,4.13856,0,0,0,2.8672-1.2675,4.515,4.515,0,0,0,1.0742-4.6465,3.69572,3.69572,0,0,0-3.63569-2.5791,4.02169,4.02169,0,0,0-2.89161,1.2812"/><path class="cls-2" d="M247.3218,221.72973a6.02419,6.02419,0,0,1-2.10161,4.0723,3.70571,3.70571,0,0,0,3.7842,1.8516,4.29975,4.29975,0,0,0,3.2637-2.4473,5.35192,5.35192,0,0,1-2.2607-3.6055h-.0225a5.32254,5.32254,0,0,1-2.66309.1289"/><path class="cls-2" d="M219.83449,226.97393a4.66535,4.66535,0,0,0-.456,2.4619,3.822,3.822,0,0,0,2.5859,3.376,3.99936,3.99936,0,0,0,2.5469-.0352,4.41989,4.41989,0,0,0,2.7871-3.1894,5.28,5.28,0,0,1-2.8545-4.9786,4.15858,4.15858,0,0,0-4.6094,2.3653"/><path class="cls-2" d="M250.20069,228.679a5.75824,5.75824,0,0,1,.668,4.5273,3.66786,3.66786,0,0,0,1.3994.2754,4.29481,4.29481,0,0,0,3.84471-2.6436,4.70151,4.70151,0,0,0,.27829-2.7421,3.96825,3.96825,0,0,0-.7695-1.6856c-.082-.1064-.2607-.3672-.4072-.4072-.14359-.0196-.335.0127-.47659,0a5.07986,5.07986,0,0,1-1.30761-.2383,5.92035,5.92035,0,0,1-3.2295,2.9141"/><path class="cls-2" d="M238.521,226.22973a5.83672,5.83672,0,0,1-2.6504,2.42479,4.58333,4.58333,0,0,0-.3574,2.44931,4.24363,4.24363,0,0,0,.8662,2.0429,3.83021,3.83021,0,0,0,4.1973,1.1641,4.35223,4.35223,0,0,0,2.7793-3.0137,4.741,4.741,0,0,0-.0098-2.5263,3.89427,3.89427,0,0,0-.7646-1.4024c-.0967-.1113-.251-.33791-.377-.3594a2.40565,2.40565,0,0,0-.5019.0147,4.87112,4.87112,0,0,1-2.7871-.9111c-.1309.0351-.2676.0693-.3946.1171"/><path class="cls-2" d="M244.42039,227.95633a6.0414,6.0414,0,0,1,.0967,3.9766,6.35308,6.35308,0,0,1-1.9355,2.7519,3.65847,3.65847,0,0,0,2.7695,1.4473,3.93967,3.93967,0,0,0,3.0332-1.1611,4.57135,4.57135,0,0,0,1.3799-2.85451,4.31868,4.31868,0,0,0-.5313-2.57909c-.0712-.1192-.3095-.5557-.4765-.5801a1.27056,1.27056,0,0,0-.3223.0097,5.01969,5.01969,0,0,1-3.27829-1.2334,7.1389,7.1389,0,0,0-.73541.2227"/><path class="cls-1" d="M216.55129,228.054a3.91576,3.91576,0,0,0-1.8467.625,4.18713,4.18713,0,0,0-1.2656,1.22549,4.5821,4.5821,0,0,0-.6084,3.94631,3.82918,3.82918,0,0,0,2.4775,2.5069,3.99219,3.99219,0,0,0,2.1563.0322,3.53787,3.53787,0,0,0,1.6357-.8682c.1446-.1416.2784-.372.4366-.5507.1494-.1866.3505-.3301.4765-.5118a3.54743,3.54743,0,0,0,.4219-.9531,5.434,5.434,0,0,1-2.3076-5.2441,3.83317,3.83317,0,0,0-1.5762-.208"/><path class="cls-2" d="M234.22219,231.02173a3.21692,3.21692,0,0,0-.0098-.3593c-.0371-.1192-.3125-.3106-.4414-.42a3.91694,3.91694,0,0,0-.5088-.33791,2.87817,2.87817,0,0,0-1.33-.39449c-.0381,0-.0381.02249-.0625.0274a5.31585,5.31585,0,0,1-2.4522.5439,4.47438,4.47438,0,0,0-2.1416,3.7305,2.41033,2.41033,0,0,0,.0391.7968,1.41712,1.41712,0,0,0,.1963.25789,5.01707,5.01707,0,0,1,1.0576,2.13471,3.71772,3.71772,0,0,0,2.9092.958,5.803,5.803,0,0,1,3.3056-4.96871,5.21981,5.21981,0,0,1-.5615-1.96879"/><path class="cls-2" d="M232.76029,237.929a3.93706,3.93706,0,0,0,2.4033,4.08,4.01738,4.01738,0,0,0,2.7617.0323,4.22856,4.22856,0,0,0,1.8741-1.3721,4.48926,4.48926,0,0,0,.9677-2.2813,4.20621,4.20621,0,0,0-.4912-2.6728,5.06052,5.06052,0,0,1-4.78709-1.64061,4.50289,4.50289,0,0,0-2.72851,3.85451"/><path class="cls-2" d="M221.7808,234.77952a4.08675,4.08675,0,0,0-1.18161.88581,4.46586,4.46586,0,0,0-1.19339,2.9267,4.05406,4.05406,0,0,0,1.07419,3.045,3.67292,3.67292,0,0,0,2.9736,1.164,4.15536,4.15536,0,0,0,2.7745-1.3447,4.51549,4.51549,0,0,0,1.2265-2.9072,3.93857,3.93857,0,0,0-1.08979-3.0498,3.62517,3.62517,0,0,0-2.95611-1.1719,4.00189,4.00189,0,0,0-1.62789.45209"/><path class="cls-1" d="M211.38629,238.17513a4.69653,4.69653,0,0,0-.2578,2.75,4.05306,4.05306,0,0,0,1.1787,2.0625,3.67445,3.67445,0,0,0,2.2607.9775,4.05684,4.05684,0,0,0,2.626-.7695,4.31309,4.31309,0,0,0,1.5068-1.8887,5.99823,5.99823,0,0,1-.4541-3.8272,5.22134,5.22134,0,0,1-3.1172.1543,5.10713,5.10713,0,0,1-2.2988-1.3379,4.49705,4.49705,0,0,0-1.4443,1.879"/><path class="cls-2" d="M331.21489,208.40943a5.71778,5.71778,0,0,0-3.2295-2.5888,6.06219,6.06219,0,0,0-.5254-3.708,3.68594,3.68594,0,0,1,3.2734-2.1993,4.068,4.068,0,0,1,3.0049,1.2139,4.43374,4.43374,0,0,1,1.35351,2.8369,4.19616,4.19616,0,0,1-.96871,3.1621,3.65641,3.65641,0,0,1-2.9082,1.2832"/><path class="cls-2" d="M326.26569,202.61163c-1.3028,1.0693-2.6504,2.209-3.9737,3.29589a4.30252,4.30252,0,0,1,.544,1.17671,5.13682,5.13682,0,0,1,3.9013-1.499,4.58,4.58,0,0,0-.4716-2.9736"/><path class="cls-2" d="M314.99319,211.54613a3.864,3.864,0,0,0,2.4687,1.1573,3.968,3.968,0,0,0,2.7852-.8242,3.98184,3.98184,0,0,0,1.04-5.1602c-2.0546,1.5908-4.1572,3.2617-6.2939,4.8271"/><path class="cls-2" d="M324.29009,207.54523a4.486,4.486,0,0,0-.6748.6054,2.331,2.331,0,0,0-.5137.7793c0,.0127-.0254.0127-.0254.0352a4.73815,4.73815,0,0,1-.2803,1.4941,3.27806,3.27806,0,0,0-.1709.4395,3.12043,3.12043,0,0,0,.0713.71479,4.42845,4.42845,0,0,0,2.31351,3.26371,4.22745,4.22745,0,0,0,2.64839.3916,3.80665,3.80665,0,0,0,3-3.3779,4.74219,4.74219,0,0,0-.4511-2.6426,4.56516,4.56516,0,0,0-1.4912-1.6807,3.88376,3.88376,0,0,0-2.5098-.6972,3.73972,3.73972,0,0,0-1.916.6748"/><path class="cls-2" d="M330.02839,215.50713a.71751.71751,0,0,0-.1983.2041,4.21808,4.21808,0,0,0,.17871.6894,2.1485,2.1485,0,0,0,.27539.6055,4.186,4.186,0,0,0,.4287.3652,5.30724,5.30724,0,0,1,1.0801,1.3155,4.1722,4.1722,0,0,0,2.5039.6279,3.567,3.567,0,0,0,2.6436-1.4346,4.25153,4.25153,0,0,0,.81931-3.1767,4.51085,4.51085,0,0,0-1.36821-2.7305,4.11636,4.11636,0,0,0-2.92379-1.1533,3.24711,3.24711,0,0,0-1.49411.37889,5.21327,5.21327,0,0,1-1.9453,4.30861"/><path class="cls-2" d="M313.95509,212.32843c-1.6182,1.1738-3.2236,2.3574-4.8838,3.4922a3.65477,3.65477,0,0,0,1.1436.747,5.102,5.102,0,0,1,4.8281-1.4648,3.60841,3.60841,0,0,0,.6299-1.5537,5.65764,5.65764,0,0,1-1.7178-1.2207"/><path class="cls-2" d="M321.57519,212.427a5.30459,5.30459,0,0,1-4.2939,1.5313,4.25634,4.25634,0,0,0-.544,2.6093,4.76091,4.76091,0,0,0,.89651,2.2832,4.46931,4.46931,0,0,0,1.78229,1.3994,3.9275,3.9275,0,0,0,2.705.129,5.28107,5.28107,0,0,1,1.6973-3.1622c.293-.2646.6328-.43651.9629-.6816a2.05471,2.05471,0,0,0-.0244-.3428,5.80205,5.80205,0,0,1-3.1817-3.7656"/><path class="cls-2" d="M347.74709,221.72973a4.15251,4.15251,0,0,0,1.1094-3.1894,4.45263,4.45263,0,0,0-1.3653-2.9531,4.00636,4.00636,0,0,0-3.1425-1.1866,3.669,3.669,0,0,0-2.7295,1.50389,4.2764,4.2764,0,0,0-.7373,3.35061,5.78518,5.78518,0,0,1,3.747,3.5938,3.55906,3.55906,0,0,0,3.1182-1.1192"/><path class="cls-2" d="M313.70509,216.24933a3.70808,3.70808,0,0,0-3.3779,2.6259,4.52785,4.52785,0,0,0-.0752,2.5567,4.26552,4.26552,0,0,0,2.8476,3.1094,4.06981,4.06981,0,0,0,2.5489-.0166,3.85655,3.85655,0,0,0,2.40231-2.8077,2.03107,2.03107,0,0,0,.08889-.6679c-.0293-.0938-.377-.2998-.50589-.39461a5.69529,5.69529,0,0,1-2.16891-4.08689,4.26774,4.26774,0,0,0-1.7598-.3183"/><path class="cls-1" d="M304.20609,219.13113a1.90921,1.90921,0,0,0-.5254.377,4.4458,4.4458,0,0,0,1.7969,4.0107,4.04693,4.04693,0,0,0,2.124.8018,3.63445,3.63445,0,0,0,2.3281-.583,6.11913,6.11913,0,0,1-1.082-2.8448,5.61184,5.61184,0,0,1,.6182-3.2705,6.54793,6.54793,0,0,1-1.49909-1.04c-1.23341.8535-2.52631,1.7275-3.76071,2.5488"/><path class="cls-2" d="M324.14159,218.76883a3.87081,3.87081,0,0,0-.6826,1.38769,4.593,4.593,0,0,0,1.3916,4.54691,4.125,4.125,0,0,0,3.0586,1.039,3.62277,3.62277,0,0,0,2.6455-1.4785,4.22893,4.22893,0,0,0,.7744-3.2441,5.00814,5.00814,0,0,0-.5361-1.5391,4.11827,4.11827,0,0,0-4.0039-2.2041,3.59061,3.59061,0,0,0-2.6475,1.4922"/><path class="cls-2" d="M334.42089,223.15943a5.29287,5.29287,0,0,1,2.46491-3.455h-.04011a5.05627,5.05627,0,0,1-3.7617.8164c-.15719-.0245-.4844-.1416-.5263-.0918-.0645.0673.0419.4199.0595.5712a5.56539,5.56539,0,0,1-.9531,3.9239,4.28588,4.28588,0,0,0,3.7725,2.8965,6.13087,6.13087,0,0,1-1.0157-4.6612"/><path class="cls-2" d="M336.5508,221.65752a4.03278,4.03278,0,0,0-.93361,3.13281,4.467,4.467,0,0,0,1.3233,2.8017,4.08674,4.08674,0,0,0,2.9238,1.2207,3.63413,3.63413,0,0,0,2.8144-1.3251,4.08568,4.08568,0,0,0,.9502-3.1202,4.43042,4.43042,0,0,0-1.3154-2.8164,4.071,4.071,0,0,0-2.9189-1.2314,3.59393,3.59393,0,0,0-2.84379,1.33789"/><path class="cls-2" d="M319.35839,221.635a5.32851,5.32851,0,0,1-2.2509,3.5713,4.29315,4.29315,0,0,0,3.2587,2.4473,3.684,3.684,0,0,0,3.795-1.87111,5.89744,5.89744,0,0,1-2.10939-4.05279,5.51982,5.51982,0,0,1-2.67581-.1289c-.0224,0-.0176.0098-.0176.0342"/><path class="cls-2" d="M344.94439,232.801a4.02013,4.02013,0,0,0,2.56641-.0244,3.87266,3.87266,0,0,0,2.50679-3.581,4.65319,4.65319,0,0,0-.5859-2.4629,4.21773,4.21773,0,0,0-4.5147-2.1241,5.27419,5.27419,0,0,1-2.8388,4.9786,4.44013,4.44013,0,0,0,2.8662,3.2138"/><path class="cls-1" d="M314.62309,226.00323c-.1485.0127-.3447-.0196-.4844,0-.0762.0205-.208.1885-.2676.2656a4.14347,4.14347,0,0,0-1.0049,2.708,4.44013,4.44013,0,0,0,1.2432,3.13969,4.06127,4.06127,0,0,0,4.4053,1.08981,5.74371,5.74371,0,0,1,.66311-4.5371,5.6641,5.6641,0,0,1-3.22951-2.916,4.05654,4.05654,0,0,1-1.3252.25"/><path class="cls-2" d="M330.40819,226.14773a4.93633,4.93633,0,0,1-2.7207.876,2.55369,2.55369,0,0,0-.5156-.0147c-.1172.02149-.28609.2383-.3828.3399a4.03151,4.03151,0,0,0-.7637,1.4043,5.01888,5.01888,0,0,0-.01559,2.5166,4.376,4.376,0,0,0,2.77539,3.041,3.96717,3.96717,0,0,0,2.47461.0293,3.77133,3.77133,0,0,0,2.59279-3.2119,4.669,4.669,0,0,0-.3399-2.47371,5.69831,5.69831,0,0,1-2.4218-2.04589c-.08209-.1289-.1563-.32511-.254-.3789-.1035-.082-.2646-.0673-.3789-.1171-.0156.0097-.038.0146-.0498.0351"/><path class="cls-2" d="M324.16609,227.761a4.99326,4.99326,0,0,1-3.5987,1.1963,4.059,4.059,0,0,0-.9531,3.1787,4.40153,4.40153,0,0,0,1.3926,2.835,3.91976,3.91976,0,0,0,3.0156,1.1611,3.64646,3.64646,0,0,0,2.7666-1.4473,6.28865,6.28865,0,0,1-1.9258-2.7519,6.06053,6.06053,0,0,1,.0947-3.9766,6.80159,6.80159,0,0,0-.74019-.2227.147.147,0,0,0-.05171.0274"/><path class="cls-2" d="M349.16119,233.32543c-.0772.0596-.1885.0967-.2178.2012a3.91651,3.91651,0,0,0,.4189.9326,1.87378,1.87378,0,0,0,.2354.2412,5.86237,5.86237,0,0,1,.45511.5088c.07909.0987.11909.2178.19819.2998a2.13955,2.13955,0,0,0,.3496.2754,4.17251,4.17251,0,0,0,3.5.5733,3.85948,3.85948,0,0,0,2.4717-2.5987,4.57324,4.57324,0,0,0,.0723-2.2236,4.4025,4.4025,0,0,0-2.127-2.9434,4.02987,4.02987,0,0,0-3.2715-.33,5.3649,5.3649,0,0,1-2.0849,5.0634"/><path class="cls-2" d="M340.251,237.428a1.903,1.903,0,0,0,.54881-.43951c.09179-.17869.12889-.44719.21589-.67769a5.09054,5.09054,0,0,1,.6474-1.1885,2.76,2.76,0,0,0,.4024-.5293,2.60263,2.60263,0,0,0,.04-.7812,4.36343,4.36343,0,0,0-1.6533-3.378,1.84789,1.84789,0,0,0-.501-.3525c-.2285-.04981-.5019-.00981-.7402-.04a5.15669,5.15669,0,0,1-1.2657-.3047c-.18549-.0645-.372-.2334-.5732-.2266a2.56935,2.56935,0,0,0-.6797.167,3.63771,3.63771,0,0,0-1.1074.5654c-.1309.1094-.3867.29009-.4238.4297-.0498.2256-.0098.4688-.0371.6846a6.04983,6.04983,0,0,1-.5215,1.6582,5.73074,5.73074,0,0,1,3.2929,4.9443,3.76221,3.76221,0,0,0,2.3555-.5312"/><path class="cls-2" d="M331.91209,235.44952a5.01816,5.01816,0,0,1-2.8017.26561,4.1398,4.1398,0,0,0-.5039,2.6728,4.72311,4.72311,0,0,0,.9678,2.2813,4.20084,4.20084,0,0,0,1.8789,1.3721,4.0566,4.0566,0,0,0,2.7597-.044,3.65258,3.65258,0,0,0,1.7696-1.4941,4.01369,4.01369,0,0,0,.6279-2.5938,4.41356,4.41356,0,0,0-2.7129-3.8076c0-.0127,0-.02731-.01469-.02731a4.9985,4.9985,0,0,1-1.97071,1.375"/><path class="cls-2" d="M343.8848,234.78443a3.60858,3.60858,0,0,0-1.10451.9756,4.233,4.233,0,0,0-.81149,3.2266,4.44348,4.44348,0,0,0,1.41989,2.708,4.14915,4.14915,0,0,0,3.0352,1.1064,3.62118,3.62118,0,0,0,2.6826-1.4248,4.15281,4.15281,0,0,0,.8242-3.2265,4.56008,4.56008,0,0,0-1.3926-2.7227,4.07757,4.07757,0,0,0-3.0351-1.0996,3.93375,3.93375,0,0,0-1.61819.457"/><path class="cls-2" d="M354.20709,237.634a5.24255,5.24255,0,0,1-3.0928-.1543,5.9309,5.9309,0,0,1-.4443,3.8467,4.68556,4.68556,0,0,0,1.5146,1.8819,4.089,4.089,0,0,0,2.6455.7568,3.7023,3.7023,0,0,0,2.2383-1.0029,3.83375,3.83375,0,0,0,1.1738-2.0645,4.47815,4.47815,0,0,0-1.6943-4.5869,5.24737,5.24737,0,0,1-2.3408,1.3232"/><path class="cls-2" d="M338.72459,213.32352a5.91627,5.91627,0,0,1,.3155,2.668,5.44938,5.44938,0,0,1-.7989,2.25091c0,.0127-.02239.0225,0,.0352a4.041,4.041,0,0,0,1.3301-.4766,5.27708,5.27708,0,0,1,1.56151-3.2841c.10649-.0938.335-.2452.36719-.3448a1.83724,1.83724,0,0,0-.0449-.5908,4.65332,4.65332,0,0,0-.4765-1.4521,4.15513,4.15513,0,0,0-2.9161-2.22071,3.43081,3.43081,0,0,0-2.2021.19141,5.58466,5.58466,0,0,1,2.8642,3.22359"/><path class="cls-2" d="M365.32619,155.718c.7217-1.4463,1.4219-2.9306,2.0772-4.4297.2285.15819.4521.335.6679.5108l.2334.1933a17.70027,17.70027,0,0,0,3.378,2.1397,23.75681,23.75681,0,0,0,2.82911,1.0381c.82419.2675,1.67479.541,2.46969.8808a15.58326,15.58326,0,0,0,4.19431,8.8731,11.90008,11.90008,0,0,0,3.94339,2.6523,11.098,11.098,0,0,0,3.7451.7246,6.65153,6.65153,0,0,0,1.89351-.25l.67289-.1963-.5605-.0566a.05516.05516,0,0,0,.0224-.0078,12.61587,12.61587,0,0,1-4.8496-1.459,13.813,13.813,0,0,1-3.5723-2.7285,31.09521,31.09521,0,0,1-4.71289-7.252,26.74133,26.74133,0,0,0,8.45609,2.043,20.50543,20.50543,0,0,0,3.5195-.1494,22.91481,22.91481,0,0,0,5.8741-1.541,18.19147,18.19147,0,0,0,2.5019-1.2305,6.74128,6.74128,0,0,0,2.0977-1.6455l.4834-.6602-.6768.4639a16.28833,16.28833,0,0,1-4.7832,2.0596,27.88058,27.88058,0,0,1-5.7852,1.082c-1.1513.0967-2.2832.1367-3.3779.127a23.00457,23.00457,0,0,1-8.3867-1.4971,33.86026,33.86026,0,0,0,6.875-5.1865c.1885-.1817.377-.3623.5684-.544.5185-.4892,1.0546-1.0029,1.541-1.5312,2.5019-2.7178,5.3369-5.7998,6.7285-10.044l.1767-.5361-.4023.3965c-1.3496,1.32619-2.79,2.7627-4.1494,4.2597-1.1045,1.2129-2.1992,2.43949-3.29879,3.6729-2.73541,3.0625-5.55961,6.2324-8.49521,9.1611l-.0371.044c-.0058.0078-.0175.0127-.0254.0254a46.0321,46.0321,0,0,1-2.8339-9.2061c-.2266-1.1211-.417-2.2627-.668-3.4101-.0127.0449.0127-.042,0,0-.002-.0118.0029.0127,0,0l-.1592-.4561-.1455.5527a14.05127,14.05127,0,0,0,.2969,7.22269l.0771.23831a16.50542,16.50542,0,0,0,1.0821,2.7002,15.43085,15.43085,0,0,0,1.1445,1.8447c-1.1934-.6387-2.32029-1.40721-3.57129-1.9961-.75491-.3574-1.50881-.71-2.29591-1.0225-.78709-.3154-1.5889-.6103-2.3633-.9677a98.71406,98.71406,0,0,0,5.0039-14.3282,3.56783,3.56783,0,0,1,.1192-.5136,1.77493,1.77493,0,0,1,.3105-.29011,9.33005,9.33005,0,0,1,1.8145-1.20409,1.30221,1.30221,0,0,1,.9677-.166c.44141.16109.3819.7266.3819,1.29009a8.69672,8.69672,0,0,0,.26851,2.05271,32.55065,32.55065,0,0,0,2.47659,6.8281,13.64171,13.64171,0,0,1-.4297-3.2344,9.851,9.851,0,0,1,.6035-3.0576,8.16425,8.16425,0,0,1,1.2959-2.375,4.50725,4.50725,0,0,1,.9971-.8242,4.44525,4.44525,0,0,1,1.2705-.5762c.8496-.1533,1.415.4795,2.1846.4698a1.62953,1.62953,0,0,0,.789-.3233,8.93033,8.93033,0,0,1,1.8741-.6572,14.80378,14.80378,0,0,1,7.4628.3916,3.79215,3.79215,0,0,1,1.1592.5391,2.12134,2.12134,0,0,1,.3819.75,33.02922,33.02922,0,0,1,1.6484,4.01559,8.4775,8.4775,0,0,1,.2334,4.88181c-.0947.2901-.3398.6553-.1787,1.0049.1738.3701.501.5957.6621.9678a2.87683,2.87683,0,0,1,.0576,1.4326,4.34467,4.34467,0,0,1-1.1191,2.1738,8.79362,8.79362,0,0,1-4.2764,2.2735,14.80487,14.80487,0,0,0,5.78521-1.5342,22.90426,22.90426,0,0,0,2.37009-1.2998,17.62873,17.62873,0,0,0,1.8984-1.3037c.085-.0616.1543-.1788.2383-.1534a2.49263,2.49263,0,0,0,.2637,1.89069,38.83582,38.83582,0,0,1,1.3867,3.90911,9.28091,9.28091,0,0,1,.3281,3.1651,5.4521,5.4521,0,0,1-.5762,2.0674,2.70617,2.70617,0,0,0-.2802.6103c-.0127.3154.5732.7149.7666.8955a2.43412,2.43412,0,0,1,.7177.9405v.2832c-.7324,2.5117-4.1005,2.75-7.2744,2.3701-1.4443-.169-2.8545-.44921-4.2373-.7246a28.575,28.575,0,0,0-3.1836-.5411c-.4052-.0371-.9355-.0244-.9804.2481-.06449.3135.2802.6582.4463.8486a7.142,7.142,0,0,0,.6533.6631,31.09975,31.09975,0,0,0,4.5537,3.3506,11.76783,11.76783,0,0,1-3.3945,2.6162,10.20024,10.20024,0,0,1-2.1797.8115,9.609,9.609,0,0,1-2.76959.166c-.07421.5362.09379,1.2061-.27051,1.4766a2.20119,2.20119,0,0,1-.7822.2266c-.2852.0644-.5957.1015-.8711.1357a13.80143,13.80143,0,0,1-10.4961-3.5537,7.75748,7.75748,0,0,1-1.9033-6.1299,43.0484,43.0484,0,0,1,.9531-5.123c.0567-.3574.2578-1.6035-.12889-1.708-.19921-.0596-.55661.1543-.73731.2412-.251.12889-.4521.2187-.6504.332-1.2529.71489-2.5068,1.5068-3.78029,2.1152a11.10146,11.10146,0,0,1-2.98821.93069,11.87507,11.87507,0,0,1-3.6377-.08979c.789-1.501,1.6132-3.0049,2.4023-4.5567"/><path class="cls-2" d="M204.08449,155.718c-.7246-1.4463-1.4248-2.9306-2.0771-4.4297-.2305.15819-.4571.335-.67.5108l-.2314.1933a17.81452,17.81452,0,0,1-3.3799,2.1397,23.86177,23.86177,0,0,1-2.8271,1.0381c-.8243.2675-1.6748.541-2.4717.8808a15.53172,15.53172,0,0,1-4.1973,8.8731,11.83354,11.83354,0,0,1-3.94139,2.6523,11.08727,11.08727,0,0,1-3.7422.7246,6.68585,6.68585,0,0,1-1.8965-.25l-.6728-.1963.5635-.0566a.039.039,0,0,1-.0225-.0078,12.61112,12.61112,0,0,0,4.8477-1.459,13.77187,13.77187,0,0,0,3.57119-2.7285,31.00961,31.00961,0,0,0,4.7159-7.252,26.7414,26.7414,0,0,1-8.45609,2.043,20.51728,20.51728,0,0,1-3.5215-.1494,22.94264,22.94264,0,0,1-5.875-1.541,18.24406,18.24406,0,0,1-2.5019-1.2305,6.628,6.628,0,0,1-2.0918-1.6455l-.4864-.6602.6719.4639a16.36016,16.36016,0,0,0,4.7881,2.0596,27.82216,27.82216,0,0,0,5.7852,1.082c1.1513.0967,2.2832.1367,3.3779.127a23.00451,23.00451,0,0,0,8.38669-1.4971,33.87769,33.87769,0,0,1-6.87789-5.1865c-.1885-.1817-.377-.3623-.5684-.544-.5185-.4892-1.0547-1.0029-1.541-1.5312-2.499-2.7178-5.3359-5.7998-6.7285-10.044l-.1758-.5361.4014.3965c1.3535,1.32619,2.7929,2.7627,4.1504,4.2597q1.65675,1.81935,3.2978,3.6729c2.73539,3.0625,5.56249,6.2324,8.49609,9.1611l.0401.044a.15352.15352,0,0,1,.0244.0254,46.03108,46.03108,0,0,0,2.832-9.2061c.2285-1.1211.4189-2.2627.6699-3.4101.0127.0449-.01269-.042,0,0,0-.0118-.0049.0127,0,0l.15631-.4561.14649.5527a14.09468,14.09468,0,0,1-.295,7.22269l-.08.23831a16.51434,16.51434,0,0,1-1.0821,2.7002,15.41679,15.41679,0,0,1-1.1435,1.8447c1.1933-.6387,2.3203-1.40721,3.5732-1.9961.752-.3574,1.50391-.71,2.294-1.0225.789-.3154,1.5878-.6103,2.3652-.9677a98.14487,98.14487,0,0,1-5.0039-14.3282,4.00387,4.00387,0,0,0-.1192-.5136,1.84586,1.84586,0,0,0-.3105-.29011,9.26256,9.26256,0,0,0-1.8135-1.20409,1.30709,1.30709,0,0,0-.9687-.166c-.4414.16109-.3819.7266-.3819,1.29009a8.69726,8.69726,0,0,1-.2685,2.05271,32.7204,32.7204,0,0,1-2.4766,6.8281,13.49412,13.49412,0,0,0,.4268-3.2344,9.76567,9.76567,0,0,0-.6026-3.0576,8.13852,8.13852,0,0,0-1.2959-2.375,4.536,4.536,0,0,0-.998-.8242,4.3975,4.3975,0,0,0-1.2705-.5762c-.8467-.1533-1.41509.4795-2.18359.4698a1.63029,1.63029,0,0,1-.7871-.3233,8.94758,8.94758,0,0,0-1.876-.6572,14.81136,14.81136,0,0,0-7.4639.3916,3.77589,3.77589,0,0,0-1.1562.5391,2.14052,2.14052,0,0,0-.3848.75,33.98107,33.98107,0,0,0-1.6474,4.01559,8.53461,8.53461,0,0,0-.2334,4.88181c.0966.2901.3398.6553.1806,1.0049-.1758.3701-.5009.5957-.6621.9678a2.833,2.833,0,0,0-.0596,1.4326,4.3481,4.3481,0,0,0,1.1211,2.1738,8.80063,8.80063,0,0,0,4.2745,2.2735,14.79,14.79,0,0,1-5.7852-1.5342,23.2233,23.2233,0,0,1-2.3711-1.2998,18.33106,18.33106,0,0,1-1.8984-1.3037c-.0821-.0616-.1534-.1788-.2383-.1534a2.48817,2.48817,0,0,1-.2627,1.89069,38.79682,38.79682,0,0,0-1.3848,3.90911,9.28091,9.28091,0,0,0-.3281,3.1651,5.36577,5.36577,0,0,0,.5732,2.0674,2.70784,2.70784,0,0,1,.2813.6103c.0117.3154-.5742.7149-.7676.8955a2.43686,2.43686,0,0,0-.7148.9405v.2832c.7295,2.5117,4.0976,2.75,7.2724,2.3701,1.4444-.169,2.8565-.44921,4.2393-.7246a28.38384,28.38384,0,0,1,3.1816-.5411c.4073-.0371.9375-.0244.9805.2481.0645.3135-.2803.6582-.4492.8486a6.575,6.575,0,0,1-.6504.6631,31.26977,31.26977,0,0,1-4.5547,3.3506,11.74113,11.74113,0,0,0,3.3975,2.6162,10.15808,10.15808,0,0,0,2.1797.8115,9.6015,9.6015,0,0,0,2.7695.166c.0722.5362-.0967,1.2061.2685,1.4766a2.20242,2.20242,0,0,0,.7813.2266c.2861.0644.5986.1015.874.1357a13.79691,13.79691,0,0,0,10.49319-3.5537,7.75771,7.75771,0,0,0,1.9043-6.1299,42.27128,42.27128,0,0,0-.9561-5.123c-.0517-.3574-.2529-1.6035.1338-1.708.1963-.0596.5566.1543.7354.2412.25.12889.4541.2187.6494.332,1.2539.71489,2.5097,1.5068,3.7802,2.1152a11.135,11.135,0,0,0,2.9913.93069,11.86009,11.86009,0,0,0,3.6357-.08979c-.78909-1.501-1.6113-3.0049-2.4004-4.5567"/><path class="cls-2" d="M374.1368,15.43583c.01259,3.1445,0,101.334,0,101.334a87.45049,87.45049,0,0,1-1.39751,11.5205,83.43146,83.43146,0,0,1-2.459,10.2754c-3.9766,12.9951-10.2187,23.6972-17.374,33.5205-2.6699,3.6738-5.5986,7.1455-8.5723,10.5332-.9804,1.1269-2.0205,2.2139-3.0351,3.3135-3.0332,3.2988-6.2745,6.4482-9.5879,9.5088a223.23179,223.23179,0,0,1-32.4658,24.7959c-2.586,1.62889-5.23739,3.1992-8.002,4.7158-2.0791,1.1347-4.27339,2.3183-6.3677,3.3955a1.47813,1.47813,0,0,1-.3818-.15141c-.501-.26559-1.0801-.56349-1.544-.81929-2.8017-1.4688-5.5966-2.8858-8.2822-4.4395-2.6924-1.5537-5.3213-3.1523-7.9121-4.8125a211.0376,211.0376,0,0,1-35.3027-28.3164,150.39536,150.39536,0,0,1-17.4082-20.7685,119.81416,119.81416,0,0,1-9.3565-16.0957,91.87468,91.87468,0,0,1-6.7041-18.7286,88.94405,88.94405,0,0,1-2.333-16.748V15.969c1.5986-.5332,3.4053-1.01951,4.9766-1.52151,3.207-1.02239,6.4482-2.042,9.7666-2.97559,9.88771-2.7822,20.2939-5.1699,31.0654-7.1035a273.75257,273.75257,0,0,1,34.1162-4.0596c1.0127-.0478,2.0283-.082,3.0557-.1318,1.0205-.0469,2.043-.1064,3.06741-.1064,2.08979,0,4.19279-.1192,6.29539-.0479,1.0478.0352,2.0879.0176,3.1279.0479a269.457,269.457,0,0,1,48.2188,5.8515c3.5117.7276,6.9511,1.5147,10.37591,2.3506,1.70319.4121,3.40819.8242,5.08889,1.2734,3.377.90039,6.6807,1.7725,9.9102,2.8165,2.4472.79489,4.8144,1.5214,7.2216,2.3281.8145.2705,1.2686.4492,2.19931.7451"/><path class="cls-3" d="M101.9986,329.18382v30.9073a2.07044,2.07044,0,0,0,.4179,1.4033,3.04722,3.04722,0,0,0,1.4932.7764v.956H91.1885v-.956a3.04722,3.04722,0,0,0,1.4932-.7764,2.073,2.073,0,0,0,.4179-1.4033v-30.9073H80.438a2.05673,2.05673,0,0,0-1.374.4092,3.01286,3.01286,0,0,0-.7764,1.502h-.9555V320.553h.9555a3.27728,3.27728,0,0,0,.7915,1.5,1.98612,1.98612,0,0,0,1.3589.4111h34.1924a2.0971,2.0971,0,0,0,1.4038-.4111,3.02948,3.02948,0,0,0,.7764-1.5h.9555v10.542h-.9555a3.02,3.02,0,0,0-.7764-1.502,2.10781,2.10781,0,0,0-1.4038-.4092Z"/><path class="cls-3" d="M141.1387,346.593v13.5283a2.03577,2.03577,0,0,0,.4331,1.3887,2.8896,2.8896,0,0,0,1.478.7608v.956H130.3286v-.956a3.04472,3.04472,0,0,0,1.4927-.7764,2.02091,2.02091,0,0,0,.4185-1.3731v-34.5214a2.07255,2.07255,0,0,0-.4185-1.4034,3.0604,3.0604,0,0,0-1.4927-.7763v-.9561h25.5025a40.05258,40.05258,0,0,1,7.3911.5381,13.13238,13.13238,0,0,1,4.7627,1.8809,9.4786,9.4786,0,0,1,3.5239,4.2109,13.757,13.757,0,0,1,1.105,5.4941q0,9.9756-11.0791,11.6768l7.9136,11.2578a25.219,25.219,0,0,0,3.061,3.8076,3.862,3.862,0,0,0,2.374.9405v.956H160.1558v-.956q1.52055-.2373,1.521-1.0743a7.6377,7.6377,0,0,0-1.4014-2.5986l-8.2553-12.0049Zm0-6.7187h13.7368a35.09043,35.09043,0,0,0,4.3003-.1787,6.79564,6.79564,0,0,0,2.2993-.7471q2.269-1.2246,2.2696-4.4199,0-3.19485-2.2696-4.419a6.446,6.446,0,0,0-2.2846-.7617,37.64154,37.64154,0,0,0-4.315-.1641H141.1387Z"/><path class="cls-3" d="M198.23589,345.33912v11.169h26.2192a2.02523,2.02523,0,0,0,1.3735-.418,3.071,3.071,0,0,0,.7769-1.4932h.9556v10.541h-.9556a3.061,3.061,0,0,0-.7769-1.4931,2.02009,2.02009,0,0,0-1.3735-.418H187.4258v-.956a3.0452,3.0452,0,0,0,1.49269-.7764,2.07049,2.07049,0,0,0,.4184-1.4033v-34.4912a2.07254,2.07254,0,0,0-.4184-1.4034,3.06088,3.06088,0,0,0-1.49269-.7763v-.9561h36.31249a1.99908,1.99908,0,0,0,1.374-.4258,3.1096,3.1096,0,0,0,.7764-1.4853h.9556v10.542h-.9556a3.10356,3.10356,0,0,0-.7764-1.4873,2.00821,2.00821,0,0,0-1.374-.4239h-25.5024v9.6748H214.7798a2.02139,2.02139,0,0,0,1.37359-.4179,3.05816,3.05816,0,0,0,.7763-1.4932h.9556v10.3027h-.9556a3.1523,3.1523,0,0,0-.7763-1.4785,1.98048,1.98048,0,0,0-1.37359-.4326Z"/><path class="cls-3" d="M268.03269,352.83422h-18.5263l-2.7437,5.7344a4.78045,4.78045,0,0,0-.5674,1.8809q0,1.31385,1.9966,1.8213v.956H234.709v-.956a3.604,3.604,0,0,0,1.82181-.836,8.171,8.171,0,0,0,1.43309-2.3291l14.9912-31.3262a5.95489,5.95489,0,0,0,.7168-2.3886q0-1.37265-1.7319-1.9707v-.9561h14.4531v.9561q-1.7622.5082-1.7617,1.7617a4.40378,4.40378,0,0,0,.56741,1.9707l15.52829,31.416a10.646,10.646,0,0,0,1.7324,2.7324,3.78392,3.78392,0,0,0,2.0005.9698v.956h-15.0059v-.956q1.97685-.3282,1.9771-1.8506a4.78215,4.78215,0,0,0-.5972-1.8516Zm-2.56-5.584-6.6104-14.5205-6.7168,14.5205Z"/><path class="cls-3" d="M329.458,325.91722l-4.8671,9.5967-.837-.4775c.0196-.1983.0303-.3584.0303-.4776q0-1.01505-1.73239-2.1796a21.2855,21.2855,0,0,0-12.48241-3.7032,18.28045,18.28045,0,0,0-5.584.7754,6.67448,6.67448,0,0,0-2.85259,1.7901,3.777,3.777,0,0,0-1.08981,2.5947q0,2.2968,2.7773,3.1328a43.60021,43.60021,0,0,0,6.1524.8945l4.6875.4776a38.52258,38.52258,0,0,1,6.76461,1.2236,15.88029,15.88029,0,0,1,4.584,2.1787,10.244,10.244,0,0,1,3.21,3.8486,11.36825,11.36825,0,0,1,1.17969,5.1026,11.61372,11.61372,0,0,1-2.7774,7.6387q-2.5092,3.04395-7.7939,4.5058a31.20817,31.20817,0,0,1-8.4512,1.1045,35.82941,35.82941,0,0,1-15.9766-3.8818,8.50162,8.50162,0,0,0-2.0009-.7764,2.51465,2.51465,0,0,0-1.2246.6563l-.8653-.4473,4.419-10.0039.86621.418v.3876a3.28769,3.28769,0,0,0,1.28419,2.4786,16.28431,16.28431,0,0,0,6.0019,2.9863,26.14092,26.14092,0,0,0,7.7051,1.2549,15.60948,15.60948,0,0,0,6.7783-1.3418,6.57948,6.57948,0,0,0,2.47851-1.9815,4.24887,4.24887,0,0,0,.92579-2.5791,2.98494,2.98494,0,0,0-2.1797-2.8906,28.99494,28.99494,0,0,0-6.1513-1.1025l-4.5987-.4776a62.9731,62.9731,0,0,1-6.54-.9111,16.81966,16.81966,0,0,1-3.8223-1.3897,9.9168,9.9168,0,0,1-4.2705-4.0351,10.87013,10.87013,0,0,1-1.40429-5.5586,11.28537,11.28537,0,0,1,3.55369-8.5469q4.65975-4.45305,13.9756-4.4541a31.71863,31.71863,0,0,1,7.2871.7959,55.15524,55.15524,0,0,1,8.4209,2.9229,9.18151,9.18151,0,0,0,2.1201.6904,2.45909,2.45909,0,0,0,1.4639-.6904Z"/><path class="cls-3" d="M384.64259,325.59992v22.8447q0,6.48045-2.3887,9.706-4.30063,5.79345-17.7685,5.793-9.7353,0-14.9014-3.1357a9.569,9.569,0,0,1-4.1806-4.9571,21.60418,21.60418,0,0,1-1.1348-7.4062v-22.8447a2.07511,2.07511,0,0,0-.418-1.4034,3.0625,3.0625,0,0,0-1.4931-.7763v-.9561h12.7207v.9561a2.852,2.852,0,0,0-1.48439.7617,2.10419,2.10419,0,0,0-.42681,1.418v20.3369a25.366,25.366,0,0,0,.3887,5.2109,5.94368,5.94368,0,0,0,1.4629,2.8213q2.86665,3.0468,9.7949,3.0469,6.958,0,9.8252-3.0469a6.09911,6.09911,0,0,0,1.4336-2.8213,25.454,25.454,0,0,0,.3877-5.2109v-20.3369a2.07511,2.07511,0,0,0-.418-1.4034,3.0625,3.0625,0,0,0-1.4931-.7763v-.9561h12.0048v.9561a3.05775,3.05775,0,0,0-1.4931.7763A2.0699,2.0699,0,0,0,384.64259,325.59992Z"/><path class="cls-3" d="M410.60159,346.593v13.5283a2.04071,2.04071,0,0,0,.4326,1.3887,2.89574,2.89574,0,0,0,1.4785.7608v.956h-12.7216v-.956a3.04724,3.04724,0,0,0,1.4931-.7764,2.02339,2.02339,0,0,0,.418-1.3731v-34.5214a2.07511,2.07511,0,0,0-.418-1.4034,3.06293,3.06293,0,0,0-1.4931-.7763v-.9561H425.294a40.04359,40.04359,0,0,1,7.3906.5381,13.13378,13.13378,0,0,1,4.7637,1.8809,9.482,9.482,0,0,1,3.5234,4.2109,13.759,13.759,0,0,1,1.1055,5.4941q0,9.9756-11.0791,11.6768l7.9131,11.2578a25.25826,25.25826,0,0,0,3.0605,3.8076,3.866,3.866,0,0,0,2.375.9405v.956h-14.7275v-.956q1.519-.2373,1.5205-1.0743a7.62769,7.62769,0,0,0-1.4014-2.5986l-8.2558-12.0049Zm0-6.7187h13.7363a35.08874,35.08874,0,0,0,4.3008-.1787,6.78715,6.78715,0,0,0,2.2988-.7471q2.269-1.2246,2.2696-4.4199,0-3.19485-2.2696-4.419a6.43692,6.43692,0,0,0-2.2841-.7617,37.658,37.658,0,0,0-4.3155-.1641h-13.7363Z"/><path class="cls-3" d="M476.3448,346.16042v13.9287a2.04982,2.04982,0,0,0,.42569,1.4053,3.10748,3.10748,0,0,0,1.4854.7764v.956h-12.7813v-.956a3.288,3.288,0,0,0,1.5235-.7764,1.98291,1.98291,0,0,0,.4482-1.4053v-13.9287l-13.1699-18.5322a19.05423,19.05423,0,0,0-2.6728-3.208,4.39892,4.39892,0,0,0-2.3145-1v-.9561H465.3848v.9561q-2.001.32805-2.001,1.8496a6.45463,6.45463,0,0,0,1.22459,2.3584l7.3467,10.9062,7.5576-10.9062a5.8393,5.8393,0,0,0,1.2246-2.3877,1.54351,1.54351,0,0,0-.538-1.1787,2.76158,2.76158,0,0,0-1.4629-.6416v-.9561H494.501v.9561a4.40514,4.40514,0,0,0-2.3144,1,19.05088,19.05088,0,0,0-2.6719,3.208Z"/><path class="cls-3" d="M35.1783,407.89482l-9.3194,23.5566a8.229,8.229,0,0,0-.8076,2.2696q0,1.374,2.2114,1.9404v.956H14.1363v-.956q2.0016-.3867,2.0019-2.0303a12.72715,12.72715,0,0,0-.8374-2.6572L3.6162,400.90162a10.833,10.833,0,0,0-1.5693-3.0312A3.57413,3.57413,0,0,0,0,396.81082v-.9561H14.1709v.9561q-1.8816.419-1.8818,1.7617a6.19062,6.19062,0,0,0,.4785,1.9707l8.0615,21.5713,8.7286-21.6904a6.63529,6.63529,0,0,0,.5673-1.8516q0-1.3725-2.0005-1.7617v-.9561H42.938v.9561q-2.031.5376-2.0307,1.9404a6.24694,6.24694,0,0,0,.5078,1.792l8.3208,21.5713,8.0356-21.2129a7.2427,7.2427,0,0,0,.6275-2.3594q0-1.3125-2.1504-1.7314v-.9561h14.018v.9561a4.21788,4.21788,0,0,0-2.0625,1.0752,12.31151,12.31151,0,0,0-1.4941,3.0156l-11.6846,30.0723a10.34005,10.34005,0,0,0-.8369,2.8662q0,1.4634,2.1211,1.8213v.956H43.0113v-.956q2.09175-.3282,2.0913-2a9.90786,9.90786,0,0,0-.9268-2.6875Z"/><path class="cls-3" d="M81.5547,433.48172v-34.5205a2.02325,2.02325,0,0,0-.4184-1.374,3.06005,3.06005,0,0,0-1.4927-.7764v-.9561H92.3648v.9561a2.81931,2.81931,0,0,0-1.4932.7617,2.08251,2.08251,0,0,0-.418,1.3887v34.5205a2.08423,2.08423,0,0,0,.4332,1.4189,2.88725,2.88725,0,0,0,1.478.7608v.956H79.6436v-.956a3.04437,3.04437,0,0,0,1.4927-.7764A2.07049,2.07049,0,0,0,81.5547,433.48172Z"/><path class="cls-3" d="M116.1665,408.69562v24.7861a2.07045,2.07045,0,0,0,.418,1.4033,3.044,3.044,0,0,0,1.4932.7764v.956H106.1031v-.956a3.044,3.044,0,0,0,1.4926-.7764,2.07049,2.07049,0,0,0,.4185-1.4033v-34.5205a2.02327,2.02327,0,0,0-.4185-1.374,3.05964,3.05964,0,0,0-1.4926-.7764v-.9561H119.959v.9561q-1.28385.32805-1.2842,1.373a2.42715,2.42715,0,0,0,.8365,1.5831l22.4863,23.3828v-24.1885a2.02576,2.02576,0,0,0-.418-1.374,3.06168,3.06168,0,0,0-1.4931-.7764v-.9561h11.9751v.9561a3.05734,3.05734,0,0,0-1.4932.7764,2.0207,2.0207,0,0,0-.4185,1.374v34.5205a2.0679,2.0679,0,0,0,.4185,1.4033,3.04169,3.04169,0,0,0,1.4932.7764v.956H139.2202v-.956q1.25475-.26805,1.2544-1.2832,0-.59775-1.4633-2.0908Z"/><path class="cls-3" d="M176.5782,418.72972v11.169h26.21919a2.02523,2.02523,0,0,0,1.3735-.418,3.07073,3.07073,0,0,0,.77691-1.4931h.95559v10.541h-.95559a3.0616,3.0616,0,0,0-.77691-1.4932,2.02009,2.02009,0,0,0-1.3735-.418H165.7681v-.956a3.04437,3.04437,0,0,0,1.4927-.7764,2.07049,2.07049,0,0,0,.4184-1.4033v-34.4912a2.07208,2.07208,0,0,0-.4184-1.4033,3.06005,3.06005,0,0,0-1.4927-.7764v-.9561h36.31249a1.99953,1.99953,0,0,0,1.374-.4257,3.10993,3.10993,0,0,0,.7764-1.4854h.9556v10.542h-.9556a3.10347,3.10347,0,0,0-.7764-1.4873,2.00866,2.00866,0,0,0-1.374-.4238H176.5782v9.6748h16.54389a2.021,2.021,0,0,0,1.3735-.418,3.05725,3.05725,0,0,0,.7764-1.4932h.9556v10.3028h-.9556a3.15031,3.15031,0,0,0-.7764-1.4785,1.98006,1.98006,0,0,0-1.3735-.4327Z"/><path class="cls-3" d="M249.28129,418.72972v11.169h26.2192a2.02569,2.02569,0,0,0,1.3736-.418,3.07148,3.07148,0,0,0,.7768-1.4931h.9556v10.541h-.9556a3.06234,3.06234,0,0,0-.7768-1.4932,2.02054,2.02054,0,0,0-1.3736-.418h-37.0293v-.956a3.04437,3.04437,0,0,0,1.4927-.7764,2.07049,2.07049,0,0,0,.4185-1.4033v-34.4912a2.07208,2.07208,0,0,0-.4185-1.4033,3.06005,3.06005,0,0,0-1.4927-.7764v-.9561h36.3125a1.99956,1.99956,0,0,0,1.374-.4257,3.11,3.11,0,0,0,.7764-1.4854h.9556v10.542h-.9556a3.10356,3.10356,0,0,0-.7764-1.4873,2.0087,2.0087,0,0,0-1.374-.4238h-25.5024v9.6748h16.5439a2.02147,2.02147,0,0,0,1.37361-.418,3.05824,3.05824,0,0,0,.77629-1.4932h.9556v10.3028h-.9556a3.15137,3.15137,0,0,0-.77629-1.4785,1.98056,1.98056,0,0,0-1.37361-.4327Z"/><path class="cls-3" d="M329.28419,399.30792l-4.8672,9.5966-.8369-.4775c.0195-.1982.0303-.3584.0303-.4775q0-1.0152-1.7324-2.1797a21.2855,21.2855,0,0,0-12.4825-3.7031,18.28344,18.28344,0,0,0-5.5839.7753,6.67559,6.67559,0,0,0-2.8526,1.7901,3.777,3.777,0,0,0-1.0898,2.5947q0,2.297,2.7773,3.1328a43.61055,43.61055,0,0,0,6.1524.8946l4.6875.4775a38.52227,38.52227,0,0,1,6.7646,1.2236,15.88017,15.88017,0,0,1,4.584,2.1787,10.245,10.245,0,0,1,3.21,3.8487,11.36792,11.36792,0,0,1,1.1796,5.1025,11.61362,11.61362,0,0,1-2.7773,7.6387q-2.50935,3.04395-7.7939,4.5058a31.20529,31.20529,0,0,1-8.4512,1.1045,35.82941,35.82941,0,0,1-15.9766-3.8818,8.49985,8.49985,0,0,0-2.001-.7764,2.51546,2.51546,0,0,0-1.2246.6563l-.86519-.4473,4.41889-10.0039.8663.418v.3877a3.28771,3.28771,0,0,0,1.2841,2.4785,16.28415,16.28415,0,0,0,6.002,2.9863,26.13765,26.13765,0,0,0,7.7051,1.2549,15.60979,15.60979,0,0,0,6.7783-1.3418,6.58081,6.58081,0,0,0,2.4785-1.9814,4.24906,4.24906,0,0,0,.92581-2.5791,2.98518,2.98518,0,0,0-2.17971-2.8907,29.00158,29.00158,0,0,0-6.1514-1.1025l-4.5986-.4775a62.99382,62.99382,0,0,1-6.54-.9112,16.81555,16.81555,0,0,1-3.82229-1.3896,9.917,9.917,0,0,1-4.27051-4.0352,10.87024,10.87024,0,0,1-1.4043-5.5586,11.28538,11.28538,0,0,1,3.5537-8.5469q4.6596-4.45305,13.9756-4.4541a31.72416,31.72416,0,0,1,7.2871.7959,55.15894,55.15894,0,0,1,8.4209,2.9229,9.18151,9.18151,0,0,0,2.1201.6904,2.45909,2.45909,0,0,0,1.4639-.6904Z"/><path class="cls-3" d="M360.67089,402.57452v30.9072a2.06785,2.06785,0,0,0,.418,1.4033,3.04169,3.04169,0,0,0,1.4932.7764v.956h-12.7217v-.956a3.0464,3.0464,0,0,0,1.4932-.7764,2.073,2.073,0,0,0,.4179-1.4033v-30.9072h-12.6621a2.05437,2.05437,0,0,0-1.373.4091,3.00018,3.00018,0,0,0-.7764,1.502h-.9561v-10.542h.9561a3.28019,3.28019,0,0,0,.791,1.5,1.98541,1.98541,0,0,0,1.3584.4111H373.3028a2.09671,2.09671,0,0,0,1.40329-.4111,3.02706,3.02706,0,0,0,.7764-1.5h.955v10.542h-.955a3.01764,3.01764,0,0,0-.7764-1.502,2.10741,2.10741,0,0,0-1.40329-.4091Z"/><path class="cls-3" d="M410.35939,426.22492H391.833l-2.7441,5.7343a4.789,4.789,0,0,0-.5674,1.8809q0,1.314,1.9971,1.8213v.956h-13.4834v-.956a3.60211,3.60211,0,0,0,1.8213-.836,8.14947,8.14947,0,0,0,1.4336-2.3291l14.9912-31.3261a5.96286,5.96286,0,0,0,.7168-2.3887q0-1.3725-1.7324-1.9707v-.9561H408.7198v.9561q-1.76222.50835-1.76271,1.7617a4.41138,4.41138,0,0,0,.5673,1.9707l15.5293,31.416a10.64985,10.64985,0,0,0,1.7315,2.7325,3.78839,3.78839,0,0,0,2.001.9697v.956h-15.0059v-.956q1.9761-.3282,1.9766-1.8506a4.78848,4.78848,0,0,0-.5967-1.8516Zm-2.5605-5.584-6.6104-14.5205-6.7168,14.5205Z"/><path class="cls-3" d="M451.78419,402.57452v30.9072a2.06785,2.06785,0,0,0,.418,1.4033,3.04176,3.04176,0,0,0,1.4931.7764v.956h-12.7216v-.956a3.04608,3.04608,0,0,0,1.49311-.7764,2.07258,2.07258,0,0,0,.418-1.4033v-30.9072H430.22269a2.05483,2.05483,0,0,0-1.3731.4091,3.001,3.001,0,0,0-.7763,1.502h-.9561v-10.542h.9561a3.28019,3.28019,0,0,0,.791,1.5,1.98541,1.98541,0,0,0,1.3584.4111h34.1934a2.09673,2.09673,0,0,0,1.4033-.4111,3.02626,3.02626,0,0,0,.7763-1.5h.95511v10.542h-.95511a3.01684,3.01684,0,0,0-.7763-1.502,2.10742,2.10742,0,0,0-1.4033-.4091Z"/><path class="cls-3" d="M487.86619,418.72972v11.169H514.086a2.0247,2.0247,0,0,0,1.373-.418,3.06645,3.06645,0,0,0,.7764-1.4931h.956v10.541h-.956a3.05734,3.05734,0,0,0-.7764-1.4932,2.01955,2.01955,0,0,0-1.373-.418h-37.0303v-.956a3.0464,3.0464,0,0,0,1.4932-.7764,2.073,2.073,0,0,0,.41791-1.4033v-34.4912a2.07464,2.07464,0,0,0-.41791-1.4033,3.06209,3.06209,0,0,0-1.4932-.7764v-.9561h36.3135a1.99679,1.99679,0,0,0,1.373-.4257,3.1057,3.1057,0,0,0,.7764-1.4854h.956v10.542h-.956a3.09927,3.09927,0,0,0-.7764-1.4873,2.00591,2.00591,0,0,0-1.373-.4238h-25.503v9.6748h16.544a2.02413,2.02413,0,0,0,1.374-.418,3.06564,3.06564,0,0,0,.7764-1.4932h.9551v10.3028h-.9551a3.15937,3.15937,0,0,0-.7764-1.4785,1.98315,1.98315,0,0,0-1.374-.4327Z"/><path class="cls-3" d="M567.56349,399.30792l-4.8672,9.5966-.8369-.4775c.0195-.1982.0303-.3584.0303-.4775q0-1.0152-1.7324-2.1797a21.28549,21.28549,0,0,0-12.48249-3.7031,18.28347,18.28347,0,0,0-5.58391.7753,6.67553,6.67553,0,0,0-2.8526,1.7901,3.77708,3.77708,0,0,0-1.0898,2.5947q0,2.297,2.77731,3.1328a43.61007,43.61007,0,0,0,6.15239.8946l4.6875.4775a38.52209,38.52209,0,0,1,6.7646,1.2236,15.88017,15.88017,0,0,1,4.584,2.1787,10.245,10.245,0,0,1,3.21,3.8487,11.36792,11.36792,0,0,1,1.1796,5.1025,11.61362,11.61362,0,0,1-2.7773,7.6387q-2.50935,3.04395-7.7939,4.5058a31.20529,31.20529,0,0,1-8.4512,1.1045,35.82944,35.82944,0,0,1-15.9766-3.8818,8.49985,8.49985,0,0,0-2.001-.7764,2.51505,2.51505,0,0,0-1.2246.6563l-.8652-.4473,4.4189-10.0039.8663.418v.3877a3.28771,3.28771,0,0,0,1.2841,2.4785,16.28415,16.28415,0,0,0,6.002,2.9863,26.1377,26.1377,0,0,0,7.7051,1.2549,15.60987,15.60987,0,0,0,6.77831-1.3418,6.58093,6.58093,0,0,0,2.47849-1.9814,4.249,4.249,0,0,0,.9258-2.5791,2.98517,2.98517,0,0,0-2.1797-2.8907,29.00144,29.00144,0,0,0-6.1514-1.1025l-4.5986-.4775a62.99425,62.99425,0,0,1-6.54-.9112,16.8158,16.8158,0,0,1-3.8223-1.3896,9.91709,9.91709,0,0,1-4.2705-4.0352,10.87014,10.87014,0,0,1-1.4043-5.5586,11.28538,11.28538,0,0,1,3.5537-8.5469q4.6596-4.45305,13.9756-4.4541a31.72416,31.72416,0,0,1,7.2871.7959,55.15894,55.15894,0,0,1,8.4209,2.9229,9.18151,9.18151,0,0,0,2.1201.6904,2.45909,2.45909,0,0,0,1.4639-.6904Z"/><path class="cls-1" d="M325.94339,33.34993c-.5391.1289-1.0928.2382-1.6553.3574a3.21937,3.21937,0,0,1-.5537.1064,5.43843,5.43843,0,0,1-.9082-.15621c-4.4482-.80859-9.0225-1.51369-13.6728-2.13379-4.8125-.6455-9.7569-1.125-14.877-1.4824-.1689-.0196-.4717-.0196-.4844-.0371.0049.0127.38481.0127.5196.0175,5.3828.38479,10.7216.7246,15.9033,1.2862,5.4228.59759,10.62991,1.1884,15.7285,2.042m.667-1.3008a3.95952,3.95952,0,0,0-.0098.542,14.29483,14.29483,0,0,0,2.1446,0v-.542Zm2.1348,1.5049a18.96206,18.96206,0,0,1-2.1446,0v.7988a12.387,12.387,0,0,0,2.1446,0Zm-2.7901.5107c-1.2676.0254-2.5185.0723-3.7275.1592-.00979.0449.0498.0918.07421.1162a10.86648,10.86648,0,0,1,1.67089,2.3535,31.14554,31.14554,0,0,1,3.0225,9.8506c3.64161-.1191,7.4062-.085,11.0078.0469-.3828-3.9688-1.37019-7.55761-3.2119-10.1387a7.92789,7.92789,0,0,0-1.0372-1.1982,3.38511,3.38511,0,0,0-1.41009-.8243c-.20311-.04-.40241-.0175-.59771-.04-.19429-.0273-.375-.0742-.5634-.0918-.5938-.0645-1.1524-.124-1.7901-.1484v.7763a11.203,11.203,0,0,1-3.4375-.0127v-.8486m-6.6982,33.1514a5.31945,5.31945,0,0,0,1.3554.0595,2.75839,2.75839,0,0,0,.9727-.5263,6.57748,6.57748,0,0,0,1.3975-1.55181,17.19032,17.19032,0,0,0,1.9277-3.96579,32.84989,32.84989,0,0,0,1.6035-7.2598,34.5236,34.5236,0,0,0-.1582-8.2988,25.20571,25.20571,0,0,0-1.1299-4.7881,13.49323,13.49323,0,0,0-3.25879-5.5986,2.74664,2.74664,0,0,0-2.05471-.8965c-.1962.0127-.4492.05959-.6357.05959-.0342.06441.0625.13181.0996.166a10.68825,10.68825,0,0,1,1.9756,3.00881,24.47742,24.47742,0,0,1,1.4268,3.8916,34.08,34.08,0,0,1,1.3476,9.3271,42.11937,42.11937,0,0,1-.2549,5.0703,29.11531,29.11531,0,0,1-.8984,4.4229c-.792,2.69729-1.8545,5.1699-3.6807,6.8047-.0156.0254-.0498.0625-.0351.0752m4.0351-20.60061c-.40619-3.98829-1.4463-7.55959-3.3799-10.10059a5.41432,5.41432,0,0,0-1.0849-1.1641,2.43071,2.43071,0,0,0-1.6231-.6631c-1.7324.2383-3.4297.4639-5.07029.8243,1.916,1.6699,2.94339,4.2314,3.67089,7.1152a39.31941,39.31941,0,0,1,1.0049,9.7939c2.15921-.0273,4.3584,0,6.5029-.04a34.31106,34.31106,0,0,0,.0147-5.4795c-1.9805-.0097-4.0703-.0273-6.0781-.0273-.127,0-.3106.042-.3448-.0674,2.0772-.1065,4.2491-.1318,6.3877-.19141m11.7725,19.667a3.49153,3.49153,0,0,0,2.0674-1.43459,10.54661,10.54661,0,0,0,1.2285-1.8262,1.65443,1.65443,0,0,1,.1562-.2783c.0694-.0723.11921-.042.1787-.1015a3.892,3.892,0,0,0,.3448-.7549,26.86129,26.86129,0,0,0,1.7373-5.9942,34.24108,34.24108,0,0,0,.4365-8.2217,25.91968,25.91968,0,0,0-1.5088-7.3291,13.77675,13.77675,0,0,0-1.4639-2.956,8.82046,8.82046,0,0,0-1.4921-1.81451,2.755,2.755,0,0,0-.6455-.45889c-.2276-.08011-.5206-.1143-.7764-.1739-.2735-.0498-.5557-.0898-.7988-.1445-.0049,0-.0108,0-.0108.0127.0254,0,.0108.0225.0303.0273a18.60512,18.60512,0,0,1,3.0478,6.8399A40.771,40.771,0,0,1,338.8018,52.801a30.87774,30.87774,0,0,1-.83111,6.5918,18.65239,18.65239,0,0,1-2.83489,6.7383c-.03911.0693-.11431.15139-.07131.15139m2.8467-30.711a9.69448,9.69448,0,0,1,1.0293,1.63581,25.63,25.63,0,0,1,2.0205,5.7676,38.93121,38.93121,0,0,1,1.0849,9.2724c1.377,0,2.7471,0,4.0723.042a29.92682,29.92682,0,0,0-.0645-5.3877c-1.3867.0371-2.8261.0967-4.207.0791.0127-.0967-.0215-.2334.0127-.3056,1.4102.0273,2.7822.0722,4.1699.1269-.4619-3.4941-1.4121-6.5791-3.2021-8.7588a4.47265,4.47265,0,0,0-2.3428-1.665c-.0273-.0449-.0547-.05471-.1289-.0918a8.69573,8.69573,0,0,0-1.1934-.375c-.4072-.127-.8369-.2334-1.2314-.3545-.0098.0098-.0195.0098-.0195.01459m-28.8526,29.708c.3477.085.7764.19931,1.1563.30081a1.87514,1.87514,0,0,0,.3945.1045,1.84022,1.84022,0,0,0,.4277-.2138,4.44744,4.44744,0,0,0,1.0645-.8536,13.74422,13.74422,0,0,0,2.6875-5.04591,33.85892,33.85892,0,0,0,1.1768-13.76749,21.45892,21.45892,0,0,0-.9014-4.2383,10.85715,10.85715,0,0,0-2.8633-4.8428,3.48037,3.48037,0,0,0-1.7451-.8486c-.0127-.0049-.0352.0127-.0596.0195-.4424.124-.97069.2266-1.3974.34769,1.7793,1.33491,2.7148,3.59371,3.4199,6.04591a34.04876,34.04876,0,0,1,1.0254,10.7295,29.43351,29.43351,0,0,1-.958,6.1621c-.67,2.5244-1.6807,4.7461-3.4278,6.10049m4.0235-6.41989c.0175-.0449.1113-.0107.1689-.0224-.0058.0791-.0869.0117-.1689.0224m-9.28029,3.8643a6.07261,6.07261,0,0,0,1.18649,1.5781,2.822,2.822,0,0,0,1.9336.8516,2.6758,2.6758,0,0,0,1.6358-.626,9.13287,9.13287,0,0,0,2.5683-4.2764,27.42686,27.42686,0,0,0,1.3233-7.7949,29.077,29.077,0,0,0-1.7129-11.9062,15.35476,15.35476,0,0,0-.7344-1.5362,6.24837,6.24837,0,0,0-.9854-1.3056c-.0595-.05181-.13379-.084-.21579-.1436a2.81985,2.81985,0,0,0-2.06541-.82421,3.03486,3.03486,0,0,0-1.93359,1.04,7.40627,7.40627,0,0,0-.93751,1.23341c-.0723.126-.1738.4238-.2803.4619a4.9814,4.9814,0,0,1-.6064-.0478c-2.874-.2403-5.6084-.4092-8.5371-.5928a2.307,2.307,0,0,0-.6358-.0273c-.0176,0-.0078.0127.0176.0127,3.4121.2724,6.43551.4463,9.7021.8281a23.5883,23.5883,0,0,0-2.1152,8.4121c-2.5117-.1787-5.043-.3281-7.6045-.4648-.0176,0-.0078.0224.0176.01749,2.5488.19631,5.1328.34961,7.5869.65041a35.09881,35.09881,0,0,0,.4199,8.6572c-2.6464-.1914-5.3584-.4072-8.0371-.499,2.7383.1787,5.4502.3916,8.0889.6778.042.3525.1318.6572.1934.9853.2138.02929.4746.0195.68551.0391a32.2016,32.2016,0,0,1-.77731-5.7354,29.79619,29.79619,0,0,1,.3925-6.0537,17.56683,17.56683,0,0,1,2.5537-7.2295,2.895,2.895,0,0,1,1.8067-1.4443,1.8934,1.8934,0,0,1,1.6406.7099,21.51193,21.51193,0,0,0-2.5664,9.1534,34.19187,34.19187,0,0,0,.6533,10.7812c1.293.0967,2.6475.1192,3.9336.22559a6.69417,6.69417,0,0,1-.2334,2.61131c-.9082.1436-1.7724.3272-2.69329.4658a9.27774,9.27774,0,0,0,1.08789,2.0831,2.07041,2.07041,0,0,1-2.3184.6455,3.51633,3.51633,0,0,1-1.335-1.1368c-.0869-.1123-.27049-.4394-.3603-.4765-.208-.0723-.53619.05959-.74219,0m2.73729-18.4356c1.1992-.4843,3.1523-.333,4.7305-.3232.1298.4121.249.8535.3554,1.291-.9131-.0478-1.8388-.1787-2.7148-.3135a5.62227,5.62227,0,0,1-2.3711-.6543m3.2588,5.8916c.7422.01759,1.46191.084,2.1025.1612-.0595.4218-.0947.8535-.1435,1.2705a23.44517,23.44517,0,0,1-2.8965-.4112,6.7666,6.7666,0,0,1-2.5117-.7822,9.02322,9.02322,0,0,1,3.4492-.2383m-1.3916,5.8819a23.03363,23.03363,0,0,1,3.3672.3603c-.0391.3399-.13869.6182-.1983.94339a24.48669,24.48669,0,0,1-4.2636-.53909,1.69185,1.69185,0,0,1-1.0127-.5381,3.63216,3.63216,0,0,1,2.1074-.2265m18.666-9.0811a39.85534,39.85534,0,0,1,.3281,5.4004c3.499-.0791,7.0879-.0918,10.6201-.1338a40.752,40.752,0,0,0,.02931-5.21681c-3.64351.07721-7.39161.08211-10.97751-.04979m18.9814,5.5225c-1.3105.1562-2.6601.2754-4.0078.4072a30.45838,30.45838,0,0,1-.4863,4.7529c1.2481-.1093,2.4961-.2109,3.7295-.3359a29.56265,29.56265,0,0,0,.7852-4.5361c.0068-.1045.0712-.2637-.0206-.2881m-29.2441.5137a32.42962,32.42962,0,0,1-.7666,5.75c2.0791-.10841,4.1543-.2227,6.2471-.31741a36.274,36.274,0,0,0,.9179-4.98149c-2.2109-.081-4.3164-.25-6.3984-.4511m21.0859.1914c-3.4023.2128-6.8916.3271-10.5253.2998a30.68685,30.68685,0,0,1-.5118,4.77539c3.4551-.07229,6.9502-.09669,10.2735-.293.2627-1.11719.4883-2.336.6552-3.55859a11.06663,11.06663,0,0,0,.1436-1.1045c0-.0254.0352-.1143-.0352-.1191m-32.7138,3.1865c-.37989.0322-.8184,0-1.1934.042.0449.6035.10451,1.1933.1611,1.7695.335,0,.6377.0225.9502.04.0127-.6211.11921-1.3007.0821-1.8515m39.914,1.583c-1.2285.2285-2.4716.4248-3.7353.6162a25.28869,25.28869,0,0,1-1.0225,3.3301c-.0547.1689-.1582.3008-.1484.4297,1.1465-.15431,2.2656-.333,3.4248-.4668a18.43,18.43,0,0,0,1.499-3.9092h-.0176m-41.8623.8164a2.9226,2.9226,0,0,1,.0352,2.19729c2.2187-.37989,4.4277-.78709,6.65921-1.15729-.01081-.25.01169-.459.01169-.6923-2.2432-.10941-4.4746-.2403-6.7061-.3477m-.7539.085c-.22169.082-.3955.6699-.3574,1.1562.01171.2656.13571.95609.3574.9453.1065-.0068.2178-.2871.2627-.3945.1758-.5361.0772-1.5059-.2627-1.707m33.03131,4.1074a19.36675,19.36675,0,0,0,1.05949-2.8223,7.0868,7.0868,0,0,0,.2383-.8906c.0225-.11921.0078-.07721-.08879-.0596-1.55861.2139-3.24121.3526-4.962.4815a46.154,46.154,0,0,1-5.24411.1513,25.54914,25.54914,0,0,1-1.2881,3.8194,82.42949,82.42949,0,0,0,10.28521-.6797m-19.57521-3.7598c-.0069-.02731-.0215.0049-.0117.0322a18.69025,18.69025,0,0,1-1.6036,4.1641c-.0419.082-.1171.1836-.0917.2432,2.0429.0254,4.0996.0254,6.1376,0a20.12613,20.12613,0,0,0,1.60061-4.0274c-2.05471-.0976-4.06051-.2236-6.03121-.4121m-10.9971,2.13669c-.2256.03421-.4541.07231-.6894.11431a5.77416,5.77416,0,0,1-.0205.6025h.7099a3.12932,3.12932,0,0,0,0-.71681m-1.3721.23051c-.0947.0322-.2285.0322-.3105.0674a2.779,2.779,0,0,0,.3281.668,2.36445,2.36445,0,0,0-.0176-.7354m36.084,2.2764c-.1064.0117-.2031.0244-.3095.03709a10.01437,10.01437,0,0,1-2.3282,2.876c-.9902.77731-2.5097.92091-3.9414,1.29591a24.39646,24.39646,0,0,1-.8144,2.705c1.914.3994,3.8945.8018,5.7802,1.1866-.1259-.4219-.0595-1.0918-.4072-1.2803a3.71063,3.71063,0,0,0-.833-.1641c-.8389-.16111-1.7754-.3398-2.5439-.4844a2.44665,2.44665,0,0,1,1.8632-1.3896,2.3724,2.3724,0,0,1,2.3135,1.4101,6.64157,6.64157,0,0,1,.8262,2.5293c.66991.1856,1.3008.4014,1.958.5928a79.59361,79.59361,0,0,1-1.49409-9.0342c-.00491-.1015,0-.24311-.06941-.2802m-5.05559.8066a49.31546,49.31546,0,0,1-10.19831.6328,10.75175,10.75175,0,0,1-1.5234,2.0049c-.0469.043-.1065.0801-.0469.1025a2.90146,2.90146,0,0,0,.6553,0,83.36268,83.36268,0,0,0,9.2451-.6679,6.55794,6.55794,0,0,0,1.86821-2.0723m-20.25981.3047a7.43332,7.43332,0,0,1-1.0371,1.38479,2.73692,2.73692,0,0,1-1.5537.81251,14.24994,14.24994,0,0,1-2.94339-.35751c-.39941,1.53321-.86421,3.01471-1.37011,4.44731.6182.1191,1.2412.2432,1.8564.377.4639-.8135.9873-1.7442,2.1836-1.73931a2.15651,2.15651,0,0,1,1.6983.90331,4.91206,4.91206,0,0,1,.834,1.7822c.6875.1387,1.4023.3174,2.0839.4063a79.64349,79.64349,0,0,1-1.332-8.0166h-.4199m1.3135.0107c-.0254,0-.0108.03709,0,.03709a76.49466,76.49466,0,0,0,1.7197,8.26181c.4189.0595.8135.15619,1.2187.23819-.5488-2.75679-.9433-5.68349-1.3974-8.53709h-1.541m2.75,0c.0439.37209.0986.7412.1758,1.0987a7.36479,7.36479,0,0,0,.8886-1.0274c-.3554-.0224-.7099-.0468-1.0644-.0713m-24.6065.2373c5.1631.30079,10.1563.8614,14.9912,1.4346-.333-.1016-.5605-.3096-.8838-.3945a8.53891,8.53891,0,0,0-.8535-.0889c-4.3232-.4121-8.8652-.73441-13.2539-.9512m38.2246,4.38579c-1.63379-.31249-3.3779-.60259-5.041-.88279a3.7081,3.7081,0,0,0-.7646-.1094c-1.3994.124-2.9463.0498-4.4248.0596,3.3925.5781,6.6884,1.2558,9.9824,1.9209.0713-.3448.15621-.6729.248-.98831M283.521,100.70923c-.0175,0-.0175.0244-.0175.042v8.1504h1.2656v-8.1924H283.521m-3.6709,9.8506c.1465,2.0654.3203,4.2139.4991,6.30369h7.4643c.2061-2.09959.4297-4.18939.6201-6.30369h-8.5835m42.229,39.2461c-5.44529,2.1152-11.8339,3.2861-18.5127,4.1651a24.14536,24.14536,0,0,1-1.291,4.8916,97.56832,97.56832,0,0,0,16.81741-3.3575,17.97959,17.97959,0,0,0,2.13479-.7519c.2929-1.624.5927-3.3311.8515-4.9473m-78.2192.2705c-.0176.0078.0098.0205,0,.0498.3623,1.6709.7393,3.3389,1.1045,5.0186,7.2295,1.6972,14.4521,3.3955,22.126,4.6465a15.51414,15.51414,0,0,1-1.8389-5.2647c-3.6953-.5752-7.2676-1.3379-10.8115-2.0996q-5.32035-1.1235-10.5801-2.3506m40.8867,3.2793c-.4267.1309-.8262.2656-1.2431.4072.0126,4.335-.0245,8.7159.0175,13.0245.3994-.0196.836-.0098,1.2481-.0245v-13.4072h-.0225m-4.5312,1.6055c-.2237.0918-.4327.1836-.6631.2578-.4668,3.73049-.9756,7.4209-1.4346,11.1543.2158.03419.4297.0693.6328.1191q.734-5.77875,1.499-11.5312h-.0341m-3.76759,1.57129c-.24121.11421-.47951.22851-.73051.32221-.6152,2.7002-1.2451,5.3955-1.8633,8.0987.1954.0869.3819.1982.5977.2705.6504-2.8985,1.373-5.8125,1.99611-8.69141M284.28759,3.17513c-1.0302.0498-2.0674,0-3.082.0498-1.0283.0468-2.041.0595-3.05079.09859a277.61788,277.61788,0,0,0-39.40531,4.73631c-7.0185,1.34769-13.88669,2.9258-20.6269,4.59869-3.3555.83591-6.6172,1.71481-9.8926,2.708-2.418.72651-4.7881,1.51661-7.1933,2.26361-.7168.2227-1.462.4063-2.1612.6446-.0254.00479,0,100.6836,0,100.6836a84.04067,84.04067,0,0,0,4.6114,22.8388c.8115,2.27639,1.6572,4.4678,2.5634,6.5918a99.83559,99.83559,0,0,0,4.5469,9.1807,124.40192,124.40192,0,0,0,13.043,18.9892,188.8464,188.8464,0,0,0,38.5342,34.7344c3.5908,2.4844,7.2685,4.8994,11.1113,7.1875,1.8906,1.13479,3.8144,2.2637,5.8252,3.333,1.70991.919,3.5215,1.8242,5.2588,2.7451.1933.1094.3818.2911.5732.2315a.65372.65372,0,0,0,.1816-.1123c1.982-1.0742,3.9771-2.1192,5.9351-3.2119,1.94821-1.0869,3.86721-2.2305,5.74321-3.3994q8.455-5.28675,16.28119-11.1788c5.25-3.94141,10.2529-8.0419,15.0752-12.4043a169.07616,169.07616,0,0,0,17.9151-18.70111,118.68857,118.68857,0,0,0,17.56151-28.20509,93.18493,93.18493,0,0,0,4.69329-13.626,77.19309,77.19309,0,0,0,2.6504-15.8916V17.67213c-3.1045-1.01561-6.2343-2.0185-9.3418-2.9638-6.5615-1.9581-13.3222-3.6309-20.2695-5.1329-3.48239-.7587-7.0039-1.4736-10.5908-2.1113-7.1475-1.2734-14.5088-2.4375-22.2422-3.1553-6.69139-.6201-13.7256-1.1464-21.0713-1.1464-1.0557,0-2.1265-.0372-3.1763.0127m63.6978,12.8359c6.2939,1.581,12.3467,3.4756,18.2588,5.3916.0127.0166.0127.0244-.0176.0244-5.8691-2.0254-12.0967-3.4941-18.458-5.0088-6.3486-1.5058-12.918-2.7129-19.6162-3.84671-6.72659-1.14639-13.5791-2.00579-20.7764-2.68059-5.3193-.4961-10.916-.836-16.65919-.9502a209.21586,209.21586,0,0,0-27.895,1.33979c-7.02641.79691-13.75781,1.80181-20.40621,3.04591a304.22543,304.22543,0,0,0-37.5635,9.3838v90.0234c0,2.1377-.03029,4.21489.1162,6.2452a83.89581,83.89581,0,0,0,6.041,26.0898,103.659,103.659,0,0,0,8.7412,16.9707,139.41584,139.41584,0,0,0,23.6299,27.7676,156.8985,156.8985,0,0,1-24.4492-27.7949,103.17245,103.17245,0,0,1-9.294-16.8369,82.92637,82.92637,0,0,1-5.9121-20.2129,79.85774,79.85774,0,0,1-.7646-12.2286V21.30013c6.0635-2.0049,12.4892-3.7247,19.0166-5.3008a319.57062,319.57062,0,0,1,40.84471-7.1826c3.63089-.3995,7.31929-.6807,11.09379-.9141,1.874-.1309,3.79-.1904,5.7314-.2725,1.4316-.0742,2.8936-.0547,4.38281-.122.51369-.0293,1.06249.0078,1.53809-.01661.9702-.04009,1.9605.01661,2.94091.01661,2.92289,0,5.80759.122,8.59179.288a253.39681,253.39681,0,0,1,41.3565,5.9219c3.2285.72949,6.3935,1.5069,9.5283,2.293m-61.5791-2.10651c-.0127-.03019-.0127-.04189.0127-.04779,7.1074.0352,13.8857.3525,20.4062,1.0381,6.51961.6875,12.8067,1.4638,18.9141,2.539a294.18841,294.18841,0,0,1,34.7842,8.1006c0,.0098.0244.0176.0244.0303-.0293,2.1709-.03909,4.3652-.0645,6.5439a1.45273,1.45273,0,0,1-.4609-.1084c-4.8672-1.38471-9.8984-2.5869-15.0156-3.76071-5.2647-1.22359-10.6944-2.28509-16.21-3.22359a311.80748,311.80748,0,0,0-35.0049-3.8096,266.54492,266.54492,0,0,1,34.9629,4.78219,306.6345,306.6345,0,0,1,31.709,8.03421c0,2.3057-.0244,4.5986-.0498,6.8926q-8.25735-2.32035-16.90429-4.2695c.37009.2685.75.4921,1.11429.7568a3.3115,3.3115,0,0,1,.8886,1.1894c5.0762,1.295,10.045,2.68749,14.8838,4.2139.0059.0127.0176.0127.0176.0254-.0342,2.2686-.0176,4.57419-.0342,6.8477a.74358.74358,0,0,1-.373-.0772c-3.8867-1.1094-7.95709-2.125-12.0342-3.0752a21.24441,21.24441,0,0,0-1.4541-5.4258c-.7051-1.5781-1.5293-3.082-3.1797-3.7148a20.56175,20.56175,0,0,1,2.54391,6.1494,36.69258,36.69258,0,0,1,1.12409,7.583,22.51055,22.51055,0,0,1-1.0098,7.66409,19.00182,19.00182,0,0,1-1.2539,3.10451,7.76249,7.76249,0,0,1-1.3447,1.9111,6.03975,6.03975,0,0,0-.51169.5439c5.93449,1.4766,11.78709,3.06449,17.41109,4.8418.0098,2.3233-.0147,4.6114-.0147,6.9151-5.4931-1.5645-11.1513-2.9492-16.9248-4.2168a5.69086,5.69086,0,0,1-.2129-1.0723c-.4052-2.3154-.75-4.7949-1.0703-7.1777-.5312.0342-1.1416.1191-1.7021.166a71.52678,71.52678,0,0,0,2.1914,9.6123c0,.0127,0,.0127.0049.0127a5.51431,5.51431,0,0,1,.625-.085,1.49549,1.49549,0,0,1,.581.0205c5.5967,1.4141,11.1338,2.9307,16.4727,4.6016.01271.0244.0498.0117.0351.0664,0,2.2861-.02239,4.5567-.0156,6.8604q-11.3466-3.17145-23.4414-5.5674a304.02572,304.02572,0,0,0-43.0342-5.3135,270.78827,270.78827,0,0,1,34.8535,4.7725,305.34548,305.34548,0,0,1,31.6221,8.0068c.0049,1.8272-.0244,3.6289-.0195,5.4678a341.52288,341.52288,0,0,0-34.90329-7.3535,264.35287,264.35287,0,0,0-38.91411-3.3311c-.0166,0-.0244,0-.0244-.0127V13.90452m-20.1001,25.49911c.38961-.6797.7969-1.3604,1.167-2.0655-5.06839,1.5762-10.0996,3.1748-15.1602,4.7413-1.1758-2.961-2.3701-5.8877-3.5469-8.83891a258.42214,258.42214,0,0,1,26.711-3.23629c-9.2578.539-18.3467,1.375-26.98629,2.56929-.68951-1.73729-1.39751-3.47459-2.08991-5.21679-.7988,1.92579-1.5264,3.916-2.2978,5.8721a317.41137,317.41137,0,0,0-34.5362,7.4951v-6.9102c0-.0166,0-.0293.0108-.03421,5.0009-1.55169,10.1259-2.97849,15.3379-4.28119a286.00419,286.00419,0,0,1,50.5615-8.2822,301.36632,301.36632,0,0,0-65.9102,10.6943c0-1.9062.0225-3.79.0108-5.7012a1.38451,1.38451,0,0,1,.4883-.17871c5.2597-1.60059,10.7587-3.04489,16.29881-4.34279,5.75579-1.3427,11.625-2.5966,17.65619-3.6679a253.12139,253.12139,0,0,1,38.502-4.11531V81.58333a274.08155,274.08155,0,0,0-38.3574,3.4824c-12.045,1.9111-23.50879,4.3457-34.6475,7.2002V86.61652a318.22487,318.22487,0,0,1,34.1504-8.44049c3.7012-.7226,7.5107-1.373,11.3926-1.9336a4.93939,4.93939,0,0,1,.76171-.1093c.01269,0,.02439-.0098.03709-.0098.0645.0098.2334.1865.3223.2734.3232.2852.6552.585.9482.8604a15.805,15.805,0,0,0,1.2637,1.1152c-.0869-.8545-.1465-1.7256-.211-2.5791,5.5938-.7568,11.3223-1.3779,17.294-1.7676-5.8379.34089-11.6572.8448-17.3242,1.4024-.2207-2.7793-.4493-5.56451-.67-8.3389,5.8155-.80661,11.7764-1.47461,17.9942-1.8594-6.11329.3135-12.1416.8497-18.03129,1.4473-.10451-1.3603-.20111-2.7471-.32711-4.0996,5.1767-.8818,10.4609-1.6563,15.6699-2.5147-1.4043-1.03021-3.0449-2.0478-4.4746-3.0703,2.3652-.21291,4.7402-.41891,7.1631-.5703-2.3955.1162-4.917.2705-7.2227.4512a.80784.80784,0,0,0-.084.0176,2.04926,2.04926,0,0,1-.5488-.3526c-2.6387-1.8213-5.3213-3.5683-7.96479-5.3711.38769-.7168.79979-1.4218,1.207-2.1318,4.74019-.6055,9.61229-1.0918,14.61329-1.42191-4.8477.25591-9.6944.63771-14.4004,1.08691a.59866.59866,0,0,1,.11911-.2705c1.64849-2.9257,3.34379-5.89941,5.00389-8.8232,3.045-.3096,6.125-.5977,9.2774-.7861-3.0576.124-6.126.37889-9.1582.6074-.0322.0097-.0322.0097-.0127-.0244m-24.6133,4.1474c1.46191-3.7881,2.9316-7.5576,4.3857-11.3496.0967,6.49709.11921,13.0772.1788,19.6094,0,.0596-.0147,0-.0274-.0254q-2.26755-4.10895-4.5371-8.2344m1.9658-9.1611c-1.00489,2.584-2.0322,5.2295-3.0058,7.7607-4.7178-1.40911-9.45609-2.8066-14.1446-4.2509,4.8379-1.1944,9.8936-2.3057,14.9493-3.2959.7343-.1494,1.457-.2686,2.1865-.4297.1806-.0371.0469.1142.0146.2158m-34.0918,8.2002c5.2276-1.64061,10.6748-3.1397,16.1524-4.4775,1.2656,2.1972,2.5937,4.41789,3.8349,6.58689-6.8427,1.42481-13.5517,3.00391-19.9873,4.82811-.0342-2.2666-.0342-4.66111,0-6.9375m42.4834,1.1963q5.61765-1.79445,11.2481-3.5713c-5.1778,3.9062-10.4834,7.8203-15.6885,11.7617,1.4443-2.7099,2.96091-5.4678,4.4404-8.1904m-16.875,7.5928c-2.0996-3.4356-4.1416-6.9375-6.2314-10.38771,0-.01179.0117-.01179.0117,0,5.4453,3.85931,10.9854,7.80861,16.3838,11.64251-3.4033-.4013-6.76859-.8359-10.1641-1.2548m-25.6279.02629c6.64941-2.08879,13.5811-3.90619,20.64941-5.584,1.09669,1.79691,2.13969,3.67391,3.22659,5.48541-.6699.51559-1.4102.9824-2.1299,1.4941a3.58539,3.58539,0,0,1-.7022.4834.07027.07027,0,0,0-.0293.0176c-.4345.1191-.90819.1738-1.3554.2656-6.6739,1.42-13.375,2.9883-19.6592,4.75V51.40552m156.3618,5.002c0-3.12309.14161-6.26959.14161-9.40919.01469,7.3789.17579,14.8291.17579,22.2578,0,2.124.0127,4.2217.0547,6.3633.0351,1.04.0693,2.1025.0693,3.1426,0,2.0996.11921,4.2011.11921,6.291,0,1.04.01069,2.10249.05949,3.1474.0869,2.0899.0498,4.1797.1319,6.2862.0468,1.0527.0351,2.1152.0468,3.1523.0127,3.1348.1192,6.3418.1192,9.5235,0,3.1689.0722,6.4179-.0166,9.5527-.0547,2.0498-.2315,4.0478-.46,5.94139a74.73046,74.73046,0,0,1-2.1142,10.72171,96.216,96.216,0,0,1-12.087,26.4248,131.82069,131.82069,0,0,1-10.9824,14.7012,163.89808,163.89808,0,0,1-12.5215,13.1484c-2.2011,2.0801-4.457,4.081-6.7998,6.0293-2.333,1.9453-4.7734,3.7842-7.1757,5.6611a194.49074,194.49074,0,0,0,25.7627-25.1738,126.67737,126.67737,0,0,0,10.6347-14.8301,101.53258,101.53258,0,0,0,8.44141-17.01561,81.24047,81.24047,0,0,0,5.02829-20.45609c.1036-.955.1788-1.9336.25-2.9238.2383-2.9629.1885-6.1777.1885-9.36911,0-3.13479.0996-6.29889.0996-9.43849,0-3.1104.1494-6.2344.1817-9.3643.0322-2.0771.1484-4.15521.1484-6.2119,0-1.04.0791-2.0752.0791-3.11231,0-1.03319.0332-2.07809.0801-3.10549.082-2.0771.0644-4.1669.1162-6.249.0723-3.1347.0596-6.2822.11911-9.4238.04979-2.0781.10939-4.1553.10939-6.26171m-17.7529-8.28519c0-.0244-.0049-.0371.0224-.0371,4.1299,1.0996,8.2149,2.2559,12.2012,3.5147-.0224,2.288-.03709,4.5937-.03709,6.9023-4.05371-1.1523-8.21581-2.2021-12.42771-3.1924a30.38807,30.38807,0,0,0,.2412-7.1875m-80.3091,10.4336q-9.728-2.66461-19.5049-5.291c2.9629-.375,6.0362-.7022,9.0811-1.0576a4.93031,4.93031,0,0,1,.583-.0694,2.10668,2.10668,0,0,1,.6435.3995c3.0498,2.038,6.1651,3.9765,9.2227,5.99409.0117.00981,0,.02441-.0254.02441m-31.4385,2.7305c-3.7793-.4844-7.6113-.96291-11.4043-1.4395,6.7461-2.0322,13.5391-4.0009,20.3047-6.0058.0176-.0157.042-.0078.0176,0-2.5088,2.375-5.08589,4.69039-7.62989,7.0908-.13571.126-.41891.4365-.52341.456a5.74693,5.74693,0,0,1-.7647-.1015m20.0645,12.375c-2.9658-6.3467-5.8926-12.7295-8.8535-19.0733,1.8935,1.7471,3.75,3.56839,5.65911,5.3877.44929.4444.93559.8741,1.41219,1.3506.1484.1436.4169.3496.4589.4688a4.95549,4.95549,0,0,1,.0948.73729c.41211,3.70021.7988,7.458,1.2285,11.12891m-19.0039.6826c.0117.0293-.0576.0293-.0127.0098,2.916-6.5821,5.8896-13.1221,8.8008-19.7061.0371,3.4717.0498,7.0137.0498,10.582a3.97136,3.97136,0,0,1,0,.708c-.0352.1661-.3702.417-.52639.5655-2.82911,2.5859-5.50491,5.2617-8.31151,7.8408m-9.6104-19.1533c-2.4844,1.7304-4.99309,3.457-7.4853,5.2002,3.5908.5302,7.1855,1.0664,10.7939,1.5683-7.4033,1.541-14.6582,3.211-21.6396,5.1768v-6.9316c5.9111-1.8614,12.0498-3.4874,18.3017-5.0137h.0293m119.7583,1.6035c0-.01471,0-.0322.0205-.04q6.48495,1.683,12.6895,3.6367c.0049,2.3105-.0293,4.5908-.0195,6.9072-5.0977-1.457-10.3721-2.7451-15.7305-3.9512-.0195-.0273.05961-.0849.1113-.1318a8.64792,8.64792,0,0,0,1.7705-2.7647,19.07875,19.07875,0,0,0,1.1582-3.6562m-113.1313,5.6562c.5361.0352,1.0996.1915,1.6006.2383q-.2154,3.61815-.4786,7.21779c-8.99209,1.71481-17.7187,3.69041-26.08,6.03031v-6.9366c7.9345-2.497,16.375-4.6064,24.8984-6.5273.02251-.0098.0273-.0225.0596-.0225m12.1191,5.2715c0-.0127.0596-.0449.0547-.0175,2.8662,2.6386,5.8076,5.2548,8.66111,7.9277.045.02439.12209.0342.09769.0967a302.55451,302.55451,0,0,0-45.8906,9.0019V77.843a1.13571,1.13571,0,0,1,.3574-.1513c8.2099-2.53621,16.8271-4.7325,25.6406-6.669-.11909,2.4775-.3252,4.9961-.4922,7.4883.08211.0098.1416-.084.1865-.1191,3.8077-3.5,7.5752-7.1631,11.3848-10.67m105.6734,44.4043c-.0645-.0156-.087-.05471-.14159-.0752,2.71279.7149,5.43839,1.5537,8.09859,2.3907a60.22,60.22,0,0,1-.3799,6.7802,1.80233,1.80233,0,0,1-.4609-.0986c-7.6797-2.1445-15.7207-3.9619-23.9307-5.6025-2.0947-.4239-4.2197-.8008-6.374-1.1612-.71-.124-1.4395-.1982-2.1446-.3594a1.94025,1.94025,0,0,1-.60249-.3652c-.57811-.3896-1.17671-.76951-1.71291-1.1787.7617-1.3252,1.5147-2.67281,2.2715-4.00881-1.4795.44731-2.9287.919-4.4053,1.37311-.6181-1.3926-1.1494-2.8672-1.75-4.28911-.57129,1.43161-1.1191,2.87891-1.6679,4.32321-1.4795-.44621-2.958-.8886-4.44539-1.333.72759,1.3233,1.59089,2.7012,2.31839,4.0137-7.458-.8887-15.2363-1.5937-23.1592-2.0478,7.7666.539,15.21981,1.3974,22.4024,2.5273.039.0469-.0801.10159-.14159.1357-.82131.5811-1.69241,1.1944-2.52931,1.7676a1.25854,1.25854,0,0,0-.3545.2627c1.5361.209,3.0254.4541,4.5586.6582-.0762,1.5508-.1983,3.06739-.3047,4.6016.0644.0273.1514-.0899.2158-.1494,1.0576-.96781,2.11911-2.0176,3.20611-2.9707.97549.9033,1.97549,1.8242,2.98629,2.7255a1.69856,1.69856,0,0,0,.417.3575c-.1221-1.5244-.2529-3.0479-.3604-4.5899,1.0284-.1787,2.0977-.3349,3.167-.5039a5.61951,5.61951,0,0,1,1.0498-.166c.0098,0,.0254-.0049.0352,0,.6924.09669,1.375.2705,2.0644.4072,10.1338,2.0352,20.1143,4.6582,29.4112,7.5049.0224-.0049.0293,0,.0293.0049-.3125,2.2939-.709,4.4902-1.211,6.5996-6.4726-1.7842-13.1709-3.3525-20.039-4.748.6006-.335,1.2314-.6446,1.8388-.9727.792.4121,1.5743.832,2.3731,1.2363-.124-.7597-.2451-1.4814-.377-2.2441a.919.919,0,0,1-.0595-.3545c.0293-.1494.3252-.3623.46681-.4941.34469-.3155.64249-.6329.96769-.9551a1.97124,1.97124,0,0,0,.4395-.4649c-.8838-.0966-1.7207-.2597-2.6016-.3593-.4121-.7871-.7861-1.6006-1.1914-2.4004-.4336.7744-.78119,1.6357-1.2207,2.4004-.8838.0996-1.708.2529-2.5791.3593-.0195.0703.1045.1641.18161.2491.55379.5156,1.14359,1.0986,1.68459,1.6347-.1113.7549-.248,1.4873-.3721,2.23439,0,.02441-.0146.02931-.0146.03421a285.43251,285.43251,0,0,0-31.4756-4.6065,32.64046,32.64046,0,0,0-2.7226-3.8691c-.0889-.0342.0966-.05961,0-.0938-.1485.0098-.1436-.1347-.251-.1464a3.92281,3.92281,0,0,0-.72169.0937,98.414,98.414,0,0,0-9.93071,2.1152c-3.415.8809-6.7407,1.8633-9.978,2.8838q-9.8247,3.11865-19.0937,6.6094a19.37834,19.37834,0,0,1,2.8369.8828c-9.5899.7998-18.7657,1.9238-27.5713,3.4903-8.8135,1.5683-17.28419,3.4121-25.5049,5.5488-.69429-2.1016-1.36229-4.2266-1.8887-6.48241,9.7569-2.91409,19.8457-5.41019,30.4258-7.47559a264.28073,264.28073,0,0,1,33.4219-4.4649,304.17975,304.17975,0,0,0-64.2539,10.2334,65.49782,65.49782,0,0,1-1.1319-6.62691,318.11376,318.11376,0,0,1,31.1231-7.77829,263.75343,263.75343,0,0,1,34.2627-4.629,302.53253,302.53253,0,0,0-34.3867,3.7159c-5.43359.9472-10.7491,1.9677-15.9444,3.122-5.2041,1.1436-10.3047,2.3897-15.28319,3.7852-.20411-2.1992-.33981-4.4482-.34471-6.8379a318.11463,318.11463,0,0,1,31.3779-7.9053,269.15239,269.15239,0,0,1,34.5811-4.6904c-7.5625.42679-14.9141,1.042-22.02929,1.9131a306.06647,306.06647,0,0,0-43.92971,8.8086v-6.9317a313.72581,313.72581,0,0,1,31.3936-7.9003,265.23653,265.23653,0,0,1,34.5654-4.6856c-6.0391.3369-11.9629.7988-17.7305,1.4219-5.7734.626-11.3974,1.34279-16.8506,2.3203-2.7343.4922-5.4297.98049-8.1006,1.4922-8.0068,1.5439-15.7548,3.417-23.2773,5.4746v-6.8154a349.14471,349.14471,0,0,1,54.832-9.7168c6.5899-.6123,13.4151-.9952,20.5088-.9952a259.77991,259.77991,0,0,1,39.7808,3.2422,343.73806,343.73806,0,0,1,35.584,7.4356c.0195,0,.0244,0,.0244.0224v6.9834c-7.2227-2.0693-14.7598-3.8066-22.4717-5.39251-.0244-.05959.0352-.12889.0596-.17879.2412-.40421.5146-.8759.7402-1.3056-1.0498.3056-2.06539.65039-3.1123.9599-.3994-1.0019-.792-2.0224-1.2109-3.0146-.3575.8809-.6983,1.78609-1.045,2.6699a304.45019,304.45019,0,0,0-39.416-4.6162,276.49738,276.49738,0,0,1,36.792,5.1397c.333.5742.6602,1.1494.9932,1.708-.8643.6582-1.7949,1.2431-2.6631,1.88669,1.0742.14841,2.1396.31251,3.21871.46581-.08391,1.0674-.13671,2.167-.23041,3.2217.0713.0371.1191-.0449.1582-.0791.7178-.6953,1.5117-1.4102,2.2265-2.1045.6231.5283,1.2188,1.1113,1.8291,1.66209a6.955,6.955,0,0,0,.60361.51171c-.087-1.0693-.18851-2.1494-.25881-3.2412,1.0752-.1611,2.1299-.3428,3.1992-.5019a.96386.96386,0,0,0-.3193-.2403c-.6582-.4472-1.375-.9228-2.0508-1.3779a1.103,1.103,0,0,1-.293-.25.83.83,0,0,0,.0996-.19141,2.26892,2.26892,0,0,1,.7393.11911c7.667,1.75,15.1992,3.7852,22.3994,6.0186v6.9199c-3.3877-.9609-6.85259-1.8564-10.3565-2.6934-.0175-.082.0567-.1855.1143-.2929.3818-.6602.8232-1.3897,1.1807-2.084-1.0498.3096-2.0723.6523-3.1045.96969-.417-1.00489-.8018-2.03219-1.2285-3.00779-.3946,1-.7872,2.0029-1.1719,3.0303-1.0449-.3223-2.07719-.6231-3.1045-.9434.0644.2412.2754.4795.3799.7403a297.53547,297.53547,0,0,0-47.0869-6.461,1.5308,1.5308,0,0,0-.1495-.35741h-7.9638v4.60941c2.6133.042,5.3037.0097,7.9521.0244.3819.6601.7041,1.3955,1.0694,2.0947h5.3955a3.65751,3.65751,0,0,1,.7568,0c.1094.04.2314.375.30081.5313.28029.5605.56829,1.0644.834,1.623.01459,0,.01459.0127.03219.0127,2.1074-.1611,4.207-.333,6.3115-.4893-1.9609-.5263-3.9638-.9921-5.97169-1.4785-.40721-1.1748-.84081-2.3086-1.24611-3.4775H297.0118c-.40731-.99021-.76761-2.0401-1.13681-3.0557,4.3155.3252,8.5625.752,12.71681,1.2959a299.53806,299.53806,0,0,1,29.61919,5.3682c1.6279.3799,3.289.77439,4.9492,1.1787a3.34972,3.34972,0,0,1,.7002.1816c.1582.0948.1728.3155.3027.4639-.8594.66019-1.79,1.24319-2.6631,1.8867,1.084.1582,2.1514.3174,3.2383.4737-.0967,1.0576-.1387,2.1621-.2334,3.2246.0596.0166.1143-.0577.1367-.0977.7295-.6797,1.5245-1.4043,2.2461-2.0918.62111.5215,1.2168,1.1094,1.8242,1.6582a5.70259,5.70259,0,0,0,.6133.5137c-.1045-1.0625-.1982-2.2041-.2627-3.2363,1.0616-.1788,2.1592-.3252,3.2159-.5362m-55.4659,6.3877c2.15431-.6699,4.2989-1.3691,6.4561-2.0449a2.196,2.196,0,0,1-.6406,1.6016,4.13422,4.13422,0,0,1-2.70319,1.0986,5.1009,5.1009,0,0,1-3.11231-.6553m-7.289,2.2315c2.11231-.67191,4.2441-1.3155,6.3515-1.9932.0147-.0146.0147,0,.0196.0127a2.89366,2.89366,0,0,1-2.3955,2.3877,5.85213,5.85213,0,0,1-3.9756-.4072m17.1074-.2334a310.31115,310.31115,0,0,1,51.4082,10.8486q-.87885,3.33255-1.9707,6.4531c-6.3262-1.6328-12.874-3.1797-19.5693-4.4795a4.04822,4.04822,0,0,1-1.2666-.3252c.6328-1.1591,1.288-2.2812,1.9238-3.4257-1.2656.3681-2.4844.7871-3.75,1.15719-.4893-1.21389-.9678-2.42479-1.4717-3.63579-.4814,1.2227-.9531,2.4346-1.417,3.6602-1.2441-.3818-2.5019-.7471-3.7529-1.124.3349.7002.8613,1.4218,1.1933,2.1289-5.7548-.9649-11.6523-1.7744-17.7548-2.3897a30.29209,30.29209,0,0,0-3.5723-8.8681m-24.478,2.3828c2.0654-.6328,4.229-1.1817,6.2837-1.8389.0127,0,.0127.01759.0127.01759a2.88334,2.88334,0,0,1-2.4092,2.21581,5.83031,5.83031,0,0,1-3.8872-.3945m-7.41309,2.1269c2.07029-.6347,4.20209-1.208,6.292-1.8291.01169,0,.01169.0127.01169.0254a3.08582,3.08582,0,0,1-2.8789,2.3028,5.7672,5.7672,0,0,1-3.42479-.4991m-7.416,2.13479c2.07709-.63089,4.20209-1.21089,6.30369-1.83689h.0302a2.93331,2.93331,0,0,1-2.4296,2.2441,5.905,5.905,0,0,1-3.90429-.40721m.17869,1.94821a11.7847,11.7847,0,0,1,6.001,7.8926c-7.1573.4541-14.1563,1.07419-20.9053,1.9229a5.07972,5.07972,0,0,1-.7793-1.6573,2.96093,2.96093,0,0,1,0-2.08c-1.53809.0097-3.0528.04-4.5733.0547.292,1.4248.5879,2.8593.8877,4.2783-.5576.0722-1.0839.1621-1.64249.2265-.30281-1.5517-.63771-3.0683-.93851-4.6093-.4287.0127-.834.0595-1.2627.0693.3096,1.5937.667,3.1494.9726,4.7432-9.915,1.5136-19.3789,3.5146-28.5566,5.7734-.9336-2.085-1.83979-4.1826-2.6143-6.4141a316.9602,316.9602,0,0,1,45.6377-9.6347c2.333-.3028,4.6914-.55571,7.0567-.8311a1.79248,1.79248,0,0,1,.7168.2656m70.96731,6.0977a3.21515,3.21515,0,0,0-.46681-.3301c5.9365,1.3477,11.79881,2.8897,17.4824,4.5244-.8115,2.209-1.7197,4.3243-2.6904,6.3887a298.26759,298.26759,0,0,0-42.4336-7.5791,22.16512,22.16512,0,0,0-.087-8.4414c6.1329.8311,12.167,1.8389,18.0088,3.01559.1495.04011.3623.02251.4297.22851-.084.1436-.2558.2061-.3945.2998-.9131.63769-1.8867,1.3106-2.80759,1.97369,1.28809.19821,2.59369.374,3.88179.57521-.0937,1.291-.1787,2.584-.2627,3.8847a1.86355,1.86355,0,0,0,.3653-.2978c.8183-.7774,1.6777-1.5742,2.5009-2.3535.9785.874,1.92871,1.77539,2.9141,2.6416-.1191-1.3037-.2031-2.61921-.31539-3.9248,1.31829-.1856,2.57129-.4043,3.875-.6055m-64.35011,7.2578a46.853,46.853,0,0,1-3.1055,15.2188,99.24324,99.24324,0,0,1,14.1494-5.73051,34.07418,34.07418,0,0,1,8.3706-1.57909c3.3379-.13091,6.14061.4375,7.55961,2.3682a4.63035,4.63035,0,0,0,.76459-.6602,31.37115,31.37115,0,0,0,4.6045-5.0732.47244.47244,0,0,1,.1533-.1758c3.3975.49609,7.0293,1.0342,10.4668,1.5976a1.45934,1.45934,0,0,1,.3321.043c.05471.0342,0,.06449-.0469.1338-.5762.749-1.1992,1.4941-1.7598,2.2461.6846-.1768,1.36041-.35741,2.0479-.5362.417-.5507.8408-1.0703,1.2627-1.6054a.03729.03729,0,0,1,.0127.0166c10.1015,1.6133,19.6592,3.7529,28.9414,6.1728.0195.0889-.0596.1289-.0918.1836-1.2627,2.1094-2.6377,4.2119-4.0479,6.1729a275.15632,275.15632,0,0,0-27.39059-4.72071,1.867,1.867,0,0,0-.20311.45411q13.8222,2.25584,26.7353,5.4424c.0244.0869-.0644.1513-.0996.1992-1.5263,2.1045-3.1367,4.2187-4.7851,6.2168a250.8874,250.8874,0,0,0-25.0752-3.874.70492.70492,0,0,1,.1142-.3379c.6953-1.6875,1.4502-3.4571,2.1543-5.1748a120.47284,120.47284,0,0,1-14.6152,2.6259c-2.7822,3.8819-8.2031,5.2842-14.625,5.5674a46.1139,46.1139,0,0,1-4.9243.0322c-4.7354-.3457-8.32229-1.77731-10.9502-4.1777a109.41606,109.41606,0,0,1-10.9004-1.6894c-3.5-.6729-6.9268-1.4278-10.4024-2.1719a8.038,8.038,0,0,0,.2686.8535,200.137,200.137,0,0,0,21.8828,6.8057,63.789,63.789,0,0,1-11.1631-1.5616,86.824,86.824,0,0,1-9.9131-2.8437c.2159.75679.4991,1.5635.7471,2.3379a122.93554,122.93554,0,0,0,22.0537,5.33789c.1026-1.00979.1739-2.02739.2588-3.06249.417.0429.836.08,1.2656.1074-.0722,1.0566-.1689,2.0918-.2509,3.12209.7099.10931,1.4668.17871,2.1943.27241.1094-.9306.1592-1.9228.25591-2.8691.35929-.02931.84369.0674,1.23819.0771a14.04543,14.04543,0,0,1-.0947,1.4522c-.0371.48439-.084.9853-.1142,1.4619.7001.084,1.42771.1318,2.1572.1787.10451-.9775.1787-1.99321.2607-2.9961.4365.0127.8242.0723,1.2656.08689-.0722,1-.1611,1.98051-.246,2.97371a56.36537,56.36537,0,0,0,22.4585-3.7598,46.73983,46.73983,0,0,1-18.2369,5.249,57.69343,57.69343,0,0,1-7.5517.1065,69.931,69.931,0,0,1-7.086-.7393,103.89273,103.89273,0,0,1-18.997-4.4854c.2138.67.4345,1.3008.6308,1.9659,5.8819,2.1845,12.2129,3.9238,18.5948,5.6093a73.20423,73.20423,0,0,1-17.82329-3.331c.09959.4043.291.8613.41019,1.3027-5.5576.5615-10.9629,1.291-16.083,2.294-1.7256-1.834-3.4229-3.7754-4.9913-5.7305,6.1104-1.37011,12.3448-2.6338,18.793-3.6738-.0576-.2158-.1494-.3994-.2158-.6201-6.6787.8759-13.12209,2-19.4033,3.2783-.8789-1.0078-1.7051-2.0821-2.5049-3.1621-.8066-1.0948-1.6572-2.1446-2.3848-3.2686,7.0508-1.7197,14.2705-3.2656,21.751-4.5693a2.83807,2.83807,0,0,0-.2998-.6797c-7.6992,1.0791-15.0654,2.5019-22.2578,4.0703a15.44278,15.44278,0,0,1-1.082-1.5459c-1.0381-1.5566-2.0704-3.15721-3.02349-4.8105,8.26269-2.2061,16.87989-4.05571,25.67779-5.7081.038.1758.08.3497.1025.52639.42871.11331.8662.208,1.29.30961-.0722-.3545-.15129-.6992-.2109-1.05961,6.168-1.18649,12.6875-2.03029,19.4287-2.65329-6.5918.5185-13.3008,1.0576-19.5527,1.9736-.5733-2.5488-1.06939-5.1728-1.6055-7.7617.5313-.0937,1.0742-.1904,1.623-.2754.2452,1.1543.4717,2.3037.7276,3.4424,1.3672,0,2.7051-.0391,4.0869-.0391a3.52935,3.52935,0,0,0,.5762-2.18451,5.044,5.044,0,0,0-.752-2.00489c4.9268-.7969,9.98441-1.37311,15.19441-1.9258,1.72459-.1914,3.49409-.3701,5.249-.457.16109-.0127.15619-.0176.21579.22069a20.55215,20.55215,0,0,1,.5391,5.17771m20.9409.8438a19.48929,19.48929,0,0,0,1.3701-6.0411,14.589,14.589,0,0,1-.7646,6.5401,13.21894,13.21894,0,0,1-2.9131,4.64549c-.0157-.00489,0-.00979,0-.02249.8183-1.6728,1.6279-3.33,2.3076-5.122m-6.1729,5.7802c1.4229-3.5244,3.0459-6.8554,3.1895-11.6572a15.76291,15.76291,0,0,1-.499,6.77049,13.281,13.281,0,0,1-2.6905,4.88671m7.78911-.7451c1.72169-3.1738,3.665-6.2685,4.18939-10.6963a13.83951,13.83951,0,0,1-1.0751,6.3262,12.31646,12.31646,0,0,1-3.1045,4.3604.00953.00953,0,0,0-.00979.0097m-11.771,1.7871c1.23729-3.626,2.71919-7.1552,2.68209-12.1015a16.73021,16.73021,0,0,1-.1992,6.9121,13.638,13.638,0,0,1-2.4634,5.1523c-.0068.0176-.01949.0176-.01949.0371m25.36179-11.5029c-.0029-.0381.0068-.04981.03221-.0576a315.60084,315.60084,0,0,1,41.795,8.6845q-1.59677,3.2682-3.417,6.3262c-9.38481-2.1894-19.03911-4.1123-29.24221-5.4873-.0225-.05761.0469-.1172.0771-.1562,1.24611-1.60841,2.5879-3.2793,3.8594-4.8926-.3252-.2754-.65329-.5332-.9902-.7891-1.5196,1.8438-2.9834,3.8125-4.4707,5.6221q-5.505-.6738-11.1553-1.21681c-.0127-.09379.0566-.15629.0986-.21579a22.21307,22.21307,0,0,0,3.4131-7.8174m-29.2837,12.7519c1.1094-3.76071,2.4356-7.5849,2.17191-12.59371a17.69274,17.69274,0,0,1,.12209,7.07811,14.99216,14.99216,0,0,1-2.294,5.5528c-.0244-.0157,0-.0157,0-.0372m19.606-1.9462c1.8896-3.02051,3.9912-5.959,4.6963-10.2129a10.95109,10.95109,0,0,1-.3575,3.3183,12.097,12.097,0,0,1-4.3183,6.875c-.0127,0-.0127.0069-.0205.0196m-22.1548-2.77251a25.47145,25.47145,0,0,0,.291-6.95409,18.35576,18.35576,0,0,1,.419,7.2148,15.72678,15.72678,0,0,1-2.0801,5.9268c-.0225-.0127,0-.0127,0-.0322.4922-1.9561,1.0302-3.9981,1.3701-6.15531m-61.0254.51371c9.0098-2.47171,18.32911-4.6504,28.0234-6.4473.5489,2.5684,1.0801,5.1572,1.6338,7.72559-9.0967,1.38481-17.8603,3.10251-26.3232,5.09761-1.1738-2.0595-2.3438-4.1992-3.334-6.3759m91.51711,27.2295c1.28319-3.0479,2.55369-6.11821,3.85739-9.1631,8.3584,1.29,16.4453,2.8535,24.3125,4.624.0244.0918-.084.1533-.1211.2002-1.5986,1.916-3.2373,3.76269-4.9541,5.6172-.1045.10449-.2529.3418-.3574.3594a3.84986,3.84986,0,0,1-.65529-.1143c-.66991-.1191-1.36521-.2383-2.01071-.34961-.44629-.07909-.8936-.14839-1.3008-.26079a38.42712,38.42712,0,0,0-6.7109-1.0947,114.21561,114.21561,0,0,0-12.05959.1817m6.42089,2.6484a44.70877,44.70877,0,0,1,15.12011.2627c.02929.0644-.05961.0996-.08981.1318-1.2998,1.375-2.6211,2.7403-4.0059,4.0772-.1064.1025-.2402.2412-.36229.2314a32.54883,32.54883,0,0,0-5.57131-.2705,19.80677,19.80677,0,0,0-4.7656,1.1563,35.43508,35.43508,0,0,1-9.7568,2.0752,32.059,32.059,0,0,1-10.3741-1.3702,44.57071,44.57071,0,0,0-4.7656-1.1718,21.31059,21.31059,0,0,0-5.5229-.084c-3.4473.40429-6.3321,1.5137-9.5479,2.2959a29.60366,29.60366,0,0,1-10.6953.6572,34.59194,34.59194,0,0,1-4.8291-1.0996,47.92256,47.92256,0,0,0-4.666-1.2334,29.40422,29.40422,0,0,0-8.2276.1318c-.6504.0821-1.3203.1436-1.9912.23339a6.42643,6.42643,0,0,1-.6494.08891c-.1074-.0117-.1074-.0391-.2139-.1435-.916-.90141-1.8935-1.8145-2.7822-2.71-.916-.9141-1.8389-1.8399-2.7226-2.7949-.0372-.042-.1387-.0948-.1192-.1787a86.87618,86.87618,0,0,1,11.8731-2.2911c1.39061-.1933,2.8252-.3476,4.3144-.4072a10.75146,10.75146,0,0,1,2.4043.3623c2.2393.49219,4.3213,1.2715,6.3565,1.8623a17.04086,17.04086,0,0,0,4.6933.7735c.9004,0,1.7695,0,2.62311-.0694.81639-.0771,1.59859-.2129,2.38769-.3496,4.5468-.8017,8.6201-2.4599,14.1762-2.1943a29.9852,29.9852,0,0,1,4.8565.5986c2.9062.6152,5.582,1.82909,8.4931,2.45409a23.12419,23.12419,0,0,0,4.959.51371,21.82587,21.82587,0,0,0,4.8916-.5733c1.4424-.3203,2.9268-.7148,4.5098-.9648m-68.2983,8.418c-.042-.0323-.1192-.06161-.1094-.1211a34.60385,34.60385,0,0,1,10.2549.8408c1.3408.3799,2.581.8096,3.8154,1.2783a21.38318,21.38318,0,0,0,12.89351,1.7695c2.90629-.4365,5.61139-1.206,8.65139-1.5214a31.168,31.168,0,0,1,4.8735-.1084c6.4034.3818,10.1758,3.4199,16.28911,4.0898a25.04389,25.04389,0,0,0,4.83989,0c2.8886-.2705,5.246-1.0947,7.95211-1.5957.17869-.0352.583-.1191.55759-.0693a3.38059,3.38059,0,0,1-.34959.2802c-1.82711,1.5215-3.57621,3.003-5.46291,4.4942a1.85715,1.85715,0,0,1-.3945.2978,4.63172,4.63172,0,0,1-.8584.13969,29.29565,29.29565,0,0,1-6.5205.126,36.50055,36.50055,0,0,1-9.5176-2.34279,11.05831,11.05831,0,0,0-1.5859-.3945,22.96133,22.96133,0,0,0-5.4229-.4522,36.46583,36.46583,0,0,0-9.6616,2.1748,38.16159,38.16159,0,0,1-6.47269,1.42969,26.34,26.34,0,0,1-7.32911-.17679c-1.96089-.3369-3.7373-.8613-5.5673-1.3525a4.748,4.748,0,0,1-.794-.1914,3.376,3.376,0,0,1-.6728-.5107c-2.4249-1.93361-4.752-3.9415-7.0704-5.9717-.7939-.6924-1.5586-1.3994-2.3378-2.1123m45.6879,13.9111c2.9336.834,5.5274,2.1377,8.52051,2.877.03719.0244-.05661.0722-.10441.1064-1.4864,1.0596-3.0147,2.0947-4.5743,3.1426a1.36809,1.36809,0,0,1-.3349.1904,4.1423,4.1423,0,0,1-.6328-.1484c-1.4493-.3399-2.93359-.7129-4.4717-.9258a23.06041,23.06041,0,0,0-5.7798-.0371c-3.4102.4365-6.1133,1.5654-9.123,2.4717a3.92356,3.92356,0,0,1-.5909.1816,2.57975,2.57975,0,0,1-.4424-.2412c-3.1025-1.9932-6.1425-4.0576-9.1035-6.1602-1.0576-.7519-2.1025-1.4863-3.11229-2.2558h-.01761a1.46433,1.46433,0,0,1,.4844.1787,20.38679,20.38679,0,0,0,3.8819,1.1142,21.02079,21.02079,0,0,0,5.3232.1416c1.6729-.1767,3.2715-.5166,4.8848-.8193,1.6259-.3047,3.249-.5752,4.9658-.7344a27.83042,27.83042,0,0,1,10.227.918m-13.4379,10.1016a31.54217,31.54217,0,0,1,11.1772-.0889c-.88379.6025-1.8272,1.1387-2.75779,1.6895-.93071.5537-1.88191,1.0927-2.83841,1.624-1.7793-.9561-3.5635-1.9688-5.2832-3.0088a1.12229,1.12229,0,0,1-.2978-.2158"/><path class="cls-1" d="M214.93309,188.24833c-4.31829-2.46881-8.5254-5.1865-13.248-7.2764a29.33633,29.33633,0,0,0-6.1211-2.0976,7.78412,7.78412,0,0,0-3.6357-.126,15.63342,15.63342,0,0,1,3.0332,1.0937c2.8789,1.254,5.7177,2.4971,8.6074,3.7383a89.77625,89.77625,0,0,1,11.1357,5.3135c-2.3926.5361-4.8642.9434-7.331,1.3555-2.4649.40919-4.92679.8633-7.3594,1.3447-4.8916.9463-9.709,1.8691-14.2109,3.18949a92.241,92.241,0,0,0,15.72551-1.42679,47.67225,47.67225,0,0,0,13.20609-3.9023c-.6973,4.8125-3.3066,7.8554-5.9346,10.7343a24.73312,24.73312,0,0,1-9.9648,6.6992,16.37415,16.37415,0,0,0,6.3359-2.207,18.98056,18.98056,0,0,0,4.7041-3.8291,19.38539,19.38539,0,0,0,3.1817-5.3564c.873-1.9678,1.6728-4.0352,2.417-6.127a16.94391,16.94391,0,0,1,5.6611,7.2119,33.02952,33.02952,0,0,1,2.7226,10.16119,16.16945,16.16945,0,0,0,.21391-6.14749,17.03965,17.03965,0,0,0-1.64551-5.1104c-1.5146-2.9863-4.0859-4.9912-6.7412-6.7685a21.6016,21.6016,0,0,0,.9726-5.5147,14.22209,14.22209,0,0,0-.83589-5.6367c0-.0146,0-.0273-.01271-.0146a49.70655,49.70655,0,0,1-.876,10.6992m137.7876-5.0283a21.43888,21.43888,0,0,0,.9649,5.5078,26.64183,26.64183,0,0,0-3.8145,2.9258,14.87785,14.87785,0,0,0-4.5644,8.9404,15.86359,15.86359,0,0,0,.2187,6.14749,32.213,32.213,0,0,1,2.7227-10.16119c1.3701-2.8984,3.0674-5.5273,5.6533-7.1924.7471,2.085,1.5537,4.1397,2.4131,6.1075a19.29309,19.29309,0,0,0,3.1836,5.3564,19.03539,19.03539,0,0,0,4.7041,3.8291,16.36116,16.36116,0,0,0,6.3437,2.207,24.65528,24.65528,0,0,1-9.9726-6.6992c-2.6387-2.8935-5.2569-5.9463-5.93949-10.7588a30.05474,30.05474,0,0,0,6.20019,2.3682,66.75594,66.75594,0,0,0,7.0362,1.5586,89.45823,89.45823,0,0,0,15.6953,1.4141c-4.5098-1.3028-9.3321-2.2305-14.2061-3.1768-2.4228-.4814-4.89259-.93551-7.3613-1.3447-2.4649-.4121-4.9346-.8194-7.3369-1.3555a89.22159,89.22159,0,0,1,11.1543-5.3135c2.8984-1.2412,5.7646-2.497,8.6064-3.7383a16.72353,16.72353,0,0,1,3.0156-1.0996,7.976,7.976,0,0,0-3.623.1319,24.976,24.976,0,0,0-3.1895.9238,42.53162,42.53162,0,0,0-5.7138,2.5039c-3.6162,1.8887-7.0459,3.93849-10.4707,5.9316a51.57643,51.57643,0,0,1-.89069-10.6845,14.75225,14.75225,0,0,0-.82911,5.6709m-69.3071,49.5664a10.5697,10.5697,0,0,0-3.9209-2.2803,17.47948,17.47948,0,0,0-6.2441-.8594,16.5365,16.5365,0,0,0-4.2422.67479c-.1065.03031-.4883.11921-.4043.27641.0596.124.831.0742,1.0371.0742a49.81588,49.81588,0,0,1,7.4033.4561,17.88337,17.88337,0,0,1,6.3418,2.0781c.0967.0596.2383.2158.375.0693.0293-.2187-.209-.37011-.3457-.4892m6.5396-.9483a12.55576,12.55576,0,0,0-2.4248.9629c-.0948.045-.7051.335-.6182.4942.0449.0849.2383.0302.335.0195a23.21122,23.21122,0,0,1,2.6953-.4238c5.6386-.5557,11.0127.3847,15.7382,1.3301.1192.0224.6749.1982.7413.0351.0595-.18161-.4219-.3652-.5303-.4101-.2363-.1211-.5088-.2354-.67089-.3047a26.31874,26.31874,0,0,0-7.57721-2.0655,22.3328,22.3328,0,0,0-3.6709-.206,17.94792,17.94792,0,0,0-4.0175.5683m-5.08939,2.418c-.04781.0371-.00981.0713-.08981.084a14.80874,14.80874,0,0,0-7.0977,1.4746,30.561,30.561,0,0,0-10.0967,7.1826,11.30115,11.30115,0,0,0-3.3486,5.3135c.04781.01269.0947-.0596.1191-.084.6436-.7031,1.291-1.4004,1.9688-2.0752.7217-.7295,1.4092-1.4814,2.12691-2.20411a40.66369,40.66369,0,0,1,4.668-3.99309,33.20721,33.20721,0,0,1,5.35159-3.29891,37.00962,37.00962,0,0,1,6.3632-2.25579,28.28958,28.28958,0,0,1-1.3603,5.5547,60.73839,60.73839,0,0,0-2.5908,11.2109,16.44124,16.44124,0,0,0,.2851,6.3017c.3701-1.8789.90921-3.708,1.3604-5.5722.4492-1.874.8369-3.75,1.2783-5.65431.4316-1.85839.8584-3.76659,1.1963-5.74509.3203-1.8936.6426-4.4004.0566-6.2618-.0117,0-.0117-.0126-.0215-.0126a1.35281,1.35281,0,0,1-.16889.0351m5.45849,3.6875a35.11567,35.11567,0,0,1,4.7656,3.8623,18.99968,18.99968,0,0,1,5.1826,7.7481,9.61717,9.61717,0,0,1,.5362,3.7627,7.74889,7.74889,0,0,0,.2383-3.8936,13.30152,13.30152,0,0,0-2.74519-6.0811,24.19653,24.19653,0,0,0-7.05661-6.18451,22.95939,22.95939,0,0,0-6.0991-2.74809c-.0098,0-.0098,0-.0098.0098,1.6714,1.23629,3.45851,2.333,5.188,3.5244"/></svg>