<svg id="Layer_1" data-name="Layer 1" xmlns="http://www.w3.org/2000/svg" viewBox="0 0 282.5157 95.0702"  height="39" width="115"><defs><style>.cls-1{fill:#fff;}</style></defs><path class="cls-1" d="M130.2526,39.8567V37.312h2.1329c3.7406,0,6.7739,2.2325,6.7739,6.7739V72.2811h-6.3687V42.0527a2.0275,2.0275,0,0,0-1.6511-2.1063s-.4485-.0664-.887-.09"/><path class="cls-1" d="M172.6116,39.8567V37.312h2.1328c3.7407,0,6.774,2.2325,6.774,6.7739V72.2811H175.15V42.0527a2.0275,2.0275,0,0,0-1.6511-2.1063s-.4485-.0664-.887-.09"/><path class="cls-1" d="M220.2,39.8574V37.3159h2.1329c3.7406,0,6.7739,2.2326,6.7739,6.7739V72.2784h-6.3687V42.0534a2.0275,2.0275,0,0,0-1.6511-2.1063,5.3123,5.3123,0,0,0-.887-.09"/><path class="cls-1" d="M278.43,37.3123l-8.0565,12.993-4.465-8.0995a9.5584,9.5584,0,0,0-8.3121-4.8935h-2.372v2.5448c1.7708.0365,2.6046,1.4152,3.6345,3.2258l7.1228,12.4914V72.2814h6.3652V53.9365l10.1693-16.6242Z"/><path class="cls-1" d="M113.8916,72.28h2.4517l11.3519-34.9658h-3.7806l-7.2557,23.305-5.4915-17.953c-1.0964-3.5215-3.88-5.352-8.3254-5.352h-1.3455v2.5415c1.5714.0332,2.1262.8737,2.6577,2.5049Z"/><path class="cls-1" d="M166.8962,62.6584c-1.1794,4.2026-3.7475,6.6145-7.0431,6.6145-2.475,0-4.8138-1.6013-6.5911-4.5115a19.8817,19.8817,0,0,1-2.608-10.5081c0-8.6243,3.3953-13.98,8.8569-13.98,3.5215,0,6.1294,2.3919,7.3387,6.734l.05.1727h2.392l-.0432-.2757c-1.4618-9.7539-9.4051-10.0362-10.3054-10.0362l-.0764.0033c-8.7639,0-14.8833,7.4184-14.8833,18.0427,0,10.4847,6.1659,17.8068,15,17.8068,8.0629,0,10.0729-7.6211,10.4947-9.9565l.0532-.2824h-2.5847Z"/><path class="cls-1" d="M247.9723,69.7393c-.4386-.0232-.8871-.09-.8871-.09a2.0273,2.0273,0,0,1-1.6512-2.1062V41.0923h7.2391l-.01-3.7806H232.1687l.0132,3.7806h6.8836V65.5069c0,4.5414,3.0332,6.7739,6.7739,6.7739h2.1329Z"/><path class="cls-1" d="M189.9094,42.0483a2.0274,2.0274,0,0,0-1.6511-2.1062,4.64,4.64,0,0,0-.887-.0863V37.3143h1.2225a11.0194,11.0194,0,0,1,9.7207,4.8736L210.7,59.2672V37.3143h3.3022V72.28h-2.7076L193.2083,46.8954V72.28h-3.2989Z"/><path class="cls-1" d="M109.1069,87.4412c0-3.661,1.6179-7.85,6.01-7.85,3.2158,0,4.8337,2.2624,5.455,4.857l-1.3522.2658c-.5315-2.3288-1.84-3.97-4.0131-3.97-2.84,0-4.6145,2.5282-4.6145,6.6975,0,4.1029,1.9966,6.4749,4.5248,6.4749,2.04,0,3.5913-1.4418,4.1694-4.08l1.3088.289c-.6643,2.7474-2.372,4.9434-5.4782,4.9434-4.3454,0-6.01-4.1262-6.01-7.6277"/><polygon class="cls-1" points="124.223 79.812 133.539 79.812 133.539 81.031 125.642 81.031 125.642 86.443 131.984 86.443 131.984 87.573 125.642 87.573 125.642 93.672 133.825 93.672 133.825 94.868 124.223 94.868 124.223 79.812"/><polygon class="cls-1" points="137.261 79.812 138.992 79.812 146.776 92.719 146.819 92.719 146.819 79.812 147.972 79.812 147.972 94.868 146.62 94.868 138.48 81.364 138.437 81.364 138.437 94.868 137.261 94.868 137.261 79.812"/><polygon class="cls-1" points="155.253 81.054 150.751 81.054 150.751 79.811 161.153 79.811 161.153 81.054 156.648 81.054 156.648 94.871 155.253 94.871 155.253 81.054"/><path class="cls-1" d="M164.0271,79.8121H169.15c2.7043,0,4.81,1.2425,4.81,4.1262a3.7172,3.7172,0,0,1-3.1926,3.9l3.4817,7.03h-1.5282l-3.2623-6.7407h-4.0132v6.7407h-1.4186Zm4.99,7.1626c1.93,0,3.5248-.7973,3.5248-2.9932,0-2.1528-1.4186-2.9734-3.4352-2.9734h-3.6609v5.9666Z"/><polygon class="cls-1" points="177.588 79.812 186.903 79.812 186.903 81.031 179.006 81.031 179.006 86.443 185.348 86.443 185.348 87.573 179.006 87.573 179.006 93.672 187.189 93.672 187.189 94.868 177.588 94.868 177.588 79.812"/><path class="cls-1" d="M189.0889,90.764l1.2857-.2657a4.3491,4.3491,0,0,0,4.5447,3.372c2.3521,0,3.97-1.0233,3.97-3.083,0-1.7973-1.4618-2.5946-4.5448-3.13-3.1494-.5515-4.5248-1.9734-4.5248-4.1228,0-2.1528,1.7542-3.97,4.9468-3.97,2.86,0,4.7241,1.6644,5.1227,3.8138l-1.2656.3123a3.7931,3.7931,0,0,0-3.97-3.0165c-1.9933,0-3.4584,1.176-3.4584,2.7042,0,1.4419.7774,2.4385,3.86,2.95,3.5913.598,5.2989,1.9734,5.2989,4.3454,0,2.5947-1.9069,4.3687-5.4351,4.3687-4.2557,0-5.5878-2.9036-5.83-4.279"/><path class="cls-1" d="M49.268,56.2952c-20.438,5.03-36.75,8.1327-35.74,10.3286l4.11,9.81c2.568,5.2822,66.9882-13.0628,70.8918-19.6174,1.289-2.1661,4.3122-10.0762,6.1294-14.77-1.07,2.7574-20.1424,8.033-45.3908,14.2488"/><path class="cls-1" d="M23.7153,88.82c4.5845,4.3588,27.82,10.4483,45.3775,2.0731,3.9932-1.8969,5.8469-3.382,6.5015-4.7474l4.82-11.4747c-7.146,9.6509-49.992,14.99-56.6994,14.149"/><path class="cls-1" d="M107.3768,10.1492l5.1925,8.6776C68.88,24.3449,5.2466,40.4275,6.8711,54.148L.2666,38.1385C-4.8328,23.4412,64.3048,4.9932,114.2138,0Z"/><path class="cls-1" d="M52.2115,53.2142c12.7106-3.1594,22.0924-5.6709,28.6836-7.6875,10.4116-3.1826,11.704-4.4949,11.8169-4.6344,0,0,1.92-1.8106-.97-2.6677-.2459-.0631-.5017-.1262-.7741-.1827-.2092-.04-.3953-.0765-.5614-.1064-.05-.01-.0964-.02-.1462-.0265a64.7406,64.7406,0,0,0-10.2854-.598c-7.2424,0-16.83.4585-28.1355.8372-4.2125.1461-11.3751.5647-17.82.85-1.5349.402-2.7873.7542-3.4086.98-1.382.3654-4.033,1.475-4.07,1.4883C10.1262,48.1712,9.0632,52.573,9.13,53.7557c0,0-.0466,2.2691,3.0265,2.7242,0,0,.1694.0233.3887.0565q.1.0149.1893.03c.01,0,.0233.0033.0366.0033,6.3819.784,16.9762.3655,26.7036-.2292l4.2756-1.03c.9169-.2392,8.1493-2.02,8.4616-2.0963"/><path class="cls-1" d="M71.3765,77.8926c4.4416-1.8671,6.3187-3.4584,7.1326-4.4916,0,0,1.1461-1.4219-.897-2.3155v-.0067a43.6126,43.6126,0,0,0-8.7406-2.4517l-.7575.2126c-1.84.485-3.86,1.1129-3.8736,1.12-6.8038,2.1693-13.9033,4.1792-20.5543,5.82l-.8837.206c9.04.4717,18.8434,1.3687,25.4778,3.073l.6943-.2193a20.4081,20.4081,0,0,0,2.402-.9468"/></svg>