<svg id="Layer_1" data-name="Layer 1" xmlns="http://www.w3.org/2000/svg" xmlns:xlink="http://www.w3.org/1999/xlink" viewBox="0 0 283.46469 317.6716" height="121px" width="111px"><defs><style>.cls-1,.cls-2,.cls-3{fill:none;stroke-miterlimit:10;}.cls-1{stroke-width:51.7053px;stroke:url(#linear-gradient);}.cls-2{stroke-width:44.7757px;stroke:url(#linear-gradient-2);}.cls-3{stroke-width:34.1892px;stroke:url(#linear-gradient-3);}.cls-4{fill:#231f20;}.cls-5{fill:url(#linear-gradient-4);}.cls-6{fill:url(#linear-gradient-5);}.cls-7{fill:url(#linear-gradient-6);}.cls-8{fill:url(#linear-gradient-7);}.cls-9{fill:url(#linear-gradient-8);}.cls-10{mask:url(#mask);}.cls-11,.cls-14{fill:#fff;}.cls-11,.cls-13{opacity:0.4;}.cls-12{mask:url(#mask-2);}.cls-15{mask:url(#mask-3);}</style><linearGradient id="linear-gradient" x1="31.97613" y1="73.86914" x2="170.25486" y2="49.48687" gradientUnits="userSpaceOnUse"><stop offset="0.17672" stop-color="#fff" stop-opacity="0"/><stop offset="0.21449" stop-color="#fff" stop-opacity="0.06724"/><stop offset="0.28947" stop-color="#fff" stop-opacity="0.24257"/><stop offset="0.39462" stop-color="#fff" stop-opacity="0.52547"/><stop offset="0.52143" stop-color="#fff" stop-opacity="0.9"/><stop offset="0.55205" stop-color="#fff" stop-opacity="0.9"/><stop offset="0.571" stop-color="#fff" stop-opacity="0.80321"/><stop offset="0.61202" stop-color="#fff" stop-opacity="0.61652"/><stop offset="0.65546" stop-color="#fff" stop-opacity="0.45107"/><stop offset="0.70064" stop-color="#fff" stop-opacity="0.31156"/><stop offset="0.74799" stop-color="#fff" stop-opacity="0.19804"/><stop offset="0.79824" stop-color="#fff" stop-opacity="0.11029"/><stop offset="0.85276" stop-color="#fff" stop-opacity="0.04813"/><stop offset="0.91467" stop-color="#fff" stop-opacity="0.01145"/><stop offset="1" stop-color="#fff" stop-opacity="0"/></linearGradient><linearGradient id="linear-gradient-2" x1="72.15969" y1="148.58882" x2="180.07648" y2="129.56018" gradientUnits="userSpaceOnUse"><stop offset="0.19291" stop-color="#fff" stop-opacity="0"/><stop offset="0.21485" stop-color="#fff" stop-opacity="0.03568"/><stop offset="0.25086" stop-color="#fff" stop-opacity="0.13253"/><stop offset="0.29645" stop-color="#fff" stop-opacity="0.29037"/><stop offset="0.34987" stop-color="#fff" stop-opacity="0.50945"/><stop offset="0.40917" stop-color="#fff" stop-opacity="0.78558"/><stop offset="0.43206" stop-color="#fff" stop-opacity="0.9"/><stop offset="0.46288" stop-color="#fff" stop-opacity="0.9"/><stop offset="0.50866" stop-color="#fff" stop-opacity="0.70333"/><stop offset="0.56435" stop-color="#fff" stop-opacity="0.49151"/><stop offset="0.61881" stop-color="#fff" stop-opacity="0.3153"/><stop offset="0.67077" stop-color="#fff" stop-opacity="0.17814"/><stop offset="0.71957" stop-color="#fff" stop-opacity="0.07996"/><stop offset="0.76397" stop-color="#fff" stop-opacity="0.02059"/><stop offset="0.8" stop-color="#fff" stop-opacity="0"/></linearGradient><linearGradient id="linear-gradient-3" x1="91.99895" y1="199.01725" x2="177.23476" y2="183.98787" gradientTransform="translate(0.07116 0.0262) rotate(-0.14324)" gradientUnits="userSpaceOnUse"><stop offset="0.18656" stop-color="#fff" stop-opacity="0"/><stop offset="0.20973" stop-color="#fff" stop-opacity="0.05313"/><stop offset="0.25313" stop-color="#fff" stop-opacity="0.19337"/><stop offset="0.31212" stop-color="#fff" stop-opacity="0.42042"/><stop offset="0.38365" stop-color="#fff" stop-opacity="0.73004"/><stop offset="0.42041" stop-color="#fff" stop-opacity="0.9"/><stop offset="0.46241" stop-color="#fff" stop-opacity="0.9"/><stop offset="0.5349" stop-color="#fff" stop-opacity="0.67861"/><stop offset="0.69919" stop-color="#fff" stop-opacity="0.19414"/><stop offset="0.77164" stop-color="#fff" stop-opacity="0"/></linearGradient><linearGradient id="linear-gradient-4" x1="45.25662" y1="100.857" x2="233.66982" y2="100.857" gradientUnits="userSpaceOnUse"><stop offset="0" stop-color="#4f331f"/><stop offset="0.1387" stop-color="#5f3e26"/><stop offset="0.40728" stop-color="#875a38"/><stop offset="0.44107" stop-color="#8d5e3b"/><stop offset="1" stop-color="#bc9e89"/></linearGradient><linearGradient id="linear-gradient-5" x1="59.96448" y1="144.98947" x2="237.27548" y2="113.72476" gradientUnits="userSpaceOnUse"><stop offset="0" stop-color="#4f331f"/><stop offset="0.05869" stop-color="#765137"/><stop offset="0.12184" stop-color="#986c4b"/><stop offset="0.18646" stop-color="#b2805b"/><stop offset="0.25224" stop-color="#c58f67"/><stop offset="0.31989" stop-color="#d0986e"/><stop offset="0.39231" stop-color="#d49b70"/><stop offset="0.48198" stop-color="#cf976d"/><stop offset="0.59245" stop-color="#c08b64"/><stop offset="0.71385" stop-color="#a77854"/><stop offset="0.84304" stop-color="#845c3f"/><stop offset="0.97712" stop-color="#573a24"/><stop offset="1" stop-color="#4f331f"/></linearGradient><linearGradient id="linear-gradient-6" x1="104.6546" y1="158.1351" x2="202.89314" y2="158.1351" gradientUnits="userSpaceOnUse"><stop offset="0" stop-color="#4f331f"/><stop offset="0.12379" stop-color="#553722"/><stop offset="0.29328" stop-color="#67442a"/><stop offset="0.48836" stop-color="#845737"/><stop offset="0.54352" stop-color="#8d5e3b"/><stop offset="0.65421" stop-color="#956949"/><stop offset="0.86223" stop-color="#ab876d"/><stop offset="1" stop-color="#bc9e89"/></linearGradient><linearGradient id="linear-gradient-7" x1="82.70239" y1="197.64167" x2="205.48594" y2="175.99162" xlink:href="#linear-gradient-5"/><linearGradient id="linear-gradient-8" x1="32.25791" y1="85.75933" x2="280.40896" y2="21.12082" xlink:href="#linear-gradient-5"/><mask id="mask" x="30.39356" y="0" width="244.51384" height="115.8131" maskUnits="userSpaceOnUse"><path class="cls-1" d="M166.4933,38.3516c-27.0017,2.8725-89.7248,24.279-102.1485,34.261L45.273,86.0354"/></mask><mask id="mask-2" x="59.46475" y="89.9276" width="173.61464" height="82.76392" maskUnits="userSpaceOnUse"><path class="cls-2" d="M73.28,150.5235c36.6246-5.1706,75.4035-15.081,104.2725-23.0546"/></mask><mask id="mask-3" x="81.3493" y="159.7074" width="121.2653" height="52.40306" maskUnits="userSpaceOnUse"><path class="cls-3" d="M96.6427,193.5159c28.3427,3.3138,54.1615,1.4218,77.4627-8.545"/></mask></defs><path class="cls-4" d="M70.1732,305.7065c0-5.7398,2.5389-12.314,9.426-12.314,5.0435,0,7.5825,3.5483,8.5568,7.6175l-2.1221.4179c-.8343-3.6522-2.8869-6.2262-6.2952-6.2262-4.4526,0-7.235,3.9652-7.235,10.5048,0,6.4342,3.1303,10.156,7.0955,10.156,3.2004,0,5.6349-2.26,6.5392-6.3997l2.052.4519c-1.0432,4.3136-3.7212,7.7569-8.5912,7.7569-6.8171,0-9.426-6.4702-9.426-11.9651"/><polygon class="cls-4" points="93.883 293.741 108.492 293.741 108.492 295.654 96.109 295.654 96.109 304.142 106.056 304.142 106.056 305.915 96.109 305.915 96.109 315.48 108.944 315.48 108.944 317.358 93.883 317.358 93.883 293.741"/><polygon class="cls-4" points="114.332 293.741 117.046 293.741 129.254 313.984 129.324 313.984 129.324 293.741 131.132 293.741 131.132 317.358 129.011 317.358 116.245 296.175 116.176 296.175 116.176 317.358 114.332 317.358 114.332 293.741"/><polygon class="cls-4" points="142.551 295.689 135.49 295.689 135.49 293.741 151.803 293.741 151.803 295.689 144.742 295.689 144.742 317.359 142.551 317.359 142.551 295.689"/><path class="cls-4" d="M156.3137,293.741h8.0343c4.2441,0,7.5485,1.9481,7.5485,6.4697a5.83643,5.83643,0,0,1-5.009,6.1218l5.4609,11.0257h-2.4l-5.113-10.5738h-6.2957v10.5738h-2.226Zm7.8264,11.2342c3.0259,0,5.5298-1.2517,5.5298-4.6955,0-3.3733-2.226-4.6611-5.3914-4.6611h-5.7388v9.3566Z"/><polygon class="cls-4" points="177.583 293.741 192.192 293.741 192.192 295.654 179.809 295.654 179.809 304.142 189.757 304.142 189.757 305.915 179.809 305.915 179.809 315.48 192.644 315.48 192.644 317.358 177.583 317.358 177.583 293.741"/><path class="cls-4" d="M195.6222,310.9185l2.0171-.418c.2784,1.8787,2.33049,5.288,7.13049,5.288,3.6878,0,6.2262-1.6002,6.2262-4.835,0-2.8175-2.29549-4.0692-7.13049-4.9051-4.93951-.8688-7.095-3.0953-7.095-6.4696,0-3.3734,2.74739-6.2263,7.75589-6.2263,4.4875,0,7.409,2.609,8.0348,5.9833l-1.9821.4874a5.95319,5.95319,0,0,0-6.2262-4.7305c-3.13039,0-5.4269,1.8431-5.4269,4.2431,0,2.2605,1.2178,3.8262,6.0528,4.6261,5.6343.9393,8.3128,3.0958,8.3128,6.8181,0,4.0692-2.9909,6.8521-8.5218,6.8521-6.6786,0-8.76469-4.5571-9.14759-6.7136"/><path class="cls-4" d="M45.0297,230.906v-3.9831l-.0009-.0001h3.3409c5.8587,0,10.608,3.4956,10.608,10.6081v44.141l.0011.0068H49.0059V234.3438a3.17122,3.17122,0,0,0-2.588-3.2963s-.7018-.1065-1.3882-.1415"/><path class="cls-4" d="M111.3609,230.906v-3.9831l-.001-.0001h3.341c5.8586,0,10.608,3.4956,10.608,10.6081v44.141l.0011.0068h-9.973V234.3438a3.17115,3.17115,0,0,0-2.5879-3.2963s-.7019-.1065-1.3882-.1415"/><path class="cls-4" d="M185.8818,230.9075v-3.9777l-.001-.0002h3.341c5.8586,0,10.608,3.4957,10.608,10.6081v44.141H189.8579V234.3453a3.17107,3.17107,0,0,0-2.5879-3.2963,8.21469,8.21469,0,0,0-1.3882-.1415"/><path class="cls-4" d="M277.0645,226.9218l-12.61811,20.3454-6.988-12.6809a14.96838,14.96838,0,0,0-13.0153-7.6635c-.3455,0-.5499-.0025-.5539,0h-3.1608v3.9832c2.7689.06,4.0746,2.2165,5.6898,5.05l11.1512,19.565v26.1577h9.9689V252.956l15.9264-26.0342Z"/><path class="cls-4" d="M19.4095,281.6787h3.8392l17.7774-54.7559H35.1078L23.7411,263.4169l-8.5967-28.1128c-1.7181-5.5154-6.0758-8.3813-13.0368-8.3813H0v3.9842c2.459.047,3.3308,1.3637,4.1612,3.9222Z"/><path class="cls-4" d="M102.4114,266.6115c-1.8491,6.5832-5.8698,10.3589-11.0297,10.3589-3.8737,0-7.5399-2.5099-10.3204-7.065-2.7079-4.4231-4.0821-9.9585-4.0821-16.4542,0-13.5038,5.3154-21.8941,13.8696-21.8941,5.5139,0,9.596,3.7458,11.4921,10.5444l.077.2749h3.7432l-.066-.4324c-2.2905-15.2744-14.7284-15.7153-16.1391-15.7153l-.117.002c-13.7252,0-23.3082,11.6182-23.3082,28.2538,0,16.4192,9.6575,27.8869,23.4892,27.8869,12.6239,0,15.7727-11.9331,16.4351-15.5904l.081-.4444h-4.0482Z"/><path class="cls-4" d="M229.37109,277.7005c-.6863-.035-1.3882-.1416-1.3882-.1416a3.17116,3.17116,0,0,1-2.5879-3.2963v-41.421h11.3356l-.013-5.9188h-32.0924l.017,5.9188h10.7809v38.2286c0,7.1124,4.74941,10.608,10.608,10.608h3.341l-.001-.0001Z"/><path class="cls-4" d="M138.4484,234.3383a3.17022,3.17022,0,0,0-2.5875-3.2958,7.24584,7.24584,0,0,0-1.3887-.1365v-3.9832h1.9176c6.6227,0,11.3622,2.3155,15.2209,7.636l19.392,26.7405V226.9228h5.1709v54.7559H171.934l-28.3172-39.7504v39.7504h-5.1689Z"/><path class="cls-5" d="M141.4989,81.5927c-13.1844.444-39.8966,2.1604-55.528,2.4043-25.6372,10.4212-41.8788,21.4344-40.649,31.8152.1534.2938.293.5911.4705.879,5.4497,9.0182,65.4417,4.0692,97.4731,1.9173,49.1391-12.205,85.81019-22.5391,89.58549-28.2638a2.70209,2.70209,0,0,0,.2284-.4171c3.4617-7.9833-8.465-10.1248-31.405-10.1248C186.1879,79.802,165.6833,80.7784,141.4989,81.5927Z"/><path class="cls-6" d="M136.0018,120.4044c-43.7121,10.7594-78.6007,17.3911-76.442,22.0877l8.7908,20.9881c5.4945,11.2924,143.27109-27.9442,151.62149-41.9589,2.7585-4.6363,9.22341-21.5534,13.1073-31.5937C230.79239,95.8246,190.0055,107.1119,136.0018,120.4044Z"/><path class="cls-7" d="M113.6591,162.1195c25.1469,1.0246,55.5737,3.4745,70.6148,9.3569,8.5392-3.5022,15.12469-7.4292,18.34069-11.769,2.8671-7.6696-16.91709-11.7251-35.51119-14.9136-20.6442,6.6002-43.7548,12.8316-62.4488,16.7009Z"/><path class="cls-8" d="M81.3493,189.9679c9.8067,9.3191,59.4982,22.3471,97.0552,4.432,8.5365-4.0528,12.4997-7.2284,13.9018-10.1489l10.30829-24.5436C187.334,180.3464,95.6924,191.7621,81.3493,189.9679Z"/><path class="cls-9" d="M260.28329,21.7084,271.387,40.269C177.9486,52.0707,41.8455,86.4677,45.3227,115.813L31.2011,81.5686C20.2879,50.1404,168.1617,10.6797,274.90739,0Z"/><g class="cls-10"><path class="cls-11" d="M260.28319,21.7092l11.1044,18.5605C177.9485,52.0712,41.8454,86.4681,45.3225,115.8131L31.2011,81.5686C20.2883,50.1406,168.162,10.6805,274.90739,0Z"/></g><g class="cls-12"><g class="cls-13"><path class="cls-14" d="M136.0018,120.4044c-43.7121,10.7594-78.6007,17.3911-76.442,22.0877l8.7908,20.9881c5.4945,11.2924,143.27109-27.9442,151.62149-41.9589,2.7585-4.6363,9.22341-21.5534,13.1073-31.5937C230.79239,95.8246,190.0055,107.1119,136.0018,120.4044Z"/></g></g><g class="cls-15"><path class="cls-11" d="M81.3493,189.9679c9.8067,9.3191,59.4982,22.3471,97.0552,4.432,8.5365-4.0528,12.4997-7.2284,13.9018-10.1489l10.30829-24.5436C187.334,180.3464,95.6924,191.7621,81.3493,189.9679Z"/></g></svg>