<svg id="Layer_1" data-name="Layer 1" xmlns="http://www.w3.org/2000/svg" viewBox="0 0 302.9962 151.4052"  height="38" width="76"><defs><style>.cls-1{fill:#fff;}</style></defs><polygon class="cls-1" points="52.098 124.028 39.23 124.028 39.23 129.193 51.043 129.193 51.043 133.42 39.23 133.42 39.23 139.67 52.694 139.67 52.694 144.042 34.263 144.042 34.263 119.72 52.098 119.72 52.098 124.028"/><path class="cls-1" d="M72.1679,127.09c1.18.9774,1.7683,2.5859,1.7683,4.84v12.1138H69.1169V133.1017a5.0351,5.0351,0,0,0-.3729-2.172,2.6489,2.6489,0,0,0-2.6248-1.3893,3.2515,3.2515,0,0,0-3.2559,2.0306,6.9438,6.9438,0,0,0-.459,2.7375v9.7349H57.7018V126.0981h4.5529v2.6186a7.8957,7.8957,0,0,1,1.7069-1.9937,5.9438,5.9438,0,0,1,3.6636-1.0941,6.8934,6.8934,0,0,1,4.5427,1.4609"/><path class="cls-1" d="M84.5451,130.4857a4.8837,4.8837,0,0,0-1.254,2.7846h8.1a3.8936,3.8936,0,0,0-1.252-2.842,4.1152,4.1152,0,0,0-2.7887-.9672,3.7125,3.7125,0,0,0-2.8051,1.0246m7.0343-4.0633a7.352,7.352,0,0,1,3.1063,2.6576,8.8821,8.8821,0,0,1,1.4343,3.7211,22.4146,22.4146,0,0,1,.15,3.5735H83.1763a4.3277,4.3277,0,0,0,1.881,3.7968,4.8022,4.8022,0,0,0,2.592.668,3.9687,3.9687,0,0,0,2.6126-.8278,3.8479,3.8479,0,0,0,.9671-1.2294h4.7988a5.8587,5.8587,0,0,1-1.7417,3.2456,8.7413,8.7413,0,0,1-6.7658,2.6207,9.8041,9.8041,0,0,1-6.3357-2.2109q-2.7446-2.21-2.7436-7.1982c0-3.1186.8237-5.5,2.4773-7.1654a8.6779,8.6779,0,0,1,6.4319-2.4958,10.3488,10.3488,0,0,1,4.2292.8442"/><path class="cls-1" d="M110.5778,125.6377c.0615.0082.1946.0164.4036.0287v4.8152c-.293-.0328-.5573-.0574-.7909-.0656-.2274-.0123-.418-.0184-.5614-.0184-1.8913,0-3.1617.6188-3.8092,1.8461a7.1941,7.1941,0,0,0-.5471,3.2047v8.5957h-4.7353V126.0577h4.49v3.135a9.9442,9.9442,0,0,1,1.8953-2.4568,5.18,5.18,0,0,1,3.4321-1.1064c.09,0,.1619.0041.2234.0082"/><path class="cls-1" d="M125.6758,138.9369a5.7766,5.7766,0,0,0,1.1311-3.969,6.1241,6.1241,0,0,0-1.0737-3.8972,3.52,3.52,0,0,0-2.883-1.3319,3.3977,3.3977,0,0,0-3.4014,2.33,8.2656,8.2656,0,0,0-.4917,3.0531,6.9079,6.9079,0,0,0,.5265,2.7785,3.4185,3.4185,0,0,0,3.4178,2.2846,3.6049,3.6049,0,0,0,2.7744-1.2478m-1.6023-12.8946a5.644,5.644,0,0,1,2.77,2.6085v-2.5921H131.43V143.121a9.5782,9.5782,0,0,1-1.1721,5.25q-2.0131,3.0275-7.7187,3.0346a10.5681,10.5681,0,0,1-5.6286-1.3524,4.9962,4.9962,0,0,1-2.4076-4.0488h5.1143a2.1112,2.1112,0,0,0,.6455,1.19,3.955,3.955,0,0,0,2.5551.6455c1.6966,0,2.8236-.5717,3.3994-1.6987a8.6439,8.6439,0,0,0,.5593-3.6677v-1.1516a5.72,5.72,0,0,1-1.4507,1.7294,5.8321,5.8321,0,0,1-3.6452,1.0717,6.9087,6.9087,0,0,1-5.5385-2.4322,9.8453,9.8453,0,0,1-2.07-6.5938,11.11,11.11,0,0,1,1.9957-6.7393,6.5744,6.5744,0,0,1,5.6492-2.7293,6.25,6.25,0,0,1,2.3564.4139"/><path class="cls-1" d="M137.8505,147.4905l.5963.0369a7.3181,7.3181,0,0,0,1.32-.0533,2.34,2.34,0,0,0,1.0552-.377,2.5942,2.5942,0,0,0,.77-1.1761,2.9431,2.9431,0,0,0,.3033-1.084l-6.6061-18.7793h5.225l3.93,13.27,3.7128-13.27h5l-6.1675,17.6934q-1.7858,5.1081-2.8256,6.34-1.045,1.2264-4.1658,1.23c-.4179,0-.7519,0-1.008-.0082-.2521-.0082-.6311-.0246-1.1393-.0615Z"/><path class="cls-1" d="M161.5782,134.1866h9.401l-4.7005-12.5872Zm-5.9278,9.4645,9.4255-23.99h2.5675l9.1919,23.99h-2.3277l-2.7621-7.5241H160.816l-2.8318,7.5241Z"/><path class="cls-1" d="M193.0947,126.3933H195.09V143.65h-1.9957v-2.3891c-.2727.3053-.5738.629-.9037.9589a6.6276,6.6276,0,0,1-1.1495.918,6.9528,6.9528,0,0,1-1.51.6967,6.3864,6.3864,0,0,1-2.0019.2889,7.6935,7.6935,0,0,1-2.9036-.4877,4.7727,4.7727,0,0,1-1.8829-1.3442,5.4927,5.4927,0,0,1-1.0328-2.02,9.4313,9.4313,0,0,1-.3176-2.5162V126.3933h2.004v11.3291a5.0789,5.0789,0,0,0,1.0286,3.4178,4.3186,4.3186,0,0,0,3.4013,1.1843,4.9738,4.9738,0,0,0,2.2192-.4876,4.5954,4.5954,0,0,0,1.6474-1.3524,6.2968,6.2968,0,0,0,1.0326-2.0572,8.8227,8.8227,0,0,0,.369-2.633Z"/><path class="cls-1" d="M203.946,138.2558a5.091,5.091,0,0,0,1.6863,3.1514,5.6749,5.6749,0,0,0,3.4793.9179,5.9188,5.9188,0,0,0,1.8973-.2725,3.8385,3.8385,0,0,0,1.3195-.7171,3.0881,3.0881,0,0,0,.7808-1.01,2.81,2.81,0,0,0,.2664-1.2048,2.2136,2.2136,0,0,0-.8135-1.8831,6.4541,6.4541,0,0,0-2.0491-.9671,26.31,26.31,0,0,0-2.6657-.5922,13.0281,13.0281,0,0,1-2.6678-.7561,5.2672,5.2672,0,0,1-2.047-1.4282,3.845,3.845,0,0,1-.8176-2.633,4.487,4.487,0,0,1,1.5879-3.5489,6.5611,6.5611,0,0,1,4.4732-1.381,7.68,7.68,0,0,1,4.5529,1.2458,5.7513,5.7513,0,0,1,2.1145,4.1821h-2.0346a3.74,3.74,0,0,0-1.51-2.8134,5.6676,5.6676,0,0,0-3.1534-.8175,4.5032,4.5032,0,0,0-2.9015.8175,2.65,2.65,0,0,0-.9957,2.1454,2.09,2.09,0,0,0,.82,1.7867,6.5609,6.5609,0,0,0,2.0449.9958,27.2745,27.2745,0,0,0,2.6617.6844,13.4061,13.4061,0,0,1,2.672.8483,5.8336,5.8336,0,0,1,2.0449,1.4815,3.8332,3.8332,0,0,1,.8175,2.6043,4.4258,4.4258,0,0,1-.5306,2.18,4.5568,4.5568,0,0,1-1.4691,1.5819,6.6964,6.6964,0,0,1-2.215.9507,11.844,11.844,0,0,1-2.8174.3176,7.6135,7.6135,0,0,1-2.7171-.4508,5.9693,5.9693,0,0,1-2.0142-1.2458,5.8466,5.8466,0,0,1-1.297-1.8666,6.567,6.567,0,0,1-.5308-2.3031Z"/><path class="cls-1" d="M228.3062,143.7224c-.25.0409-.5718.1209-.9692.23a5.0735,5.0735,0,0,1-1.334.17,3.17,3.17,0,0,1-2.2826-.75,3.642,3.642,0,0,1-.7807-2.6822V128.0617h-2.43v-1.6679h2.43V121.599h1.9978v4.7948h3.2334v1.6679h-3.2334v11.829c0,.4221.0124.7848.0328,1.0983a1.8075,1.8075,0,0,0,.2028.7643.9545.9545,0,0,0,.5164.4364,2.9413,2.9413,0,0,0,.98.1352,5.1218,5.1218,0,0,0,.8155-.0717,7.8048,7.8048,0,0,0,.8217-.1659Z"/><path class="cls-1" d="M236.5009,143.6511H234.505V126.3942h1.9959v3.2333h.0634a5.826,5.826,0,0,1,2.1536-2.8789,6.4607,6.4607,0,0,1,3.4792-.8175v2.1638a5.94,5.94,0,0,0-2.799.5307,4.6808,4.6808,0,0,0-1.7477,1.5367,6.0284,6.0284,0,0,0-.9,2.2806,14.7392,14.7392,0,0,0-.25,2.75Z"/><path class="cls-1" d="M258.2373,134.5929a9.9207,9.9207,0,0,1-2.5653.7008c-.8647.1086-1.7294.2008-2.6.2623a7.4194,7.4194,0,0,0-3.5817,1.0306,2.9747,2.9747,0,0,0-1.2806,2.633,2.7971,2.7971,0,0,0,.3177,1.3811,2.8967,2.8967,0,0,0,.8319.9733,3.6025,3.6025,0,0,0,1.1966.5634,5.4026,5.4026,0,0,0,1.383.1865,9.1652,9.1652,0,0,0,2.336-.2991,6.4477,6.4477,0,0,0,2.0141-.9221,4.63,4.63,0,0,0,1.4138-1.5655,4.48,4.48,0,0,0,.5348-2.2457Zm-3.3664-.9978c.379-.0513.8278-.1127,1.3481-.2008a4.866,4.866,0,0,0,1.2868-.3709,1.0454,1.0454,0,0,0,.6127-.7766,4.8548,4.8548,0,0,0,.1188-1.02,3.42,3.42,0,0,0-.9815-2.5162,4.6058,4.6058,0,0,0-3.3132-.9815,8.7114,8.7114,0,0,0-1.9015.1865,4.1382,4.1382,0,0,0-1.5183.6311,3.4467,3.4467,0,0,0-1.0635,1.1966,5.0559,5.0559,0,0,0-.5492,1.883h-2.0366a6.192,6.192,0,0,1,.7027-2.6166,5.3974,5.3974,0,0,1,1.5512-1.7683,6.5206,6.5206,0,0,1,2.1966-.9937,10.8458,10.8458,0,0,1,2.6493-.3176,10.56,10.56,0,0,1,2.4486.2786,5.6131,5.6131,0,0,1,1.9979.9036,4.1762,4.1762,0,0,1,1.3359,1.6516,5.9309,5.9309,0,0,1,.48,2.5326v9.3927c0,.7807.1434,1.2724.4179,1.4814.2747.2131.8361.1619,1.68-.1454v1.5634c-.1515.043-.379.1127-.68.2008a3.1246,3.1246,0,0,1-.8832.1291,3.9257,3.9257,0,0,1-.8995-.0964,1.5839,1.5839,0,0,1-.8032-.3155,2.0413,2.0413,0,0,1-.48-.6065,2.4276,2.4276,0,0,1-.2541-.7623,5.7969,5.7969,0,0,1-.0614-.881,8.64,8.64,0,0,1-2.9035,2.133,8.5138,8.5138,0,0,1-3.5284.7336,7.8406,7.8406,0,0,1-2.1822-.3013,5.3345,5.3345,0,0,1-1.8524-.9343,4.4928,4.4928,0,0,1-1.7294-3.7292q0-4.4013,6.03-5.2005Z"/><rect class="cls-1" x="268.5995" y="119.6617" width="2.0019" height="23.9879"/><path class="cls-1" d="M278.5721,126.3927h1.9958V143.65h-1.9958Zm-.2356-6.731h2.1986v2.967h-2.1986Z"/><path class="cls-1" d="M298.9,134.5929a9.9736,9.9736,0,0,1-2.5634.7008c-.8667.1086-1.7334.2008-2.6022.2623a7.4046,7.4046,0,0,0-3.5817,1.0306,2.97,2.97,0,0,0-1.2806,2.633,2.841,2.841,0,0,0,.3155,1.3811,2.9681,2.9681,0,0,0,.8319.9733,3.6421,3.6421,0,0,0,1.1966.5634,5.411,5.411,0,0,0,1.3872.1865,9.1556,9.1556,0,0,0,2.3318-.2991,6.462,6.462,0,0,0,2.0163-.9221,4.6029,4.6029,0,0,0,1.4117-1.5655,4.5023,4.5023,0,0,0,.5369-2.2457Zm-3.3686-.9978c.3811-.0513.8278-.1127,1.3482-.2008a4.8056,4.8056,0,0,0,1.2848-.3709,1.046,1.046,0,0,0,.6168-.7766,4.8548,4.8548,0,0,0,.1188-1.02,3.4139,3.4139,0,0,0-.9836-2.5162,4.6027,4.6027,0,0,0-3.3132-.9815,8.7558,8.7558,0,0,0-1.9036.1865,4.1078,4.1078,0,0,0-1.5122.6311,3.4581,3.4581,0,0,0-1.0676,1.1966,5.1714,5.1714,0,0,0-.5511,1.883h-2.0305a6.1625,6.1625,0,0,1,.6986-2.6166,5.4086,5.4086,0,0,1,1.547-1.7683,6.6,6.6,0,0,1,2.2007-.9937,10.87,10.87,0,0,1,2.6493-.3176,10.5534,10.5534,0,0,1,2.4508.2786,5.6343,5.6343,0,0,1,1.9957.9036,4.1142,4.1142,0,0,1,1.3318,1.6516,5.8362,5.8362,0,0,1,.4815,2.5326v9.3927c0,.7807.1415,1.2724.4181,1.4814.2786.2131.8422.1619,1.6842-.1454v1.5634c-.1536.043-.3811.1127-.68.2008a3.1354,3.1354,0,0,1-.8832.1291,3.8584,3.8584,0,0,1-.8974-.0964,1.5545,1.5545,0,0,1-.8053-.3155,1.9827,1.9827,0,0,1-.4815-.6065,2.5283,2.5283,0,0,1-.2541-.7623,6.376,6.376,0,0,1-.0615-.881,8.7473,8.7473,0,0,1-2.8993,2.133,8.537,8.537,0,0,1-3.5305.7336,7.8406,7.8406,0,0,1-2.1822-.3013,5.3633,5.3633,0,0,1-1.8544-.9343,4.6365,4.6365,0,0,1-1.26-1.5511,4.7265,4.7265,0,0,1-.4692-2.1781q0-4.4013,6.0324-5.2005Z"/><path class="cls-1" d="M159.981,32.9569,150.56,0H127.9179l12.2613,36.2555q5.3572-.8851,10.7841-1.8032c2.9895-.4958,6.0139-.9978,9.0177-1.4958"/><path class="cls-1" d="M51.1532,54.5287c5.0713-1.1884,10.6282-2.3953,16.5007-3.7538,1.4016-.3094,2.8441-.6434,4.2846-.9713L88.9167,0H66.8937Z"/><path class="cls-1" d="M97.3808,44.26c6.7905-1.3421,13.8289-2.7313,21.06-4.1575V.0012h-21.06Z"/><path class="cls-1" d="M206.187,26.4435l1.713-.2315L216.8378.0008H194.8087L186.4,29.15q5.96-.8177,11.9109-1.627,3.9435-.5439,7.8766-1.08"/><path class="cls-1" d="M252.9554,21.5236c2.4342-.2746,4.8521-.5061,7.2555-.6454,4.0469-.2828,7.9974-.5635,11.8823-.8381L265,.0006H241.0157l-8.442,23.654c4.3767-.457,8.7227-.9118,12.9929-1.3585q3.7283-.39,7.3888-.7725"/><path class="cls-1" d="M39.0975,57.5489,22.64,0H0L21.0312,62.192c2.297-.5942,5.3009-1.3626,8.9522-2.301,2.6925-.6946,5.768-1.4835,9.1141-2.3421"/><path class="cls-1" d="M199.7192,36.4054q-7.7668,1.5307-15.5849,3.0674c-.25.0492-.5061.1005-.7561.1476L172.5819,77.011l-9.5054-33.2331c-3.3031.7478-6.6081,1.4937-9.8825,2.2354q-4.53,1.0543-9.0157,2.0614l18.0458,53.3668h20.0272l22.5106-66.03c-1.6782.3319-3.3523.6639-5.0427.9937"/><path class="cls-1" d="M273.7087,24.6051q-6.2978.8083-12.88,1.6638c-2.2294.26-4.4771.6045-6.7332.99L265.6026,63.11H239.6231l11.6732-35.3949c-1.6453.2705-3.2866.541-4.95.8115-5.3972.8851-10.903,1.7888-16.4763,2.7026L204.806,101.4415h22.1745l6.8766-20.8508h37.3558l6.6921,20.8508h22.988Z"/><path class="cls-1" d="M35.2521,78.1406c-3.16,1.0143-5.8275,1.8667-7.9646,2.547l7.0179,20.7546H54.3305l11.116-32.6c-5.0857,1.4609-9.8476,2.8153-14.2059,4.1779-2.0982.6721-13.3535,4.2784-15.9885,5.1205"/><path class="cls-1" d="M97.3808,101.4424h21.06V54.2471c-7.25,1.8749-14.2941,3.6965-21.06,5.45Z"/></svg>