<svg id="Layer_1" data-name="Layer 1" xmlns="http://www.w3.org/2000/svg" viewBox="0 0 302.99621 151.40519" height="52px" width="104px"><defs><style>.cls-1{fill:#002752;}.cls-2{fill:#8c7f72;}.cls-3{fill:#00b8de;}</style></defs><polygon class="cls-1" points="52.098 124.028 39.23 124.028 39.23 129.193 51.043 129.193 51.043 133.42 39.23 133.42 39.23 139.67 52.694 139.67 52.694 144.042 34.263 144.042 34.263 119.72 52.098 119.72 52.098 124.028"/><path class="cls-1" d="M72.168,127.0898c1.18021.97739,1.76826,2.58588,1.76826,4.83981v12.11384H69.11692v-10.9418a5.0352,5.0352,0,0,0-.37294-2.172,2.6489,2.6489,0,0,0-2.62481-1.38923,3.25146,3.25146,0,0,0-3.25588,2.03058,6.9434,6.9434,0,0,0-.459,2.7375v9.73492H57.70177V126.09808h4.553v2.61866a7.89381,7.89381,0,0,1,1.70686-1.9937,5.94354,5.94354,0,0,1,3.66364-1.09419A6.89349,6.89349,0,0,1,72.168,127.0898"/><path class="cls-1" d="M84.54508,130.48566a4.88433,4.88433,0,0,0-1.254,2.78463h8.0998a3.89366,3.89366,0,0,0-1.25194-2.842,4.11531,4.11531,0,0,0-2.78877-.96714,3.7127,3.7127,0,0,0-2.80509,1.02451m7.03434-4.06322a7.351,7.351,0,0,1,3.1063,2.65759,8.88219,8.88219,0,0,1,1.43428,3.721,22.419,22.419,0,0,1,.14958,3.5735H83.17633a4.32759,4.32759,0,0,0,1.881,3.79685,4.80225,4.80225,0,0,0,2.592.668,3.96855,3.96855,0,0,0,2.61256-.82781,3.84839,3.84839,0,0,0,.96711-1.22941h4.79884a5.85915,5.85915,0,0,1-1.74168,3.24565,8.74135,8.74135,0,0,1-6.76589,2.62071,9.80391,9.80391,0,0,1-6.33561-2.2109q-2.7446-2.20988-2.74363-7.19823c0-3.11862.82373-5.49958,2.47731-7.16544a8.67815,8.67815,0,0,1,6.43184-2.49572,10.34778,10.34778,0,0,1,4.22925.8442"/><path class="cls-1" d="M110.5778,125.63766c.06147.0082.1946.0164.40364.0287v4.81521c-.293-.03279-.55734-.05738-.791-.06558-.22742-.01229-.418-.01844-.5614-.01844-1.89126,0-3.16165.61881-3.80916,1.84618a7.19428,7.19428,0,0,0-.54709,3.20467v8.59567h-4.7353V126.05772H105.027v3.135a9.94243,9.94243,0,0,1,1.89533-2.45678,5.18016,5.18016,0,0,1,3.43215-1.10648c.09017,0,.16183.0041.22336.00819"/><path class="cls-1" d="M125.6758,138.93687a5.77649,5.77649,0,0,0,1.13107-3.969,6.12426,6.12426,0,0,0-1.07367-3.89725,3.52036,3.52036,0,0,0-2.883-1.33187,3.3976,3.3976,0,0,0-3.40139,2.32974,8.264,8.264,0,0,0-.49175,3.053,6.90675,6.90675,0,0,0,.52658,2.77848,3.41832,3.41832,0,0,0,3.41777,2.28466,3.60481,3.60481,0,0,0,2.77439-1.24785m-1.6023-12.89453a5.64357,5.64357,0,0,1,2.77026,2.60842v-2.592h4.58573V143.121a9.57808,9.57808,0,0,1-1.17208,5.24961q-2.01316,3.02742-7.71868,3.0346a10.56838,10.56838,0,0,1-5.62863-1.35236,4.99652,4.99652,0,0,1-2.40764-4.04888h5.11437a2.11111,2.11111,0,0,0,.64545,1.19049,3.95551,3.95551,0,0,0,2.55515.64544c1.6966,0,2.82354-.57168,3.39933-1.69864a8.64343,8.64343,0,0,0,.55934-3.66776v-1.15155a5.72208,5.72208,0,0,1-1.45066,1.72938,5.83247,5.83247,0,0,1-3.64527,1.07164,6.90851,6.90851,0,0,1-5.53846-2.43219,9.8452,9.8452,0,0,1-2.06953-6.59377,11.10983,11.10983,0,0,1,1.99575-6.73925,6.57417,6.57417,0,0,1,5.64914-2.7293,6.249,6.249,0,0,1,2.35643.4139"/><path class="cls-1" d="M137.85052,147.49053l.59624.03688a7.32051,7.32051,0,0,0,1.3196-.05327,2.33915,2.33915,0,0,0,1.05521-.377,2.5941,2.5941,0,0,0,.77045-1.17614,2.94372,2.94372,0,0,0,.30328-1.08394l-6.60606-18.77932h5.225l3.93,13.26949,3.71286-13.26949h4.99956l-6.16752,17.69334q-1.78571,5.10822-2.8256,6.33968-1.045,1.22635-4.16571,1.22942c-.418,0-.75194,0-1.00807-.0082-.25206-.0082-.63113-.02459-1.13926-.06146Z"/><path class="cls-2" d="M161.57821,134.18661h9.401l-4.70048-12.58716Zm-5.92778,9.46445,9.42547-23.99h2.56748l9.19191,23.99h-2.32773l-2.76207-7.524H160.816l-2.83179,7.524Z"/><path class="cls-2" d="M193.09468,126.39335h1.99575v17.2569h-1.99575v-2.38917c-.27264.30531-.57379.62906-.9037.959a6.6291,6.6291,0,0,1-1.14945.918,6.9534,6.9534,0,0,1-1.51013.69667,6.38622,6.38622,0,0,1-2.00188.28891,7.69442,7.69442,0,0,1-2.90358-.48767,4.77244,4.77244,0,0,1-1.88294-1.34416,5.49364,5.49364,0,0,1-1.03277-2.02034,9.42981,9.42981,0,0,1-.3176-2.5162V126.39335h2.004v11.32907a5.07869,5.07869,0,0,0,1.02864,3.41777,4.3187,4.3187,0,0,0,3.40132,1.18434,4.9736,4.9736,0,0,0,2.21911-.48767,4.59573,4.59573,0,0,0,1.64745-1.35236,6.29638,6.29638,0,0,0,1.03265-2.05722,8.82236,8.82236,0,0,0,.36893-2.633Z"/><path class="cls-2" d="M203.946,138.25577a5.09082,5.09082,0,0,0,1.68634,3.15141,5.67443,5.67443,0,0,0,3.47925.918,5.91881,5.91881,0,0,0,1.89732-.27252,3.84059,3.84059,0,0,0,1.31954-.71716,3.08806,3.08806,0,0,0,.78076-1.01017,2.80968,2.80968,0,0,0,.26639-1.20483,2.2135,2.2135,0,0,0-.81354-1.883,6.45208,6.45208,0,0,0-2.049-.96714,26.30878,26.30878,0,0,0-2.66571-.59217,13.03186,13.03186,0,0,1-2.66784-.75609,5.26723,5.26723,0,0,1-2.047-1.42817,3.84536,3.84536,0,0,1-.81754-2.633,4.48672,4.48672,0,0,1,1.58792-3.54892,6.56058,6.56058,0,0,1,4.47312-1.381,7.68,7.68,0,0,1,4.5529,1.24581,5.75129,5.75129,0,0,1,2.11456,4.18206h-2.03464a3.73991,3.73991,0,0,0-1.51013-2.81331,5.6677,5.6677,0,0,0-3.15346-.81756,4.50291,4.50291,0,0,0-2.90145.81756,2.64963,2.64963,0,0,0-.99575,2.14533,2.08973,2.08973,0,0,0,.81954,1.78675,6.56254,6.56254,0,0,0,2.04489.99582,27.30191,27.30191,0,0,0,2.66171.68438,13.40737,13.40737,0,0,1,2.672.8483,5.83368,5.83368,0,0,1,2.04489,1.48144,3.83326,3.83326,0,0,1,.81754,2.60432,4.4258,4.4258,0,0,1-.53064,2.18016,4.55649,4.55649,0,0,1-1.46911,1.58185,6.69672,6.69672,0,0,1-2.215.95074,11.84317,11.84317,0,0,1-2.81741.31761,7.61587,7.61587,0,0,1-2.71711-.45079,5.97149,5.97149,0,0,1-2.01413-1.2458,5.84622,5.84622,0,0,1-1.297-1.86667,6.56476,6.56476,0,0,1-.53076-2.30311Z"/><path class="cls-2" d="M228.30619,143.72237c-.25.041-.57179.12089-.96924.22949a5.0729,5.0729,0,0,1-1.33392.17007,3.16955,3.16955,0,0,1-2.28264-.74994,3.642,3.642,0,0,1-.78064-2.68218V128.06167h-2.43022v-1.66791h2.43022V121.599h1.99775v4.79472h3.23337v1.66791H224.9375v11.829c0,.4221.01238.78478.03277,1.09828a1.80777,1.80777,0,0,0,.20285.76429.95387.95387,0,0,0,.51638.43644,2.94089,2.94089,0,0,0,.97949.13523,5.1266,5.1266,0,0,0,.81554-.07171,7.78294,7.78294,0,0,0,.82166-.166Z"/><path class="cls-2" d="M236.50091,143.65106H234.505V126.39417h1.99587v3.23336h.06341a5.82475,5.82475,0,0,1,2.15358-2.87888,6.46008,6.46008,0,0,1,3.47924-.81757v2.16378a5.94065,5.94065,0,0,0-2.799.53069,4.68222,4.68222,0,0,0-1.74776,1.53677,6.02867,6.02867,0,0,0-.89957,2.28057,14.74279,14.74279,0,0,0-.24988,2.74979Z"/><path class="cls-2" d="M258.2373,134.59294a9.92117,9.92117,0,0,1-2.56529.70076c-.86468.1086-1.72936.20081-2.6003.26227a7.41809,7.41809,0,0,0-3.58167,1.03067,2.97456,2.97456,0,0,0-1.28064,2.633,2.79672,2.79672,0,0,0,.31766,1.381,2.89636,2.89636,0,0,0,.83192.97328,3.60393,3.60393,0,0,0,1.1966.56349,5.40378,5.40378,0,0,0,1.38306.18646,9.16174,9.16174,0,0,0,2.33592-.29916,6.44508,6.44508,0,0,0,2.01414-.92206,4.63075,4.63075,0,0,0,1.41383-1.56546,4.48054,4.48054,0,0,0,.53477-2.24573Zm-3.36644-.99789c.37907-.05122.82779-.11268,1.34818-.2008a4.86362,4.86362,0,0,0,1.28677-.37087,1.04517,1.04517,0,0,0,.61268-.77658,4.85371,4.85371,0,0,0,.11881-1.02042,3.4202,3.4202,0,0,0-.98149-2.5162,4.60582,4.60582,0,0,0-3.31316-.98148,8.71212,8.71212,0,0,0-1.90158.18646,4.13986,4.13986,0,0,0-1.51826.6311,3.44732,3.44732,0,0,0-1.06353,1.19663,5.05686,5.05686,0,0,0-.54915,1.88305h-2.03665a6.19271,6.19271,0,0,1,.70273-2.6166,5.39619,5.39619,0,0,1,1.55115-1.76831,6.52425,6.52425,0,0,1,2.1966-.99378,10.85093,10.85093,0,0,1,2.64933-.3176,10.5567,10.5567,0,0,1,2.4486.27867,5.61208,5.61208,0,0,1,1.99787.90362,4.17529,4.17529,0,0,1,1.33592,1.65152,5.93024,5.93024,0,0,1,.47949,2.53259v9.39274c0,.78068.14345,1.27244.418,1.48144.27464.2131.83605.16187,1.68022-.14548v1.56341c-.15158.043-.37907.1127-.68022.2008a3.12454,3.12454,0,0,1-.88319.12909,3.93066,3.93066,0,0,1-.89957-.09631,1.58477,1.58477,0,0,1-.80316-.31554,2.04048,2.04048,0,0,1-.47949-.60652,2.42545,2.42545,0,0,1-.25412-.76223,5.7943,5.7943,0,0,1-.06141-.88108,8.63958,8.63958,0,0,1-2.90345,2.133,8.51456,8.51456,0,0,1-3.5284.73355,7.8396,7.8396,0,0,1-2.18221-.30121,5.33488,5.33488,0,0,1-1.85243-.93435,4.704,4.704,0,0,1-1.26626-1.55111,4.75213,4.75213,0,0,1-.46311-2.17812q0-4.4013,6.03027-5.20042Z"/><rect class="cls-2" x="268.59949" y="119.66168" width="2.00188" height="23.98795"/><path class="cls-2" d="M278.5721,126.39273h1.99575v17.2569H278.5721Zm-.23561-6.731h2.1986v2.967h-2.1986Z"/><path class="cls-2" d="M298.90028,134.59294a9.97446,9.97446,0,0,1-2.56341.70076c-.86668.1086-1.73336.20081-2.60217.26227a7.40337,7.40337,0,0,0-3.58167,1.03067,2.96976,2.96976,0,0,0-1.28064,2.633,2.84061,2.84061,0,0,0,.31553,1.381,2.96691,2.96691,0,0,0,.83192.97328,3.64159,3.64159,0,0,0,1.1966.56349,5.41085,5.41085,0,0,0,1.38719.18646,9.15357,9.15357,0,0,0,2.33179-.29916,6.45818,6.45818,0,0,0,2.01626-.92206,4.60275,4.60275,0,0,0,1.41171-1.56546,4.50207,4.50207,0,0,0,.53689-2.24573Zm-3.36856-.99789c.38107-.05122.82779-.11268,1.34818-.2008a4.802,4.802,0,0,0,1.28476-.37087,1.04583,1.04583,0,0,0,.61681-.77658,4.853,4.853,0,0,0,.11881-1.02042,3.41389,3.41389,0,0,0-.98362-2.5162,4.60251,4.60251,0,0,0-3.31315-.98148,8.75625,8.75625,0,0,0-1.90358.18646,4.11066,4.11066,0,0,0-1.51226.6311,3.45866,3.45866,0,0,0-1.06753,1.19663,5.17043,5.17043,0,0,0-.55115,1.88305h-2.03052a6.16327,6.16327,0,0,1,.6986-2.6166,5.40906,5.40906,0,0,1,1.547-1.76831,6.6021,6.6021,0,0,1,2.20073-.99378,10.87483,10.87483,0,0,1,2.64933-.3176,10.54981,10.54981,0,0,1,2.45072.27867,5.63463,5.63463,0,0,1,1.99575.90362,4.11478,4.11478,0,0,1,1.33179,1.65152,5.83621,5.83621,0,0,1,.4815,2.53259v9.39274c0,.78068.14144,1.27244.41808,1.48144.27864.2131.84217.16187,1.68422-.14548v1.56341c-.15358.043-.38107.1127-.68022.2008a3.13483,3.13483,0,0,1-.88319.12909,3.86358,3.86358,0,0,1-.89745-.09631,1.55562,1.55562,0,0,1-.80528-.31554,1.98489,1.98489,0,0,1-.48149-.60652,2.53179,2.53179,0,0,1-.25413-.76223,6.37932,6.37932,0,0,1-.0614-.88108,8.74677,8.74677,0,0,1-2.89933,2.133,8.53782,8.53782,0,0,1-3.53052.73355,7.84023,7.84023,0,0,1-2.18221-.30121,5.36409,5.36409,0,0,1-1.85443-.93435,4.636,4.636,0,0,1-1.26013-1.55111,4.7263,4.7263,0,0,1-.46924-2.17812q0-4.4013,6.0324-5.20042Z"/><path class="cls-3" d="M159.981,32.95694,150.55957.00041H127.91786l12.26139,36.25546q5.35712-.88517,10.784-1.80314c2.9895-.49585,6.01389-.99787,9.01777-1.49579"/><path class="cls-3" d="M51.15317,54.52868c5.07129-1.18843,10.62826-2.39531,16.50077-3.7538,1.40157-.30941,2.844-.6434,4.28452-.97126L88.91671,0h-22.023Z"/><path class="cls-3" d="M97.38082,44.26019c6.79046-1.34211,13.82886-2.73133,21.05986-4.15747V.00123H97.38082Z"/><path class="cls-3" d="M206.187,26.44349,207.9,26.212,216.83782.00081H194.80866l-8.40921,29.14946q5.95968-.81759,11.911-1.62694,3.94341-.544,7.87657-1.07984"/><path class="cls-3" d="M252.9554,21.52359c2.43422-.27456,4.85206-.5061,7.25551-.64543,4.0469-.28277,7.99738-.56349,11.88233-.83806L264.99956.00063H241.01567l-8.442,23.65395c4.37669-.45693,8.72274-.91182,12.99288-1.35849q3.72823-.39036,7.38882-.7725"/><path class="cls-3" d="M39.09751,57.54894,22.63971,0H0L21.03122,62.19205c2.297-.59422,5.30084-1.36261,8.95217-2.30106,2.69247-.69463,5.768-1.4835,9.11412-2.34205"/><path class="cls-1" d="M199.71925,36.40545q-7.767,1.53061-15.58493,3.06739c-.25.04918-.50613.10041-.75613.14753L172.58191,77.011l-9.50545-33.23314c-3.303.74789-6.608,1.49373-9.88244,2.23548q-4.5304,1.05423-9.01571,2.06132l18.04579,53.36688h20.02715L204.7619,35.41168c-1.67822.33194-3.35231.66388-5.04265.99377"/><path class="cls-1" d="M273.70867,24.60512q-6.29772.80834-12.8802,1.66381c-2.22937.26023-4.47712.60446-6.73312.98969l11.50726,35.85179H239.6231l11.67322-35.39486c-1.64532.27046-3.28664.54094-4.95035.81141-5.3972.88517-10.903,1.7888-16.47625,2.70266l-25.06367,70.21192h22.17447l6.87657-20.85088h37.35583l6.6921,20.85088h22.988Z"/><path class="cls-1" d="M35.25209,78.14062c-3.15965,1.01428-5.82748,1.86667-7.96461,2.54695l7.018,20.75458H54.33052l11.116-32.6c-5.08567,1.46095-9.84762,2.81536-14.20593,4.178-2.09817.67207-13.3535,4.27836-15.9885,5.1205"/><path class="cls-1" d="M97.38082,101.44235h21.05986V54.24715c-7.24944,1.87486-14.294,3.69644-21.05986,5.45041Z"/></svg>