<svg id="Layer_1" data-name="Layer 1" xmlns="http://www.w3.org/2000/svg" viewBox="0 0 267.79314 77.48896"  height="44" width="154"><defs><style>.cls-1{fill:#00af85;}.cls-2{fill:#393f3e;}</style></defs><path class="cls-1" d="M171.40476,28.87518a9.24536,9.24536,0,0,1,10.4184-4.50653l6.18286-6.5874a17.72841,17.72841,0,0,0-25.6062,11.09393Z"/><path class="cls-1" d="M188.39152,30.52191a9.29813,9.29813,0,0,1-16.98658,7.35327h-9.00506a17.72772,17.72772,0,1,0,32.155-13.9201Z"/><path class="cls-1" d="M149.44572,37.87518a9.3,9.3,0,1,1,.00018-9h9.00488a17.709,17.709,0,0,0-27.26733-10.05572l-.02844-2.10193h-9.38086v44.5h9.98242l-.176-13.01666a17.71078,17.71078,0,0,0,26.87012-10.32569Z"/><path class="cls-2" d="M75.79008,46.02785h-.13935a9.83353,9.83353,0,0,1-4.63455,3.90272A15.94323,15.94323,0,0,1,64.91849,51.115a15.73621,15.73621,0,0,1-4.56437-.66164,11.51462,11.51462,0,0,1-3.86764-1.98646,9.57386,9.57386,0,0,1-2.64809-3.27515,9.99191,9.99191,0,0,1-.97543-4.52928,10.37415,10.37415,0,0,1,1.08019-4.94783,9.66267,9.66267,0,0,1,2.92679-3.34534,14.53466,14.53466,0,0,1,4.216-2.05562,30.82166,30.82166,0,0,1,4.91274-1.08019,47.09589,47.09589,0,0,1,5.08717-.418q2.54334-.06866,4.70423-.06968a5.43586,5.43586,0,0,0-1.98646-4.425,7.16327,7.16327,0,0,0-4.70371-1.63758,10.22713,10.22713,0,0,0-4.70372,1.08019,12.8467,12.8467,0,0,0-3.798,2.96138l-5.57489-5.71424a19.16682,19.16682,0,0,1,6.829-4.07665A24.41029,24.41029,0,0,1,69.936,15.575a21.14023,21.14023,0,0,1,7.56134,1.14987,11.00127,11.00127,0,0,1,4.73881,3.37992,13.02989,13.02989,0,0,1,2.47366,5.47012,35.9619,35.9619,0,0,1,.69673,7.49167V50.27894H75.79008ZM73.21166,35.436q-1.18623,0-2.96189.10425a15.04,15.04,0,0,0-3.4145.59248,7.60284,7.60284,0,0,0-2.78745,1.46314A3.373,3.373,0,0,0,62.898,40.31361a2.988,2.988,0,0,0,1.60249,2.78745,6.6973,6.6973,0,0,0,3.34534.90626,10.47615,10.47615,0,0,0,2.96137-.41855A8.83661,8.83661,0,0,0,73.351,42.40432,5.72751,5.72751,0,0,0,75.12793,40.453a5.62337,5.62337,0,0,0,.66215-2.78745V35.436Z"/><path class="cls-2" d="M11.5459,5.59256,17.499,34.51785h.1211L24.1748,5.59256h8.71875L39.32812,34.638h.12012L45.52246,5.59256H57.00781l-11.78613,44.5H35.23926L28.56445,21.28787h-.12011L21.76953,50.09256H11.48633L0,5.59256Z"/><path class="cls-2" d="M119.51955,16.71756l-16.71679,44.5h-10.584l5.292-12.80859L85.12307,16.71756H95.76662l6.67481,19.36377h.12011l6.375-19.36377Z"/><path class="cls-1" d="M214.99224,16.71756h9.32031v3.54785h.12012c1.02246-1.62353,3.12792-4.69043,9.08105-4.69043a14.379,14.379,0,0,1,8.53906,2.88672c1.80371,1.56348,3.84864,4.20947,3.84864,10.76416v20.8667H235.919V31.87186c0-2.34522,0-6.91553-5.23144-6.91553-5.71289,0-5.71289,4.93115-5.71289,6.97559V50.09256h-9.98242Z"/><path class="cls-1" d="M262.98259,16.71756h4.81055v7.57715h-4.81055V50.09256h-9.98242V24.29471h-4.93164V16.71756h4.93164V5.59256h9.98242Z"/><path class="cls-2" d="M205.6179,0a5.58394,5.58394,0,0,0-4.77674,8.49l-18.7077,19.93189a5.583,5.583,0,0,0-7.97485,3.4533H146.692a5.59246,5.59246,0,1,0-.00006,3h27.46674a5.58892,5.58892,0,1,0,10.15979-4.39752l18.70758-19.932A5.59157,5.59157,0,1,0,205.6179,0Z"/><path class="cls-1" d="M210.60911,50.09256h-9.98242v-33.375h9.98242Z"/><path class="cls-2" d="M179.84077,56.62923H194.023c1.83178.0297,4.04765.05918,5.85,1.68418a5.67128,5.67128,0,0,1,1.86148,4.46144c0,4.99358-4.22518,5.67288-5.6137,5.90913l7.682,8.805h-3.87058l-7.06162-8.332H182.79533v8.332h-2.95456Zm2.92509,2.51153V66.7046h10.31162c1.625,0,3.69327-.02948,4.875-1.5953a3.53487,3.53487,0,0,0,.70923-2.2161,4.04,4.04,0,0,0-.62057-2.21609c-.94548-1.50687-2.45236-1.50687-3.8114-1.53635Z"/><path class="cls-2" d="M209.83221,56.62923h19.264v2.57048H212.78677V66.7046h14.26076V69.157H212.78677v5.7613h16.30941V77.489h-19.264Z"/><path class="cls-2" d="M237.45539,56.62923h3.04322V77.489h-3.04322Z"/><path class="cls-2" d="M247.79023,56.62923h20.00291v2.48205h-8.5388V77.489h-2.95479V59.11128h-8.50932Z"/></svg>