<svg id="Layer_1" data-name="Layer 1" xmlns="http://www.w3.org/2000/svg" viewBox="0 0 114.36 170.66" width="54px" height="80px"><defs><style>.cls-1{fill:#fff;fill-rule:evenodd;}</style></defs><path class="cls-1" d="M306.79,462.39c-1.94-.79-6-2.56-10.15-2.56-4.5,0-7.5,2.56-7.5,6.26,0,6.17,7.94,7.85,13.5,11.55,4.68,3.09,7,5,7,10.58,0,8.46-6.7,12.16-15.09,12.16a38.33,38.33,0,0,1-9.88-1.32v-5.29c2.21,1.06,6.53,2.91,10.68,2.91,5.38,0,8.74-2.55,8.74-7.4,0-6-6.45-8.11-12.8-11.55-3.71-2-7.06-4.94-7.06-10.58,0-6.79,5.21-10.75,13.41-10.75a53,53,0,0,1,9.18,1.05v4.94Z" transform="translate(-239.2 -329.72)"/><polygon class="cls-1" points="86.57 148.01 74.48 127.38 80.39 127.38 89.66 143.16 98.83 127.38 103.95 127.38 92.04 147.21 105.45 169.96 99.45 169.96 89.04 152.15 78.36 169.96 73.42 169.96 86.57 148.01 86.57 148.01"/><path class="cls-1" d="M266.29,457.1h-5.65l-14.3,42.58H251l4.24-13.49.44-1.32h14.82l.44,1.32,4.42,13.49h5.29L266.29,457.1ZM263.11,462h.09l6.26,19.57h-12.7L263.11,462Z" transform="translate(-239.2 -329.72)"/><path class="cls-1" d="M353.53,385.77l0,0c0-.25,0-.5,0-.75,0-.57,0-1.14-.07-1.7l-.09-1.19c-.05-.56-.1-1.13-.16-1.69l-.15-1.16c-.07-.56-.15-1.12-.24-1.67,0-.08,0-.16,0-.24h0v0c-.05-.28-.11-.56-.17-.84-.09-.5-.17-1-.28-1.48,0-.1,0-.21-.07-.32-.07-.32-.15-.64-.22-1s-.21-.89-.32-1.33l-.09-.31c-.1-.36-.2-.71-.31-1.07-.06-.21-.11-.43-.18-.64h0a.56.56,0,0,1,0-.12l-.27-.84c-.08-.25-.17-.51-.26-.77s-.17-.51-.26-.77l-.12-.35-.27-.73-.21-.55c-.08-.21-.17-.41-.25-.62l-.23-.57c-.11-.26-.22-.53-.34-.8h0l-.06-.14c-.09-.21-.19-.41-.28-.61l0-.07-.33-.72c-.06-.12-.11-.25-.17-.37l-.2-.42a1.51,1.51,0,0,1-.11-.22l-.32-.62c-.07-.15-.14-.3-.22-.44l-.25-.48-.15-.28c-.1-.2-.21-.39-.32-.58l-.24-.43-.13-.24c-.08-.13-.16-.26-.23-.39l-.33-.55-.38-.64a1.37,1.37,0,0,0-.13-.2l-.18-.3c-.07-.12-.15-.22-.22-.33s-.13-.21-.19-.31l-.24-.37c-.09-.12-.16-.25-.25-.37l-.35-.52-.18-.27-.06-.07-.06-.09-.25-.35-.51-.7c-.16-.23-.32-.45-.49-.67l-.12-.16,0,0-.2-.25-.37-.47c-.16-.21-.33-.41-.49-.61l-.41-.52-.07-.08-.12-.14-.24-.28-.58-.66,0-.06-.37-.42-.12-.13-.39-.42c-.16-.18-.32-.35-.49-.52l-.47-.51-.09-.09-.18-.18-.26-.26-.39-.4-.28-.27h0l-.06-.06-.19-.19-.07-.06-.39-.37-.5-.46-.41-.38,0,0-.13-.11a1.8,1.8,0,0,0-.2-.19h0l-.48-.41-.48-.42-.18-.15-.26-.22-.33-.27,0,0h0l-.08-.07-.21-.16-.06-.05-.08-.07-.41-.32-.2-.17-.43-.32-.37-.28,0,0-.26-.19-.1-.07-.2-.15h0l-.07-.06-.32-.23-.44-.31-.4-.28-.08-.06-.11-.07h0l-.11-.08-.36-.25-.12-.08-.31-.2-.37-.24-.23-.15-.23-.14-.08-.06a2.26,2.26,0,0,1-.26-.16l-.39-.24-.38-.23-.24-.14h0l0,0-.27-.16-.4-.23-.19-.12h0l-.32-.18-.52-.29-.38-.21-.16-.08-.07,0-.17-.09-.06,0-.32-.17-.18-.09-.62-.31-.43-.22-.1-.05-.25-.12-.07,0-.08,0-.15-.07h0l-.26-.12-.4-.18-.46-.21-.29-.13-.29-.13-.06,0-.12-.05-.19-.08-.23-.1-.19-.08,0,0-.22-.09-.14-.05-.11-.05-.32-.13-.24-.09-.16-.06-.35-.14-.46-.17h0l0,0-.26-.1-.07,0-.14-.05-.08,0-.09,0-.21-.08-.34-.12-.38-.13-.22-.06-.47-.16-.07,0-.25-.08h-.06l-.08,0-.18-.06-.1,0-.09,0-.06,0-.23-.07-.55-.16-.25-.07h0l-.25-.07-.17-.05-.18,0-.15,0h0l-.36-.09-.33-.09-.12,0h0l-.23,0-.51-.12-.24-.06-.1,0-.14,0-.18,0H309l-.41-.09-.24,0-.21-.05-.13,0-.16,0-.1,0h-.05l-.2,0-.24,0-.33-.07-.26-.05h-.09l-.22,0-.33-.06h-.09l-.1,0-.35-.05-.33-.06H305l-.14,0h-.14l-.3-.05H304l-.22,0-.45-.05-.31,0-.14,0h-.28l-.18,0h-.25l-.29,0-.24,0h-.26l-.32,0-.22,0h-.22l-.18,0h-.1l-.46,0h-1.49c-.65,0-1.3,0-2,0-.82,0-1.62,0-2.43.06h-.17c-.55,0-1.11.07-1.66.11L291,330c-.54,0-1.08.12-1.61.18l-.28,0h0l-.37.06-.48.07-1,.15-1,.17-.69.13-.87.17-.54.12h0l-.43.1-.69.16-.85.2-.42.12-.47.13-.68.19-.42.11-.51.16-.8.25h0l-.18.06-.07,0-.27.09-.21.07-.93.33-.69.24-.35.14-.31.11-.86.35c-.18.07-.37.14-.54.22l-.62.26-.78.34h0l-.17.08-.15.07-.07,0-.45.22-.69.32-.26.12-.15.08-.19.09-.65.34-.3.16-.27.13-.41.21a2.69,2.69,0,0,1-.29.16,2.25,2.25,0,0,1-.21.12l-.67.39-1,.6-.52.31-.42.27-.34.21h0l-.11.07-.75.5-.35.22-.23.15-.1.08-.07,0h0l-.23.16-.51.36-.36.26h0l-.49.35-.15.12,0,0-.39.29-.4.3-.16.13-.06,0-.26.21a1.84,1.84,0,0,0-.22.17l-.14.11-.32.26-.18.15-.25.19-.27.23-.54.47-.24.2-.27.23c-.06.06-.12.1-.17.16l-.12.1-.24.21-.58.55-.54.5-.14.13-.22.21,0,0-.33.32-.68.68-.48.49-.19.21a2.39,2.39,0,0,0-.22.23l-.29.3-.15.17-.33.36c-.09.1-.17.2-.26.29l-.35.4-.15.16-.27.33-.12.14-.18.2-.15.19-.34.41-.32.39-.22.27-.14.18-.41.54c-.1.12-.2.25-.29.38s-.25.32-.37.49l-.16.21h0l-.06.09-.09.11-.37.53-.06.08-.42.61-.09.12h0a.36.36,0,0,0-.07.1l-.24.35-.18.27-.21.32-.16.27-.24.36c-.1.15-.2.32-.29.47l-.33.53a1.74,1.74,0,0,1-.11.18l-.21.36c-.06.1-.12.19-.17.29l-.16.29c-.08.12-.14.25-.22.38l-.14.26c-.12.21-.24.41-.35.62l-.06.11c-.05.09-.09.18-.14.26l-.29.58c-.14.25-.27.51-.4.77l0,0a1.24,1.24,0,0,0-.1.2l-.06.1h0l-.16.33c-.07.14-.13.29-.2.43s0,.07,0,.11c-.21.42-.4.86-.59,1.29l-.19.43s0,.07-.05.1l-.15.38c-.16.38-.31.77-.46,1.15-.09.21-.17.42-.25.63s-.09.23-.13.35l0,0-.14.38a.42.42,0,0,1,0,.1v0a.14.14,0,0,1,0,.06l-.22.64c-.06.16-.11.32-.17.47s-.09.28-.13.42l-.15.45c-.07.22-.13.44-.2.66-.12.39-.23.78-.34,1.17l-.21.78c0,.16-.09.32-.13.47s0,.06,0,.09h0s0,.07,0,.1c-.07.29-.14.57-.2.86l-.27,1.15-.18.93c0,.12-.05.24-.07.36-.08.42-.16.83-.23,1.25a2.56,2.56,0,0,1-.05.27h0c-.06.38-.12.76-.17,1.15s-.13,1-.19,1.49-.09.85-.13,1.28c0,.24-.05.48-.07.71l0,0c-.12,1.47-.19,2.95-.19,4.45v.28h0c0,.59,0,1.17,0,1.75v.1a.49.49,0,0,1,0,.12v.14h0v.12c0,.05,0,.11,0,.17v.27c0,.1,0,.2,0,.3v.07a1.62,1.62,0,0,0,0,.22v.12l0,.37c0,.07,0,.13,0,.19a2.29,2.29,0,0,1,0,.25,2.64,2.64,0,0,1,0,.29,1.79,1.79,0,0,1,0,.23c0,.11,0,.22,0,.34a1.94,1.94,0,0,0,0,.24.41.41,0,0,0,0,.11v.18l0,.17a2.64,2.64,0,0,0,0,.28c0,.12,0,.24.05.36s0,.25,0,.38V394l0,.25,0,.25a.17.17,0,0,1,0,.07c0,.09,0,.19,0,.28l0,.27s0,.07,0,.11v0l0,.15c0,.06,0,.11,0,.16s0,.15,0,.22l.06.4,0,.2c0,.07,0,.13,0,.2a.5.5,0,0,1,0,.12l.06.36,0,.19,0,.11s0,.05,0,.08a.29.29,0,0,1,0,.09l.06.3a1.55,1.55,0,0,0,0,.21,1.77,1.77,0,0,0,0,.2s0,.05,0,.08l0,.07a1,1,0,0,0,0,.17c0,.12.05.23.07.35s.05.23.07.35l0,.1.06.28c.05.18.09.37.13.55s0,.14,0,.2a1.62,1.62,0,0,1,0,.19.83.83,0,0,1,0,.15l0,.12c0,.06,0,.13,0,.19s0,.06,0,.09l0,.12c0,.09.05.18.08.26s0,.19.07.29l0,.13c0,.13.07.25.11.37s.09.34.14.51l0,.16a2.17,2.17,0,0,1,.07.24v0l0,.07,0,.08c0,.11.06.21.1.32a1.21,1.21,0,0,0,0,.18.93.93,0,0,1,0,.13l0,.06c0,.13.09.26.13.4s.09.29.14.44,0,.15.08.23l0,.09.05.14,0,.08.06.18c.06.17.12.34.19.51l0,.06.09.28,0,.09s0,.07,0,.11.08.21.11.31l0,.08.08.18,0,.08v0l0,.09a2.49,2.49,0,0,1,.11.29l.15.36c0,.13.1.26.16.39l.09.24.08.18a.37.37,0,0,0,.05.11.5.5,0,0,0,0,.13l0,.05h0l0,.06.07.15,0,.05v0c.07.15.14.31.2.46l.11.24.05.12a1.3,1.3,0,0,0,.08.17l.12.28.07.13.21.45.2.42v0l0,.09c.05.11.1.22.16.33l.18.36,0,.08v0l.06.11.16.32a.47.47,0,0,1,0,.1,1.62,1.62,0,0,1,.1.18l0,0v0h0c.08.14.15.28.22.42l0,.07.08.16.14.25.18.3.24.44a2.12,2.12,0,0,1,.11.21.86.86,0,0,1,.1.16,2.39,2.39,0,0,0,.13.21l.24.41a2.53,2.53,0,0,0,.13.22l.18.3.13.21.15.24,0,0,.11.19.12.19.09.15h0l.08.13.15.23,0,0,.32.49.15.22.21.3,0,.06c.06.08.11.18.18.26h0l.07.11.1.14.25.35.18.26.43.57.22.3,0,.06.13.18.09.11a.86.86,0,0,1,.07.1l0,0h0l.2.26.16.21a1.13,1.13,0,0,1,.1.13l.22.27.44.54.19.24.14.16a2.2,2.2,0,0,0,.2.23c.1.13.2.26.31.38l.14.16a1.54,1.54,0,0,0,.17.19l.37.42c.11.13.22.26.34.38l.16.18.13.15.17.18.26.27h0l.39.41c.14.14.27.29.41.44l.17.16.23.24.31.3.55.54.06.05.24.23.26.25.37.34.06.05.24.23.51.45.07.06.27.24.37.32.57.48.39.32.23.19.07.05c.1.08.19.17.29.24l.1.08.22.17.46.36.37.28.12.09.17.14.14.09.34.25.18.13.24.17.12.09.23.17.54.37.34.24.3.19.3.2.07.05.08,0,.63.41.65.41c.11.06.22.14.33.21h0l.12.07.29.17.45.26.75.44.37.2.33.18.43.24.29.15.43.22.5.25.66.34.42.2.28.13.18.09.58.26.77.34.47.21.35.15.55.22.1,0,.7.29.67.25.54.2.44.15.07,0,.49.17.14.06h0c.18.07.37.12.55.18l.91.3.31.09,1.36.38,1.16.32c.52.13,1.05.24,1.58.36l1,.23h0c1.63.33,3.28.58,5,.76l.39,0c.67.07,1.34.12,2,.16l.76.06h0c1.06.06,2.13.1,3.21.1.92,0,1.83,0,2.75-.07l.41,0,.56-.05c.58,0,1.16-.07,1.74-.13l.84-.09h.26c.52-.06,1.05-.12,1.57-.2l1.17-.18c.49-.08,1-.16,1.46-.26l1.2-.23,1.39-.32,1.2-.29,1.43-.41c.72-.21,1.44-.43,2.16-.67l1.14-.38h0a57.31,57.31,0,0,0,33.8-32.58l0-.07c.09-.23.17-.46.25-.68.18-.45.35-.9.51-1.36s.27-.81.41-1.21.3-.91.44-1.37l.36-1.27c.12-.45.25-.91.36-1.37s.21-.89.31-1.34.21-.89.3-1.34.17-1,.25-1.43.15-.8.21-1.19h0c0-.05,0-.1,0-.15,0-.25.06-.49.1-.74.07-.51.13-1,.19-1.54,0-.15,0-.3,0-.45s0-.43.05-.65q.07-.79.12-1.59c0-.2,0-.39,0-.58s0-.23,0-.35q.06-1.25.06-2.52C353.56,386.48,353.54,386.13,353.53,385.77Zm-79.39,35.54H265.4v-14.1l8.74-12.08Zm0-41.25L265.05,368v-14.9h9.09Zm10.59,41.25h-8.91V392.84l8.91-12.34Zm0-43.9-6.18,8.47-2.73-3.62V353.08h8.91Zm1.68-24.06,8,10.66-8,11.11Zm8.91,55.8-8.91,12.16v-43.1L295.32,366Zm10.5,12.16-8.91-12.16V366l8.91,12.26Zm0-46.19-8-11.11,8-10.66Zm10.59,46.19H307.5V380.5l8.91,12.34Zm0-39.05-2.82,3.7-6.09-8.46V353.08h8.91Zm10.41,39.05h-8.73V395.13l8.73,12.08Zm.36-53.33-9.09,12.08v-27h9.09Z" transform="translate(-239.2 -329.72)"/></svg>