<svg version="1.1" id="Layer_1" xmlns="http://www.w3.org/2000/svg" xmlns:xlink="http://www.w3.org/1999/xlink" x="0px" y="0px"
	 viewBox="0 0 417 70" style="enable-background:new 0 0 417 70;" xml:space="preserve" height="40px" width="146px">
<style type="text/css">
	.st0{fill:#FFFFFF;}
</style>
<path class="st0" d="M0,66.9h7.4V3.8H0V2.4h26.2C41.7,2.4,50,8.3,50,18c0,8.4-6.8,14.5-18.7,15.3C44.8,34.6,52,40.6,52,50.3
	c0,10.2-8.5,18-22.4,18H0V66.9z M21.5,32.7c12.8,0,18.8-4,18.8-13.5c0-9.1-6.3-15.2-17.7-15.2h-5.3v28.7
	C18.8,32.7,20.2,32.7,21.5,32.7z M21.6,66.9c13.2,0,19.6-5.1,19.6-16.9c0-10.8-7.2-16.2-21.3-16.2c-0.8,0-1.7,0.1-2.6,0.1v33H21.6
	L21.6,66.9z"/>
<path class="st0" d="M62.2,33.6c3.8-4,8.4-6.1,13.4-6.1c10.4,0,19.4,9.7,19.4,21c0,5.5-2.1,10.7-6.1,14.9c-3.7,4-8.2,6-13.3,6
	c-5,0-9.6-2-13.4-6c-4-4.2-6.1-9.5-6.1-14.9C56.1,43,58.2,37.7,62.2,33.6z M75.6,68C82.8,68,86,63.6,86,54.5v-12
	c0-9.2-3.2-13.5-10.4-13.5s-10.5,4.4-10.5,13.5v12C65.1,63.6,68.4,68,75.6,68z"/>
<path class="st0" d="M131.8,69.2c-4.2,0-7.1-2.3-8-6.3c-2.6,4.4-7.3,6.6-14.2,6.6c-6.7,0-11.5-4.4-11.5-10c0-8.4,8.6-13.4,24.8-13.4
	c0.2,0,0.3,0,0.5,0V36c0-4.9-2.1-7.2-7.7-7.2c-5.4,0-8.6,3.4-8.6,4.9c0,0.8,2.8,1.6,2.8,4.4c0,2.9-1.7,4.7-4.3,4.7
	c-2.8,0-4.6-1.9-4.6-4.7c0-5.6,5.9-10.7,14.9-10.7c4.4,0,8,1.2,11.2,3.5c3.8,2.8,4.1,5.1,4.1,9.6v20c0,4.3,1,6.3,3,6.3
	c1.8,0,3.2-1.3,5.1-3.8l1.1,1C137.6,67.5,135.1,69.2,131.8,69.2z M123.4,47.6c-1.1-0.1-2.1-0.1-3-0.1c-9.2,0-13.6,3.5-13.6,11
	c0,5.7,2.6,8.9,7,8.9c3.8,0,7.6-2.3,9.6-6.3V47.6z"/>
<path class="st0" d="M138.6,66.9h5.7V30.1h-5.7v-1.4h4.8c4.2,0,7.3-0.4,9.3-1.2v10.4c2.8-7,6.3-10.4,11-10.4c3.9,0,6.4,2.2,6.4,5.2
	s-1.6,4.8-4,4.8c-2.4,0-4.5-1.9-4.5-4.2c0-1.3,0.7-2.5,1.9-3.9c-0.4-0.1-0.8-0.2-1.2-0.2c-3.6,0-7.6,5.1-9.6,14.4v23.3h5.5v1.4
	h-19.6L138.6,66.9L138.6,66.9z"/>
<path class="st0" d="M188.8,69.5c-11,0-19-8.4-19-21.1c0-11.8,8.7-20.8,18.1-20.8c5.7,0,10.5,3.2,13.3,9.2v-33h-5.7V2.4h4.8
	c3.4,0,6.3-0.7,9.3-2.4v66.9h5.8v1.4h-14.1v-6.6C197.9,66.9,193.9,69.5,188.8,69.5z M188.3,68c5.8,0,10.2-3.4,12.9-9.9V40.3
	c-2.6-7.1-7.3-11-12.7-11c-6.4,0-9.6,4.5-9.6,13.3v11.4C178.9,63.6,181.4,68,188.3,68z"/>
<path class="st0" d="M215.4,66.9h7.5V3.8h-7.5V2.4h27.8c15.3,0,23,5.5,23,15.6c0,9-6.4,14.4-18.7,15.6c11.6,1.7,15.6,6.1,16.8,16.8
	c1.1,10.2,0.6,16.4,6.3,16.4c1.3,0,2.4-0.2,3.6-0.7l0.6,1.3c-3,1-5.9,1.5-8.9,1.5c-4.1,0-7-1.5-9.1-4.7c-2.9-4.5-2.7-10.8-3.8-18.5
	c-1.2-8.7-5.3-11-16.6-11h-3.3v32.2h7v1.4h-24.7V66.9L215.4,66.9z M233.2,33.3h3.3c13.2,0,19.6-4.6,19.6-14.4c0-10.8-5-15-16.1-15
	h-6.8L233.2,33.3L233.2,33.3z"/>
<path class="st0" d="M324.2,27.5c-5,0-9.6,2.1-13.4,6.1c-1.4,1.4-2.5,3-3.4,4.6c-3.4-6.3-9.8-10.6-16.8-10.6c-5,0-9.6,2.1-13.4,6.1
	c-4,4.2-6.1,9.5-6.1,14.9c0,5.5,2.1,10.8,6.1,14.9c3.8,4,8.4,6,13.4,6c5.1,0,9.6-2,13.3-6c1.4-1.5,2.5-3,3.4-4.7
	c0.9,1.7,2,3.2,3.4,4.7c3.8,4,8.4,6,13.4,6c5.1,0,9.6-2,13.3-6c4-4.3,6.1-9.5,6.1-14.9C343.6,37.1,334.6,27.5,324.2,27.5z M301,54.5
	c0,9.2-3.2,13.5-10.4,13.5c-7.2,0-10.5-4.4-10.5-13.5v-12c0-9.2,3.3-13.5,10.5-13.5c7.2,0,10.4,4.4,10.4,13.5V54.5z M334.6,54.5
	c0,9.2-3.2,13.5-10.4,13.5c-7.2,0-10.5-4.4-10.5-13.5v-12c0-9.2,3.3-13.5,10.5-13.5c7.2,0,10.4,4.4,10.4,13.5V54.5z"/>
<path class="st0" d="M343.1,30.1v-1.4h4.8c4.2,0,7.3-0.4,9.3-1.2v8.9c3.7-6,8.2-8.9,14.1-8.9c6.7,0,11.4,3.6,12.4,9.4
	c3.9-6.3,8.5-9.4,14.5-9.4c7.8,0,12.7,4.7,12.7,12.4v27h5.8v1.4h-19.7v-1.4h5.6V37c0-5.3-1-7.7-5.5-7.7c-5.2,0-9.2,3.2-13.1,9.8
	v27.8h5.8v1.4h-19.7v-1.4h5.6V37c0-5.3-1-7.7-5.5-7.7c-5.2,0-9.4,3.2-13,9.8v27.8h5.5v1.4h-19.6v-1.4h5.7V30.1H343.1z"/>
</svg>
