<svg version="1.1" id="layer" xmlns="http://www.w3.org/2000/svg" xmlns:xlink="http://www.w3.org/1999/xlink" x="0px" y="0px"
	 viewBox="0 0 652 652" style="enable-background:new 0 0 652 652;" xml:space="preserve" height="62px" width="62px">
<style type="text/css">
	.st0{fill:#FFFFFF;}
</style>
<g>
	<path class="st0" d="M326,76C188,76,76,188,76,326c0,138.1,111.9,250,250,250s250-111.9,250-250C576,188,464,76,326,76z M326,366.9
		c11.8,0,21.2-4.5,27.8-11.8h-16.5v-22.5h52.1v55h-22.6v-12.2c-10.4,9.8-23.9,15.7-40.8,15.7c-35.9,0-65-29.1-65-65
		c0-35.9,29.1-65,65-65c31,0,56.9,21.7,63.4,50.8h-25c-5.8-15.7-20.8-26.8-38.4-26.8c-22.6,0-40.9,18.3-40.9,40.9
		C285.1,348.6,303.4,366.9,326,366.9z M471.5,387.6l-25.3-41.4H432v41.3h-24.1v-123H456c22.6,0,40.8,18.3,40.8,40.9
		c0,16.5-9.8,30.7-23.9,37.2l27.6,45H471.5z M519,387.5v-123h24.1v123H519z"/>
	<path class="st0" d="M456,288.6h-24v33.6h24c9.3,0,16.8-7.5,16.8-16.8S465.3,288.6,456,288.6z"/>
</g>
</svg>
