<svg id="Layer_1" data-name="Layer 1" xmlns="http://www.w3.org/2000/svg" viewBox="0 0 128.99 34.93" width="135px" height="37px"><defs><style>.cls-1{fill:#fff;}</style></defs><polygon class="cls-1" points="0 0.05 0 23.16 16.8 23.16 16.8 17.98 6.02 17.98 6.02 0.05 0 0.05"/><rect class="cls-1" x="20.43" y="0.05" width="6.02" height="23.1"/><polygon class="cls-1" points="30.55 0.05 36.73 0.05 44.76 14.29 44.82 14.29 44.82 0.05 50.48 0.05 50.48 23.16 44.3 23.16 36.28 8.76 36.21 8.76 36.21 23.16 30.55 23.16 30.55 0.05"/><polygon class="cls-1" points="54.59 0.05 60.61 0.05 60.61 8.92 68.22 0.05 75.69 0.05 67.15 9.14 76.76 23.16 69.29 23.16 63.07 13.45 60.61 16.04 60.61 23.16 54.59 23.16 54.59 0.05"/><path class="cls-1" d="M267.59,440.11a2.82,2.82,0,1,1-2.82-2.82,2.81,2.81,0,0,1,2.82,2.82" transform="translate(-241.53 -407.99)"/><polygon class="cls-1" points="80.09 0 81.47 0 84.9 8.68 88.31 0 89.69 0 89.69 9.89 88.75 9.89 88.75 1.34 88.72 1.34 85.34 9.89 84.45 9.89 81.06 1.34 81.03 1.34 81.03 9.89 80.09 9.89 80.09 0"/><path class="cls-1" d="M332.94,412.92c.08-1.68,1.26-2.4,2.89-2.4,1.27,0,2.64.39,2.64,2.3v3.8a.47.47,0,0,0,.51.53.77.77,0,0,0,.28-.06v.74a2.52,2.52,0,0,1-.57.05c-.89,0-1-.5-1-1.25h0a2.74,2.74,0,0,1-2.61,1.46c-1.32,0-2.4-.65-2.4-2.09,0-2,2-2.08,3.84-2.3.72-.09,1.12-.18,1.12-1,0-1.18-.84-1.47-1.87-1.47s-1.88.5-1.91,1.66Zm4.65,1.05h0c-.11.21-.5.28-.74.32-1.48.26-3.32.25-3.32,1.65a1.48,1.48,0,0,0,1.59,1.41,2.29,2.29,0,0,0,2.49-2.24Z" transform="translate(-241.53 -407.99)"/><path class="cls-1" d="M340.21,410.73h.8v1.68h0a2.66,2.66,0,0,1,2.7-1.78v.88a2.46,2.46,0,0,0-2.66,2.56v3.81h-.87Z" transform="translate(-241.53 -407.99)"/><polygon class="cls-1" points="103.04 0 103.91 0 103.91 6.21 107.88 2.74 109.04 2.74 105.99 5.39 109.25 9.89 108.16 9.89 105.33 6 103.91 7.18 103.91 9.89 103.04 9.89 103.04 0"/><path class="cls-1" d="M352,414.54c0,1.28.68,2.81,2.36,2.81a2.17,2.17,0,0,0,2.24-1.82h.88a2.93,2.93,0,0,1-3.12,2.56c-2.28,0-3.23-1.75-3.23-3.78s.95-3.79,3.23-3.79,3.21,2,3.14,4Zm4.63-.73a2.4,2.4,0,0,0-2.27-2.55,2.53,2.53,0,0,0-2.36,2.55Z" transform="translate(-241.53 -407.99)"/><path class="cls-1" d="M360.07,410.73h1.46v.74h-1.46v4.82c0,.57.09.9.71.94a6.28,6.28,0,0,0,.75,0v.75l-.78,0c-1.16,0-1.56-.38-1.55-1.6v-4.89H358v-.74h1.25v-2.15h.87Z" transform="translate(-241.53 -407.99)"/><path class="cls-1" d="M322.09,428c0,2,1.43,2.66,3.23,2.66,1,0,2.62-.57,2.62-2,0-1.12-1.12-1.57-2-1.79l-2.2-.54c-1.16-.29-2.23-.84-2.23-2.38,0-1,.62-2.79,3.41-2.79,1.95,0,3.67,1.06,3.66,3.08h-.94a2.44,2.44,0,0,0-2.71-2.27c-1.29,0-2.48.5-2.48,2,0,.93.7,1.32,1.5,1.51l2.41.6c1.4.38,2.56,1,2.56,2.61,0,.68-.27,2.82-3.78,2.82-2.34,0-4.06-1.05-4-3.46Z" transform="translate(-241.53 -407.99)"/><path class="cls-1" d="M330.72,428c0,1.27.68,2.81,2.36,2.81a2.17,2.17,0,0,0,2.24-1.83h.88a2.93,2.93,0,0,1-3.12,2.56c-2.27,0-3.23-1.74-3.23-3.78,0-1.88,1-3.78,3.23-3.78s3.21,2,3.14,4Zm4.63-.74a2.4,2.4,0,0,0-2.27-2.55,2.54,2.54,0,0,0-2.36,2.55Z" transform="translate(-241.53 -407.99)"/><path class="cls-1" d="M337.4,424.13h.8v1.68h0a2.63,2.63,0,0,1,2.7-1.77v.87a2.47,2.47,0,0,0-2.66,2.57v3.81h-.87Z" transform="translate(-241.53 -407.99)"/><polygon class="cls-1" points="99.42 16.15 100.39 16.15 102.64 22.43 102.67 22.43 104.89 16.15 105.79 16.15 103.11 23.3 102.18 23.3 99.42 16.15"/><path class="cls-1" d="M348.19,421.39h.87v1.4h-.87Zm0,2.74h.87v7.16h-.87Z" transform="translate(-241.53 -407.99)"/><path class="cls-1" d="M355.78,426.38a1.93,1.93,0,0,0-2-1.72c-1.68,0-2.51,1.53-2.51,3s.83,3.05,2.51,3.05a2.14,2.14,0,0,0,2.08-2h.87a2.91,2.91,0,0,1-2.95,2.77c-2.19,0-3.38-1.73-3.38-3.78s1.19-3.78,3.38-3.78a2.68,2.68,0,0,1,2.9,2.45Z" transform="translate(-241.53 -407.99)"/><path class="cls-1" d="M358.44,428c0,1.27.68,2.81,2.36,2.81a2.18,2.18,0,0,0,2.24-1.83h.87a2.91,2.91,0,0,1-3.11,2.56c-2.28,0-3.23-1.74-3.23-3.78,0-1.88.95-3.78,3.23-3.78s3.21,2,3.14,4Zm4.63-.74a2.4,2.4,0,0,0-2.27-2.55,2.54,2.54,0,0,0-2.36,2.55Z" transform="translate(-241.53 -407.99)"/><path class="cls-1" d="M369.4,426.23a1.65,1.65,0,0,0-1.87-1.57c-.78,0-1.69.31-1.69,1.23s.88,1.06,1.48,1.21l1.16.26c1,.16,2,.74,2,2,0,1.55-1.54,2.14-2.87,2.14-1.66,0-2.8-.77-2.94-2.52h.88a1.88,1.88,0,0,0,2.1,1.79c.82,0,2-.36,2-1.36,0-.83-.78-1.11-1.57-1.3l-1.12-.25c-1.14-.31-2-.69-2-1.91,0-1.46,1.43-2,2.69-2a2.34,2.34,0,0,1,2.62,2.3Z" transform="translate(-241.53 -407.99)"/></svg>