<svg id="Layer_1" data-name="Layer 1" xmlns="http://www.w3.org/2000/svg" viewBox="0 0 19.11 19.1101" height="20px" width="20px"><defs><style>.cls-1{fill:#666;}</style></defs><path id="linkedin" class="cls-1" d="M17.69,0H1.41A1.3893,1.3893,0,0,0,0,1.38V17.73a1.3955,1.3955,0,0,0,1.41,1.38H17.69a1.4043,1.4043,0,0,0,1.42-1.38V1.38A1.3981,1.3981,0,0,0,17.69,0ZM5.67,16.28H2.83V7.16H5.67v9.12ZM4.25,5.92A1.6452,1.6452,0,1,1,5.89,4.27,1.643,1.643,0,0,1,4.25,5.92ZM16.28,16.28H13.45V11.85c0-1.06-.02-2.42-1.47-2.42-1.48,0-1.7,1.15-1.7,2.34v4.51H7.44V7.16h2.72V8.41h.04a2.9672,2.9672,0,0,1,2.68-1.47c2.87,0,3.4,1.88,3.4,4.34v5Z"/></svg>