<svg id="Layer_1" data-name="Layer 1" xmlns="http://www.w3.org/2000/svg" viewBox="0 0 59.155 48.0742" height="20" width="24"><defs><style>.cls-1{fill:#666;}</style></defs><path class="cls-1" d="M18.603,48.0742c22.325,0,34.531-18.4941,34.531-34.53,0-.5253-.01-1.0488-.033-1.5693a24.71,24.71,0,0,0,6.054-6.2832A24.2932,24.2932,0,0,1,52.185,7.6,12.1812,12.1812,0,0,0,57.522.8867,24.315,24.315,0,0,1,49.814,3.835,12.1433,12.1433,0,0,0,29.133,14.9014,34.4641,34.4641,0,0,1,4.115,2.2217,12.146,12.146,0,0,0,7.873,18.4229a12.0248,12.0248,0,0,1-5.497-1.5176c-.002.0517-.002.1035-.002.1543a12.1465,12.1465,0,0,0,9.737,11.9013,12.3474,12.3474,0,0,1-3.199.4239A12.1859,12.1859,0,0,1,6.63,29.166a12.1527,12.1527,0,0,0,11.338,8.4307A24.3528,24.3528,0,0,1,2.893,42.793,24.61,24.61,0,0,1,0,42.623a34.353,34.353,0,0,0,18.603,5.4512"/></svg>