<svg id="Layer_1" data-name="Layer 1" xmlns="http://www.w3.org/2000/svg" viewBox="0 0 69.4431 48.9238" height="20" width="28"><defs><style>.cls-1{fill:#666;}</style></defs><path class="cls-1" d="M67.992,7.6387A8.7325,8.7325,0,0,0,61.853,1.458C56.436,0,34.721,0,34.721,0S13.006,0,7.59,1.458A8.7373,8.7373,0,0,0,1.45,7.6387C0,13.0889,0,24.4619,0,24.4619S0,35.835,1.45,41.2842a8.73,8.73,0,0,0,6.14,6.1787c5.416,1.4609,27.131,1.4609,27.131,1.4609s21.715,0,27.132-1.4609a8.7249,8.7249,0,0,0,6.139-6.1787c1.4511-5.4492,1.4511-16.8223,1.4511-16.8223s0-11.373-1.4511-16.8232M27.62,34.7852v-20.65L45.77,24.4619Z"/></svg>