

<svg version="1.1" id="Layer_1" xmlns="http://www.w3.org/2000/svg" xmlns:xlink="http://www.w3.org/1999/xlink" x="0px" y="0px"
	 viewBox="0 0 166.8 200" style="enable-background:new 0 0 166.8 200;" xml:space="preserve" height="70px" width="58px">
<style type="text/css">
	.st0{fill:#FFFFFF;}
</style>
<path class="st0" d="M97.6,0.7C57.4,0.7,43.2,63,30,113.2c-4.8-4.8-19.5-19.5-19.5-19.4c-3-2.9-6.4-2-8.4,0.1c-2.1,2.1-2.4,6,0,8.3
	c0.1,0.1,19.9,19.8,26.8,26.6c1.9,1.8,4.6,2.9,7.4,1.3c2.8-1.7,3.2-4.8,3.3-4.8C63,20.3,84,12.5,97.6,12.5
	c11.5,0,24.7,8.4,24.7,25.3c17.1,0,27.8,22.4,14,36.2c11.4,5.5,16.5,12.3,16.5,20.8c0,8.6-7.2,17.3-17.7,17.3
	c-10.4,0-15.7-6.7-23.8-6.7c-3.7,0-5.9,3-5.9,5.9v21.2H90v-21.1c0-3.3-2.5-5.9-5.5-5.9c0,0-1.3,0-1.3,0.1l-20.5,2.5
	c-2.5,0.4-4.8,3.1-4.8,5.8c0,3.2,2.7,5.9,6.3,5.9c0.5,0,1.1,0,1-0.1l13-1.7v21c0,2.6,3,5.2,5.7,5.2h27.3c3.2,0,5.9-2.7,5.9-5.9
	v-19.1c5.7,3.5,13.6,4.8,17.7,4.8c15.3,0,29.9-12,29.8-29.6c-0.1-15.9-12.3-23.9-12.3-23.9c7.2-19.1-4.4-37.5-19.5-42.6
	C127.5,8.3,110.7,0.7,97.6,0.7"/>
<path class="st0" d="M97.6,0.7C57.4,0.7,43.2,63,30,113.2c-4.8-4.8-19.5-19.5-19.5-19.4c-3-2.9-6.4-2-8.4,0.1c-2.1,2.1-2.4,6,0,8.3
	c0.1,0.1,19.9,19.8,26.8,26.6c1.9,1.8,4.6,2.9,7.4,1.3c2.8-1.7,3.2-4.8,3.3-4.8C63,20.3,84,12.5,97.6,12.5
	c11.5,0,24.7,8.4,24.7,25.3c17.1,0,27.8,22.4,14,36.2c11.4,5.5,16.5,12.3,16.5,20.8c0,8.6-7.2,17.3-17.7,17.3
	c-10.4,0-15.7-6.7-23.8-6.7c-3.7,0-5.9,3-5.9,5.9v21.2H90v-21.1c0-3.3-2.5-5.9-5.5-5.9c0,0-1.3,0-1.3,0.1l-20.5,2.5
	c-2.5,0.4-4.8,3.1-4.8,5.8c0,3.2,2.7,5.9,6.3,5.9c0.5,0,1.1,0,1-0.1l13-1.7v21c0,2.6,3,5.2,5.7,5.2h27.3c3.2,0,5.9-2.7,5.9-5.9
	v-19.1c5.7,3.5,13.6,4.8,17.7,4.8c15.3,0,29.9-12,29.8-29.6c-0.1-15.9-12.3-23.9-12.3-23.9c7.2-19.1-4.4-37.5-19.5-42.6
	C127.5,8.3,110.7,0.7,97.6,0.7"/>
<path class="st0" d="M80.5,167.6c0,4.9,5.5,7.9,14.6,12.2c7.2,3.4,11.3,6.9,11.3,9.8c0,4.6-5,6.3-9.7,6.3c-7.2,0-11.5-2.9-13.9-9.3
	l-0.2-0.5H82c-1.3,0-2.3,0.1-2.8,0.7c-0.5,0.7-0.4,1.5-0.2,2.4l1.6,6.6c0.4,1.6,1,1.9,3.6,2.4c1.1,0.2,7,1.2,11.9,1.2
	c13.8,0,20-5.6,20-11.2c0-4-4-7.9-12.7-12.2l-3.9-1.9c-5.9-2.8-9.5-4.5-9.5-7.5c0-2.9,3.7-4.9,9-4.9c6.9,0,8.8,3.9,9.6,7.2l0.2,0.6
	h0.7c1.5,0,2.5-0.1,3.1-0.7c0.3-0.4,0.5-0.8,0.4-1.4l-0.5-5.7c-0.2-1.8-1.6-2.1-3.5-2.5c-2.3-0.4-5.1-0.9-9.3-0.9
	C87.6,158.2,80.5,161.7,80.5,167.6"/>
<path class="st0" d="M120.3,179.2c0,10,8.7,20.1,25.3,20.1c8.4,0,13.1-1.9,16.6-3.8l0.9-0.5l-1.5-1.7l0.1,0.1
	c-0.4-0.5-0.7-0.6-1.2-0.6l-0.8,0.3c-1.3,0.6-5.1,2.4-12.1,2.4c-8.6,0-17.8-5.6-17.8-17.9c0-11.7,10-15.8,18.6-15.8
	c6.2,0,9.4,2.2,10.1,6.7l0.1,0.7h0.8c0.7,0,2.7,0,2.7-1.5v-6.8c0-1.7-1.9-1.9-2.7-2l-0.8-0.1c-2-0.3-3.9-0.5-8.9-0.5
	C132.6,158.2,120.3,167,120.3,179.2"/>
<path class="st0" d="M57.7,158.7l-15,0.1l-10-0.2h-1.5c-0.9,0-1.5,0.6-1.5,1.6c0,0.4,0,1.8,1.7,1.8c6,0,6.3,0.5,6.3,2.8l0.1,1.5
	l0.1,6.1v13.2c0,2.2-0.1,5.7-0.2,8.5c0,0.8-0.1,1.6-5.4,1.6c-1.5,0-2.4,0.3-2.4,1.8c0,0.4,0,1.6,1.4,1.6h0.3c0.6,0,2.3-0.1,10.7-0.1
	c8.9,0,10.7,0.1,11.3,0.1h0.3c1.2,0,2.2-0.1,2.2-1.6c0-1.6-1.3-1.8-3.6-1.8c-5.3,0-5.4-0.8-5.4-1.6c-0.1-2.6-0.2-6.1-0.2-8.5v-4.8
	h4.5c6.9,0,7.6,0.2,8.6,5.5c0.3,1.1,1.2,1.3,2,1.3c1.6,0,1.8-0.9,1.8-1.3l-0.1-2c-0.1-1.1-0.2-2.5-0.2-4.5v-8.1
	c0-1.2-1.5-1.2-2.3-1.2c-1.3,0-1.6,0.8-2.4,4.7c-0.4,1.5-3.2,2.3-7.8,2.3h-4v-11.9c0-3.2,0.6-3.3,1.3-3.3c2.6-0.1,9-0.3,10.9-0.3
	c1.8,0,3.5,0.4,4.6,1.1c3.4,2.1,5.1,3.5,6.2,4.4c1,0.8,1.6,1.3,2.4,1.3c0.5,0,1.9,0,1.9-1.2c0-0.3-0.1-0.6-0.6-1.6
	c-0.5-1.2-1.5-3.2-2.7-6.3c-0.3-1-1.5-1-3.6-1L57.7,158.7z"/>
<path class="st0" d="M152.6,12.8h2.1c1,0,1.6-0.2,2-0.4c0.4-0.3,0.6-0.7,0.6-1.2s-0.2-0.9-0.5-1.2c-0.4-0.3-1.1-0.4-2.2-0.4h-2
	L152.6,12.8L152.6,12.8z M159.9,18.8h-2.1c-1.3-2.4-2.2-3.8-2.6-4.1c-0.4-0.3-0.9-0.5-1.5-0.5h-1v4.5H151V8.1h3.7
	c1.1,0,1.9,0.1,2.6,0.3c0.6,0.1,1.1,0.5,1.5,1s0.6,1.1,0.6,1.7c0,0.7-0.3,1.4-0.8,2s-1.3,0.9-2.3,1l0,0c0.6,0.2,1.5,1.1,2.5,2.7
	L159.9,18.8z M155.2,21.6c2.3,0,4.2-0.8,5.9-2.4c1.6-1.6,2.5-3.6,2.5-5.9s-0.8-4.2-2.5-5.9c-1.6-1.6-3.6-2.4-5.9-2.4
	c-2.3,0-4.3,0.8-5.9,2.4c-1.6,1.6-2.4,3.6-2.4,5.9s0.8,4.3,2.4,5.9S152.9,21.6,155.2,21.6 M155.2,3.4c2.7,0,5.1,1,7,2.9
	c2,2,2.9,4.3,2.9,7s-1,5.1-2.9,7c-2,1.9-4.3,2.9-7,2.9c-2.8,0-5.1-1-7.1-2.9c-2-2-2.9-4.3-2.9-7.1c0-2.7,1-5.1,2.9-7
	C150.1,4.3,152.5,3.4,155.2,3.4"/>
<path class="st0" d="M155.2,23.8c-2.9,0-5.4-1-7.4-3.1c-2.1-2-3.1-4.5-3.1-7.4s1-5.4,3.1-7.4c2-2,4.6-3.1,7.4-3.1
	c2.8,0,5.3,1,7.4,3.1c2.1,2,3.1,4.5,3.1,7.4s-1,5.4-3.1,7.4C160.6,22.7,158.1,23.8,155.2,23.8 M155.2,3.9c-2.6,0-4.9,0.9-6.7,2.8
	c-1.9,1.9-2.8,4-2.8,6.6s0.9,4.8,2.8,6.7c1.8,1.8,4.1,2.8,6.7,2.8c2.6,0,4.8-0.9,6.7-2.8c1.8-1.8,2.8-4.1,2.8-6.7s-0.9-4.8-2.8-6.7
	C160,4.8,157.8,3.9,155.2,3.9"/>
<path class="st0" d="M155.2,22.2c-2.4,0-4.5-0.9-6.3-2.6c-1.7-1.7-2.6-3.8-2.6-6.3c0-2.4,0.9-4.5,2.6-6.2c1.7-1.7,3.8-2.6,6.3-2.6
	c2.4,0,4.5,0.9,6.3,2.6c1.7,1.7,2.6,3.8,2.6,6.2s-0.9,4.5-2.6,6.3C159.7,21.3,157.6,22.2,155.2,22.2 M155.2,5.5
	c-2.1,0-4,0.8-5.5,2.3s-2.3,3.3-2.3,5.5c0,2.1,0.8,4,2.3,5.5s3.4,2.3,5.5,2.3c2.2,0,4-0.8,5.5-2.3s2.3-3.3,2.3-5.5s-0.8-3.9-2.3-5.5
	C159.2,6.3,157.3,5.5,155.2,5.5"/>
<path class="st0" d="M160.8,19.3h-3.4l-0.2-0.3c-1.8-3.3-2.4-3.9-2.5-3.9c-0.3-0.2-0.7-0.3-1.2-0.3H153v4.5h-2.8V7.6h4.3
	c1.2,0,2.1,0.1,2.7,0.3C158,8,158.6,8.4,159,9s0.7,1.3,0.7,2c0,0.9-0.3,1.7-0.9,2.3c-0.4,0.4-0.8,0.7-1.4,0.9c0.5,0.5,1,1.2,1.7,2.2
	L160.8,19.3z M158.1,18.3h0.9l-0.8-1.3c-1.3-2.1-2-2.4-2.2-2.4l-0.3-0.1C156.2,15.1,157,16.3,158.1,18.3 M151.4,18.3h0.7v-4.5h1.6
	c0.7,0,1.4,0.2,1.8,0.6c0,0,0.1,0,0.1,0.1v-0.8l0.5-0.1c0.9-0.1,1.5-0.3,1.9-0.8c0.5-0.5,0.7-1,0.7-1.6c0-0.5-0.2-0.9-0.5-1.3
	s-0.7-0.9-1.2-1c-0.5-0.2-1.3-0.2-2.4-0.2h-3.2L151.4,18.3L151.4,18.3z"/>
<path class="st0" d="M154.7,13.3H152V9h2.5c1.2,0,2,0.2,2.5,0.5c0.5,0.4,0.8,0.9,0.8,1.6c0,0.7-0.3,1.2-0.8,1.6
	C156.5,13.2,155.8,13.3,154.7,13.3 M153.1,12.3h1.6c1,0,1.5-0.2,1.7-0.3c0.2-0.2,0.3-0.4,0.3-0.8c0-0.3-0.1-0.6-0.3-0.8
	c-0.1-0.1-0.5-0.3-1.9-0.3H153L153.1,12.3L153.1,12.3z"/>
</svg>
