<svg width="184" height="37" viewBox="0 0 792 161" fill="none" xmlns="http://www.w3.org/2000/svg">
<path d="M286.848 136.138V24.0166H334.173V40.6763H305.015V69.5119H328.761V86.1715H305.015V119.491H334.173V136.151H286.848V136.138ZM383.572 108.436C383.572 115.484 381.343 119.646 372.414 119.646H363.962V40.5217H372.568C381.497 40.5217 383.726 45.8043 383.726 51.7312L383.572 108.436ZM376.086 136.138C392.655 136.138 401.907 127.492 401.907 109.222V50.2753C401.907 32.4946 392.501 24.0037 375.609 24.0037H345.807V136.125H376.086V136.138ZM453.535 106.349C453.535 115.316 449.876 119.968 441.9 119.968H433.139V86.3262H441.423C449.077 86.3262 453.535 91.7763 453.535 99.1334V106.349ZM452.581 59.9C452.427 67.9142 447.157 71.5991 442.377 71.5991H433.139V40.3542H442.055C449.708 40.3542 452.891 44.0392 452.736 53.0068L452.581 59.9ZM447.479 136.138C460.699 136.138 472.179 126.526 472.179 104.261C472.179 91.1321 465.646 81.997 456.885 78.9562V78.312C465.968 74.4724 471.547 65.1698 471.547 52.8393C471.547 32.0179 461.343 24.0037 445.894 24.0037H415.139V136.125H447.479V136.138ZM509.943 138.225C529.219 138.225 537.503 125.572 537.503 108.114V24.0166H520.29V107.624C520.29 114.672 518.537 121.72 510.407 121.72C501.8 121.72 500.215 113.551 500.215 107.946V24.0166H482.048V109.389C482.061 128.768 492.253 138.225 509.943 138.225ZM588.822 106.349C588.822 115.316 585.163 119.968 577.188 119.968H568.426V86.3262H576.711C584.364 86.3262 588.822 91.7763 588.822 99.1334V106.349ZM587.869 59.9C587.714 67.9142 582.444 71.5991 577.664 71.5991H568.426V40.3542H577.342C584.996 40.3542 588.178 44.0392 588.024 53.0068L587.869 59.9ZM582.767 136.138C595.986 136.138 607.466 126.526 607.466 104.261C607.466 91.1321 600.934 81.997 592.172 78.9562V78.312C601.256 74.4724 606.835 65.1698 606.835 52.8393C606.835 32.0179 596.63 24.0037 581.182 24.0037H550.426V136.125H582.767V136.138ZM656.994 106.349C656.994 115.316 653.335 119.968 645.36 119.968H636.598V86.3262H644.883C652.536 86.3262 656.994 91.7763 656.994 99.1334V106.349ZM656.041 59.9C655.886 67.9142 650.617 71.5991 645.836 71.5991H636.598V40.3542H645.527C653.181 40.3542 656.363 44.0392 656.208 53.0068L656.041 59.9ZM650.939 136.138C664.171 136.138 675.638 126.526 675.638 104.261C675.638 91.1321 669.106 81.997 660.344 78.9562V78.312C669.428 74.4724 675.007 65.1698 675.007 52.8393C675.007 32.0179 664.802 24.0037 649.354 24.0037H618.598V136.125H650.939V136.138ZM734.031 136.138V119.478H704.873V24.0166H686.706V136.138H734.031ZM791.908 136.138V119.478H762.75V86.1715H786.497V69.5119H762.75V40.6763H791.908V24.0166H744.583V136.138H791.908ZM256.337 62.464C256.183 69.0351 253.941 75.9155 245.347 75.9155H236.74V40.3542H245.501C253.631 40.3542 256.659 47.5566 256.492 53.651L256.337 62.464ZM274.324 136.138C274.324 136.138 274.118 130.353 273.86 123.318C273.603 116.296 273.061 99.9322 273.061 99.9322C272.739 89.8436 270.678 82.3191 260.628 79.5875V79.1108C269.067 75.748 274.968 66.3036 274.968 53.4835C274.968 33.2935 265.408 24.0037 246.919 24.0037H218.56V136.125H236.727V89.9982H245.488C252.652 89.9982 255.203 94.3274 255.371 101.852C255.371 101.852 255.861 119.658 256.015 124.915C256.157 130.172 256.17 136.125 256.17 136.125H274.324V136.138Z" fill="#E41421"/>
<path d="M80.09 0.0900269C35.9089 0.0900269 0.0899658 35.909 0.0899658 80.09C0.0899658 124.271 35.9089 160.09 80.09 160.09C124.271 160.09 160.09 124.271 160.09 80.09C160.09 35.909 124.271 0.0900269 80.09 0.0900269ZM80.0127 108.913H35.7286C34.5561 108.913 33.6026 107.959 33.6026 106.774V53.2516C33.6026 52.0662 34.5561 51.1127 35.7286 51.1127H56.4211C69.3443 51.1127 77.0621 58.0704 77.0621 69.7309C77.0621 77.4873 73.1581 83.5817 66.8833 86.0427L81.6232 105.357C81.9582 105.73 82.1644 106.233 82.1644 106.774C82.1386 107.959 81.1851 108.913 80.0127 108.913ZM110.974 108.913H89.6503C88.4778 108.913 87.5115 107.959 87.5115 106.774V53.2516C87.5115 52.0662 88.4649 51.1127 89.6503 51.1127H109.428C124.258 51.1127 127.376 59.8484 127.376 67.1668C127.376 71.4059 126.255 74.7687 124.013 77.2425C129.451 79.4844 132.388 84.5481 132.388 91.8665C132.388 102.548 124.374 108.913 110.974 108.913Z" fill="#E41421"/>
</svg>
