<svg id="Layer_1" data-name="Layer 1" xmlns="http://www.w3.org/2000/svg" xmlns:xlink="http://www.w3.org/1999/xlink" viewBox="0 0 45.63 36" height="95px" width="95px"><defs><style>.cls-1{fill:url(#linear-gradient);}.cls-2{fill:url(#linear-gradient-2);}.cls-3{fill:url(#linear-gradient-3);}.cls-4{fill:url(#linear-gradient-4);}.cls-5{fill:url(#linear-gradient-5);}.cls-6{fill:url(#linear-gradient-6);}.cls-7{fill:#00582d;}</style><linearGradient id="linear-gradient" x1="12517.43" y1="-7147.56" x2="12387.16" y2="-7117.16" gradientTransform="matrix(0.07, 0, 0, -0.07, -846.07, -481.65)" gradientUnits="userSpaceOnUse"><stop offset="0.12" stop-color="#00994f"/><stop offset="0.32" stop-color="#2fa851"/><stop offset="0.65" stop-color="#74bf53"/><stop offset="0.88" stop-color="#a0ce54"/><stop offset="1" stop-color="#b1d355"/></linearGradient><linearGradient id="linear-gradient-2" x1="12468.4" y1="-6865.97" x2="12468.4" y2="-7160.28" gradientTransform="matrix(0.07, 0, 0, -0.07, -846.07, -481.65)" gradientUnits="userSpaceOnUse"><stop offset="0" stop-color="#06a94e"/><stop offset="0.13" stop-color="#37b550"/><stop offset="0.27" stop-color="#62c052"/><stop offset="0.41" stop-color="#84c853"/><stop offset="0.53" stop-color="#9dce54"/><stop offset="0.65" stop-color="#acd255"/><stop offset="0.75" stop-color="#b1d355"/></linearGradient><linearGradient id="linear-gradient-3" x1="12232.24" y1="-6866.04" x2="12232.24" y2="-7160.04" xlink:href="#linear-gradient-2"/><linearGradient id="linear-gradient-4" x1="12304.58" y1="-7003.23" x2="12304.58" y2="-7148.05" gradientTransform="matrix(0.07, 0, 0, -0.07, -846.07, -481.65)" gradientUnits="userSpaceOnUse"><stop offset="0.19" stop-color="#00994f"/><stop offset="0.45" stop-color="#4cb252"/><stop offset="0.78" stop-color="#b1d355"/></linearGradient><linearGradient id="linear-gradient-5" x1="12248.73" y1="-7201.29" x2="12356.9" y2="-6793.25" gradientTransform="matrix(0.07, 0, 0, -0.07, -846.07, -481.65)" gradientUnits="userSpaceOnUse"><stop offset="0.05" stop-color="#00994f"/><stop offset="0.09" stop-color="#16a050"/><stop offset="0.2" stop-color="#4db252"/><stop offset="0.3" stop-color="#78c053"/><stop offset="0.39" stop-color="#97cb54"/><stop offset="0.47" stop-color="#aad155"/><stop offset="0.52" stop-color="#b1d355"/></linearGradient><linearGradient id="linear-gradient-6" x1="12327.39" y1="-6960.74" x2="12452.39" y2="-6837.35" gradientTransform="matrix(0.07, 0, 0, -0.07, -846.07, -481.65)" gradientUnits="userSpaceOnUse"><stop offset="0" stop-color="#5cb249"/><stop offset="0.53" stop-color="#8bc450"/><stop offset="1" stop-color="#b1d355"/></linearGradient></defs><g id="WW_MS_V" data-name="WW MS V"><path class="cls-1" d="M28.41,22.19A7.77,7.77,0,0,1,26.55,22h0a11.26,11.26,0,0,1-3.65,3.25,8.8,8.8,0,0,0,4.22,1.11c5.84,0,9.81-6.07,10.28-11.23A8.65,8.65,0,0,1,28.41,22.19Z"/><path class="cls-2" d="M29.86,6.06A5.52,5.52,0,0,0,25.7,7.69c2.9.29,6.46,2.33,6.46,6.57a6.49,6.49,0,0,1-4.9,6.6A11.86,11.86,0,0,1,26.54,22a6.75,6.75,0,0,0,1.87.23,8.66,8.66,0,0,0,9-7.12,9,9,0,0,0,.05-1A7.55,7.55,0,0,0,29.86,6.06Z"/><path class="cls-3" d="M17.4,22.19a7.18,7.18,0,0,0,4.15-1.29,4.64,4.64,0,0,1-1.34.22,6.62,6.62,0,0,1-6.57-6.86C13.64,10,17.2,8,20.1,7.69a5.52,5.52,0,0,0-4.16-1.63,7.55,7.55,0,0,0-7.59,8c0,.34,0,.68.05,1A8.64,8.64,0,0,0,17.4,22.19Z"/><path class="cls-4" d="M20.27,21.22a2.22,2.22,0,0,0,1.28-.32h0a6.87,6.87,0,0,0,1.38-1.26h0a7.24,7.24,0,0,1-1.52-4.27,3.65,3.65,0,0,1,1.51-3.25h0a3.85,3.85,0,0,0-2.14-.75,3.69,3.69,0,0,0-3.48,3h0c0,.1,0,.2-.05.29a12.59,12.59,0,0,0-.08,1.37,10.2,10.2,0,0,0,1.56,5A6.29,6.29,0,0,0,20.27,21.22Z"/><path class="cls-5" d="M22.94,9.42c-3.52,0-5.2,2.59-5.65,5a3.53,3.53,0,0,1,5.62-2.27h0a4,4,0,0,1,1.57,3.39,6.54,6.54,0,0,1-1.56,4.13h0a7.11,7.11,0,0,1-5.53,2.55,8.64,8.64,0,0,1-9-7.1c.47,5.16,4.44,11.23,10.28,11.23s10.05-5.76,10.05-10.57C28.73,12.41,26.84,9.42,22.94,9.42Z"/><path class="cls-6" d="M23.05,7.45a4.6,4.6,0,0,1-1.3-2.76A4.19,4.19,0,0,1,24,.77c4.3-2.29,8,1.05,7.6,3.22a7.2,7.2,0,0,0-6.15.28A4.67,4.67,0,0,0,23.05,7.45Z"/></g><g id="Layer_1-2" data-name="Layer 1"><rect class="cls-7" x="18.33" y="28.04" width="0.64" height="7.83"/><path class="cls-7" d="M17.62,33.09c0,1.75-.95,2.91-2.38,2.91s-2.42-1.15-2.42-2.91.95-2.92,2.43-2.92S17.62,31.31,17.62,33.09Zm-4.1,0c0,1.35.71,2.35,1.71,2.35s1.7-1,1.7-2.36-.7-2.37-1.69-2.37S13.52,31.7,13.52,33.1Z"/><path class="cls-7" d="M31.17,33.09c0,1.75-1,2.91-2.38,2.91s-2.42-1.15-2.42-2.91,1-2.92,2.43-2.92S31.17,31.31,31.17,33.09Zm-4.1,0c0,1.35.71,2.35,1.71,2.35s1.7-1,1.7-2.36-.69-2.37-1.69-2.37S27.07,31.7,27.07,33.1Z"/><path class="cls-7" d="M12.34,33.09c0,1.75-.95,2.91-2.38,2.91s-2.42-1.15-2.42-2.91,1-2.92,2.43-2.92S12.34,31.31,12.34,33.09Zm-4.11,0c0,1.35.72,2.35,1.72,2.35s1.7-1,1.7-2.36S11,30.72,10,30.72,8.23,31.7,8.23,33.1Z"/><path class="cls-7" d="M38.22,30.31v.26c0,.24,0,.5,0,.74a1.93,1.93,0,0,1,1.75-1.08c1.23,0,1.68.91,1.74,2.07,0,.26,0,.71,0,1v2.6h-.63v-2.6c0-.32,0-.86,0-1.13-.07-.88-.51-1.36-1.22-1.36a1.58,1.58,0,0,0-1.39,1,2.35,2.35,0,0,0-.19.91c0,.17,0,.52,0,.61v2.6h-.63V28h.63Z"/><path class="cls-7" d="M45.17,31a3.12,3.12,0,0,0-1.06-.21,1,1,0,0,0-1.09.86c0,1.15,2.61,1,2.61,2.79,0,.93-.77,1.58-1.91,1.58a3.35,3.35,0,0,1-1.36-.28l0-.63a2.49,2.49,0,0,0,1.27.36,1.15,1.15,0,0,0,1.25-1c0-1.33-2.55-1.1-2.55-2.78,0-.86.68-1.43,1.74-1.42a2.75,2.75,0,0,1,1.1.2Z"/><path class="cls-7" d="M23.25,30.29s.78,3.16.94,3.9l.2.89s.12-.53.21-.89c.2-.75,1.09-3.9,1.09-3.9h.69l-1.62,5.58H24s-.86-3.69-1-4.14c-.05-.23-.11-.58-.11-.58s-.07.35-.12.58c-.1.45-.95,4.14-.95,4.14h-.76l-1.62-5.58h.69s.89,3.15,1.09,3.9c.09.36.21.89.21.89l.2-.89c.16-.74.94-3.9.94-3.9Z"/><path class="cls-7" d="M4.1,29.44,5.32,33.9c.1.37.25,1,.25,1s.14-.65.23-1c.16-.65,1.14-4.46,1.14-4.46H7.6L6,35.87H5.22S4,31.22,4,31s-.15-.69-.15-.69-.09.45-.15.69-1.27,4.89-1.27,4.89H1.66L0,29.44H.66s1,3.81,1.14,4.46c.09.37.23,1,.23,1s.15-.65.25-1L3.5,29.44Z"/><path class="cls-7" d="M31.86,35.87V30.3h.55v1.27a2,2,0,0,1,2-1.27h.54v-1.4l.64-.25V30.3h1.3v.56h-1.3v3.39c0,.8.25,1.08.79,1.08a1.46,1.46,0,0,0,.55-.11l.07.55a2.38,2.38,0,0,1-.65.1,1.4,1.4,0,0,1-1-.33,1.77,1.77,0,0,1-.37-1.32c0-.65,0-3.38,0-3.38a4.35,4.35,0,0,0-1.08.07,1.92,1.92,0,0,0-1.35,2v3Z"/></g></svg>